<svg viewBox="0 0 17 17" fill="none" xmlns="http://www.w3.org/2000/svg" xmlns:anim="http://www.w3.org/2000/anim" anim="" anim:transform-origin="50% 50%" anim:duration="0.5" anim:ease="power1.inOut">
  <g id="afa2fc087f42581a3e0ce9b601216741">
    <path id="39fbbc62395fb44f9018b0d5dd2027f1" d="M8.5 2.5V14.5M8.5 2.5H13.1667C13.5203 2.5 13.8594 2.64048 14.1095 2.89052C14.3595 3.14057 14.5 3.47971 14.5 3.83333V13.1667C14.5 13.5203 14.3595 13.8594 14.1095 14.1095C13.8594 14.3595 13.5203 14.5 13.1667 14.5H8.5V2.5ZM8.5 2.5H3.83333C3.47971 2.5 3.14057 2.64048 2.89052 2.89052C2.64048 3.14057 2.5 3.47971 2.5 3.83333V13.1667C2.5 13.5203 2.64048 13.8594 2.89052 14.1095C3.14057 14.3595 3.47971 14.5 3.83333 14.5H8.5V2.5Z" stroke="#F58026" stroke-width="2" stroke-linecap="round" stroke-linejoin="round"></path>
  </g>
</svg>