<svg viewBox="0 0 17 17" fill="none" xmlns="http://www.w3.org/2000/svg" xmlns:anim="http://www.w3.org/2000/anim" anim="" anim:transform-origin="50% 50%" anim:duration="0.5" anim:ease="power1.inOut">
  <g id="6e0b87bb05351633283ebf25579773d7" clip-path="url(#clip0_330_5455)">
    <path id="78e8203d030b208c1fa5a7fe552ca9a3" d="M15.8335 13.8333V9.83325H11.8335" stroke="#F58026" stroke-width="2" stroke-linecap="round" stroke-linejoin="round"></path>
    <path id="c9b85f517edd2af4f1b13dc506f54ebb" d="M1.1665 3.16675V7.16675H5.1665" stroke="#F58026" stroke-width="2" stroke-linecap="round" stroke-linejoin="round"></path>
    <path id="cf1d4310f23b1f0088f53135a6340a26" d="M14.1598 6.49989C13.8217 5.54441 13.2471 4.69016 12.4895 4.01683C11.732 3.34351 10.8162 2.87306 9.82765 2.64939C8.8391 2.42572 7.81 2.45612 6.83638 2.73774C5.86275 3.01936 4.97634 3.54303 4.25984 4.25989L1.1665 7.16655M15.8332 9.83322L12.7398 12.7399C12.0233 13.4567 11.1369 13.9804 10.1633 14.262C9.18967 14.5437 8.16058 14.5741 7.17203 14.3504C6.18348 14.1267 5.2677 13.6563 4.51015 12.9829C3.75259 12.3096 3.17795 11.4554 2.83984 10.4999" stroke="#F58026" stroke-width="2" stroke-linecap="round" stroke-linejoin="round"></path>
  </g>
  <defs>
    <clipPath id="clip0_330_5455">
      <rect width="16" height="16" fill="white" transform="translate(0.5 0.5)"></rect>
    </clipPath>
  </defs>
</svg>