<svg viewBox="0 0 46 46" fill="none" xmlns="http://www.w3.org/2000/svg" xmlns:anim="http://www.w3.org/2000/anim" anim="" anim:transform-origin="50% 50%" anim:duration="0.5" anim:ease="power1.inOut">
  <g id="8858237e856e580dd876e41615ffcfa1">
    <path id="301e871d6291a3fcc4ac73881c28ca3a" d="M13.7407 41.5186H8.18515C7.20287 41.5186 6.26081 41.1284 5.56623 40.4338C4.87166 39.7392 4.48145 38.7972 4.48145 37.8149V24.8519C4.48145 23.8697 4.87166 22.9276 5.56623 22.233C6.26081 21.5384 7.20287 21.1482 8.18515 21.1482H13.7407M26.7037 17.4445V10.0371C26.7037 8.5637 26.1184 7.15062 25.0765 6.10875C24.0346 5.06688 22.6215 4.48157 21.1481 4.48157L13.7407 21.1482V41.5186H34.6296C35.5228 41.5287 36.3895 41.2156 37.0702 40.6371C37.7508 40.0586 38.1994 39.2536 38.3333 38.3705L40.8888 21.7038C40.9694 21.173 40.9336 20.631 40.7839 20.1154C40.6342 19.5998 40.3742 19.1229 40.0219 18.7177C39.6696 18.3126 39.2334 17.9888 38.7436 17.769C38.2538 17.5492 37.722 17.4384 37.1851 17.4445H26.7037Z" stroke="#F58026" stroke-width="3" stroke-linecap="round" stroke-linejoin="round"></path>
  </g>
</svg>