<svg width="788" height="1252" viewBox="0 0 788 1252" fill="none" xmlns="http://www.w3.org/2000/svg">
<g opacity="0.3" clip-path="url(#clip0_2_21657)">
<path d="M775.022 50.3733L780.001 45.3952C781.4 41.5711 782.77 37.7472 784.098 33.9664L781.759 31.628C779.586 37.8042 777.33 44.043 774.993 50.3445L775.022 50.3733ZM-438.637 1239.41C-425.726 1234.77 -412.652 1229.89 -399.414 1224.75L-394.133 1219.47L-395.143 1219.87C-410.642 1226.04 -425.933 1231.78 -441.018 1237.08L-438.637 1239.41ZM738.459 86.8791L744.028 81.3095C753.045 59.6782 761.094 38.4941 768.105 17.9736L765.766 15.6352C757.967 38.6185 748.865 62.3665 738.459 86.8791ZM-454.73 1223.37C-439.434 1217.51 -423.892 1211.28 -408.105 1204.69C-391.212 1197.61 -374.116 1190.14 -356.819 1182.27L-350.73 1176.18C-370.461 1185.31 -389.957 1193.9 -409.216 1201.96C-425.475 1208.79 -441.407 1215.17 -457.011 1221.09L-454.73 1223.37ZM697.898 127.497L704.146 121.25C722.435 82.487 738.464 42.6981 752.155 2.08191L749.788 -0.285078C735.151 43.3422 717.821 86.0181 697.898 127.497ZM-470.723 1207.38C-454.811 1200.9 -438.62 1194 -422.15 1186.69C-383.779 1169.63 -344.11 1150.34 -303.792 1129.19L-296.635 1122.03C-339.536 1144.72 -381.889 1165.48 -423.348 1183.94C-440.241 1191.46 -456.798 1198.51 -473.018 1205.08L-470.723 1207.38ZM651.985 173.411L659.199 166.197C695.931 96.1519 720.267 35.8467 736.12 -14.0404L733.752 -16.4078C717.251 35.543 691.645 99.0807 652.028 173.368L651.985 173.411ZM-486.6 1191.5C-470.197 1184.38 -453.391 1176.76 -436.18 1168.65C-371.907 1138.36 -304.777 1102.4 -236.595 1061.99L-227.937 1053.33C-299.583 1096.11 -370.017 1134.13 -437.407 1165.89C-454.974 1174.17 -472.107 1181.93 -488.808 1189.18L-486.6 1191.5ZM607.253 211.59C604.165 216.852 600.982 222.22 597.702 227.694L606.359 219.036L609.88 213.034C666.71 115.644 700.265 33.7941 720.054 -30.1343L717.5 -32.6891C693.801 43.5487 655.859 128.313 607.311 211.532L607.253 211.59ZM-502.362 1175.74C-485.478 1167.92 -468.099 1159.55 -450.225 1150.62C-356.153 1103.66 -254.262 1044.15 -150.582 975.978L-140.064 965.459C-247.841 1036.89 -353.932 1099.22 -451.567 1147.95C-469.663 1156.99 -487.355 1165.49 -504.642 1173.46L-502.362 1175.74ZM590.309 199.984C571.005 233.01 550.185 265.55 527.85 297.603L539.48 285.973C558.391 258.172 576.195 230.014 592.892 201.5C641.989 117.588 680.248 31.3231 703.73 -46.3436L701.334 -48.7395C677.967 29.0715 639.622 115.712 590.309 199.984ZM-518.037 1160.07C-500.673 1151.52 -482.755 1142.36 -464.284 1132.61C-336.518 1065.21 -189.822 972.696 -41.1946 866.59L-28.2083 853.604C-181.771 964.067 -333.806 1060.39 -465.67 1129.96C-484.439 1139.87 -502.645 1149.16 -520.288 1157.81L-518.037 1160.07ZM573.22 188.494C521.951 275.218 462 356.504 394.293 431.102L426.701 398.694C482.391 333.597 532.291 263.761 575.832 189.981C625.708 105.002 664.414 16.7881 687.564 -62.5672L685.154 -64.9775C662.134 14.5365 623.341 103.125 573.206 188.422L573.22 188.494ZM-533.611 1144.49C-515.823 1135.17 -497.396 1125.2 -478.329 1114.58C-314.026 1023.06 -114.719 889.828 90.9625 734.433L106.459 718.936C-105.254 879.9 -310.967 1018.01 -479.816 1112C-499.162 1122.78 -517.844 1132.88 -535.863 1142.3L-533.611 1144.49ZM-549.084 1129.02C-530.96 1118.94 -512.056 1108.12 -492.373 1096.56C-317.292 993.645 -89.4724 837.07 166.382 643.657C193.231 623.351 219.387 602.314 244.85 580.546L277.835 547.561C241.656 580.276 203.903 611.514 164.577 641.275C-91.1761 834.617 -318.866 991.148 -493.817 1093.93C-513.73 1105.63 -532.87 1116.57 -551.235 1126.75L-549.084 1129.02ZM-564.471 1113.63C-482.94 1065.53 -383.863 1001.33 -266.288 920.529C-266.382 920.988 -266.585 921.419 -266.88 921.784L-267.443 922.548C-267.598 922.736 -267.714 922.953 -267.783 923.186C-267.852 923.419 -267.873 923.663 -267.845 923.905C-267.816 924.147 -267.739 924.38 -267.618 924.591C-267.496 924.802 -267.334 924.986 -267.139 925.132C-266.628 925.332 -266.062 925.343 -265.544 925.163C-265.026 924.983 -264.588 924.624 -264.311 924.151L-258.265 915.219C-257.94 914.69 -257.77 914.08 -257.775 913.458C-257.802 913.212 -257.885 912.976 -258.019 912.768C-258.153 912.56 -258.334 912.386 -258.547 912.26C-258.76 912.134 -258.999 912.059 -259.246 912.041C-259.493 912.024 -259.741 912.064 -259.969 912.159L-269.796 915.203C-270.333 915.363 -270.802 915.696 -271.131 916.15C-271.459 916.604 -271.629 917.153 -271.614 917.713C-271.593 918.005 -271.488 918.285 -271.311 918.518C-271.134 918.751 -270.893 918.928 -270.618 919.027C-270.147 919.142 -269.651 919.086 -269.218 918.868C-387.573 1000.21 -485.841 1063.87 -566.592 1111.51L-564.471 1113.63ZM-579.669 1098.43C-435.224 1008.06 -245.804 873.138 -34.305 722.493C20.2976 683.594 76.7763 643.368 133.846 602.955C204.253 553.258 270.331 497.697 331.373 436.865C406.189 362.329 472.146 279.4 527.934 189.728C528.136 189.389 528.199 188.985 528.11 188.601C528.021 188.216 527.788 187.88 527.457 187.664C527.12 187.457 526.714 187.391 526.328 187.48C525.942 187.569 525.606 187.806 525.394 188.14C427.198 346.496 294.855 485.248 132.057 600.559C75.0009 640.987 18.5078 681.227 -36.1092 720.111C-241.836 866.659 -436.163 1005.07 -581.402 1095.95L-581.936 1096.28L-579.669 1098.43ZM-594.868 1083.23C-502.819 1022.19 -391.334 942.459 -266.198 852.974C-149.951 769.925 -18.2644 675.766 117.593 582.575C192.122 531.716 261.787 474.073 325.697 410.382C511.084 224.996 602.88 27.8618 638.634 -111.44L636.18 -113.894C600.902 25.0759 509.38 222.485 323.648 408.217C259.827 471.813 190.264 529.373 115.847 580.165C-20.0686 673.298 -151.77 767.501 -267.974 850.593C-390.974 938.519 -503.599 1019.07 -597.105 1081L-594.868 1083.23ZM-609.894 1068.21C-551.078 1026.71 -483.358 977.238 -408.121 922.151C-257.474 811.918 -86.7833 686.897 101.326 562.238C179.504 510.64 252.326 451.356 318.708 385.271C327.366 376.613 335.903 367.835 344.32 358.937C405.853 294.059 460.184 222.712 506.366 146.141C572.777 35.5056 605.839 -60.2855 622.265 -127.808L619.783 -130.291C603.515 -62.8691 570.626 33.2973 503.725 144.539C457.657 220.921 403.456 292.089 342.068 356.801C269.236 433.427 187.9 501.494 99.6367 559.683C-88.5591 684.37 -259.293 809.407 -409.94 919.697C-484.354 974.193 -552.463 1024.06 -612.117 1065.99L-609.894 1068.21Z" fill="#E2E1E6"/>
<path d="M194.153 223.95C210.045 210.117 225.325 195.866 239.995 181.196C254.665 166.527 268.695 151.467 282.085 136.018L194.153 223.95Z" fill="#E2E1E6"/>
<path d="M369.266 48.8367C365.015 55.5708 360.614 62.319 356.064 69.0819C288.772 169.168 199.815 255.7 90.6669 327.436L80.5664 337.536C141.809 298.695 198.653 253.321 250.1 202.21C290.399 161.966 326.712 117.919 358.532 70.6841C365.564 60.2272 372.234 49.8233 378.544 39.4721L369.266 48.8367Z" fill="#E2E1E6"/>
<path d="M423.621 -5.51812C356.434 126.418 235.58 279.2 18.3188 399.784L10.7435 407.359C113.501 351.396 195 288.458 259.845 223.585C329.128 154.793 386.71 75.1455 430.316 -12.2133L423.621 -5.51812Z" fill="#E2E1E6"/>
<path d="M465.523 -47.4206C445.618 -0.836484 421.775 43.9636 394.253 86.4925C301.972 229.234 170.173 347.234 2.33469 437.419C-14.01 446.2 -30.1575 455.131 -46.1076 464.21L-54.1447 472.247C-35.1257 461.311 -15.823 450.582 3.76369 440.06C105.843 385.236 194.63 320.092 269.388 245.335C317.289 197.58 359.987 144.877 396.764 88.1091C425.725 43.3885 450.611 -3.84391 471.122 -53.0191L465.523 -47.4206Z" fill="#E2E1E6"/>
<path d="M501.236 -83.1329C478.44 -20.5491 448.867 39.3513 413.044 95.5005C319.955 241.937 187.191 363.876 18.5589 457.798C-31.716 485.816 -80.23 515.047 -126.897 544.999L-136.997 555.1C-86.8096 522.55 -34.4718 490.795 19.9446 460.483C118.676 405.486 205.111 340.962 278.555 267.517C330.306 215.917 376.234 158.789 415.512 97.1608C452.594 39.0504 482.987 -23.0675 506.113 -88.01L501.236 -83.1329Z" fill="#E2E1E6"/>
<path d="M532.994 -114.891C508.968 -37.5436 474.9 36.3161 431.662 104.798C337.694 254.856 204.179 380.49 34.8408 478.265C8.49132 493.472 -18.32 509.486 -44.8281 525.891C-45.1622 526.103 -45.3993 526.439 -45.4883 526.825C-45.5773 527.211 -45.5111 527.616 -45.3039 527.954C-45.2004 528.122 -45.0645 528.267 -44.9044 528.382C-44.7443 528.497 -44.563 528.579 -44.371 528.623C-44.1791 528.668 -43.9804 528.673 -43.7862 528.64C-43.592 528.607 -43.4064 528.536 -43.24 528.431C-16.7607 512.055 10.0069 496.026 36.3276 480.848C131.668 425.923 215.548 362.048 287.536 290.061C343.206 234.573 392.408 172.955 434.202 106.385C486.979 22.1139 518.63 -55.9843 537.511 -119.292L532.994 -114.891Z" fill="#E2E1E6"/>
<path d="M561.752 -143.649C538.719 -53.8164 487.249 81.4273 372.584 223.285C372.318 223.578 372.18 223.965 372.199 224.36C372.218 224.755 372.393 225.126 372.686 225.392C372.978 225.658 373.365 225.797 373.76 225.778C374.155 225.759 374.527 225.585 374.793 225.292L374.908 225.176C491.708 80.6923 543.134 -57.0196 565.705 -147.083L565.878 -147.776L561.752 -143.649Z" fill="#E2E1E6"/>
<path d="M-389.133 807.236C-260.925 707.289 -111.446 599.207 52.5809 501.2C143.649 446.735 225.437 383.451 296.054 312.835C300.642 308.246 305.245 303.644 309.704 298.925L309.559 299.07C309.357 299.272 309.285 299.603 309.17 299.892C309.04 300.104 308.961 300.343 308.938 300.59C308.915 300.837 308.948 301.087 309.036 301.319C309.124 301.552 309.263 301.761 309.444 301.931C309.625 302.102 309.842 302.229 310.08 302.302C310.631 302.393 311.196 302.294 311.684 302.021C312.171 301.749 312.552 301.319 312.763 300.802L317.106 291.206C317.233 290.924 317.301 290.62 317.308 290.311C317.361 290.022 317.341 289.724 317.25 289.445C317.157 289.212 317.013 289.003 316.829 288.833C316.645 288.663 316.424 288.537 316.185 288.463C315.945 288.39 315.692 288.371 315.444 288.409C315.196 288.446 314.96 288.539 314.753 288.68L305.301 293.513C304.797 293.745 304.388 294.141 304.139 294.637C303.89 295.132 303.816 295.697 303.93 296.24C304.024 296.517 304.197 296.761 304.428 296.941C304.659 297.121 304.938 297.228 305.229 297.25C306.023 297.352 306.557 296.818 307.307 296.443C307.527 296.348 307.762 296.29 308 296.27C234.412 372.514 148.007 440.559 51.022 498.573C-105.17 591.949 -248.184 694.433 -372.193 790.296L-389.133 807.236Z" fill="#E2E1E6"/>
<path d="M-545.892 963.995C-384.756 836.258 -172.971 671.181 68.7906 521.507C156.872 466.97 235.485 405.158 304.125 336.49C367.792 273.053 423.696 202.275 470.66 125.643C541.716 9.37973 574.257 -93.4252 589.154 -160.919L586.657 -163.416C572.02 -96.2108 539.623 7.08457 468.105 124.098C372.405 280.679 237.536 413.529 67.2317 518.967C-164.717 662.553 -369.042 820.285 -527.61 945.713L-545.892 963.995Z" fill="#E2E1E6"/>
<path d="M-624.862 1053.24C-589.119 1026.59 -550 996.912 -507.908 964.953C-345.299 841.547 -142.951 687.869 85.0581 541.873C166.948 489.775 242.971 428.986 311.806 360.562C379.58 293.034 438.932 217.553 488.571 135.762C557.102 22.4859 590.005 -76.6388 605.71 -144.334L603.227 -146.817C587.738 -79.3667 555.053 20.1767 486.016 134.218C436.497 215.798 377.29 291.086 309.684 358.441C241.021 426.722 165.181 487.385 83.4848 539.376C-144.654 685.531 -347.046 839.165 -509.684 962.6C-551.53 994.372 -590.822 1024.2 -627.027 1051.08L-624.862 1053.24Z" fill="#E2E1E6"/>
<path d="M562.227 124.691C562.186 124.521 562.166 124.346 562.169 124.171C562.256 123.421 562.631 122.757 562.241 122.108C562.084 121.859 561.859 121.659 561.594 121.531C561.329 121.404 561.033 121.353 560.74 121.386C560.176 121.446 559.647 121.689 559.233 122.077C558.819 122.465 558.543 122.977 558.446 123.536L557.004 133.378C556.947 133.616 556.949 133.866 557.01 134.104C557.071 134.341 557.19 134.561 557.354 134.743C557.519 134.925 557.726 135.064 557.957 135.148C558.188 135.232 558.436 135.259 558.679 135.225C558.993 135.209 559.299 135.12 559.574 134.966C559.884 134.862 560.168 134.694 560.41 134.475L568.578 127.261C569.025 126.958 569.333 126.49 569.436 125.96C569.539 125.429 569.427 124.88 569.125 124.432C568.736 124.087 568.229 123.903 567.708 123.919C567.188 123.935 566.693 124.149 566.326 124.518L565.662 125.182C565.518 125.355 565.359 125.514 565.186 125.658C605.222 51.6165 636.251 -24.7357 655.102 -94.9708L652.663 -97.4101C633.841 -26.7708 602.667 50.1584 562.285 124.748" fill="#E2E1E6"/>
<path d="M556.059 177.191C457.533 344.365 316.547 497.793 148.396 620.852C22.1931 713.251 -84.3136 789.794 -177.285 854.995C-177.447 855.106 -177.585 855.249 -177.691 855.413C-177.797 855.578 -177.87 855.763 -177.905 855.956C-177.939 856.149 -177.936 856.347 -177.894 856.538C-177.852 856.73 -177.772 856.912 -177.66 857.073C-177.431 857.395 -177.086 857.614 -176.698 857.684C-176.309 857.754 -175.909 857.67 -175.582 857.448C-82.6393 792.218 23.9255 715.676 150.071 623.248C215.847 575.143 277.835 522.062 335.491 464.473C423.22 376.744 498.724 280.252 558.585 178.678C610.062 91.3469 648.927 2.16633 671.499 -78.5743L668.858 -81.2155C646.257 0.0736305 607.046 90.726 556.045 177.177" fill="#E2E1E6"/>
</g>
<defs>
<clipPath id="clip0_2_21657">
<rect width="1717" height="288" fill="white" transform="translate(-630 1048.1) rotate(-45)"/>
</clipPath>
</defs>
</svg>
