<svg width="1124" height="1084" viewBox="0 0 1124 1084" fill="none" xmlns="http://www.w3.org/2000/svg">
<g opacity="0.3" clip-path="url(#clip0_2_19944)">
<path d="M1405.02 114.373L1410 109.395C1411.4 105.571 1412.77 101.747 1414.1 97.9662L1411.76 95.6277C1409.59 101.804 1407.33 108.043 1404.99 114.344L1405.02 114.373ZM191.363 1303.41C204.274 1298.77 217.348 1293.89 230.586 1288.75L235.867 1283.47L234.857 1283.87C219.358 1290.04 204.067 1295.78 188.982 1301.08L191.363 1303.41ZM1368.46 150.879L1374.03 145.309C1383.04 123.678 1391.09 102.494 1398.1 81.9734L1395.77 79.6349C1387.97 102.618 1378.86 126.366 1368.46 150.879ZM175.27 1287.37C190.566 1281.51 206.108 1275.28 221.895 1268.69C238.788 1261.61 255.884 1254.14 273.181 1246.27L279.27 1240.18C259.539 1249.31 240.044 1257.9 220.784 1265.96C204.525 1272.79 188.594 1279.17 172.989 1285.09L175.27 1287.37ZM1327.9 191.497L1334.15 185.249C1352.43 146.487 1368.46 106.698 1382.16 66.0817L1379.79 63.7147C1365.15 107.342 1347.82 150.018 1327.9 191.497ZM159.277 1271.38C175.189 1264.9 191.38 1258 207.85 1250.69C246.221 1233.63 285.89 1214.34 326.208 1193.19L333.365 1186.03C290.464 1208.72 248.111 1229.48 206.652 1247.94C189.759 1255.46 173.202 1262.51 156.982 1269.08L159.277 1271.38ZM1281.98 237.411L1289.2 230.196C1325.93 160.152 1350.27 99.8465 1366.12 49.9593L1363.75 47.592C1347.25 99.5428 1321.65 163.08 1282.03 237.368L1281.98 237.411ZM143.4 1255.5C159.803 1248.38 176.609 1240.76 193.82 1232.65C258.093 1202.35 325.223 1166.4 393.405 1125.99L402.063 1117.33C330.417 1160.11 259.983 1198.13 192.593 1229.89C175.026 1238.17 157.893 1245.93 141.192 1253.18L143.4 1255.5ZM1237.25 275.59C1234.17 280.852 1230.98 286.22 1227.7 291.694L1236.36 283.036L1239.88 277.033C1296.71 179.644 1330.26 97.7939 1350.05 33.8654L1347.5 31.3106C1323.8 107.548 1285.86 192.313 1237.31 275.532L1237.25 275.59ZM127.638 1239.74C144.522 1231.92 161.901 1223.55 179.775 1214.62C273.847 1167.66 375.738 1108.15 479.418 1039.98L489.937 1029.46C382.159 1100.89 276.069 1163.22 178.433 1211.95C160.337 1220.98 142.645 1229.49 125.358 1237.46L127.638 1239.74ZM1220.31 263.984C1201 297.01 1180.19 329.549 1157.85 361.603L1169.48 349.973C1188.39 322.172 1206.19 294.014 1222.89 265.5C1271.99 181.588 1310.25 95.3229 1333.73 17.6561L1331.33 15.2603C1307.97 93.0713 1269.62 179.712 1220.31 263.984ZM111.963 1224.07C129.328 1215.51 147.245 1206.36 165.716 1196.61C293.482 1129.21 440.178 1036.7 588.805 930.59L601.792 917.604C448.229 1028.07 296.194 1124.39 164.33 1193.96C145.561 1203.87 127.355 1213.16 109.712 1221.81L111.963 1224.07ZM1203.22 252.494C1151.95 339.217 1092 420.504 1024.29 495.102L1056.7 462.694C1112.39 397.597 1162.29 327.76 1205.83 253.981C1255.71 169.002 1294.41 80.7878 1317.56 1.4326L1315.15 -0.977731C1292.13 78.5362 1253.34 167.125 1203.21 252.422L1203.22 252.494ZM96.3892 1208.49C114.177 1199.17 132.604 1189.2 151.671 1178.58C315.974 1087.06 515.281 953.828 720.963 798.433L736.46 782.936C524.746 943.9 319.033 1082.01 150.184 1176C130.838 1186.78 112.156 1196.88 94.1375 1206.3L96.3892 1208.49ZM80.9158 1193.02C99.0402 1182.94 117.944 1172.12 137.627 1160.56C312.708 1057.64 540.528 901.07 796.382 707.657C823.231 687.351 849.387 666.314 874.85 644.545L907.835 611.56C871.656 644.276 833.903 675.514 794.577 705.275C538.824 898.616 311.134 1055.15 136.183 1157.93C116.27 1169.63 97.1303 1180.57 78.7655 1190.75L80.9158 1193.02ZM65.5295 1177.63C147.06 1129.53 246.137 1065.33 363.712 984.528C363.618 984.988 363.415 985.418 363.12 985.784L362.557 986.548C362.402 986.735 362.286 986.952 362.217 987.185C362.148 987.419 362.127 987.663 362.156 987.905C362.184 988.146 362.261 988.38 362.382 988.591C362.504 988.802 362.666 988.985 362.861 989.132C363.372 989.331 363.938 989.342 364.456 989.163C364.974 988.983 365.412 988.624 365.689 988.151L371.735 979.219C372.06 978.69 372.23 978.08 372.225 977.458C372.198 977.212 372.115 976.976 371.981 976.767C371.847 976.559 371.666 976.386 371.453 976.259C371.24 976.133 371.001 976.059 370.754 976.041C370.507 976.024 370.259 976.064 370.031 976.159L360.204 979.202C359.667 979.363 359.198 979.696 358.87 980.15C358.541 980.604 358.371 981.153 358.386 981.713C358.407 982.005 358.512 982.284 358.689 982.517C358.866 982.751 359.107 982.928 359.382 983.027C359.853 983.142 360.349 983.085 360.782 982.868C242.427 1064.21 144.159 1127.87 63.4078 1175.51L65.5295 1177.63ZM50.3306 1162.43C194.776 1072.06 384.196 937.138 595.695 786.493C650.298 747.594 706.776 707.368 763.847 666.954C834.253 617.258 900.331 561.697 961.373 500.865C1036.19 426.328 1102.15 343.4 1157.93 253.728C1158.14 253.389 1158.2 252.985 1158.11 252.6C1158.02 252.216 1157.79 251.88 1157.46 251.664C1157.12 251.457 1156.71 251.39 1156.33 251.479C1155.94 251.568 1155.61 251.806 1155.39 252.14C1057.2 410.495 924.855 549.248 762.057 664.559C705.001 704.987 648.508 745.227 593.891 784.111C388.164 930.659 193.837 1069.07 48.5985 1159.95L48.0645 1160.28L50.3306 1162.43ZM35.1318 1147.23C127.181 1086.19 238.666 1006.46 363.802 916.974C480.049 833.925 611.736 739.766 747.593 646.575C822.122 595.716 891.787 538.073 955.697 474.382C1141.08 288.996 1232.88 91.8615 1268.63 -47.4402L1266.18 -49.8942C1230.9 89.0757 1139.38 286.484 953.648 472.217C889.827 535.813 820.264 593.373 745.847 644.164C609.931 737.298 478.23 831.5 362.026 914.593C239.026 1002.52 126.401 1083.07 32.8948 1145L35.1318 1147.23ZM20.1063 1132.21C78.9225 1090.71 146.642 1041.24 221.879 986.151C372.526 875.918 543.217 750.896 731.326 626.238C809.504 574.64 882.326 515.356 948.708 449.27C957.366 440.613 965.903 431.835 974.32 422.937C1035.85 358.058 1090.18 286.711 1136.37 210.141C1202.78 99.5054 1235.84 3.71424 1252.27 -63.8082L1249.78 -66.2908C1233.51 1.13062 1200.63 97.297 1133.73 208.539C1087.66 284.92 1033.46 356.089 972.069 420.801C899.236 497.427 817.9 565.494 729.637 623.683C541.441 748.37 370.708 873.407 220.06 983.697C145.646 1038.19 77.5366 1088.06 17.8834 1129.99L20.1063 1132.21Z" fill="#E2E1E6"/>
<path d="M824.153 287.949C840.045 274.117 855.325 259.866 869.995 245.196C884.665 230.526 898.695 215.467 912.085 200.018L824.153 287.949Z" fill="#E2E1E6"/>
<path d="M999.266 112.836C995.015 119.571 990.614 126.319 986.064 133.082C918.772 233.168 829.815 319.7 720.667 391.436L710.566 401.536C771.809 362.695 828.653 317.32 880.1 266.21C920.399 225.965 956.712 181.919 988.532 134.684C995.564 124.227 1002.23 113.823 1008.54 103.472L999.266 112.836Z" fill="#E2E1E6"/>
<path d="M1053.62 58.4815C986.434 190.418 865.58 343.2 648.319 463.784L640.743 471.359C743.501 415.395 825 352.458 889.845 287.584C959.128 218.792 1016.71 139.145 1060.32 51.7864L1053.62 58.4815Z" fill="#E2E1E6"/>
<path d="M1095.52 16.5791C1075.62 63.1631 1051.77 107.963 1024.25 150.492C931.972 293.234 800.173 411.234 632.335 501.418C615.99 510.2 599.843 519.13 583.892 528.21L575.855 536.247C594.874 525.311 614.177 514.582 633.764 504.059C735.843 449.236 824.63 384.092 899.388 309.334C947.289 261.58 989.987 208.876 1026.76 152.109C1055.73 107.388 1080.61 60.1557 1101.12 10.9805L1095.52 16.5791Z" fill="#E2E1E6"/>
<path d="M1131.24 -19.1331C1108.44 43.4506 1078.87 103.351 1043.04 159.5C949.955 305.936 817.191 427.876 648.559 521.798C598.284 549.816 549.77 579.047 503.103 608.999L493.003 619.1C543.19 586.55 595.528 554.795 649.945 524.483C748.676 469.485 835.111 404.962 908.555 331.517C960.306 279.917 1006.23 222.789 1045.51 161.161C1082.59 103.05 1112.99 40.9322 1136.11 -24.0102L1131.24 -19.1331Z" fill="#E2E1E6"/>
<path d="M1162.99 -50.8916C1138.97 26.4563 1104.9 100.316 1061.66 168.798C967.694 318.856 834.179 444.49 664.841 542.265C638.491 557.471 611.68 573.486 585.172 589.89C584.838 590.103 584.601 590.439 584.512 590.825C584.423 591.211 584.489 591.616 584.696 591.954C584.8 592.122 584.936 592.267 585.096 592.382C585.256 592.497 585.437 592.579 585.629 592.623C585.821 592.668 586.02 592.673 586.214 592.64C586.408 592.607 586.594 592.536 586.76 592.431C613.239 576.055 640.007 560.026 666.328 544.848C761.668 489.923 845.548 426.048 917.536 354.061C973.206 298.573 1022.41 236.955 1064.2 170.385C1116.98 86.1138 1148.63 8.01562 1167.51 -55.2924L1162.99 -50.8916Z" fill="#E2E1E6"/>
<path d="M383.24 728.863C425.779 698.159 470.064 667.528 515.952 637.46C515.682 637.815 515.552 638.256 515.587 638.701C515.621 639.145 515.818 639.561 516.14 639.87C516.363 640.018 516.614 640.121 516.877 640.172C517.14 640.223 517.411 640.221 517.674 640.168C517.936 640.114 518.186 640.009 518.408 639.859C518.63 639.709 518.821 639.517 518.968 639.293L526.067 631.039C526.289 630.799 526.456 630.514 526.558 630.203C526.701 629.924 526.789 629.62 526.817 629.308C526.846 629.062 526.814 628.813 526.725 628.583C526.636 628.352 526.492 628.146 526.306 627.983C526.12 627.82 525.898 627.704 525.658 627.646C525.417 627.588 525.167 627.588 524.927 627.648L515.027 629.292C514.47 629.399 513.963 629.683 513.581 630.102C513.199 630.52 512.962 631.051 512.906 631.615C512.884 631.905 512.943 632.196 513.075 632.456C513.208 632.716 513.409 632.934 513.657 633.087C514.32 633.462 514.97 633.102 515.735 633.001C515.928 632.978 516.124 632.996 516.311 633.053C516.497 633.11 516.669 633.205 516.817 633.333C475.259 660.457 435.071 688.116 396.255 715.847L383.24 728.863Z" fill="#E2E1E6"/>
<path d="M1191.75 -79.6491C1168.72 10.1834 1117.25 145.427 1002.58 287.285C1002.32 287.578 1002.18 287.964 1002.2 288.36C1002.22 288.755 1002.39 289.126 1002.69 289.392C1002.98 289.658 1003.36 289.797 1003.76 289.778C1004.16 289.759 1004.53 289.584 1004.79 289.292L1004.91 289.176C1121.71 144.692 1173.13 6.9802 1195.71 -83.0833L1195.88 -83.7758L1191.75 -79.6491Z" fill="#E2E1E6"/>
<path d="M240.867 871.236C369.075 771.289 518.554 663.206 682.581 565.199C773.65 510.735 855.437 447.451 926.054 376.835C930.642 372.246 935.245 367.644 939.704 362.925L939.559 363.069C939.357 363.271 939.285 363.603 939.17 363.892C939.04 364.104 938.961 364.342 938.938 364.59C938.915 364.837 938.948 365.087 939.036 365.319C939.124 365.551 939.263 365.761 939.444 365.931C939.625 366.102 939.842 366.228 940.08 366.302C940.631 366.393 941.196 366.293 941.684 366.021C942.171 365.748 942.552 365.319 942.763 364.802L947.106 355.205C947.233 354.924 947.301 354.619 947.308 354.311C947.361 354.022 947.341 353.724 947.25 353.445C947.157 353.212 947.013 353.003 946.829 352.833C946.645 352.663 946.424 352.536 946.185 352.463C945.945 352.389 945.692 352.371 945.444 352.408C945.196 352.446 944.96 352.539 944.753 352.68L935.301 357.512C934.797 357.745 934.388 358.141 934.139 358.636C933.89 359.132 933.816 359.697 933.93 360.24C934.024 360.517 934.197 360.761 934.428 360.941C934.659 361.12 934.938 361.228 935.229 361.25C936.023 361.351 936.557 360.817 937.307 360.442C937.527 360.348 937.762 360.289 938 360.269C864.412 436.514 778.007 504.559 681.022 562.573C524.83 655.948 381.816 758.433 257.807 854.296L240.867 871.236Z" fill="#E2E1E6"/>
<path d="M84.1079 1027.99C245.244 900.258 457.029 735.181 698.791 585.507C786.872 530.97 865.485 469.158 934.125 400.489C997.792 337.053 1053.7 266.275 1100.66 189.643C1171.72 73.3795 1204.26 -29.4254 1219.15 -96.9192L1216.66 -99.4162C1202.02 -32.211 1169.62 71.0843 1098.1 188.098C1002.41 344.679 867.536 477.529 697.232 582.967C465.283 726.552 260.958 884.285 102.39 1009.71L84.1079 1027.99Z" fill="#E2E1E6"/>
<path d="M5.13828 1117.24C40.8809 1090.59 80.0002 1060.91 122.092 1028.95C284.701 905.546 487.049 751.868 715.058 605.872C796.948 553.774 872.971 492.985 941.806 424.562C1009.58 357.034 1068.93 281.553 1118.57 199.762C1187.1 86.4857 1220 -12.639 1235.71 -80.3347L1233.23 -82.8173C1217.74 -15.3669 1185.05 84.1765 1116.02 198.218C1066.5 279.798 1007.29 355.086 939.684 422.44C871.021 490.722 795.181 551.385 713.485 603.376C485.346 749.53 282.954 903.165 120.316 1026.6C78.4698 1058.37 39.1776 1088.2 2.97321 1115.08L5.13828 1117.24Z" fill="#E2E1E6"/>
<path d="M1192.23 188.69C1192.19 188.52 1192.17 188.346 1192.17 188.171C1192.26 187.42 1192.63 186.757 1192.24 186.107C1192.08 185.858 1191.86 185.659 1191.59 185.531C1191.33 185.403 1191.03 185.353 1190.74 185.385C1190.18 185.446 1189.65 185.688 1189.23 186.076C1188.82 186.464 1188.54 186.976 1188.45 187.535L1187 197.377C1186.95 197.616 1186.95 197.865 1187.01 198.103C1187.07 198.341 1187.19 198.56 1187.35 198.742C1187.52 198.924 1187.73 199.064 1187.96 199.148C1188.19 199.232 1188.44 199.258 1188.68 199.225C1188.99 199.209 1189.3 199.12 1189.57 198.965C1189.88 198.861 1190.17 198.694 1190.41 198.475L1198.58 191.26C1199.02 190.957 1199.33 190.489 1199.44 189.959C1199.54 189.429 1199.43 188.88 1199.13 188.432C1198.74 188.086 1198.23 187.903 1197.71 187.919C1197.19 187.935 1196.69 188.149 1196.33 188.518L1195.66 189.182C1195.52 189.354 1195.36 189.514 1195.19 189.658C1235.22 115.616 1266.25 39.2639 1285.1 -30.9712L1282.66 -33.4104C1263.84 37.2288 1232.67 114.158 1192.28 188.748" fill="#E2E1E6"/>
<path d="M1186.06 241.191C1087.53 408.365 946.547 561.792 778.396 684.852C652.193 777.251 545.686 853.793 452.715 918.994C452.553 919.106 452.415 919.248 452.309 919.413C452.203 919.578 452.13 919.762 452.095 919.955C452.061 920.149 452.064 920.347 452.106 920.538C452.148 920.73 452.228 920.912 452.34 921.073C452.569 921.394 452.914 921.614 453.302 921.684C453.691 921.754 454.091 921.669 454.418 921.448C547.361 856.218 653.926 779.676 780.071 687.248C845.847 639.142 907.835 586.062 965.491 528.473C1053.22 440.744 1128.72 344.252 1188.58 242.678C1240.06 155.347 1278.93 66.1661 1301.5 -14.5746L1298.86 -17.2157C1276.26 64.0734 1237.05 154.726 1186.04 241.177" fill="#E2E1E6"/>
</g>
<defs>
<clipPath id="clip0_2_19944">
<rect width="1717" height="288" fill="white" transform="translate(0 1112.1) rotate(-45)"/>
</clipPath>
</defs>
</svg>
