<svg viewBox="0 0 1177 738" fill="none" xmlns="http://www.w3.org/2000/svg" xmlns:anim="http://www.w3.org/2000/anim" anim="" anim:transform-origin="50% 50%" anim:duration="0.5" anim:ease="power1.inOut">
  <g id="d00de3fab60a21932ce262bcfdd9612d">
    <g id="ca9a841d718c58d23d52e63fc9a2b879" clip-path="url(#clip0_328_9254)">
      <path id="c4728f99641fe8d9ad870a5659996b0d" d="M12.3309 369.578H7.50757C4.97705 368.473 2.46057 367.356 -0.0140381 366.239V364.108C4.03101 365.932 8.14612 367.746 12.3309 369.552V369.578ZM1176.34 358.363C1167.84 362.132 1159.14 365.861 1150.24 369.552H1145.12L1145.81 369.276C1156.3 365.024 1166.49 360.672 1176.37 356.22L1176.34 358.363ZM47.7302 369.552H42.3337C27.4862 363.806 13.3236 357.824 -0.0140381 351.67V349.54C14.8988 356.456 30.8136 363.127 47.7302 369.552ZM1176.37 343.729C1166.12 348.024 1155.57 352.266 1144.73 356.456C1133.12 360.927 1121.22 365.309 1109.02 369.604H1103.12C1117.1 364.775 1130.71 359.809 1143.95 354.708C1155.13 350.413 1165.94 346.06 1176.37 341.651V343.729ZM87.0581 369.578H81.0045C53.3655 360.253 26.3235 349.431 0.013916 337.168V335.012C28.2406 348.216 57.3113 359.76 87.0581 369.578ZM1176.37 329.161C1165.52 333.456 1154.34 337.69 1142.82 341.862C1115.96 351.565 1087.4 360.848 1057.62 369.578H1050.68C1082.46 360.374 1113.04 350.54 1142.06 340.061C1153.89 335.792 1165.32 331.462 1176.37 327.071V329.161ZM131.545 369.578H124.555C72.8258 354.405 31.8201 338.023 -0.0280762 322.521V320.365C33.1343 336.511 76.3209 353.787 131.503 369.578H131.545ZM1176.37 314.698C1164.97 318.923 1153.14 323.108 1140.87 327.254C1095.06 342.73 1045.12 356.929 992.508 369.578H984.12C1039.55 356.43 1092.09 341.665 1140.13 325.44C1152.65 321.207 1164.71 316.938 1176.31 312.634L1176.37 314.698ZM171.712 366.593C175.757 367.584 179.9 368.579 184.141 369.578H175.752L171.138 368.447C96.4253 349.974 40.5162 327.978 -0.0419922 307.874V305.547C48.3734 329.476 107.82 350.802 171.656 366.593H171.712ZM1176.37 300.34C1164.4 304.469 1151.93 308.571 1138.94 312.647C1070.62 334.105 992.424 353.406 909.169 369.578H898.977C985.797 353.025 1067.39 333.092 1138.3 310.819C1151.44 306.691 1164.13 302.505 1176.37 298.263V300.34ZM174.298 353.59C199.65 359.84 225.5 365.178 251.849 369.604H240.581C217.951 365.555 195.684 360.839 173.781 355.457C109.344 339.6 49.0165 317.735 0.013916 293.056V290.874C49.0305 315.671 109.581 337.668 174.298 353.59ZM1176.37 286.062C1163.81 290.076 1150.7 294.069 1137.03 298.04C1042.48 325.532 926.589 350.211 803.181 369.578H790.598C918.508 349.948 1038.83 324.572 1136.41 296.199C1150.31 292.167 1163.63 288.104 1176.37 284.011V286.062ZM177.01 340.574C243.862 356.721 312.286 366.439 381.227 369.578H349.827C291.31 365.293 233.303 356.213 176.465 342.441C111.133 326.452 49.6456 303.904 -0.0140381 278.304V276.109C49.6595 301.839 111.371 324.52 176.982 340.534L177.01 340.574ZM1176.37 271.875C1163.24 275.732 1149.48 279.584 1135.1 283.432C1011.16 316.578 850.058 346.674 675.131 369.578H660.116C840.663 346.464 1007.23 315.671 1134.57 281.578C1149.16 277.678 1163.11 273.768 1176.4 269.85L1176.37 271.875ZM1176.37 257.78C1162.71 261.444 1148.31 265.126 1133.17 268.825C998.492 301.695 812.268 334.144 594.616 362.583C571.771 365.564 548.908 367.895 526.026 369.578H494.066C527.443 368 560.866 365.033 594.336 360.677C811.905 332.251 998.045 299.841 1132.6 266.971C1147.91 263.228 1162.48 259.494 1176.31 255.769L1176.37 257.78ZM1176.37 243.764C1113.57 258.99 1034.46 274.873 938.361 291.623C938.629 291.79 938.936 291.894 939.255 291.926L939.899 292.018C940.064 292.032 940.225 292.078 940.372 292.153C940.518 292.228 940.647 292.33 940.75 292.453C940.854 292.576 940.929 292.717 940.973 292.868C941.016 293.02 941.026 293.177 941.003 293.332C940.852 293.656 940.583 293.919 940.245 294.073C939.907 294.228 939.521 294.263 939.158 294.174L931.902 292.859C931.487 292.767 931.11 292.566 930.811 292.281C930.705 292.157 930.631 292.011 930.595 291.855C930.559 291.699 930.562 291.538 930.604 291.383C930.646 291.229 930.726 291.086 930.837 290.965C930.948 290.845 931.088 290.751 931.244 290.69L937.48 287.6C937.818 287.429 938.206 287.367 938.585 287.424C938.964 287.481 939.313 287.654 939.577 287.916C939.708 288.058 939.793 288.233 939.82 288.42C939.847 288.607 939.816 288.797 939.731 288.968C939.558 289.234 939.291 289.435 938.976 289.533C1035.72 272.677 1114.17 256.912 1176.37 241.832V243.764ZM1176.37 229.919C1062.61 254.546 905.478 279.369 730.033 307.085C684.736 314.238 637.886 321.64 590.659 329.227C532.474 338.659 473.545 343.449 414.502 343.545C342.146 343.672 270.017 335.943 199.547 320.51C199.285 320.447 199.059 320.292 198.916 320.076C198.772 319.861 198.723 319.601 198.778 319.352C198.842 319.104 199.006 318.889 199.236 318.754C199.466 318.619 199.744 318.574 200.009 318.629C324.298 346.03 455.633 348.949 590.366 327.32C637.593 319.747 684.456 312.345 729.754 305.179C900.417 278.225 1061.62 252.758 1176.01 228L1176.43 227.908L1176.37 229.919ZM1176.37 216.075C1102.2 230.196 1009.56 244.659 905.59 260.896C809.039 276.017 699.625 293.109 588.66 312.542C527.914 323.323 466.239 328.798 404.421 328.898C224.797 328.898 84.8212 280.921 0.013916 233.759V231.524C84.4298 278.751 224.405 326.978 404.366 326.978C466.094 326.876 527.68 321.409 588.338 310.649C699.304 291.163 808.745 274.084 905.296 259.003C1007.48 243.028 1101.07 228.421 1176.37 214.037V216.075ZM1176.37 202.388C1127.77 210.276 1071 218.586 1007.86 227.763C881.473 246.171 738.212 266.971 586.689 295.87C523.817 307.976 459.817 314.143 395.642 314.278C387.253 314.278 378.865 314.168 370.476 313.949C309.235 312.425 248.349 304.675 188.88 290.834C103.108 270.692 40.684 242.121 0.013916 218.849V216.588C40.5581 239.886 103.08 268.706 189.383 288.902C248.705 302.708 309.442 310.436 370.532 311.95C442.939 313.678 515.319 307.634 586.269 293.937C737.849 265.012 881.137 244.198 1007.55 225.817C1070 216.745 1127.16 208.436 1176.37 200.363V202.388Z" fill="#E1D9E6"></path>
      <path id="fa56ec4ebf47db1822d9cd701cb40c28" d="M377.83 184.073C363.43 185.01 349.123 185.479 334.909 185.479C320.695 185.479 306.603 185.01 292.631 184.073H377.83Z" fill="#E1D9E6"></path>
      <path id="54448ab181859c40e86795acaa8af9b3" d="M208.159 184.073C213.481 185.203 218.883 186.273 224.363 187.281C305.452 202.217 390.469 201.112 478.1 184.073H487.886C439.4 194.275 389.879 199.499 340.194 199.653C301.174 199.677 262.243 196.155 223.944 189.134C215.471 187.574 207.199 185.874 199.128 184.033L208.159 184.073Z" fill="#E1D9E6"></path>
      <path id="66744d84f01c54fe5083c4994adce76e" d="M155.494 184.073C251.961 213.564 384.527 228.105 548.2 184.073H555.54C478.645 205.385 408.672 213.84 345.828 213.826C278.936 214.05 212.454 204 149.007 184.073H155.494Z" fill="#E1D9E6"></path>
      <path id="d95b43330bec9b4a7356abaf62580a5b" d="M114.894 184.073C147.105 196.224 180.36 205.769 214.297 212.604C328.156 235.586 449.174 229.302 574.176 193.934C586.348 190.489 598.498 187.202 610.624 184.073H618.411C603.899 187.754 589.35 191.659 574.763 195.787C498.75 217.311 424.176 228.079 351.742 228.079C305.4 228.146 259.182 223.588 213.864 214.484C178.168 207.306 143.229 197.128 109.469 184.073H114.894Z" fill="#E1D9E6"></path>
      <path id="bc51accdc113241b7a19132b22e1c4b7" d="M80.2916 184.073C121.655 202.194 165.001 216.007 209.558 225.265C325.598 249.563 448.992 244.632 576.189 210.605C614.119 200.468 651.783 191.685 688.902 184.073H698.688C658.606 192.106 617.866 201.48 576.818 212.459C502.343 232.378 429.209 242.358 358.047 242.358C307.978 242.426 258.052 237.325 209.166 227.145C163.049 217.568 118.231 203.118 75.5661 184.073H80.2916Z" fill="#E1D9E6"></path>
      <path id="39233eeeebc7a31765d518a596d4b55f" d="M49.5197 184.073C98.6314 208.358 150.918 226.482 205.042 237.979C323.263 263.526 448.81 259.937 578.216 227.343C598.349 222.267 619.096 217.35 639.885 212.748C640.15 212.693 640.428 212.738 640.658 212.873C640.888 213.008 641.052 213.223 641.116 213.471C641.147 213.595 641.151 213.723 641.129 213.848C641.108 213.973 641.059 214.093 640.988 214.201C640.916 214.309 640.823 214.402 640.713 214.475C640.603 214.549 640.478 214.601 640.347 214.629C619.585 219.23 598.852 224.121 578.748 229.196C505.95 247.604 434.368 256.715 364.618 256.715C310.767 256.798 257.078 251.144 204.58 239.86C138.186 225.515 85.0168 204.36 45.1996 184.125L49.5197 184.073Z" fill="#E1D9E6"></path>
      <path id="d7b0dcbdbbb6da94058b1d58bff7bd37" d="M805.04 184.073C769.557 189.463 733.263 195.682 696.465 202.887C696.768 202.926 697.045 203.068 697.243 203.286C697.442 203.504 697.548 203.784 697.542 204.071C697.505 204.24 697.433 204.401 697.331 204.544C697.228 204.687 697.096 204.81 696.943 204.905C696.79 205 696.618 205.066 696.438 205.099C696.258 205.132 696.072 205.131 695.892 205.096L688.454 204.57C688.231 204.561 688.011 204.508 687.811 204.412C687.607 204.351 687.417 204.252 687.252 204.123C687.119 204.024 687.014 203.896 686.946 203.751C686.877 203.605 686.847 203.446 686.858 203.287C686.869 203.128 686.921 202.974 687.009 202.838C687.097 202.702 687.219 202.588 687.364 202.506L692.956 198.746C693.278 198.541 693.661 198.439 694.049 198.456C694.437 198.473 694.809 198.606 695.109 198.838C695.26 198.96 695.373 199.12 695.435 199.298C695.496 199.477 695.505 199.667 695.459 199.85C695.319 200.323 694.83 200.455 694.41 200.757C694.306 200.835 694.219 200.933 694.157 201.044C694.094 201.155 694.057 201.276 694.047 201.402C727.321 194.828 760.19 189.121 792.429 184.073H805.04Z" fill="#E1D9E6"></path>
      <path id="a102efb720f69c500490d2140e95a4bd" d="M21.6559 184.073C76.3348 214.497 166.79 252.652 291.065 265.038C291.336 265.05 291.591 265.163 291.773 265.352C291.955 265.54 292.05 265.789 292.037 266.044C292.024 266.298 291.904 266.538 291.704 266.709C291.503 266.88 291.238 266.97 290.968 266.958H290.856C164.274 254.349 72.6438 215.049 18.0769 184.309L17.6575 184.073H21.6559Z" fill="#E1D9E6"></path>
      <path id="6d55d91b3d390e1957199b88331dd005" d="M942.988 184.073C832.456 196.944 707.678 215.799 580.733 245.868C510.228 262.54 439.946 270.968 371.525 270.968C367.079 270.968 362.619 270.968 358.173 270.85H358.313C358.508 270.85 358.704 270.968 358.9 271.047C359.065 271.084 359.219 271.157 359.35 271.259C359.482 271.361 359.586 271.49 359.656 271.636C359.726 271.781 359.76 271.941 359.755 272.1C359.75 272.26 359.706 272.417 359.627 272.559C359.404 272.851 359.082 273.063 358.714 273.161C358.345 273.259 357.953 273.237 357.6 273.098L350.847 270.705C350.649 270.634 350.468 270.527 350.316 270.389C350.15 270.282 350.015 270.137 349.924 269.968C349.856 269.82 349.825 269.66 349.832 269.498C349.839 269.337 349.884 269.179 349.965 269.036C350.045 268.894 350.159 268.77 350.297 268.674C350.435 268.578 350.595 268.513 350.763 268.483L357.684 266.379C358.04 266.255 358.431 266.249 358.791 266.362C359.152 266.474 359.461 266.698 359.669 266.997C359.758 267.166 359.792 267.356 359.767 267.543C359.743 267.73 359.66 267.906 359.529 268.049C359.194 268.456 358.676 268.456 358.131 268.627C357.979 268.684 357.837 268.765 357.712 268.864C430.3 270.074 505.125 261.712 580.215 243.962C701.121 215.352 820.055 196.892 926.575 184.073H942.988Z" fill="#E1D9E6"></path>
      <path id="0dc4974c23fca98fbe08d3a3f54e3dee" d="M1094.88 184.073C954.928 199.285 772.353 220.558 582.718 262.5C513.625 277.778 445.595 285.431 379.074 285.417C317.497 285.522 256.125 278.748 196.248 265.235C105.499 244.645 39.929 212.643 0.0137939 188.687V186.413C39.6633 210.355 105.401 242.647 196.737 263.368C318.957 291.097 448.656 290.177 582.243 260.633C764.174 220.387 939.577 199.166 1077.16 184.073H1094.88Z" fill="#E1D9E6"></path>
      <path id="c38c97d33a2fc060b7b529ecfb3a2209" d="M1176.37 188.753C1146.14 192.895 1112.81 197.194 1076.94 201.809C938.375 219.664 765.894 241.832 584.703 279.185C519.791 292.754 453.511 299.693 387.015 299.88C321.467 299.992 256.145 292.646 192.473 278.002C104.394 257.622 40.4323 227.461 0.027832 203.781V201.52C40.2085 225.186 104.268 255.637 192.962 276.135C256.475 290.738 321.632 298.062 387.015 297.947C453.36 297.773 519.49 290.861 584.256 277.331C765.586 239.991 938.067 217.784 1076.66 199.929C1112.32 195.34 1145.81 191.028 1176.37 186.781V188.753Z" fill="#E1D9E6"></path>
      <path id="ce406f3669d511087465a6f3eef2d338" d="M151.425 306.507C151.363 306.411 151.288 306.322 151.202 306.244C150.796 305.942 150.293 305.81 150.167 305.337C150.123 305.152 150.135 304.959 150.202 304.78C150.268 304.601 150.387 304.443 150.545 304.324C150.847 304.095 151.221 303.965 151.61 303.953C151.998 303.941 152.38 304.048 152.698 304.259L158.164 308.085C158.308 308.167 158.427 308.282 158.513 308.418C158.599 308.554 158.648 308.708 158.656 308.866C158.664 309.024 158.631 309.181 158.56 309.325C158.489 309.468 158.382 309.593 158.248 309.689C158.088 309.825 157.896 309.924 157.689 309.978C157.488 310.072 157.269 310.125 157.046 310.136L149.594 310.57C149.231 310.635 148.855 310.563 148.548 310.368C148.241 310.173 148.029 309.872 147.958 309.531C147.98 309.196 148.136 308.882 148.396 308.652C148.656 308.422 149 308.295 149.356 308.295H149.999C150.153 308.308 150.307 308.308 150.461 308.295C95.1948 292.807 43.1723 272.164 0.0136719 248.761V246.539C43.3541 270.14 95.726 290.979 151.425 306.559" fill="#E1D9E6"></path>
      <path id="1127f32f8d8ebe7ca0f6c7a2c7a45f50" d="M179.848 327.61C308.569 358.876 451.201 364.542 592.281 344.005C698.185 328.609 786.865 314.961 863.494 302.313C863.626 302.29 863.762 302.292 863.893 302.319C864.024 302.346 864.149 302.396 864.259 302.468C864.37 302.54 864.464 302.632 864.536 302.739C864.609 302.845 864.658 302.964 864.682 303.089C864.727 303.339 864.666 303.596 864.512 303.805C864.358 304.014 864.123 304.158 863.857 304.206C787.229 316.828 698.521 330.502 592.63 345.859C537.459 353.907 481.713 357.964 425.882 357.995C340.879 357.995 257.553 348.436 179.345 329.437C112.097 313.107 50.0648 290.19 0.0136719 263.697V261.291C50.3444 288.021 113.258 311.451 179.848 327.596" fill="#E1D9E6"></path>
    </g>
    <g id="ab2f2403070474398ecc2542ffd22b4a" clip-path="url(#clip1_328_9254)">
      <path id="0d7e1fdc548e325c9e76115c519fe9dd" d="M12.3309 0.000152588H7.50757C4.97705 1.1046 2.46057 2.22191 -0.0140381 3.33949V5.46962C4.03101 3.64642 8.14612 1.83214 12.3309 0.026474V0.000152588ZM1176.34 11.2155C1167.84 7.44637 1159.14 3.71669 1150.24 0.026474H1145.12L1145.81 0.302536C1156.3 4.55374 1166.49 8.90564 1176.37 13.3584L1176.34 11.2155ZM47.7302 0.026474H42.3337C27.4862 5.77217 13.3236 11.7543 -0.0140381 17.9076V20.0378C14.8988 13.1219 30.8136 6.45149 47.7302 0.026474ZM1176.37 25.8491C1166.12 21.5541 1155.57 17.3117 1144.73 13.1219C1133.12 8.65154 1121.22 4.26886 1109.02 -0.0261688H1103.12C1117.1 4.80354 1130.71 9.76891 1143.95 14.8703C1155.13 19.1654 1165.94 23.5176 1176.37 27.9266V25.8491ZM87.0581 0.000152588H81.0045C53.3655 9.32532 26.3235 20.1466 0.013916 32.4099V34.5661C28.2406 21.3622 57.3113 9.81825 87.0581 0.000152588ZM1176.37 40.4172C1165.52 36.1222 1154.34 31.8883 1142.82 27.716C1115.96 18.0128 1087.4 8.73045 1057.62 0.000152588H1050.68C1082.46 9.20378 1113.04 19.0385 1142.06 29.5174C1153.89 33.7862 1165.32 38.1161 1176.37 42.5075V40.4172ZM131.545 0.000152588H124.555C72.8258 15.173 31.8201 31.5552 -0.0280762 47.0567V49.2132C33.1343 33.0674 76.3209 15.791 131.503 0.000152588H131.545ZM1176.37 54.8801C1164.97 50.6552 1153.14 46.4696 1140.87 42.3236C1095.06 26.8484 1045.12 12.6486 992.508 0.000152588H984.12C1039.55 13.1482 1092.09 27.9132 1140.13 44.1379C1152.65 48.3716 1164.71 52.6403 1176.31 56.9441L1176.37 54.8801ZM171.712 2.98479C175.757 1.99431 179.9 0.999405 184.141 0.000152588H175.752L171.138 1.13071C96.4253 19.6037 40.5162 41.6005 -0.0419922 61.7038V64.031C48.3734 40.1016 107.82 18.7756 171.656 2.98479H171.712ZM1176.37 69.2376C1164.4 65.1091 1151.93 61.0068 1138.94 56.9309C1070.62 35.4733 992.424 16.1722 909.169 0.000152588H898.977C985.797 16.5535 1067.39 36.4859 1138.3 58.7587C1151.44 62.8871 1164.13 67.0727 1176.37 71.3151V69.2376ZM174.298 15.9881C199.65 9.73836 225.5 4.40034 251.849 -0.0261688H240.581C217.951 4.02344 195.684 8.73921 173.781 14.1211C109.344 29.9777 49.0165 51.8428 0.013916 76.5217V78.7041C49.0305 53.9069 109.581 31.9103 174.298 15.9881ZM1176.37 83.5165C1163.81 79.502 1150.7 75.5092 1137.03 71.5385C1042.48 44.046 926.589 19.3672 803.181 0.000152588H790.598C918.508 19.6302 1038.83 45.0056 1136.41 73.3791C1150.31 77.4112 1163.63 81.4739 1176.37 85.5674V83.5165ZM177.01 29.0045C243.862 12.8566 312.286 3.13878 381.227 0.000152588H349.827C291.31 4.28505 233.303 13.3652 176.465 27.1376C111.133 43.1256 49.6456 65.6745 -0.0140381 91.2737V93.4693C49.6595 67.7386 111.371 45.0583 176.982 29.044L177.01 29.0045ZM1176.37 97.703C1163.24 93.8462 1149.48 89.9941 1135.1 86.1461C1011.16 52.9999 850.058 22.904 675.131 0.000152588H660.116C840.663 23.1144 1007.23 53.907 1134.57 87.9999C1149.16 91.9005 1163.11 95.8097 1176.4 99.7278L1176.37 97.703ZM1176.37 111.798C1162.71 108.134 1148.31 104.452 1133.17 100.753C998.492 67.8833 812.268 35.4339 594.616 6.99467C571.771 4.01447 548.908 1.68311 526.026 0.000152588H494.066C527.443 1.57793 560.866 4.54503 594.336 8.9014C811.905 37.3275 998.045 69.7371 1132.6 102.607C1147.91 106.35 1162.48 110.084 1176.31 113.809L1176.37 111.798ZM1176.37 125.814C1113.57 110.588 1034.46 94.7052 938.361 77.9546C938.629 77.7881 938.936 77.6844 939.255 77.6522L939.899 77.5604C940.064 77.546 940.225 77.4997 940.372 77.425C940.518 77.3502 940.647 77.2484 940.75 77.1255C940.854 77.0025 940.929 76.861 940.973 76.7098C941.016 76.5585 941.026 76.4007 941.003 76.2456C940.852 75.9218 940.583 75.659 940.245 75.5048C939.907 75.3505 939.521 75.3148 939.158 75.404L931.902 76.7188C931.487 76.8114 931.11 77.0118 930.811 77.2972C930.705 77.4214 930.631 77.5674 930.595 77.7232C930.559 77.879 930.562 78.0403 930.604 78.1947C930.646 78.3491 930.726 78.4923 930.837 78.6126C930.948 78.733 931.088 78.8275 931.244 78.8884L937.48 81.978C937.818 82.1493 938.206 82.2112 938.585 82.1542C938.964 82.0972 939.313 81.9243 939.577 81.6624C939.708 81.52 939.793 81.3449 939.82 81.1581C939.847 80.9714 939.816 80.781 939.731 80.6105C939.558 80.3438 939.291 80.1435 938.976 80.0453C1035.72 96.901 1114.17 112.666 1176.37 127.746V125.814ZM1176.37 139.659C1062.61 115.032 905.478 90.2089 730.033 62.4928C684.736 55.3403 637.886 47.9378 590.659 40.3514C532.474 30.9188 473.545 26.1288 414.502 26.033C342.146 25.9058 270.017 33.6355 199.547 49.0684C199.285 49.1309 199.059 49.2862 198.916 49.5017C198.772 49.7173 198.723 49.9767 198.778 50.2256C198.842 50.4738 199.006 50.6887 199.236 50.8239C199.466 50.9592 199.744 51.0041 200.009 50.9488C324.298 23.5483 455.633 20.6293 590.366 42.2578C637.593 49.8311 684.456 57.2335 729.754 64.3992C900.417 91.3527 1061.62 116.82 1176.01 141.578L1176.43 141.67L1176.37 139.659ZM1176.37 153.503C1102.2 139.382 1009.56 124.92 905.59 108.682C809.039 93.5615 699.625 76.469 588.66 57.0362C527.914 46.2555 466.239 40.7802 404.421 40.6801C224.797 40.6801 84.8212 88.6571 0.013916 135.819V138.055C84.4298 90.8268 224.405 42.5997 404.366 42.5997C466.094 42.7023 527.68 48.1687 588.338 58.9294C699.304 78.4148 808.745 95.4942 905.296 110.575C1007.48 126.55 1101.07 141.157 1176.37 155.541V153.503ZM1176.37 167.19C1127.77 159.302 1071 150.992 1007.86 141.815C881.473 123.407 738.212 102.607 586.689 73.7078C523.817 61.6019 459.817 55.4355 395.642 55.3006C387.253 55.3006 378.865 55.4101 370.476 55.6293C309.235 57.1532 248.349 64.9031 188.88 78.7436C103.108 98.8864 40.684 127.457 0.013916 150.729V152.991C40.5581 129.692 103.08 100.872 189.383 80.6763C248.705 66.8697 309.442 59.1418 370.532 57.6278C442.939 55.9 515.319 61.9436 586.269 75.6409C737.849 104.567 881.137 125.38 1007.55 143.761C1070 152.833 1127.16 161.142 1176.37 169.215V167.19Z" fill="#E1D9E6"></path>
      <path id="f87bd7cb89f3301d9e01e25e144c76b1" d="M377.83 185.506C363.43 184.568 349.123 184.099 334.909 184.099C320.695 184.099 306.603 184.568 292.631 185.506H377.83Z" fill="#E1D9E6"></path>
      <path id="c5dd64708d4442e6e96d8f6c50a38c51" d="M208.159 185.506C213.481 184.375 218.883 183.306 224.363 182.298C305.452 167.361 390.469 168.466 478.1 185.506H487.886C439.4 175.303 389.879 170.079 340.194 169.925C301.174 169.901 262.243 173.423 223.944 180.444C215.471 182.004 207.199 183.704 199.128 185.545L208.159 185.506Z" fill="#E1D9E6"></path>
      <path id="21d0c60abe9bb32a36101d42beb2cf9d" d="M155.494 185.506C251.961 156.015 384.527 141.473 548.2 185.506H555.54C478.645 164.193 408.672 155.739 345.828 155.752C278.936 155.528 212.454 165.578 149.007 185.506H155.494Z" fill="#E1D9E6"></path>
      <path id="239493a7bb6fba31304f9313cecc6061" d="M114.894 185.506C147.105 173.355 180.36 163.81 214.297 156.974C328.156 133.992 449.174 140.276 574.176 175.645C586.348 179.089 598.498 182.376 610.624 185.506H618.411C603.899 181.824 589.35 177.919 574.763 173.791C498.75 152.267 424.176 141.499 351.742 141.499C305.4 141.432 259.182 145.99 213.864 155.094C178.168 162.272 143.229 172.45 109.469 185.506H114.894Z" fill="#E1D9E6"></path>
      <path id="12b5d93db9a5a2e01d4c141bcf451127" d="M80.2916 185.506C121.655 167.384 165.001 153.571 209.558 144.313C325.598 120.015 448.992 124.946 576.189 158.973C614.119 169.11 651.783 177.893 688.902 185.506H698.688C658.606 177.472 617.866 168.098 576.818 157.119C502.343 137.2 429.209 127.221 358.047 127.221C307.978 127.152 258.052 132.253 209.166 142.433C163.049 152.01 118.231 166.46 75.5661 185.506H80.2916Z" fill="#E1D9E6"></path>
      <path id="d231f20755f915bbc076b6a4f303ea03" d="M49.5197 185.506C98.6314 161.22 150.918 143.096 205.042 131.599C323.263 106.052 448.81 109.641 578.216 142.235C598.349 147.311 619.096 152.228 639.885 156.83C640.15 156.885 640.428 156.84 640.658 156.705C640.888 156.57 641.052 156.355 641.116 156.107C641.147 155.983 641.151 155.855 641.129 155.73C641.108 155.605 641.059 155.485 640.988 155.377C640.916 155.269 640.823 155.176 640.713 155.103C640.603 155.03 640.478 154.977 640.347 154.95C619.585 150.348 598.852 145.457 578.748 140.382C505.95 121.974 434.368 112.863 364.618 112.863C310.767 112.78 257.078 118.434 204.58 129.719C138.186 144.063 85.0168 165.218 45.1996 185.453L49.5197 185.506Z" fill="#E1D9E6"></path>
      <path id="b0037da65daa03e10e767eb86812682d" d="M805.04 185.506C769.557 180.115 733.263 173.896 696.465 166.691C696.768 166.652 697.045 166.51 697.243 166.292C697.442 166.074 697.548 165.795 697.542 165.507C697.505 165.338 697.433 165.177 697.331 165.034C697.228 164.891 697.096 164.768 696.943 164.673C696.79 164.578 696.618 164.512 696.438 164.479C696.258 164.446 696.072 164.447 695.892 164.482L688.454 165.008C688.231 165.017 688.011 165.07 687.811 165.166C687.607 165.227 687.417 165.326 687.252 165.455C687.119 165.554 687.014 165.682 686.946 165.827C686.877 165.973 686.847 166.132 686.858 166.291C686.869 166.45 686.921 166.604 687.009 166.74C687.097 166.876 687.219 166.99 687.364 167.072L692.956 170.832C693.278 171.037 693.661 171.139 694.049 171.122C694.437 171.105 694.809 170.972 695.109 170.74C695.26 170.618 695.373 170.459 695.435 170.28C695.496 170.102 695.505 169.911 695.459 169.728C695.319 169.255 694.83 169.123 694.41 168.821C694.306 168.743 694.219 168.645 694.157 168.534C694.094 168.424 694.057 168.302 694.047 168.177C727.321 174.751 760.19 180.457 792.429 185.506H805.04Z" fill="#E1D9E6"></path>
      <path id="207d56197869c99f4ae26ad1d9ae0956" d="M21.6559 185.506C76.3348 155.081 166.79 116.926 291.065 104.54C291.336 104.528 291.591 104.415 291.773 104.226C291.955 104.038 292.05 103.789 292.037 103.534C292.024 103.28 291.904 103.04 291.704 102.869C291.503 102.698 291.238 102.608 290.968 102.62H290.856C164.274 115.229 72.6438 154.529 18.0769 185.269L17.6575 185.506H21.6559Z" fill="#E1D9E6"></path>
      <path id="61d210c2fa74b13eae16ddee712af6e2" d="M942.988 185.506C832.456 172.634 707.678 153.779 580.733 123.71C510.228 107.038 439.946 98.6104 371.525 98.6104C367.079 98.6104 362.619 98.6102 358.173 98.7285H358.313C358.508 98.7285 358.704 98.6103 358.9 98.5314C359.065 98.4938 359.219 98.4213 359.35 98.3192C359.482 98.2172 359.586 98.0882 359.656 97.9424C359.726 97.7966 359.76 97.6375 359.755 97.4776C359.75 97.3176 359.706 97.1608 359.627 97.0192C359.404 96.727 359.082 96.5146 358.714 96.4167C358.345 96.3188 357.953 96.3413 357.6 96.4802L350.847 98.8733C350.649 98.9436 350.468 99.051 350.316 99.1888C350.15 99.296 350.015 99.4408 349.924 99.6096C349.856 99.7579 349.825 99.9186 349.832 100.08C349.839 100.241 349.884 100.399 349.965 100.542C350.045 100.684 350.159 100.808 350.297 100.904C350.435 101 350.595 101.065 350.763 101.095L357.684 103.199C358.04 103.323 358.431 103.329 358.791 103.216C359.152 103.104 359.461 102.88 359.669 102.581C359.758 102.412 359.792 102.222 359.767 102.035C359.743 101.848 359.66 101.672 359.529 101.529C359.194 101.122 358.676 101.122 358.131 100.951C357.979 100.894 357.837 100.813 357.712 100.714C430.3 99.5043 505.125 107.866 580.215 125.616C701.121 154.226 820.055 172.686 926.575 185.506H942.988Z" fill="#E1D9E6"></path>
      <path id="6cfcf847f0786fc92f0a3eb4b31dafe8" d="M1094.88 185.506C954.928 170.293 772.353 149.02 582.718 107.078C513.625 91.7996 445.595 84.1476 379.074 84.1607C317.497 84.0556 256.125 90.8303 196.248 104.343C105.499 124.933 39.929 156.935 0.0137939 180.891V183.165C39.6633 159.223 105.401 126.931 196.737 106.21C318.957 78.4808 448.656 79.4009 582.243 108.945C764.174 149.191 939.577 170.412 1077.16 185.506H1094.88Z" fill="#E1D9E6"></path>
      <path id="fde96b94e95d1fae50f149ad60768655" d="M1176.37 180.825C1146.14 176.684 1112.81 172.384 1076.94 167.769C938.375 149.914 765.894 127.746 584.703 90.3929C519.791 76.8238 453.511 69.8853 387.015 69.6979C321.467 69.586 256.145 76.932 192.473 91.5761C104.394 111.956 40.4323 142.117 0.027832 165.797V168.058C40.2085 144.392 104.268 113.941 192.962 93.443C256.475 78.8402 321.632 71.5163 387.015 71.6307C453.36 71.8048 519.49 78.7168 584.256 92.2467C765.586 129.587 938.067 151.794 1076.66 169.649C1112.32 174.238 1145.81 178.551 1176.37 182.797V180.825Z" fill="#E1D9E6"></path>
      <path id="168099e02a75c944c869133bf40a9ae4" d="M151.425 63.0712C151.363 63.1675 151.288 63.2559 151.202 63.3341C150.796 63.6365 150.293 63.7679 150.167 64.2413C150.123 64.4263 150.135 64.6195 150.202 64.7985C150.268 64.9775 150.387 65.1351 150.545 65.2537C150.847 65.483 151.221 65.6135 151.61 65.6254C151.998 65.6373 152.38 65.5299 152.698 65.3195L158.164 61.4935C158.308 61.4107 158.427 61.2961 158.513 61.16C158.599 61.0239 158.648 60.8702 158.656 60.7122C158.664 60.5542 158.631 60.3966 158.56 60.2532C158.489 60.1098 158.382 59.9848 158.248 59.8892C158.088 59.7535 157.896 59.6545 157.689 59.6C157.488 59.5062 157.269 59.4526 157.046 59.4424L149.594 59.0084C149.231 58.9427 148.855 59.0153 148.548 59.21C148.241 59.4046 148.029 59.7057 147.958 60.0471C147.98 60.382 148.136 60.6966 148.396 60.9263C148.656 61.1561 149 61.2836 149.356 61.283H149.999C150.153 61.27 150.307 61.27 150.461 61.283C95.1948 76.7713 43.1723 97.4138 0.0136719 120.817V123.039C43.3541 99.4385 95.726 78.599 151.425 63.0186" fill="#E1D9E6"></path>
      <path id="4978d5c45c3b22e349c0a34e1ace22cf" d="M179.848 41.9686C308.569 10.7025 451.201 5.03576 592.281 25.573C698.185 40.9693 786.865 54.617 863.494 67.2654C863.626 67.2881 863.762 67.286 863.893 67.2593C864.024 67.2325 864.149 67.1818 864.259 67.1097C864.37 67.0376 864.464 66.9458 864.536 66.8394C864.609 66.733 864.658 66.614 864.682 66.4895C864.727 66.2388 864.666 65.9816 864.512 65.7727C864.358 65.5639 864.123 65.4201 863.857 65.3721C787.229 52.75 698.521 39.0758 592.63 23.7189C537.459 15.6707 481.713 11.6136 425.882 11.5833C340.879 11.5833 257.553 21.1422 179.345 40.1411C112.097 56.471 50.0648 79.388 0.0136719 105.881V108.287C50.3444 81.5572 113.258 58.1275 179.848 41.9817" fill="#E1D9E6"></path>
    </g>
    <g id="d86df88b573b94bb8dcc4470043f7fe6" clip-path="url(#clip2_328_9254)">
      <path id="dabca554822b4ee5731f0380c6010b64" d="M12.3309 369.46H7.50757C4.97705 370.565 2.46057 371.682 -0.0140381 372.799V374.93C4.03101 373.106 8.14612 371.292 12.3309 369.486V369.46ZM1176.34 380.675C1167.84 376.906 1159.14 373.177 1150.24 369.486H1145.12L1145.81 369.762C1156.3 374.014 1166.49 378.366 1176.37 382.818L1176.34 380.675ZM47.7302 369.486H42.3337C27.4862 375.232 13.3236 381.214 -0.0140381 387.368V389.498C14.8988 382.582 30.8136 375.911 47.7302 369.486ZM1176.37 395.309C1166.12 391.014 1155.57 386.772 1144.73 382.582C1133.12 378.111 1121.22 373.729 1109.02 369.434H1103.12C1117.1 374.263 1130.71 379.229 1143.95 384.33C1155.13 388.625 1165.94 392.978 1176.37 397.387V395.309ZM87.0581 369.46H81.0045C53.3655 378.785 26.3235 389.607 0.013916 401.87V404.026C28.2406 390.822 57.3113 379.278 87.0581 369.46ZM1176.37 409.877C1165.52 405.582 1154.34 401.348 1142.82 397.176C1115.96 387.473 1087.4 378.19 1057.62 369.46H1050.68C1082.46 378.664 1113.04 388.498 1142.06 398.977C1153.89 403.246 1165.32 407.576 1176.37 411.967V409.877ZM131.545 369.46H124.555C72.8258 384.633 31.8201 401.015 -0.0280762 416.517V418.673C33.1343 402.527 76.3209 385.251 131.503 369.46H131.545ZM1176.37 424.34C1164.97 420.115 1153.14 415.93 1140.87 411.784C1095.06 396.308 1045.12 382.109 992.508 369.46H984.12C1039.55 382.608 1092.09 397.373 1140.13 413.598C1152.65 417.831 1164.71 422.1 1176.31 426.404L1176.37 424.34ZM171.712 372.445C175.757 371.454 179.9 370.459 184.141 369.46H175.752L171.138 370.591C96.4253 389.064 40.5162 411.06 -0.0419922 431.164V433.491C48.3734 409.562 107.82 388.236 171.656 372.445H171.712ZM1176.37 438.698C1164.4 434.569 1151.93 430.467 1138.94 426.391C1070.62 404.933 992.424 385.632 909.169 369.46H898.977C985.797 386.013 1067.39 405.946 1138.3 428.219C1151.44 432.347 1164.13 436.533 1176.37 440.775V438.698ZM174.298 385.448C199.65 379.198 225.5 373.86 251.849 369.434H240.581C217.951 373.483 195.684 378.199 173.781 383.581C109.344 399.438 49.0165 421.303 0.013916 445.982V448.164C49.0305 423.367 109.581 401.37 174.298 385.448ZM1176.37 452.976C1163.81 448.962 1150.7 444.969 1137.03 440.998C1042.48 413.506 926.589 388.827 803.181 369.46H790.598C918.508 389.09 1038.83 414.466 1136.41 442.839C1150.31 446.871 1163.63 450.934 1176.37 455.027V452.976ZM177.01 398.464C243.862 382.317 312.286 372.599 381.227 369.46H349.827C291.31 373.745 233.303 382.825 176.465 396.597C111.133 412.586 49.6456 435.134 -0.0140381 460.734V462.929C49.6595 437.199 111.371 414.518 176.982 398.504L177.01 398.464ZM1176.37 467.163C1163.24 463.306 1149.48 459.454 1135.1 455.606C1011.16 422.46 850.058 392.364 675.131 369.46H660.116C840.663 392.574 1007.23 423.367 1134.57 457.46C1149.16 461.36 1163.11 465.27 1176.4 469.188L1176.37 467.163ZM1176.37 481.258C1162.71 477.594 1148.31 473.912 1133.17 470.213C998.492 437.343 812.268 404.894 594.616 376.455C571.771 373.474 548.908 371.143 526.026 369.46H494.066C527.443 371.038 560.866 374.005 594.336 378.361C811.905 406.787 998.045 439.197 1132.6 472.067C1147.91 475.81 1162.48 479.544 1176.31 483.269L1176.37 481.258ZM1176.37 495.274C1113.57 480.048 1034.46 464.165 938.361 447.415C938.629 447.248 938.936 447.144 939.255 447.112L939.899 447.02C940.064 447.006 940.225 446.96 940.372 446.885C940.518 446.81 940.647 446.708 940.75 446.585C940.854 446.462 940.929 446.321 940.973 446.17C941.016 446.018 941.026 445.861 941.003 445.706C940.852 445.382 940.583 445.119 940.245 444.965C939.907 444.81 939.521 444.775 939.158 444.864L931.902 446.179C931.487 446.271 931.11 446.472 930.811 446.757C930.705 446.881 930.631 447.027 930.595 447.183C930.559 447.339 930.562 447.5 930.604 447.655C930.646 447.809 930.726 447.952 930.837 448.073C930.948 448.193 931.088 448.287 931.244 448.348L937.48 451.438C937.818 451.609 938.206 451.671 938.585 451.614C938.964 451.557 939.313 451.384 939.577 451.122C939.708 450.98 939.793 450.805 939.82 450.618C939.847 450.431 939.816 450.241 939.731 450.07C939.558 449.804 939.291 449.603 938.976 449.505C1035.72 466.361 1114.17 482.126 1176.37 497.206V495.274ZM1176.37 509.118C1062.61 484.492 905.478 459.669 730.033 431.953C684.736 424.8 637.886 417.398 590.659 409.811C532.474 400.379 473.545 395.589 414.502 395.493C342.146 395.366 270.017 403.095 199.547 418.528C199.285 418.591 199.059 418.746 198.916 418.962C198.772 419.177 198.723 419.437 198.778 419.686C198.842 419.934 199.006 420.149 199.236 420.284C199.466 420.419 199.744 420.464 200.009 420.409C324.298 393.008 455.633 390.089 590.366 411.718C637.593 419.291 684.456 426.693 729.754 433.859C900.417 460.813 1061.62 486.28 1176.01 511.038L1176.43 511.13L1176.37 509.118ZM1176.37 522.963C1102.2 508.842 1009.56 494.379 905.59 478.142C809.039 463.021 699.625 445.929 588.66 426.496C527.914 415.715 466.239 410.24 404.421 410.14C224.797 410.14 84.8212 458.117 0.013916 505.279V507.514C84.4298 460.287 224.405 412.06 404.366 412.06C466.094 412.162 527.68 417.629 588.338 428.389C699.304 447.875 808.745 464.954 905.296 480.035C1007.48 496.01 1101.07 510.617 1176.37 525.001V522.963ZM1176.37 536.65C1127.77 528.762 1071 520.452 1007.86 511.275C881.473 492.867 738.212 472.067 586.689 443.168C523.817 431.062 459.817 424.895 395.642 424.76C387.253 424.76 378.865 424.87 370.476 425.089C309.235 426.613 248.349 434.363 188.88 448.204C103.108 468.346 40.684 496.917 0.013916 520.189V522.45C40.5581 499.152 103.08 470.332 189.383 450.136C248.705 436.33 309.442 428.602 370.532 427.088C442.939 425.36 515.319 431.403 586.269 445.101C737.849 474.026 881.137 494.84 1007.55 513.221C1070 522.293 1127.16 530.602 1176.37 538.675V536.65Z" fill="#E1D9E6"></path>
      <path id="9b96c3503a9e02e0500eea72d68e74fc" d="M377.83 554.966C363.43 554.028 349.123 553.559 334.909 553.559C320.695 553.559 306.603 554.028 292.631 554.966H377.83Z" fill="#E1D9E6"></path>
      <path id="d5ce8fb0d831e5cb47ef498e276be9d9" d="M208.159 554.966C213.481 553.835 218.883 552.766 224.363 551.758C305.452 536.821 390.469 537.926 478.1 554.966H487.886C439.4 544.763 389.879 539.539 340.194 539.385C301.174 539.361 262.243 542.883 223.944 549.904C215.471 551.464 207.199 553.164 199.128 555.005L208.159 554.966Z" fill="#E1D9E6"></path>
      <path id="2b60faf7c69f7f03132bb8866d835e1c" d="M155.494 554.966C251.961 525.474 384.527 510.933 548.2 554.966H555.54C478.645 533.653 408.672 525.199 345.828 525.212C278.936 524.988 212.454 535.038 149.007 554.966H155.494Z" fill="#E1D9E6"></path>
      <path id="6e19e2ac052847294dfed95071cabdf8" d="M114.894 554.966C147.105 542.814 180.36 533.27 214.297 526.434C328.156 503.452 449.174 509.736 574.176 545.104C586.348 548.549 598.498 551.836 610.624 554.966H618.411C603.899 551.284 589.35 547.379 574.763 543.251C498.75 521.727 424.176 510.959 351.742 510.959C305.4 510.892 259.182 515.45 213.864 524.554C178.168 531.732 143.229 541.91 109.469 554.966H114.894Z" fill="#E1D9E6"></path>
      <path id="0cd0e0544ca13d32663e6bee33b055a0" d="M80.2916 554.966C121.655 536.844 165.001 523.031 209.558 513.773C325.598 489.475 448.992 494.406 576.189 528.433C614.119 538.57 651.783 547.353 688.902 554.966H698.688C658.606 546.932 617.866 537.558 576.818 526.579C502.343 506.66 429.209 496.68 358.047 496.68C307.978 496.612 258.052 501.713 209.166 511.893C163.049 521.47 118.231 535.92 75.5661 554.966H80.2916Z" fill="#E1D9E6"></path>
      <path id="afe0724a2ebe027c7e873a91e04dcbee" d="M49.5197 554.966C98.6314 530.68 150.918 512.556 205.042 501.059C323.263 475.512 448.81 479.101 578.216 511.695C598.349 516.771 619.096 521.688 639.885 526.29C640.15 526.345 640.428 526.3 640.658 526.165C640.888 526.03 641.052 525.815 641.116 525.567C641.147 525.443 641.151 525.315 641.129 525.19C641.108 525.065 641.059 524.945 640.988 524.837C640.916 524.729 640.823 524.636 640.713 524.563C640.603 524.49 640.478 524.437 640.347 524.409C619.585 519.808 598.852 514.917 578.748 509.842C505.95 491.434 434.368 482.323 364.618 482.323C310.767 482.24 257.078 487.894 204.58 499.178C138.186 513.523 85.0168 534.678 45.1996 554.913L49.5197 554.966Z" fill="#E1D9E6"></path>
      <path id="a5d777fb5ee380c8f8463ee493ae720d" d="M805.04 554.966C769.557 549.575 733.263 543.356 696.465 536.151C696.768 536.112 697.045 535.97 697.243 535.752C697.442 535.534 697.548 535.255 697.542 534.967C697.505 534.798 697.433 534.637 697.331 534.494C697.228 534.351 697.096 534.228 696.943 534.133C696.79 534.038 696.618 533.972 696.438 533.939C696.258 533.906 696.072 533.907 695.892 533.942L688.454 534.468C688.231 534.477 688.011 534.53 687.811 534.626C687.607 534.687 687.417 534.786 687.252 534.915C687.119 535.014 687.014 535.142 686.946 535.287C686.877 535.433 686.847 535.592 686.858 535.751C686.869 535.91 686.921 536.064 687.009 536.2C687.097 536.336 687.219 536.45 687.364 536.532L692.956 540.292C693.278 540.497 693.661 540.599 694.049 540.582C694.437 540.565 694.809 540.432 695.109 540.2C695.26 540.078 695.373 539.919 695.435 539.74C695.496 539.561 695.505 539.371 695.459 539.188C695.319 538.715 694.83 538.583 694.41 538.281C694.306 538.203 694.219 538.105 694.157 537.994C694.094 537.884 694.057 537.762 694.047 537.636C727.321 544.211 760.19 549.917 792.429 554.966H805.04Z" fill="#E1D9E6"></path>
      <path id="d330ec6773e90372b2024ef779f6d7dd" d="M21.6559 554.966C76.3348 524.541 166.79 486.386 291.065 474C291.336 473.988 291.591 473.875 291.773 473.686C291.955 473.498 292.05 473.249 292.037 472.994C292.024 472.74 291.904 472.5 291.704 472.329C291.503 472.158 291.238 472.068 290.968 472.08H290.856C164.274 484.689 72.6438 523.989 18.0769 554.729L17.6575 554.966H21.6559Z" fill="#E1D9E6"></path>
      <path id="5c0ecfc5a19e1a996920da9cbb9266c7" d="M942.988 554.966C832.456 542.094 707.678 523.239 580.733 493.17C510.228 476.498 439.946 468.07 371.525 468.07C367.079 468.07 362.619 468.07 358.173 468.188H358.313C358.508 468.188 358.704 468.07 358.9 467.991C359.065 467.954 359.219 467.881 359.35 467.779C359.482 467.677 359.586 467.548 359.656 467.402C359.726 467.257 359.76 467.097 359.755 466.938C359.75 466.778 359.706 466.621 359.627 466.479C359.404 466.187 359.082 465.975 358.714 465.877C358.345 465.779 357.953 465.801 357.6 465.94L350.847 468.333C350.649 468.404 350.468 468.511 350.316 468.649C350.15 468.756 350.015 468.901 349.924 469.07C349.856 469.218 349.825 469.379 349.832 469.54C349.839 469.701 349.884 469.859 349.965 470.002C350.045 470.144 350.159 470.268 350.297 470.364C350.435 470.46 350.595 470.525 350.763 470.555L357.684 472.659C358.04 472.783 358.431 472.789 358.791 472.676C359.152 472.564 359.461 472.34 359.669 472.041C359.758 471.872 359.792 471.682 359.767 471.495C359.743 471.308 359.66 471.132 359.529 470.989C359.194 470.582 358.676 470.582 358.131 470.411C357.979 470.354 357.837 470.273 357.712 470.174C430.3 468.964 505.125 477.326 580.215 495.076C701.121 523.686 820.055 542.146 926.575 554.966H942.988Z" fill="#E1D9E6"></path>
      <path id="ad00bcf9c53d3e7ba9c046a646b253e1" d="M1094.88 554.966C954.928 539.753 772.353 518.48 582.718 476.538C513.625 461.26 445.595 453.608 379.074 453.621C317.497 453.516 256.125 460.29 196.248 473.803C105.499 494.393 39.929 526.395 0.0137939 550.351V552.625C39.6633 528.683 105.401 496.391 196.737 475.67C318.957 447.941 448.656 448.861 582.243 478.405C764.174 518.651 939.577 539.872 1077.16 554.966H1094.88Z" fill="#E1D9E6"></path>
      <path id="0c9f62ae0c1f735f27eb94358e8107e2" d="M1176.37 550.285C1146.14 546.143 1112.81 541.844 1076.94 537.229C938.375 519.374 765.894 497.206 584.703 459.853C519.791 446.284 453.511 439.345 387.015 439.158C321.467 439.046 256.145 446.392 192.473 461.036C104.394 481.416 40.4323 511.577 0.027832 535.257V537.518C40.2085 513.852 104.268 483.401 192.962 462.903C256.475 448.3 321.632 440.976 387.015 441.091C453.36 441.265 519.49 448.177 584.256 461.707C765.586 499.047 938.067 521.254 1076.66 539.109C1112.32 543.698 1145.81 548.01 1176.37 552.257V550.285Z" fill="#E1D9E6"></path>
      <path id="291a26e4505fefcd4e1be254b986714b" d="M151.425 432.531C151.363 432.627 151.288 432.716 151.202 432.794C150.796 433.096 150.293 433.228 150.167 433.701C150.123 433.886 150.135 434.079 150.202 434.258C150.268 434.437 150.387 434.595 150.545 434.714C150.847 434.943 151.221 435.074 151.61 435.085C151.998 435.097 152.38 434.99 152.698 434.779L158.164 430.953C158.308 430.871 158.427 430.756 158.513 430.62C158.599 430.484 158.648 430.33 158.656 430.172C158.664 430.014 158.631 429.857 158.56 429.713C158.489 429.57 158.382 429.445 158.248 429.349C158.088 429.213 157.896 429.115 157.689 429.06C157.488 428.966 157.269 428.913 157.046 428.902L149.594 428.468C149.231 428.403 148.855 428.475 148.548 428.67C148.241 428.865 148.029 429.166 147.958 429.507C147.98 429.842 148.136 430.157 148.396 430.386C148.656 430.616 149 430.744 149.356 430.743H149.999C150.153 430.73 150.307 430.73 150.461 430.743C95.1948 446.231 43.1723 466.874 0.0136719 490.277V492.499C43.3541 468.898 95.726 448.059 151.425 432.479" fill="#E1D9E6"></path>
      <path id="f5cefd37371e61d1a0e41c647ee69f44" d="M179.848 411.429C308.569 380.162 451.201 374.496 592.281 395.033C698.185 410.429 786.865 424.077 863.494 436.725C863.626 436.748 863.762 436.746 863.893 436.719C864.024 436.693 864.149 436.642 864.259 436.57C864.37 436.498 864.464 436.406 864.536 436.299C864.609 436.193 864.658 436.074 864.682 435.949C864.727 435.699 864.666 435.442 864.512 435.233C864.358 435.024 864.123 434.88 863.857 434.832C787.229 422.21 698.521 408.536 592.63 393.179C537.459 385.131 481.713 381.074 425.882 381.043C340.879 381.043 257.553 390.602 179.345 409.601C112.097 425.931 50.0648 448.848 0.0136719 475.341V477.747C50.3444 451.017 113.258 427.587 179.848 411.442" fill="#E1D9E6"></path>
    </g>
    <g id="cbb2312bdcab5505b82edd64c75d4d63" clip-path="url(#clip3_328_9254)">
      <path id="5f47359f7e79476ae00a3f8e4d795153" d="M12.3309 737.723H7.50757C4.97705 736.619 2.46057 735.501 -0.0140381 734.384V732.254C4.03101 734.077 8.14612 735.891 12.3309 737.697V737.723ZM1176.34 726.508C1167.84 730.277 1159.14 734.006 1150.24 737.697H1145.12L1145.81 737.421C1156.3 733.169 1166.49 728.818 1176.37 724.365L1176.34 726.508ZM47.7302 737.697H42.3337C27.4862 731.951 13.3236 725.969 -0.0140381 719.816V717.685C14.8988 724.601 30.8136 731.272 47.7302 737.697ZM1176.37 711.874C1166.12 716.169 1155.57 720.411 1144.73 724.601C1133.12 729.072 1121.22 733.454 1109.02 737.749H1103.12C1117.1 732.92 1130.71 727.954 1143.95 722.853C1155.13 718.558 1165.94 714.206 1176.37 709.797V711.874ZM87.0581 737.723H81.0045C53.3655 728.398 26.3235 717.577 0.013916 705.313V703.157C28.2406 716.361 57.3113 727.905 87.0581 737.723ZM1176.37 697.306C1165.52 701.601 1154.34 705.835 1142.82 710.007C1115.96 719.71 1087.4 728.993 1057.62 737.723H1050.68C1082.46 728.519 1113.04 718.685 1142.06 708.206C1153.89 703.937 1165.32 699.607 1176.37 695.216V697.306ZM131.545 737.723H124.555C72.8258 722.55 31.8201 706.168 -0.0280762 690.666V688.51C33.1343 704.656 76.3209 721.932 131.503 737.723H131.545ZM1176.37 682.843C1164.97 687.068 1153.14 691.254 1140.87 695.4C1095.06 710.875 1045.12 725.075 992.508 737.723H984.12C1039.55 724.575 1092.09 709.81 1140.13 693.585C1152.65 689.352 1164.71 685.083 1176.31 680.779L1176.37 682.843ZM171.712 734.738C175.757 735.729 179.9 736.724 184.141 737.723H175.752L171.138 736.592C96.4253 718.119 40.5162 696.123 -0.0419922 676.019V673.692C48.3734 697.622 107.82 718.948 171.656 734.738H171.712ZM1176.37 668.486C1164.4 672.614 1151.93 676.716 1138.94 680.792C1070.62 702.25 992.424 721.551 909.169 737.723H898.977C985.797 721.17 1067.39 701.237 1138.3 678.965C1151.44 674.836 1164.13 670.651 1176.37 666.408V668.486ZM174.298 721.735C199.65 727.985 225.5 733.323 251.849 737.749H240.581C217.951 733.7 195.684 728.984 173.781 723.602C109.344 707.745 49.0165 685.88 0.013916 661.202V659.019C49.0305 683.816 109.581 705.813 174.298 721.735ZM1176.37 654.207C1163.81 658.221 1150.7 662.214 1137.03 666.185C1042.48 693.677 926.589 718.356 803.181 737.723H790.598C918.508 718.093 1038.83 692.718 1136.41 664.344C1150.31 660.312 1163.63 656.249 1176.37 652.156V654.207ZM177.01 708.719C243.862 724.867 312.286 734.584 381.227 737.723H349.827C291.31 733.438 233.303 724.358 176.465 710.586C111.133 694.598 49.6456 672.049 -0.0140381 646.449V644.254C49.6595 669.985 111.371 692.665 176.982 708.679L177.01 708.719ZM1176.37 640.02C1163.24 643.877 1149.48 647.729 1135.1 651.577C1011.16 684.723 850.058 714.819 675.131 737.723H660.116C840.663 714.609 1007.23 683.816 1134.57 649.723C1149.16 645.823 1163.11 641.913 1176.4 637.995L1176.37 640.02ZM1176.37 625.925C1162.71 629.589 1148.31 633.271 1133.17 636.97C998.492 669.84 812.268 702.289 594.616 730.729C571.771 733.709 548.908 736.04 526.026 737.723H494.066C527.443 736.145 560.866 733.178 594.336 728.822C811.905 700.396 998.045 667.986 1132.6 635.116C1147.91 631.373 1162.48 627.639 1176.31 623.914L1176.37 625.925ZM1176.37 611.91C1113.57 627.135 1034.46 643.018 938.361 659.769C938.629 659.935 938.936 660.039 939.255 660.071L939.899 660.163C940.064 660.177 940.225 660.223 940.372 660.298C940.518 660.373 940.647 660.475 940.75 660.598C940.854 660.721 940.929 660.862 940.973 661.013C941.016 661.165 941.026 661.322 941.003 661.478C940.852 661.801 940.583 662.064 940.245 662.218C939.907 662.373 939.521 662.408 939.158 662.319L931.902 661.004C931.487 660.912 931.11 660.711 930.811 660.426C930.705 660.302 930.631 660.156 930.595 660C930.559 659.844 930.562 659.683 930.604 659.528C930.646 659.374 930.726 659.231 930.837 659.111C930.948 658.99 931.088 658.896 931.244 658.835L937.48 655.745C937.818 655.574 938.206 655.512 938.585 655.569C938.964 655.626 939.313 655.799 939.577 656.061C939.708 656.203 939.793 656.378 939.82 656.565C939.847 656.752 939.816 656.942 939.731 657.113C939.558 657.379 939.291 657.58 938.976 657.678C1035.72 640.822 1114.17 625.058 1176.37 609.977V611.91ZM1176.37 598.065C1062.61 622.691 905.478 647.514 730.033 675.23C684.736 682.383 637.886 689.785 590.659 697.372C532.474 706.804 473.545 711.594 414.502 711.69C342.146 711.817 270.017 704.088 199.547 688.655C199.285 688.592 199.059 688.437 198.916 688.221C198.772 688.006 198.723 687.746 198.778 687.498C198.842 687.249 199.006 687.035 199.236 686.899C199.466 686.764 199.744 686.719 200.009 686.774C324.298 714.175 455.633 717.094 590.366 695.465C637.593 687.892 684.456 680.49 729.754 673.324C900.417 646.37 1061.62 620.903 1176.01 596.145L1176.43 596.053L1176.37 598.065ZM1176.37 584.22C1102.2 598.341 1009.56 612.804 905.59 629.041C809.039 644.162 699.625 661.254 588.66 680.687C527.914 691.468 466.239 696.943 404.421 697.043C224.797 697.043 84.8212 649.066 0.013916 601.904V599.669C84.4298 646.896 224.405 695.124 404.366 695.124C466.094 695.021 527.68 689.554 588.338 678.794C699.304 659.308 808.745 642.229 905.296 627.148C1007.48 611.173 1101.07 596.566 1176.37 582.182V584.22ZM1176.37 570.533C1127.77 578.422 1071 586.731 1007.86 595.908C881.473 614.316 738.212 635.116 586.689 664.015C523.817 676.121 459.817 682.288 395.642 682.423C387.253 682.423 378.865 682.313 370.476 682.094C309.235 680.57 248.349 672.82 188.88 658.98C103.108 638.837 40.684 610.266 0.013916 586.994V584.733C40.5581 608.031 103.08 636.851 189.383 657.047C248.705 670.853 309.442 678.581 370.532 680.095C442.939 681.823 515.319 675.78 586.269 662.082C737.849 633.157 881.137 612.344 1007.55 593.963C1070 584.89 1127.16 576.581 1176.37 568.508V570.533Z" fill="#E1D9E6"></path>
      <path id="24ab52ca6f4fbc2e11e8882226c601aa" d="M377.83 552.218C363.43 553.155 349.123 553.624 334.909 553.624C320.695 553.624 306.603 553.155 292.631 552.218H377.83Z" fill="#E1D9E6"></path>
      <path id="18664c9a2ae889032aa3fb6d2ea5c2d7" d="M208.159 552.218C213.481 553.348 218.883 554.418 224.363 555.426C305.452 570.362 390.469 569.257 478.1 552.218H487.886C439.4 562.42 389.879 567.644 340.194 567.798C301.174 567.822 262.243 564.3 223.944 557.279C215.471 555.719 207.199 554.019 199.128 552.178L208.159 552.218Z" fill="#E1D9E6"></path>
      <path id="592be655d339f0e8e45d0649617a146d" d="M155.494 552.218C251.961 581.709 384.527 596.25 548.2 552.218H555.54C478.645 573.531 408.672 581.985 345.828 581.971C278.936 582.195 212.454 572.145 149.007 552.218H155.494Z" fill="#E1D9E6"></path>
      <path id="ea1fe7ba6aa115204796c0eb44b19b55" d="M114.894 552.218C147.105 564.369 180.36 573.914 214.297 580.749C328.156 603.732 449.174 597.447 574.176 562.079C586.348 558.634 598.498 555.347 610.624 552.218H618.411C603.899 555.899 589.35 559.804 574.763 563.932C498.75 585.456 424.176 596.224 351.742 596.224C305.4 596.291 259.182 591.734 213.864 582.629C178.168 575.451 143.229 565.273 109.469 552.218H114.894Z" fill="#E1D9E6"></path>
      <path id="f9d0cc763b2958d3a02f75a82a6a4ea3" d="M80.2916 552.218C121.655 570.339 165.001 584.152 209.558 593.41C325.598 617.708 448.992 612.777 576.189 578.75C614.119 568.613 651.783 559.83 688.902 552.218H698.688C658.606 560.251 617.866 569.625 576.818 580.604C502.343 600.523 429.209 610.503 358.047 610.503C307.978 610.571 258.052 605.47 209.166 595.291C163.049 585.713 118.231 571.264 75.5661 552.218H80.2916Z" fill="#E1D9E6"></path>
      <path id="f27cc0da73e8ed7799a2973bdeaaaadf" d="M49.5197 552.218C98.6314 576.503 150.918 594.627 205.042 606.125C323.263 631.671 448.81 628.082 578.216 595.488C598.349 590.413 619.096 585.495 639.885 580.893C640.15 580.838 640.428 580.883 640.658 581.018C640.888 581.153 641.052 581.368 641.116 581.616C641.147 581.74 641.151 581.868 641.129 581.993C641.108 582.118 641.059 582.238 640.988 582.346C640.916 582.454 640.823 582.547 640.713 582.62C640.603 582.694 640.478 582.746 640.347 582.774C619.585 587.375 598.852 592.266 578.748 597.341C505.95 615.749 434.368 624.86 364.618 624.86C310.767 624.943 257.078 619.289 204.58 608.005C138.186 593.66 85.0168 572.505 45.1996 552.27L49.5197 552.218Z" fill="#E1D9E6"></path>
      <path id="1d4162832fff8f80fe5539f99da9b2d6" d="M805.04 552.218C769.557 557.608 733.263 563.827 696.465 571.032C696.768 571.071 697.045 571.213 697.243 571.431C697.442 571.649 697.548 571.929 697.542 572.216C697.505 572.385 697.433 572.546 697.331 572.689C697.228 572.832 697.096 572.955 696.943 573.05C696.79 573.145 696.618 573.211 696.438 573.244C696.258 573.277 696.072 573.276 695.892 573.241L688.454 572.715C688.231 572.706 688.011 572.653 687.811 572.558C687.607 572.496 687.417 572.398 687.252 572.268C687.119 572.169 687.014 572.041 686.946 571.896C686.877 571.75 686.847 571.591 686.858 571.432C686.869 571.273 686.921 571.119 687.009 570.983C687.097 570.847 687.219 570.733 687.364 570.651L692.956 566.891C693.278 566.686 693.661 566.585 694.049 566.601C694.437 566.618 694.809 566.752 695.109 566.983C695.26 567.105 695.373 567.265 695.435 567.443C695.496 567.622 695.505 567.813 695.459 567.995C695.319 568.469 694.83 568.6 694.41 568.902C694.306 568.98 694.219 569.078 694.157 569.189C694.094 569.3 694.057 569.421 694.047 569.547C727.321 562.973 760.19 557.266 792.429 552.218H805.04Z" fill="#E1D9E6"></path>
      <path id="f8ccb51b28880577f78b517fa03f9612" d="M21.6559 552.218C76.3348 582.642 166.79 620.798 291.065 633.183C291.336 633.195 291.591 633.308 291.773 633.497C291.955 633.686 292.05 633.934 292.037 634.189C292.024 634.444 291.904 634.683 291.704 634.854C291.503 635.025 291.238 635.115 290.968 635.103H290.856C164.274 622.494 72.6438 583.194 18.0769 552.454L17.6575 552.218H21.6559Z" fill="#E1D9E6"></path>
      <path id="799f59488e82b3e0c4eaeca263581ad5" d="M942.988 552.218C832.456 565.09 707.678 583.944 580.733 614.013C510.228 630.685 439.946 639.113 371.525 639.113C367.079 639.113 362.619 639.113 358.173 638.995H358.313C358.508 638.995 358.704 639.113 358.9 639.192C359.065 639.229 359.219 639.302 359.35 639.404C359.482 639.506 359.586 639.635 359.656 639.781C359.726 639.927 359.76 640.086 359.755 640.246C359.75 640.406 359.706 640.562 359.627 640.704C359.404 640.996 359.082 641.209 358.714 641.306C358.345 641.404 357.953 641.382 357.6 641.243L350.847 638.85C350.649 638.78 350.468 638.672 350.316 638.534C350.15 638.427 350.015 638.282 349.924 638.114C349.856 637.965 349.825 637.805 349.832 637.643C349.839 637.482 349.884 637.324 349.965 637.181C350.045 637.039 350.159 636.915 350.297 636.819C350.435 636.723 350.595 636.658 350.763 636.628L357.684 634.524C358.04 634.401 358.431 634.395 358.791 634.507C359.152 634.619 359.461 634.843 359.669 635.142C359.758 635.311 359.792 635.501 359.767 635.688C359.743 635.875 359.66 636.051 359.529 636.194C359.194 636.602 358.676 636.601 358.131 636.772C357.979 636.83 357.837 636.91 357.712 637.009C430.3 638.219 505.125 629.857 580.215 612.107C701.121 583.497 820.055 565.037 926.575 552.218H942.988Z" fill="#E1D9E6"></path>
      <path id="51396e69fb781727b975e60bd28b8c77" d="M1094.88 552.218C954.928 567.43 772.353 588.703 582.718 630.646C513.625 645.924 445.595 653.576 379.074 653.562C317.497 653.667 256.125 646.893 196.248 633.38C105.499 612.791 39.929 580.788 0.0137939 556.833V554.558C39.6633 578.501 105.401 610.792 196.737 631.513C318.957 659.242 448.656 658.322 582.243 628.779C764.174 588.532 939.577 567.312 1077.16 552.218H1094.88Z" fill="#E1D9E6"></path>
      <path id="905cf13395fccecd1b472aeb1075f3c8" d="M1176.37 556.898C1146.14 561.04 1112.81 565.339 1076.94 569.954C938.375 587.809 765.894 609.977 584.703 647.33C519.791 660.899 453.511 667.838 387.015 668.025C321.467 668.137 256.145 660.791 192.473 646.147C104.394 625.768 40.4323 595.606 0.027832 571.926V569.665C40.2085 593.331 104.268 623.782 192.962 644.28C256.475 658.883 321.632 666.207 387.015 666.093C453.36 665.918 519.49 659.006 584.256 645.476C765.586 608.136 938.067 585.929 1076.66 568.074C1112.32 563.485 1145.81 559.173 1176.37 554.926V556.898Z" fill="#E1D9E6"></path>
      <path id="540b7e5c2bd819f05bc5294dfacca7a8" d="M151.425 674.652C151.363 674.556 151.288 674.467 151.202 674.389C150.796 674.087 150.293 673.955 150.167 673.482C150.123 673.297 150.135 673.104 150.202 672.925C150.268 672.746 150.387 672.588 150.545 672.469C150.847 672.24 151.221 672.11 151.61 672.098C151.998 672.086 152.38 672.193 152.698 672.404L158.164 676.23C158.308 676.312 158.427 676.427 158.513 676.563C158.599 676.699 158.648 676.853 158.656 677.011C158.664 677.169 158.631 677.327 158.56 677.47C158.489 677.613 158.382 677.738 158.248 677.834C158.088 677.97 157.896 678.069 157.689 678.123C157.488 678.217 157.269 678.271 157.046 678.281L149.594 678.715C149.231 678.78 148.855 678.708 148.548 678.513C148.241 678.319 148.029 678.017 147.958 677.676C147.98 677.341 148.136 677.027 148.396 676.797C148.656 676.567 149 676.44 149.356 676.44H149.999C150.153 676.453 150.307 676.453 150.461 676.44C95.1948 660.952 43.1723 640.309 0.0136719 616.906V614.684C43.3541 638.285 95.726 659.124 151.425 674.705" fill="#E1D9E6"></path>
      <path id="fbc29d3b80c7c9ab1074290e6a9e7e43" d="M179.848 695.755C308.569 727.021 451.201 732.687 592.281 712.15C698.185 696.754 786.865 683.106 863.494 670.458C863.626 670.435 863.762 670.437 863.893 670.464C864.024 670.491 864.149 670.541 864.259 670.613C864.37 670.686 864.464 670.777 864.536 670.884C864.609 670.99 864.658 671.109 864.682 671.234C864.727 671.484 864.666 671.742 864.512 671.95C864.358 672.159 864.123 672.303 863.857 672.351C787.229 684.973 698.521 698.647 592.63 714.004C537.459 722.052 481.713 726.109 425.882 726.14C340.879 726.14 257.553 716.581 179.345 697.582C112.097 681.252 50.0648 658.335 0.0136719 631.842V629.436C50.3444 656.166 113.258 679.596 179.848 695.741" fill="#E1D9E6"></path>
    </g>
  </g>
  <defs>
    <clipPath id="clip0_328_9254">
      <rect width="1176.37" height="185.506" fill="white" transform="matrix(-1 0 0 1 1176.37 184.072)"></rect>
    </clipPath>
    <clipPath id="clip1_328_9254">
      <rect width="1176.37" height="185.506" fill="white" transform="translate(1176.37 185.506) rotate(180)"></rect>
    </clipPath>
    <clipPath id="clip2_328_9254">
      <rect width="1176.37" height="185.506" fill="white" transform="translate(1176.37 554.966) rotate(180)"></rect>
    </clipPath>
    <clipPath id="clip3_328_9254">
      <rect width="1176.37" height="185.506" fill="white" transform="matrix(-1 0 0 1 1176.37 552.217)"></rect>
    </clipPath>
  </defs>
</svg>