<svg width="867" height="1014" viewBox="0 0 867 1014" fill="none" xmlns="http://www.w3.org/2000/svg">
<g clip-path="url(#clip0_218_2484)">
<path d="M857.338 145.282H860.891C862.754 144.417 864.608 143.542 866.43 142.667V140.998C863.451 142.426 860.42 143.847 857.338 145.261V145.282ZM0.0205815 136.498C6.28123 139.45 12.6895 142.371 19.2453 145.261H23.014L22.5095 145.045C14.7798 141.716 7.27662 138.307 -9.31881e-06 134.82L0.0205815 136.498ZM831.266 145.261H835.24C846.176 140.761 856.607 136.076 866.43 131.257V129.589C855.447 135.005 843.725 140.229 831.266 145.261ZM-9.31881e-06 125.038C7.55121 128.402 15.3187 131.724 23.3024 135.005C31.8558 138.506 40.6221 141.939 49.6012 145.303H53.9466C43.6495 141.52 33.6269 137.631 23.879 133.636C15.6413 130.272 7.68164 126.864 -9.31881e-06 123.411V125.038ZM802.3 145.282H806.759C827.115 137.979 847.032 129.504 866.41 119.9V118.211C845.62 128.552 824.209 137.593 802.3 145.282V145.282ZM-9.31881e-06 113.629C7.99055 116.992 16.2282 120.308 24.7131 123.576C44.4938 131.175 65.5308 138.445 87.4637 145.282H92.5711C69.1657 138.074 46.6459 130.372 25.2691 122.165C16.5578 118.822 8.13471 115.431 -9.31881e-06 111.991V113.629ZM769.534 145.282H774.683C812.782 133.399 842.984 120.569 866.441 108.429V106.74C842.016 119.385 810.208 132.915 769.565 145.282H769.534ZM-9.31881e-06 102.302C8.39557 105.611 17.1104 108.889 26.1444 112.136C59.888 124.255 96.6693 135.376 135.417 145.282H141.596C100.768 134.985 62.071 123.421 26.6901 110.715C17.4708 107.399 8.58778 104.056 0.0411762 100.685L-9.31881e-06 102.302ZM739.951 142.944C736.972 143.72 733.92 144.499 730.797 145.282H736.975L740.373 144.396C795.401 129.929 836.579 112.702 866.451 96.9576V95.135C830.792 113.876 787.009 130.578 739.992 142.944H739.951ZM-9.31881e-06 91.0574C8.81432 94.2907 18.0028 97.5035 27.5654 100.696C77.8874 117.5 135.479 132.616 196.798 145.282H204.305C140.36 132.318 80.266 116.707 28.039 99.2641C18.3597 96.0309 9.0134 92.7529 -9.31881e-06 89.4304V91.0574ZM738.046 132.761C719.374 137.655 700.334 141.836 680.928 145.303H689.227C705.895 142.131 722.295 138.438 738.427 134.223C785.886 121.804 830.318 104.68 866.41 85.3527V83.6435C830.308 103.064 785.711 120.291 738.046 132.761V132.761ZM-9.31881e-06 79.8746C9.2468 83.0186 18.9055 86.1457 28.9761 89.2554C98.6155 110.787 183.968 130.114 274.861 145.282H284.128C189.92 129.908 101.303 110.035 29.4291 87.8139C19.1938 84.6561 9.3841 81.4743 -9.31881e-06 78.2684V79.8746ZM736.048 122.567C686.81 135.213 636.415 142.824 585.638 145.282H608.766C651.864 141.926 694.588 134.815 736.45 124.029C784.568 111.507 829.855 93.8479 866.43 73.7994V72.0799C829.845 92.2313 784.393 109.994 736.069 122.536L736.048 122.567ZM-9.31881e-06 68.7642C9.67242 71.7847 19.8048 74.8015 30.3971 77.8152C121.681 103.774 240.335 127.344 369.172 145.282H380.231C247.254 127.18 124.575 103.064 30.7884 76.3634C20.0382 73.3086 9.76852 70.247 -0.020604 67.1784L-9.31881e-06 68.7642ZM-9.31881e-06 57.7255C10.0637 60.595 20.6697 63.4783 31.8181 66.3752C131.01 92.118 268.168 117.531 428.473 139.804C445.299 142.138 462.138 143.964 478.991 145.282H502.53C477.948 144.046 453.331 141.723 428.679 138.311C268.436 116.048 131.34 90.6662 32.2403 64.9234C20.9615 61.9922 10.2285 59.0678 0.0411762 56.1502L-9.31881e-06 57.7255ZM-9.31881e-06 46.7489C46.2546 58.6729 104.516 71.112 175.298 84.2305C175.101 84.3609 174.875 84.4421 174.639 84.4673L174.165 84.5392C174.043 84.5506 173.925 84.5868 173.817 84.6453C173.709 84.7038 173.614 84.7836 173.538 84.8799C173.462 84.9761 173.406 85.087 173.374 85.2054C173.342 85.3239 173.335 85.4474 173.352 85.5689C173.463 85.8225 173.661 86.0284 173.91 86.1492C174.159 86.2699 174.443 86.2979 174.711 86.2281L180.055 85.1984C180.36 85.1258 180.639 84.9689 180.859 84.7454C180.937 84.6481 180.991 84.5338 181.018 84.4118C181.044 84.2898 181.042 84.1634 181.011 84.0425C180.98 83.9215 180.921 83.8094 180.839 83.7151C180.757 83.6209 180.655 83.5468 180.539 83.4992L175.947 81.0795C175.698 80.9454 175.412 80.8968 175.133 80.9415C174.854 80.9862 174.597 81.1215 174.402 81.3267C174.306 81.4382 174.243 81.5754 174.223 81.7216C174.203 81.8678 174.226 82.0169 174.289 82.1505C174.416 82.3594 174.613 82.5163 174.845 82.5932C103.589 69.3923 45.8119 57.046 -9.31881e-06 45.2352V46.7489ZM-9.31881e-06 35.906C83.7876 55.1925 199.517 74.6334 328.735 96.3397C362.098 101.941 396.604 107.739 431.387 113.68C474.242 121.067 517.644 124.819 561.131 124.894C614.422 124.993 667.547 118.94 719.449 106.853C719.642 106.804 719.809 106.683 719.914 106.514C720.02 106.345 720.056 106.142 720.016 105.947C719.969 105.753 719.848 105.584 719.678 105.478C719.509 105.372 719.305 105.337 719.109 105.381C627.568 126.84 530.837 129.126 431.604 112.187C396.82 106.256 362.304 100.459 328.941 94.8466C203.244 73.7376 84.5187 53.7921 0.267714 34.4026L-0.0411987 34.3305L-9.31881e-06 35.906ZM-9.31881e-06 25.0631C54.6262 36.1222 122.855 47.4491 199.435 60.166C270.546 72.0077 351.132 85.394 432.86 100.613C477.6 109.056 523.025 113.344 568.555 113.423C700.853 113.423 803.947 75.8486 866.41 38.9129V37.1622C804.236 74.1494 701.141 111.919 568.596 111.919C523.132 111.839 477.773 107.558 433.097 99.1304C351.369 83.8701 270.763 70.4941 199.651 58.6833C124.389 46.1723 55.4603 34.7323 -9.31881e-06 23.4672V25.0631ZM-9.31881e-06 14.3439C35.7928 20.5221 77.6094 27.03 124.111 34.2173C217.197 48.6333 322.712 64.9234 434.312 87.5565C480.618 97.0374 527.755 101.867 575.022 101.972C581.2 101.972 587.378 101.887 593.557 101.715C638.662 100.522 683.506 94.452 727.306 83.6126C790.479 67.8374 836.455 45.4618 866.41 27.2359V25.4648C836.548 43.7113 790.499 66.2826 726.935 82.0989C683.244 92.9118 638.51 98.9641 593.516 100.15C540.187 101.503 486.877 96.7698 434.621 86.0426C322.979 63.3889 217.444 47.0888 124.338 32.6934C78.3405 25.5884 36.2458 19.0805 -9.31881e-06 12.7581V14.3439Z" fill="#743C91"/>
<path d="M588.14 0C598.746 0.734528 609.284 1.10161 619.753 1.10161C630.221 1.10161 640.601 0.734528 650.891 0H588.14Z" fill="#743C91"/>
<path d="M713.106 0.0001598C709.186 0.885712 705.208 1.72315 701.172 2.5126C641.449 14.2101 578.832 13.3452 514.29 0.0001598H507.082C542.793 7.99072 579.266 12.0819 615.86 12.2021C644.599 12.2214 673.273 9.46271 701.481 3.9644C707.721 2.74247 713.813 1.41083 719.758 -0.0307617L713.106 0.0001598Z" fill="#743C91"/>
<path d="M751.895 0C680.845 23.0964 583.208 34.485 462.66 0H457.254C513.888 16.6916 565.425 23.3126 611.711 23.3023C660.978 23.4774 709.943 15.6065 756.673 0H751.895Z" fill="#743C91"/>
<path d="M781.798 0C758.074 9.51631 733.581 16.9916 708.586 22.3447C624.726 40.3441 535.594 35.4221 443.528 7.72284C434.562 5.02499 425.614 2.45071 416.683 0H410.948C421.636 2.88319 432.352 5.94135 443.095 9.17464C499.081 26.031 554.005 34.4644 607.355 34.4644C641.486 34.5168 675.527 30.9476 708.905 23.8171C735.196 18.1958 760.929 10.2248 785.794 0H781.798Z" fill="#743C91"/>
<path d="M807.284 0C776.819 14.1924 744.893 25.0102 712.076 32.2607C626.61 51.2898 535.728 47.4284 442.045 20.7795C414.109 12.8404 386.368 5.96203 359.03 0H351.822C381.343 6.29154 411.349 13.6332 441.582 22.2313C496.434 37.8314 550.298 45.6469 602.711 45.6469C639.588 45.7006 676.36 41.7056 712.365 33.7334C746.331 26.2325 779.34 14.9162 810.764 0H807.284Z" fill="#743C91"/>
<path d="M829.948 0C793.776 19.0199 755.266 33.2137 715.402 42.2182C628.33 62.2255 535.862 59.4143 440.552 33.8877C425.724 29.913 410.443 26.0618 395.131 22.4578C394.936 22.4145 394.732 22.4497 394.562 22.5556C394.393 22.6616 394.272 22.8298 394.225 23.0242C394.202 23.1209 394.199 23.2213 394.215 23.3194C394.231 23.4174 394.267 23.5114 394.319 23.5956C394.372 23.6799 394.441 23.7528 394.522 23.8103C394.603 23.8678 394.694 23.9087 394.791 23.9305C410.083 27.5345 425.353 31.3648 440.161 35.3395C493.778 49.7555 546.499 56.8916 597.871 56.8916C637.534 56.9566 677.076 52.528 715.742 43.6906C764.643 32.4564 803.803 15.8885 833.129 0.0412287L829.948 0Z" fill="#743C91"/>
<path d="M273.491 0C299.626 4.22182 326.357 9.09216 353.459 14.735C353.236 14.7653 353.032 14.8766 352.886 15.0475C352.74 15.2184 352.661 15.437 352.666 15.6619C352.693 15.7944 352.746 15.9203 352.822 16.0324C352.897 16.1445 352.994 16.2407 353.107 16.3152C353.22 16.3898 353.346 16.4414 353.479 16.4671C353.612 16.4928 353.749 16.4922 353.881 16.4651L359.359 16.053C359.524 16.0462 359.686 16.0042 359.833 15.9296C359.983 15.8811 360.123 15.8043 360.245 15.7031C360.342 15.6255 360.42 15.5253 360.47 15.4112C360.521 15.2972 360.543 15.1727 360.535 15.0482C360.527 14.9237 360.489 14.803 360.424 14.6965C360.359 14.59 360.269 14.5009 360.162 14.4366L356.043 11.4915C355.807 11.3312 355.524 11.2517 355.239 11.2647C354.953 11.2777 354.679 11.3825 354.458 11.5636C354.346 11.6596 354.263 11.7843 354.218 11.9241C354.173 12.0639 354.167 12.2135 354.2 12.3565C354.303 12.7272 354.664 12.8301 354.973 13.067C355.05 13.128 355.113 13.2044 355.159 13.2912C355.205 13.3781 355.233 13.4735 355.24 13.5715C330.733 8.42297 306.525 3.95409 282.779 0H273.491Z" fill="#743C91"/>
<path d="M850.47 0C810.198 23.8275 743.575 53.7096 652.044 63.4095C651.845 63.419 651.658 63.5076 651.523 63.6553C651.389 63.8031 651.319 63.998 651.329 64.1973C651.338 64.3967 651.427 64.584 651.574 64.7182C651.722 64.8524 651.917 64.9226 652.116 64.9131H652.199C745.429 55.0381 812.916 24.2599 853.106 0.185278L853.415 0H850.47Z" fill="#743C91"/>
<path d="M171.89 0C253.299 10.0809 345.201 24.8469 438.698 48.3964C490.627 61.4532 542.39 68.0535 592.784 68.0535C596.059 68.0535 599.344 68.0536 602.618 67.961H602.515C602.371 67.961 602.227 68.0535 602.083 68.1153C601.961 68.1448 601.847 68.2016 601.751 68.2815C601.654 68.3614 601.577 68.4624 601.526 68.5766C601.474 68.6908 601.449 68.8154 601.453 68.9406C601.457 69.0659 601.489 69.1887 601.547 69.2996C601.712 69.5285 601.949 69.6948 602.22 69.7715C602.491 69.8482 602.78 69.8306 603.04 69.7217L608.014 67.8476C608.16 67.7925 608.293 67.7084 608.405 67.6005C608.527 67.5165 608.627 67.4031 608.694 67.2709C608.744 67.1547 608.767 67.029 608.762 66.9026C608.757 66.7762 608.723 66.6525 608.664 66.5408C608.605 66.4291 608.521 66.3323 608.419 66.2573C608.317 66.1822 608.2 66.131 608.076 66.1074L602.979 64.4598C602.716 64.363 602.429 64.3583 602.163 64.4462C601.897 64.5341 601.669 64.7094 601.516 64.9437C601.451 65.076 601.426 65.2249 601.444 65.3714C601.462 65.5178 601.523 65.6555 601.619 65.7675C601.866 66.0868 602.247 66.0867 602.649 66.2206C602.761 66.2653 602.866 66.3281 602.958 66.4061C549.495 67.3534 494.385 60.8045 439.079 46.9034C350.03 24.4969 262.432 10.0397 183.979 0H171.89Z" fill="#743C91"/>
<path d="M60.0219 0C163.096 11.9138 297.566 28.5744 437.236 61.4222C488.125 73.3875 538.23 79.3803 587.224 79.37C632.577 79.4523 677.779 74.1466 721.879 63.5641C788.718 47.4388 837.011 22.3756 866.41 3.6143V1.83292C837.207 20.584 788.79 45.8735 721.519 62.1017C631.502 83.8183 535.975 83.0977 437.586 59.9601C303.59 28.4406 174.402 11.8211 73.0684 0H60.0219Z" fill="#743C91"/>
<path d="M0 3.66566C22.2624 6.90925 46.8107 10.2766 73.2331 13.8909C175.288 27.8744 302.323 45.2351 435.774 74.4893C483.583 85.1161 532.4 90.5502 581.375 90.6969C629.653 90.7845 677.764 85.0314 724.66 73.5626C789.531 57.6021 836.641 33.9806 866.399 15.4354V13.6644C836.805 32.1992 789.624 56.0473 724.299 72.1005C677.521 83.537 629.531 89.2728 581.375 89.1833C532.511 89.0469 483.805 83.6336 436.103 73.0375C302.55 43.7936 175.514 26.4017 73.439 12.4182C47.1711 8.82452 22.5095 5.44706 0 2.12109V3.66566Z" fill="#743C91"/>
<path d="M754.892 95.8866C754.938 95.8112 754.993 95.742 755.057 95.6807C755.355 95.4439 755.726 95.341 755.819 94.9703C755.851 94.8254 755.842 94.6741 755.793 94.5339C755.744 94.3937 755.657 94.2702 755.541 94.1774C755.318 93.9978 755.042 93.8956 754.756 93.8863C754.47 93.877 754.189 93.9611 753.955 94.1259L749.929 97.1222C749.823 97.1871 749.735 97.2768 749.672 97.3834C749.609 97.49 749.573 97.6104 749.566 97.7341C749.56 97.8579 749.585 97.9813 749.637 98.0936C749.689 98.2059 749.768 98.3038 749.867 98.3787C749.985 98.485 750.126 98.5625 750.279 98.6052C750.426 98.6787 750.588 98.7206 750.752 98.7286L756.241 99.0685C756.508 99.1199 756.785 99.0631 757.011 98.9107C757.237 98.7582 757.393 98.5224 757.446 98.255C757.43 97.9928 757.314 97.7464 757.123 97.5664C756.932 97.3865 756.679 97.2867 756.416 97.2871H755.942C755.829 97.2973 755.715 97.2973 755.602 97.2871C796.307 85.1571 834.622 68.9906 866.41 50.6618V48.9216C834.489 67.405 795.916 83.7258 754.892 95.9279" fill="#743C91"/>
<path d="M733.958 112.414C639.152 136.9 534.101 141.338 430.193 125.254C352.192 113.196 286.878 102.508 230.439 92.602C230.342 92.5842 230.242 92.5859 230.145 92.6068C230.048 92.6277 229.957 92.6675 229.875 92.724C229.794 92.7804 229.725 92.8523 229.671 92.9356C229.618 93.019 229.581 93.1122 229.564 93.2097C229.531 93.406 229.576 93.6075 229.689 93.771C229.803 93.9346 229.976 94.0472 230.171 94.0848C286.61 103.97 351.945 114.679 429.936 126.706C470.57 133.009 511.629 136.187 552.749 136.21C615.356 136.21 676.727 128.724 734.329 113.845C783.858 101.056 829.546 83.108 866.41 62.3593V60.4751C829.34 81.4091 783.003 99.7585 733.958 112.403" fill="#743C91"/>
</g>
<g clip-path="url(#clip1_218_2484)">
<path d="M857.338 435.661H860.891C862.754 434.796 864.608 433.921 866.43 433.045V431.377C863.451 432.805 860.42 434.226 857.338 435.64V435.661ZM0.0205815 426.877C6.28123 429.829 12.6895 432.75 19.2453 435.64H23.014L22.5095 435.424C14.7798 432.094 7.27662 428.686 -9.31881e-06 425.199L0.0205815 426.877ZM831.266 435.64H835.24C846.176 431.14 856.607 426.455 866.43 421.636V419.968C855.447 425.384 843.725 430.608 831.266 435.64ZM-9.31881e-06 415.417C7.55121 418.78 15.3187 422.103 23.3024 425.384C31.8558 428.885 40.6221 432.317 49.6012 435.681H53.9466C43.6495 431.899 33.6269 428.01 23.879 424.015C15.6413 420.651 7.68164 417.242 -9.31881e-06 413.79V415.417ZM802.3 435.661H806.759C827.115 428.357 847.032 419.883 866.41 410.278V408.59C845.62 418.93 824.209 427.971 802.3 435.661V435.661ZM-9.31881e-06 404.007C7.99055 407.371 16.2282 410.687 24.7131 413.954C44.4938 421.554 65.5308 428.823 87.4637 435.661H92.5711C69.1657 428.453 46.6459 420.75 25.2691 412.544C16.5578 409.2 8.13471 405.809 -9.31881e-06 402.37V404.007ZM769.534 435.661H774.683C812.782 423.778 842.984 410.948 866.441 398.807V397.119C842.016 409.763 810.208 423.294 769.565 435.661H769.534ZM-9.31881e-06 392.68C8.39557 395.989 17.1104 399.267 26.1444 402.514C59.888 414.634 96.6693 425.755 135.417 435.661H141.596C100.768 425.363 62.071 413.8 26.6901 401.093C17.4708 397.778 8.58778 394.435 0.0411762 391.064L-9.31881e-06 392.68ZM739.951 433.323C736.972 434.099 733.92 434.878 730.797 435.661H736.975L740.373 434.775C795.401 420.308 836.579 403.081 866.451 387.336V385.514C830.792 404.254 787.009 420.956 739.992 433.323H739.951ZM-9.31881e-06 381.436C8.81432 384.669 18.0028 387.882 27.5654 391.074C77.8874 407.879 135.479 422.995 196.798 435.661H204.305C140.36 422.696 80.266 407.086 28.039 389.643C18.3597 386.41 9.0134 383.132 -9.31881e-06 379.809V381.436ZM738.046 423.139C719.374 428.034 700.334 432.214 680.928 435.681H689.227C705.895 432.51 722.295 428.816 738.427 424.601C785.886 412.183 830.318 395.059 866.41 375.731V374.022C830.308 393.443 785.711 410.67 738.046 423.139V423.139ZM-9.31881e-06 370.253C9.2468 373.397 18.9055 376.524 28.9761 379.634C98.6155 401.165 183.968 420.493 274.861 435.661H284.128C189.92 420.287 101.303 400.414 29.4291 378.193C19.1938 375.035 9.3841 371.853 -9.31881e-06 368.647V370.253ZM736.048 412.945C686.81 425.592 636.415 433.203 585.638 435.661H608.766C651.864 432.305 694.588 425.193 736.45 414.407C784.568 401.886 829.855 384.227 866.43 364.178V362.459C829.845 382.61 784.393 400.373 736.069 412.914L736.048 412.945ZM-9.31881e-06 359.143C9.67242 362.163 19.8048 365.18 30.3971 368.194C121.681 394.153 240.335 417.723 369.172 435.661H380.231C247.254 417.558 124.575 393.442 30.7884 366.742C20.0382 363.687 9.76852 360.626 -0.020604 357.557L-9.31881e-06 359.143ZM-9.31881e-06 348.104C10.0637 350.974 20.6697 353.857 31.8181 356.754C131.01 382.497 268.168 407.91 428.473 430.183C445.299 432.517 462.138 434.343 478.991 435.661H502.53C477.948 434.425 453.331 432.101 428.679 428.689C268.436 406.427 131.34 381.045 32.2403 355.302C20.9615 352.371 10.2285 349.446 0.0411762 346.529L-9.31881e-06 348.104ZM-9.31881e-06 337.128C46.2546 349.052 104.516 361.491 175.298 374.609C175.101 374.74 174.875 374.821 174.639 374.846L174.165 374.918C174.043 374.929 173.925 374.965 173.817 375.024C173.709 375.083 173.614 375.162 173.538 375.259C173.462 375.355 173.406 375.466 173.374 375.584C173.342 375.703 173.335 375.826 173.352 375.948C173.463 376.201 173.661 376.407 173.91 376.528C174.159 376.649 174.443 376.677 174.711 376.607L180.055 375.577C180.36 375.504 180.639 375.348 180.859 375.124C180.937 375.027 180.991 374.912 181.018 374.79C181.044 374.668 181.042 374.542 181.011 374.421C180.98 374.3 180.921 374.188 180.839 374.094C180.757 374 180.655 373.926 180.539 373.878L175.947 371.458C175.698 371.324 175.412 371.276 175.133 371.32C174.854 371.365 174.597 371.5 174.402 371.705C174.306 371.817 174.243 371.954 174.223 372.1C174.203 372.246 174.226 372.396 174.289 372.529C174.416 372.738 174.613 372.895 174.845 372.972C103.589 359.771 45.8119 347.425 -9.31881e-06 335.614V337.128ZM-9.31881e-06 326.285C83.7876 345.571 199.517 365.012 328.735 386.718C362.098 392.32 396.604 398.117 431.387 404.059C474.242 411.446 517.644 415.197 561.131 415.272C614.422 415.372 667.547 409.318 719.449 397.232C719.642 397.183 719.809 397.061 719.914 396.893C720.02 396.724 720.056 396.521 720.016 396.326C719.969 396.131 719.848 395.963 719.678 395.857C719.509 395.751 719.305 395.716 719.109 395.759C627.568 417.218 530.837 419.505 431.604 402.566C396.82 396.635 362.304 390.837 328.941 385.225C203.244 364.116 84.5187 344.171 0.267714 324.781L-0.0411987 324.709L-9.31881e-06 326.285ZM-9.31881e-06 315.442C54.6262 326.501 122.855 337.828 199.435 350.545C270.546 362.386 351.132 375.773 432.86 390.992C477.6 399.435 523.025 403.723 568.555 403.801C700.853 403.801 803.947 366.227 866.41 329.292V327.541C804.236 364.528 701.141 402.298 568.596 402.298C523.132 402.218 477.773 397.937 433.097 389.509C351.369 374.249 270.763 360.873 199.651 349.062C124.389 336.551 55.4603 325.111 -9.31881e-06 313.846V315.442ZM-9.31881e-06 304.723C35.7928 310.901 77.6094 317.409 124.111 324.596C217.197 339.012 322.712 355.302 434.312 377.935C480.618 387.416 527.755 392.245 575.022 392.351C581.2 392.351 587.378 392.265 593.557 392.094C638.662 390.9 683.506 384.831 727.306 373.991C790.479 358.216 836.455 335.84 866.41 317.615V315.843C836.548 334.09 790.499 356.661 726.935 372.478C683.244 383.29 638.51 389.343 593.516 390.528C540.187 391.882 486.877 387.148 434.621 376.421C322.979 353.768 217.444 337.467 124.338 323.072C78.3405 315.967 36.2458 309.459 -9.31881e-06 303.137V304.723Z" fill="#743C91"/>
<path d="M588.14 290.379C598.746 291.113 609.284 291.48 619.753 291.48C630.221 291.48 640.601 291.113 650.891 290.379H588.14Z" fill="#743C91"/>
<path d="M713.106 290.379C709.186 291.264 705.208 292.102 701.172 292.891C641.449 304.589 578.832 303.724 514.29 290.379H507.082C542.793 298.369 579.266 302.461 615.86 302.581C644.599 302.6 673.273 299.841 701.481 294.343C707.721 293.121 713.813 291.789 719.758 290.348L713.106 290.379Z" fill="#743C91"/>
<path d="M751.895 290.379C680.845 313.475 583.208 324.864 462.66 290.379H457.254C513.888 307.07 565.425 313.691 611.711 313.681C660.978 313.856 709.943 305.985 756.673 290.379H751.895Z" fill="#743C91"/>
<path d="M781.798 290.379C758.074 299.895 733.581 307.37 708.586 312.723C624.726 330.723 535.594 325.801 443.528 298.102C434.562 295.404 425.614 292.829 416.683 290.379H410.948C421.636 293.262 432.352 296.32 443.095 299.553C499.081 316.41 554.005 324.843 607.355 324.843C641.486 324.895 675.527 321.326 708.905 314.196C735.196 308.574 760.929 300.603 785.794 290.379H781.798Z" fill="#743C91"/>
<path d="M807.284 290.379C776.819 304.571 744.893 315.389 712.076 322.639C626.61 341.668 535.728 337.807 442.045 311.158C414.109 303.219 386.368 296.341 359.03 290.379H351.822C381.343 296.67 411.349 304.012 441.582 312.61C496.434 328.21 550.298 336.026 602.711 336.026C639.588 336.079 676.36 332.084 712.365 324.112C746.331 316.611 779.34 305.295 810.764 290.379H807.284Z" fill="#743C91"/>
<path d="M829.948 290.379C793.776 309.399 755.266 323.592 715.402 332.597C628.33 352.604 535.862 349.793 440.552 324.266C425.724 320.292 410.443 316.44 395.131 312.836C394.936 312.793 394.732 312.828 394.562 312.934C394.393 313.04 394.272 313.208 394.225 313.403C394.202 313.5 394.199 313.6 394.215 313.698C394.231 313.796 394.267 313.89 394.319 313.974C394.372 314.059 394.441 314.131 394.522 314.189C394.603 314.246 394.694 314.287 394.791 314.309C410.083 317.913 425.353 321.744 440.161 325.718C493.778 340.134 546.499 347.27 597.871 347.27C637.534 347.335 677.076 342.907 715.742 334.069C764.643 322.835 803.803 306.267 833.129 290.42L829.948 290.379Z" fill="#743C91"/>
<path d="M273.491 290.379C299.626 294.6 326.357 299.471 353.459 305.114C353.236 305.144 353.032 305.255 352.886 305.426C352.74 305.597 352.661 305.816 352.666 306.041C352.693 306.173 352.746 306.299 352.822 306.411C352.897 306.523 352.994 306.619 353.107 306.694C353.22 306.768 353.346 306.82 353.479 306.846C353.612 306.871 353.749 306.871 353.881 306.844L359.359 306.432C359.524 306.425 359.686 306.383 359.833 306.308C359.983 306.26 360.123 306.183 360.245 306.082C360.342 306.004 360.42 305.904 360.47 305.79C360.521 305.676 360.543 305.551 360.535 305.427C360.527 305.302 360.489 305.182 360.424 305.075C360.359 304.969 360.269 304.88 360.162 304.815L356.043 301.87C355.807 301.71 355.524 301.63 355.239 301.643C354.953 301.656 354.679 301.761 354.458 301.942C354.346 302.038 354.263 302.163 354.218 302.303C354.173 302.443 354.167 302.592 354.2 302.735C354.303 303.106 354.664 303.209 354.973 303.446C355.05 303.507 355.113 303.583 355.159 303.67C355.205 303.757 355.233 303.852 355.24 303.95C330.733 298.802 306.525 294.333 282.779 290.379H273.491Z" fill="#743C91"/>
<path d="M850.47 290.379C810.198 314.206 743.575 344.088 652.044 353.788C651.845 353.798 651.658 353.886 651.523 354.034C651.389 354.182 651.319 354.377 651.329 354.576C651.338 354.775 651.427 354.963 651.574 355.097C651.722 355.231 651.917 355.301 652.116 355.292H652.199C745.429 345.417 812.916 314.639 853.106 290.564L853.415 290.379H850.47Z" fill="#743C91"/>
<path d="M171.89 290.379C253.299 300.46 345.201 315.226 438.698 338.775C490.627 351.832 542.39 358.432 592.784 358.432C596.059 358.432 599.344 358.432 602.618 358.34H602.515C602.371 358.34 602.227 358.432 602.083 358.494C601.961 358.523 601.847 358.58 601.751 358.66C601.654 358.74 601.577 358.841 601.526 358.955C601.474 359.069 601.449 359.194 601.453 359.319C601.457 359.445 601.489 359.567 601.547 359.678C601.712 359.907 601.949 360.073 602.22 360.15C602.491 360.227 602.78 360.209 603.04 360.1L608.014 358.226C608.16 358.171 608.293 358.087 608.405 357.979C608.527 357.895 608.627 357.782 608.694 357.65C608.744 357.533 608.767 357.408 608.762 357.281C608.757 357.155 608.723 357.031 608.664 356.92C608.605 356.808 608.521 356.711 608.419 356.636C608.317 356.561 608.2 356.51 608.076 356.486L602.979 354.838C602.716 354.742 602.429 354.737 602.163 354.825C601.897 354.913 601.669 355.088 601.516 355.322C601.451 355.455 601.426 355.604 601.444 355.75C601.462 355.897 601.523 356.034 601.619 356.146C601.866 356.465 602.247 356.465 602.649 356.599C602.761 356.644 602.866 356.707 602.958 356.785C549.495 357.732 494.385 351.183 439.079 337.282C350.03 314.876 262.432 300.418 183.979 290.379H171.89Z" fill="#743C91"/>
<path d="M60.0219 290.379C163.096 302.292 297.566 318.953 437.236 351.801C488.125 363.766 538.23 369.759 587.224 369.749C632.577 369.831 677.779 364.525 721.879 353.943C788.718 337.817 837.011 312.754 866.41 293.993V292.212C837.207 310.963 788.79 336.252 721.519 352.48C631.502 374.197 535.975 373.476 437.586 350.339C303.59 318.819 174.402 302.2 73.0684 290.379H60.0219Z" fill="#743C91"/>
<path d="M0 294.044C22.2624 297.288 46.8107 300.655 73.2331 304.27C175.288 318.253 302.323 335.614 435.774 364.868C483.583 375.495 532.4 380.929 581.375 381.076C629.653 381.163 677.764 375.41 724.66 363.941C789.531 347.981 836.641 324.359 866.399 305.814V304.043C836.805 322.578 789.624 346.426 724.299 362.479C677.521 373.916 629.531 379.651 581.375 379.562C532.511 379.426 483.805 374.012 436.103 363.416C302.55 334.172 175.514 316.78 73.439 302.797C47.1711 299.203 22.5095 295.826 0 292.5V294.044Z" fill="#743C91"/>
<path d="M754.892 386.265C754.938 386.19 754.993 386.121 755.057 386.059C755.355 385.823 755.726 385.72 755.819 385.349C755.851 385.204 755.842 385.053 755.793 384.913C755.744 384.772 755.657 384.649 755.541 384.556C755.318 384.376 755.042 384.274 754.756 384.265C754.47 384.256 754.189 384.34 753.955 384.505L749.929 387.501C749.823 387.566 749.735 387.655 749.672 387.762C749.609 387.869 749.573 387.989 749.566 388.113C749.56 388.237 749.585 388.36 749.637 388.472C749.689 388.585 749.768 388.682 749.867 388.757C749.985 388.864 750.126 388.941 750.279 388.984C750.426 389.057 750.588 389.099 750.752 389.107L756.241 389.447C756.508 389.499 756.785 389.442 757.011 389.289C757.237 389.137 757.393 388.901 757.446 388.634C757.43 388.371 757.314 388.125 757.123 387.945C756.932 387.765 756.679 387.665 756.416 387.666H755.942C755.829 387.676 755.715 387.676 755.602 387.666C796.307 375.536 834.622 359.369 866.41 341.04V339.3C834.489 357.784 795.916 374.104 754.892 386.307" fill="#743C91"/>
<path d="M733.958 402.792C639.152 427.279 534.101 431.717 430.193 415.633C352.192 403.575 286.878 392.887 230.439 382.981C230.342 382.963 230.242 382.965 230.145 382.985C230.048 383.006 229.957 383.046 229.875 383.103C229.794 383.159 229.725 383.231 229.671 383.314C229.618 383.398 229.581 383.491 229.564 383.588C229.531 383.785 229.576 383.986 229.689 384.15C229.803 384.313 229.976 384.426 230.171 384.463C286.61 394.349 351.945 405.058 429.936 417.085C470.57 423.388 511.629 426.565 552.749 426.589C615.356 426.589 676.727 419.103 734.329 404.224C783.858 391.435 829.546 373.487 866.41 352.738V350.854C829.34 371.788 783.003 390.137 733.958 402.782" fill="#743C91"/>
</g>
<g clip-path="url(#clip2_218_2484)">
<path d="M857.338 725.009H860.891C862.754 724.144 864.608 723.269 866.43 722.394V720.726C863.451 722.154 860.42 723.575 857.338 724.989V725.009ZM0.0205815 716.226C6.28123 719.178 12.6895 722.099 19.2453 724.989H23.014L22.5095 724.773C14.7798 721.443 7.27662 718.035 -9.31881e-06 714.548L0.0205815 716.226ZM831.266 724.989H835.24C846.176 720.489 856.607 715.804 866.43 710.985V709.317C855.447 714.733 843.725 719.957 831.266 724.989ZM-9.31881e-06 704.765C7.55121 708.129 15.3187 711.452 23.3024 714.733C31.8558 718.234 40.6221 721.666 49.6012 725.03H53.9466C43.6495 721.248 33.6269 717.359 23.879 713.364C15.6413 710 7.68164 706.591 -9.31881e-06 703.138V704.765ZM802.3 725.009H806.759C827.115 717.706 847.032 709.231 866.41 699.627V697.939C845.62 708.279 824.209 717.32 802.3 725.009V725.009ZM-9.31881e-06 693.356C7.99055 696.72 16.2282 700.036 24.7131 703.303C44.4938 710.903 65.5308 718.172 87.4637 725.009H92.5711C69.1657 717.801 46.6459 710.099 25.2691 701.892C16.5578 698.549 8.13471 695.158 -9.31881e-06 691.719V693.356ZM769.534 725.009H774.683C812.782 713.127 842.984 700.297 866.441 688.156V686.467C842.016 699.112 810.208 712.643 769.565 725.009H769.534ZM-9.31881e-06 682.029C8.39557 685.338 17.1104 688.616 26.1444 691.863C59.888 703.983 96.6693 715.104 135.417 725.009H141.596C100.768 714.712 62.071 703.149 26.6901 690.442C17.4708 687.127 8.58778 683.783 0.0411762 680.413L-9.31881e-06 682.029ZM739.951 722.672C736.972 723.448 733.92 724.227 730.797 725.009H736.975L740.373 724.124C795.401 709.657 836.579 692.429 866.451 676.685V674.863C830.792 693.603 787.009 710.305 739.992 722.672H739.951ZM-9.31881e-06 670.785C8.81432 674.018 18.0028 677.231 27.5654 680.423C77.8874 697.228 135.479 712.344 196.798 725.009H204.305C140.36 712.045 80.266 696.435 28.039 678.992C18.3597 675.758 9.0134 672.48 -9.31881e-06 669.158V670.785ZM738.046 712.488C719.374 717.383 700.334 721.563 680.928 725.03H689.227C705.895 721.859 722.295 718.165 738.427 713.95C785.886 701.532 830.318 684.408 866.41 665.08V663.371C830.308 682.791 785.711 700.018 738.046 712.488V712.488ZM-9.31881e-06 659.602C9.2468 662.746 18.9055 665.873 28.9761 668.983C98.6155 690.514 183.968 709.842 274.861 725.009H284.128C189.92 709.636 101.303 689.763 29.4291 667.541C19.1938 664.384 9.3841 661.202 -9.31881e-06 657.996V659.602ZM736.048 702.294C686.81 714.941 636.415 722.551 585.638 725.009H608.766C651.864 721.654 694.588 714.542 736.45 703.756C784.568 691.235 829.855 673.575 866.43 653.527V651.807C829.845 671.959 784.393 689.721 736.069 702.263L736.048 702.294ZM-9.31881e-06 648.492C9.67242 651.512 19.8048 654.529 30.3971 657.543C121.681 683.502 240.335 707.072 369.172 725.009H380.231C247.254 706.907 124.575 682.791 30.7884 656.091C20.0382 653.036 9.76852 649.975 -0.020604 646.906L-9.31881e-06 648.492ZM-9.31881e-06 637.453C10.0637 640.322 20.6697 643.206 31.8181 646.103C131.01 671.846 268.168 697.259 428.473 719.532C445.299 721.866 462.138 723.691 478.991 725.009H502.53C477.948 723.774 453.331 721.45 428.679 718.038C268.436 695.776 131.34 670.394 32.2403 644.651C20.9615 641.72 10.2285 638.795 0.0411762 635.878L-9.31881e-06 637.453ZM-9.31881e-06 626.476C46.2546 638.4 104.516 650.84 175.298 663.958C175.101 664.088 174.875 664.17 174.639 664.195L174.165 664.267C174.043 664.278 173.925 664.314 173.817 664.373C173.709 664.431 173.614 664.511 173.538 664.607C173.462 664.704 173.406 664.814 173.374 664.933C173.342 665.051 173.335 665.175 173.352 665.296C173.463 665.55 173.661 665.756 173.91 665.877C174.159 665.997 174.443 666.025 174.711 665.956L180.055 664.926C180.36 664.853 180.639 664.696 180.859 664.473C180.937 664.376 180.991 664.261 181.018 664.139C181.044 664.017 181.042 663.891 181.011 663.77C180.98 663.649 180.921 663.537 180.839 663.443C180.757 663.348 180.655 663.274 180.539 663.227L175.947 660.807C175.698 660.673 175.412 660.624 175.133 660.669C174.854 660.714 174.597 660.849 174.402 661.054C174.306 661.166 174.243 661.303 174.223 661.449C174.203 661.595 174.226 661.744 174.289 661.878C174.416 662.087 174.613 662.244 174.845 662.321C103.589 649.12 45.8119 636.774 -9.31881e-06 624.963V626.476ZM-9.31881e-06 615.633C83.7876 634.92 199.517 654.361 328.735 676.067C362.098 681.669 396.604 687.466 431.387 693.408C474.242 700.795 517.644 704.546 561.131 704.621C614.422 704.721 667.547 698.667 719.449 686.581C719.642 686.532 719.809 686.41 719.914 686.241C720.02 686.073 720.056 685.869 720.016 685.675C719.969 685.48 719.848 685.312 719.678 685.206C719.509 685.1 719.305 685.065 719.109 685.108C627.568 706.567 530.837 708.853 431.604 691.915C396.82 685.983 362.304 680.186 328.941 674.574C203.244 653.465 84.5187 633.52 0.267714 614.13L-0.0411987 614.058L-9.31881e-06 615.633ZM-9.31881e-06 604.791C54.6262 615.85 122.855 627.177 199.435 639.894C270.546 651.735 351.132 665.122 432.86 680.341C477.6 688.784 523.025 693.072 568.555 693.15C700.853 693.15 803.947 655.576 866.41 618.64V616.89C804.236 653.877 701.141 691.647 568.596 691.647C523.132 691.567 477.773 687.285 433.097 678.858C351.369 663.598 270.763 650.222 199.651 638.411C124.389 625.9 55.4603 614.46 -9.31881e-06 603.195V604.791ZM-9.31881e-06 594.071C35.7928 600.25 77.6094 606.757 124.111 613.945C217.197 628.361 322.712 644.651 434.312 667.284C480.618 676.765 527.755 681.594 575.022 681.7C581.2 681.7 587.378 681.614 593.557 681.443C638.662 680.249 683.506 674.18 727.306 663.34C790.479 647.565 836.455 625.189 866.41 606.963V605.192C836.548 623.439 790.499 646.01 726.935 661.826C683.244 672.639 638.51 678.692 593.516 679.877C540.187 681.231 486.877 676.497 434.621 665.77C322.979 643.116 217.444 626.816 124.338 612.421C78.3405 605.316 36.2458 598.808 -9.31881e-06 592.486V594.071Z" fill="#743C91"/>
<path d="M588.14 579.728C598.746 580.462 609.284 580.829 619.753 580.829C630.221 580.829 640.601 580.462 650.891 579.728H588.14Z" fill="#743C91"/>
<path d="M713.106 579.728C709.186 580.613 705.208 581.451 701.172 582.24C641.449 593.938 578.832 593.073 514.29 579.728H507.082C542.793 587.718 579.266 591.809 615.86 591.93C644.599 591.949 673.273 589.19 701.481 583.692C707.721 582.47 713.813 581.138 719.758 579.697L713.106 579.728Z" fill="#743C91"/>
<path d="M751.895 579.728C680.845 602.824 583.208 614.213 462.66 579.728H457.254C513.888 596.419 565.425 603.04 611.711 603.03C660.978 603.205 709.943 595.334 756.673 579.728H751.895Z" fill="#743C91"/>
<path d="M781.798 579.728C758.074 589.244 733.581 596.719 708.586 602.072C624.726 620.072 535.594 615.15 443.528 587.45C434.562 584.753 425.614 582.178 416.683 579.728H410.948C421.636 582.611 432.352 585.669 443.095 588.902C499.081 605.759 554.005 614.192 607.355 614.192C641.486 614.244 675.527 610.675 708.905 603.545C735.196 597.923 760.929 589.952 785.794 579.728H781.798Z" fill="#743C91"/>
<path d="M807.284 579.728C776.819 593.92 744.893 604.738 712.076 611.988C626.61 631.017 535.728 627.156 442.045 600.507C414.109 592.568 386.368 585.69 359.03 579.728H351.822C381.343 586.019 411.349 593.361 441.582 601.959C496.434 617.559 550.298 625.374 602.711 625.374C639.588 625.428 676.36 621.433 712.365 613.461C746.331 605.96 779.34 594.644 810.764 579.728H807.284Z" fill="#743C91"/>
<path d="M829.948 579.728C793.776 598.747 755.266 612.941 715.402 621.946C628.33 641.953 535.862 639.142 440.552 613.615C425.724 609.641 410.443 605.789 395.131 602.185C394.936 602.142 394.732 602.177 394.562 602.283C394.393 602.389 394.272 602.557 394.225 602.752C394.202 602.848 394.199 602.949 394.215 603.047C394.231 603.145 394.267 603.239 394.319 603.323C394.372 603.407 394.441 603.48 394.522 603.538C394.603 603.595 394.694 603.636 394.791 603.658C410.083 607.262 425.353 611.092 440.161 615.067C493.778 629.483 546.499 636.619 597.871 636.619C637.534 636.684 677.076 632.256 715.742 623.418C764.643 612.184 803.803 595.616 833.129 579.769L829.948 579.728Z" fill="#743C91"/>
<path d="M273.491 579.728C299.626 583.949 326.357 588.82 353.459 594.463C353.236 594.493 353.032 594.604 352.886 594.775C352.74 594.946 352.661 595.165 352.666 595.389C352.693 595.522 352.746 595.648 352.822 595.76C352.897 595.872 352.994 595.968 353.107 596.043C353.22 596.117 353.346 596.169 353.479 596.195C353.612 596.22 353.749 596.22 353.881 596.193L359.359 595.781C359.524 595.774 359.686 595.732 359.833 595.657C359.983 595.609 360.123 595.532 360.245 595.431C360.342 595.353 360.42 595.253 360.47 595.139C360.521 595.025 360.543 594.9 360.535 594.776C360.527 594.651 360.489 594.531 360.424 594.424C360.359 594.318 360.269 594.228 360.162 594.164L356.043 591.219C355.807 591.059 355.524 590.979 355.239 590.992C354.953 591.005 354.679 591.11 354.458 591.291C354.346 591.387 354.263 591.512 354.218 591.652C354.173 591.791 354.167 591.941 354.2 592.084C354.303 592.455 354.664 592.558 354.973 592.795C355.05 592.856 355.113 592.932 355.159 593.019C355.205 593.106 355.233 593.201 355.24 593.299C330.733 588.151 306.525 583.682 282.779 579.728H273.491Z" fill="#743C91"/>
<path d="M850.47 579.728C810.198 603.555 743.575 633.437 652.044 643.137C651.845 643.147 651.658 643.235 651.523 643.383C651.389 643.531 651.319 643.726 651.329 643.925C651.338 644.124 651.427 644.312 651.574 644.446C651.722 644.58 651.917 644.65 652.116 644.641H652.199C745.429 634.766 812.916 603.987 853.106 579.913L853.415 579.728H850.47Z" fill="#743C91"/>
<path d="M171.89 579.728C253.299 589.808 345.201 604.574 438.698 628.124C490.627 641.181 542.39 647.781 592.784 647.781C596.059 647.781 599.344 647.781 602.618 647.689H602.515C602.371 647.689 602.227 647.781 602.083 647.843C601.961 647.872 601.847 647.929 601.751 648.009C601.654 648.089 601.577 648.19 601.526 648.304C601.474 648.418 601.449 648.543 601.453 648.668C601.457 648.793 601.489 648.916 601.547 649.027C601.712 649.256 601.949 649.422 602.22 649.499C602.491 649.576 602.78 649.558 603.04 649.449L608.014 647.575C608.16 647.52 608.293 647.436 608.405 647.328C608.527 647.244 608.627 647.131 608.694 646.998C608.744 646.882 608.767 646.756 608.762 646.63C608.757 646.504 608.723 646.38 608.664 646.268C608.605 646.157 608.521 646.06 608.419 645.985C608.317 645.91 608.2 645.859 608.076 645.835L602.979 644.187C602.716 644.091 602.429 644.086 602.163 644.174C601.897 644.262 601.669 644.437 601.516 644.671C601.451 644.804 601.426 644.952 601.444 645.099C601.462 645.245 601.523 645.383 601.619 645.495C601.866 645.814 602.247 645.814 602.649 645.948C602.761 645.993 602.866 646.056 602.958 646.134C549.495 647.081 494.385 640.532 439.079 626.631C350.03 604.224 262.432 589.767 183.979 579.728H171.89Z" fill="#743C91"/>
<path d="M60.0219 579.728C163.096 591.641 297.566 608.302 437.236 641.15C488.125 653.115 538.23 659.108 587.224 659.098C632.577 659.18 677.779 653.874 721.879 643.292C788.718 627.166 837.011 602.103 866.41 583.342V581.56C837.207 600.312 788.79 625.601 721.519 641.829C631.502 663.546 535.975 662.825 437.586 639.688C303.59 608.168 174.402 591.549 73.0684 579.728H60.0219Z" fill="#743C91"/>
<path d="M0 583.393C22.2624 586.637 46.8107 590.004 73.2331 593.618C175.288 607.602 302.323 624.963 435.774 654.217C483.583 664.844 532.4 670.278 581.375 670.424C629.653 670.512 677.764 664.759 724.66 653.29C789.531 637.33 836.641 613.708 866.399 595.163V593.392C836.805 611.927 789.624 635.775 724.299 651.828C677.521 663.265 629.531 669 581.375 668.911C532.511 668.774 483.805 663.361 436.103 652.765C302.55 623.521 175.514 606.129 73.439 592.146C47.1711 588.552 22.5095 585.175 0 581.849V583.393Z" fill="#743C91"/>
<path d="M754.892 675.614C754.938 675.539 754.993 675.47 755.057 675.408C755.355 675.171 755.726 675.069 755.819 674.698C755.851 674.553 755.842 674.402 755.793 674.261C755.744 674.121 755.657 673.998 755.541 673.905C755.318 673.725 755.042 673.623 754.756 673.614C754.47 673.605 754.189 673.689 753.955 673.853L749.929 676.85C749.823 676.915 749.735 677.004 749.672 677.111C749.609 677.218 749.573 677.338 749.566 677.462C749.56 677.585 749.585 677.709 749.637 677.821C749.689 677.933 749.768 678.031 749.867 678.106C749.985 678.213 750.126 678.29 750.279 678.333C750.426 678.406 750.588 678.448 750.752 678.456L756.241 678.796C756.508 678.847 756.785 678.791 757.011 678.638C757.237 678.486 757.393 678.25 757.446 677.983C757.43 677.72 757.314 677.474 757.123 677.294C756.932 677.114 756.679 677.014 756.416 677.015H755.942C755.829 677.025 755.715 677.025 755.602 677.015C796.307 664.885 834.622 648.718 866.41 630.389V628.649C834.489 647.132 795.916 663.453 754.892 675.655" fill="#743C91"/>
<path d="M733.958 692.141C639.152 716.628 534.101 721.066 430.193 704.982C352.192 692.924 286.878 682.235 230.439 672.33C230.342 672.312 230.242 672.313 230.145 672.334C230.048 672.355 229.957 672.395 229.875 672.452C229.794 672.508 229.725 672.58 229.671 672.663C229.618 672.747 229.581 672.84 229.564 672.937C229.531 673.134 229.576 673.335 229.689 673.499C229.803 673.662 229.976 673.775 230.171 673.812C286.61 683.698 351.945 694.407 429.936 706.434C470.57 712.737 511.629 715.914 552.749 715.938C615.356 715.938 676.727 708.452 734.329 693.572C783.858 680.783 829.546 662.836 866.41 642.087V640.203C829.34 661.137 783.003 679.486 733.958 692.131" fill="#743C91"/>
</g>
<g clip-path="url(#clip3_218_2484)">
<path d="M857.338 145.19H860.891C862.754 146.054 864.608 146.93 866.43 147.805V149.473C863.451 148.045 860.42 146.624 857.338 145.21V145.19ZM0.0205815 153.973C6.28123 151.021 12.6895 148.1 19.2453 145.21H23.014L22.5095 145.426C14.7798 148.756 7.27662 152.164 -9.31881e-06 155.651L0.0205815 153.973ZM831.266 145.21H835.24C846.176 149.71 856.607 154.395 866.43 159.214V160.882C855.447 155.466 843.725 150.242 831.266 145.21ZM-9.31881e-06 165.434C7.55121 162.07 15.3187 158.747 23.3024 155.466C31.8558 151.965 40.6221 148.533 49.6012 145.169H53.9466C43.6495 148.951 33.6269 152.84 23.879 156.835C15.6413 160.199 7.68164 163.608 -9.31881e-06 167.061V165.434ZM802.3 145.19H806.759C827.115 152.493 847.032 160.968 866.41 170.572V172.26C845.62 161.92 824.209 152.879 802.3 145.19V145.19ZM-9.31881e-06 176.843C7.99055 173.479 16.2282 170.163 24.7131 166.896C44.4938 159.296 65.5308 152.027 87.4637 145.19H92.5711C69.1657 152.398 46.6459 160.1 25.2691 168.307C16.5578 171.65 8.13471 175.041 -9.31881e-06 178.48V176.843ZM769.534 145.19H774.683C812.782 157.072 842.984 169.902 866.441 182.043V183.732C842.016 171.087 810.208 157.556 769.565 145.19H769.534ZM-9.31881e-06 188.17C8.39557 184.861 17.1104 181.583 26.1444 178.336C59.888 166.216 96.6693 155.095 135.417 145.19H141.596C100.768 155.487 62.071 167.05 26.6901 179.757C17.4708 183.072 8.58778 186.416 0.0411762 189.786L-9.31881e-06 188.17ZM739.951 147.527C736.972 146.751 733.92 145.972 730.797 145.19H736.975L740.373 146.075C795.401 160.542 836.579 177.77 866.451 193.514V195.336C830.792 176.596 787.009 159.894 739.992 147.527H739.951ZM-9.31881e-06 199.414C8.81432 196.181 18.0028 192.968 27.5654 189.776C77.8874 172.971 135.479 157.855 196.798 145.19H204.305C140.36 158.154 80.266 173.764 28.039 191.207C18.3597 194.441 9.0134 197.719 -9.31881e-06 201.041V199.414ZM738.046 157.711C719.374 152.816 700.334 148.636 680.928 145.169H689.227C705.895 148.34 722.295 152.034 738.427 156.249C785.886 168.667 830.318 185.791 866.41 205.119V206.828C830.308 187.408 785.711 170.181 738.046 157.711V157.711ZM-9.31881e-06 210.597C9.2468 207.453 18.9055 204.326 28.9761 201.216C98.6155 179.685 183.968 160.357 274.861 145.19H284.128C189.92 160.563 101.303 180.436 29.4291 202.658C19.1938 205.815 9.3841 208.997 -9.31881e-06 212.203V210.597ZM736.048 167.905C686.81 155.258 636.415 147.648 585.638 145.19H608.766C651.864 148.545 694.588 155.657 736.45 166.443C784.568 178.964 829.855 196.624 866.43 216.672V218.392C829.845 198.24 784.393 180.478 736.069 167.936L736.048 167.905ZM-9.31881e-06 221.707C9.67242 218.687 19.8048 215.67 30.3971 212.656C121.681 186.697 240.335 163.127 369.172 145.19H380.231C247.254 163.292 124.575 187.408 30.7884 214.108C20.0382 217.163 9.76852 220.224 -0.020604 223.293L-9.31881e-06 221.707ZM-9.31881e-06 232.746C10.0637 229.876 20.6697 226.993 31.8181 224.096C131.01 198.353 268.168 172.94 428.473 150.667C445.299 148.333 462.138 146.508 478.991 145.19H502.53C477.948 146.425 453.331 148.749 428.679 152.161C268.436 174.423 131.34 199.805 32.2403 225.548C20.9615 228.479 10.2285 231.404 0.0411762 234.321L-9.31881e-06 232.746ZM-9.31881e-06 243.723C46.2546 231.799 104.516 219.359 175.298 206.241C175.101 206.11 174.875 206.029 174.639 206.004L174.165 205.932C174.043 205.921 173.925 205.885 173.817 205.826C173.709 205.768 173.614 205.688 173.538 205.592C173.462 205.495 173.406 205.384 173.374 205.266C173.342 205.148 173.335 205.024 173.352 204.903C173.463 204.649 173.661 204.443 173.91 204.322C174.159 204.201 174.443 204.174 174.711 204.243L180.055 205.273C180.36 205.346 180.639 205.503 180.859 205.726C180.937 205.823 180.991 205.938 181.018 206.06C181.044 206.182 181.042 206.308 181.011 206.429C180.98 206.55 180.921 206.662 180.839 206.756C180.757 206.851 180.655 206.925 180.539 206.972L175.947 209.392C175.698 209.526 175.412 209.575 175.133 209.53C174.854 209.485 174.597 209.35 174.402 209.145C174.306 209.033 174.243 208.896 174.223 208.75C174.203 208.604 174.226 208.454 174.289 208.321C174.416 208.112 174.613 207.955 174.845 207.878C103.589 221.079 45.8119 233.425 -9.31881e-06 245.236V243.723ZM-9.31881e-06 254.565C83.7876 235.279 199.517 215.838 328.735 194.132C362.098 188.53 396.604 182.733 431.387 176.791C474.242 169.404 517.644 165.653 561.131 165.578C614.422 165.478 667.547 171.532 719.449 183.618C719.642 183.667 719.809 183.789 719.914 183.958C720.02 184.126 720.056 184.33 720.016 184.524C719.969 184.719 719.848 184.887 719.678 184.993C719.509 185.099 719.305 185.134 719.109 185.091C627.568 163.632 530.837 161.346 431.604 178.284C396.82 184.215 362.304 190.013 328.941 195.625C203.244 216.734 84.5187 236.679 0.267714 256.069L-0.0411987 256.141L-9.31881e-06 254.565ZM-9.31881e-06 265.408C54.6262 254.349 122.855 243.022 199.435 230.305C270.546 218.464 351.132 205.077 432.86 189.858C477.6 181.415 523.025 177.127 568.555 177.049C700.853 177.049 803.947 214.623 866.41 251.559V253.309C804.236 216.322 701.141 178.552 568.596 178.552C523.132 178.632 477.773 182.914 433.097 191.341C351.369 206.601 270.763 219.977 199.651 231.788C124.389 244.299 55.4603 255.739 -9.31881e-06 267.004V265.408ZM-9.31881e-06 276.128C35.7928 269.949 77.6094 263.441 124.111 256.254C217.197 241.838 322.712 225.548 434.312 202.915C480.618 193.434 527.755 188.605 575.022 188.499C581.2 188.499 587.378 188.585 593.557 188.756C638.662 189.95 683.506 196.019 727.306 206.859C790.479 222.634 836.455 245.01 866.41 263.236V265.007C836.548 246.76 790.499 224.189 726.935 208.373C683.244 197.56 638.51 191.507 593.516 190.322C540.187 188.968 486.877 193.702 434.621 204.429C322.979 227.083 217.444 243.383 124.338 257.778C78.3405 264.883 36.2458 271.391 -9.31881e-06 277.713V276.128Z" fill="#743C91"/>
<path d="M588.14 290.471C598.746 289.737 609.284 289.37 619.753 289.37C630.221 289.37 640.601 289.737 650.891 290.471H588.14Z" fill="#743C91"/>
<path d="M713.106 290.471C709.186 289.586 705.208 288.748 701.172 287.959C641.449 276.261 578.832 277.126 514.29 290.471H507.082C542.793 282.481 579.266 278.39 615.86 278.269C644.599 278.25 673.273 281.009 701.481 286.507C707.721 287.729 713.813 289.061 719.758 290.502L713.106 290.471Z" fill="#743C91"/>
<path d="M751.895 290.471C680.845 267.375 583.208 255.986 462.66 290.471H457.254C513.888 273.78 565.425 267.159 611.711 267.169C660.978 266.994 709.943 274.865 756.673 290.471H751.895Z" fill="#743C91"/>
<path d="M781.798 290.471C758.074 280.955 733.581 273.48 708.586 268.127C624.726 250.127 535.594 255.049 443.528 282.749C434.562 285.446 425.614 288.021 416.683 290.471H410.948C421.636 287.588 432.352 284.53 443.095 281.297C499.081 264.44 554.005 256.007 607.355 256.007C641.486 255.955 675.527 259.524 708.905 266.654C735.196 272.276 760.929 280.247 785.794 290.471H781.798Z" fill="#743C91"/>
<path d="M807.284 290.471C776.819 276.279 744.893 265.461 712.076 258.211C626.61 239.182 535.728 243.043 442.045 269.692C414.109 277.631 386.368 284.509 359.03 290.471H351.822C381.343 284.18 411.349 276.838 441.582 268.24C496.434 252.64 550.298 244.824 602.711 244.824C639.588 244.771 676.36 248.766 712.365 256.738C746.331 264.239 779.34 275.555 810.764 290.471H807.284Z" fill="#743C91"/>
<path d="M829.948 290.471C793.776 271.452 755.266 257.258 715.402 248.253C628.33 228.246 535.862 231.057 440.552 256.584C425.724 260.558 410.443 264.41 395.131 268.014C394.936 268.057 394.732 268.022 394.562 267.916C394.393 267.81 394.272 267.642 394.225 267.447C394.202 267.351 394.199 267.25 394.215 267.152C394.231 267.054 394.267 266.96 394.319 266.876C394.372 266.792 394.441 266.719 394.522 266.661C394.603 266.604 394.694 266.563 394.791 266.541C410.083 262.937 425.353 259.107 440.161 255.132C493.778 240.716 546.499 233.58 597.871 233.58C637.534 233.515 677.076 237.943 715.742 246.781C764.643 258.015 803.803 274.583 833.129 290.43L829.948 290.471Z" fill="#743C91"/>
<path d="M273.491 290.471C299.626 286.25 326.357 281.379 353.459 275.736C353.236 275.706 353.032 275.595 352.886 275.424C352.74 275.253 352.661 275.034 352.666 274.81C352.693 274.677 352.746 274.551 352.822 274.439C352.897 274.327 352.994 274.231 353.107 274.156C353.22 274.082 353.346 274.03 353.479 274.004C353.612 273.979 353.749 273.979 353.881 274.006L359.359 274.418C359.524 274.425 359.686 274.467 359.833 274.542C359.983 274.59 360.123 274.667 360.245 274.768C360.342 274.846 360.42 274.946 360.47 275.06C360.521 275.174 360.543 275.299 360.535 275.423C360.527 275.548 360.489 275.668 360.424 275.775C360.359 275.881 360.269 275.971 360.162 276.035L356.043 278.98C355.807 279.14 355.524 279.22 355.239 279.207C354.953 279.194 354.679 279.089 354.458 278.908C354.346 278.812 354.263 278.687 354.218 278.547C354.173 278.407 354.167 278.258 354.2 278.115C354.303 277.744 354.664 277.641 354.973 277.404C355.05 277.343 355.113 277.267 355.159 277.18C355.205 277.093 355.233 276.998 355.24 276.9C330.733 282.048 306.525 286.517 282.779 290.471H273.491Z" fill="#743C91"/>
<path d="M850.47 290.471C810.198 266.644 743.575 236.762 652.044 227.062C651.845 227.052 651.658 226.964 651.523 226.816C651.389 226.668 651.319 226.473 651.329 226.274C651.338 226.075 651.427 225.887 651.574 225.753C651.722 225.619 651.917 225.549 652.116 225.558H652.199C745.429 235.433 812.916 266.211 853.106 290.286L853.415 290.471H850.47Z" fill="#743C91"/>
<path d="M171.89 290.471C253.299 280.391 345.201 265.624 438.698 242.075C490.627 229.018 542.39 222.418 592.784 222.418C596.059 222.418 599.344 222.418 602.618 222.51H602.515C602.371 222.51 602.227 222.418 602.083 222.356C601.961 222.327 601.847 222.27 601.751 222.19C601.654 222.11 601.577 222.009 601.526 221.895C601.474 221.781 601.449 221.656 601.453 221.531C601.457 221.406 601.489 221.283 601.547 221.172C601.712 220.943 601.949 220.777 602.22 220.7C602.491 220.623 602.78 220.641 603.04 220.75L608.014 222.624C608.16 222.679 608.293 222.763 608.405 222.871C608.527 222.955 608.627 223.068 608.694 223.201C608.744 223.317 608.767 223.442 608.762 223.569C608.757 223.695 608.723 223.819 608.664 223.931C608.605 224.042 608.521 224.139 608.419 224.214C608.317 224.289 608.2 224.34 608.076 224.364L602.979 226.012C602.716 226.108 602.429 226.113 602.163 226.025C601.897 225.937 601.669 225.762 601.516 225.528C601.451 225.395 601.426 225.247 601.444 225.1C601.462 224.954 601.523 224.816 601.619 224.704C601.866 224.385 602.247 224.385 602.649 224.251C602.761 224.206 602.866 224.143 602.958 224.065C549.495 223.118 494.385 229.667 439.079 243.568C350.03 265.975 262.432 280.432 183.979 290.471H171.89Z" fill="#743C91"/>
<path d="M60.0219 290.471C163.096 278.558 297.566 261.897 437.236 229.049C488.125 217.084 538.23 211.091 587.224 211.101C632.577 211.019 677.779 216.325 721.879 226.907C788.718 243.033 837.011 268.096 866.41 286.857V288.639C837.207 269.887 788.79 244.598 721.519 228.37C631.502 206.653 535.975 207.374 437.586 230.511C303.59 262.031 174.402 278.65 73.0684 290.471H60.0219Z" fill="#743C91"/>
<path d="M0 286.806C22.2624 283.562 46.8107 280.195 73.2331 276.581C175.288 262.597 302.323 245.236 435.774 215.982C483.583 205.355 532.4 199.921 581.375 199.775C629.653 199.687 677.764 205.44 724.66 216.909C789.531 232.869 836.641 256.491 866.399 275.036V276.807C836.805 258.272 789.624 234.424 724.299 218.371C677.521 206.934 629.531 201.199 581.375 201.288C532.511 201.425 483.805 206.838 436.103 217.434C302.55 246.678 175.514 264.07 73.439 278.053C47.1711 281.647 22.5095 285.024 0 288.35V286.806Z" fill="#743C91"/>
<path d="M754.892 194.585C754.938 194.66 754.993 194.729 755.057 194.791C755.355 195.028 755.726 195.13 755.819 195.501C755.851 195.646 755.842 195.797 755.793 195.938C755.744 196.078 755.657 196.201 755.541 196.294C755.318 196.474 755.042 196.576 754.756 196.585C754.47 196.594 754.189 196.51 753.955 196.346L749.929 193.349C749.823 193.284 749.735 193.195 749.672 193.088C749.609 192.981 749.573 192.861 749.566 192.737C749.56 192.614 749.585 192.49 749.637 192.378C749.689 192.266 749.768 192.168 749.867 192.093C749.985 191.986 750.126 191.909 750.279 191.866C750.426 191.793 750.588 191.751 750.752 191.743L756.241 191.403C756.508 191.352 756.785 191.408 757.011 191.561C757.237 191.713 757.393 191.949 757.446 192.216C757.43 192.479 757.314 192.725 757.123 192.905C756.932 193.085 756.679 193.185 756.416 193.184H755.942C755.829 193.174 755.715 193.174 755.602 193.184C796.307 205.314 834.622 221.481 866.41 239.81V241.55C834.489 223.066 795.916 206.746 754.892 194.544" fill="#743C91"/>
<path d="M733.958 178.058C639.152 153.571 534.101 149.133 430.193 165.217C352.192 177.275 286.878 187.964 230.439 197.869C230.342 197.887 230.242 197.886 230.145 197.865C230.048 197.844 229.957 197.804 229.875 197.747C229.794 197.691 229.725 197.619 229.671 197.536C229.618 197.452 229.581 197.359 229.564 197.262C229.531 197.065 229.576 196.864 229.689 196.7C229.803 196.537 229.976 196.424 230.171 196.387C286.61 186.501 351.945 175.792 429.936 163.765C470.57 157.462 511.629 154.285 552.749 154.261C615.356 154.261 676.727 161.747 734.329 176.627C783.858 189.416 829.546 207.363 866.41 228.112V229.996C829.34 209.062 783.003 190.713 733.958 178.068" fill="#743C91"/>
</g>
<g clip-path="url(#clip4_218_2484)">
<path d="M857.338 435.568H860.891C862.754 436.433 864.608 437.308 866.43 438.183V439.852C863.451 438.424 860.42 437.003 857.338 435.589V435.568ZM0.0205815 444.352C6.28123 441.4 12.6895 438.479 19.2453 435.589H23.014L22.5095 435.805C14.7798 439.134 7.27662 442.543 -9.31881e-06 446.03L0.0205815 444.352ZM831.266 435.589H835.24C846.176 440.089 856.607 444.774 866.43 449.593V451.261C855.447 445.845 843.725 440.621 831.266 435.589ZM-9.31881e-06 455.812C7.55121 452.449 15.3187 449.126 23.3024 445.845C31.8558 442.344 40.6221 438.911 49.6012 435.548H53.9466C43.6495 439.33 33.6269 443.219 23.879 447.214C15.6413 450.578 7.68164 453.986 -9.31881e-06 457.439V455.812ZM802.3 435.568H806.759C827.115 442.871 847.032 451.346 866.41 460.95V462.639C845.62 452.298 824.209 443.257 802.3 435.568V435.568ZM-9.31881e-06 467.222C7.99055 463.858 16.2282 460.542 24.7131 457.274C44.4938 449.675 65.5308 442.405 87.4637 435.568H92.5711C69.1657 442.776 46.6459 450.478 25.2691 458.685C16.5578 462.028 8.13471 465.419 -9.31881e-06 468.859V467.222ZM769.534 435.568H774.683C812.782 447.451 842.984 460.281 866.441 472.421V474.11C842.016 461.465 810.208 447.935 769.565 435.568H769.534ZM-9.31881e-06 478.548C8.39557 475.24 17.1104 471.962 26.1444 468.715C59.888 456.595 96.6693 445.474 135.417 435.568H141.596C100.768 445.865 62.071 457.429 26.6901 470.135C17.4708 473.451 8.58778 476.794 0.0411762 480.165L-9.31881e-06 478.548ZM739.951 437.906C736.972 437.13 733.92 436.351 730.797 435.568H736.975L740.373 436.454C795.401 450.921 836.579 468.148 866.451 483.892V485.715C830.792 466.974 787.009 450.272 739.992 437.906H739.951ZM-9.31881e-06 489.793C8.81432 486.559 18.0028 483.347 27.5654 480.155C77.8874 463.35 135.479 448.234 196.798 435.568H204.305C140.36 448.532 80.266 464.143 28.039 481.586C18.3597 484.819 9.0134 488.097 -9.31881e-06 491.42V489.793ZM738.046 448.089C719.374 443.195 700.334 439.014 680.928 435.548H689.227C705.895 438.719 722.295 442.412 738.427 446.627C785.886 459.046 830.318 476.17 866.41 495.497V497.207C830.308 477.786 785.711 460.559 738.046 448.089V448.089ZM-9.31881e-06 500.976C9.2468 497.831 18.9055 494.704 28.9761 491.595C98.6155 470.063 183.968 450.736 274.861 435.568H284.128C189.92 450.942 101.303 470.815 29.4291 493.036C19.1938 496.194 9.3841 499.376 -9.31881e-06 502.582V500.976ZM736.048 458.283C686.81 445.637 636.415 438.026 585.638 435.568H608.766C651.864 438.924 694.588 446.035 736.45 456.821C784.568 469.343 829.855 487.002 866.43 507.051V508.77C829.845 488.619 784.393 470.856 736.069 458.314L736.048 458.283ZM-9.31881e-06 512.086C9.67242 509.065 19.8048 506.049 30.3971 503.035C121.681 477.076 240.335 453.506 369.172 435.568H380.231C247.254 453.671 124.575 477.786 30.7884 504.487C20.0382 507.542 9.76852 510.603 -0.020604 513.672L-9.31881e-06 512.086ZM-9.31881e-06 523.125C10.0637 520.255 20.6697 517.372 31.8181 514.475C131.01 488.732 268.168 463.319 428.473 441.046C445.299 438.712 462.138 436.886 478.991 435.568H502.53C477.948 436.804 453.331 439.128 428.679 442.539C268.436 464.802 131.34 490.184 32.2403 515.927C20.9615 518.858 10.2285 521.782 0.0411762 524.7L-9.31881e-06 523.125ZM-9.31881e-06 534.101C46.2546 522.177 104.516 509.738 175.298 496.62C175.101 496.489 174.875 496.408 174.639 496.383L174.165 496.311C174.043 496.3 173.925 496.263 173.817 496.205C173.709 496.146 173.614 496.067 173.538 495.97C173.462 495.874 173.406 495.763 173.374 495.645C173.342 495.526 173.335 495.403 173.352 495.281C173.463 495.028 173.661 494.822 173.91 494.701C174.159 494.58 174.443 494.552 174.711 494.622L180.055 495.652C180.36 495.724 180.639 495.881 180.859 496.105C180.937 496.202 180.991 496.316 181.018 496.438C181.044 496.56 181.042 496.687 181.011 496.808C180.98 496.929 180.921 497.041 180.839 497.135C180.757 497.229 180.655 497.303 180.539 497.351L175.947 499.771C175.698 499.905 175.412 499.953 175.133 499.909C174.854 499.864 174.597 499.729 174.402 499.523C174.306 499.412 174.243 499.275 174.223 499.129C174.203 498.982 174.226 498.833 174.289 498.7C174.416 498.491 174.613 498.334 174.845 498.257C103.589 511.458 45.8119 523.804 -9.31881e-06 535.615V534.101ZM-9.31881e-06 544.944C83.7876 525.658 199.517 506.217 328.735 484.51C362.098 478.909 396.604 473.111 431.387 467.17C474.242 459.783 517.644 456.031 561.131 455.956C614.422 455.857 667.547 461.91 719.449 473.997C719.642 474.046 719.809 474.167 719.914 474.336C720.02 474.505 720.056 474.708 720.016 474.903C719.969 475.098 719.848 475.266 719.678 475.372C719.509 475.478 719.305 475.513 719.109 475.47C627.568 454.01 530.837 451.724 431.604 468.663C396.82 474.594 362.304 480.392 328.941 486.003C203.244 507.113 84.5187 527.058 0.267714 546.447L-0.0411987 546.52L-9.31881e-06 544.944ZM-9.31881e-06 555.787C54.6262 544.728 122.855 533.401 199.435 520.684C270.546 508.842 351.132 495.456 432.86 480.237C477.6 471.794 523.025 467.506 568.555 467.427C700.853 467.427 803.947 505.001 866.41 541.937V543.688C804.236 506.701 701.141 468.931 568.596 468.931C523.132 469.011 477.773 473.292 433.097 481.72C351.369 496.98 270.763 510.356 199.651 522.167C124.389 534.678 55.4603 546.118 -9.31881e-06 557.383V555.787ZM-9.31881e-06 566.506C35.7928 560.328 77.6094 553.82 124.111 546.633C217.197 532.217 322.712 515.927 434.312 493.294C480.618 483.813 527.755 478.983 575.022 478.878C581.2 478.878 587.378 478.963 593.557 479.135C638.662 480.329 683.506 486.398 727.306 497.238C790.479 513.013 836.455 535.388 866.41 553.614V555.385C836.548 537.139 790.499 514.568 726.935 498.751C683.244 487.938 638.51 481.886 593.516 480.7C540.187 479.347 486.877 484.08 434.621 494.808C322.979 517.461 217.444 533.761 124.338 548.157C78.3405 555.262 36.2458 561.77 -9.31881e-06 568.092V566.506Z" fill="#743C91"/>
<path d="M588.14 580.85C598.746 580.116 609.284 579.748 619.753 579.748C630.221 579.748 640.601 580.116 650.891 580.85H588.14Z" fill="#743C91"/>
<path d="M713.106 580.85C709.186 579.964 705.208 579.127 701.172 578.338C641.449 566.64 578.832 567.505 514.29 580.85H507.082C542.793 572.859 579.266 568.768 615.86 568.648C644.599 568.629 673.273 571.387 701.481 576.886C707.721 578.108 713.813 579.439 719.758 580.881L713.106 580.85Z" fill="#743C91"/>
<path d="M751.895 580.85C680.845 557.754 583.208 546.365 462.66 580.85H457.254C513.888 564.158 565.425 557.538 611.711 557.548C660.978 557.373 709.943 565.244 756.673 580.85H751.895Z" fill="#743C91"/>
<path d="M781.798 580.85C758.074 571.334 733.581 563.858 708.586 558.505C624.726 540.506 535.594 545.428 443.528 573.127C434.562 575.825 425.614 578.399 416.683 580.85H410.948C421.636 577.967 432.352 574.909 443.095 571.675C499.081 554.819 554.005 546.386 607.355 546.386C641.486 546.333 675.527 549.902 708.905 557.033C735.196 562.654 760.929 570.625 785.794 580.85H781.798Z" fill="#743C91"/>
<path d="M807.284 580.85C776.819 566.658 744.893 555.84 712.076 548.589C626.61 529.56 535.728 533.422 442.045 560.071C414.109 568.01 386.368 574.888 359.03 580.85H351.822C381.343 574.559 411.349 567.217 441.582 558.619C496.434 543.019 550.298 535.203 602.711 535.203C639.588 535.15 676.36 539.145 712.365 547.117C746.331 554.618 779.34 565.934 810.764 580.85H807.284Z" fill="#743C91"/>
<path d="M829.948 580.85C793.776 561.83 755.266 547.636 715.402 538.632C628.33 518.625 535.862 521.436 440.552 546.962C425.724 550.937 410.443 554.788 395.131 558.392C394.936 558.436 394.732 558.4 394.562 558.294C394.393 558.189 394.272 558.02 394.225 557.826C394.202 557.729 394.199 557.629 394.215 557.531C394.231 557.433 394.267 557.339 394.319 557.254C394.372 557.17 394.441 557.097 394.522 557.04C394.603 556.982 394.694 556.941 394.791 556.92C410.083 553.316 425.353 549.485 440.161 545.511C493.778 531.095 546.499 523.959 597.871 523.959C637.534 523.894 677.076 528.322 715.742 537.159C764.643 548.394 803.803 564.962 833.129 580.809L829.948 580.85Z" fill="#743C91"/>
<path d="M273.491 580.85C299.626 576.628 326.357 571.758 353.459 566.115C353.236 566.085 353.032 565.974 352.886 565.803C352.74 565.632 352.661 565.413 352.666 565.188C352.693 565.056 352.746 564.93 352.822 564.818C352.897 564.706 352.994 564.609 353.107 564.535C353.22 564.46 353.346 564.409 353.479 564.383C353.612 564.357 353.749 564.358 353.881 564.385L359.359 564.797C359.524 564.804 359.686 564.846 359.833 564.92C359.983 564.969 360.123 565.046 360.245 565.147C360.342 565.225 360.42 565.325 360.47 565.439C360.521 565.553 360.543 565.677 360.535 565.802C360.527 565.926 360.489 566.047 360.424 566.154C360.359 566.26 360.269 566.349 360.162 566.414L356.043 569.359C355.807 569.519 355.524 569.598 355.239 569.585C354.953 569.572 354.679 569.468 354.458 569.286C354.346 569.191 354.263 569.066 354.218 568.926C354.173 568.786 354.167 568.637 354.2 568.494C354.303 568.123 354.664 568.02 354.973 567.783C355.05 567.722 355.113 567.646 355.159 567.559C355.205 567.472 355.233 567.377 355.24 567.279C330.733 572.427 306.525 576.896 282.779 580.85H273.491Z" fill="#743C91"/>
<path d="M850.47 580.85C810.198 557.023 743.575 527.141 652.044 517.441C651.845 517.431 651.658 517.342 651.523 517.195C651.389 517.047 651.319 516.852 651.329 516.653C651.338 516.453 651.427 516.266 651.574 516.132C651.722 515.998 651.917 515.927 652.116 515.937H652.199C745.429 525.812 812.916 556.59 853.106 580.665L853.415 580.85H850.47Z" fill="#743C91"/>
<path d="M171.89 580.85C253.299 570.769 345.201 556.003 438.698 532.454C490.627 519.397 542.39 512.797 592.784 512.797C596.059 512.797 599.344 512.796 602.618 512.889H602.515C602.371 512.889 602.227 512.797 602.083 512.735C601.961 512.705 601.847 512.649 601.751 512.569C601.654 512.489 601.577 512.388 601.526 512.273C601.474 512.159 601.449 512.035 601.453 511.909C601.457 511.784 601.489 511.661 601.547 511.55C601.712 511.322 601.949 511.155 602.22 511.079C602.491 511.002 602.78 511.02 603.04 511.128L608.014 513.003C608.16 513.058 608.293 513.142 608.405 513.25C608.527 513.334 608.627 513.447 608.694 513.579C608.744 513.695 608.767 513.821 608.762 513.948C608.757 514.074 608.723 514.198 608.664 514.309C608.605 514.421 608.521 514.518 608.419 514.593C608.317 514.668 608.2 514.719 608.076 514.743L602.979 516.39C602.716 516.487 602.429 516.492 602.163 516.404C601.897 516.316 601.669 516.141 601.516 515.906C601.451 515.774 601.426 515.625 601.444 515.479C601.462 515.332 601.523 515.195 601.619 515.083C601.866 514.763 602.247 514.763 602.649 514.63C602.761 514.585 602.866 514.522 602.958 514.444C549.495 513.497 494.385 520.046 439.079 533.947C350.03 556.353 262.432 570.81 183.979 580.85H171.89Z" fill="#743C91"/>
<path d="M60.0219 580.85C163.096 568.936 297.566 552.276 437.236 519.428C488.125 507.463 538.23 501.47 587.224 501.48C632.577 501.398 677.779 506.704 721.879 517.286C788.718 533.411 837.011 558.474 866.41 577.236V579.017C837.207 560.266 788.79 534.977 721.519 518.748C631.502 497.032 535.975 497.752 437.586 520.89C303.59 552.409 174.402 569.029 73.0684 580.85H60.0219Z" fill="#743C91"/>
<path d="M0 577.184C22.2624 573.941 46.8107 570.574 73.2331 566.959C175.288 552.976 302.323 535.615 435.774 506.361C483.583 495.734 532.4 490.3 581.375 490.153C629.653 490.066 677.764 495.819 724.66 507.287C789.531 523.248 836.641 546.87 866.399 565.415V567.186C836.805 548.651 789.624 524.803 724.299 508.75C677.521 497.313 629.531 491.577 581.375 491.667C532.511 491.803 483.805 497.216 436.103 507.813C302.55 537.056 175.514 554.448 73.439 568.432C47.1711 572.026 22.5095 575.403 0 578.729V577.184Z" fill="#743C91"/>
<path d="M754.892 484.963C754.938 485.039 754.993 485.108 755.057 485.169C755.355 485.406 755.726 485.509 755.819 485.88C755.851 486.025 755.842 486.176 755.793 486.316C755.744 486.456 755.657 486.58 755.541 486.673C755.318 486.852 755.042 486.955 754.756 486.964C754.47 486.973 754.189 486.889 753.955 486.724L749.929 483.728C749.823 483.663 749.735 483.573 749.672 483.467C749.609 483.36 749.573 483.24 749.566 483.116C749.56 482.992 749.585 482.869 749.637 482.756C749.689 482.644 749.768 482.546 749.867 482.471C749.985 482.365 750.126 482.288 750.279 482.245C750.426 482.171 750.588 482.129 750.752 482.121L756.241 481.782C756.508 481.73 756.785 481.787 757.011 481.939C757.237 482.092 757.393 482.328 757.446 482.595C757.43 482.857 757.314 483.104 757.123 483.284C756.932 483.464 756.679 483.563 756.416 483.563H755.942C755.829 483.553 755.715 483.553 755.602 483.563C796.307 495.693 834.622 511.859 866.41 530.188V531.928C834.489 513.445 795.916 497.124 754.892 484.922" fill="#743C91"/>
<path d="M733.958 468.436C639.152 443.95 534.101 439.512 430.193 455.596C352.192 467.654 286.878 478.342 230.439 488.248C230.342 488.266 230.242 488.264 230.145 488.243C230.048 488.222 229.957 488.183 229.875 488.126C229.794 488.07 229.725 487.998 229.671 487.914C229.618 487.831 229.581 487.738 229.564 487.64C229.531 487.444 229.576 487.243 229.689 487.079C229.803 486.915 229.976 486.803 230.171 486.765C286.61 476.88 351.945 466.171 429.936 454.144C470.57 447.841 511.629 444.663 552.749 444.64C615.356 444.64 676.727 452.126 734.329 467.005C783.858 479.794 829.546 497.742 866.41 518.491V520.375C829.34 499.441 783.003 481.092 733.958 468.447" fill="#743C91"/>
</g>
<g clip-path="url(#clip5_218_2484)">
<path d="M857.338 724.917H860.891C862.754 725.782 864.608 726.657 866.43 727.532V729.201C863.451 727.773 860.42 726.352 857.338 724.938V724.917ZM0.0205815 733.701C6.28123 730.749 12.6895 727.828 19.2453 724.938H23.014L22.5095 725.154C14.7798 728.483 7.27662 731.892 -9.31881e-06 735.379L0.0205815 733.701ZM831.266 724.938H835.24C846.176 729.438 856.607 734.123 866.43 738.942V740.61C855.447 735.194 843.725 729.97 831.266 724.938ZM-9.31881e-06 745.161C7.55121 741.797 15.3187 738.475 23.3024 735.194C31.8558 731.693 40.6221 728.26 49.6012 724.896H53.9466C43.6495 728.679 33.6269 732.568 23.879 736.563C15.6413 739.927 7.68164 743.335 -9.31881e-06 746.788V745.161ZM802.3 724.917H806.759C827.115 732.22 847.032 740.695 866.41 750.299V751.988C845.62 741.647 824.209 732.606 802.3 724.917V724.917ZM-9.31881e-06 756.57C7.99055 753.207 16.2282 749.891 24.7131 746.623C44.4938 739.024 65.5308 731.754 87.4637 724.917H92.5711C69.1657 732.125 46.6459 739.827 25.2691 748.034C16.5578 751.377 8.13471 754.768 -9.31881e-06 758.207V756.57ZM769.534 724.917H774.683C812.782 736.8 842.984 749.63 866.441 761.77V763.459C842.016 750.814 810.208 737.284 769.565 724.917H769.534ZM-9.31881e-06 767.897C8.39557 764.588 17.1104 761.31 26.1444 758.063C59.888 745.944 96.6693 734.823 135.417 724.917H141.596C100.768 735.214 62.071 746.778 26.6901 759.484C17.4708 762.8 8.58778 766.143 0.0411762 769.514L-9.31881e-06 767.897ZM739.951 727.255C736.972 726.479 733.92 725.7 730.797 724.917H736.975L740.373 725.802C795.401 740.27 836.579 757.497 866.451 773.241V775.064C830.792 756.323 787.009 739.621 739.992 727.255H739.951ZM-9.31881e-06 779.142C8.81432 775.908 18.0028 772.695 27.5654 769.503C77.8874 752.698 135.479 737.583 196.798 724.917H204.305C140.36 737.881 80.266 753.492 28.039 770.935C18.3597 774.168 9.0134 777.446 -9.31881e-06 780.769V779.142ZM738.046 737.438C719.374 732.544 700.334 728.363 680.928 724.896H689.227C705.895 728.068 722.295 731.761 738.427 735.976C785.886 748.394 830.318 765.519 866.41 784.846V786.555C830.308 767.135 785.711 749.908 738.046 737.438V737.438ZM-9.31881e-06 790.324C9.2468 787.18 18.9055 784.053 28.9761 780.944C98.6155 759.412 183.968 740.085 274.861 724.917H284.128C189.92 740.291 101.303 760.164 29.4291 782.385C19.1938 785.543 9.3841 788.725 -9.31881e-06 791.931V790.324ZM736.048 747.632C686.81 734.986 636.415 727.375 585.638 724.917H608.766C651.864 728.273 694.588 735.384 736.45 746.17C784.568 758.692 829.855 776.351 866.43 796.4V798.119C829.845 777.968 784.393 760.205 736.069 747.663L736.048 747.632ZM-9.31881e-06 801.435C9.67242 798.414 19.8048 795.397 30.3971 792.384C121.681 766.425 240.335 742.855 369.172 724.917H380.231C247.254 743.019 124.575 767.135 30.7884 793.836C20.0382 796.89 9.76852 799.952 -0.020604 803.021L-9.31881e-06 801.435ZM-9.31881e-06 812.473C10.0637 809.604 20.6697 806.721 31.8181 803.824C131.01 778.081 268.168 752.668 428.473 730.395C445.299 728.061 462.138 726.235 478.991 724.917H502.53C477.948 726.153 453.331 728.476 428.679 731.888C268.436 754.151 131.34 779.533 32.2403 805.276C20.9615 808.207 10.2285 811.131 0.0411762 814.049L-9.31881e-06 812.473ZM-9.31881e-06 823.45C46.2546 811.526 104.516 799.087 175.298 785.968C175.101 785.838 174.875 785.757 174.639 785.732L174.165 785.66C174.043 785.648 173.925 785.612 173.817 785.554C173.709 785.495 173.614 785.415 173.538 785.319C173.462 785.223 173.406 785.112 173.374 784.994C173.342 784.875 173.335 784.752 173.352 784.63C173.463 784.376 173.661 784.171 173.91 784.05C174.159 783.929 174.443 783.901 174.711 783.971L180.055 785.001C180.36 785.073 180.639 785.23 180.859 785.454C180.937 785.551 180.991 785.665 181.018 785.787C181.044 785.909 181.042 786.036 181.011 786.157C180.98 786.277 180.921 786.39 180.839 786.484C180.757 786.578 180.655 786.652 180.539 786.7L175.947 789.119C175.698 789.254 175.412 789.302 175.133 789.257C174.854 789.213 174.597 789.077 174.402 788.872C174.306 788.761 174.243 788.624 174.223 788.477C174.203 788.331 174.226 788.182 174.289 788.049C174.416 787.84 174.613 787.683 174.845 787.606C103.589 800.807 45.8119 813.153 -9.31881e-06 824.964V823.45ZM-9.31881e-06 834.293C83.7876 815.007 199.517 795.566 328.735 773.859C362.098 768.258 396.604 762.46 431.387 756.519C474.242 749.132 517.644 745.38 561.131 745.305C614.422 745.206 667.547 751.259 719.449 763.346C719.642 763.395 719.809 763.516 719.914 763.685C720.02 763.854 720.056 764.057 720.016 764.252C719.969 764.446 719.848 764.615 719.678 764.721C719.509 764.827 719.305 764.862 719.109 764.818C627.568 743.359 530.837 741.073 431.604 758.012C396.82 763.943 362.304 769.74 328.941 775.352C203.244 796.461 84.5187 816.407 0.267714 835.796L-0.0411987 835.869L-9.31881e-06 834.293ZM-9.31881e-06 845.136C54.6262 834.077 122.855 822.75 199.435 810.033C270.546 798.191 351.132 784.805 432.86 769.586C477.6 761.143 523.025 756.855 568.555 756.776C700.853 756.776 803.947 794.35 866.41 831.286V833.037C804.236 796.05 701.141 758.28 568.596 758.28C523.132 758.36 477.773 762.641 433.097 771.069C351.369 786.329 270.763 799.705 199.651 811.516C124.389 824.027 55.4603 835.467 -9.31881e-06 846.732V845.136ZM-9.31881e-06 855.855C35.7928 849.677 77.6094 843.169 124.111 835.982C217.197 821.566 322.712 805.276 434.312 782.643C480.618 773.162 527.755 768.332 575.022 768.227C581.2 768.227 587.378 768.312 593.557 768.484C638.662 769.677 683.506 775.747 727.306 786.586C790.479 802.362 836.455 824.737 866.41 842.963V844.734C836.548 826.488 790.499 803.916 726.935 788.1C683.244 777.287 638.51 771.235 593.516 770.049C540.187 768.696 486.877 773.429 434.621 784.156C322.979 806.81 217.444 823.11 124.338 837.506C78.3405 844.611 36.2458 851.118 -9.31881e-06 857.441V855.855Z" fill="#743C91"/>
<path d="M588.14 870.199C598.746 869.464 609.284 869.097 619.753 869.097C630.221 869.097 640.601 869.464 650.891 870.199H588.14Z" fill="#743C91"/>
<path d="M713.106 870.199C709.186 869.313 705.208 868.476 701.172 867.686C641.449 855.989 578.832 856.854 514.29 870.199H507.082C542.793 862.208 579.266 858.117 615.86 857.997C644.599 857.978 673.273 860.736 701.481 866.235C707.721 867.457 713.813 868.788 719.758 870.23L713.106 870.199Z" fill="#743C91"/>
<path d="M751.895 870.199C680.845 847.103 583.208 835.714 462.66 870.199H457.254C513.888 853.507 565.425 846.886 611.711 846.897C660.978 846.722 709.943 854.592 756.673 870.199H751.895Z" fill="#743C91"/>
<path d="M781.798 870.199C758.074 860.683 733.581 853.207 708.586 847.854C624.726 829.855 535.594 834.777 443.528 862.476C434.562 865.174 425.614 867.748 416.683 870.199H410.948C421.636 867.316 432.352 864.258 443.095 861.024C499.081 844.168 554.005 835.735 607.355 835.735C641.486 835.682 675.527 839.251 708.905 846.382C735.196 852.003 760.929 859.974 785.794 870.199H781.798Z" fill="#743C91"/>
<path d="M807.284 870.199C776.819 856.007 744.893 845.189 712.076 837.938C626.61 818.909 535.728 822.771 442.045 849.419C414.109 857.359 386.368 864.237 359.03 870.199H351.822C381.343 863.907 411.349 856.566 441.582 847.968C496.434 832.368 550.298 824.552 602.711 824.552C639.588 824.498 676.36 828.493 712.365 836.466C746.331 843.966 779.34 855.283 810.764 870.199H807.284Z" fill="#743C91"/>
<path d="M829.948 870.199C793.776 851.179 755.266 836.985 715.402 827.981C628.33 807.973 535.862 810.785 440.552 836.311C425.724 840.286 410.443 844.137 395.131 847.741C394.936 847.784 394.732 847.749 394.562 847.643C394.393 847.537 394.272 847.369 394.225 847.175C394.202 847.078 394.199 846.978 394.215 846.88C394.231 846.782 394.267 846.688 394.319 846.603C394.372 846.519 394.441 846.446 394.522 846.389C394.603 846.331 394.694 846.29 394.791 846.268C410.083 842.664 425.353 838.834 440.161 834.859C493.778 820.443 546.499 813.307 597.871 813.307C637.534 813.242 677.076 817.671 715.742 826.508C764.643 837.743 803.803 854.31 833.129 870.158L829.948 870.199Z" fill="#743C91"/>
<path d="M273.491 870.199C299.626 865.977 326.357 861.107 353.459 855.464C353.236 855.434 353.032 855.322 352.886 855.152C352.74 854.981 352.661 854.762 352.666 854.537C352.693 854.405 352.746 854.279 352.822 854.167C352.897 854.054 352.994 853.958 353.107 853.884C353.22 853.809 353.346 853.758 353.479 853.732C353.612 853.706 353.749 853.707 353.881 853.734L359.359 854.146C359.524 854.153 359.686 854.195 359.833 854.269C359.983 854.318 360.123 854.395 360.245 854.496C360.342 854.573 360.42 854.674 360.47 854.788C360.521 854.902 360.543 855.026 360.535 855.151C360.527 855.275 360.489 855.396 360.424 855.502C360.359 855.609 360.269 855.698 360.162 855.762L356.043 858.707C355.807 858.868 355.524 858.947 355.239 858.934C354.953 858.921 354.679 858.816 354.458 858.635C354.346 858.539 354.263 858.415 354.218 858.275C354.173 858.135 354.167 857.985 354.2 857.842C354.303 857.472 354.664 857.369 354.973 857.132C355.05 857.071 355.113 856.995 355.159 856.908C355.205 856.821 355.233 856.725 355.24 856.627C330.733 861.776 306.525 866.245 282.779 870.199H273.491Z" fill="#743C91"/>
<path d="M850.47 870.199C810.198 846.371 743.575 816.489 652.044 806.789C651.845 806.78 651.658 806.691 651.523 806.544C651.389 806.396 651.319 806.201 651.329 806.002C651.338 805.802 651.427 805.615 651.574 805.481C651.722 805.347 651.917 805.276 652.116 805.286H652.199C745.429 815.161 812.916 845.939 853.106 870.014L853.415 870.199H850.47Z" fill="#743C91"/>
<path d="M171.89 870.199C253.299 860.118 345.201 845.352 438.698 821.803C490.627 808.746 542.39 802.145 592.784 802.145C596.059 802.145 599.344 802.145 602.618 802.238H602.515C602.371 802.238 602.227 802.145 602.083 802.084C601.961 802.054 601.847 801.997 601.751 801.917C601.654 801.838 601.577 801.737 601.526 801.622C601.474 801.508 601.449 801.384 601.453 801.258C601.457 801.133 601.489 801.01 601.547 800.899C601.712 800.67 601.949 800.504 602.22 800.427C602.491 800.351 602.78 800.368 603.04 800.477L608.014 802.351C608.16 802.406 608.293 802.491 608.405 802.599C608.527 802.682 608.627 802.796 608.694 802.928C608.744 803.044 608.767 803.17 608.762 803.296C608.757 803.423 608.723 803.546 608.664 803.658C608.605 803.77 608.521 803.867 608.419 803.942C608.317 804.017 608.2 804.068 608.076 804.092L602.979 805.739C602.716 805.836 602.429 805.841 602.163 805.753C601.897 805.665 601.669 805.49 601.516 805.255C601.451 805.123 601.426 804.974 601.444 804.828C601.462 804.681 601.523 804.543 601.619 804.431C601.866 804.112 602.247 804.112 602.649 803.978C602.761 803.934 602.866 803.871 602.958 803.793C549.495 802.846 494.385 809.394 439.079 823.296C350.03 845.702 262.432 860.159 183.979 870.199H171.89Z" fill="#743C91"/>
<path d="M60.0219 870.199C163.096 858.285 297.566 841.625 437.236 808.777C488.125 796.812 538.23 790.819 587.224 790.829C632.577 790.747 677.779 796.052 721.879 806.635C788.718 822.76 837.011 847.823 866.41 866.585V868.366C837.207 849.615 788.79 824.326 721.519 808.097C631.502 786.381 535.975 787.101 437.586 810.239C303.59 841.758 174.402 858.378 73.0684 870.199H60.0219Z" fill="#743C91"/>
<path d="M0 866.533C22.2624 863.29 46.8107 859.922 73.2331 856.308C175.288 842.325 302.323 824.964 435.774 795.71C483.583 785.083 532.4 779.649 581.375 779.502C629.653 779.414 677.764 785.168 724.66 796.636C789.531 812.597 836.641 836.218 866.399 854.764V856.535C836.805 838 789.624 814.152 724.299 798.098C677.521 786.662 629.531 780.926 581.375 781.016C532.511 781.152 483.805 786.565 436.103 797.162C302.55 826.405 175.514 843.797 73.439 857.781C47.1711 861.374 22.5095 864.752 0 868.078V866.533Z" fill="#743C91"/>
<path d="M754.892 774.312C754.938 774.388 754.993 774.457 755.057 774.518C755.355 774.755 755.726 774.858 755.819 775.229C755.851 775.374 755.842 775.525 755.793 775.665C755.744 775.805 755.657 775.929 755.541 776.022C755.318 776.201 755.042 776.303 754.756 776.313C754.47 776.322 754.189 776.238 753.955 776.073L749.929 773.077C749.823 773.012 749.735 772.922 749.672 772.816C749.609 772.709 749.573 772.589 749.566 772.465C749.56 772.341 749.585 772.218 749.637 772.105C749.689 771.993 749.768 771.895 749.867 771.82C749.985 771.714 750.126 771.637 750.279 771.594C750.426 771.52 750.588 771.478 750.752 771.47L756.241 771.13C756.508 771.079 756.785 771.136 757.011 771.288C757.237 771.441 757.393 771.677 757.446 771.944C757.43 772.206 757.314 772.453 757.123 772.633C756.932 772.812 756.679 772.912 756.416 772.912H755.942C755.829 772.902 755.715 772.902 755.602 772.912C796.307 785.042 834.622 801.208 866.41 819.537V821.277C834.489 802.794 795.916 786.473 754.892 774.271" fill="#743C91"/>
<path d="M733.958 757.785C639.152 733.299 534.101 728.861 430.193 744.945C352.192 757.003 286.878 767.691 230.439 777.597C230.342 777.615 230.242 777.613 230.145 777.592C230.048 777.571 229.957 777.531 229.875 777.475C229.794 777.419 229.725 777.347 229.671 777.263C229.618 777.18 229.581 777.087 229.564 776.989C229.531 776.793 229.576 776.592 229.689 776.428C229.803 776.264 229.976 776.152 230.171 776.114C286.61 766.229 351.945 755.52 429.936 743.493C470.57 737.19 511.629 734.012 552.749 733.989C615.356 733.989 676.727 741.475 734.329 756.354C783.858 769.143 829.546 787.091 866.41 807.84V809.724C829.34 788.79 783.003 770.44 733.958 757.796" fill="#743C91"/>
</g>
<g clip-path="url(#clip6_218_2484)">
<path d="M857.338 1013.33H860.891C862.754 1012.46 864.608 1011.59 866.43 1010.71V1009.05C863.451 1010.47 860.42 1011.89 857.338 1013.31V1013.33ZM0.0205815 1004.55C6.28123 1007.5 12.6895 1010.42 19.2453 1013.31H23.014L22.5095 1013.09C14.7798 1009.76 7.27662 1006.35 -9.31881e-06 1002.87L0.0205815 1004.55ZM831.266 1013.31H835.24C846.176 1008.81 856.607 1004.12 866.43 999.304V997.636C855.447 1003.05 843.725 1008.28 831.266 1013.31ZM-9.31881e-06 993.085C7.55121 996.448 15.3187 999.771 23.3024 1003.05C31.8558 1006.55 40.6221 1009.99 49.6012 1013.35H53.9466C43.6495 1009.57 33.6269 1005.68 23.879 1001.68C15.6413 998.319 7.68164 994.911 -9.31881e-06 991.458V993.085ZM802.3 1013.33H806.759C827.115 1006.03 847.032 997.551 866.41 987.946V986.258C845.62 996.599 824.209 1005.64 802.3 1013.33V1013.33ZM-9.31881e-06 981.675C7.99055 985.039 16.2282 988.355 24.7131 991.623C44.4938 999.222 65.5308 1006.49 87.4637 1013.33H92.5711C69.1657 1006.12 46.6459 998.419 25.2691 990.212C16.5578 986.869 8.13471 983.478 -9.31881e-06 980.038V981.675ZM769.534 1013.33H774.683C812.782 1001.45 842.984 988.616 866.441 976.476V974.787C842.016 987.432 810.208 1000.96 769.565 1013.33H769.534ZM-9.31881e-06 970.349C8.39557 973.657 17.1104 976.935 26.1444 980.182C59.888 992.302 96.6693 1003.42 135.417 1013.33H141.596C100.768 1003.03 62.071 991.468 26.6901 978.762C17.4708 975.446 8.58778 972.103 0.0411762 968.732L-9.31881e-06 970.349ZM739.951 1010.99C736.972 1011.77 733.92 1012.55 730.797 1013.33H736.975L740.373 1012.44C795.401 997.976 836.579 980.749 866.451 965.004V963.182C830.792 981.923 787.009 998.624 739.992 1010.99H739.951ZM-9.31881e-06 959.104C8.81432 962.338 18.0028 965.55 27.5654 968.742C77.8874 985.547 135.479 1000.66 196.798 1013.33H204.305C140.36 1000.36 80.266 984.754 28.039 967.311C18.3597 964.078 9.0134 960.8 -9.31881e-06 957.477V959.104ZM738.046 1000.81C719.374 1005.7 700.334 1009.88 680.928 1013.35H689.227C705.895 1010.18 722.295 1006.48 738.427 1002.27C785.886 989.851 830.318 972.727 866.41 953.4V951.69C830.308 971.111 785.711 988.338 738.046 1000.81V1000.81ZM-9.31881e-06 947.921C9.2468 951.066 18.9055 954.193 28.9761 957.302C98.6155 978.834 183.968 998.161 274.861 1013.33H284.128C189.92 997.955 101.303 978.082 29.4291 955.861C19.1938 952.703 9.3841 949.521 -9.31881e-06 946.315V947.921ZM736.048 990.614C686.81 1003.26 636.415 1010.87 585.638 1013.33H608.766C651.864 1009.97 694.588 1002.86 736.45 992.076C784.568 979.554 829.855 961.895 866.43 941.846V940.127C829.845 960.278 784.393 978.041 736.069 990.583L736.048 990.614ZM-9.31881e-06 936.811C9.67242 939.832 19.8048 942.848 30.3971 945.862C121.681 971.821 240.335 995.391 369.172 1013.33H380.231C247.254 995.226 124.575 971.111 30.7884 944.41C20.0382 941.355 9.76852 938.294 -0.020604 935.225L-9.31881e-06 936.811ZM-9.31881e-06 925.772C10.0637 928.642 20.6697 931.525 31.8181 934.422C131.01 960.165 268.168 985.578 428.473 1007.85C445.299 1010.18 462.138 1012.01 478.991 1013.33H502.53C477.948 1012.09 453.331 1009.77 428.679 1006.36C268.436 984.095 131.34 958.713 32.2403 932.97C20.9615 930.039 10.2285 927.115 0.0411762 924.197L-9.31881e-06 925.772ZM-9.31881e-06 914.796C46.2546 926.72 104.516 939.159 175.298 952.277C175.101 952.408 174.875 952.489 174.639 952.514L174.165 952.586C174.043 952.597 173.925 952.634 173.817 952.692C173.709 952.751 173.614 952.83 173.538 952.927C173.462 953.023 173.406 953.134 173.374 953.252C173.342 953.371 173.335 953.494 173.352 953.616C173.463 953.869 173.661 954.075 173.91 954.196C174.159 954.317 174.443 954.345 174.711 954.275L180.055 953.245C180.36 953.173 180.639 953.016 180.859 952.792C180.937 952.695 180.991 952.581 181.018 952.459C181.044 952.337 181.042 952.21 181.011 952.089C180.98 951.968 180.921 951.856 180.839 951.762C180.757 951.668 180.655 951.594 180.539 951.546L175.947 949.126C175.698 948.992 175.412 948.944 175.133 948.988C174.854 949.033 174.597 949.168 174.402 949.374C174.306 949.485 174.243 949.622 174.223 949.768C174.203 949.915 174.226 950.064 174.289 950.197C174.416 950.406 174.613 950.563 174.845 950.64C103.589 937.439 45.8119 925.093 -9.31881e-06 913.282V914.796ZM-9.31881e-06 903.953C83.7876 923.239 199.517 942.68 328.735 964.387C362.098 969.988 396.604 975.786 431.387 981.727C474.242 989.114 517.644 992.866 561.131 992.941C614.422 993.04 667.547 986.987 719.449 974.9C719.642 974.851 719.809 974.73 719.914 974.561C720.02 974.392 720.056 974.189 720.016 973.994C719.969 973.799 719.848 973.631 719.678 973.525C719.509 973.419 719.305 973.384 719.109 973.427C627.568 994.887 530.837 997.173 431.604 980.234C396.82 974.303 362.304 968.505 328.941 962.894C203.244 941.784 84.5187 921.839 0.267714 902.449L-0.0411987 902.377L-9.31881e-06 903.953ZM-9.31881e-06 893.11C54.6262 904.169 122.855 915.496 199.435 928.213C270.546 940.055 351.132 953.441 432.86 968.66C477.6 977.103 523.025 981.391 568.555 981.47C700.853 981.47 803.947 943.896 866.41 906.96V905.209C804.236 942.196 701.141 979.966 568.596 979.966C523.132 979.886 477.773 975.605 433.097 967.177C351.369 951.917 270.763 938.541 199.651 926.73C124.389 914.219 55.4603 902.779 -9.31881e-06 891.514V893.11ZM-9.31881e-06 882.391C35.7928 888.569 77.6094 895.077 124.111 902.264C217.197 916.68 322.712 932.97 434.312 955.603C480.618 965.084 527.755 969.914 575.022 970.019C581.2 970.019 587.378 969.933 593.557 969.762C638.662 968.568 683.506 962.499 727.306 951.659C790.479 935.884 836.455 913.509 866.41 895.283V893.512C836.548 911.758 790.499 934.329 726.935 950.146C683.244 960.959 638.51 967.011 593.516 968.197C540.187 969.55 486.877 964.817 434.621 954.089C322.979 931.436 217.444 915.136 124.338 900.74C78.3405 893.635 36.2458 887.127 -9.31881e-06 880.805V882.391Z" fill="#743C91"/>
<path d="M588.14 868.047C598.746 868.781 609.284 869.148 619.753 869.148C630.221 869.148 640.601 868.781 650.891 868.047H588.14Z" fill="#743C91"/>
<path d="M713.106 868.047C709.186 868.933 705.208 869.77 701.172 870.559C641.449 882.257 578.832 881.392 514.29 868.047H507.082C542.793 876.038 579.266 880.129 615.86 880.249C644.599 880.268 673.273 877.51 701.481 872.011C707.721 870.789 713.813 869.458 719.758 868.016L713.106 868.047Z" fill="#743C91"/>
<path d="M751.895 868.047C680.845 891.143 583.208 902.532 462.66 868.047H457.254C513.888 884.738 565.425 891.359 611.711 891.349C660.978 891.524 709.943 883.653 756.673 868.047H751.895Z" fill="#743C91"/>
<path d="M781.798 868.047C758.074 877.563 733.581 885.038 708.586 890.392C624.726 908.391 535.594 903.469 443.528 875.77C434.562 873.072 425.614 870.498 416.683 868.047H410.948C421.636 870.93 432.352 873.988 443.095 877.222C499.081 894.078 554.005 902.511 607.355 902.511C641.486 902.564 675.527 898.995 708.905 891.864C735.196 886.243 760.929 878.272 785.794 868.047H781.798Z" fill="#743C91"/>
<path d="M807.284 868.047C776.819 882.239 744.893 893.057 712.076 900.308C626.61 919.337 535.728 915.475 442.045 888.826C414.109 880.887 386.368 874.009 359.03 868.047H351.822C381.343 874.338 411.349 881.68 441.582 890.278C496.434 905.878 550.298 913.694 602.711 913.694C639.588 913.747 676.36 909.752 712.365 901.78C746.331 894.279 779.34 882.963 810.764 868.047H807.284Z" fill="#743C91"/>
<path d="M829.948 868.047C793.776 887.067 755.266 901.261 715.402 910.265C628.33 930.272 535.862 927.461 440.552 901.935C425.724 897.96 410.443 894.109 395.131 890.505C394.936 890.461 394.732 890.497 394.562 890.602C394.393 890.708 394.272 890.877 394.225 891.071C394.202 891.168 394.199 891.268 394.215 891.366C394.231 891.464 394.267 891.558 394.319 891.643C394.372 891.727 394.441 891.8 394.522 891.857C394.603 891.915 394.694 891.956 394.791 891.977C410.083 895.581 425.353 899.412 440.161 903.386C493.778 917.802 546.499 924.938 597.871 924.938C637.534 925.003 677.076 920.575 715.742 911.737C764.643 900.503 803.803 883.935 833.129 868.088L829.948 868.047Z" fill="#743C91"/>
<path d="M273.491 868.047C299.626 872.269 326.357 877.139 353.459 882.782C353.236 882.812 353.032 882.923 352.886 883.094C352.74 883.265 352.661 883.484 352.666 883.709C352.693 883.841 352.746 883.967 352.822 884.079C352.897 884.191 352.994 884.288 353.107 884.362C353.22 884.437 353.346 884.488 353.479 884.514C353.612 884.54 353.749 884.539 353.881 884.512L359.359 884.1C359.524 884.093 359.686 884.051 359.833 883.976C359.983 883.928 360.123 883.851 360.245 883.75C360.342 883.672 360.42 883.572 360.47 883.458C360.521 883.344 360.543 883.22 360.535 883.095C360.527 882.971 360.489 882.85 360.424 882.743C360.359 882.637 360.269 882.548 360.162 882.483L356.043 879.538C355.807 879.378 355.524 879.299 355.239 879.312C354.953 879.325 354.679 879.429 354.458 879.611C354.346 879.706 354.263 879.831 354.218 879.971C354.173 880.111 354.167 880.26 354.2 880.403C354.303 880.774 354.664 880.877 354.973 881.114C355.05 881.175 355.113 881.251 355.159 881.338C355.205 881.425 355.233 881.52 355.24 881.618C330.733 876.47 306.525 872.001 282.779 868.047H273.491Z" fill="#743C91"/>
<path d="M850.47 868.047C810.198 891.874 743.575 921.756 652.044 931.456C651.845 931.466 651.658 931.554 651.523 931.702C651.389 931.85 651.319 932.045 651.329 932.244C651.338 932.444 651.427 932.631 651.574 932.765C651.722 932.899 651.917 932.97 652.116 932.96H652.199C745.429 923.085 812.916 892.307 853.106 868.232L853.415 868.047H850.47Z" fill="#743C91"/>
<path d="M171.89 868.047C253.299 878.128 345.201 892.894 438.698 916.443C490.627 929.5 542.39 936.1 592.784 936.1C596.059 936.1 599.344 936.101 602.618 936.008H602.515C602.371 936.008 602.227 936.1 602.083 936.162C601.961 936.192 601.847 936.248 601.751 936.328C601.654 936.408 601.577 936.509 601.526 936.624C601.474 936.738 601.449 936.862 601.453 936.988C601.457 937.113 601.489 937.236 601.547 937.347C601.712 937.575 601.949 937.742 602.22 937.818C602.491 937.895 602.78 937.877 603.04 937.769L608.014 935.894C608.16 935.839 608.293 935.755 608.405 935.647C608.527 935.563 608.627 935.45 608.694 935.318C608.744 935.202 608.767 935.076 608.762 934.949C608.757 934.823 608.723 934.699 608.664 934.588C608.605 934.476 608.521 934.379 608.419 934.304C608.317 934.229 608.2 934.178 608.076 934.154L602.979 932.507C602.716 932.41 602.429 932.405 602.163 932.493C601.897 932.581 601.669 932.756 601.516 932.991C601.451 933.123 601.426 933.272 601.444 933.418C601.462 933.565 601.523 933.702 601.619 933.814C601.866 934.134 602.247 934.134 602.649 934.267C602.761 934.312 602.866 934.375 602.958 934.453C549.495 935.4 494.385 928.851 439.079 914.95C350.03 892.544 262.432 878.087 183.979 868.047H171.89Z" fill="#743C91"/>
<path d="M60.0219 868.047C163.096 879.961 297.566 896.621 437.236 929.469C488.125 941.434 538.23 947.427 587.224 947.417C632.577 947.499 677.779 942.193 721.879 931.611C788.718 915.486 837.011 890.423 866.41 871.661V869.88C837.207 888.631 788.79 913.92 721.519 930.149C631.502 951.865 535.975 951.145 437.586 928.007C303.59 896.487 174.402 879.868 73.0684 868.047H60.0219Z" fill="#743C91"/>
<path d="M0 871.713C22.2624 874.956 46.8107 878.323 73.2331 881.938C175.288 895.921 302.323 913.282 435.774 942.536C483.583 953.163 532.4 958.597 581.375 958.744C629.653 958.831 677.764 953.078 724.66 941.609C789.531 925.649 836.641 902.027 866.399 883.482V881.711C836.805 900.246 789.624 924.094 724.299 940.147C677.521 951.584 629.531 957.32 581.375 957.23C532.511 957.094 483.805 951.681 436.103 941.084C302.55 911.841 175.514 894.449 73.439 880.465C47.1711 876.871 22.5095 873.494 0 870.168V871.713Z" fill="#743C91"/>
<path d="M754.892 963.934C754.938 963.858 754.993 963.789 755.057 963.728C755.355 963.491 755.726 963.388 755.819 963.017C755.851 962.872 755.842 962.721 755.793 962.581C755.744 962.441 755.657 962.317 755.541 962.224C755.318 962.045 755.042 961.942 754.756 961.933C754.47 961.924 754.189 962.008 753.955 962.173L749.929 965.169C749.823 965.234 749.735 965.324 749.672 965.43C749.609 965.537 749.573 965.657 749.566 965.781C749.56 965.905 749.585 966.028 749.637 966.14C749.689 966.253 749.768 966.351 749.867 966.426C749.985 966.532 750.126 966.609 750.279 966.652C750.426 966.726 750.588 966.767 750.752 966.776L756.241 967.115C756.508 967.167 756.785 967.11 757.011 966.958C757.237 966.805 757.393 966.569 757.446 966.302C757.43 966.04 757.314 965.793 757.123 965.613C756.932 965.433 756.679 965.334 756.416 965.334H755.942C755.829 965.344 755.715 965.344 755.602 965.334C796.307 953.204 834.622 937.038 866.41 918.709V916.969C834.489 935.452 795.916 951.773 754.892 963.975" fill="#743C91"/>
<path d="M733.958 980.461C639.152 1004.95 534.101 1009.39 430.193 993.301C352.192 981.243 286.878 970.555 230.439 960.649C230.342 960.631 230.242 960.633 230.145 960.654C230.048 960.675 229.957 960.714 229.875 960.771C229.794 960.827 229.725 960.899 229.671 960.983C229.618 961.066 229.581 961.159 229.564 961.257C229.531 961.453 229.576 961.654 229.689 961.818C229.803 961.981 229.976 962.094 230.171 962.132C286.61 972.017 351.945 982.726 429.936 994.753C470.57 1001.06 511.629 1004.23 552.749 1004.26C615.356 1004.26 676.727 996.771 734.329 981.892C783.858 969.103 829.546 951.155 866.41 930.406V928.522C829.34 949.456 783.003 967.805 733.958 980.45" fill="#743C91"/>
</g>
<defs>
<clipPath id="clip0_218_2484">
<rect width="866.42" height="145.282" fill="white"/>
</clipPath>
<clipPath id="clip1_218_2484">
<rect width="866.42" height="145.282" fill="white" transform="translate(0 290.379)"/>
</clipPath>
<clipPath id="clip2_218_2484">
<rect width="866.42" height="145.282" fill="white" transform="translate(0 579.728)"/>
</clipPath>
<clipPath id="clip3_218_2484">
<rect width="866.42" height="145.282" fill="white" transform="matrix(1 0 0 -1 0 290.471)"/>
</clipPath>
<clipPath id="clip4_218_2484">
<rect width="866.42" height="145.282" fill="white" transform="matrix(1 0 0 -1 0 580.85)"/>
</clipPath>
<clipPath id="clip5_218_2484">
<rect width="866.42" height="145.282" fill="white" transform="matrix(1 0 0 -1 0 870.199)"/>
</clipPath>
<clipPath id="clip6_218_2484">
<rect width="866.42" height="145.282" fill="white" transform="translate(0 868.047)"/>
</clipPath>
</defs>
</svg>
