<?xml version="1.0" standalone="no"?>
<!DOCTYPE svg PUBLIC "-//W3C//DTD SVG 1.1//EN" "http://www.w3.org/Graphics/SVG/1.1/DTD/svg11.dtd" >
<svg xmlns="http://www.w3.org/2000/svg" xmlns:xlink="http://www.w3.org/1999/xlink" version="1.1">
<metadata>
Created by FontForge 20170910 at Wed Sep  7 14:41:30 2011
 By Jimmy Wärting
Copyright (c) 2011 by Luc[as] de Groot. Published by LucasFonts www.LucasFonts.com. All rights reserved.
</metadata>
<defs>
<font id="TheMixArabic-Light" horiz-adv-x="322" >
  <font-face 
    font-family="TheMixArabic Light"
    font-weight="300"
    font-stretch="normal"
    units-per-em="1000"
    panose-1="2 11 3 2 5 3 2 2 2 3"
    ascent="740"
    descent="-260"
    x-height="497"
    cap-height="675"
    bbox="-238 -320 1565 980"
    underline-thickness="50"
    underline-position="-227"
    stemh="51"
    stemv="63"
    unicode-range="U+000D-FEFC"
  />
<missing-glyph horiz-adv-x="550" 
d="M300 150h-150v250h50v-200h100v-50zM500 50h-450v450h450v-450zM350 350h-100v50h150v-250h-50v100h-100v50h100v50zM100 100h350v350h-350v-350z" />
    <glyph glyph-name="fi" unicode="fi" horiz-adv-x="586" 
d="M490 0h-62v447h-245v-447h-63v447h-114v50h114v25c0 133 71 213 213 213c52 0 102 -8 139 -18l-13 -54c-38 12 -86 20 -132 20c-99 0 -144 -56 -144 -150v-36h307v-497z" />
    <glyph glyph-name="fl" unicode="fl" horiz-adv-x="586" 
d="M490 0h-62v676s-53 8 -106 8c-94 0 -139 -39 -139 -146v-41h152v-50h-152v-447h-63v447h-114v50h114v37c0 136 69 201 213 201c74 0 157 -13 157 -13v-722z" />
    <glyph glyph-name="uniFEF5" unicode="&#xfedf;&#xfe82;" horiz-adv-x="595" arabic-form="isolated" 
d="M186 707v-574c-22 -4 -42 -6 -64 -7v529c-23 5 -56 8 -85 10v35c41 5 104 9 149 7zM231 -10c-43 0 -110 8 -146 19l12 55c37 -14 97 -23 141 -23c110 0 184 36 184 181v483h63v-471c0 -161 -82 -244 -254 -244zM17 770v54l81 25c2 -2 34 -35 77 -35c47 0 76 33 78 35v-54
c-2 -1 -29 -28 -84 -28c-45 0 -74 26 -76 27z" />
    <glyph glyph-name="uniFEF6" unicode="&#xfee0;&#xfe82;" horiz-adv-x="633" arabic-form="final" 
d="M633 0h-14c-104 0 -152 23 -188 58c-35 -40 -99 -68 -200 -68c-43 0 -110 8 -146 19l12 55c37 -14 97 -23 141 -23c110 0 183 36 183 181v483h64v-455c0 -115 -22 -150 -22 -150s43 -49 156 -49h14v-51zM186 707v-574c-22 -4 -42 -6 -64 -7v529c-23 5 -56 8 -85 10v35
c41 5 104 9 149 7zM17 770v54l81 25c2 -2 34 -35 77 -35c47 0 76 33 78 35v-54c-2 -1 -29 -28 -84 -28c-45 0 -74 26 -76 27z" />
    <glyph glyph-name="uniFEF7" unicode="&#xfedf;&#xfe84;" horiz-adv-x="596" arabic-form="isolated" 
d="M186 675v-542c-22 -4 -42 -6 -64 -7v498c-24 4 -56 8 -85 10v34c41 5 104 9 149 7zM231 -10c-44 0 -110 8 -146 19l12 55c37 -14 97 -23 141 -23c110 0 184 36 184 181v483h63v-471c0 -161 -82 -244 -254 -244zM9 732v42c32 0 61 -2 79 -5c-23 10 -34 35 -34 55
c0 44 32 90 115 90c19 0 36 -2 51 -5l-7 -42c-12 2 -32 4 -49 4c-40 0 -60 -18 -60 -46s23 -51 84 -51h52v-42h-231z" />
    <glyph glyph-name="uniFEF8" unicode="&#xfee0;&#xfe84;" horiz-adv-x="633" arabic-form="final" 
d="M633 0h-14c-104 0 -152 23 -188 58c-35 -40 -99 -68 -200 -68c-43 0 -110 8 -146 19l12 55c37 -14 97 -23 141 -23c110 0 183 36 183 181v483h64v-455c0 -115 -22 -150 -22 -150s43 -49 156 -49h14v-51zM186 675v-542c-22 -4 -42 -6 -64 -7v498c-23 4 -56 8 -85 10v34
c41 5 104 9 149 7zM9 732v42c32 0 61 -2 79 -5c-23 10 -34 35 -34 55c0 44 32 90 115 90c19 0 36 -2 51 -5l-7 -42c-12 2 -32 4 -49 4c-40 0 -60 -18 -60 -46s23 -51 84 -51h52v-42h-231z" />
    <glyph glyph-name="uniFEF9" unicode="&#xfedf;&#xfe88;" horiz-adv-x="595" arabic-form="isolated" 
d="M186 707v-574c-22 -4 -42 -6 -64 -7v529c-23 5 -56 8 -85 10v35c41 5 104 9 149 7zM231 -10c-43 0 -110 8 -146 19l12 55c37 -14 97 -23 141 -23c110 0 184 36 184 181v483h63v-471c0 -161 -82 -244 -254 -244zM41 -235v42c25 0 47 0 65 -3c-12 7 -23 21 -23 41
c0 44 37 79 102 79c18 0 35 -1 51 -5l-7 -43c-15 4 -32 6 -46 6c-31 0 -50 -15 -50 -36c0 -23 22 -39 69 -39h58v-42h-219z" />
    <glyph glyph-name="uniFEFA" unicode="&#xfee0;&#xfe88;" horiz-adv-x="633" arabic-form="final" 
d="M633 0h-14c-104 0 -152 23 -188 58c-35 -40 -99 -68 -200 -68c-43 0 -110 8 -146 19l12 55c37 -14 97 -23 141 -23c110 0 183 36 183 181v483h64v-455c0 -115 -22 -150 -22 -150s43 -49 156 -49h14v-51zM186 707v-574c-22 -4 -42 -6 -64 -7v529c-23 5 -56 8 -85 10v35
c41 5 104 9 149 7zM41 -235v42c25 0 47 0 65 -3c-12 7 -23 21 -23 41c0 44 37 79 102 79c18 0 35 -1 51 -5l-7 -43c-15 4 -32 6 -46 6c-31 0 -50 -15 -50 -36c0 -23 22 -39 69 -39h58v-42h-219z" />
    <glyph glyph-name="uniFEFB" unicode="&#xfedf;&#xfe8e;" horiz-adv-x="595" arabic-form="isolated" 
d="M186 707v-574c-22 -4 -42 -6 -64 -7v529c-23 5 -56 8 -85 10v35c41 5 104 9 149 7zM231 -10c-43 0 -110 8 -146 19l12 55c37 -14 97 -23 141 -23c110 0 184 36 184 181v483h63v-471c0 -161 -82 -244 -254 -244z" />
    <glyph glyph-name="uniFEFC" unicode="&#xfee0;&#xfe8e;" horiz-adv-x="633" arabic-form="final" 
d="M633 0h-14c-104 0 -152 23 -188 58c-35 -40 -99 -68 -200 -68c-43 0 -110 8 -146 19l12 55c37 -14 97 -23 141 -23c110 0 183 36 183 181v483h64v-455c0 -115 -22 -150 -22 -150s43 -49 156 -49h14v-51zM186 707v-574c-22 -4 -42 -6 -64 -7v529c-23 5 -56 8 -85 10v35
c41 5 104 9 149 7z" />
    <glyph glyph-name="uniFC6A" unicode="&#xfe92;&#xfeae;" horiz-adv-x="801" arabic-form="final" 
d="M100 -259c-41 0 -85 7 -118 18l10 54c35 -13 75 -21 114 -21c94 0 152 47 152 194v484h395v-419h148v-51h-211v419h-269v-424c0 -153 -58 -254 -221 -254zM578 -147c0 24 20 44 44 44s44 -19 44 -44c0 -24 -20 -44 -44 -44s-44 19 -44 44z" />
    <glyph glyph-name="uniFC6D" unicode="&#xfe92;&#xfee6;" horiz-adv-x="1045" arabic-form="final" 
d="M896 470v-419h149v-51h-212v419h-269v-383c0 -179 -89 -267 -250 -267c-122 0 -238 67 -238 275c0 71 9 137 24 198l66 13c-18 -68 -27 -137 -27 -205c0 -184 96 -230 183 -230c101 0 179 52 179 213v437h395zM272 432c0 24 20 44 44 44s44 -19 44 -44
c0 -24 -20 -44 -44 -44s-44 19 -44 44zM821 -147c0 24 20 44 44 44s44 -19 44 -44c0 -24 -20 -44 -44 -44s-44 19 -44 44z" />
    <glyph glyph-name="uniFC70" unicode="&#xfe98;&#xfeae;" horiz-adv-x="801" arabic-form="final" 
d="M100 -259c-41 0 -85 7 -118 18l10 54c35 -13 75 -21 114 -21c94 0 152 47 152 194v484h395v-419h148v-51h-211v419h-269v-424c0 -153 -58 -254 -221 -254zM510 615c0 24 19 43 43 43s43 -18 43 -43c0 -24 -19 -43 -43 -43s-43 19 -43 43zM644 615c0 24 19 43 43 43
s43 -18 43 -43c0 -24 -19 -43 -43 -43s-43 19 -43 43z" />
    <glyph glyph-name="uniFC79" unicode="&#xfe9c;&#xfee6;" horiz-adv-x="1045" arabic-form="final" 
d="M896 470v-419h149v-51h-212v419h-269v-383c0 -179 -89 -267 -250 -267c-122 0 -238 67 -238 275c0 71 9 137 24 198l66 13c-18 -68 -27 -137 -27 -205c0 -184 96 -230 183 -230c101 0 179 52 179 213v437h395zM272 432c0 24 20 44 44 44s44 -19 44 -44
c0 -24 -20 -44 -44 -44s-44 19 -44 44zM753 614c0 24 19 44 43 44s43 -19 43 -44c0 -23 -19 -43 -43 -43s-43 19 -43 43zM887 614c0 24 20 44 44 44s43 -19 43 -44c0 -23 -19 -43 -43 -43s-44 19 -44 43zM820 716c0 24 20 43 44 43c23 0 43 -18 43 -43
c0 -24 -20 -43 -43 -43c-24 0 -44 18 -44 43z" />
    <glyph glyph-name="uniFC76" unicode="&#xfe9c;&#xfeae;" horiz-adv-x="801" arabic-form="final" 
d="M100 -259c-41 0 -85 7 -118 18l10 54c35 -13 75 -21 114 -21c94 0 152 47 152 194v484h395v-419h148v-51h-211v419h-269v-424c0 -153 -58 -254 -221 -254zM510 614c0 24 19 44 43 44s43 -19 43 -44c0 -23 -19 -43 -43 -43s-43 19 -43 43zM644 614c0 24 20 44 44 44
s43 -19 43 -44c0 -23 -19 -43 -43 -43s-44 19 -44 43zM577 716c0 24 20 43 44 43c23 0 43 -18 43 -43c0 -24 -20 -43 -43 -43c-24 0 -44 18 -44 43z" />
    <glyph glyph-name="uniFC8A" unicode="&#xfee8;&#xfeae;" horiz-adv-x="801" arabic-form="final" 
d="M100 -259c-41 0 -85 7 -118 18l10 54c35 -13 75 -21 114 -21c94 0 152 47 152 194v484h395v-419h148v-51h-211v419h-269v-424c0 -153 -58 -254 -221 -254zM577 615c0 24 20 44 44 44s44 -19 44 -44c0 -24 -20 -44 -44 -44s-44 19 -44 44z" />
    <glyph glyph-name="uniFC8D" unicode="&#xfee8;&#xfee6;" horiz-adv-x="1045" arabic-form="final" 
d="M896 470v-419h149v-51h-212v419h-269v-383c0 -179 -89 -267 -250 -267c-122 0 -238 67 -238 275c0 71 9 137 24 198l66 13c-18 -68 -27 -137 -27 -205c0 -184 96 -230 183 -230c101 0 179 52 179 213v437h395zM272 432c0 24 20 44 44 44s44 -19 44 -44
c0 -24 -20 -44 -44 -44s-44 19 -44 44zM820 615c0 24 20 44 44 44s44 -19 44 -44c0 -24 -20 -44 -44 -44s-44 19 -44 44z" />
    <glyph glyph-name="uniFC91" unicode="&#xfef4;&#xfeae;" horiz-adv-x="802" arabic-form="final" 
d="M100 -259c-41 0 -85 7 -118 18l10 54c35 -13 75 -21 114 -21c94 0 152 47 152 194v484h396v-419h148v-51h-211v419h-270v-424c0 -153 -58 -254 -221 -254zM510 -148c0 24 19 44 43 44s43 -19 43 -44c0 -23 -19 -43 -43 -43s-43 19 -43 43zM644 -148c0 24 19 44 43 44
s43 -19 43 -44c0 -23 -19 -43 -43 -43s-43 19 -43 43z" />
    <glyph glyph-name="uniFC94" unicode="&#xfef4;&#xfee6;" horiz-adv-x="1045" arabic-form="final" 
d="M896 470v-419h149v-51h-212v419h-269v-383c0 -179 -89 -267 -250 -267c-122 0 -238 67 -238 275c0 71 9 137 24 198l66 13c-18 -68 -27 -137 -27 -205c0 -184 96 -230 183 -230c101 0 179 52 179 213v437h395zM272 432c0 24 20 44 44 44s44 -19 44 -44
c0 -24 -20 -44 -44 -44s-44 19 -44 44zM754 -148c0 24 19 44 43 44s43 -19 43 -44c0 -23 -19 -43 -43 -43s-43 19 -43 43zM888 -148c0 24 19 44 43 44s43 -19 43 -44c0 -23 -19 -43 -43 -43s-43 19 -43 43z" />
    <glyph glyph-name="uniFDF2" unicode="&#xfedf;&#xfee0;&#xfeea;" horiz-adv-x="1335" arabic-form="isolated" 
d="M1225 0h-890c-190 0 -259 91 -259 235c0 131 82 245 243 245c105 0 196 -35 196 -35v-394h287v577h63v-577h296v654h64v-705zM452 51v352s-57 26 -140 26c-105 0 -171 -73 -171 -187c0 -130 60 -191 206 -191h105z" />
    <glyph glyph-name="uni0621" unicode="&#x621;" horiz-adv-x="489" arabic-form="isolated" 
d="M56 0v50c55 0 106 -2 138 -4c-41 15 -65 52 -65 100c0 70 51 144 183 144c29 0 58 -2 82 -7l-7 -52c-21 4 -56 9 -86 9c-71 0 -108 -37 -108 -90c0 -55 41 -100 150 -100h91v-50h-378z" />
    <glyph glyph-name="uni0622" unicode="&#x622;" horiz-adv-x="286" arabic-form="isolated" 
d="M122 0v654c-24 4 -57 8 -85 10v34c41 5 101 9 148 7v-705h-63zM16 761v54l81 25c2 -2 34 -35 77 -35c47 0 76 33 78 35v-54c-2 -1 -29 -28 -84 -28c-45 0 -74 26 -76 27z" />
    <glyph glyph-name="uniFE82" unicode="&#x622;" horiz-adv-x="333" arabic-form="final" 
d="M122 0v654c-24 4 -57 8 -85 10v34c41 5 101 9 148 7v-654h148v-51h-211zM16 761v54l81 25c2 -2 34 -35 77 -35c47 0 76 33 78 35v-54c-2 -1 -29 -28 -84 -28c-45 0 -74 26 -76 27z" />
    <glyph glyph-name="uni0623" unicode="&#x623;" horiz-adv-x="286" arabic-form="isolated" 
d="M122 0v605c-24 4 -57 8 -85 10v34c41 5 101 9 148 7v-656h-63zM15 732v43c31 0 61 -3 79 -6c-23 10 -35 35 -35 55c0 44 33 90 116 90c19 0 36 -2 51 -4l-7 -43c-12 2 -32 5 -49 5c-40 0 -60 -19 -60 -47s23 -50 84 -50h52v-43h-231z" />
    <glyph glyph-name="uniFE84" unicode="&#x623;" horiz-adv-x="333" arabic-form="final" 
d="M122 0v605c-24 4 -57 8 -85 10v34c41 5 101 9 148 7v-605h148v-51h-211zM15 732v43c31 0 61 -3 79 -6c-23 10 -35 35 -35 55c0 44 33 90 116 90c19 0 36 -2 51 -4l-7 -43c-12 2 -32 5 -49 5c-40 0 -60 -19 -60 -47s23 -50 84 -50h52v-43h-231z" />
    <glyph glyph-name="uni0624" unicode="&#x624;" horiz-adv-x="625" arabic-form="isolated" 
d="M239 -254c-79 0 -159 17 -159 17l5 56s89 -22 162 -22c113 0 205 43 205 172v31h-117c-190 0 -259 91 -259 235c0 131 82 245 243 245c105 0 196 -35 196 -35v-476c0 -103 -66 -223 -276 -223zM452 51v352s-57 26 -140 26c-105 0 -171 -73 -171 -187
c0 -130 60 -191 206 -191h105zM184 573v43c31 0 61 -3 79 -6c-23 10 -35 35 -35 55c0 44 33 90 116 90c19 0 36 -2 51 -4l-7 -43c-12 2 -32 5 -49 5c-40 0 -60 -19 -60 -47s23 -50 84 -50h52v-43h-231z" />
    <glyph glyph-name="uniFE86" unicode="&#x624;" horiz-adv-x="663" arabic-form="final" 
d="M239 -254c-79 0 -159 17 -159 17l5 56s89 -22 162 -22c113 0 205 43 205 172v31h-117c-190 0 -259 91 -259 235c0 131 82 245 243 245c105 0 196 -35 196 -35v-394h148v-51h-148v-31c0 -103 -66 -223 -276 -223zM452 51v352s-57 26 -140 26c-105 0 -171 -73 -171 -187
c0 -130 60 -191 206 -191h105zM186 573v43c31 0 61 -3 79 -6c-23 10 -35 35 -35 55c0 44 33 90 116 90c19 0 36 -2 51 -4l-7 -43c-12 2 -32 5 -49 5c-40 0 -60 -19 -60 -47s23 -50 84 -50h52v-43h-231z" />
    <glyph glyph-name="uni0625" unicode="&#x625;" horiz-adv-x="286" arabic-form="isolated" 
d="M122 0v654c-24 4 -57 8 -85 10v34c41 5 101 9 148 7v-705h-63zM32 -243v42c25 0 47 0 65 -3c-12 7 -23 21 -23 41c0 44 37 79 102 79c18 0 35 -1 51 -5l-7 -43c-15 4 -32 6 -46 6c-31 0 -50 -15 -50 -36c0 -23 22 -39 69 -39h58v-42h-219z" />
    <glyph glyph-name="uniFE88" unicode="&#x625;" horiz-adv-x="333" arabic-form="final" 
d="M122 0v654c-24 4 -57 8 -85 10v34c41 5 101 9 148 7v-654h148v-51h-211zM32 -243v42c25 0 47 0 65 -3c-12 7 -23 21 -23 41c0 44 37 79 102 79c18 0 35 -1 51 -5l-7 -43c-15 4 -32 6 -46 6c-31 0 -50 -15 -50 -36c0 -23 22 -39 69 -39h58v-42h-219z" />
    <glyph glyph-name="uni0626" unicode="&#x626;" horiz-adv-x="1003" arabic-form="isolated" 
d="M593 0h-171c-238 0 -337 93 -337 287c0 66 17 135 36 174l69 12c-25 -48 -41 -119 -41 -177c0 -160 59 -245 283 -245h98v410s83 19 169 19c161 0 218 -80 218 -217v-143h-63v132c0 127 -50 177 -164 177c-47 0 -97 -10 -97 -10v-419zM62 565v43c31 0 61 -3 79 -6
c-23 10 -35 35 -35 55c0 44 33 90 116 90c19 0 36 -2 51 -4l-7 -43c-12 2 -32 5 -49 5c-40 0 -60 -19 -60 -47s23 -50 84 -50h52v-43h-231z" />
    <glyph glyph-name="uniFE8A" unicode="&#x626;" horiz-adv-x="1032" arabic-form="final" 
d="M593 0h-171c-238 0 -337 93 -337 287c0 66 17 135 36 174l69 12c-25 -48 -41 -119 -41 -177c0 -160 59 -245 283 -245h98v410s83 19 169 19c161 0 218 -80 218 -217v-212h115v-51h-178v252c0 127 -50 177 -164 177c-47 0 -97 -10 -97 -10v-419zM62 565v43
c31 0 61 -3 79 -6c-23 10 -35 35 -35 55c0 44 33 90 116 90c19 0 36 -2 51 -4l-7 -43c-12 2 -32 5 -49 5c-40 0 -60 -19 -60 -47s23 -50 84 -50h52v-43h-231z" />
    <glyph glyph-name="uniFE8B" unicode="&#x626;" arabic-form="initial" 
d="M212 0h-227c-20 0 -60 9 -60 26c0 16 40 25 60 25h163v419h64v-470zM45 526v43c31 0 61 -3 79 -6c-23 10 -35 35 -35 55c0 44 33 90 116 90c19 0 36 -2 51 -4l-7 -43c-12 2 -32 5 -49 5c-40 0 -60 -19 -60 -47s23 -50 84 -50h52v-43h-231z" />
    <glyph glyph-name="uniFE8C" unicode="&#x626;" horiz-adv-x="360" arabic-form="medial" 
d="M-15 0c-20 0 -60 9 -60 26c0 16 40 25 60 25h163v419h64v-419h148v-51h-375zM45 526v43c31 0 61 -3 79 -6c-23 10 -35 35 -35 55c0 44 33 90 116 90c19 0 36 -2 51 -4l-7 -43c-12 2 -32 5 -49 5c-40 0 -60 -19 -60 -47s23 -50 84 -50h52v-43h-231z" />
    <glyph glyph-name="uniFE8E" unicode="&#x627;" horiz-adv-x="333" arabic-form="final" 
d="M122 0v654c-24 4 -57 8 -85 10v34c41 5 101 9 148 7v-654h148v-51h-211z" />
    <glyph glyph-name="uni0628" unicode="&#x628;" horiz-adv-x="800" arabic-form="isolated" 
d="M690 0h-268c-238 0 -337 93 -337 287c0 66 17 135 36 174l69 12c-25 -48 -41 -119 -41 -177c0 -160 59 -245 283 -245h194v419h64v-470zM363 -147c0 24 20 44 44 44s44 -19 44 -44c0 -24 -20 -44 -44 -44s-44 19 -44 44z" />
    <glyph glyph-name="uniFE90" unicode="&#x628;" horiz-adv-x="838" arabic-form="final" 
d="M838 0h-416c-238 0 -337 93 -337 287c0 66 17 135 36 174l69 12c-25 -48 -41 -119 -41 -177c0 -160 59 -245 283 -245h194v419h64v-419h148v-51zM363 -147c0 24 20 44 44 44s44 -19 44 -44c0 -24 -20 -44 -44 -44s-44 19 -44 44z" />
    <glyph glyph-name="uniFE91" unicode="&#x628;" arabic-form="initial" 
d="M212 0h-227c-20 0 -60 9 -60 26c0 16 40 25 60 25h163v419h64v-470zM130 -147c0 24 20 44 44 44s44 -19 44 -44c0 -24 -20 -44 -44 -44s-44 19 -44 44z" />
    <glyph glyph-name="uniFE92" unicode="&#x628;" horiz-adv-x="360" arabic-form="medial" 
d="M-15 0c-20 0 -60 9 -60 26c0 16 40 25 60 25h163v419h64v-419h148v-51h-375zM134 -147c0 24 20 44 44 44s44 -19 44 -44c0 -24 -20 -44 -44 -44s-44 19 -44 44z" />
    <glyph glyph-name="uni0629" unicode="&#x629;" horiz-adv-x="616" arabic-form="isolated" 
d="M525 0h-190c-190 0 -259 91 -259 234c0 132 83 246 243 246c134 0 206 -76 206 -220v-260zM462 51v194c0 134 -56 184 -150 184c-105 0 -171 -73 -171 -188c0 -129 60 -190 206 -190h115zM194 615c0 24 19 43 43 43s43 -18 43 -43c0 -24 -19 -43 -43 -43s-43 19 -43 43z
M328 615c0 24 19 43 43 43s43 -18 43 -43c0 -24 -19 -43 -43 -43s-43 19 -43 43z" />
    <glyph glyph-name="uniFE94" unicode="&#x629;" horiz-adv-x="663" arabic-form="final" 
d="M663 0h-328c-190 0 -259 91 -259 235c0 131 82 245 243 245c105 0 196 -35 196 -35v-394h148v-51zM452 51v352s-57 26 -140 26c-105 0 -171 -73 -171 -187c0 -130 60 -191 206 -191h105zM204 615c0 24 19 43 43 43s43 -18 43 -43c0 -24 -19 -43 -43 -43s-43 19 -43 43z
M338 615c0 24 19 43 43 43s43 -18 43 -43c0 -24 -19 -43 -43 -43s-43 19 -43 43z" />
    <glyph glyph-name="uni062A" unicode="&#x62a;" horiz-adv-x="800" arabic-form="isolated" 
d="M690 0h-268c-238 0 -337 93 -337 287c0 66 17 135 36 174l69 12c-25 -48 -41 -119 -41 -177c0 -160 59 -245 283 -245h194v419h64v-470zM304 615c0 24 19 43 43 43s43 -18 43 -43c0 -24 -19 -43 -43 -43s-43 19 -43 43zM438 615c0 24 19 43 43 43s43 -18 43 -43
c0 -24 -19 -43 -43 -43s-43 19 -43 43z" />
    <glyph glyph-name="uniFE96" unicode="&#x62a;" horiz-adv-x="838" arabic-form="final" 
d="M422 0c-238 0 -337 93 -337 287c0 66 17 135 36 174l69 12c-25 -48 -41 -119 -41 -177c0 -160 59 -245 283 -245h194v419h64v-419h148v-51h-416zM438 615c0 24 19 43 43 43s43 -18 43 -43c0 -24 -19 -43 -43 -43s-43 19 -43 43zM304 615c0 24 19 43 43 43s43 -18 43 -43
c0 -24 -19 -43 -43 -43s-43 19 -43 43z" />
    <glyph glyph-name="uniFE97" unicode="&#x62a;" arabic-form="initial" 
d="M212 0h-227c-20 0 -60 9 -60 26c0 16 40 25 60 25h163v419h64v-470zM67 615c0 24 19 43 43 43s43 -18 43 -43c0 -24 -19 -43 -43 -43s-43 19 -43 43zM201 615c0 24 19 43 43 43s43 -18 43 -43c0 -24 -19 -43 -43 -43s-43 19 -43 43z" />
    <glyph glyph-name="uniFE98" unicode="&#x62a;" horiz-adv-x="360" arabic-form="medial" 
d="M360 0h-375c-20 0 -60 9 -60 26c0 16 40 25 60 25h163v419h64v-419h148v-51zM70 615c0 24 19 43 43 43s43 -18 43 -43c0 -24 -19 -43 -43 -43s-43 19 -43 43zM204 615c0 24 19 43 43 43s43 -18 43 -43c0 -24 -19 -43 -43 -43s-43 19 -43 43z" />
    <glyph glyph-name="uni062B" unicode="&#x62b;" horiz-adv-x="800" arabic-form="isolated" 
d="M690 0h-268c-238 0 -337 93 -337 287c0 66 17 135 36 174l69 12c-25 -48 -41 -119 -41 -177c0 -160 59 -245 283 -245h194v419h64v-470zM304 614c0 24 19 44 43 44s43 -19 43 -44c0 -23 -19 -43 -43 -43s-43 19 -43 43zM438 614c0 24 20 44 44 44s43 -19 43 -44
c0 -23 -19 -43 -43 -43s-44 19 -44 43zM371 716c0 24 20 43 44 43c23 0 43 -18 43 -43c0 -24 -20 -43 -43 -43c-24 0 -44 18 -44 43z" />
    <glyph glyph-name="uniFE9A" unicode="&#x62b;" horiz-adv-x="838" arabic-form="final" 
d="M838 0h-416c-238 0 -337 93 -337 287c0 66 17 135 36 174l69 12c-25 -48 -41 -119 -41 -177c0 -160 59 -245 283 -245h194v419h64v-419h148v-51zM436 614c0 24 20 44 44 44s43 -19 43 -44c0 -23 -19 -43 -43 -43s-44 19 -44 43zM302 614c0 24 19 44 43 44s43 -19 43 -44
c0 -23 -19 -43 -43 -43s-43 19 -43 43zM369 716c0 24 20 43 44 43c23 0 43 -18 43 -43c0 -24 -20 -43 -43 -43c-24 0 -44 18 -44 43z" />
    <glyph glyph-name="uniFE9B" unicode="&#x62b;" arabic-form="initial" 
d="M212 0h-227c-20 0 -60 9 -60 26c0 16 40 25 60 25h163v419h64v-470zM65 614c0 24 19 44 43 44s43 -19 43 -44c0 -23 -19 -43 -43 -43s-43 19 -43 43zM199 614c0 24 20 44 44 44s43 -19 43 -44c0 -23 -19 -43 -43 -43s-44 19 -44 43zM132 716c0 24 20 43 44 43
c23 0 43 -18 43 -43c0 -24 -20 -43 -43 -43c-24 0 -44 18 -44 43z" />
    <glyph glyph-name="uniFE9C" unicode="&#x62b;" horiz-adv-x="360" arabic-form="medial" 
d="M-15 0c-20 0 -60 9 -60 26c0 16 40 25 60 25h163v419h64v-419h148v-51h-375zM203 614c0 24 20 44 44 44s43 -19 43 -44c0 -23 -19 -43 -43 -43s-44 19 -44 43zM69 614c0 24 19 44 43 44s43 -19 43 -44c0 -23 -19 -43 -43 -43s-43 19 -43 43zM136 716c0 24 20 43 44 43
c23 0 43 -18 43 -43c0 -24 -20 -43 -43 -43c-24 0 -44 18 -44 43z" />
    <glyph glyph-name="uni062C" unicode="&#x62c;" horiz-adv-x="619" arabic-form="isolated" 
d="M517 0h-180c-186 0 -231 -59 -231 -135c0 -72 68 -134 204 -134l-4 -51c-175 0 -263 82 -263 178c0 110 73 193 299 193h120c5 43 8 83 8 122c0 169 -57 249 -236 249c-38 0 -70 -2 -108 -7v50c30 4 70 8 114 8c217 0 294 -102 294 -292c0 -47 -5 -109 -17 -181z
M328 -147c0 24 20 44 44 44s44 -19 44 -44c0 -24 -20 -44 -44 -44s-44 19 -44 44z" />
    <glyph glyph-name="uniFE9E" unicode="&#x62c;" horiz-adv-x="613" arabic-form="final" 
d="M613 0h-276c-186 0 -231 -59 -231 -135c0 -72 68 -134 204 -134l-4 -51c-175 0 -263 82 -263 178c0 110 73 193 299 193h120c5 43 8 83 8 122c0 169 -57 249 -236 249c-38 0 -70 -2 -108 -7v50c30 4 70 8 114 8c217 0 294 -102 294 -292c0 -36 -3 -80 -10 -130h89v-51z
M328 -147c0 24 20 44 44 44s44 -19 44 -44c0 -24 -20 -44 -44 -44s-44 19 -44 44z" />
    <glyph glyph-name="uniFE9F" unicode="&#x62c;" horiz-adv-x="533" arabic-form="initial" 
d="M431 0h-446c-20 0 -60 9 -60 26c0 16 40 25 60 25h391c5 43 8 83 8 122c0 169 -57 249 -236 249c-38 0 -87 -4 -125 -10v50c30 6 87 11 130 11c218 0 294 -102 294 -292c0 -47 -4 -109 -16 -181zM137 -147c0 24 20 44 44 44s44 -19 44 -44c0 -24 -20 -44 -44 -44
s-44 19 -44 44z" />
    <glyph glyph-name="uniFEA0" unicode="&#x62c;" horiz-adv-x="527" arabic-form="medial" 
d="M-15 0c-20 0 -60 9 -60 26c0 16 40 25 60 25h391c5 43 8 83 8 122c0 169 -57 249 -236 249c-38 0 -87 -4 -125 -10v50c30 6 87 11 130 11c218 0 294 -102 294 -292c0 -36 -2 -80 -9 -130h89v-51h-542zM137 -147c0 24 20 44 44 44s44 -19 44 -44c0 -24 -20 -44 -44 -44
s-44 19 -44 44z" />
    <glyph glyph-name="uni062D" unicode="&#x62d;" horiz-adv-x="618" arabic-form="isolated" 
d="M306 -320c-175 0 -263 77 -263 178c0 110 73 193 299 193h118c6 43 9 83 9 122c0 169 -58 249 -236 249c-39 0 -70 -2 -108 -7v50c29 4 69 8 113 8c217 0 294 -102 294 -292c0 -47 -4 -109 -16 -181h-179c-186 0 -231 -59 -231 -135s68 -134 205 -134c55 0 118 7 186 22
l6 -50c-70 -16 -134 -23 -197 -23z" />
    <glyph glyph-name="uniFEA2" unicode="&#x62d;" horiz-adv-x="603" arabic-form="final" 
d="M306 -320c-175 0 -263 77 -263 178c0 110 73 193 299 193h118c6 43 9 83 9 122c0 169 -58 249 -236 249c-39 0 -70 -2 -108 -7v50c29 4 69 8 113 8c217 0 294 -102 294 -292c0 -36 -2 -80 -9 -130h80v-51h-266c-186 0 -231 -59 -231 -135s68 -134 205 -134
c55 0 118 7 186 22l6 -50c-70 -16 -134 -23 -197 -23z" />
    <glyph glyph-name="uniFEA3" unicode="&#x62d;" horiz-adv-x="533" arabic-form="initial" 
d="M431 0h-446c-20 0 -60 9 -60 26c0 16 40 25 60 25h391c5 43 8 83 8 122c0 169 -57 249 -236 249c-38 0 -87 -4 -125 -10v50c30 6 87 11 130 11c218 0 294 -102 294 -292c0 -47 -4 -109 -16 -181z" />
    <glyph glyph-name="uniFEA4" unicode="&#x62d;" horiz-adv-x="527" arabic-form="medial" 
d="M-15 0c-20 0 -60 9 -60 26c0 16 40 25 60 25h391c5 43 8 83 8 122c0 169 -57 249 -236 249c-38 0 -87 -4 -125 -10v50c30 6 87 11 130 11c218 0 294 -102 294 -292c0 -36 -2 -80 -9 -130h89v-51h-542z" />
    <glyph glyph-name="uni062E" unicode="&#x62e;" horiz-adv-x="618" arabic-form="isolated" 
d="M306 -320c-175 0 -263 77 -263 178c0 110 73 193 299 193h118c6 43 9 83 9 122c0 169 -58 249 -236 249c-39 0 -70 -2 -108 -7v50c29 4 69 8 113 8c217 0 294 -102 294 -292c0 -47 -4 -109 -16 -181h-179c-186 0 -231 -59 -231 -135s68 -134 205 -134c55 0 118 7 186 22
l6 -50c-70 -16 -134 -23 -197 -23zM221 615c0 24 20 44 44 44s44 -19 44 -44c0 -24 -20 -44 -44 -44s-44 19 -44 44z" />
    <glyph glyph-name="uniFEA6" unicode="&#x62e;" horiz-adv-x="603" arabic-form="final" 
d="M337 0c-186 0 -231 -59 -231 -135s68 -134 205 -134c55 0 118 7 186 22l6 -50c-70 -16 -134 -23 -197 -23c-175 0 -263 77 -263 178c0 110 73 193 299 193h118c6 43 9 83 9 122c0 169 -58 249 -236 249c-39 0 -70 -2 -108 -7v50c29 4 69 8 113 8c217 0 294 -102 294 -292
c0 -36 -2 -80 -9 -130h80v-51h-266zM221 615c0 24 20 44 44 44s44 -19 44 -44c0 -24 -20 -44 -44 -44s-44 19 -44 44z" />
    <glyph glyph-name="uniFEA7" unicode="&#x62e;" horiz-adv-x="533" arabic-form="initial" 
d="M431 0h-446c-20 0 -60 9 -60 26c0 16 40 25 60 25h391c5 43 8 83 8 122c0 169 -57 249 -236 249c-38 0 -87 -4 -125 -10v50c30 6 87 11 130 11c218 0 294 -102 294 -292c0 -47 -4 -109 -16 -181zM137 615c0 24 20 44 44 44s44 -19 44 -44c0 -24 -20 -44 -44 -44
s-44 19 -44 44z" />
    <glyph glyph-name="uniFEA8" unicode="&#x62e;" horiz-adv-x="527" arabic-form="medial" 
d="M527 0h-542c-20 0 -60 9 -60 26c0 16 40 25 60 25h391c5 43 8 83 8 122c0 169 -57 249 -236 249c-38 0 -87 -4 -125 -10v50c30 6 87 11 130 11c218 0 294 -102 294 -292c0 -36 -2 -80 -9 -130h89v-51zM137 615c0 24 20 44 44 44s44 -19 44 -44c0 -24 -20 -44 -44 -44
s-44 19 -44 44z" />
    <glyph glyph-name="uni062F" unicode="&#x62f;" horiz-adv-x="552" arabic-form="isolated" 
d="M64 0v51h339c-1 209 -73 317 -264 381l17 54c217 -72 310 -195 310 -448v-38h-402z" />
    <glyph glyph-name="uniFEAA" unicode="&#x62f;" horiz-adv-x="543" arabic-form="final" 
d="M64 0v51h339c-1 209 -73 317 -264 381l17 54c213 -71 307 -191 310 -435h76v-51h-478z" />
    <glyph glyph-name="uni0630" unicode="&#x630;" horiz-adv-x="552" arabic-form="isolated" 
d="M64 0v51h339c-1 209 -73 317 -264 381l17 54c217 -72 310 -195 310 -448v-38h-402zM153 615c0 24 20 44 44 44s44 -19 44 -44c0 -24 -20 -44 -44 -44s-44 19 -44 44z" />
    <glyph glyph-name="uniFEAC" unicode="&#x630;" horiz-adv-x="543" arabic-form="final" 
d="M64 0v51h339c-1 209 -73 317 -264 381l17 54c213 -71 307 -191 310 -435h76v-51h-478zM153 615c0 24 20 44 44 44s44 -19 44 -44c0 -24 -20 -44 -44 -44s-44 19 -44 44z" />
    <glyph glyph-name="uni0631" unicode="&#x631;" horiz-adv-x="432" arabic-form="isolated" 
d="M100 -259c-41 0 -85 7 -118 18l10 54c35 -13 75 -21 114 -21c94 0 152 47 152 194v484h63v-475c0 -153 -58 -254 -221 -254z" />
    <glyph glyph-name="uniFEAE" unicode="&#x631;" horiz-adv-x="469" arabic-form="final" 
d="M100 -259c-41 0 -85 7 -118 18l10 54c35 -13 75 -21 114 -21c94 0 152 47 152 194v484h63v-419h149v-51h-149v-5c0 -153 -58 -254 -221 -254z" />
    <glyph glyph-name="uni0632" unicode="&#x632;" horiz-adv-x="432" arabic-form="isolated" 
d="M100 -259c-41 0 -85 7 -118 18l10 54c35 -13 75 -21 114 -21c94 0 152 47 152 194v484h63v-475c0 -153 -58 -254 -221 -254zM244 615c0 24 20 44 44 44s44 -19 44 -44c0 -24 -20 -44 -44 -44s-44 19 -44 44z" />
    <glyph glyph-name="uniFEB0" unicode="&#x632;" horiz-adv-x="469" arabic-form="final" 
d="M100 -259c-41 0 -85 7 -118 18l10 54c35 -13 75 -21 114 -21c94 0 152 47 152 194v484h63v-419h149v-51h-149v-5c0 -153 -58 -254 -221 -254zM244 615c0 24 20 44 44 44s44 -19 44 -44c0 -24 -20 -44 -44 -44s-44 19 -44 44z" />
    <glyph glyph-name="uni0633" unicode="&#x633;" horiz-adv-x="1196" arabic-form="isolated" 
d="M313 -231c-122 0 -237 67 -237 275c0 71 9 137 24 198l66 13c-18 -68 -27 -137 -27 -205c0 -184 96 -230 182 -230c85 0 160 52 160 213v377h63v-181c0 -121 26 -185 104 -185c75 0 112 55 112 184v222h62v-260c0 -123 47 -139 169 -139h36c6 45 10 113 10 153
c0 115 -16 210 -37 281l62 14c21 -72 38 -172 38 -288c0 -65 -6 -147 -17 -211h-77c-139 0 -197 19 -223 88c-20 -70 -86 -95 -132 -95c-57 0 -86 17 -108 54c2 -216 -107 -278 -230 -278z" />
    <glyph glyph-name="uniFEB2" unicode="&#x633;" horiz-adv-x="1226" arabic-form="final" 
d="M313 -231c-122 0 -237 67 -237 275c0 71 9 137 24 198l66 13c-18 -68 -27 -137 -27 -205c0 -184 96 -230 182 -230c85 0 160 52 160 213v377h63v-181c0 -121 26 -185 104 -185c75 0 112 55 112 184v222h62v-260c0 -123 47 -139 169 -139h36c6 45 10 113 10 153
c0 115 -16 210 -37 281l62 14c21 -72 38 -172 38 -288c0 -49 -3 -107 -10 -160h136v-51h-220c-139 0 -197 19 -223 88c-20 -70 -86 -95 -132 -95c-57 0 -86 17 -108 54c2 -216 -107 -278 -230 -278z" />
    <glyph glyph-name="uniFEB3" unicode="&#x633;" horiz-adv-x="863" arabic-form="initial" 
d="M35 0h-50c-20 0 -60 9 -60 26c0 16 40 25 60 25h50c76 0 112 36 112 146v213h64v-181c0 -111 -1 -185 94 -185c68 0 121 35 121 184v222h63v-260c0 -124 48 -139 168 -139h37c5 45 9 111 9 153c0 115 -15 210 -37 281l63 14c20 -72 38 -172 38 -288
c0 -65 -7 -147 -18 -211h-76c-141 0 -196 19 -224 88c-13 -42 -55 -95 -153 -95c-70 0 -113 39 -126 92c-17 -51 -57 -85 -135 -85z" />
    <glyph glyph-name="uniFEB4" unicode="&#x633;" horiz-adv-x="892" arabic-form="medial" 
d="M673 0c-141 0 -196 19 -224 88c-13 -42 -55 -95 -153 -95c-70 0 -113 39 -126 92c-17 -51 -57 -85 -135 -85h-50c-20 0 -60 9 -60 26c0 16 40 25 60 25h50c76 0 112 36 112 146v213h64v-181c0 -111 -1 -185 94 -185c68 0 121 35 121 184v222h63v-260
c0 -124 48 -139 168 -139h37c5 45 9 111 9 153c0 115 -15 210 -37 281l63 14c20 -72 38 -172 38 -288c0 -49 -4 -107 -11 -160h137v-51h-220z" />
    <glyph glyph-name="uni0634" unicode="&#x634;" horiz-adv-x="1196" arabic-form="isolated" 
d="M313 -231c-122 0 -237 67 -237 275c0 71 9 137 24 198l66 13c-18 -68 -27 -137 -27 -205c0 -184 96 -230 182 -230c85 0 160 52 160 213v377h63v-181c0 -121 26 -185 104 -185c75 0 112 55 112 184v222h62v-260c0 -123 47 -139 169 -139h36c6 45 10 113 10 153
c0 115 -16 210 -37 281l62 14c21 -72 38 -172 38 -288c0 -65 -6 -147 -17 -211h-77c-139 0 -197 19 -223 88c-20 -70 -86 -95 -132 -95c-57 0 -86 17 -108 54c2 -216 -107 -278 -230 -278zM676 614c0 24 19 44 43 44s43 -19 43 -44c0 -23 -19 -43 -43 -43s-43 19 -43 43z
M810 614c0 24 20 44 44 44s43 -19 43 -44c0 -23 -19 -43 -43 -43s-44 19 -44 43zM743 716c0 24 20 43 44 43c23 0 43 -18 43 -43c0 -24 -20 -43 -43 -43c-24 0 -44 18 -44 43z" />
    <glyph glyph-name="uniFEB6" unicode="&#x634;" horiz-adv-x="1226" arabic-form="final" 
d="M1006 0c-139 0 -197 19 -223 88c-20 -70 -86 -95 -132 -95c-57 0 -86 17 -108 54c2 -216 -107 -278 -230 -278c-122 0 -237 67 -237 275c0 71 9 137 24 198l66 13c-18 -68 -27 -137 -27 -205c0 -184 96 -230 182 -230c85 0 160 52 160 213v377h63v-181
c0 -121 26 -185 104 -185c75 0 112 55 112 184v222h62v-260c0 -123 47 -139 169 -139h36c6 45 10 113 10 153c0 115 -16 210 -37 281l62 14c21 -72 38 -172 38 -288c0 -49 -3 -107 -10 -160h136v-51h-220zM810 614c0 24 20 44 44 44s43 -19 43 -44c0 -23 -19 -43 -43 -43
s-44 19 -44 43zM676 614c0 24 19 44 43 44s43 -19 43 -44c0 -23 -19 -43 -43 -43s-43 19 -43 43zM743 716c0 24 20 43 44 43c23 0 43 -18 43 -43c0 -24 -20 -43 -43 -43c-24 0 -44 18 -44 43z" />
    <glyph glyph-name="uniFEB7" unicode="&#x634;" horiz-adv-x="863" arabic-form="initial" 
d="M35 0h-50c-20 0 -60 9 -60 26c0 16 40 25 60 25h50c76 0 112 36 112 146v213h64v-181c0 -111 -1 -185 94 -185c68 0 121 35 121 184v222h63v-260c0 -124 48 -139 168 -139h37c5 45 9 111 9 153c0 115 -15 210 -37 281l63 14c20 -72 38 -172 38 -288
c0 -65 -7 -147 -18 -211h-76c-141 0 -196 19 -224 88c-13 -42 -55 -95 -153 -95c-70 0 -113 39 -126 92c-17 -51 -57 -85 -135 -85zM341 614c0 24 19 44 43 44s43 -19 43 -44c0 -23 -19 -43 -43 -43s-43 19 -43 43zM475 614c0 24 20 44 44 44s43 -19 43 -44
c0 -23 -19 -43 -43 -43s-44 19 -44 43zM408 716c0 24 20 43 44 43c23 0 43 -18 43 -43c0 -24 -20 -43 -43 -43c-24 0 -44 18 -44 43z" />
    <glyph glyph-name="uniFEB8" unicode="&#x634;" horiz-adv-x="892" arabic-form="medial" 
d="M35 0h-50c-20 0 -60 9 -60 26c0 16 40 25 60 25h50c76 0 112 36 112 146v213h64v-181c0 -111 -1 -185 94 -185c68 0 121 35 121 184v222h63v-260c0 -124 48 -139 168 -139h37c5 45 9 111 9 153c0 115 -15 210 -37 281l63 14c20 -72 38 -172 38 -288
c0 -49 -4 -107 -11 -160h137v-51h-220c-141 0 -196 19 -224 88c-13 -42 -55 -95 -153 -95c-70 0 -113 39 -126 92c-17 -51 -57 -85 -135 -85zM475 614c0 24 20 44 44 44s43 -19 43 -44c0 -23 -19 -43 -43 -43s-44 19 -44 43zM341 614c0 24 19 44 43 44s43 -19 43 -44
c0 -23 -19 -43 -43 -43s-43 19 -43 43zM408 716c0 24 20 43 44 43c23 0 43 -18 43 -43c0 -24 -20 -43 -43 -43c-24 0 -44 18 -44 43z" />
    <glyph glyph-name="uni0635" unicode="&#x635;" horiz-adv-x="1084" arabic-form="isolated" 
d="M313 -231c-122 0 -237 67 -237 275c0 71 9 137 24 198l66 13c-18 -68 -27 -137 -27 -205c0 -184 96 -230 182 -230c85 0 160 52 160 213v437h63v-49c0 -62 -3 -140 -10 -201h1c49 171 166 260 290 260c121 0 192 -82 192 -227c0 -135 -71 -253 -282 -253h-192
c-10 -158 -108 -231 -230 -231zM543 51h200c164 0 208 92 208 195c0 112 -43 183 -137 183c-157 0 -257 -202 -271 -378z" />
    <glyph glyph-name="uniFEBA" unicode="&#x635;" horiz-adv-x="1090" arabic-form="final" 
d="M543 0c-10 -158 -108 -231 -230 -231s-237 67 -237 275c0 71 9 137 24 198l66 13c-18 -68 -27 -137 -27 -205c0 -184 96 -230 182 -230c85 0 160 52 160 213v437h63v-49c0 -62 -3 -140 -10 -201h1c49 171 166 260 290 260c121 0 192 -82 192 -227
c0 -81 -25 -155 -90 -202h163v-51h-340h-15h-192zM543 51h200c164 0 208 92 208 195c0 112 -43 183 -137 183c-157 0 -257 -202 -271 -378z" />
    <glyph glyph-name="uniFEBB" unicode="&#x635;" horiz-adv-x="751" arabic-form="initial" 
d="M402 0h-417c-20 0 -60 9 -60 26c0 16 40 25 60 25h163v419h64v-49c0 -62 -3 -140 -11 -201h1c49 171 167 260 290 260c121 0 192 -82 192 -227c0 -135 -71 -253 -282 -253zM211 51h199c164 0 208 92 208 195c0 112 -43 183 -137 183c-157 0 -257 -202 -270 -378z" />
    <glyph glyph-name="uniFEBC" unicode="&#x635;" horiz-adv-x="766" arabic-form="medial" 
d="M766 0h-781c-20 0 -60 9 -60 26c0 16 40 25 60 25h163v419h64v-49c0 -62 -3 -140 -11 -201h1c49 171 167 260 290 260c121 0 192 -82 192 -227c0 -81 -25 -155 -90 -202h172v-51zM211 51h199c164 0 208 92 208 195c0 112 -43 183 -137 183c-157 0 -257 -202 -270 -378z
" />
    <glyph glyph-name="uni0636" unicode="&#x636;" horiz-adv-x="1084" arabic-form="isolated" 
d="M313 -231c-122 0 -237 67 -237 275c0 71 9 137 24 198l66 13c-18 -68 -27 -137 -27 -205c0 -184 96 -230 182 -230c85 0 160 52 160 213v437h63v-49c0 -62 -3 -140 -10 -201h1c49 171 166 260 290 260c121 0 192 -82 192 -227c0 -135 -71 -253 -282 -253h-192
c-10 -158 -108 -231 -230 -231zM543 51h200c164 0 208 92 208 195c0 112 -43 183 -137 183c-157 0 -257 -202 -271 -378zM759 615c0 24 20 44 44 44s44 -19 44 -44c0 -24 -20 -44 -44 -44s-44 19 -44 44z" />
    <glyph glyph-name="uniFEBE" unicode="&#x636;" horiz-adv-x="1090" arabic-form="final" 
d="M543 0c-10 -158 -108 -231 -230 -231s-237 67 -237 275c0 71 9 137 24 198l66 13c-18 -68 -27 -137 -27 -205c0 -184 96 -230 182 -230c85 0 160 52 160 213v437h63v-49c0 -62 -3 -140 -10 -201h1c49 171 166 260 290 260c121 0 192 -82 192 -227
c0 -81 -25 -155 -90 -202h163v-51h-340h-15h-192zM543 51h200c164 0 208 92 208 195c0 112 -43 183 -137 183c-157 0 -257 -202 -271 -378zM759 615c0 24 20 44 44 44s44 -19 44 -44c0 -24 -20 -44 -44 -44s-44 19 -44 44z" />
    <glyph glyph-name="uniFEBF" unicode="&#x636;" horiz-adv-x="751" arabic-form="initial" 
d="M402 0h-417c-20 0 -60 9 -60 26c0 16 40 25 60 25h163v419h64v-49c0 -62 -3 -140 -11 -201h1c49 171 167 260 290 260c121 0 192 -82 192 -227c0 -135 -71 -253 -282 -253zM211 51h199c164 0 208 92 208 195c0 112 -43 183 -137 183c-157 0 -257 -202 -270 -378zM433 615
c0 24 20 44 44 44s44 -19 44 -44c0 -24 -20 -44 -44 -44s-44 19 -44 44z" />
    <glyph glyph-name="uniFEC0" unicode="&#x636;" horiz-adv-x="766" arabic-form="medial" 
d="M-15 0c-20 0 -60 9 -60 26c0 16 40 25 60 25h163v419h64v-49c0 -62 -3 -140 -11 -201h1c49 171 167 260 290 260c121 0 192 -82 192 -227c0 -81 -25 -155 -90 -202h172v-51h-781zM211 51h211c154 4 196 94 196 195c0 112 -43 183 -137 183c-157 0 -257 -202 -270 -378z
M433 615c0 24 20 44 44 44s44 -19 44 -44c0 -24 -20 -44 -44 -44s-44 19 -44 44z" />
    <glyph glyph-name="uni0637" unicode="&#x637;" horiz-adv-x="758" arabic-form="isolated" 
d="M6 0v51h149v654h64v-284c0 -62 -3 -140 -11 -201h1c49 171 167 260 290 260c121 0 192 -82 192 -227c0 -135 -71 -253 -282 -253h-403zM218 51h199c164 0 208 92 208 195c0 112 -43 183 -137 183c-157 0 -257 -202 -270 -378z" />
    <glyph glyph-name="uniFEC2" unicode="&#x637;" horiz-adv-x="773" arabic-form="final" 
d="M6 0v51h149v654h64v-284c0 -62 -3 -140 -11 -201h1c49 171 167 260 290 260c121 0 192 -82 192 -227c0 -81 -25 -155 -90 -202h172v-51h-767zM218 51h199c164 0 208 92 208 195c0 112 -43 183 -137 183c-157 0 -257 -202 -270 -378z" />
    <glyph glyph-name="uniFEC3" unicode="&#x637;" horiz-adv-x="751" arabic-form="initial" 
d="M402 0h-417c-20 0 -60 9 -60 26c0 16 40 25 60 25h163v654h64v-284c0 -62 -3 -140 -11 -201h1c49 171 167 260 290 260c121 0 192 -82 192 -227c0 -135 -71 -253 -282 -253zM211 51h199c164 0 208 92 208 195c0 112 -43 183 -137 183c-157 0 -257 -202 -270 -378z" />
    <glyph glyph-name="uniFEC4" unicode="&#x637;" horiz-adv-x="766" arabic-form="medial" 
d="M766 0h-781c-20 0 -60 9 -60 26c0 16 40 25 60 25h163v654h64v-284c0 -62 -3 -140 -11 -201h1c49 171 167 260 290 260c121 0 192 -82 192 -227c0 -81 -25 -155 -90 -202h172v-51zM211 51h199c164 0 208 92 208 195c0 112 -43 183 -137 183c-157 0 -257 -202 -270 -378z
" />
    <glyph glyph-name="uni0638" unicode="&#x638;" horiz-adv-x="758" arabic-form="isolated" 
d="M6 0v51h149v654h64v-284c0 -62 -3 -140 -11 -201h1c49 171 167 260 290 260c121 0 192 -82 192 -227c0 -135 -71 -253 -282 -253h-403zM218 51h199c164 0 208 92 208 195c0 112 -43 183 -137 183c-157 0 -257 -202 -270 -378zM442 615c0 24 20 44 44 44s44 -19 44 -44
c0 -24 -20 -44 -44 -44s-44 19 -44 44z" />
    <glyph glyph-name="uniFEC6" unicode="&#x638;" horiz-adv-x="773" arabic-form="final" 
d="M6 0v51h149v654h64v-284c0 -62 -3 -140 -11 -201h1c49 171 167 260 290 260c121 0 192 -82 192 -227c0 -81 -25 -155 -90 -202h172v-51h-767zM218 51h199c164 0 208 92 208 195c0 112 -43 183 -137 183c-157 0 -257 -202 -270 -378zM442 615c0 24 20 44 44 44
s44 -19 44 -44c0 -24 -20 -44 -44 -44s-44 19 -44 44z" />
    <glyph glyph-name="uniFEC7" unicode="&#x638;" horiz-adv-x="751" arabic-form="initial" 
d="M402 0h-417c-20 0 -60 9 -60 26c0 16 40 25 60 25h163v654h64v-284c0 -62 -3 -140 -11 -201h1c49 171 167 260 290 260c121 0 192 -82 192 -227c0 -135 -71 -253 -282 -253zM211 51h199c164 0 208 92 208 195c0 112 -43 183 -137 183c-157 0 -257 -202 -270 -378z
M435 615c0 24 20 44 44 44s44 -19 44 -44c0 -24 -20 -44 -44 -44s-44 19 -44 44z" />
    <glyph glyph-name="uniFEC8" unicode="&#x638;" horiz-adv-x="766" arabic-form="medial" 
d="M-15 0c-20 0 -60 9 -60 26c0 16 40 25 60 25h163v654h64v-284c0 -62 -3 -140 -11 -201h1c49 171 167 260 290 260c121 0 192 -82 192 -227c0 -81 -25 -155 -90 -202h172v-51h-781zM211 51h211c154 4 196 94 196 195c0 112 -43 183 -137 183c-157 0 -257 -202 -270 -378z
M435 615c0 24 20 44 44 44s44 -19 44 -44c0 -24 -20 -44 -44 -44s-44 19 -44 44z" />
    <glyph glyph-name="uni0639" unicode="&#x639;" horiz-adv-x="524" arabic-form="isolated" 
d="M320 -259c-189 0 -266 76 -266 168c0 94 88 158 207 215c-80 0 -165 60 -165 167c0 111 83 192 221 192c46 0 92 -12 92 -12l-10 -53s-44 15 -87 15c-89 0 -152 -57 -152 -135c0 -140 135 -158 236 -108l32 17l22 -46l-159 -78c-114 -56 -173 -104 -173 -169
c0 -69 61 -122 210 -122c76 0 161 14 161 14l4 -49s-90 -16 -173 -16z" />
    <glyph glyph-name="uniFECA" unicode="&#x639;" horiz-adv-x="633" arabic-form="final" 
d="M320 -259c-189 0 -266 76 -266 169c0 119 139 174 260 234c-65 64 -134 133 -233 168l5 43c77 60 188 127 290 127c127 0 180 -73 180 -150c0 -92 -69 -150 -151 -197c54 -48 111 -84 186 -84h42v-51h-54c-96 0 -162 48 -226 107c-115 -57 -235 -104 -235 -193
c0 -69 61 -122 210 -122c76 0 161 14 161 14l4 -49s-90 -16 -173 -16zM147 338c90 -34 155 -104 219 -167c71 40 126 84 126 152c0 59 -36 109 -122 109c-80 0 -174 -58 -223 -94z" />
    <glyph glyph-name="uniFECB" unicode="&#x639;" horiz-adv-x="575" arabic-form="initial" 
d="M527 0h-542c-20 0 -60 9 -60 26c0 16 40 25 60 25h230c-72 28 -129 100 -129 198c0 124 78 231 236 231c73 0 135 -25 135 -25l-13 -52s-61 27 -129 27c-97 0 -166 -64 -166 -175c0 -114 86 -204 293 -204h85v-51z" />
    <glyph glyph-name="uniFECC" unicode="&#x639;" horiz-adv-x="597" arabic-form="medial" 
d="M1 0h-16c-20 0 -60 9 -60 26c0 16 40 25 60 25h18c120 0 222 28 299 70c-73 70 -146 152 -257 191l5 43c77 60 188 127 290 127c127 0 179 -73 179 -150c0 -71 -45 -151 -129 -215c48 -39 100 -66 164 -66h43v-51h-54c-83 0 -144 36 -201 85c-86 -51 -201 -85 -341 -85z
M110 338c100 -38 169 -120 241 -187c67 50 105 112 105 172c0 59 -36 109 -123 109c-79 0 -173 -58 -223 -94z" />
    <glyph glyph-name="uni063A" unicode="&#x63a;" horiz-adv-x="524" arabic-form="isolated" 
d="M320 -259c-189 0 -266 76 -266 168c0 94 88 158 207 215c-80 0 -165 60 -165 167c0 111 83 192 221 192c46 0 92 -12 92 -12l-10 -53s-44 15 -87 15c-89 0 -152 -57 -152 -135c0 -140 135 -158 236 -108l32 17l22 -46l-159 -78c-114 -56 -173 -104 -173 -169
c0 -69 61 -122 210 -122c76 0 161 14 161 14l4 -49s-90 -16 -173 -16zM232 615c0 24 20 44 44 44s44 -19 44 -44c0 -24 -20 -44 -44 -44s-44 19 -44 44z" />
    <glyph glyph-name="uniFECE" unicode="&#x63a;" horiz-adv-x="633" arabic-form="final" 
d="M320 -259c-189 0 -266 76 -266 169c0 119 139 174 260 234c-65 64 -134 133 -233 168l5 43c77 60 188 127 290 127c127 0 180 -73 180 -150c0 -92 -69 -150 -151 -197c54 -48 111 -84 186 -84h42v-51h-54c-96 0 -162 48 -226 107c-115 -57 -235 -104 -235 -193
c0 -69 61 -122 210 -122c76 0 161 14 161 14l4 -49s-90 -16 -173 -16zM147 338c90 -34 155 -104 219 -167c71 40 126 84 126 152c0 59 -36 109 -122 109c-80 0 -174 -58 -223 -94zM311 615c0 24 20 44 44 44s44 -19 44 -44c0 -24 -20 -44 -44 -44s-44 19 -44 44z" />
    <glyph glyph-name="uniFECF" unicode="&#x63a;" horiz-adv-x="575" arabic-form="initial" 
d="M527 0h-542c-20 0 -60 9 -60 26c0 16 40 25 60 25h230c-72 28 -129 100 -129 198c0 124 78 231 236 231c73 0 135 -25 135 -25l-13 -52s-61 27 -129 27c-97 0 -166 -64 -166 -175c0 -114 86 -204 293 -204h85v-51zM260 615c0 24 20 44 44 44s44 -19 44 -44
c0 -24 -20 -44 -44 -44s-44 19 -44 44z" />
    <glyph glyph-name="uniFED0" unicode="&#x63a;" horiz-adv-x="597" arabic-form="medial" 
d="M1 0h-16c-20 0 -60 9 -60 26c0 16 40 25 60 25h18c120 0 222 28 299 70c-73 70 -146 152 -257 191l5 43c77 60 188 127 290 127c127 0 179 -73 179 -150c0 -71 -45 -151 -129 -215c48 -39 100 -66 164 -66h43v-51h-54c-83 0 -144 36 -201 85c-86 -51 -201 -85 -341 -85z
M110 338c100 -38 169 -120 241 -187c67 50 105 112 105 172c0 59 -36 109 -123 109c-79 0 -173 -58 -223 -94zM275 615c0 24 20 44 44 44s44 -19 44 -44c0 -24 -20 -44 -44 -44s-44 19 -44 44z" />
    <glyph glyph-name="uni0641" unicode="&#x641;" horiz-adv-x="938" arabic-form="isolated" 
d="M871 247c0 -136 -87 -247 -234 -247h-215c-238 0 -337 93 -337 287c0 66 17 135 36 174l69 12c-25 -48 -41 -119 -41 -177c0 -160 59 -245 280 -245h70c-50 32 -77 97 -77 188c0 130 84 241 233 241c116 0 216 -60 216 -233zM806 244c0 116 -54 185 -158 185
c-83 0 -161 -57 -161 -187c0 -121 59 -191 161 -191c82 0 158 57 158 193zM607 615c0 24 20 44 44 44s44 -19 44 -44c0 -24 -20 -44 -44 -44s-44 19 -44 44z" />
    <glyph glyph-name="uniFED2" unicode="&#x641;" horiz-adv-x="949" arabic-form="final" 
d="M949 51v-51h-527c-238 0 -337 93 -337 287c0 66 17 135 36 174l69 12c-25 -48 -41 -119 -41 -177c0 -160 59 -245 280 -245h70c-50 32 -77 97 -77 188c0 130 84 241 233 241c116 0 216 -60 216 -233c0 -80 -32 -157 -91 -198c0 0 56 2 94 2h75zM806 244
c0 116 -54 185 -158 185c-83 0 -161 -57 -161 -187c0 -121 59 -191 161 -191c82 0 158 57 158 193zM607 615c0 24 20 44 44 44s44 -19 44 -44c0 -24 -20 -44 -44 -44s-44 19 -44 44z" />
    <glyph glyph-name="uniFED3" unicode="&#x641;" horiz-adv-x="624" arabic-form="initial" 
d="M533 0h-548c-20 0 -60 9 -60 26c0 16 40 25 60 25h127c35 0 59 -3 59 -3c-57 33 -86 92 -86 187c0 131 82 245 242 245c135 0 206 -76 206 -220v-260zM470 51v194c0 134 -55 184 -150 184c-105 0 -170 -73 -170 -188c0 -129 60 -190 205 -190h115zM274 615
c0 24 20 44 44 44s44 -19 44 -44c0 -24 -20 -44 -44 -44s-44 19 -44 44z" />
    <glyph glyph-name="uniFED4" unicode="&#x641;" horiz-adv-x="608" arabic-form="medial" 
d="M608 0h-623c-20 0 -60 9 -60 26c0 16 40 25 60 25h98c36 0 78 -2 78 -2c-50 32 -80 94 -80 190c0 130 84 241 233 241c116 0 217 -60 217 -233c0 -80 -33 -157 -92 -198c0 0 56 2 94 2h75v-51zM307 51c82 0 158 57 158 193c0 116 -54 185 -158 185
c-82 0 -161 -57 -161 -186c0 -122 59 -192 161 -192zM266 616c0 24 20 44 44 44s44 -19 44 -44c0 -24 -20 -44 -44 -44s-44 19 -44 44z" />
    <glyph glyph-name="uni0642" unicode="&#x642;" horiz-adv-x="903" arabic-form="isolated" 
d="M793 445v-682s-143 -14 -289 -14c-302 0 -428 87 -428 300c0 66 9 132 24 193l66 13c-18 -68 -27 -137 -27 -198c0 -187 109 -257 374 -257c103 0 217 10 217 10v190h-117c-190 0 -259 91 -259 235c0 131 82 245 243 245c105 0 196 -35 196 -35zM730 51v352
s-57 26 -140 26c-105 0 -171 -73 -171 -187c0 -130 60 -191 206 -191h105zM482 615c0 24 19 43 43 43s43 -18 43 -43c0 -24 -19 -43 -43 -43s-43 19 -43 43zM616 615c0 24 19 43 43 43s43 -18 43 -43c0 -24 -19 -43 -43 -43s-43 19 -43 43z" />
    <glyph glyph-name="uniFED6" unicode="&#x642;" horiz-adv-x="941" arabic-form="final" 
d="M793 445v-394h148v-51h-148v-237s-143 -14 -289 -14c-302 0 -428 87 -428 300c0 66 9 132 24 193l66 13c-18 -68 -27 -137 -27 -198c0 -187 109 -257 374 -257c103 0 217 10 217 10v190h-117c-190 0 -259 91 -259 235c0 131 82 245 243 245c105 0 196 -35 196 -35z
M730 51v352s-57 26 -140 26c-105 0 -171 -73 -171 -187c0 -130 60 -191 206 -191h105zM482 615c0 24 19 43 43 43s43 -18 43 -43c0 -24 -19 -43 -43 -43s-43 19 -43 43zM616 615c0 24 19 43 43 43s43 -18 43 -43c0 -24 -19 -43 -43 -43s-43 19 -43 43z" />
    <glyph glyph-name="uniFED7" unicode="&#x642;" horiz-adv-x="624" arabic-form="initial" 
d="M533 0h-548c-20 0 -60 9 -60 26c0 16 40 25 60 25h127c35 0 59 -3 59 -3c-57 33 -86 92 -86 187c0 131 82 245 242 245c135 0 206 -76 206 -220v-260zM470 51v194c0 134 -55 184 -150 184c-105 0 -170 -73 -170 -188c0 -129 60 -190 205 -190h115zM208 615
c0 24 19 43 43 43s43 -18 43 -43c0 -24 -19 -43 -43 -43s-43 19 -43 43zM342 615c0 24 19 43 43 43s43 -18 43 -43c0 -24 -19 -43 -43 -43s-43 19 -43 43z" />
    <glyph glyph-name="uniFED8" unicode="&#x642;" horiz-adv-x="608" arabic-form="medial" 
d="M608 0h-623c-20 0 -60 9 -60 26c0 16 40 25 60 25h98c36 0 78 -2 78 -2c-50 32 -80 94 -80 190c0 130 84 241 233 241c116 0 217 -60 217 -233c0 -80 -33 -157 -92 -198c0 0 56 2 94 2h75v-51zM307 51c82 0 158 57 158 193c0 116 -54 185 -158 185
c-82 0 -161 -57 -161 -186c0 -122 59 -192 161 -192zM200 615c0 24 19 43 43 43s43 -18 43 -43c0 -24 -19 -43 -43 -43s-43 19 -43 43zM334 615c0 24 19 43 43 43s43 -18 43 -43c0 -24 -19 -43 -43 -43s-43 19 -43 43z" />
    <glyph glyph-name="uni0643" unicode="&#x643;" horiz-adv-x="868" arabic-form="isolated" 
d="M422 0c-238 0 -337 93 -337 287c0 66 17 135 36 174l69 12c-25 -48 -41 -119 -41 -177c0 -160 59 -245 283 -245h262v654h64v-705h-336zM332 405v43c31 0 61 -3 79 -6c-23 10 -35 35 -35 55c0 44 33 90 116 90c19 0 36 -2 51 -4l-7 -43c-12 2 -32 5 -49 5
c-40 0 -60 -19 -60 -47s23 -50 84 -50h52v-43h-231z" />
    <glyph glyph-name="uniFEDA" unicode="&#x643;" horiz-adv-x="906" arabic-form="final" 
d="M422 0c-238 0 -337 93 -337 287c0 66 17 135 36 174l69 12c-25 -48 -41 -119 -41 -177c0 -160 59 -245 283 -245h262v654h64v-654h148v-51h-484zM332 405v43c31 0 61 -3 79 -6c-23 10 -35 35 -35 55c0 44 33 90 116 90c19 0 36 -2 51 -4l-7 -43c-12 2 -32 5 -49 5
c-40 0 -60 -19 -60 -47s23 -50 84 -50h52v-43h-231z" />
    <glyph glyph-name="uniFEDB" unicode="&#x643;" horiz-adv-x="455" arabic-form="initial" 
d="M360 0h-375c-20 0 -60 9 -60 26c0 16 40 25 60 25h311c0 225 -87 325 -274 384v48l367 231v-65l-291 -181c170 -69 262 -181 262 -429v-39z" />
    <glyph glyph-name="uniFEDC" unicode="&#x643;" horiz-adv-x="445" arabic-form="medial" 
d="M-15 0c-20 0 -60 9 -60 26c0 16 40 25 60 25h311c0 225 -87 325 -274 384v48l367 231v-65l-291 -181c167 -68 259 -178 262 -417h85v-51h-460z" />
    <glyph glyph-name="uni0644" unicode="&#x644;" horiz-adv-x="655" arabic-form="isolated" 
d="M481 40v665h63v-658c0 -202 -105 -278 -231 -278c-122 0 -237 67 -237 275c0 71 9 137 24 198l66 13c-18 -68 -27 -137 -27 -205c0 -184 96 -230 182 -230c85 0 160 52 160 220z" />
    <glyph glyph-name="uniFEDE" unicode="&#x644;" horiz-adv-x="683" arabic-form="final" 
d="M481 40v665h63v-654h140v-51h-142c-15 -167 -114 -231 -229 -231c-122 0 -237 67 -237 275c0 71 9 137 24 198l66 13c-18 -68 -27 -137 -27 -205c0 -184 96 -230 182 -230c85 0 160 52 160 220z" />
    <glyph glyph-name="uniFEDF" unicode="&#x644;" arabic-form="initial" 
d="M212 0h-227c-20 0 -60 9 -60 26c0 16 40 25 60 25h163v654h64v-705z" />
    <glyph glyph-name="uniFEE0" unicode="&#x644;" horiz-adv-x="360" arabic-form="medial" 
d="M360 0h-375c-20 0 -60 9 -60 26c0 16 40 25 60 25h163v654h64v-654h148v-51z" />
    <glyph glyph-name="uniFEE2" unicode="&#x645;" horiz-adv-x="652" arabic-form="final" 
d="M652 0h-293c-123 0 -166 38 -196 85v-93c0 -131 -45 -256 -221 -256l2 51c148 0 156 124 156 198v231c0 164 93 264 241 264c134 0 206 -76 206 -220v-209h105v-51zM484 51v194c0 134 -56 184 -151 184c-104 0 -170 -73 -170 -188c0 -129 60 -190 206 -190h115z" />
    <glyph glyph-name="uniFEE3" unicode="&#x645;" horiz-adv-x="624" arabic-form="initial" 
d="M533 0h-548c-20 0 -60 9 -60 26c0 16 40 25 60 25h127c35 0 59 -3 59 -3c-57 33 -86 92 -86 187c0 131 82 245 242 245c135 0 206 -76 206 -220v-260zM470 51v194c0 134 -55 184 -150 184c-105 0 -170 -73 -170 -188c0 -129 60 -190 205 -190h115z" />
    <glyph glyph-name="uniFEE4" unicode="&#x645;" horiz-adv-x="687" arabic-form="medial" 
d="M687 0h-292c-147 0 -203 42 -236 106c-12 -59 -62 -106 -145 -106h-29c-20 0 -60 9 -60 26c0 16 40 25 60 25h14c70 0 125 30 125 184c0 131 83 245 243 245c134 0 206 -76 206 -220v-209h114v-51zM510 51v194c0 134 -56 184 -151 184c-104 0 -170 -73 -170 -188
c0 -129 60 -190 206 -190h115z" />
    <glyph glyph-name="uni0646" unicode="&#x646;" horiz-adv-x="675" arabic-form="isolated" 
d="M564 470v-434c0 -179 -89 -267 -250 -267c-122 0 -238 67 -238 275c0 71 9 137 24 198l66 13c-18 -68 -27 -137 -27 -205c0 -184 96 -230 183 -230c101 0 179 52 179 213v437h63zM272 432c0 24 20 44 44 44s44 -19 44 -44c0 -24 -20 -44 -44 -44s-44 19 -44 44z" />
    <glyph glyph-name="uniFEE6" unicode="&#x646;" horiz-adv-x="713" arabic-form="final" 
d="M564 470v-419h149v-51h-151c-11 -154 -99 -231 -248 -231c-122 0 -238 67 -238 275c0 71 9 137 24 198l66 13c-18 -68 -27 -137 -27 -205c0 -184 96 -230 183 -230c101 0 179 52 179 213v437h63zM272 432c0 24 20 44 44 44s44 -19 44 -44c0 -24 -20 -44 -44 -44
s-44 19 -44 44z" />
    <glyph glyph-name="uniFEE7" unicode="&#x646;" arabic-form="initial" 
d="M212 0h-227c-20 0 -60 9 -60 26c0 16 40 25 60 25h163v419h64v-470zM135 615c0 24 20 44 44 44s44 -19 44 -44c0 -24 -20 -44 -44 -44s-44 19 -44 44z" />
    <glyph glyph-name="uniFEE8" unicode="&#x646;" horiz-adv-x="360" arabic-form="medial" 
d="M-15 0c-20 0 -60 9 -60 26c0 16 40 25 60 25h163v419h64v-419h148v-51h-375zM135 615c0 24 20 44 44 44s44 -19 44 -44c0 -24 -20 -44 -44 -44s-44 19 -44 44z" />
    <glyph glyph-name="uni0647" unicode="&#x647;" horiz-adv-x="616" arabic-form="isolated" 
d="M525 0h-190c-190 0 -259 91 -259 234c0 132 83 246 243 246c134 0 206 -76 206 -220v-260zM462 51v194c0 134 -56 184 -150 184c-105 0 -171 -73 -171 -188c0 -129 60 -190 206 -190h115z" />
    <glyph glyph-name="uniFEEA" unicode="&#x647;" horiz-adv-x="663" arabic-form="final" 
d="M663 0h-328c-190 0 -259 91 -259 235c0 131 82 245 243 245c105 0 196 -35 196 -35v-394h148v-51zM452 51v352s-57 26 -140 26c-105 0 -171 -73 -171 -187c0 -130 60 -191 206 -191h105z" />
    <glyph glyph-name="uniFEEB" unicode="&#x647;" horiz-adv-x="767" arabic-form="initial" 
d="M680 0h-695c-20 0 -60 9 -60 26c0 16 40 25 60 25h151c17 0 35 -1 36 -1c-2 1 -50 34 -50 105c0 104 75 164 180 164c120 0 172 -88 172 -217v-51h144v26c0 277 -102 379 -313 379c-63 0 -147 -14 -211 -34l-8 50c66 20 152 35 229 35c235 0 365 -119 365 -423v-84z
M414 51v45c0 109 -33 174 -116 174c-73 0 -114 -42 -114 -106c0 -81 58 -113 125 -113h105z" />
    <glyph glyph-name="uniFEEC" unicode="&#x647;" horiz-adv-x="762" arabic-form="medial" 
d="M-15 0c-20 0 -60 9 -60 26c0 16 40 25 60 25h151c17 0 35 -1 36 -1c-2 1 -50 34 -50 105c0 104 75 164 180 164c120 0 172 -88 172 -217v-51h144v26c0 277 -102 379 -313 379c-63 0 -147 -14 -211 -34l-8 50c66 20 152 35 229 35c235 0 365 -119 365 -423v-33h82v-51
h-777zM414 51v45c0 109 -33 174 -116 174c-73 0 -114 -42 -114 -106c0 -81 58 -113 125 -113h105z" />
    <glyph glyph-name="uni0648" unicode="&#x648;" horiz-adv-x="625" arabic-form="isolated" 
d="M239 -254c-79 0 -159 17 -159 17l5 56s89 -22 162 -22c113 0 205 43 205 172v31h-117c-190 0 -259 91 -259 235c0 131 82 245 243 245c105 0 196 -35 196 -35v-476c0 -103 -66 -223 -276 -223zM452 51v352s-57 26 -140 26c-105 0 -171 -73 -171 -187
c0 -130 60 -191 206 -191h105z" />
    <glyph glyph-name="uniFEEE" unicode="&#x648;" horiz-adv-x="663" arabic-form="final" 
d="M239 -254c-79 0 -159 17 -159 17l5 56s89 -22 162 -22c113 0 205 43 205 172v31h-117c-190 0 -259 91 -259 235c0 131 82 245 243 245c105 0 196 -35 196 -35v-394h148v-51h-148v-31c0 -103 -66 -223 -276 -223zM452 51v352s-57 26 -140 26c-105 0 -171 -73 -171 -187
c0 -130 60 -191 206 -191h105z" />
    <glyph glyph-name="uni0649" unicode="&#x649;" horiz-adv-x="1003" arabic-form="isolated" 
d="M593 0h-171c-238 0 -337 93 -337 287c0 66 17 135 36 174l69 12c-25 -48 -41 -119 -41 -177c0 -160 59 -245 283 -245h98v410s83 19 169 19c161 0 218 -80 218 -217v-143h-63v132c0 127 -50 177 -164 177c-47 0 -97 -10 -97 -10v-419z" />
    <glyph glyph-name="uniFEF0" unicode="&#x649;" horiz-adv-x="1032" arabic-form="final" 
d="M593 0h-171c-238 0 -337 93 -337 287c0 66 17 135 36 174l69 12c-25 -48 -41 -119 -41 -177c0 -160 59 -245 283 -245h98v410s83 19 169 19c161 0 218 -80 218 -217v-212h115v-51h-178v252c0 127 -50 177 -164 177c-47 0 -97 -10 -97 -10v-419z" />
    <glyph glyph-name="uniFBE8" unicode="&#x649;" arabic-form="initial" 
d="M212 0h-227c-20 0 -60 9 -60 26c0 16 40 25 60 25h163v419h64v-470z" />
    <glyph glyph-name="uniFBE9" unicode="&#x649;" horiz-adv-x="360" arabic-form="medial" 
d="M360 0h-375c-20 0 -60 9 -60 26c0 16 40 25 60 25h163v419h64v-419h148v-51z" />
    <glyph glyph-name="uni064A" unicode="&#x64a;" horiz-adv-x="1003" arabic-form="isolated" 
d="M593 0h-171c-238 0 -337 93 -337 287c0 66 17 135 36 174l69 12c-25 -48 -41 -119 -41 -177c0 -160 59 -245 283 -245h98v410s83 19 169 19c161 0 218 -80 218 -217v-143h-63v132c0 127 -50 177 -164 177c-47 0 -97 -10 -97 -10v-419zM293 -148c0 24 19 44 43 44
s43 -19 43 -44c0 -23 -19 -43 -43 -43s-43 19 -43 43zM427 -148c0 24 19 44 43 44s43 -19 43 -44c0 -23 -19 -43 -43 -43s-43 19 -43 43z" />
    <glyph glyph-name="uniFEF2" unicode="&#x64a;" horiz-adv-x="1032" arabic-form="final" 
d="M593 0h-171c-238 0 -337 93 -337 287c0 66 17 135 36 174l69 12c-25 -48 -41 -119 -41 -177c0 -160 59 -245 283 -245h98v410s83 19 169 19c161 0 218 -80 218 -217v-212h115v-51h-178v252c0 127 -50 177 -164 177c-47 0 -97 -10 -97 -10v-419zM293 -148
c0 24 19 44 43 44s43 -19 43 -44c0 -23 -19 -43 -43 -43s-43 19 -43 43zM427 -148c0 24 19 44 43 44s43 -19 43 -44c0 -23 -19 -43 -43 -43s-43 19 -43 43z" />
    <glyph glyph-name="uniFEF3" unicode="&#x64a;" arabic-form="initial" 
d="M212 0h-227c-20 0 -60 9 -60 26c0 16 40 25 60 25h163v419h64v-470zM67 -148c0 24 19 44 43 44s43 -19 43 -44c0 -23 -19 -43 -43 -43s-43 19 -43 43zM201 -148c0 24 19 44 43 44s43 -19 43 -44c0 -23 -19 -43 -43 -43s-43 19 -43 43z" />
    <glyph glyph-name="uniFEF4" unicode="&#x64a;" horiz-adv-x="360" arabic-form="medial" 
d="M360 0h-375c-20 0 -60 9 -60 26c0 16 40 25 60 25h163v419h64v-419h148v-51zM69 -148c0 24 19 44 43 44s43 -19 43 -44c0 -23 -19 -43 -43 -43s-43 19 -43 43zM203 -148c0 24 19 44 43 44s43 -19 43 -44c0 -23 -19 -43 -43 -43s-43 19 -43 43z" />
    <glyph glyph-name="uni0671" unicode="&#x671;" horiz-adv-x="286" arabic-form="isolated" 
d="M122 0v605c-24 4 -57 8 -85 10v34c41 5 101 9 148 7v-656h-63zM83 786h139v12c0 59 -16 75 -46 75c-42 0 -76 -37 -93 -87zM-21 746v40h56c29 83 84 126 147 126c56 0 91 -22 91 -114v-52h-294z" />
    <glyph glyph-name="uniFB51" unicode="&#x671;" horiz-adv-x="333" arabic-form="final" 
d="M122 0v605c-24 4 -57 8 -85 10v34c41 5 101 9 148 7v-605h148v-51h-211zM-21 746v40h56c29 83 84 126 147 126c56 0 91 -22 91 -114v-52h-294zM83 786h139v12c0 59 -16 75 -46 75c-42 0 -76 -37 -93 -87z" />
    <glyph glyph-name="uni0679" unicode="&#x679;" horiz-adv-x="800" arabic-form="isolated" 
d="M690 0h-268c-238 0 -337 93 -337 287c0 66 17 135 36 174l69 12c-25 -48 -41 -119 -41 -177c0 -160 59 -245 283 -245h194v419h64v-470zM510 672c0 32 -13 57 -46 57c-57 0 -113 -73 -115 -129h75c61 0 86 28 86 72zM349 840v-87c0 -20 -2 -45 -6 -65h1
c25 47 75 82 126 82c58 0 90 -36 90 -91c0 -72 -46 -119 -144 -119h-116v280h49z" />
    <glyph glyph-name="uniFB67" unicode="&#x679;" horiz-adv-x="838" arabic-form="final" 
d="M838 0h-416c-238 0 -337 93 -337 287c0 66 17 135 36 174l69 12c-25 -48 -41 -119 -41 -177c0 -160 59 -245 283 -245h194v419h64v-419h148v-51zM349 840v-87c0 -20 -2 -45 -6 -65h1c25 47 75 82 126 82c58 0 90 -36 90 -91c0 -72 -46 -119 -144 -119h-116v280h49z
M510 672c0 32 -13 57 -46 57c-57 0 -113 -73 -115 -129h75c61 0 86 28 86 72z" />
    <glyph glyph-name="uniFB68" unicode="&#x679;" arabic-form="initial" 
d="M212 0h-227c-20 0 -60 9 -60 26c0 16 40 25 60 25h163v419h64v-470zM260 702c0 32 -13 57 -46 57c-57 0 -113 -73 -115 -129h75c61 0 86 28 86 72zM99 870v-87c0 -20 -2 -45 -6 -65h1c25 47 75 82 126 82c58 0 90 -36 90 -91c0 -72 -46 -119 -144 -119h-116v280h49z" />
    <glyph glyph-name="uniFB69" unicode="&#x679;" horiz-adv-x="360" arabic-form="medial" 
d="M105 870v-87c0 -20 -2 -45 -6 -65h1c25 47 75 82 126 82c58 0 90 -36 90 -91c0 -72 -46 -119 -144 -119h-116v280h49zM-15 0c-20 0 -60 9 -60 26c0 16 40 25 60 25h163v419h64v-419h148v-51h-375zM266 702c0 32 -13 57 -46 57c-57 0 -113 -73 -115 -129h75
c61 0 86 28 86 72z" />
    <glyph glyph-name="uni067E" unicode="&#x67e;" horiz-adv-x="800" arabic-form="isolated" 
d="M690 0h-268c-238 0 -337 93 -337 287c0 66 17 135 36 174l69 12c-25 -48 -41 -119 -41 -177c0 -160 59 -245 283 -245h194v419h64v-470zM384 -214c0 24 20 43 44 43s43 -18 43 -43c0 -24 -19 -43 -43 -43s-44 18 -44 43zM451 -113c0 24 20 43 44 43c23 0 43 -19 43 -43
s-20 -43 -43 -43c-24 0 -44 18 -44 43zM318 -113c0 24 19 43 43 43s43 -19 43 -43s-19 -43 -43 -43s-43 18 -43 43z" />
    <glyph glyph-name="uniFB57" unicode="&#x67e;" horiz-adv-x="838" arabic-form="final" 
d="M422 0c-238 0 -337 93 -337 287c0 66 17 135 36 174l69 12c-25 -48 -41 -119 -41 -177c0 -160 59 -245 283 -245h194v419h64v-419h148v-51h-416zM384 -214c0 24 20 43 44 43s43 -18 43 -43c0 -24 -19 -43 -43 -43s-44 18 -44 43zM451 -113c0 24 20 43 44 43
c23 0 43 -19 43 -43s-20 -43 -43 -43c-24 0 -44 18 -44 43zM318 -113c0 24 19 43 43 43s43 -19 43 -43s-19 -43 -43 -43s-43 18 -43 43z" />
    <glyph glyph-name="uniFB58" unicode="&#x67e;" arabic-form="initial" 
d="M212 0h-227c-20 0 -60 9 -60 26c0 16 40 25 60 25h163v419h64v-470zM133 -214c0 24 20 43 44 43s43 -18 43 -43c0 -24 -19 -43 -43 -43s-44 18 -44 43zM200 -113c0 24 20 43 44 43c23 0 43 -19 43 -43s-20 -43 -43 -43c-24 0 -44 18 -44 43zM67 -113c0 24 19 43 43 43
s43 -19 43 -43s-19 -43 -43 -43s-43 18 -43 43z" />
    <glyph glyph-name="uniFB59" unicode="&#x67e;" horiz-adv-x="360" arabic-form="medial" 
d="M360 0h-375c-20 0 -60 9 -60 26c0 16 40 25 60 25h163v419h64v-419h148v-51zM135 -214c0 24 20 43 44 43s43 -18 43 -43c0 -24 -19 -43 -43 -43s-44 18 -44 43zM202 -113c0 24 20 43 44 43c23 0 43 -19 43 -43s-20 -43 -43 -43c-24 0 -44 18 -44 43zM69 -113
c0 24 19 43 43 43s43 -19 43 -43s-19 -43 -43 -43s-43 18 -43 43z" />
    <glyph glyph-name="uni0686" unicode="&#x686;" horiz-adv-x="622" arabic-form="isolated" 
d="M520 0h-183c-186 0 -231 -59 -231 -135c0 -68 52 -115 144 -129l-12 -52c-120 16 -195 82 -195 173c0 111 73 194 299 194h122c6 43 8 83 8 122c0 169 -57 249 -235 249c-39 0 -71 -2 -108 -7v50c29 4 69 8 113 8c217 0 294 -102 294 -292c0 -47 -4 -109 -16 -181z
M334 -214c0 24 20 43 44 43s43 -18 43 -43c0 -24 -19 -43 -43 -43s-44 18 -44 43zM401 -113c0 24 20 43 44 43c23 0 43 -19 43 -43s-20 -43 -43 -43c-24 0 -44 18 -44 43zM268 -113c0 24 19 43 43 43s43 -19 43 -43s-19 -43 -43 -43s-43 18 -43 43z" />
    <glyph glyph-name="uniFB7B" unicode="&#x686;" horiz-adv-x="616" arabic-form="final" 
d="M337 0c-186 0 -231 -59 -231 -135c0 -68 52 -115 144 -129l-12 -52c-120 16 -195 82 -195 173c0 111 73 194 299 194h122c6 43 8 83 8 122c0 169 -57 249 -235 249c-39 0 -71 -2 -108 -7v50c29 4 69 8 113 8c217 0 294 -102 294 -292c0 -36 -2 -80 -9 -130h89v-51h-279z
M334 -214c0 24 20 43 44 43s43 -18 43 -43c0 -24 -19 -43 -43 -43s-44 18 -44 43zM401 -113c0 24 20 43 44 43c23 0 43 -19 43 -43s-20 -43 -43 -43c-24 0 -44 18 -44 43zM268 -113c0 24 19 43 43 43s43 -19 43 -43s-19 -43 -43 -43s-43 18 -43 43z" />
    <glyph glyph-name="uniFB7C" unicode="&#x686;" horiz-adv-x="533" arabic-form="initial" 
d="M431 0h-446c-20 0 -60 9 -60 26c0 16 40 25 60 25h391c5 43 8 83 8 122c0 169 -57 249 -236 249c-38 0 -87 -4 -125 -10v50c30 6 87 11 130 11c218 0 294 -102 294 -292c0 -47 -4 -109 -16 -181zM159 -214c0 24 20 43 44 43s43 -18 43 -43c0 -24 -19 -43 -43 -43
s-44 18 -44 43zM226 -113c0 24 20 43 44 43c23 0 43 -19 43 -43s-20 -43 -43 -43c-24 0 -44 18 -44 43zM93 -113c0 24 19 43 43 43s43 -19 43 -43s-19 -43 -43 -43s-43 18 -43 43z" />
    <glyph glyph-name="uniFB7D" unicode="&#x686;" horiz-adv-x="527" arabic-form="medial" 
d="M-15 0c-20 0 -60 9 -60 26c0 16 40 25 60 25h391c5 43 8 83 8 122c0 169 -57 249 -236 249c-38 0 -87 -4 -125 -10v50c30 6 87 11 130 11c218 0 294 -102 294 -292c0 -36 -2 -80 -9 -130h89v-51h-542zM159 -214c0 24 20 43 44 43s43 -18 43 -43c0 -24 -19 -43 -43 -43
s-44 18 -44 43zM226 -113c0 24 20 43 44 43c23 0 43 -19 43 -43s-20 -43 -43 -43c-24 0 -44 18 -44 43zM93 -113c0 24 19 43 43 43s43 -19 43 -43s-19 -43 -43 -43s-43 18 -43 43z" />
    <glyph glyph-name="uni0688" unicode="&#x688;" horiz-adv-x="552" arabic-form="isolated" 
d="M64 0v51h339c-1 209 -73 317 -264 381l17 54c217 -72 310 -195 310 -448v-38h-402zM337 702c0 32 -13 57 -46 57c-57 0 -113 -73 -115 -129h75c61 0 86 28 86 72zM176 870v-87c0 -20 -2 -45 -6 -65h1c25 47 75 82 126 82c58 0 90 -36 90 -91c0 -72 -46 -119 -144 -119
h-116v280h49z" />
    <glyph glyph-name="uniFB89" unicode="&#x688;" horiz-adv-x="543" arabic-form="final" 
d="M64 0v51h339c-1 209 -73 317 -264 381l17 54c213 -71 307 -191 310 -435h76v-51h-478zM176 870v-87c0 -20 -2 -45 -6 -65h1c25 47 75 82 126 82c58 0 90 -36 90 -91c0 -72 -46 -119 -144 -119h-116v280h49zM337 702c0 32 -13 57 -46 57c-57 0 -113 -73 -115 -129h75
c61 0 86 28 86 72z" />
    <glyph glyph-name="uni0691" unicode="&#x691;" horiz-adv-x="432" arabic-form="isolated" 
d="M100 -259c-41 0 -85 7 -118 18l10 54c35 -13 75 -21 114 -21c94 0 152 47 152 194v484h63v-475c0 -153 -58 -254 -221 -254zM367 702c0 32 -13 57 -46 57c-57 0 -113 -73 -115 -129h75c61 0 86 28 86 72zM206 870v-87c0 -20 -2 -45 -6 -65h1c25 47 75 82 126 82
c58 0 90 -36 90 -91c0 -72 -46 -119 -144 -119h-116v280h49z" />
    <glyph glyph-name="uniFB8D" unicode="&#x691;" horiz-adv-x="469" arabic-form="final" 
d="M100 -259c-41 0 -85 7 -118 18l10 54c35 -13 75 -21 114 -21c94 0 152 47 152 194v484h63v-419h149v-51h-149v-5c0 -153 -58 -254 -221 -254zM206 870v-87c0 -20 -2 -45 -6 -65h1c25 47 75 82 126 82c58 0 90 -36 90 -91c0 -72 -46 -119 -144 -119h-116v280h49zM367 702
c0 32 -13 57 -46 57c-57 0 -113 -73 -115 -129h75c61 0 86 28 86 72z" />
    <glyph glyph-name="uni0698" unicode="&#x698;" horiz-adv-x="432" arabic-form="isolated" 
d="M100 -259c-41 0 -85 7 -118 18l10 54c35 -13 75 -21 114 -21c94 0 152 47 152 194v484h63v-475c0 -153 -58 -254 -221 -254zM175 614c0 24 19 44 43 44s43 -19 43 -44c0 -23 -19 -43 -43 -43s-43 19 -43 43zM309 614c0 24 20 44 44 44s43 -19 43 -44
c0 -23 -19 -43 -43 -43s-44 19 -44 43zM242 716c0 24 20 43 44 43c23 0 43 -18 43 -43c0 -24 -20 -43 -43 -43c-24 0 -44 18 -44 43z" />
    <glyph glyph-name="uniFB8B" unicode="&#x698;" horiz-adv-x="469" arabic-form="final" 
d="M100 -259c-41 0 -85 7 -118 18l10 54c35 -13 75 -21 114 -21c94 0 152 47 152 194v484h63v-419h149v-51h-149v-5c0 -153 -58 -254 -221 -254zM309 614c0 24 20 44 44 44s43 -19 43 -44c0 -23 -19 -43 -43 -43s-44 19 -44 43zM175 614c0 24 19 44 43 44s43 -19 43 -44
c0 -23 -19 -43 -43 -43s-43 19 -43 43zM242 716c0 24 20 43 44 43c23 0 43 -18 43 -43c0 -24 -20 -43 -43 -43c-24 0 -44 18 -44 43z" />
    <glyph glyph-name="uni06A4" unicode="&#x6a4;" horiz-adv-x="938" arabic-form="isolated" 
d="M871 247c0 -136 -87 -247 -234 -247h-215c-238 0 -337 93 -337 287c0 66 17 135 36 174l69 12c-25 -48 -41 -119 -41 -177c0 -160 59 -245 280 -245h70c-50 32 -77 97 -77 188c0 130 84 241 233 241c116 0 216 -60 216 -233zM806 244c0 116 -54 185 -158 185
c-83 0 -161 -57 -161 -187c0 -121 59 -191 161 -191c82 0 158 57 158 193zM541 614c0 24 19 44 43 44s43 -19 43 -44c0 -23 -19 -43 -43 -43s-43 19 -43 43zM675 614c0 24 20 44 44 44s43 -19 43 -44c0 -23 -19 -43 -43 -43s-44 19 -44 43zM608 716c0 24 20 43 44 43
c23 0 43 -18 43 -43c0 -24 -20 -43 -43 -43c-24 0 -44 18 -44 43z" />
    <glyph glyph-name="uniFB6B" unicode="&#x6a4;" horiz-adv-x="949" arabic-form="final" 
d="M949 51v-51h-527c-238 0 -337 93 -337 287c0 66 17 135 36 174l69 12c-25 -48 -41 -119 -41 -177c0 -160 59 -245 280 -245h70c-50 32 -77 97 -77 188c0 130 84 241 233 241c116 0 216 -60 216 -233c0 -80 -32 -157 -91 -198c0 0 56 2 94 2h75zM806 244
c0 116 -54 185 -158 185c-83 0 -161 -57 -161 -187c0 -121 59 -191 161 -191c82 0 158 57 158 193zM541 614c0 24 19 44 43 44s43 -19 43 -44c0 -23 -19 -43 -43 -43s-43 19 -43 43zM675 614c0 24 20 44 44 44s43 -19 43 -44c0 -23 -19 -43 -43 -43s-44 19 -44 43zM608 716
c0 24 20 43 44 43c23 0 43 -18 43 -43c0 -24 -20 -43 -43 -43c-24 0 -44 18 -44 43z" />
    <glyph glyph-name="uniFB6C" unicode="&#x6a4;" horiz-adv-x="624" arabic-form="initial" 
d="M533 0h-548c-20 0 -60 9 -60 26c0 16 40 25 60 25h127c35 0 59 -3 59 -3c-57 33 -86 92 -86 187c0 131 82 245 242 245c135 0 206 -76 206 -220v-260zM470 51v194c0 134 -55 184 -150 184c-105 0 -170 -73 -170 -188c0 -129 60 -190 205 -190h115zM207 614
c0 24 19 44 43 44s43 -19 43 -44c0 -23 -19 -43 -43 -43s-43 19 -43 43zM341 614c0 24 20 44 44 44s43 -19 43 -44c0 -23 -19 -43 -43 -43s-44 19 -44 43zM274 716c0 24 20 43 44 43c23 0 43 -18 43 -43c0 -24 -20 -43 -43 -43c-24 0 -44 18 -44 43z" />
    <glyph glyph-name="uniFB6D" unicode="&#x6a4;" horiz-adv-x="608" arabic-form="medial" 
d="M608 0h-623c-20 0 -60 9 -60 26c0 16 40 25 60 25h98c36 0 78 -2 78 -2c-50 32 -80 94 -80 190c0 130 84 241 233 241c116 0 217 -60 217 -233c0 -80 -33 -157 -92 -198c0 0 56 2 94 2h75v-51zM307 51c82 0 158 57 158 193c0 116 -54 185 -158 185
c-82 0 -161 -57 -161 -186c0 -122 59 -192 161 -192zM200 614c0 24 19 44 43 44s43 -19 43 -44c0 -23 -19 -43 -43 -43s-43 19 -43 43zM334 614c0 24 20 44 44 44s43 -19 43 -44c0 -23 -19 -43 -43 -43s-44 19 -44 43zM267 716c0 24 20 43 44 43c23 0 43 -18 43 -43
c0 -24 -20 -43 -43 -43c-24 0 -44 18 -44 43z" />
    <glyph glyph-name="uni06A9" unicode="&#x6a9;" horiz-adv-x="870" arabic-form="isolated" 
d="M774 0h-352c-238 0 -337 93 -337 287c0 66 17 135 36 174l69 12c-25 -48 -41 -119 -41 -177c0 -160 59 -245 283 -245h279c-1 225 -88 325 -274 384v48l367 231v-65l-292 -181c171 -69 262 -181 262 -429v-39z" />
    <glyph glyph-name="uniFB8F" unicode="&#x6a9;" horiz-adv-x="860" arabic-form="final" 
d="M860 0h-438c-238 0 -337 93 -337 287c0 66 17 135 36 174l69 12c-25 -48 -41 -119 -41 -177c0 -160 59 -245 283 -245h279c-1 225 -88 325 -274 384v48l367 231v-65l-292 -181c168 -68 259 -178 262 -417h86v-51z" />
    <glyph glyph-name="uniFB90" unicode="&#x6a9;" horiz-adv-x="455" arabic-form="initial" 
d="M360 0h-375c-20 0 -60 9 -60 26c0 16 40 25 60 25h311c0 225 -87 325 -274 384v48l367 231v-65l-291 -181c170 -69 262 -181 262 -429v-39z" />
    <glyph glyph-name="uniFB91" unicode="&#x6a9;" horiz-adv-x="445" arabic-form="medial" 
d="M-15 0c-20 0 -60 9 -60 26c0 16 40 25 60 25h311c0 225 -87 325 -274 384v48l367 231v-65l-291 -181c167 -68 259 -178 262 -417h85v-51h-460z" />
    <glyph glyph-name="uni06AF" unicode="&#x6af;" horiz-adv-x="870" arabic-form="isolated" 
d="M774 0h-352c-238 0 -337 93 -337 287c0 66 17 135 36 174l69 12c-25 -48 -41 -119 -41 -177c0 -160 59 -245 283 -245h279c-1 225 -88 325 -274 384v47l367 231v-64l-292 -181c171 -69 262 -181 262 -429v-39zM437 575v62l367 231v-63z" />
    <glyph glyph-name="uniFB93" unicode="&#x6af;" horiz-adv-x="860" arabic-form="final" 
d="M422 0c-238 0 -337 93 -337 287c0 66 17 135 36 174l69 12c-25 -48 -41 -119 -41 -177c0 -160 59 -245 283 -245h279c-1 225 -88 325 -274 384v47l367 231v-64l-292 -181c168 -68 259 -178 262 -417h86v-51h-438zM437 575v62l367 231v-63z" />
    <glyph glyph-name="uniFB94" unicode="&#x6af;" horiz-adv-x="455" arabic-form="initial" 
d="M360 0h-375c-20 0 -60 9 -60 26c0 16 40 25 60 25h311c0 225 -87 325 -274 384v47l367 231v-64l-291 -181c170 -69 262 -181 262 -429v-39zM22 546v63l367 230v-62z" />
    <glyph glyph-name="uniFB95" unicode="&#x6af;" horiz-adv-x="445" arabic-form="medial" 
d="M-15 0c-20 0 -60 9 -60 26c0 16 40 25 60 25h311c0 225 -87 325 -274 384v47l367 231v-64l-291 -181c167 -68 259 -178 262 -417h85v-51h-460zM22 546v63l367 230v-62z" />
    <glyph glyph-name="uni06BA" unicode="&#x6ba;" horiz-adv-x="675" arabic-form="isolated" 
d="M564 470v-434c0 -179 -89 -267 -250 -267c-122 0 -238 67 -238 275c0 71 9 137 24 198l66 13c-18 -68 -27 -137 -27 -205c0 -184 96 -230 183 -230c101 0 179 52 179 213v437h63z" />
    <glyph glyph-name="uniFB9F" unicode="&#x6ba;" horiz-adv-x="713" arabic-form="final" 
d="M564 470v-419h149v-51h-151c-11 -154 -99 -231 -248 -231c-122 0 -238 67 -238 275c0 71 9 137 24 198l66 13c-18 -68 -27 -137 -27 -205c0 -184 96 -230 183 -230c101 0 179 52 179 213v437h63z" />
    <glyph glyph-name="uni06BE" unicode="&#x6be;" horiz-adv-x="798" arabic-form="isolated" 
d="M712 0h-682v51h138c17 0 34 -1 35 -1c-2 1 -49 34 -49 105c0 104 74 164 180 164c119 0 172 -88 172 -217v-51h143v26c0 277 -101 379 -312 379c-63 0 -148 -14 -212 -34l-8 50c66 20 152 35 230 35c235 0 365 -119 365 -423v-84zM445 51v45c0 109 -33 174 -116 174
c-73 0 -113 -42 -113 -106c0 -81 58 -113 124 -113h105z" />
    <glyph glyph-name="uniFBAB" unicode="&#x6be;" horiz-adv-x="794" arabic-form="final" 
d="M30 0v51h138c17 0 34 -1 35 -1c-2 1 -49 34 -49 105c0 104 74 164 180 164c119 0 172 -88 172 -217v-51h143v26c0 277 -101 379 -312 379c-63 0 -148 -14 -212 -34l-8 50c66 20 152 35 230 35c235 0 365 -119 365 -423v-33h82v-51h-764zM445 51v45
c0 109 -33 174 -116 174c-73 0 -113 -42 -113 -106c0 -81 58 -113 124 -113h105z" />
    <glyph glyph-name="uniFBAC" unicode="&#x6be;" horiz-adv-x="767" arabic-form="initial" 
d="M680 0h-695c-20 0 -60 9 -60 26c0 16 40 25 60 25h151c17 0 35 -1 36 -1c-2 1 -50 34 -50 105c0 104 75 164 180 164c120 0 172 -88 172 -217v-51h144v26c0 277 -102 379 -313 379c-63 0 -147 -14 -211 -34l-8 50c66 20 152 35 229 35c235 0 365 -119 365 -423v-84z
M414 51v45c0 109 -33 174 -116 174c-73 0 -114 -42 -114 -106c0 -81 58 -113 125 -113h105z" />
    <glyph glyph-name="uniFBAD" unicode="&#x6be;" horiz-adv-x="762" arabic-form="medial" 
d="M-15 0c-20 0 -60 9 -60 26c0 16 40 25 60 25h151c17 0 35 -1 36 -1c-2 1 -50 34 -50 105c0 104 75 164 180 164c120 0 172 -88 172 -217v-51h144v26c0 277 -102 379 -313 379c-63 0 -147 -14 -211 -34l-8 50c66 20 152 35 229 35c235 0 365 -119 365 -423v-33h82v-51
h-777zM414 51v45c0 109 -33 174 -116 174c-73 0 -114 -42 -114 -106c0 -81 58 -113 125 -113h105z" />
    <glyph glyph-name="uni06C0" unicode="&#x6c0;" horiz-adv-x="616" arabic-form="isolated" 
d="M525 0h-190c-190 0 -259 91 -259 234c0 132 83 246 243 246c134 0 206 -76 206 -220v-260zM462 51v194c0 134 -56 184 -150 184c-105 0 -171 -73 -171 -188c0 -129 60 -190 206 -190h115zM172 574v43c31 0 61 -3 79 -6c-23 10 -35 35 -35 55c0 44 33 90 116 90
c19 0 36 -2 51 -4l-7 -43c-12 2 -32 5 -49 5c-40 0 -60 -19 -60 -47s23 -50 84 -50h52v-43h-231z" />
    <glyph glyph-name="uniFBA5" unicode="&#x6c0;" horiz-adv-x="663" arabic-form="final" 
d="M663 0h-328c-190 0 -259 91 -259 235c0 131 82 245 243 245c105 0 196 -35 196 -35v-394h148v-51zM452 51v352s-57 26 -140 26c-105 0 -171 -73 -171 -187c0 -130 60 -191 206 -191h105zM181 574v43c31 0 61 -3 79 -6c-23 10 -35 35 -35 55c0 44 33 90 116 90
c19 0 36 -2 51 -4l-7 -43c-12 2 -32 5 -49 5c-40 0 -60 -19 -60 -47s23 -50 84 -50h52v-43h-231z" />
    <glyph glyph-name="uni06CC" unicode="&#x6cc;" horiz-adv-x="1003" arabic-form="isolated" 
d="M593 0h-171c-238 0 -337 93 -337 287c0 66 17 135 36 174l69 12c-25 -48 -41 -119 -41 -177c0 -160 59 -245 283 -245h98v410s83 19 169 19c161 0 218 -80 218 -217v-143h-63v132c0 127 -50 177 -164 177c-47 0 -97 -10 -97 -10v-419z" />
    <glyph glyph-name="uniFBFD" unicode="&#x6cc;" horiz-adv-x="1032" arabic-form="final" 
d="M593 0h-171c-238 0 -337 93 -337 287c0 66 17 135 36 174l69 12c-25 -48 -41 -119 -41 -177c0 -160 59 -245 283 -245h98v410s83 19 169 19c161 0 218 -80 218 -217v-212h115v-51h-178v252c0 127 -50 177 -164 177c-47 0 -97 -10 -97 -10v-419z" />
    <glyph glyph-name="uniFBFE" unicode="&#x6cc;" arabic-form="initial" 
d="M212 0h-227c-20 0 -60 9 -60 26c0 16 40 25 60 25h163v419h64v-470zM67 -148c0 24 19 44 43 44s43 -19 43 -44c0 -23 -19 -43 -43 -43s-43 19 -43 43zM201 -148c0 24 19 44 43 44s43 -19 43 -44c0 -23 -19 -43 -43 -43s-43 19 -43 43z" />
    <glyph glyph-name="uniFBFF" unicode="&#x6cc;" horiz-adv-x="360" arabic-form="medial" 
d="M360 0h-375c-20 0 -60 9 -60 26c0 16 40 25 60 25h163v419h64v-419h148v-51zM69 -148c0 24 19 44 43 44s43 -19 43 -44c0 -23 -19 -43 -43 -43s-43 19 -43 43zM203 -148c0 24 19 44 43 44s43 -19 43 -44c0 -23 -19 -43 -43 -43s-43 19 -43 43z" />
    <glyph glyph-name="uni06D2" unicode="&#x6d2;" horiz-adv-x="729" arabic-form="isolated" 
d="M690 0h-603c-15 233 117 480 307 480c118 0 154 -70 154 -161v-69h-63v47c0 84 -23 132 -101 132c-142 0 -234 -214 -234 -378h540v-51z" />
    <glyph glyph-name="uniFBAF" unicode="&#x6d2;" horiz-adv-x="721" arabic-form="final" 
d="M631 -320h-602c-11 194 110 371 354 371h338v-51h-346c-197 0 -283 -152 -283 -269h539v-51z" />
    <glyph glyph-name="uni06D3" unicode="&#x6d3;" horiz-adv-x="729" arabic-form="isolated" 
d="M690 0h-603c-15 233 117 480 307 480c118 0 154 -70 154 -161v-69h-63v47c0 84 -23 132 -101 132c-142 0 -234 -214 -234 -378h540v-51zM204 574v43c31 0 61 -3 79 -6c-23 10 -35 35 -35 55c0 44 33 90 116 90c19 0 36 -2 51 -4l-7 -43c-12 2 -32 5 -49 5
c-40 0 -60 -19 -60 -47s23 -50 84 -50h52v-43h-231z" />
    <glyph glyph-name="uniFBB1" unicode="&#x6d3;" horiz-adv-x="721" arabic-form="final" 
d="M631 -320h-602c-11 194 110 371 354 371h338v-51h-346c-197 0 -283 -152 -283 -269h539v-51zM95 135v43c31 0 61 -3 79 -6c-23 10 -35 35 -35 55c0 44 33 90 116 90c19 0 36 -2 51 -4l-7 -43c-12 2 -32 5 -49 5c-40 0 -60 -19 -60 -47s23 -50 84 -50h52v-43h-231z" />
    <glyph glyph-name="uni06D5.fina" unicode="&#x6d5;" horiz-adv-x="663" 
d="M663 0h-328c-190 0 -259 91 -259 235c0 131 82 245 243 245c105 0 196 -35 196 -35v-394h148v-51zM452 51v352s-57 26 -140 26c-105 0 -171 -73 -171 -187c0 -130 60 -191 206 -191h105z" />
    <glyph glyph-name="uniFE71" unicode="&#xfe71;" horiz-adv-x="316" arabic-form="medial" 
d="M-15 0v51h332v-51h-332zM45 822v40l224 32v-40zM45 907v41l224 32v-41z" />
    <glyph glyph-name="uniFE77" unicode="&#xfe77;" horiz-adv-x="316" arabic-form="medial" 
d="M-15 0v51h332v-51h-332zM46 907v41l224 32v-41z" />
    <glyph glyph-name="uniFE79" unicode="&#xfe79;" horiz-adv-x="323" arabic-form="medial" 
d="M-15 0v51h340v-51h-340zM48 821v34l77 10s-7 15 -7 35c0 45 36 77 82 77s74 -27 74 -67c0 -48 -42 -65 -91 -71zM163 870l17 2c40 5 56 15 56 39c0 19 -15 32 -36 32c-27 0 -43 -18 -43 -44c0 -18 6 -29 6 -29z" />
    <glyph glyph-name="uniFE7B" unicode="&#xfe7b;" horiz-adv-x="316" arabic-form="medial" 
d="M-15 0v51h332v-51h-332zM46 -315v41l224 32v-41z" />
    <glyph glyph-name="uniFE7D" unicode="&#xfe7d;" horiz-adv-x="323" arabic-form="medial" 
d="M-15 0v51h340v-51h-340zM160 859c-12 -21 -35 -33 -59 -33c-32 0 -55 17 -61 61l-7 47l39 7l8 -49c4 -22 12 -29 28 -29c22 1 35 18 31 42l-7 46l40 6l7 -47c4 -22 16 -34 31 -34c29 0 35 23 31 51l-7 48l40 5l7 -47c8 -49 -16 -94 -77 -94c-16 0 -35 7 -44 20z" />
    <glyph glyph-name="uniFE7F" unicode="&#xfe7f;" horiz-adv-x="316" arabic-form="medial" 
d="M-15 0v51h332v-51h-332zM114 906c0 -25 20 -39 43 -39c25 0 43 15 43 41c0 24 -19 39 -43 39s-43 -17 -43 -41zM75 904c0 44 38 76 83 76c46 0 81 -26 81 -71c0 -44 -38 -75 -84 -75c-43 0 -80 25 -80 70z" />
    <glyph glyph-name="uniFCF2" unicode="&#xfcf2;" horiz-adv-x="323" arabic-form="medial" 
d="M-15 0v51h340v-51h-340zM57 906v36l198 38v-36zM164 795c-9 -18 -28 -30 -53 -30c-26 0 -45 15 -51 52l-7 35l34 7l7 -34c4 -20 10 -27 25 -27c19 0 31 16 27 38l-6 34l33 7l7 -35c4 -21 13 -29 26 -29c24 0 32 20 27 46l-6 34l35 6l6 -36c9 -51 -18 -84 -66 -84
c-17 0 -26 4 -38 16z" />
    <glyph glyph-name="uniFCF3" unicode="&#xfcf3;" horiz-adv-x="323" arabic-form="medial" 
d="M-15 0v51h340v-51h-340zM167 713c-9 -18 -28 -31 -53 -31c-27 0 -45 15 -52 52l-7 36l35 6l7 -34c4 -19 10 -26 25 -26c19 0 30 16 26 38l-6 34l34 7l7 -35c4 -21 12 -29 26 -29c24 0 32 21 27 46l-7 34l36 7l6 -35c10 -53 -18 -86 -66 -86c-16 0 -26 4 -38 16zM48 812
v36l72 15s-8 17 -8 38c0 48 37 79 86 79c40 0 69 -26 69 -65c0 -47 -37 -64 -86 -74zM159 871l16 3c39 8 54 19 54 39s-14 32 -34 32c-28 0 -43 -17 -43 -43c0 -19 7 -31 7 -31z" />
    <glyph glyph-name="uniFCF4" unicode="&#xfcf4;" horiz-adv-x="323" arabic-form="medial" 
d="M-15 0v51h340v-51h-340zM64 758v35l199 36v-36zM156 876c-10 -18 -29 -30 -53 -30c-27 0 -45 15 -52 52l-7 35l35 7l6 -34c4 -20 11 -27 26 -27c19 0 30 16 26 38l-6 34l34 7l7 -35c4 -21 12 -29 26 -29c24 0 31 20 27 46l-6 34l35 6l6 -36c9 -51 -18 -84 -66 -84
c-17 0 -27 4 -38 16z" />
    <glyph glyph-name="uniFE70" unicode="&#xfe70;" horiz-adv-x="430" arabic-form="isolated" 
d="M102 822v40l224 32v-40zM102 907v41l224 32v-41z" />
    <glyph glyph-name="uniFE72" unicode="&#xfe72;" horiz-adv-x="475" arabic-form="isolated" 
d="M148 812l-25 114l38 8l16 -81l44 10s-8 17 -8 38c0 48 38 79 86 79c40 0 70 -26 70 -65c0 -47 -38 -64 -86 -74zM261 871l15 3c40 8 54 19 54 39s-13 32 -34 32c-28 0 -43 -17 -43 -43c0 -19 8 -31 8 -31z" />
    <glyph glyph-name="uniFE74" unicode="&#xfe74;" horiz-adv-x="430" arabic-form="isolated" 
d="M103 -320v40l224 32v-40zM103 -235v41l224 32v-41z" />
    <glyph glyph-name="uniFE76" unicode="&#xfe76;" horiz-adv-x="429" arabic-form="isolated" 
d="M102 907v41l224 32v-41z" />
    <glyph glyph-name="uniFE78" unicode="&#xfe78;" horiz-adv-x="432" arabic-form="isolated" 
d="M104 821v34l77 10s-7 15 -7 35c0 45 36 77 82 77s74 -27 74 -67c0 -48 -42 -65 -91 -71zM219 870l17 2c40 5 56 15 56 39c0 19 -15 32 -36 32c-27 0 -43 -18 -43 -44c0 -18 6 -29 6 -29z" />
    <glyph glyph-name="uniFE7A" unicode="&#xfe7a;" horiz-adv-x="429" arabic-form="isolated" 
d="M102 -316v41l224 32v-41z" />
    <glyph glyph-name="uniFE7C" unicode="&#xfe7c;" horiz-adv-x="455" arabic-form="isolated" 
d="M229 859c-12 -21 -35 -33 -59 -33c-32 0 -55 17 -61 61l-7 47l39 7l8 -49c4 -22 12 -29 28 -29c22 1 35 18 31 42l-7 46l40 6l7 -47c4 -22 16 -34 31 -34c29 0 35 23 31 51l-7 48l40 5l7 -47c8 -49 -16 -94 -77 -94c-16 0 -35 7 -44 20z" />
    <glyph glyph-name="uniFE7E" unicode="&#xfe7e;" horiz-adv-x="370" arabic-form="isolated" 
d="M142 906c0 -25 20 -39 43 -39c25 0 43 15 43 41c0 24 -19 39 -43 39s-43 -17 -43 -41zM103 904c0 44 38 76 83 76c46 0 81 -26 81 -71c0 -44 -38 -75 -84 -75c-43 0 -80 25 -80 70z" />
    <glyph glyph-name="uniFC5E" unicode="&#xfc5e;" horiz-adv-x="473" arabic-form="isolated" 
d="M137 809l-25 117l38 8l18 -84l49 10s-7 19 -7 37c0 48 36 83 86 83c39 0 65 -24 65 -61c0 -41 -28 -71 -80 -81zM254 867l25 5c30 6 43 21 43 45c0 18 -13 28 -31 28c-27 0 -43 -18 -43 -46c0 -17 6 -32 6 -32zM245 706c-9 -19 -28 -31 -53 -31c-26 0 -44 15 -51 51
l-8 36l35 7l7 -34c4 -20 10 -27 25 -27c19 0 30 16 27 38l-7 35l34 6l7 -35c4 -20 13 -28 26 -28c24 0 32 20 27 45l-6 34l35 7l6 -35c10 -52 -18 -86 -66 -86c-16 0 -26 5 -38 17z" />
    <glyph glyph-name="uniFC5F" unicode="&#xfc5f;" horiz-adv-x="449" arabic-form="isolated" 
d="M131 706v34l199 30v-34zM131 775v34l199 31v-35zM218 876c-9 -18 -29 -30 -53 -30c-27 0 -45 15 -52 52l-7 35l35 7l7 -34c3 -20 10 -27 25 -27c19 0 30 16 27 38l-6 34l33 7l7 -35c4 -21 13 -29 26 -29c24 0 32 20 27 46l-6 34l35 6l6 -36c9 -51 -18 -84 -66 -84
c-17 0 -26 4 -38 16z" />
    <glyph glyph-name="uniFC60" unicode="&#xfc60;" horiz-adv-x="436" arabic-form="isolated" 
d="M110 906v36l198 38v-36zM217 795c-9 -18 -28 -30 -53 -30c-26 0 -45 15 -51 52l-7 35l34 7l7 -34c4 -20 10 -27 25 -27c19 0 31 16 27 38l-6 34l33 7l7 -35c4 -21 13 -29 26 -29c24 0 32 20 27 46l-6 34l35 6l6 -36c9 -51 -18 -84 -66 -84c-17 0 -26 4 -38 16z" />
    <glyph glyph-name="uniFC61" unicode="&#xfc61;" horiz-adv-x="441" arabic-form="isolated" 
d="M224 713c-9 -18 -28 -31 -53 -31c-27 0 -45 15 -52 52l-7 36l35 6l7 -34c4 -19 10 -26 25 -26c19 0 30 16 26 38l-6 34l34 7l7 -35c4 -21 12 -29 26 -29c24 0 32 21 27 46l-7 34l36 7l6 -35c10 -53 -18 -86 -66 -86c-16 0 -26 4 -38 16zM105 812v36l72 15s-8 17 -8 38
c0 48 37 79 86 79c40 0 69 -26 69 -65c0 -47 -37 -64 -86 -74zM216 871l16 3c39 8 54 19 54 39s-14 32 -34 32c-28 0 -43 -17 -43 -43c0 -19 7 -31 7 -31z" />
    <glyph glyph-name="uniFC62" unicode="&#xfc62;" horiz-adv-x="436" arabic-form="isolated" 
d="M122 758v35l199 36v-36zM214 876c-10 -18 -29 -30 -53 -30c-27 0 -45 15 -52 52l-7 35l35 7l6 -34c4 -20 11 -27 26 -27c19 0 30 16 26 38l-6 34l34 7l7 -35c4 -21 12 -29 26 -29c24 0 31 20 27 46l-6 34l35 6l6 -36c9 -51 -18 -84 -66 -84c-17 0 -27 4 -38 16z" />
    <glyph glyph-name="uniFC63" unicode="&#xfc63;" horiz-adv-x="423" arabic-form="isolated" 
d="M219 896l-35 -8v92h35v-84zM210 769c-9 -19 -29 -31 -53 -31c-27 0 -45 15 -52 52l-7 36l35 6l7 -34c4 -19 10 -26 25 -26c19 0 30 16 26 38l-6 34l34 7l7 -35c4 -21 12 -29 26 -29c24 0 32 20 27 46l-7 34l36 7l6 -35c9 -53 -18 -86 -66 -86c-17 0 -26 4 -38 16z" />
    <glyph glyph-name="uni066E.init" unicode="&#x66e;" 
d="M212 0h-227c-20 0 -60 9 -60 26c0 16 40 25 60 25h163v419h64v-470z" />
    <glyph glyph-name="uni066E.medi" unicode="&#x66e;" horiz-adv-x="360" 
d="M360 0h-375c-20 0 -60 9 -60 26c0 16 40 25 60 25h163v419h64v-419h148v-51z" />
    <glyph glyph-name="uni066E.fina" unicode="&#x66e;" horiz-adv-x="838" 
d="M422 0c-238 0 -337 93 -337 287c0 66 17 135 36 174l69 12c-25 -48 -41 -119 -41 -177c0 -160 59 -245 283 -245h194v419h64v-419h148v-51h-416z" />
    <glyph glyph-name="uni066F.init" unicode="&#x66f;" horiz-adv-x="624" 
d="M533 0h-548c-20 0 -60 9 -60 26c0 16 40 25 60 25h127c35 0 59 -3 59 -3c-57 33 -86 92 -86 187c0 131 82 245 242 245c135 0 206 -76 206 -220v-260zM470 51v194c0 134 -55 184 -150 184c-105 0 -170 -73 -170 -188c0 -129 60 -190 205 -190h115z" />
    <glyph glyph-name="uni066F.medi" unicode="&#x66f;" horiz-adv-x="608" 
d="M608 0h-623c-20 0 -60 9 -60 26c0 16 40 25 60 25h98c36 0 78 -2 78 -2c-50 32 -80 94 -80 190c0 130 84 241 233 241c116 0 217 -60 217 -233c0 -80 -33 -157 -92 -198c0 0 56 2 94 2h75v-51zM307 51c82 0 158 57 158 193c0 116 -54 185 -158 185
c-82 0 -161 -57 -161 -186c0 -122 59 -192 161 -192z" />
    <glyph glyph-name="uni066F.fina" unicode="&#x66f;" horiz-adv-x="941" 
d="M793 445v-394h148v-51h-148v-237s-143 -14 -289 -14c-302 0 -428 87 -428 300c0 66 9 132 24 193l66 13c-18 -68 -27 -137 -27 -198c0 -187 109 -257 374 -257c103 0 217 10 217 10v190h-117c-190 0 -259 91 -259 235c0 131 82 245 243 245c105 0 196 -35 196 -35z
M730 51v352s-57 26 -140 26c-105 0 -171 -73 -171 -187c0 -130 60 -191 206 -191h105z" />
    <glyph glyph-name="uni0672.fina" unicode="&#x672;" horiz-adv-x="333" 
d="M122 0v605c-24 4 -57 8 -85 10v34c41 5 101 9 148 7v-605h148v-51h-211zM-13 763v44c86 9 96 -36 134 -36c-24 13 -36 34 -36 54c0 44 31 90 114 90c19 0 36 -2 51 -4l-7 -43c-12 2 -32 5 -49 5c-40 0 -59 -19 -59 -46c0 -29 22 -51 83 -51h52v-43h-103
c-96 0 -118 42 -180 30z" />
    <glyph glyph-name="uni0673.fina" unicode="&#x673;" horiz-adv-x="333" 
d="M122 0v605c-24 4 -57 8 -85 10v34c41 5 101 9 148 7v-605h148v-51h-211zM-12 -213v44c86 9 96 -36 134 -36c-24 13 -36 34 -36 54c0 44 31 90 114 90c19 0 36 -2 51 -4l-7 -43c-12 2 -32 5 -49 5c-40 0 -59 -19 -59 -46c0 -29 22 -51 83 -51h52v-43h-103
c-96 0 -118 42 -180 30z" />
    <glyph glyph-name="uni0675.fina" unicode="&#x675;" horiz-adv-x="333" 
d="M122 0v605c-24 4 -57 8 -85 10v34c41 5 101 9 148 7v-605h148v-51h-211zM142 732v43c31 0 61 -3 79 -6c-23 10 -35 35 -35 55c0 44 33 90 116 90c19 0 36 -2 51 -4l-7 -43c-12 2 -32 5 -49 5c-40 0 -60 -19 -60 -47s23 -50 84 -50h52v-43h-231z" />
    <glyph glyph-name="uni0676.fina" unicode="&#x676;" horiz-adv-x="663" 
d="M239 -254c-79 0 -159 17 -159 17l5 56s89 -22 162 -22c113 0 205 43 205 172v31h-117c-190 0 -259 91 -259 235c0 131 82 245 243 245c105 0 196 -35 196 -35v-394h148v-51h-148v-31c0 -103 -66 -223 -276 -223zM452 51v352s-57 26 -140 26c-105 0 -171 -73 -171 -187
c0 -130 60 -191 206 -191h105zM358 573v43c31 0 61 -3 79 -6c-23 10 -35 35 -35 55c0 44 33 90 116 90c19 0 36 -2 51 -4l-7 -43c-12 2 -32 5 -49 5c-40 0 -60 -19 -60 -47s23 -50 84 -50h52v-43h-231z" />
    <glyph glyph-name="uni0677.isol" unicode="&#x677;" horiz-adv-x="625" arabic-form="isolated" 
d="M62 542v44l56 11s-10 22 -10 47c0 59 45 97 105 97c49 0 85 -32 85 -79c0 -59 -46 -79 -105 -92zM166 608l19 3c48 10 66 22 66 48c0 23 -16 39 -42 39c-34 0 -53 -21 -53 -53c0 -24 10 -37 10 -37zM351 576v41c31 0 60 -2 79 -5c-23 10 -34 35 -34 54c0 43 31 89 113 89
c18 0 35 -2 49 -4l-6 -41c-12 1 -31 4 -48 4c-39 0 -60 -19 -60 -46c0 -28 23 -51 84 -51h51v-41h-228zM239 -254c-79 0 -159 17 -159 17l5 56s89 -22 162 -22c113 0 205 43 205 172v31h-117c-190 0 -259 91 -259 235c0 131 82 245 243 245c105 0 196 -35 196 -35v-476
c0 -103 -66 -223 -276 -223zM452 51v352s-57 26 -140 26c-105 0 -171 -73 -171 -187c0 -130 60 -191 206 -191h105z" />
    <glyph glyph-name="uni0678.fina" unicode="&#x678;" horiz-adv-x="1032" 
d="M593 0h-171c-238 0 -337 93 -337 287c0 66 17 135 36 174l69 12c-25 -48 -41 -119 -41 -177c0 -160 59 -245 283 -245h98v410s83 19 169 19c161 0 218 -80 218 -217v-212h115v-51h-178v252c0 127 -50 177 -164 177c-47 0 -97 -10 -97 -10v-419zM573 574v43
c31 0 61 -3 79 -6c-23 10 -35 35 -35 55c0 44 33 90 116 90c19 0 36 -2 51 -4l-7 -43c-12 2 -32 5 -49 5c-40 0 -60 -19 -60 -47s23 -50 84 -50h52v-43h-231z" />
    <glyph glyph-name="uni067A" unicode="&#x67a;" horiz-adv-x="800" arabic-form="isolated" 
d="M690 0h-268c-238 0 -337 93 -337 287c0 66 17 135 36 174l69 12c-25 -48 -41 -119 -41 -177c0 -160 59 -245 283 -245h194v419h64v-470zM415 572c-24 0 -44 18 -44 43c0 24 20 43 44 43s43 -18 43 -43c0 -24 -19 -43 -43 -43zM415 705c-24 0 -44 19 -44 43s20 44 44 44
c23 0 43 -19 43 -44c0 -23 -20 -43 -43 -43z" />
    <glyph glyph-name="uniFB5F" unicode="&#x67a;" horiz-adv-x="838" arabic-form="final" 
d="M422 0c-238 0 -337 93 -337 287c0 66 17 135 36 174l69 12c-25 -48 -41 -119 -41 -177c0 -160 59 -245 283 -245h194v419h64v-419h148v-51h-416zM415 705c-24 0 -44 19 -44 43s20 44 44 44c23 0 43 -19 43 -44c0 -23 -20 -43 -43 -43zM415 572c-24 0 -44 18 -44 43
c0 24 20 43 44 43s43 -18 43 -43c0 -24 -19 -43 -43 -43z" />
    <glyph glyph-name="uniFB60" unicode="&#x67a;" arabic-form="initial" 
d="M212 0h-227c-20 0 -60 9 -60 26c0 16 40 25 60 25h163v419h64v-470zM181 572c-24 0 -44 18 -44 43c0 24 20 43 44 43s43 -18 43 -43c0 -24 -19 -43 -43 -43zM181 705c-24 0 -44 19 -44 43s20 44 44 44c23 0 43 -19 43 -44c0 -23 -20 -43 -43 -43z" />
    <glyph glyph-name="uniFB61" unicode="&#x67a;" horiz-adv-x="360" arabic-form="medial" 
d="M-15 0c-20 0 -60 9 -60 26c0 16 40 25 60 25h163v419h64v-419h148v-51h-375zM181 705c-24 0 -44 19 -44 43s20 44 44 44c23 0 43 -19 43 -44c0 -23 -20 -43 -43 -43zM181 572c-24 0 -44 18 -44 43c0 24 20 43 44 43s43 -18 43 -43c0 -24 -19 -43 -43 -43z" />
    <glyph glyph-name="uni067B" unicode="&#x67b;" horiz-adv-x="800" arabic-form="isolated" 
d="M690 0h-268c-238 0 -337 93 -337 287c0 66 17 135 36 174l69 12c-25 -48 -41 -119 -41 -177c0 -160 59 -245 283 -245h194v419h64v-470zM414 -257c-24 0 -42 18 -42 42s18 43 42 43s43 -18 43 -43c0 -23 -19 -42 -43 -42zM414 -135c-24 0 -42 19 -42 43c0 23 18 43 42 43
s43 -19 43 -43s-19 -43 -43 -43z" />
    <glyph glyph-name="uniFB53" unicode="&#x67b;" horiz-adv-x="838" arabic-form="final" 
d="M422 0c-238 0 -337 93 -337 287c0 66 17 135 36 174l69 12c-25 -48 -41 -119 -41 -177c0 -160 59 -245 283 -245h194v419h64v-419h148v-51h-416zM414 -135c-24 0 -42 19 -42 43c0 23 18 43 42 43s43 -19 43 -43s-19 -43 -43 -43zM414 -257c-24 0 -42 18 -42 42
s18 43 42 43s43 -18 43 -43c0 -23 -19 -42 -43 -42z" />
    <glyph glyph-name="uniFB54" unicode="&#x67b;" arabic-form="initial" 
d="M212 0h-227c-20 0 -60 9 -60 26c0 16 40 25 60 25h163v419h64v-470zM172 -257c-24 0 -42 18 -42 42s18 43 42 43s43 -18 43 -43c0 -23 -19 -42 -43 -42zM172 -135c-24 0 -42 19 -42 43c0 23 18 43 42 43s43 -19 43 -43s-19 -43 -43 -43z" />
    <glyph glyph-name="uniFB55" unicode="&#x67b;" horiz-adv-x="360" arabic-form="medial" 
d="M-15 0c-20 0 -60 9 -60 26c0 16 40 25 60 25h163v419h64v-419h148v-51h-375zM180 -135c-24 0 -42 19 -42 43c0 23 18 43 42 43s43 -19 43 -43s-19 -43 -43 -43zM180 -257c-24 0 -42 18 -42 42s18 43 42 43s43 -18 43 -43c0 -23 -19 -42 -43 -42z" />
    <glyph glyph-name="uni067C.init" unicode="&#x67c;" 
d="M172 -42c0 -47 -31 -85 -82 -85c-41 0 -76 23 -76 81c0 17 4 33 11 46h-40c-20 0 -60 9 -60 26c0 16 40 25 60 25h163v419h64v-470h-49c6 -11 9 -25 9 -42zM67 615c0 24 19 43 43 43s43 -18 43 -43c0 -24 -19 -43 -43 -43s-43 19 -43 43zM201 615c0 24 19 43 43 43
s43 -18 43 -43c0 -24 -19 -43 -43 -43s-43 19 -43 43zM125 -44c0 28 -11 43 -29 44h-3c-15 0 -31 -14 -31 -44c0 -29 12 -44 31 -44c16 0 32 15 32 44z" />
    <glyph glyph-name="uni067C.medi" unicode="&#x67c;" horiz-adv-x="360" 
d="M260 -42c0 -47 -31 -85 -82 -85c-41 0 -76 23 -76 81c0 17 4 33 11 46h-128c-20 0 -60 9 -60 26c0 16 40 25 60 25h163v419h64v-419h148v-51h-109c6 -11 9 -25 9 -42zM201 615c0 24 19 43 43 43s43 -18 43 -43c0 -24 -19 -43 -43 -43s-43 19 -43 43zM67 615
c0 24 19 43 43 43s43 -18 43 -43c0 -24 -19 -43 -43 -43s-43 19 -43 43zM213 -44c0 28 -11 43 -29 44h-3c-15 0 -31 -14 -31 -44c0 -29 12 -44 31 -44c16 0 32 15 32 44z" />
    <glyph glyph-name="uni067C.fina" unicode="&#x67c;" horiz-adv-x="838" 
d="M567 -42c0 -47 -31 -85 -82 -85c-41 0 -76 23 -76 81c0 17 4 33 11 46c-237 0 -335 93 -335 287c0 66 17 135 36 174l69 12c-25 -48 -41 -119 -41 -177c0 -160 59 -245 283 -245h194v419h64v-419h148v-51h-280c6 -11 9 -25 9 -42zM438 615c0 24 19 43 43 43
s43 -18 43 -43c0 -24 -19 -43 -43 -43s-43 19 -43 43zM304 615c0 24 19 43 43 43s43 -18 43 -43c0 -24 -19 -43 -43 -43s-43 19 -43 43zM520 -44c0 29 -12 44 -32 44c-15 0 -31 -14 -31 -44c0 -29 12 -44 31 -44c16 0 32 15 32 44z" />
    <glyph glyph-name="uni067D.init" unicode="&#x67d;" 
d="M212 0h-227c-20 0 -60 9 -60 26c0 16 40 25 60 25h163v419h64v-470zM177 657c24 0 44 -19 44 -43s-20 -43 -44 -43c-23 0 -43 18 -43 43c0 23 20 43 43 43zM110 758c24 0 43 -18 43 -43c0 -24 -19 -43 -43 -43s-43 18 -43 43c0 24 19 43 43 43zM245 758
c23 0 43 -18 43 -43c0 -24 -20 -43 -43 -43c-24 0 -44 18 -44 43c0 24 20 43 44 43z" />
    <glyph glyph-name="uni067D.medi" unicode="&#x67d;" horiz-adv-x="360" 
d="M360 0h-375c-20 0 -60 9 -60 26c0 16 40 25 60 25h163v419h64v-419h148v-51zM245 758c23 0 43 -18 43 -43c0 -24 -20 -43 -43 -43c-24 0 -44 18 -44 43c0 24 20 43 44 43zM177 657c24 0 44 -19 44 -43s-20 -43 -44 -43c-23 0 -43 18 -43 43c0 23 20 43 43 43zM110 758
c24 0 43 -18 43 -43c0 -24 -19 -43 -43 -43s-43 18 -43 43c0 24 19 43 43 43z" />
    <glyph glyph-name="uni067D.fina" unicode="&#x67d;" horiz-adv-x="838" 
d="M838 0h-416c-238 0 -337 93 -337 287c0 66 17 135 36 174l69 12c-25 -48 -41 -119 -41 -177c0 -160 59 -245 283 -245h194v419h64v-419h148v-51zM482 758c23 0 43 -18 43 -43c0 -24 -20 -43 -43 -43c-24 0 -44 18 -44 43c0 24 20 43 44 43zM414 657c24 0 44 -19 44 -43
s-20 -43 -44 -43c-23 0 -43 18 -43 43c0 23 20 43 43 43zM347 758c24 0 43 -18 43 -43c0 -24 -19 -43 -43 -43s-43 18 -43 43c0 24 19 43 43 43z" />
    <glyph glyph-name="uni067F" unicode="&#x67f;" horiz-adv-x="800" arabic-form="isolated" 
d="M690 0h-268c-238 0 -337 93 -337 287c0 66 17 135 36 174l69 12c-25 -48 -41 -119 -41 -177c0 -160 59 -245 283 -245h194v419h64v-470zM481 572c-23 0 -43 19 -43 43s20 43 43 43c24 0 43 -18 43 -43c0 -23 -19 -43 -43 -43zM348 572c-24 0 -43 19 -43 43s19 43 43 43
c23 0 43 -18 43 -43c0 -23 -20 -43 -43 -43zM481 706c-23 0 -43 18 -43 43c0 23 20 43 43 43c24 0 43 -19 43 -43s-19 -43 -43 -43zM348 706c-24 0 -43 18 -43 43c0 23 19 43 43 43c23 0 43 -19 43 -43s-20 -43 -43 -43z" />
    <glyph glyph-name="uniFB63" unicode="&#x67f;" horiz-adv-x="838" arabic-form="final" 
d="M422 0c-238 0 -337 93 -337 287c0 66 17 135 36 174l69 12c-25 -48 -41 -119 -41 -177c0 -160 59 -245 283 -245h194v419h64v-419h148v-51h-416zM348 706c-24 0 -43 18 -43 43c0 23 19 43 43 43c23 0 43 -19 43 -43s-20 -43 -43 -43zM481 572c-23 0 -43 19 -43 43
s20 43 43 43c24 0 43 -18 43 -43c0 -23 -19 -43 -43 -43zM348 572c-24 0 -43 19 -43 43s19 43 43 43c23 0 43 -18 43 -43c0 -23 -20 -43 -43 -43zM481 706c-23 0 -43 18 -43 43c0 23 20 43 43 43c24 0 43 -19 43 -43s-19 -43 -43 -43z" />
    <glyph glyph-name="uniFB64" unicode="&#x67f;" arabic-form="initial" 
d="M212 0h-227c-20 0 -60 9 -60 26c0 16 40 25 60 25h163v419h64v-470zM246 572c-23 0 -43 19 -43 43s20 43 43 43c24 0 43 -18 43 -43c0 -23 -19 -43 -43 -43zM113 572c-24 0 -43 19 -43 43s19 43 43 43c23 0 43 -18 43 -43c0 -23 -20 -43 -43 -43zM246 706
c-23 0 -43 18 -43 43c0 23 20 43 43 43c24 0 43 -19 43 -43s-19 -43 -43 -43zM113 706c-24 0 -43 18 -43 43c0 23 19 43 43 43c23 0 43 -19 43 -43s-20 -43 -43 -43z" />
    <glyph glyph-name="uniFB65" unicode="&#x67f;" horiz-adv-x="360" arabic-form="medial" 
d="M360 0h-375c-20 0 -60 9 -60 26c0 16 40 25 60 25h163v419h64v-419h148v-51zM246 572c-23 0 -43 19 -43 43s20 43 43 43c24 0 43 -18 43 -43c0 -23 -19 -43 -43 -43zM113 706c-24 0 -43 18 -43 43c0 23 19 43 43 43c23 0 43 -19 43 -43s-20 -43 -43 -43zM246 706
c-23 0 -43 18 -43 43c0 23 20 43 43 43c24 0 43 -19 43 -43s-19 -43 -43 -43zM113 572c-24 0 -43 19 -43 43s19 43 43 43c23 0 43 -18 43 -43c0 -23 -20 -43 -43 -43z" />
    <glyph glyph-name="uni0680" unicode="&#x680;" horiz-adv-x="800" arabic-form="isolated" 
d="M690 0h-268c-238 0 -337 93 -337 287c0 66 17 135 36 174l69 12c-25 -48 -41 -119 -41 -177c0 -160 59 -245 283 -245h194v419h64v-470zM362 -257c-24 0 -43 18 -43 42s19 43 43 43c23 0 42 -18 42 -43c0 -23 -19 -42 -42 -42zM362 -135c-24 0 -43 19 -43 43
c0 23 19 42 43 42c23 0 42 -18 42 -42s-19 -43 -42 -43zM484 -257c-23 0 -42 18 -42 42s19 43 42 43c24 0 43 -18 43 -43c0 -23 -19 -42 -43 -42zM484 -135c-23 0 -42 19 -42 43c0 23 19 42 42 42c24 0 43 -18 43 -42s-19 -43 -43 -43z" />
    <glyph glyph-name="uniFB5B" unicode="&#x680;" horiz-adv-x="838" arabic-form="final" 
d="M838 0h-416c-238 0 -337 93 -337 287c0 66 17 135 36 174l69 12c-25 -48 -41 -119 -41 -177c0 -160 59 -245 283 -245h194v419h64v-419h148v-51zM362 -257c-24 0 -43 18 -43 42s19 43 43 43c23 0 42 -18 42 -43c0 -23 -19 -42 -42 -42zM484 -257c-23 0 -42 18 -42 42
s19 43 42 43c24 0 43 -18 43 -43c0 -23 -19 -42 -43 -42zM484 -135c-23 0 -42 19 -42 43c0 23 19 42 42 42c24 0 43 -18 43 -42s-19 -43 -43 -43zM362 -135c-24 0 -43 19 -43 43c0 23 19 42 43 42c23 0 42 -18 42 -42s-19 -43 -42 -43z" />
    <glyph glyph-name="uniFB5C" unicode="&#x680;" arabic-form="initial" 
d="M212 0h-227c-20 0 -60 9 -60 26c0 16 40 25 60 25h163v419h64v-470zM118 -257c-24 0 -43 18 -43 42s19 43 43 43c23 0 42 -18 42 -43c0 -23 -19 -42 -42 -42zM118 -135c-24 0 -43 19 -43 43c0 23 19 42 43 42c23 0 42 -18 42 -42s-19 -43 -42 -43zM240 -257
c-23 0 -42 18 -42 42s19 43 42 43c24 0 43 -18 43 -43c0 -23 -19 -42 -43 -42zM240 -135c-23 0 -42 19 -42 43c0 23 19 42 42 42c24 0 43 -18 43 -42s-19 -43 -43 -43z" />
    <glyph glyph-name="uniFB5D" unicode="&#x680;" horiz-adv-x="360" arabic-form="medial" 
d="M-15 0c-20 0 -60 9 -60 26c0 16 40 25 60 25h163v419h64v-419h148v-51h-375zM118 -257c-24 0 -43 18 -43 42s19 43 43 43c23 0 42 -18 42 -43c0 -23 -19 -42 -42 -42zM240 -257c-23 0 -42 18 -42 42s19 43 42 43c24 0 43 -18 43 -43c0 -23 -19 -42 -43 -42zM240 -135
c-23 0 -42 19 -42 43c0 23 19 42 42 42c24 0 43 -18 43 -42s-19 -43 -43 -43zM118 -135c-24 0 -43 19 -43 43c0 23 19 42 43 42c23 0 42 -18 42 -42s-19 -43 -42 -43z" />
    <glyph glyph-name="uni0681.init" unicode="&#x681;" horiz-adv-x="533" 
d="M431 0h-446c-20 0 -60 9 -60 26c0 16 40 25 60 25h391c5 43 8 83 8 122c0 169 -57 249 -236 249c-38 0 -87 -4 -125 -10v50c30 6 87 11 130 11c218 0 294 -102 294 -292c0 -47 -4 -109 -16 -181zM64 574v43c31 0 61 -3 79 -6c-23 10 -35 35 -35 55c0 44 33 90 116 90
c19 0 36 -2 51 -4l-7 -43c-12 2 -32 5 -49 5c-40 0 -60 -19 -60 -47s23 -50 84 -50h52v-43h-231z" />
    <glyph glyph-name="uni0681.medi" unicode="&#x681;" horiz-adv-x="527" 
d="M527 0h-542c-20 0 -60 9 -60 26c0 16 40 25 60 25h391c5 43 8 83 8 122c0 169 -57 249 -236 249c-38 0 -87 -4 -125 -10v50c30 6 87 11 130 11c218 0 294 -102 294 -292c0 -36 -2 -80 -9 -130h89v-51zM64 574v43c31 0 61 -3 79 -6c-23 10 -35 35 -35 55
c0 44 33 90 116 90c19 0 36 -2 51 -4l-7 -43c-12 2 -32 5 -49 5c-40 0 -60 -19 -60 -47s23 -50 84 -50h52v-43h-231z" />
    <glyph glyph-name="uni0681.fina" unicode="&#x681;" horiz-adv-x="603" 
d="M337 0c-186 0 -231 -59 -231 -135s68 -134 205 -134c55 0 118 7 186 22l6 -50c-70 -16 -134 -23 -197 -23c-175 0 -263 77 -263 178c0 110 73 193 299 193h118c6 43 9 83 9 122c0 169 -58 249 -236 249c-39 0 -70 -2 -108 -7v50c29 4 69 8 113 8c217 0 294 -102 294 -292
c0 -36 -2 -80 -9 -130h80v-51h-266zM130 574v43c31 0 61 -3 79 -6c-23 10 -35 35 -35 55c0 44 33 90 116 90c19 0 36 -2 51 -4l-7 -43c-12 2 -32 5 -49 5c-40 0 -60 -19 -60 -47s23 -50 84 -50h52v-43h-231z" />
    <glyph glyph-name="uni0682.init" unicode="&#x682;" horiz-adv-x="533" 
d="M431 0h-446c-20 0 -60 9 -60 26c0 16 40 25 60 25h391c5 43 8 83 8 122c0 169 -57 249 -236 249c-38 0 -87 -4 -125 -10v50c30 6 87 11 130 11c218 0 294 -102 294 -292c0 -47 -4 -109 -16 -181zM177 572c-24 0 -44 18 -44 43c0 24 20 43 44 43s43 -18 43 -43
c0 -24 -19 -43 -43 -43zM177 705c-24 0 -44 19 -44 43s20 44 44 44c23 0 43 -19 43 -44c0 -23 -20 -43 -43 -43z" />
    <glyph glyph-name="uni0682.medi" unicode="&#x682;" horiz-adv-x="527" 
d="M-15 0c-20 0 -60 9 -60 26c0 16 40 25 60 25h391c5 43 8 83 8 122c0 169 -57 249 -236 249c-38 0 -87 -4 -125 -10v50c30 6 87 11 130 11c218 0 294 -102 294 -292c0 -36 -2 -80 -9 -130h89v-51h-542zM177 705c-24 0 -44 19 -44 43s20 44 44 44c23 0 43 -19 43 -44
c0 -23 -20 -43 -43 -43zM177 572c-24 0 -44 18 -44 43c0 24 20 43 44 43s43 -18 43 -43c0 -24 -19 -43 -43 -43z" />
    <glyph glyph-name="uni0682.fina" unicode="&#x682;" horiz-adv-x="603" 
d="M337 0c-186 0 -231 -59 -231 -135s68 -134 205 -134c55 0 118 7 186 22l6 -50c-70 -16 -134 -23 -197 -23c-175 0 -263 77 -263 178c0 110 73 193 299 193h118c6 43 9 83 9 122c0 169 -58 249 -236 249c-39 0 -70 -2 -108 -7v50c29 4 69 8 113 8c217 0 294 -102 294 -292
c0 -36 -2 -80 -9 -130h80v-51h-266zM273 705c-24 0 -44 19 -44 43s20 44 44 44c23 0 43 -19 43 -44c0 -23 -20 -43 -43 -43zM273 572c-24 0 -44 18 -44 43c0 24 20 43 44 43s43 -18 43 -43c0 -24 -19 -43 -43 -43z" />
    <glyph glyph-name="uni0683" unicode="&#x683;" horiz-adv-x="622" arabic-form="isolated" 
d="M520 0h-183c-186 0 -231 -59 -231 -135c0 -68 52 -115 144 -129l-12 -52c-120 16 -195 82 -195 173c0 111 73 194 299 194h122c6 43 8 83 8 122c0 169 -57 249 -235 249c-39 0 -71 -2 -108 -7v50c29 4 69 8 113 8c217 0 294 -102 294 -292c0 -47 -4 -109 -16 -181z
M242 -148c0 24 19 44 43 44s43 -19 43 -44c0 -23 -19 -43 -43 -43s-43 19 -43 43zM376 -148c0 24 19 44 43 44s43 -19 43 -44c0 -23 -19 -43 -43 -43s-43 19 -43 43z" />
    <glyph glyph-name="uniFB77" unicode="&#x683;" horiz-adv-x="616" arabic-form="final" 
d="M616 0h-279c-186 0 -231 -59 -231 -135c0 -68 52 -115 144 -129l-12 -52c-120 16 -195 82 -195 173c0 111 73 194 299 194h122c6 43 8 83 8 122c0 169 -57 249 -235 249c-39 0 -71 -2 -108 -7v50c29 4 69 8 113 8c217 0 294 -102 294 -292c0 -36 -2 -80 -9 -130h89v-51z
M375 -148c0 24 19 44 43 44s43 -19 43 -44c0 -23 -19 -43 -43 -43s-43 19 -43 43zM241 -148c0 24 19 44 43 44s43 -19 43 -44c0 -23 -19 -43 -43 -43s-43 19 -43 43z" />
    <glyph glyph-name="uniFB78" unicode="&#x683;" horiz-adv-x="533" arabic-form="initial" 
d="M431 0h-446c-20 0 -60 9 -60 26c0 16 40 25 60 25h391c5 43 8 83 8 122c0 169 -57 249 -236 249c-38 0 -87 -4 -125 -10v50c30 6 87 11 130 11c218 0 294 -102 294 -292c0 -47 -4 -109 -16 -181zM107 -148c0 24 19 44 43 44s43 -19 43 -44c0 -23 -19 -43 -43 -43
s-43 19 -43 43zM241 -148c0 24 19 44 43 44s43 -19 43 -44c0 -23 -19 -43 -43 -43s-43 19 -43 43z" />
    <glyph glyph-name="uniFB79" unicode="&#x683;" horiz-adv-x="527" arabic-form="medial" 
d="M527 0h-542c-20 0 -60 9 -60 26c0 16 40 25 60 25h391c5 43 8 83 8 122c0 169 -57 249 -236 249c-38 0 -87 -4 -125 -10v50c30 6 87 11 130 11c218 0 294 -102 294 -292c0 -36 -2 -80 -9 -130h89v-51zM241 -148c0 24 19 44 43 44s43 -19 43 -44c0 -23 -19 -43 -43 -43
s-43 19 -43 43zM107 -148c0 24 19 44 43 44s43 -19 43 -44c0 -23 -19 -43 -43 -43s-43 19 -43 43z" />
    <glyph glyph-name="uni0684" unicode="&#x684;" horiz-adv-x="622" arabic-form="isolated" 
d="M520 0h-183c-186 0 -231 -59 -231 -135c0 -68 52 -115 144 -129l-12 -52c-120 16 -195 82 -195 173c0 111 73 194 299 194h122c6 43 8 83 8 122c0 169 -57 249 -235 249c-39 0 -71 -2 -108 -7v50c29 4 69 8 113 8c217 0 294 -102 294 -292c0 -47 -4 -109 -16 -181z
M355 -257c-24 0 -42 18 -42 42s18 43 42 43s43 -18 43 -43c0 -23 -19 -42 -43 -42zM355 -135c-24 0 -42 19 -42 43c0 23 18 43 42 43s43 -19 43 -43s-19 -43 -43 -43z" />
    <glyph glyph-name="uniFB73" unicode="&#x684;" horiz-adv-x="616" arabic-form="final" 
d="M616 0h-279c-186 0 -231 -59 -231 -135c0 -68 52 -115 144 -129l-12 -52c-120 16 -195 82 -195 173c0 111 73 194 299 194h122c6 43 8 83 8 122c0 169 -57 249 -235 249c-39 0 -71 -2 -108 -7v50c29 4 69 8 113 8c217 0 294 -102 294 -292c0 -36 -2 -80 -9 -130h89v-51z
M355 -135c-24 0 -42 19 -42 43c0 23 18 43 42 43s43 -19 43 -43s-19 -43 -43 -43zM355 -257c-24 0 -42 18 -42 42s18 43 42 43s43 -18 43 -43c0 -23 -19 -42 -43 -42z" />
    <glyph glyph-name="uniFB74" unicode="&#x684;" horiz-adv-x="533" arabic-form="initial" 
d="M431 0h-446c-20 0 -60 9 -60 26c0 16 40 25 60 25h391c5 43 8 83 8 122c0 169 -57 249 -236 249c-38 0 -87 -4 -125 -10v50c30 6 87 11 130 11c218 0 294 -102 294 -292c0 -47 -4 -109 -16 -181zM182 -257c-24 0 -42 18 -42 42s18 43 42 43s43 -18 43 -43
c0 -23 -19 -42 -43 -42zM182 -135c-24 0 -42 19 -42 43c0 23 18 43 42 43s43 -19 43 -43s-19 -43 -43 -43z" />
    <glyph glyph-name="uniFB75" unicode="&#x684;" horiz-adv-x="527" arabic-form="medial" 
d="M527 0h-542c-20 0 -60 9 -60 26c0 16 40 25 60 25h391c5 43 8 83 8 122c0 169 -57 249 -236 249c-38 0 -87 -4 -125 -10v50c30 6 87 11 130 11c218 0 294 -102 294 -292c0 -36 -2 -80 -9 -130h89v-51zM182 -135c-24 0 -42 19 -42 43c0 23 18 43 42 43s43 -19 43 -43
s-19 -43 -43 -43zM182 -257c-24 0 -42 18 -42 42s18 43 42 43s43 -18 43 -43c0 -23 -19 -42 -43 -42z" />
    <glyph glyph-name="uni0685.init" unicode="&#x685;" horiz-adv-x="533" 
d="M431 0h-446c-20 0 -60 9 -60 26c0 16 40 25 60 25h391c5 43 8 83 8 122c0 169 -57 249 -236 249c-38 0 -87 -4 -125 -10v50c30 6 87 11 130 11c218 0 294 -102 294 -292c0 -47 -4 -109 -16 -181zM67 614c0 24 19 44 43 44s43 -19 43 -44c0 -23 -19 -43 -43 -43
s-43 19 -43 43zM201 614c0 24 20 44 44 44s43 -19 43 -44c0 -23 -19 -43 -43 -43s-44 19 -44 43zM134 716c0 24 20 43 44 43c23 0 43 -18 43 -43c0 -24 -20 -43 -43 -43c-24 0 -44 18 -44 43z" />
    <glyph glyph-name="uni0685.medi" unicode="&#x685;" horiz-adv-x="527" 
d="M527 0h-542c-20 0 -60 9 -60 26c0 16 40 25 60 25h391c5 43 8 83 8 122c0 169 -57 249 -236 249c-38 0 -87 -4 -125 -10v50c30 6 87 11 130 11c218 0 294 -102 294 -292c0 -36 -2 -80 -9 -130h89v-51zM201 614c0 24 20 44 44 44s43 -19 43 -44c0 -23 -19 -43 -43 -43
s-44 19 -44 43zM67 614c0 24 19 44 43 44s43 -19 43 -44c0 -23 -19 -43 -43 -43s-43 19 -43 43zM134 716c0 24 20 43 44 43c23 0 43 -18 43 -43c0 -24 -20 -43 -43 -43c-24 0 -44 18 -44 43z" />
    <glyph glyph-name="uni0685.fina" unicode="&#x685;" horiz-adv-x="603" 
d="M337 0c-186 0 -231 -59 -231 -135s68 -134 205 -134c55 0 118 7 186 22l6 -50c-70 -16 -134 -23 -197 -23c-175 0 -263 77 -263 178c0 110 73 193 299 193h118c6 43 9 83 9 122c0 169 -58 249 -236 249c-39 0 -70 -2 -108 -7v50c29 4 69 8 113 8c217 0 294 -102 294 -292
c0 -36 -2 -80 -9 -130h80v-51h-266zM297 614c0 24 20 44 44 44s43 -19 43 -44c0 -23 -19 -43 -43 -43s-44 19 -44 43zM163 614c0 24 19 44 43 44s43 -19 43 -44c0 -23 -19 -43 -43 -43s-43 19 -43 43zM230 716c0 24 20 43 44 43c23 0 43 -18 43 -43c0 -24 -20 -43 -43 -43
c-24 0 -44 18 -44 43z" />
    <glyph glyph-name="uni0687" unicode="&#x687;" horiz-adv-x="622" arabic-form="isolated" 
d="M520 0h-183c-186 0 -231 -59 -231 -135c0 -68 52 -115 144 -129l-12 -52c-120 16 -195 82 -195 173c0 111 73 194 299 194h122c6 43 8 83 8 122c0 169 -57 249 -235 249c-39 0 -71 -2 -108 -7v50c29 4 69 8 113 8c217 0 294 -102 294 -292c0 -47 -4 -109 -16 -181z
M320 -257c-24 0 -43 18 -43 42s19 43 43 43c23 0 42 -18 42 -43c0 -23 -19 -42 -42 -42zM320 -135c-24 0 -43 19 -43 43c0 23 19 42 43 42c23 0 42 -18 42 -42s-19 -43 -42 -43zM442 -257c-23 0 -42 18 -42 42s19 43 42 43c24 0 43 -18 43 -43c0 -23 -19 -42 -43 -42z
M442 -135c-23 0 -42 19 -42 43c0 23 19 42 42 42c24 0 43 -18 43 -42s-19 -43 -43 -43z" />
    <glyph glyph-name="uniFB7F" unicode="&#x687;" horiz-adv-x="616" arabic-form="final" 
d="M616 0h-279c-186 0 -231 -59 -231 -135c0 -68 52 -115 144 -129l-12 -52c-120 16 -195 82 -195 173c0 111 73 194 299 194h122c6 43 8 83 8 122c0 169 -57 249 -235 249c-39 0 -71 -2 -108 -7v50c29 4 69 8 113 8c217 0 294 -102 294 -292c0 -36 -2 -80 -9 -130h89v-51z
M320 -257c-24 0 -43 18 -43 42s19 43 43 43c23 0 42 -18 42 -43c0 -23 -19 -42 -42 -42zM442 -257c-23 0 -42 18 -42 42s19 43 42 43c24 0 43 -18 43 -43c0 -23 -19 -42 -43 -42zM442 -135c-23 0 -42 19 -42 43c0 23 19 42 42 42c24 0 43 -18 43 -42s-19 -43 -43 -43z
M320 -135c-24 0 -43 19 -43 43c0 23 19 42 43 42c23 0 42 -18 42 -42s-19 -43 -42 -43z" />
    <glyph glyph-name="uniFB80" unicode="&#x687;" horiz-adv-x="533" arabic-form="initial" 
d="M431 0h-446c-20 0 -60 9 -60 26c0 16 40 25 60 25h391c5 43 8 83 8 122c0 169 -57 249 -236 249c-38 0 -87 -4 -125 -10v50c30 6 87 11 130 11c218 0 294 -102 294 -292c0 -47 -4 -109 -16 -181zM158 -257c-24 0 -43 18 -43 42s19 43 43 43c23 0 42 -18 42 -43
c0 -23 -19 -42 -42 -42zM158 -135c-24 0 -43 19 -43 43c0 23 19 42 43 42c23 0 42 -18 42 -42s-19 -43 -42 -43zM280 -257c-23 0 -42 18 -42 42s19 43 42 43c24 0 43 -18 43 -43c0 -23 -19 -42 -43 -42zM280 -135c-23 0 -42 19 -42 43c0 23 19 42 42 42c24 0 43 -18 43 -42
s-19 -43 -43 -43z" />
    <glyph glyph-name="uniFB81" unicode="&#x687;" horiz-adv-x="527" arabic-form="medial" 
d="M527 0h-542c-20 0 -60 9 -60 26c0 16 40 25 60 25h391c5 43 8 83 8 122c0 169 -57 249 -236 249c-38 0 -87 -4 -125 -10v50c30 6 87 11 130 11c218 0 294 -102 294 -292c0 -36 -2 -80 -9 -130h89v-51zM158 -257c-24 0 -43 18 -43 42s19 43 43 43c23 0 42 -18 42 -43
c0 -23 -19 -42 -42 -42zM280 -257c-23 0 -42 18 -42 42s19 43 42 43c24 0 43 -18 43 -43c0 -23 -19 -42 -43 -42zM280 -135c-23 0 -42 19 -42 43c0 23 19 42 42 42c24 0 43 -18 43 -42s-19 -43 -43 -43zM158 -135c-24 0 -43 19 -43 43c0 23 19 42 43 42c23 0 42 -18 42 -42
s-19 -43 -42 -43z" />
    <glyph glyph-name="uni0689.fina" unicode="&#x689;" horiz-adv-x="543" 
d="M64 0v51h339c-1 209 -73 317 -264 381l17 54c213 -71 307 -191 310 -435h76v-51h-177c6 -11 9 -25 9 -42c0 -47 -31 -85 -82 -85c-41 0 -76 23 -76 81c0 17 4 33 11 46h-163zM327 -44c0 28 -11 43 -29 44h-3c-15 0 -31 -14 -31 -44c0 -29 12 -44 31 -44c16 0 32 15 32 44
z" />
    <glyph glyph-name="uni068A.fina" unicode="&#x68a;" horiz-adv-x="543" 
d="M64 0v51h339c-1 209 -73 317 -264 381l17 54c213 -71 307 -191 310 -435h76v-51h-478zM212 -147c0 24 20 44 44 44s44 -19 44 -44c0 -24 -20 -44 -44 -44s-44 19 -44 44z" />
    <glyph glyph-name="uni068B.fina" unicode="&#x68b;" horiz-adv-x="543" 
d="M64 0v51h339c-1 209 -73 317 -264 381l17 54c213 -71 307 -191 310 -435h76v-51h-478zM176 870v-87c0 -20 -2 -45 -6 -65h1c25 47 75 82 126 82c58 0 90 -36 90 -91c0 -72 -46 -119 -144 -119h-116v280h49zM337 702c0 32 -13 57 -46 57c-57 0 -113 -73 -115 -129h75
c61 0 86 28 86 72zM212 -147c0 24 20 44 44 44s44 -19 44 -44c0 -24 -20 -44 -44 -44s-44 19 -44 44z" />
    <glyph glyph-name="uni068C" unicode="&#x68c;" horiz-adv-x="552" arabic-form="isolated" 
d="M64 0v51h339c-1 209 -73 317 -264 381l17 54c217 -72 310 -195 310 -448v-38h-402zM57 615c0 24 19 43 43 43s43 -18 43 -43c0 -24 -19 -43 -43 -43s-43 19 -43 43zM191 615c0 24 19 43 43 43s43 -18 43 -43c0 -24 -19 -43 -43 -43s-43 19 -43 43z" />
    <glyph glyph-name="uniFB85" unicode="&#x68c;" horiz-adv-x="543" arabic-form="final" 
d="M64 0v51h339c-1 209 -73 317 -264 381l17 54c213 -71 307 -191 310 -435h76v-51h-478zM191 615c0 24 19 43 43 43s43 -18 43 -43c0 -24 -19 -43 -43 -43s-43 19 -43 43zM57 615c0 24 19 43 43 43s43 -18 43 -43c0 -24 -19 -43 -43 -43s-43 19 -43 43z" />
    <glyph glyph-name="uni068D" unicode="&#x68d;" horiz-adv-x="552" arabic-form="isolated" 
d="M64 0v51h339c-1 209 -73 317 -264 381l17 54c217 -72 310 -195 310 -448v-38h-402zM148 -148c0 24 19 44 43 44s43 -19 43 -44c0 -23 -19 -43 -43 -43s-43 19 -43 43zM282 -148c0 24 19 44 43 44s43 -19 43 -44c0 -23 -19 -43 -43 -43s-43 19 -43 43z" />
    <glyph glyph-name="uniFB83" unicode="&#x68d;" horiz-adv-x="543" arabic-form="final" 
d="M64 0v51h339c-1 209 -73 317 -264 381l17 54c213 -71 307 -191 310 -435h76v-51h-478zM282 -148c0 24 19 44 43 44s43 -19 43 -44c0 -23 -19 -43 -43 -43s-43 19 -43 43zM148 -148c0 24 19 44 43 44s43 -19 43 -44c0 -23 -19 -43 -43 -43s-43 19 -43 43z" />
    <glyph glyph-name="uni068E" unicode="&#x68e;" horiz-adv-x="552" arabic-form="isolated" 
d="M64 0v51h339c-1 209 -73 317 -264 381l17 54c217 -72 310 -195 310 -448v-38h-402zM92 614c0 24 19 44 43 44s43 -19 43 -44c0 -23 -19 -43 -43 -43s-43 19 -43 43zM226 614c0 24 20 44 44 44s43 -19 43 -44c0 -23 -19 -43 -43 -43s-44 19 -44 43zM159 716
c0 24 20 43 44 43c23 0 43 -18 43 -43c0 -24 -20 -43 -43 -43c-24 0 -44 18 -44 43z" />
    <glyph glyph-name="uniFB87" unicode="&#x68e;" horiz-adv-x="543" arabic-form="final" 
d="M64 0v51h339c-1 209 -73 317 -264 381l17 54c213 -71 307 -191 310 -435h76v-51h-478zM226 614c0 24 20 44 44 44s43 -19 43 -44c0 -23 -19 -43 -43 -43s-44 19 -44 43zM92 614c0 24 19 44 43 44s43 -19 43 -44c0 -23 -19 -43 -43 -43s-43 19 -43 43zM159 716
c0 24 20 43 44 43c23 0 43 -18 43 -43c0 -24 -20 -43 -43 -43c-24 0 -44 18 -44 43z" />
    <glyph glyph-name="uni068F.fina" unicode="&#x68f;" horiz-adv-x="543" 
d="M64 0v51h339c-1 209 -73 317 -264 381l17 54c213 -71 307 -191 310 -435h76v-51h-478zM270 758c23 0 43 -18 43 -43c0 -24 -20 -43 -43 -43c-24 0 -44 18 -44 43c0 24 20 43 44 43zM202 657c24 0 44 -19 44 -43s-20 -43 -44 -43c-23 0 -43 18 -43 43c0 23 20 43 43 43z
M135 758c24 0 43 -18 43 -43c0 -24 -19 -43 -43 -43s-43 18 -43 43c0 24 19 43 43 43z" />
    <glyph glyph-name="uni0690.fina" unicode="&#x690;" horiz-adv-x="543" 
d="M64 0v51h339c-1 209 -73 317 -264 381l17 54c213 -71 307 -191 310 -435h76v-51h-478zM138 706c-24 0 -43 18 -43 43c0 23 19 43 43 43c23 0 43 -19 43 -43s-20 -43 -43 -43zM271 572c-23 0 -43 19 -43 43s20 43 43 43c24 0 43 -18 43 -43c0 -23 -19 -43 -43 -43z
M138 572c-24 0 -43 19 -43 43s19 43 43 43c23 0 43 -18 43 -43c0 -23 -20 -43 -43 -43zM271 706c-23 0 -43 18 -43 43c0 23 20 43 43 43c24 0 43 -19 43 -43s-19 -43 -43 -43z" />
    <glyph glyph-name="uni0692.fina" unicode="&#x692;" horiz-adv-x="469" 
d="M100 -259c-41 0 -85 7 -118 18l10 54c35 -13 75 -21 114 -21c94 0 152 47 152 194v484h63v-419h149v-51h-149v-5c0 -153 -58 -254 -221 -254zM419 639l-129 -128l-128 126l32 33l97 -88l97 88z" />
    <glyph glyph-name="uni0693.fina" unicode="&#x693;" horiz-adv-x="469" 
d="M360 -220c0 -47 -31 -85 -82 -85c-37 0 -69 19 -75 64c-29 -11 -62 -18 -103 -18s-85 7 -118 18l10 54c35 -13 75 -21 114 -21c94 0 152 47 152 194v484h63v-419h149v-51h-149v-5c0 -51 -6 -97 -21 -135c34 -6 60 -31 60 -80zM312 -222c0 28 -12 44 -31 44
c-16 0 -32 -15 -32 -44s12 -44 32 -44c16 0 31 15 31 44z" />
    <glyph glyph-name="uni0694.fina" unicode="&#x694;" horiz-adv-x="469" 
d="M100 -259c-41 0 -85 7 -118 18l10 54c35 -13 75 -21 114 -21c94 0 152 47 152 194v484h63v-419h149v-51h-149v-5c0 -153 -58 -254 -221 -254zM283 -276c0 24 20 44 44 44s44 -19 44 -44c0 -24 -20 -44 -44 -44s-44 19 -44 44z" />
    <glyph glyph-name="uni0695.fina" unicode="&#x695;" horiz-adv-x="469" 
d="M100 -180c-41 0 -85 7 -118 18l10 54c35 -13 75 -21 114 -21c94 0 152 46 152 194v405h63v-396c0 -8 0 -16 -1 -23h150v-51h-155c-17 -111 -80 -180 -215 -180zM371 -187l-111 -132l-172 31l9 46l148 -22l95 108z" />
    <glyph glyph-name="uni0696.fina" unicode="&#x696;" horiz-adv-x="477" 
d="M107 -259c-41 0 -85 7 -118 18l10 54c35 -13 75 -21 114 -21c94 0 152 47 152 194v484h63v-419h149v-51h-149v-5c0 -153 -58 -254 -221 -254zM101 -90c0 24 20 44 44 44s44 -19 44 -44c0 -24 -20 -44 -44 -44s-44 19 -44 44zM291 -276c0 24 20 44 44 44s44 -19 44 -44
c0 -24 -20 -44 -44 -44s-44 19 -44 44z" />
    <glyph glyph-name="uni0697.fina" unicode="&#x697;" horiz-adv-x="469" 
d="M100 -259c-41 0 -85 7 -118 18l10 54c35 -13 75 -21 114 -21c94 0 152 47 152 194v484h63v-419h149v-51h-149v-5c0 -153 -58 -254 -221 -254zM176 615c0 24 19 43 43 43s43 -18 43 -43c0 -24 -19 -43 -43 -43s-43 19 -43 43zM310 615c0 24 19 43 43 43s43 -18 43 -43
c0 -24 -19 -43 -43 -43s-43 19 -43 43z" />
    <glyph glyph-name="uni0699.fina" unicode="&#x699;" horiz-adv-x="469" 
d="M100 -259c-41 0 -85 7 -118 18l10 54c35 -13 75 -21 114 -21c94 0 152 47 152 194v484h63v-419h149v-51h-149v-5c0 -153 -58 -254 -221 -254zM220 706c-24 0 -43 18 -43 43c0 23 19 43 43 43c23 0 43 -19 43 -43s-20 -43 -43 -43zM353 572c-23 0 -43 19 -43 43
s20 43 43 43c24 0 43 -18 43 -43c0 -23 -19 -43 -43 -43zM220 572c-24 0 -43 19 -43 43s19 43 43 43c23 0 43 -18 43 -43c0 -23 -20 -43 -43 -43zM353 706c-23 0 -43 18 -43 43c0 23 20 43 43 43c24 0 43 -19 43 -43s-19 -43 -43 -43z" />
    <glyph glyph-name="uni069A.init" unicode="&#x69a;" horiz-adv-x="863" 
d="M35 0h-50c-20 0 -60 9 -60 26c0 16 40 25 60 25h50c76 0 112 36 112 146v213h64v-181c0 -111 -1 -185 94 -185c68 0 121 35 121 184v222h63v-260c0 -124 48 -139 168 -139h37c5 45 9 111 9 153c0 115 -15 210 -37 281l63 14c20 -72 38 -172 38 -288
c0 -65 -7 -147 -18 -211h-76c-141 0 -196 19 -224 88c-13 -42 -55 -95 -153 -95c-70 0 -113 39 -126 92c-17 -51 -57 -85 -135 -85zM409 -147c0 24 20 44 44 44s44 -19 44 -44c0 -24 -20 -44 -44 -44s-44 19 -44 44zM409 615c0 24 20 44 44 44s44 -19 44 -44
c0 -24 -20 -44 -44 -44s-44 19 -44 44z" />
    <glyph glyph-name="uni069A.medi" unicode="&#x69a;" horiz-adv-x="892" 
d="M673 0c-141 0 -196 19 -224 88c-13 -42 -55 -95 -153 -95c-70 0 -113 39 -126 92c-17 -51 -57 -85 -135 -85h-50c-20 0 -60 9 -60 26c0 16 40 25 60 25h50c76 0 112 36 112 146v213h64v-181c0 -111 -1 -185 94 -185c68 0 121 35 121 184v222h63v-260
c0 -124 48 -139 168 -139h37c5 45 9 111 9 153c0 115 -15 210 -37 281l63 14c20 -72 38 -172 38 -288c0 -49 -4 -107 -11 -160h137v-51h-220zM409 615c0 24 20 44 44 44s44 -19 44 -44c0 -24 -20 -44 -44 -44s-44 19 -44 44zM409 -147c0 24 20 44 44 44s44 -19 44 -44
c0 -24 -20 -44 -44 -44s-44 19 -44 44z" />
    <glyph glyph-name="uni069A.fina" unicode="&#x69a;" horiz-adv-x="1226" 
d="M1006 0c-139 0 -197 19 -223 88c-20 -70 -86 -95 -132 -95c-57 0 -86 17 -108 54c2 -216 -107 -278 -230 -278c-122 0 -237 67 -237 275c0 71 9 137 24 198l66 13c-18 -68 -27 -137 -27 -205c0 -184 96 -230 182 -230c85 0 160 52 160 213v377h63v-181
c0 -121 26 -185 104 -185c75 0 112 55 112 184v222h62v-260c0 -123 47 -139 169 -139h36c6 45 10 113 10 153c0 115 -16 210 -37 281l62 14c21 -72 38 -172 38 -288c0 -49 -3 -107 -10 -160h136v-51h-220zM743 615c0 24 20 44 44 44s44 -19 44 -44c0 -24 -20 -44 -44 -44
s-44 19 -44 44zM734 -147c0 24 20 44 44 44s44 -19 44 -44c0 -24 -20 -44 -44 -44s-44 19 -44 44z" />
    <glyph glyph-name="uni069B.init" unicode="&#x69b;" horiz-adv-x="863" 
d="M35 0h-50c-20 0 -60 9 -60 26c0 16 40 25 60 25h50c76 0 112 36 112 146v213h64v-181c0 -111 -1 -185 94 -185c68 0 121 35 121 184v222h63v-260c0 -124 48 -139 168 -139h37c5 45 9 111 9 153c0 115 -15 210 -37 281l63 14c20 -72 38 -172 38 -288
c0 -65 -7 -147 -18 -211h-76c-141 0 -196 19 -224 88c-13 -42 -55 -95 -153 -95c-70 0 -113 39 -126 92c-17 -51 -57 -85 -135 -85zM411 -214c0 24 20 43 44 43s43 -18 43 -43c0 -24 -19 -43 -43 -43s-44 18 -44 43zM478 -113c0 24 20 43 44 43c23 0 43 -19 43 -43
s-20 -43 -43 -43c-24 0 -44 18 -44 43zM345 -113c0 24 19 43 43 43s43 -19 43 -43s-19 -43 -43 -43s-43 18 -43 43z" />
    <glyph glyph-name="uni069B.medi" unicode="&#x69b;" horiz-adv-x="892" 
d="M673 0c-141 0 -196 19 -224 88c-13 -42 -55 -95 -153 -95c-70 0 -113 39 -126 92c-17 -51 -57 -85 -135 -85h-50c-20 0 -60 9 -60 26c0 16 40 25 60 25h50c76 0 112 36 112 146v213h64v-181c0 -111 -1 -185 94 -185c68 0 121 35 121 184v222h63v-260
c0 -124 48 -139 168 -139h37c5 45 9 111 9 153c0 115 -15 210 -37 281l63 14c20 -72 38 -172 38 -288c0 -49 -4 -107 -11 -160h137v-51h-220zM411 -214c0 24 20 43 44 43s43 -18 43 -43c0 -24 -19 -43 -43 -43s-44 18 -44 43zM478 -113c0 24 20 43 44 43c23 0 43 -19 43 -43
s-20 -43 -43 -43c-24 0 -44 18 -44 43zM345 -113c0 24 19 43 43 43s43 -19 43 -43s-19 -43 -43 -43s-43 18 -43 43z" />
    <glyph glyph-name="uni069B.fina" unicode="&#x69b;" horiz-adv-x="1226" 
d="M313 -231c-122 0 -237 67 -237 275c0 71 9 137 24 198l66 13c-18 -68 -27 -137 -27 -205c0 -184 96 -230 182 -230c85 0 160 52 160 213v377h63v-181c0 -121 26 -185 104 -185c75 0 112 55 112 184v222h62v-260c0 -123 47 -139 169 -139h36c6 45 10 113 10 153
c0 115 -16 210 -37 281l62 14c21 -72 38 -172 38 -288c0 -49 -3 -107 -10 -160h136v-51h-220c-139 0 -197 19 -223 88c-20 -70 -86 -95 -132 -95c-57 0 -86 17 -108 54c2 -216 -107 -278 -230 -278zM738 -214c0 24 20 43 44 43s43 -18 43 -43c0 -24 -19 -43 -43 -43
s-44 18 -44 43zM805 -113c0 24 20 43 44 43c23 0 43 -19 43 -43s-20 -43 -43 -43c-24 0 -44 18 -44 43zM672 -113c0 24 19 43 43 43s43 -19 43 -43s-19 -43 -43 -43s-43 18 -43 43z" />
    <glyph glyph-name="uni069C.init" unicode="&#x69c;" horiz-adv-x="863" 
d="M35 0h-50c-20 0 -60 9 -60 26c0 16 40 25 60 25h50c76 0 112 36 112 146v213h64v-181c0 -111 -1 -185 94 -185c68 0 121 35 121 184v222h63v-260c0 -124 48 -139 168 -139h37c5 45 9 111 9 153c0 115 -15 210 -37 281l63 14c20 -72 38 -172 38 -288
c0 -65 -7 -147 -18 -211h-76c-141 0 -196 19 -224 88c-13 -42 -55 -95 -153 -95c-70 0 -113 39 -126 92c-17 -51 -57 -85 -135 -85zM411 -214c0 24 20 43 44 43s43 -18 43 -43c0 -24 -19 -43 -43 -43s-44 18 -44 43zM478 -113c0 24 20 43 44 43c23 0 43 -19 43 -43
s-20 -43 -43 -43c-24 0 -44 18 -44 43zM345 -113c0 24 19 43 43 43s43 -19 43 -43s-19 -43 -43 -43s-43 18 -43 43zM343 614c0 24 19 44 43 44s43 -19 43 -44c0 -23 -19 -43 -43 -43s-43 19 -43 43zM477 614c0 24 20 44 44 44s43 -19 43 -44c0 -23 -19 -43 -43 -43
s-44 19 -44 43zM410 716c0 24 20 43 44 43c23 0 43 -18 43 -43c0 -24 -20 -43 -43 -43c-24 0 -44 18 -44 43z" />
    <glyph glyph-name="uni069C.medi" unicode="&#x69c;" horiz-adv-x="892" 
d="M35 0h-50c-20 0 -60 9 -60 26c0 16 40 25 60 25h50c76 0 112 36 112 146v213h64v-181c0 -111 -1 -185 94 -185c68 0 121 35 121 184v222h63v-260c0 -124 48 -139 168 -139h37c5 45 9 111 9 153c0 115 -15 210 -37 281l63 14c20 -72 38 -172 38 -288
c0 -49 -4 -107 -11 -160h137v-51h-220c-141 0 -196 19 -224 88c-13 -42 -55 -95 -153 -95c-70 0 -113 39 -126 92c-17 -51 -57 -85 -135 -85zM477 614c0 24 20 44 44 44s43 -19 43 -44c0 -23 -19 -43 -43 -43s-44 19 -44 43zM411 -214c0 24 20 43 44 43s43 -18 43 -43
c0 -24 -19 -43 -43 -43s-44 18 -44 43zM343 614c0 24 19 44 43 44s43 -19 43 -44c0 -23 -19 -43 -43 -43s-43 19 -43 43zM410 716c0 24 20 43 44 43c23 0 43 -18 43 -43c0 -24 -20 -43 -43 -43c-24 0 -44 18 -44 43zM478 -113c0 24 20 43 44 43c23 0 43 -19 43 -43
s-20 -43 -43 -43c-24 0 -44 18 -44 43zM345 -113c0 24 19 43 43 43s43 -19 43 -43s-19 -43 -43 -43s-43 18 -43 43z" />
    <glyph glyph-name="uni069C.fina" unicode="&#x69c;" horiz-adv-x="1226" 
d="M1006 0c-139 0 -197 19 -223 88c-20 -70 -86 -95 -132 -95c-57 0 -86 17 -108 54c2 -216 -107 -278 -230 -278c-122 0 -237 67 -237 275c0 71 9 137 24 198l66 13c-18 -68 -27 -137 -27 -205c0 -184 96 -230 182 -230c85 0 160 52 160 213v377h63v-181
c0 -121 26 -185 104 -185c75 0 112 55 112 184v222h62v-260c0 -123 47 -139 169 -139h36c6 45 10 113 10 153c0 115 -16 210 -37 281l62 14c21 -72 38 -172 38 -288c0 -49 -3 -107 -10 -160h136v-51h-220zM810 614c0 24 20 44 44 44s43 -19 43 -44c0 -23 -19 -43 -43 -43
s-44 19 -44 43zM738 -214c0 24 20 43 44 43s43 -18 43 -43c0 -24 -19 -43 -43 -43s-44 18 -44 43zM676 614c0 24 19 44 43 44s43 -19 43 -44c0 -23 -19 -43 -43 -43s-43 19 -43 43zM743 716c0 24 20 43 44 43c23 0 43 -18 43 -43c0 -24 -20 -43 -43 -43c-24 0 -44 18 -44 43
zM805 -113c0 24 20 43 44 43c23 0 43 -19 43 -43s-20 -43 -43 -43c-24 0 -44 18 -44 43zM672 -113c0 24 19 43 43 43s43 -19 43 -43s-19 -43 -43 -43s-43 18 -43 43z" />
    <glyph glyph-name="uni069D.init" unicode="&#x69d;" horiz-adv-x="751" 
d="M402 0h-417c-20 0 -60 9 -60 26c0 16 40 25 60 25h163v419h64v-49c0 -62 -3 -140 -11 -201h1c49 171 167 260 290 260c121 0 192 -82 192 -227c0 -135 -71 -253 -282 -253zM211 51h199c164 0 208 92 208 195c0 112 -43 183 -137 183c-157 0 -257 -202 -270 -378z
M240 -148c0 24 19 44 43 44s43 -19 43 -44c0 -23 -19 -43 -43 -43s-43 19 -43 43zM374 -148c0 24 19 44 43 44s43 -19 43 -44c0 -23 -19 -43 -43 -43s-43 19 -43 43z" />
    <glyph glyph-name="uni069D.medi" unicode="&#x69d;" horiz-adv-x="766" 
d="M766 0h-781c-20 0 -60 9 -60 26c0 16 40 25 60 25h163v419h64v-49c0 -62 -3 -140 -11 -201h1c49 171 167 260 290 260c121 0 192 -82 192 -227c0 -81 -25 -155 -90 -202h172v-51zM211 51h211c154 4 196 94 196 195c0 112 -43 183 -137 183c-157 0 -257 -202 -270 -378z
M374 -148c0 24 19 44 43 44s43 -19 43 -44c0 -23 -19 -43 -43 -43s-43 19 -43 43zM240 -148c0 24 19 44 43 44s43 -19 43 -44c0 -23 -19 -43 -43 -43s-43 19 -43 43z" />
    <glyph glyph-name="uni069D.fina" unicode="&#x69d;" horiz-adv-x="1090" 
d="M543 0c-10 -158 -108 -231 -230 -231s-237 67 -237 275c0 71 9 137 24 198l66 13c-18 -68 -27 -137 -27 -205c0 -184 96 -230 182 -230c85 0 160 52 160 213v437h63v-49c0 -62 -3 -140 -10 -201h1c49 171 166 260 290 260c121 0 192 -82 192 -227
c0 -81 -25 -155 -90 -202h163v-51h-340h-15h-192zM543 51h200c164 0 208 92 208 195c0 112 -43 183 -137 183c-157 0 -257 -202 -271 -378zM737 -148c0 24 19 44 43 44s43 -19 43 -44c0 -23 -19 -43 -43 -43s-43 19 -43 43zM603 -148c0 24 19 44 43 44s43 -19 43 -44
c0 -23 -19 -43 -43 -43s-43 19 -43 43z" />
    <glyph glyph-name="uni069E.init" unicode="&#x69e;" horiz-adv-x="751" 
d="M402 0h-417c-20 0 -60 9 -60 26c0 16 40 25 60 25h163v419h64v-49c0 -62 -3 -140 -11 -201h1c49 171 167 260 290 260c121 0 192 -82 192 -227c0 -135 -71 -253 -282 -253zM211 51h199c164 0 208 92 208 195c0 112 -43 183 -137 183c-157 0 -257 -202 -270 -378zM295 614
c0 24 19 44 43 44s43 -19 43 -44c0 -23 -19 -43 -43 -43s-43 19 -43 43zM429 614c0 24 20 44 44 44s43 -19 43 -44c0 -23 -19 -43 -43 -43s-44 19 -44 43zM362 716c0 24 20 43 44 43c23 0 43 -18 43 -43c0 -24 -20 -43 -43 -43c-24 0 -44 18 -44 43z" />
    <glyph glyph-name="uni069E.medi" unicode="&#x69e;" horiz-adv-x="766" 
d="M-15 0c-20 0 -60 9 -60 26c0 16 40 25 60 25h163v419h64v-49c0 -62 -3 -140 -11 -201h1c49 171 167 260 290 260c121 0 192 -82 192 -227c0 -81 -25 -155 -90 -202h172v-51h-781zM211 51h199c164 0 208 92 208 195c0 112 -43 183 -137 183c-157 0 -257 -202 -270 -378z
M429 614c0 24 20 44 44 44s43 -19 43 -44c0 -23 -19 -43 -43 -43s-44 19 -44 43zM295 614c0 24 19 44 43 44s43 -19 43 -44c0 -23 -19 -43 -43 -43s-43 19 -43 43zM362 716c0 24 20 43 44 43c23 0 43 -18 43 -43c0 -24 -20 -43 -43 -43c-24 0 -44 18 -44 43z" />
    <glyph glyph-name="uni069E.fina" unicode="&#x69e;" horiz-adv-x="1090" 
d="M313 -231c-122 0 -237 67 -237 275c0 71 9 137 24 198l66 13c-18 -68 -27 -137 -27 -205c0 -184 96 -230 182 -230c85 0 160 52 160 213v437h63v-49c0 -62 -3 -140 -10 -201h1c49 171 166 260 290 260c121 0 192 -82 192 -227c0 -81 -25 -155 -90 -202h163v-51h-547
c-10 -158 -108 -231 -230 -231zM543 51h200c164 0 208 92 208 195c0 112 -43 183 -137 183c-157 0 -257 -202 -271 -378zM756 614c0 24 20 44 44 44s43 -19 43 -44c0 -23 -19 -43 -43 -43s-44 19 -44 43zM622 614c0 24 19 44 43 44s43 -19 43 -44c0 -23 -19 -43 -43 -43
s-43 19 -43 43zM689 716c0 24 20 43 44 43c23 0 43 -18 43 -43c0 -24 -20 -43 -43 -43c-24 0 -44 18 -44 43z" />
    <glyph glyph-name="uni069F.init" unicode="&#x69f;" horiz-adv-x="751" 
d="M402 0h-417c-20 0 -60 9 -60 26c0 16 40 25 60 25h163v654h64v-284c0 -62 -3 -140 -11 -201h1c49 171 167 260 290 260c121 0 192 -82 192 -227c0 -135 -71 -253 -282 -253zM211 51h199c164 0 208 92 208 195c0 112 -43 183 -137 183c-157 0 -257 -202 -270 -378z
M317 614c0 24 19 44 43 44s43 -19 43 -44c0 -23 -19 -43 -43 -43s-43 19 -43 43zM451 614c0 24 20 44 44 44s43 -19 43 -44c0 -23 -19 -43 -43 -43s-44 19 -44 43zM384 716c0 24 20 43 44 43c23 0 43 -18 43 -43c0 -24 -20 -43 -43 -43c-24 0 -44 18 -44 43z" />
    <glyph glyph-name="uni069F.medi" unicode="&#x69f;" horiz-adv-x="766" 
d="M-15 0c-20 0 -60 9 -60 26c0 16 40 25 60 25h163v654h64v-284c0 -62 -3 -140 -11 -201h1c49 171 167 260 290 260c121 0 192 -82 192 -227c0 -81 -25 -155 -90 -202h172v-51h-349h-15h-417zM211 51h199c164 0 208 92 208 195c0 112 -43 183 -137 183
c-157 0 -257 -202 -270 -378zM451 614c0 24 20 44 44 44s43 -19 43 -44c0 -23 -19 -43 -43 -43s-44 19 -44 43zM317 614c0 24 19 44 43 44s43 -19 43 -44c0 -23 -19 -43 -43 -43s-43 19 -43 43zM384 716c0 24 20 43 44 43c23 0 43 -18 43 -43c0 -24 -20 -43 -43 -43
c-24 0 -44 18 -44 43z" />
    <glyph glyph-name="uni069F.fina" unicode="&#x69f;" horiz-adv-x="773" 
d="M6 0v51h149v654h64v-284c0 -62 -3 -140 -11 -201h1c49 171 167 260 290 260c121 0 192 -82 192 -227c0 -81 -25 -155 -90 -202h172v-51h-349h-15h-403zM218 51h211c154 4 196 94 196 195c0 112 -43 183 -137 183c-157 0 -257 -202 -270 -378zM458 614c0 24 20 44 44 44
s43 -19 43 -44c0 -23 -19 -43 -43 -43s-44 19 -44 43zM324 614c0 24 19 44 43 44s43 -19 43 -44c0 -23 -19 -43 -43 -43s-43 19 -43 43zM391 716c0 24 20 43 44 43c23 0 43 -18 43 -43c0 -24 -20 -43 -43 -43c-24 0 -44 18 -44 43z" />
    <glyph glyph-name="uni06A0.init" unicode="&#x6a0;" horiz-adv-x="575" 
d="M527 0h-542c-20 0 -60 9 -60 26c0 16 40 25 60 25h230c-72 28 -129 100 -129 198c0 124 78 231 236 231c73 0 135 -25 135 -25l-13 -52s-61 27 -129 27c-97 0 -166 -64 -166 -175c0 -114 86 -204 293 -204h85v-51zM194 614c0 24 19 44 43 44s43 -19 43 -44
c0 -23 -19 -43 -43 -43s-43 19 -43 43zM328 614c0 24 20 44 44 44s43 -19 43 -44c0 -23 -19 -43 -43 -43s-44 19 -44 43zM261 716c0 24 20 43 44 43c23 0 43 -18 43 -43c0 -24 -20 -43 -43 -43c-24 0 -44 18 -44 43z" />
    <glyph glyph-name="uni06A0.medi" unicode="&#x6a0;" horiz-adv-x="597" 
d="M1 0h-16c-20 0 -60 9 -60 26c0 16 40 25 60 25h18c120 0 222 28 299 70c-73 70 -146 152 -257 191l5 43c77 60 188 127 290 127c127 0 179 -73 179 -150c0 -71 -45 -151 -129 -215c48 -39 100 -66 164 -66h43v-51h-54c-83 0 -144 36 -201 85c-86 -51 -201 -85 -341 -85z
M110 338c100 -38 169 -120 241 -187c67 50 105 112 105 172c0 59 -36 109 -123 109c-79 0 -173 -58 -223 -94zM342 614c0 24 20 44 44 44s43 -19 43 -44c0 -23 -19 -43 -43 -43s-44 19 -44 43zM208 614c0 24 19 44 43 44s43 -19 43 -44c0 -23 -19 -43 -43 -43s-43 19 -43 43
zM275 716c0 24 20 43 44 43c23 0 43 -18 43 -43c0 -24 -20 -43 -43 -43c-24 0 -44 18 -44 43z" />
    <glyph glyph-name="uni06A0.fina" unicode="&#x6a0;" horiz-adv-x="633" 
d="M320 -259c-189 0 -266 76 -266 169c0 119 139 174 260 234c-65 64 -134 133 -233 168l5 43c77 60 188 127 290 127c127 0 180 -73 180 -150c0 -92 -69 -150 -151 -197c54 -48 111 -84 186 -84h42v-51h-54c-96 0 -162 48 -226 107c-115 -57 -235 -104 -235 -193
c0 -69 61 -122 210 -122c76 0 161 14 161 14l4 -49s-90 -16 -173 -16zM147 338c90 -34 155 -104 219 -167c71 40 126 84 126 152c0 59 -36 109 -122 109c-80 0 -174 -58 -223 -94zM378 614c0 24 20 44 44 44s43 -19 43 -44c0 -23 -19 -43 -43 -43s-44 19 -44 43zM244 614
c0 24 19 44 43 44s43 -19 43 -44c0 -23 -19 -43 -43 -43s-43 19 -43 43zM311 716c0 24 20 43 44 43c23 0 43 -18 43 -43c0 -24 -20 -43 -43 -43c-24 0 -44 18 -44 43z" />
    <glyph glyph-name="uni06A1.init" unicode="&#x6a1;" horiz-adv-x="624" 
d="M533 0h-548c-20 0 -60 9 -60 26c0 16 40 25 60 25h127c35 0 59 -3 59 -3c-57 33 -86 92 -86 187c0 131 82 245 242 245c135 0 206 -76 206 -220v-260zM470 51v194c0 134 -55 184 -150 184c-105 0 -170 -73 -170 -188c0 -129 60 -190 205 -190h115z" />
    <glyph glyph-name="uni06A1.medi" unicode="&#x6a1;" horiz-adv-x="608" 
d="M608 0h-623c-20 0 -60 9 -60 26c0 16 40 25 60 25h98c36 0 78 -2 78 -2c-50 32 -80 94 -80 190c0 130 84 241 233 241c116 0 217 -60 217 -233c0 -80 -33 -157 -92 -198c0 0 56 2 94 2h75v-51zM307 51c82 0 158 57 158 193c0 116 -54 185 -158 185
c-82 0 -161 -57 -161 -186c0 -122 59 -192 161 -192z" />
    <glyph glyph-name="uni06A1.fina" unicode="&#x6a1;" horiz-adv-x="949" 
d="M949 51v-51h-527c-238 0 -337 93 -337 287c0 66 17 135 36 174l69 12c-25 -48 -41 -119 -41 -177c0 -160 59 -245 280 -245h70c-50 32 -77 97 -77 188c0 130 84 241 233 241c116 0 216 -60 216 -233c0 -80 -32 -157 -91 -198c0 0 56 2 94 2h75zM806 244
c0 116 -54 185 -158 185c-83 0 -161 -57 -161 -187c0 -121 59 -191 161 -191c82 0 158 57 158 193z" />
    <glyph glyph-name="uni06A2.init" unicode="&#x6a2;" horiz-adv-x="624" 
d="M533 0h-548c-20 0 -60 9 -60 26c0 16 40 25 60 25h127c35 0 59 -3 59 -3c-57 33 -86 92 -86 187c0 131 82 245 242 245c135 0 206 -76 206 -220v-260zM470 51v194c0 134 -55 184 -150 184c-105 0 -170 -73 -170 -188c0 -129 60 -190 205 -190h115zM287 -147
c0 24 20 44 44 44s44 -19 44 -44c0 -24 -20 -44 -44 -44s-44 19 -44 44z" />
    <glyph glyph-name="uni06A2.medi" unicode="&#x6a2;" horiz-adv-x="608" 
d="M608 0h-623c-20 0 -60 9 -60 26c0 16 40 25 60 25h98c36 0 78 -2 78 -2c-50 32 -80 94 -80 190c0 130 84 241 233 241c116 0 217 -60 217 -233c0 -80 -33 -157 -92 -198c0 0 56 2 94 2h75v-51zM307 51c82 0 158 57 158 193c0 116 -54 185 -158 185
c-82 0 -161 -57 -161 -186c0 -122 59 -192 161 -192zM265 -147c0 24 20 44 44 44s44 -19 44 -44c0 -24 -20 -44 -44 -44s-44 19 -44 44z" />
    <glyph glyph-name="uni06A2.fina" unicode="&#x6a2;" horiz-adv-x="949" 
d="M949 51v-51h-527c-238 0 -337 93 -337 287c0 66 17 135 36 174l69 12c-25 -48 -41 -119 -41 -177c0 -160 59 -245 280 -245h70c-50 32 -77 97 -77 188c0 130 84 241 233 241c116 0 216 -60 216 -233c0 -80 -32 -157 -91 -198c0 0 56 2 94 2h75zM806 244
c0 116 -54 185 -158 185c-83 0 -161 -57 -161 -187c0 -121 59 -191 161 -191c82 0 158 57 158 193zM610 -147c0 24 20 44 44 44s44 -19 44 -44c0 -24 -20 -44 -44 -44s-44 19 -44 44z" />
    <glyph glyph-name="uni06A3.init" unicode="&#x6a3;" horiz-adv-x="624" 
d="M533 0h-548c-20 0 -60 9 -60 26c0 16 40 25 60 25h127c35 0 59 -3 59 -3c-57 33 -86 92 -86 187c0 131 82 245 242 245c135 0 206 -76 206 -220v-260zM470 51v194c0 134 -55 184 -150 184c-105 0 -170 -73 -170 -188c0 -129 60 -190 205 -190h115zM287 -147
c0 24 20 44 44 44s44 -19 44 -44c0 -24 -20 -44 -44 -44s-44 19 -44 44zM274 615c0 24 20 44 44 44s44 -19 44 -44c0 -24 -20 -44 -44 -44s-44 19 -44 44z" />
    <glyph glyph-name="uni06A3.medi" unicode="&#x6a3;" horiz-adv-x="608" 
d="M608 0h-623c-20 0 -60 9 -60 26c0 16 40 25 60 25h98c36 0 78 -2 78 -2c-50 32 -80 94 -80 190c0 130 84 241 233 241c116 0 217 -60 217 -233c0 -80 -33 -157 -92 -198c0 0 56 2 94 2h75v-51zM307 51c82 0 158 57 158 193c0 116 -54 185 -158 185
c-82 0 -161 -57 -161 -186c0 -122 59 -192 161 -192zM265 -147c0 24 20 44 44 44s44 -19 44 -44c0 -24 -20 -44 -44 -44s-44 19 -44 44zM266 616c0 24 20 44 44 44s44 -19 44 -44c0 -24 -20 -44 -44 -44s-44 19 -44 44z" />
    <glyph glyph-name="uni06A3.fina" unicode="&#x6a3;" horiz-adv-x="949" 
d="M949 51v-51h-527c-238 0 -337 93 -337 287c0 66 17 135 36 174l69 12c-25 -48 -41 -119 -41 -177c0 -160 59 -245 280 -245h70c-50 32 -77 97 -77 188c0 130 84 241 233 241c116 0 216 -60 216 -233c0 -80 -32 -157 -91 -198c0 0 56 2 94 2h75zM806 244
c0 116 -54 185 -158 185c-83 0 -161 -57 -161 -187c0 -121 59 -191 161 -191c82 0 158 57 158 193zM607 615c0 24 20 44 44 44s44 -19 44 -44c0 -24 -20 -44 -44 -44s-44 19 -44 44zM448 -147c0 24 20 44 44 44s44 -19 44 -44c0 -24 -20 -44 -44 -44s-44 19 -44 44z" />
    <glyph glyph-name="uni06A5.init" unicode="&#x6a5;" horiz-adv-x="624" 
d="M533 0h-548c-20 0 -60 9 -60 26c0 16 40 25 60 25h127c35 0 59 -3 59 -3c-57 33 -86 92 -86 187c0 131 82 245 242 245c135 0 206 -76 206 -220v-260zM470 51v194c0 134 -55 184 -150 184c-105 0 -170 -73 -170 -188c0 -129 60 -190 205 -190h115zM287 -214
c0 24 20 43 44 43s43 -18 43 -43c0 -24 -19 -43 -43 -43s-44 18 -44 43zM354 -113c0 24 20 43 44 43c23 0 43 -19 43 -43s-20 -43 -43 -43c-24 0 -44 18 -44 43zM221 -113c0 24 19 43 43 43s43 -19 43 -43s-19 -43 -43 -43s-43 18 -43 43z" />
    <glyph glyph-name="uni06A5.medi" unicode="&#x6a5;" horiz-adv-x="608" 
d="M608 0h-623c-20 0 -60 9 -60 26c0 16 40 25 60 25h98c36 0 78 -2 78 -2c-50 32 -80 94 -80 190c0 130 84 241 233 241c116 0 217 -60 217 -233c0 -80 -33 -157 -92 -198c0 0 56 2 94 2h75v-51zM307 51c82 0 158 57 158 193c0 116 -54 185 -158 185
c-82 0 -161 -57 -161 -186c0 -122 59 -192 161 -192zM269 -214c0 24 20 43 44 43s43 -18 43 -43c0 -24 -19 -43 -43 -43s-44 18 -44 43zM336 -113c0 24 20 43 44 43c23 0 43 -19 43 -43s-20 -43 -43 -43c-24 0 -44 18 -44 43zM203 -113c0 24 19 43 43 43s43 -19 43 -43
s-19 -43 -43 -43s-43 18 -43 43z" />
    <glyph glyph-name="uni06A5.fina" unicode="&#x6a5;" horiz-adv-x="949" 
d="M949 51v-51h-527c-238 0 -337 93 -337 287c0 66 17 135 36 174l69 12c-25 -48 -41 -119 -41 -177c0 -160 59 -245 280 -245h70c-50 32 -77 97 -77 188c0 130 84 241 233 241c116 0 216 -60 216 -233c0 -80 -32 -157 -91 -198c0 0 56 2 94 2h75zM806 244
c0 116 -54 185 -158 185c-83 0 -161 -57 -161 -187c0 -121 59 -191 161 -191c82 0 158 57 158 193zM619 -214c0 24 20 43 44 43s43 -18 43 -43c0 -24 -19 -43 -43 -43s-44 18 -44 43zM686 -113c0 24 20 43 44 43c23 0 43 -19 43 -43s-20 -43 -43 -43c-24 0 -44 18 -44 43z
M553 -113c0 24 19 43 43 43s43 -19 43 -43s-19 -43 -43 -43s-43 18 -43 43z" />
    <glyph glyph-name="uni06A6" unicode="&#x6a6;" horiz-adv-x="938" arabic-form="isolated" 
d="M871 247c0 -136 -87 -247 -234 -247h-215c-238 0 -337 93 -337 287c0 66 17 135 36 174l69 12c-25 -48 -41 -119 -41 -177c0 -160 59 -245 280 -245h70c-50 32 -77 97 -77 188c0 130 84 241 233 241c116 0 216 -60 216 -233zM806 244c0 116 -54 185 -158 185
c-83 0 -161 -57 -161 -187c0 -121 59 -191 161 -191c82 0 158 57 158 193zM719 572c-23 0 -43 19 -43 43s20 43 43 43c24 0 43 -18 43 -43c0 -23 -19 -43 -43 -43zM586 572c-24 0 -43 19 -43 43s19 43 43 43c23 0 43 -18 43 -43c0 -23 -20 -43 -43 -43zM719 706
c-23 0 -43 18 -43 43c0 23 20 43 43 43c24 0 43 -19 43 -43s-19 -43 -43 -43zM586 706c-24 0 -43 18 -43 43c0 23 19 43 43 43c23 0 43 -19 43 -43s-20 -43 -43 -43z" />
    <glyph glyph-name="uniFB6F" unicode="&#x6a6;" horiz-adv-x="949" arabic-form="final" 
d="M949 51v-51h-527c-238 0 -337 93 -337 287c0 66 17 135 36 174l69 12c-25 -48 -41 -119 -41 -177c0 -160 59 -245 280 -245h70c-50 32 -77 97 -77 188c0 130 84 241 233 241c116 0 216 -60 216 -233c0 -80 -32 -157 -91 -198c0 0 56 2 94 2h75zM806 244
c0 116 -54 185 -158 185c-83 0 -161 -57 -161 -187c0 -121 59 -191 161 -191c82 0 158 57 158 193zM719 572c-23 0 -43 19 -43 43s20 43 43 43c24 0 43 -18 43 -43c0 -23 -19 -43 -43 -43zM586 572c-24 0 -43 19 -43 43s19 43 43 43c23 0 43 -18 43 -43
c0 -23 -20 -43 -43 -43zM719 706c-23 0 -43 18 -43 43c0 23 20 43 43 43c24 0 43 -19 43 -43s-19 -43 -43 -43zM586 706c-24 0 -43 18 -43 43c0 23 19 43 43 43c23 0 43 -19 43 -43s-20 -43 -43 -43z" />
    <glyph glyph-name="uniFB70" unicode="&#x6a6;" horiz-adv-x="624" arabic-form="initial" 
d="M533 0h-548c-20 0 -60 9 -60 26c0 16 40 25 60 25h127c35 0 59 -3 59 -3c-57 33 -86 92 -86 187c0 131 82 245 242 245c135 0 206 -76 206 -220v-260zM470 51v194c0 134 -55 184 -150 184c-105 0 -170 -73 -170 -188c0 -129 60 -190 205 -190h115zM383 572
c-23 0 -43 19 -43 43s20 43 43 43c24 0 43 -18 43 -43c0 -23 -19 -43 -43 -43zM250 572c-24 0 -43 19 -43 43s19 43 43 43c23 0 43 -18 43 -43c0 -23 -20 -43 -43 -43zM383 706c-23 0 -43 18 -43 43c0 23 20 43 43 43c24 0 43 -19 43 -43s-19 -43 -43 -43zM250 706
c-24 0 -43 18 -43 43c0 23 19 43 43 43c23 0 43 -19 43 -43s-20 -43 -43 -43z" />
    <glyph glyph-name="uniFB71" unicode="&#x6a6;" horiz-adv-x="608" arabic-form="medial" 
d="M608 0h-623c-20 0 -60 9 -60 26c0 16 40 25 60 25h98c36 0 78 -2 78 -2c-50 32 -80 94 -80 190c0 130 84 241 233 241c116 0 217 -60 217 -233c0 -80 -33 -157 -92 -198c0 0 56 2 94 2h75v-51zM307 51c82 0 158 57 158 193c0 116 -54 185 -158 185
c-82 0 -161 -57 -161 -186c0 -122 59 -192 161 -192zM380 572c-23 0 -43 19 -43 43s20 43 43 43c24 0 43 -18 43 -43c0 -23 -19 -43 -43 -43zM247 572c-24 0 -43 19 -43 43s19 43 43 43c23 0 43 -18 43 -43c0 -23 -20 -43 -43 -43zM380 706c-23 0 -43 18 -43 43
c0 23 20 43 43 43c24 0 43 -19 43 -43s-19 -43 -43 -43zM247 706c-24 0 -43 18 -43 43c0 23 19 43 43 43c23 0 43 -19 43 -43s-20 -43 -43 -43z" />
    <glyph glyph-name="uni06A7.init" unicode="&#x6a7;" horiz-adv-x="624" 
d="M533 0h-548c-20 0 -60 9 -60 26c0 16 40 25 60 25h127c35 0 59 -3 59 -3c-57 33 -86 92 -86 187c0 131 82 245 242 245c135 0 206 -76 206 -220v-260zM470 51v194c0 134 -55 184 -150 184c-105 0 -170 -73 -170 -188c0 -129 60 -190 205 -190h115zM274 615
c0 24 20 44 44 44s44 -19 44 -44c0 -24 -20 -44 -44 -44s-44 19 -44 44z" />
    <glyph glyph-name="uni06A7.medi" unicode="&#x6a7;" horiz-adv-x="608" 
d="M608 0h-623c-20 0 -60 9 -60 26c0 16 40 25 60 25h98c36 0 78 -2 78 -2c-50 32 -80 94 -80 190c0 130 84 241 233 241c116 0 217 -60 217 -233c0 -80 -33 -157 -92 -198c0 0 56 2 94 2h75v-51zM307 51c82 0 158 57 158 193c0 116 -54 185 -158 185
c-82 0 -161 -57 -161 -186c0 -122 59 -192 161 -192zM266 616c0 24 20 44 44 44s44 -19 44 -44c0 -24 -20 -44 -44 -44s-44 19 -44 44z" />
    <glyph glyph-name="uni06A7.fina" unicode="&#x6a7;" horiz-adv-x="941" 
d="M793 445v-394h148v-51h-148v-237s-143 -14 -289 -14c-302 0 -428 87 -428 300c0 66 9 132 24 193l66 13c-18 -68 -27 -137 -27 -198c0 -187 109 -257 374 -257c103 0 217 10 217 10v190h-117c-190 0 -259 91 -259 235c0 131 82 245 243 245c105 0 196 -35 196 -35z
M730 51v352s-57 26 -140 26c-105 0 -171 -73 -171 -187c0 -130 60 -191 206 -191h105zM559 615c0 24 20 44 44 44s44 -19 44 -44c0 -24 -20 -44 -44 -44s-44 19 -44 44z" />
    <glyph glyph-name="uni06A8.init" unicode="&#x6a8;" horiz-adv-x="624" 
d="M533 0h-548c-20 0 -60 9 -60 26c0 16 40 25 60 25h127c35 0 59 -3 59 -3c-57 33 -86 92 -86 187c0 131 82 245 242 245c135 0 206 -76 206 -220v-260zM470 51v194c0 134 -55 184 -150 184c-105 0 -170 -73 -170 -188c0 -129 60 -190 205 -190h115zM207 614
c0 24 19 44 43 44s43 -19 43 -44c0 -23 -19 -43 -43 -43s-43 19 -43 43zM341 614c0 24 20 44 44 44s43 -19 43 -44c0 -23 -19 -43 -43 -43s-44 19 -44 43zM274 716c0 24 20 43 44 43c23 0 43 -18 43 -43c0 -24 -20 -43 -43 -43c-24 0 -44 18 -44 43z" />
    <glyph glyph-name="uni06A8.medi" unicode="&#x6a8;" horiz-adv-x="608" 
d="M608 0h-623c-20 0 -60 9 -60 26c0 16 40 25 60 25h98c36 0 78 -2 78 -2c-50 32 -80 94 -80 190c0 130 84 241 233 241c116 0 217 -60 217 -233c0 -80 -33 -157 -92 -198c0 0 56 2 94 2h75v-51zM307 51c82 0 158 57 158 193c0 116 -54 185 -158 185
c-82 0 -161 -57 -161 -186c0 -122 59 -192 161 -192zM200 614c0 24 19 44 43 44s43 -19 43 -44c0 -23 -19 -43 -43 -43s-43 19 -43 43zM334 614c0 24 20 44 44 44s43 -19 43 -44c0 -23 -19 -43 -43 -43s-44 19 -44 43zM267 716c0 24 20 43 44 43c23 0 43 -18 43 -43
c0 -24 -20 -43 -43 -43c-24 0 -44 18 -44 43z" />
    <glyph glyph-name="uni06A8.fina" unicode="&#x6a8;" horiz-adv-x="941" 
d="M793 445v-394h148v-51h-148v-237s-143 -14 -289 -14c-302 0 -428 87 -428 300c0 66 9 132 24 193l66 13c-18 -68 -27 -137 -27 -198c0 -187 109 -257 374 -257c103 0 217 10 217 10v190h-117c-190 0 -259 91 -259 235c0 131 82 245 243 245c105 0 196 -35 196 -35z
M730 51v352s-57 26 -140 26c-105 0 -171 -73 -171 -187c0 -130 60 -191 206 -191h105zM632 614c0 24 20 44 44 44s43 -19 43 -44c0 -23 -19 -43 -43 -43s-44 19 -44 43zM498 614c0 24 19 44 43 44s43 -19 43 -44c0 -23 -19 -43 -43 -43s-43 19 -43 43zM565 716
c0 24 20 43 44 43c23 0 43 -18 43 -43c0 -24 -20 -43 -43 -43c-24 0 -44 18 -44 43z" />
    <glyph glyph-name="uni06AA.init" unicode="&#x6aa;" horiz-adv-x="1033" 
d="M937 0h-952c-20 0 -60 9 -60 26c0 16 40 25 60 25h888c0 192 -89 222 -382 222h-469v63l211 237h82l-227 -248h356c339 0 493 -15 493 -286v-39z" />
    <glyph glyph-name="uni06AA.medi" unicode="&#x6aa;" horiz-adv-x="1009" 
d="M1009 0h-1024c-20 0 -60 9 -60 26c0 16 40 25 60 25h888c0 192 -89 222 -382 222h-469v63l211 237h82l-227 -248h356c334 0 488 -15 492 -274h73v-51z" />
    <glyph glyph-name="uni06AA.fina" unicode="&#x6aa;" horiz-adv-x="1526" 
d="M422 0c-238 0 -337 93 -337 287c0 66 17 135 36 174l69 12c-25 -48 -41 -119 -41 -177c0 -159 60 -244 279 -245h961c0 192 -91 222 -381 222h-569v63l211 237h81l-226 -248h456c334 0 488 -15 492 -274h73v-51h-1104z" />
    <glyph glyph-name="uni06AB.init" unicode="&#x6ab;" horiz-adv-x="455" 
d="M363 552c0 -46 -34 -89 -82 -89c-41 0 -71 28 -73 76l-115 -71c175 -68 267 -181 267 -429v-39h-375c-20 0 -60 9 -60 26c0 16 40 25 60 25h311c-2 226 -88 325 -274 384v50l385 237v-64l-73 -39c18 -13 29 -36 29 -67zM315 549c0 25 -10 39 -30 39
c-16 0 -30 -16 -30 -40c0 -25 12 -38 30 -38c17 0 30 14 30 39z" />
    <glyph glyph-name="uni06AB.medi" unicode="&#x6ab;" horiz-adv-x="445" 
d="M363 552c0 -46 -34 -89 -82 -89c-41 0 -71 28 -73 76l-115 -71c172 -67 264 -178 267 -417h85v-51h-460c-20 0 -60 9 -60 26c0 16 40 25 60 25h311c-2 226 -88 325 -274 384v50l385 237v-64l-73 -39c18 -13 29 -36 29 -67zM315 549c0 25 -10 39 -30 39
c-16 0 -30 -16 -30 -40c0 -25 12 -38 30 -38c17 0 30 14 30 39z" />
    <glyph glyph-name="uni06AB.fina" unicode="&#x6ab;" horiz-adv-x="860" 
d="M780 552c0 -47 -31 -85 -82 -85c-39 0 -73 21 -76 72l-114 -71c172 -67 263 -178 266 -417h86v-51h-438c-238 0 -337 93 -337 287c0 66 17 135 36 174l69 12c-25 -48 -41 -119 -41 -177c0 -160 59 -245 283 -245h278c-1 226 -88 325 -273 384v50l385 237v-64l-72 -38
c18 -13 30 -35 30 -68zM732 550c0 28 -12 44 -31 44c-16 0 -32 -15 -32 -44s12 -44 32 -44c16 0 31 14 31 44z" />
    <glyph glyph-name="uni06AC.init" unicode="&#x6ac;" horiz-adv-x="455" 
d="M360 0h-375c-20 0 -60 9 -60 26c0 16 40 25 60 25h311c0 225 -87 325 -274 384v48l367 231v-65l-291 -181c170 -69 262 -181 262 -429v-39zM129 694c0 24 20 44 44 44s44 -19 44 -44c0 -24 -20 -44 -44 -44s-44 19 -44 44z" />
    <glyph glyph-name="uni06AC.medi" unicode="&#x6ac;" horiz-adv-x="445" 
d="M445 0h-460c-20 0 -60 9 -60 26c0 16 40 25 60 25h311c0 225 -87 325 -274 384v48l367 231v-65l-291 -181c167 -68 259 -178 262 -417h85v-51zM129 694c0 24 20 44 44 44s44 -19 44 -44c0 -24 -20 -44 -44 -44s-44 19 -44 44z" />
    <glyph glyph-name="uni06AC.fina" unicode="&#x6ac;" horiz-adv-x="906" 
d="M422 0c-238 0 -337 93 -337 287c0 66 17 135 36 174l69 12c-25 -48 -41 -119 -41 -177c0 -160 59 -245 283 -245h262v654h64v-654h148v-51h-484zM332 405v43c31 0 61 -3 79 -6c-23 10 -35 35 -35 55c0 44 33 90 116 90c19 0 36 -2 51 -4l-7 -43c-12 2 -32 5 -49 5
c-40 0 -60 -19 -60 -47s23 -50 84 -50h52v-43h-231zM429 695c0 24 20 44 44 44s44 -19 44 -44c0 -24 -20 -44 -44 -44s-44 19 -44 44z" />
    <glyph glyph-name="uni06AD" unicode="&#x6ad;" horiz-adv-x="874" arabic-form="isolated" 
d="M422 0c-238 0 -337 93 -337 287c0 66 17 135 36 174l69 12c-25 -48 -41 -119 -41 -177c0 -160 59 -245 283 -245h268v654h64v-705h-342zM315 326v43c31 0 61 -3 79 -6c-23 10 -35 35 -35 55c0 44 33 90 116 90c19 0 36 -2 51 -4l-7 -43c-12 2 -32 5 -49 5
c-40 0 -60 -19 -60 -47s23 -50 84 -50h52v-43h-231zM336 613c0 24 19 44 43 44s43 -19 43 -44c0 -23 -19 -43 -43 -43s-43 19 -43 43zM470 613c0 24 20 44 44 44s43 -19 43 -44c0 -23 -19 -43 -43 -43s-44 19 -44 43zM403 715c0 24 20 43 44 43c23 0 43 -18 43 -43
c0 -24 -20 -43 -43 -43c-24 0 -44 18 -44 43z" />
    <glyph glyph-name="uniFBD4" unicode="&#x6ad;" horiz-adv-x="912" arabic-form="final" 
d="M422 0c-238 0 -337 93 -337 287c0 66 17 135 36 174l69 12c-25 -48 -41 -119 -41 -177c0 -160 59 -245 283 -245h268v654h64v-654h148v-51h-490zM315 326v43c31 0 61 -3 79 -6c-23 10 -35 35 -35 55c0 44 33 90 116 90c19 0 36 -2 51 -4l-7 -43c-12 2 -32 5 -49 5
c-40 0 -60 -19 -60 -47s23 -50 84 -50h52v-43h-231zM470 613c0 24 20 44 44 44s43 -19 43 -44c0 -23 -19 -43 -43 -43s-44 19 -44 43zM336 613c0 24 19 44 43 44s43 -19 43 -44c0 -23 -19 -43 -43 -43s-43 19 -43 43zM403 715c0 24 20 43 44 43c23 0 43 -18 43 -43
c0 -24 -20 -43 -43 -43c-24 0 -44 18 -44 43z" />
    <glyph glyph-name="uniFBD5" unicode="&#x6ad;" horiz-adv-x="455" arabic-form="initial" 
d="M360 0h-375c-20 0 -60 9 -60 26c0 16 40 25 60 25h311c0 225 -87 326 -274 385v48l367 226v-65l-291 -178c170 -69 262 -180 262 -428v-39zM172 673c0 -24 -20 -43 -43 -43c-24 0 -43 18 -43 43c0 23 19 43 43 43c23 0 43 -19 43 -43zM282 730c0 -24 -19 -43 -43 -43
c-23 0 -43 18 -43 43c0 23 20 42 43 42c24 0 43 -18 43 -42zM184 790c0 -23 -19 -43 -43 -43c-23 0 -43 19 -43 43s20 43 43 43c24 0 43 -18 43 -43z" />
    <glyph glyph-name="uniFBD6" unicode="&#x6ad;" horiz-adv-x="445" arabic-form="medial" 
d="M-15 0c-20 0 -60 9 -60 26c0 16 40 25 60 25h311c0 225 -87 326 -274 385v48l367 226v-65l-291 -178c167 -68 259 -177 262 -416h85v-51h-460zM184 790c0 -23 -19 -43 -43 -43c-23 0 -43 19 -43 43s20 43 43 43c24 0 43 -18 43 -43zM172 673c0 -24 -20 -43 -43 -43
c-24 0 -43 18 -43 43c0 23 19 43 43 43c23 0 43 -19 43 -43zM282 730c0 -24 -19 -43 -43 -43c-23 0 -43 18 -43 43c0 23 20 42 43 42c24 0 43 -18 43 -42z" />
    <glyph glyph-name="uni06AE.init" unicode="&#x6ae;" horiz-adv-x="455" 
d="M360 0h-375c-20 0 -60 9 -60 26c0 16 40 25 60 25h311c0 225 -87 325 -274 384v48l367 231v-65l-291 -181c170 -69 262 -181 262 -429v-39zM145 -214c0 24 20 43 44 43s43 -18 43 -43c0 -24 -19 -43 -43 -43s-44 18 -44 43zM212 -113c0 24 20 43 44 43
c23 0 43 -19 43 -43s-20 -43 -43 -43c-24 0 -44 18 -44 43zM79 -113c0 24 19 43 43 43s43 -19 43 -43s-19 -43 -43 -43s-43 18 -43 43z" />
    <glyph glyph-name="uni06AE.medi" unicode="&#x6ae;" horiz-adv-x="445" 
d="M-15 0c-20 0 -60 9 -60 26c0 16 40 25 60 25h311c0 225 -87 325 -274 384v48l367 231v-65l-291 -181c167 -68 259 -178 262 -417h85v-51h-460zM165 -214c0 24 20 43 44 43s43 -18 43 -43c0 -24 -19 -43 -43 -43s-44 18 -44 43zM232 -113c0 24 20 43 44 43
c23 0 43 -19 43 -43s-20 -43 -43 -43c-24 0 -44 18 -44 43zM99 -113c0 24 19 43 43 43s43 -19 43 -43s-19 -43 -43 -43s-43 18 -43 43z" />
    <glyph glyph-name="uni06AE.fina" unicode="&#x6ae;" horiz-adv-x="906" 
d="M422 0c-238 0 -337 93 -337 287c0 66 17 135 36 174l69 12c-25 -48 -41 -119 -41 -177c0 -160 59 -245 283 -245h262v654h64v-654h148v-51h-484zM332 405v43c31 0 61 -3 79 -6c-23 10 -35 35 -35 55c0 44 33 90 116 90c19 0 36 -2 51 -4l-7 -43c-12 2 -32 5 -49 5
c-40 0 -60 -19 -60 -47s23 -50 84 -50h52v-43h-231zM419 -214c0 24 20 43 44 43s43 -18 43 -43c0 -24 -19 -43 -43 -43s-44 18 -44 43zM486 -113c0 24 20 43 44 43c23 0 43 -19 43 -43s-20 -43 -43 -43c-24 0 -44 18 -44 43zM353 -113c0 24 19 43 43 43s43 -19 43 -43
s-19 -43 -43 -43s-43 18 -43 43z" />
    <glyph glyph-name="uni06B0.init" unicode="&#x6b0;" horiz-adv-x="455" 
d="M363 552c0 -46 -34 -89 -82 -89c-41 0 -71 28 -73 76l-115 -71c175 -68 267 -181 267 -429v-39h-375c-20 0 -60 9 -60 26c0 16 40 25 60 25h311c-2 226 -88 325 -274 384v50l385 237v-64l-73 -39c18 -13 29 -36 29 -67zM22 542v61l385 242v-61zM315 549
c0 25 -10 39 -30 39c-16 0 -30 -16 -30 -40c0 -25 12 -38 30 -38c17 0 30 14 30 39z" />
    <glyph glyph-name="uni06B0.medi" unicode="&#x6b0;" horiz-adv-x="445" 
d="M363 552c0 -46 -34 -89 -82 -89c-41 0 -71 28 -73 76l-115 -71c172 -67 264 -178 267 -417h85v-51h-460c-20 0 -60 9 -60 26c0 16 40 25 60 25h311c-2 226 -88 325 -274 384v50l385 237v-64l-73 -39c18 -13 29 -36 29 -67zM22 542v61l385 242v-61zM315 549
c0 25 -10 39 -30 39c-16 0 -30 -16 -30 -40c0 -25 12 -38 30 -38c17 0 30 14 30 39z" />
    <glyph glyph-name="uni06B0.fina" unicode="&#x6b0;" horiz-adv-x="860" 
d="M780 552c0 -47 -31 -85 -82 -85c-39 0 -73 21 -76 72l-114 -71c172 -67 263 -178 266 -417h86v-51h-438c-238 0 -337 93 -337 287c0 66 17 135 36 174l69 12c-25 -48 -41 -119 -41 -177c0 -160 59 -245 283 -245h278c-1 226 -88 325 -273 384v50l385 237v-64l-72 -38
c18 -13 30 -35 30 -68zM437 540v61l385 242v-61zM732 550c0 28 -12 44 -31 44c-16 0 -32 -15 -32 -44s12 -44 32 -44c16 0 31 14 31 44z" />
    <glyph glyph-name="uni06B1" unicode="&#x6b1;" horiz-adv-x="870" arabic-form="isolated" 
d="M774 0h-352c-238 0 -337 93 -337 287c0 66 17 135 36 174l69 12c-25 -48 -41 -119 -41 -177c0 -160 59 -245 283 -245h279c-1 225 -88 325 -274 384v47l367 231v-64l-292 -181c171 -69 262 -181 262 -429v-39zM437 575v62l367 231v-63zM611 836c-24 0 -43 18 -43 42
s19 43 43 43c23 0 42 -18 42 -43c0 -23 -19 -42 -42 -42zM500 780c-24 0 -43 18 -43 43c0 23 19 42 43 42c23 0 42 -18 42 -42s-19 -43 -42 -43z" />
    <glyph glyph-name="uniFB9B" unicode="&#x6b1;" horiz-adv-x="860" arabic-form="final" 
d="M860 0h-438c-238 0 -337 93 -337 287c0 66 17 135 36 174l69 12c-25 -48 -41 -119 -41 -177c0 -160 59 -245 283 -245h279c-1 225 -88 325 -274 384v47l367 231v-64l-292 -181c168 -68 259 -178 262 -417h86v-51zM437 575v62l367 231v-63zM611 836c-24 0 -43 18 -43 42
s19 43 43 43c23 0 42 -18 42 -43c0 -23 -19 -42 -42 -42zM500 780c-24 0 -43 18 -43 43c0 23 19 42 43 42c23 0 42 -18 42 -42s-19 -43 -42 -43z" />
    <glyph glyph-name="uniFB9C" unicode="&#x6b1;" horiz-adv-x="455" arabic-form="initial" 
d="M360 0h-375c-20 0 -60 9 -60 26c0 16 40 25 60 25h311c0 225 -87 325 -274 384v47l367 228v-65l-292 -179c170 -67 263 -179 263 -427v-39zM22 546v63l367 228v-63zM194 786c-23 0 -42 18 -42 43c0 23 19 42 42 42c24 0 43 -18 43 -42s-19 -43 -43 -43zM83 731
c-23 0 -42 18 -42 42s19 43 42 43c24 0 43 -18 43 -43c0 -23 -19 -42 -43 -42z" />
    <glyph glyph-name="uniFB9D" unicode="&#x6b1;" horiz-adv-x="445" arabic-form="medial" 
d="M445 0h-460c-20 0 -60 9 -60 26c0 16 40 25 60 25h311c0 225 -87 325 -274 384v47l367 228v-65l-292 -179c167 -66 260 -176 263 -415h85v-51zM22 546v63l367 228v-63zM194 786c-23 0 -42 18 -42 43c0 23 19 42 42 42c24 0 43 -18 43 -42s-19 -43 -43 -43zM83 731
c-23 0 -42 18 -42 42s19 43 42 43c24 0 43 -18 43 -43c0 -23 -19 -42 -43 -42z" />
    <glyph glyph-name="uni06B2.init" unicode="&#x6b2;" horiz-adv-x="455" 
d="M360 0h-375c-20 0 -60 9 -60 26c0 16 40 25 60 25h311c0 225 -87 325 -274 384v47l367 231v-64l-291 -181c170 -69 262 -181 262 -429v-39zM22 546v63l367 230v-62zM90 -148c0 24 19 44 43 44s43 -19 43 -44c0 -23 -19 -43 -43 -43s-43 19 -43 43zM224 -148
c0 24 19 44 43 44s43 -19 43 -44c0 -23 -19 -43 -43 -43s-43 19 -43 43z" />
    <glyph glyph-name="uni06B2.medi" unicode="&#x6b2;" horiz-adv-x="445" 
d="M445 0h-460c-20 0 -60 9 -60 26c0 16 40 25 60 25h311c0 225 -87 325 -274 384v47l367 231v-64l-291 -181c167 -68 259 -178 262 -417h85v-51zM22 546v63l367 230v-62zM104 -148c0 24 19 44 43 44s43 -19 43 -44c0 -23 -19 -43 -43 -43s-43 19 -43 43zM238 -148
c0 24 19 44 43 44s43 -19 43 -44c0 -23 -19 -43 -43 -43s-43 19 -43 43z" />
    <glyph glyph-name="uni06B2.fina" unicode="&#x6b2;" horiz-adv-x="860" 
d="M422 0c-238 0 -337 93 -337 287c0 66 17 135 36 174l69 12c-25 -48 -41 -119 -41 -177c0 -160 59 -245 283 -245h279c-1 225 -88 325 -274 384v47l367 231v-64l-292 -181c168 -68 259 -178 262 -417h86v-51h-438zM437 575v62l367 231v-63zM365 -148c0 24 19 44 43 44
s43 -19 43 -44c0 -23 -19 -43 -43 -43s-43 19 -43 43zM499 -148c0 24 19 44 43 44s43 -19 43 -44c0 -23 -19 -43 -43 -43s-43 19 -43 43z" />
    <glyph glyph-name="uni06B3" unicode="&#x6b3;" horiz-adv-x="870" arabic-form="isolated" 
d="M774 0h-352c-238 0 -337 93 -337 287c0 66 17 135 36 174l69 12c-25 -48 -41 -119 -41 -177c0 -160 59 -245 283 -245h279c-1 225 -88 325 -274 384v47l367 231v-64l-292 -181c171 -69 262 -181 262 -429v-39zM437 575v62l367 231v-63zM444 -257c-24 0 -42 18 -42 42
s18 43 42 43s43 -18 43 -43c0 -23 -19 -42 -43 -42zM444 -135c-24 0 -42 19 -42 43c0 23 18 43 42 43s43 -19 43 -43s-19 -43 -43 -43z" />
    <glyph glyph-name="uniFB97" unicode="&#x6b3;" horiz-adv-x="860" arabic-form="final" 
d="M422 0c-238 0 -337 93 -337 287c0 66 17 135 36 174l69 12c-25 -48 -41 -119 -41 -177c0 -160 59 -245 283 -245h279c-1 225 -88 325 -274 384v47l367 231v-64l-292 -181c168 -68 259 -178 262 -417h86v-51h-438zM437 575v62l367 231v-63zM444 -135c-24 0 -42 19 -42 43
c0 23 18 43 42 43s43 -19 43 -43s-19 -43 -43 -43zM444 -257c-24 0 -42 18 -42 42s18 43 42 43s43 -18 43 -43c0 -23 -19 -42 -43 -42z" />
    <glyph glyph-name="uniFB98" unicode="&#x6b3;" horiz-adv-x="455" arabic-form="initial" 
d="M360 0h-375c-20 0 -60 9 -60 26c0 16 40 25 60 25h311c0 225 -87 325 -274 384v47l367 231v-64l-291 -181c170 -69 262 -181 262 -429v-39zM22 546v63l367 230v-62zM165 -257c-24 0 -42 18 -42 42s18 43 42 43s43 -18 43 -43c0 -23 -19 -42 -43 -42zM165 -135
c-24 0 -42 19 -42 43c0 23 18 43 42 43s43 -19 43 -43s-19 -43 -43 -43z" />
    <glyph glyph-name="uniFB99" unicode="&#x6b3;" horiz-adv-x="445" arabic-form="medial" 
d="M-15 0c-20 0 -60 9 -60 26c0 16 40 25 60 25h311c0 225 -87 325 -274 384v47l367 231v-64l-291 -181c167 -68 259 -178 262 -417h85v-51h-460zM22 546v63l367 230v-62zM165 -135c-24 0 -42 19 -42 43c0 23 18 43 42 43s43 -19 43 -43s-19 -43 -43 -43zM165 -257
c-24 0 -42 18 -42 42s18 43 42 43s43 -18 43 -43c0 -23 -19 -42 -43 -42z" />
    <glyph glyph-name="uni06B4.init" unicode="&#x6b4;" horiz-adv-x="455" 
d="M360 0h-375c-20 0 -60 9 -60 26c0 16 40 25 60 25h311c0 225 -87 325 -274 384v45l367 231v-62l-292 -182c171 -67 263 -180 263 -428v-39zM22 543v61l367 231v-61zM201 786c-23 0 -42 18 -42 42c0 23 19 42 42 42s42 -18 42 -42c0 -23 -19 -42 -42 -42zM104 839
c-24 0 -42 18 -42 42s18 43 42 43c23 0 42 -19 42 -43c0 -23 -19 -42 -42 -42zM88 728c-23 0 -42 18 -42 42c0 23 19 42 42 42s42 -18 42 -42c0 -23 -19 -42 -42 -42z" />
    <glyph glyph-name="uni06B4.medi" unicode="&#x6b4;" horiz-adv-x="445" 
d="M445 0h-460c-20 0 -60 9 -60 26c0 16 40 25 60 25h311c0 225 -87 325 -274 384v45l367 231v-62l-292 -182c168 -66 260 -177 263 -416h85v-51zM22 543v61l367 231v-61zM104 839c-24 0 -42 18 -42 42s18 43 42 43c23 0 42 -19 42 -43c0 -23 -19 -42 -42 -42zM201 786
c-23 0 -42 18 -42 42c0 23 19 42 42 42s42 -18 42 -42c0 -23 -19 -42 -42 -42zM88 728c-23 0 -42 18 -42 42c0 23 19 42 42 42s42 -18 42 -42c0 -23 -19 -42 -42 -42z" />
    <glyph glyph-name="uni06B4.fina" unicode="&#x6b4;" horiz-adv-x="860" 
d="M422 0c-238 0 -337 93 -337 287c0 66 17 135 36 174l69 12c-25 -48 -41 -119 -41 -177c0 -160 59 -245 283 -245h279c-1 225 -88 325 -274 384v45l367 231v-62l-292 -181c168 -68 259 -178 262 -417h86v-51h-438zM437 571v61l367 231v-62zM519 885c-24 0 -43 18 -43 42
s19 43 43 43c23 0 42 -18 42 -43c0 -23 -19 -42 -42 -42zM616 832c-24 0 -43 18 -43 42c0 23 19 43 43 43c23 0 42 -19 42 -43c0 -23 -19 -42 -42 -42zM503 774c-24 0 -43 18 -43 42c0 23 19 43 43 43c23 0 42 -19 42 -43c0 -23 -19 -42 -42 -42z" />
    <glyph glyph-name="uni06B5.init" unicode="&#x6b5;" 
d="M212 0h-227c-20 0 -60 9 -60 26c0 16 40 25 60 25h163v654h64v-705zM309 877l-129 -128l-128 126l32 33l97 -88l97 88z" />
    <glyph glyph-name="uni06B5.medi" unicode="&#x6b5;" horiz-adv-x="360" 
d="M-15 0c-20 0 -60 9 -60 26c0 16 40 25 60 25h163v654h64v-654h148v-51h-375zM309 877l-129 -128l-128 126l32 33l97 -88l97 88z" />
    <glyph glyph-name="uni06B5.fina" unicode="&#x6b5;" horiz-adv-x="683" 
d="M481 40v665h63v-654h140v-51h-142c-15 -167 -114 -231 -229 -231c-122 0 -237 67 -237 275c0 71 9 137 24 198l66 13c-18 -68 -27 -137 -27 -205c0 -184 96 -230 182 -230c85 0 160 52 160 220zM633 877l-129 -128l-128 126l32 33l97 -88l97 88z" />
    <glyph glyph-name="uni06B6.init" unicode="&#x6b6;" 
d="M212 0h-227c-20 0 -60 9 -60 26c0 16 40 25 60 25h163v654h64v-705zM136 816c0 24 20 44 44 44s44 -19 44 -44c0 -24 -20 -44 -44 -44s-44 19 -44 44z" />
    <glyph glyph-name="uni06B6.medi" unicode="&#x6b6;" horiz-adv-x="360" 
d="M-15 0c-20 0 -60 9 -60 26c0 16 40 25 60 25h163v654h64v-654h148v-51h-375zM136 816c0 24 20 44 44 44s44 -19 44 -44c0 -24 -20 -44 -44 -44s-44 19 -44 44z" />
    <glyph glyph-name="uni06B6.fina" unicode="&#x6b6;" horiz-adv-x="683" 
d="M481 40v665h63v-654h140v-51h-142c-15 -167 -114 -231 -229 -231c-122 0 -237 67 -237 275c0 71 9 137 24 198l66 13c-18 -68 -27 -137 -27 -205c0 -184 96 -230 182 -230c85 0 160 52 160 220zM460 816c0 24 20 44 44 44s44 -19 44 -44c0 -24 -20 -44 -44 -44
s-44 19 -44 44z" />
    <glyph glyph-name="uni06B7.init" unicode="&#x6b7;" 
d="M212 0h-227c-20 0 -60 9 -60 26c0 16 40 25 60 25h163v649h64v-700zM72 790c0 24 19 44 43 44s43 -19 43 -44c0 -23 -19 -43 -43 -43s-43 19 -43 43zM206 790c0 24 20 44 44 44s43 -19 43 -44c0 -23 -19 -43 -43 -43s-44 19 -44 43zM139 892c0 24 20 43 44 43
c23 0 43 -18 43 -43c0 -24 -20 -43 -43 -43c-24 0 -44 18 -44 43z" />
    <glyph glyph-name="uni06B7.medi" unicode="&#x6b7;" horiz-adv-x="360" 
d="M360 0h-375c-20 0 -60 9 -60 26c0 16 40 25 60 25h163v649h64v-649h148v-51zM206 790c0 24 20 44 44 44s43 -19 43 -44c0 -23 -19 -43 -43 -43s-44 19 -44 43zM72 790c0 24 19 44 43 44s43 -19 43 -44c0 -23 -19 -43 -43 -43s-43 19 -43 43zM139 892c0 24 20 43 44 43
c23 0 43 -18 43 -43c0 -24 -20 -43 -43 -43c-24 0 -44 18 -44 43z" />
    <glyph glyph-name="uni06B7.fina" unicode="&#x6b7;" horiz-adv-x="683" 
d="M481 40v660h63v-649h140v-51h-142c-15 -167 -114 -231 -229 -231c-122 0 -237 67 -237 275c0 71 9 137 24 198l66 13c-18 -68 -27 -137 -27 -205c0 -184 96 -230 182 -230c85 0 160 52 160 220zM535 790c0 24 20 44 44 44s43 -19 43 -44c0 -23 -19 -43 -43 -43
s-44 19 -44 43zM401 790c0 24 19 44 43 44s43 -19 43 -44c0 -23 -19 -43 -43 -43s-43 19 -43 43zM468 892c0 24 20 43 44 43c23 0 43 -18 43 -43c0 -24 -20 -43 -43 -43c-24 0 -44 18 -44 43z" />
    <glyph glyph-name="uni06B8.init" unicode="&#x6b8;" 
d="M212 0h-227c-20 0 -60 9 -60 26c0 16 40 25 60 25h163v654h64v-705zM134 -214c0 24 20 43 44 43s43 -18 43 -43c0 -24 -19 -43 -43 -43s-44 18 -44 43zM201 -113c0 24 20 43 44 43c23 0 43 -19 43 -43s-20 -43 -43 -43c-24 0 -44 18 -44 43zM68 -113c0 24 19 43 43 43
s43 -19 43 -43s-19 -43 -43 -43s-43 18 -43 43z" />
    <glyph glyph-name="uni06B8.medi" unicode="&#x6b8;" horiz-adv-x="360" 
d="M360 0h-375c-20 0 -60 9 -60 26c0 16 40 25 60 25h163v654h64v-654h148v-51zM135 -214c0 24 20 43 44 43s43 -18 43 -43c0 -24 -19 -43 -43 -43s-44 18 -44 43zM202 -113c0 24 20 43 44 43c23 0 43 -19 43 -43s-20 -43 -43 -43c-24 0 -44 18 -44 43zM69 -113
c0 24 19 43 43 43s43 -19 43 -43s-19 -43 -43 -43s-43 18 -43 43z" />
    <glyph glyph-name="uni06B8.fina" unicode="&#x6b8;" horiz-adv-x="683" 
d="M481 135v570h63v-563c0 -34 -3 -64 -9 -91h148v-51h-162c-38 -97 -118 -136 -208 -136c-122 0 -237 66 -237 275c0 70 9 137 24 197l66 13c-18 -67 -27 -136 -27 -204c0 -184 96 -230 182 -230c85 0 160 52 160 220zM212 -160c24 0 43 -18 43 -43c0 -23 -19 -43 -43 -43
s-43 19 -43 43s19 43 43 43zM414 -160c23 0 43 -18 43 -43c0 -23 -20 -43 -43 -43c-24 0 -43 19 -43 43s19 43 43 43zM313 -216c23 0 43 -18 43 -43c0 -23 -20 -43 -43 -43c-24 0 -43 19 -43 43s19 43 43 43z" />
    <glyph glyph-name="uni06B9.init" unicode="&#x6b9;" 
d="M212 0h-227c-20 0 -60 9 -60 26c0 16 40 25 60 25h163v419h64v-470zM135 615c0 24 20 44 44 44s44 -19 44 -44c0 -24 -20 -44 -44 -44s-44 19 -44 44zM126 -147c0 24 20 44 44 44s44 -19 44 -44c0 -24 -20 -44 -44 -44s-44 19 -44 44z" />
    <glyph glyph-name="uni06B9.medi" unicode="&#x6b9;" horiz-adv-x="360" 
d="M360 0h-375c-20 0 -60 9 -60 26c0 16 40 25 60 25h163v419h64v-419h148v-51zM135 615c0 24 20 44 44 44s44 -19 44 -44c0 -24 -20 -44 -44 -44s-44 19 -44 44zM134 -147c0 24 20 44 44 44s44 -19 44 -44c0 -24 -20 -44 -44 -44s-44 19 -44 44z" />
    <glyph glyph-name="uni06B9.fina" unicode="&#x6b9;" horiz-adv-x="713" 
d="M564 470v-403v-16h149v-51h-154c-21 -132 -106 -199 -245 -199c-122 0 -238 66 -238 274c0 69 8 120 24 179l65 12c-17 -65 -26 -118 -26 -185c0 -183 96 -229 183 -229c101 0 179 53 179 211v407h63zM280 -275c0 24 20 44 44 44s44 -19 44 -44c0 -24 -20 -44 -44 -44
s-44 19 -44 44zM272 432c0 24 20 44 44 44s44 -19 44 -44c0 -24 -20 -44 -44 -44s-44 19 -44 44z" />
    <glyph glyph-name="uni06BB" unicode="&#x6bb;" horiz-adv-x="675" arabic-form="isolated" 
d="M564 470v-434c0 -179 -89 -267 -250 -267c-122 0 -238 67 -238 275c0 71 9 137 24 198l66 13c-18 -68 -27 -137 -27 -205c0 -184 96 -230 183 -230c101 0 179 52 179 213v437h63zM380 479c0 32 -13 57 -46 57c-57 0 -113 -73 -115 -129h75c61 0 86 28 86 72zM219 647v-87
c0 -20 -2 -45 -6 -65h1c25 47 75 82 126 82c58 0 90 -36 90 -91c0 -72 -46 -119 -144 -119h-116v280h49z" />
    <glyph glyph-name="uniFBA1" unicode="&#x6bb;" horiz-adv-x="713" arabic-form="final" 
d="M564 470v-419h149v-51h-151c-11 -154 -99 -231 -248 -231c-122 0 -238 67 -238 275c0 71 9 137 24 198l66 13c-18 -68 -27 -137 -27 -205c0 -184 96 -230 183 -230c101 0 179 52 179 213v437h63zM219 647v-87c0 -20 -2 -45 -6 -65h1c25 47 75 82 126 82
c58 0 90 -36 90 -91c0 -72 -46 -119 -144 -119h-116v280h49zM380 479c0 32 -13 57 -46 57c-57 0 -113 -73 -115 -129h75c61 0 86 28 86 72z" />
    <glyph glyph-name="uniFBA2" unicode="&#x6bb;" arabic-form="initial" 
d="M212 0h-227c-20 0 -60 9 -60 26c0 16 40 25 60 25h163v419h64v-470zM261 702c0 32 -13 57 -46 57c-57 0 -113 -73 -115 -129h75c61 0 86 28 86 72zM100 870v-87c0 -20 -2 -45 -6 -65h1c25 47 75 82 126 82c58 0 90 -36 90 -91c0 -72 -46 -119 -144 -119h-116v280h49z" />
    <glyph glyph-name="uniFBA3" unicode="&#x6bb;" horiz-adv-x="360" arabic-form="medial" 
d="M106 870v-87c0 -20 -2 -45 -6 -65h1c25 47 75 82 126 82c58 0 90 -36 90 -91c0 -72 -46 -119 -144 -119h-116v280h49zM-15 0c-20 0 -60 9 -60 26c0 16 40 25 60 25h163v419h64v-419h148v-51h-375zM267 702c0 32 -13 57 -46 57c-57 0 -113 -73 -115 -129h75
c61 0 86 28 86 72z" />
    <glyph glyph-name="uni06BC.init" unicode="&#x6bc;" 
d="M172 -42c0 -47 -31 -85 -82 -85c-41 0 -76 23 -76 81c0 17 4 33 11 46h-40c-20 0 -60 9 -60 26c0 16 40 25 60 25h163v419h64v-470h-49c6 -11 9 -25 9 -42zM135 615c0 24 20 44 44 44s44 -19 44 -44c0 -24 -20 -44 -44 -44s-44 19 -44 44zM125 -44c0 29 -12 44 -32 44h-4
c-14 -2 -27 -16 -27 -44c0 -29 12 -44 31 -44c16 0 32 15 32 44z" />
    <glyph glyph-name="uni06BC.medi" unicode="&#x6bc;" horiz-adv-x="360" 
d="M260 -42c0 -47 -31 -85 -82 -85c-41 0 -76 23 -76 81c0 17 4 33 11 46h-128c-20 0 -60 9 -60 26c0 16 40 25 60 25h163v419h64v-419h148v-51h-109c6 -11 9 -25 9 -42zM135 615c0 24 20 44 44 44s44 -19 44 -44c0 -24 -20 -44 -44 -44s-44 19 -44 44zM213 -44
c0 28 -11 43 -29 44h-7c-14 -2 -27 -16 -27 -44c0 -29 12 -44 31 -44c16 0 32 15 32 44z" />
    <glyph glyph-name="uni06BC.fina" unicode="&#x6bc;" horiz-adv-x="713" 
d="M555 -220c0 -47 -31 -85 -82 -85c-41 0 -76 23 -76 80v5c-25 -8 -53 -11 -83 -11c-122 0 -238 67 -238 275c0 71 9 137 24 198l66 13c-18 -68 -27 -137 -27 -205c0 -184 96 -230 183 -230c101 0 179 52 179 213v437h63v-419h149v-51h-150c-4 -48 -16 -101 -50 -145
c25 -11 42 -35 42 -75zM368 436c0 -24 -19 -43 -43 -43s-43 18 -43 43c0 24 19 43 43 43s43 -18 43 -43zM507 -222c0 28 -11 44 -31 44c-16 0 -32 -15 -32 -44s12 -44 32 -44c16 0 31 15 31 44z" />
    <glyph glyph-name="uni06BD.init" unicode="&#x6bd;" 
d="M212 0h-227c-20 0 -60 9 -60 26c0 16 40 25 60 25h163v419h64v-470zM134 -214c0 24 20 43 44 43s43 -18 43 -43c0 -24 -19 -43 -43 -43s-44 18 -44 43zM201 -113c0 24 20 43 44 43c23 0 43 -19 43 -43s-20 -43 -43 -43c-24 0 -44 18 -44 43zM68 -113c0 24 19 43 43 43
s43 -19 43 -43s-19 -43 -43 -43s-43 18 -43 43z" />
    <glyph glyph-name="uni06BD.medi" unicode="&#x6bd;" horiz-adv-x="360" 
d="M360 0h-375c-20 0 -60 9 -60 26c0 16 40 25 60 25h163v419h64v-419h148v-51zM135 -214c0 24 20 43 44 43s43 -18 43 -43c0 -24 -19 -43 -43 -43s-44 18 -44 43zM202 -113c0 24 20 43 44 43c23 0 43 -19 43 -43s-20 -43 -43 -43c-24 0 -44 18 -44 43zM69 -113
c0 24 19 43 43 43s43 -19 43 -43s-19 -43 -43 -43s-43 18 -43 43z" />
    <glyph glyph-name="uni06BD.fina" unicode="&#x6bd;" horiz-adv-x="713" 
d="M564 470v-419h149v-51h-151c-11 -154 -99 -231 -248 -231c-122 0 -238 67 -238 275c0 71 9 137 24 198l66 13c-18 -68 -27 -137 -27 -205c0 -184 96 -230 183 -230c101 0 179 52 179 213v437h63zM321 384c0 24 20 44 44 44s43 -19 43 -44c0 -23 -19 -43 -43 -43
s-44 19 -44 43zM187 384c0 24 19 44 43 44s43 -19 43 -44c0 -23 -19 -43 -43 -43s-43 19 -43 43zM254 486c0 24 20 43 44 43c23 0 43 -18 43 -43c0 -24 -20 -43 -43 -43c-24 0 -44 18 -44 43z" />
    <glyph glyph-name="uni06BF.init" unicode="&#x6bf;" horiz-adv-x="533" 
d="M431 0h-446c-20 0 -60 9 -60 26c0 16 40 25 60 25h391c5 43 8 83 8 122c0 169 -57 249 -236 249c-38 0 -87 -4 -125 -10v50c30 6 87 11 130 11c218 0 294 -102 294 -292c0 -47 -4 -109 -16 -181zM138 -214c0 24 20 43 44 43s43 -18 43 -43c0 -24 -19 -43 -43 -43
s-44 18 -44 43zM205 -113c0 24 20 43 44 43c23 0 43 -19 43 -43s-20 -43 -43 -43c-24 0 -44 18 -44 43zM72 -113c0 24 19 43 43 43s43 -19 43 -43s-19 -43 -43 -43s-43 18 -43 43zM137 615c0 24 20 44 44 44s44 -19 44 -44c0 -24 -20 -44 -44 -44s-44 19 -44 44z" />
    <glyph glyph-name="uni06BF.medi" unicode="&#x6bf;" horiz-adv-x="527" 
d="M-15 0c-20 0 -60 9 -60 26c0 16 40 25 60 25h391c5 43 8 83 8 122c0 169 -57 249 -236 249c-38 0 -87 -4 -125 -10v50c30 6 87 11 130 11c218 0 294 -102 294 -292c0 -36 -2 -80 -9 -130h89v-51h-542zM137 615c0 24 20 44 44 44s44 -19 44 -44c0 -24 -20 -44 -44 -44
s-44 19 -44 44zM140 -214c0 24 20 43 44 43s43 -18 43 -43c0 -24 -19 -43 -43 -43s-44 18 -44 43zM207 -113c0 24 20 43 44 43c23 0 43 -19 43 -43s-20 -43 -43 -43c-24 0 -44 18 -44 43zM74 -113c0 24 19 43 43 43s43 -19 43 -43s-19 -43 -43 -43s-43 18 -43 43z" />
    <glyph glyph-name="uni06BF.fina" unicode="&#x6bf;" horiz-adv-x="616" 
d="M616 0h-279c-186 0 -231 -59 -231 -135c0 -68 52 -115 144 -129l-12 -52c-120 16 -195 82 -195 173c0 111 73 194 299 194h122c6 43 8 83 8 122c0 169 -57 249 -235 249c-39 0 -71 -2 -108 -7v50c29 4 69 8 113 8c217 0 294 -102 294 -292c0 -36 -2 -80 -9 -130h89v-51z
M225 615c0 24 20 44 44 44s44 -19 44 -44c0 -24 -20 -44 -44 -44s-44 19 -44 44zM334 -214c0 24 20 43 44 43s43 -18 43 -43c0 -24 -19 -43 -43 -43s-44 18 -44 43zM401 -113c0 24 20 43 44 43c23 0 43 -19 43 -43s-20 -43 -43 -43c-24 0 -44 18 -44 43zM268 -113
c0 24 19 43 43 43s43 -19 43 -43s-19 -43 -43 -43s-43 18 -43 43z" />
    <glyph glyph-name="uni06C4.fina" unicode="&#x6c4;" horiz-adv-x="663" 
d="M239 -259c-79 0 -160 16 -160 16l6 56s89 -21 162 -21c33 0 61 4 83 10c-18 12 -29 33 -29 66c0 46 30 84 81 84c27 0 51 -11 64 -36c4 15 6 33 6 54v31h-115c-192 0 -261 90 -261 234c0 131 82 245 243 245c105 0 196 -35 196 -35v-394h148v-51h-148v-31
c0 -108 -66 -228 -276 -228zM452 52v351s-57 26 -140 26c-105 0 -171 -73 -171 -187c0 -130 60 -190 207 -190h104zM410 -130c0 29 -12 44 -31 44c-16 0 -32 -14 -32 -44c0 -29 12 -44 32 -44c15 0 31 15 31 44z" />
    <glyph glyph-name="uni06C5.isol" unicode="&#x6c5;" horiz-adv-x="625" arabic-form="isolated" 
d="M188 -108v48c115 0 179 -17 235 -74c18 26 29 61 29 104v31h-117c-190 0 -259 90 -259 234c0 131 82 245 243 245c105 0 196 -35 196 -35v-476c0 -108 -66 -228 -276 -228c-79 0 -160 16 -160 16l6 56s89 -21 162 -21c53 0 103 12 140 38c-55 53 -112 62 -199 62zM452 52
v351s-57 26 -140 26c-105 0 -171 -73 -171 -187c0 -130 60 -190 206 -190h105z" />
    <glyph glyph-name="uni06C5.fina" unicode="&#x6c5;" horiz-adv-x="663" arabic-form="final" 
d="M188 -108v48c115 0 179 -17 235 -74c18 26 29 61 29 104v31h-117c-190 0 -259 90 -259 234c0 131 82 245 243 245c105 0 196 -35 196 -35v-394h148v-51h-148v-31c0 -108 -66 -228 -276 -228c-79 0 -160 16 -160 16l6 56s89 -21 162 -21c53 0 103 12 140 38
c-55 53 -112 62 -199 62zM452 52v351s-57 26 -140 26c-105 0 -171 -73 -171 -187c0 -130 60 -190 206 -190h105z" />
    <glyph glyph-name="uni06C6" unicode="&#x6c6;" horiz-adv-x="625" arabic-form="isolated" 
d="M239 -254c-79 0 -159 17 -159 17l5 56s89 -22 162 -22c113 0 205 43 205 172v31h-117c-190 0 -259 91 -259 235c0 131 82 245 243 245c105 0 196 -35 196 -35v-476c0 -103 -66 -223 -276 -223zM452 51v352s-57 26 -140 26c-105 0 -171 -73 -171 -187
c0 -130 60 -191 206 -191h105zM450 706l-129 -128l-128 126l32 33l97 -88l97 88z" />
    <glyph glyph-name="uniFBDA" unicode="&#x6c6;" horiz-adv-x="663" arabic-form="final" 
d="M239 -254c-79 0 -159 17 -159 17l5 56s89 -22 162 -22c113 0 205 43 205 172v31h-117c-190 0 -259 91 -259 235c0 131 82 245 243 245c105 0 196 -35 196 -35v-394h148v-51h-148v-31c0 -103 -66 -223 -276 -223zM452 51v352s-57 26 -140 26c-105 0 -171 -73 -171 -187
c0 -130 60 -191 206 -191h105zM450 706l-129 -128l-128 126l32 33l97 -88l97 88z" />
    <glyph glyph-name="uni06C7" unicode="&#x6c7;" horiz-adv-x="625" arabic-form="isolated" 
d="M239 -254c-79 0 -159 17 -159 17l5 56s89 -22 162 -22c113 0 205 43 205 172v31h-117c-190 0 -259 91 -259 235c0 131 82 245 243 245c105 0 196 -35 196 -35v-476c0 -103 -66 -223 -276 -223zM452 51v352s-57 26 -140 26c-105 0 -171 -73 -171 -187
c0 -130 60 -191 206 -191h105zM185 584v34l77 10s-7 15 -7 35c0 45 36 77 82 77s74 -27 74 -67c0 -48 -42 -65 -91 -71zM300 633l17 2c40 5 56 15 56 39c0 19 -15 32 -36 32c-27 0 -43 -18 -43 -44c0 -18 6 -29 6 -29z" />
    <glyph glyph-name="uniFBD8" unicode="&#x6c7;" horiz-adv-x="663" arabic-form="final" 
d="M239 -254c-79 0 -159 17 -159 17l5 56s89 -22 162 -22c113 0 205 43 205 172v31h-117c-190 0 -259 91 -259 235c0 131 82 245 243 245c105 0 196 -35 196 -35v-394h148v-51h-148v-31c0 -103 -66 -223 -276 -223zM452 51v352s-57 26 -140 26c-105 0 -171 -73 -171 -187
c0 -130 60 -191 206 -191h105zM185 584v34l77 10s-7 15 -7 35c0 45 36 77 82 77s74 -27 74 -67c0 -48 -42 -65 -91 -71zM300 633l17 2c40 5 56 15 56 39c0 19 -15 32 -36 32c-27 0 -43 -18 -43 -44c0 -18 6 -29 6 -29z" />
    <glyph glyph-name="uni06C8" unicode="&#x6c8;" horiz-adv-x="625" arabic-form="isolated" 
d="M239 -254c-79 0 -159 17 -159 17l5 56s89 -22 162 -22c113 0 205 43 205 172v31h-117c-190 0 -259 91 -259 235c0 131 82 245 243 245c105 0 196 -35 196 -35v-476c0 -103 -66 -223 -276 -223zM452 51v352s-57 26 -140 26c-105 0 -171 -73 -171 -187
c0 -130 60 -191 206 -191h105zM326 604l-50 -11v225h50v-214z" />
    <glyph glyph-name="uniFBDC" unicode="&#x6c8;" horiz-adv-x="663" arabic-form="final" 
d="M239 -254c-79 0 -159 17 -159 17l5 56s89 -22 162 -22c113 0 205 43 205 172v31h-117c-190 0 -259 91 -259 235c0 131 82 245 243 245c105 0 196 -35 196 -35v-394h148v-51h-148v-31c0 -103 -66 -223 -276 -223zM452 51v352s-57 26 -140 26c-105 0 -171 -73 -171 -187
c0 -130 60 -191 206 -191h105zM326 604l-50 -11v225h50v-214z" />
    <glyph glyph-name="uni06C9" unicode="&#x6c9;" horiz-adv-x="625" arabic-form="isolated" 
d="M239 -254c-79 0 -159 17 -159 17l5 56s89 -22 162 -22c113 0 205 43 205 172v31h-117c-190 0 -259 91 -259 235c0 131 82 245 243 245c105 0 196 -35 196 -35v-476c0 -103 -66 -223 -276 -223zM452 51v352s-57 26 -140 26c-105 0 -171 -73 -171 -187
c0 -130 60 -191 206 -191h105zM443 610l-33 -32l-97 87l-97 -87l-30 30l129 129z" />
    <glyph glyph-name="uniFBE3" unicode="&#x6c9;" horiz-adv-x="663" arabic-form="final" 
d="M239 -254c-79 0 -159 17 -159 17l5 56s89 -22 162 -22c113 0 205 43 205 172v31h-117c-190 0 -259 91 -259 235c0 131 82 245 243 245c105 0 196 -35 196 -35v-394h148v-51h-148v-31c0 -103 -66 -223 -276 -223zM452 51v352s-57 26 -140 26c-105 0 -171 -73 -171 -187
c0 -130 60 -191 206 -191h105zM443 610l-33 -32l-97 87l-97 -87l-30 30l129 129z" />
    <glyph glyph-name="uni06CA.fina" unicode="&#x6ca;" horiz-adv-x="663" 
d="M239 -254c-79 0 -159 17 -159 17l5 56s89 -22 162 -22c113 0 205 43 205 172v31h-117c-190 0 -259 91 -259 235c0 131 82 245 243 245c105 0 196 -35 196 -35v-394h148v-51h-148v-31c0 -103 -66 -223 -276 -223zM452 51v352s-57 26 -140 26c-105 0 -171 -73 -171 -187
c0 -130 60 -191 206 -191h105zM339 615c0 24 19 43 43 43s43 -18 43 -43c0 -24 -19 -43 -43 -43s-43 19 -43 43zM205 615c0 24 19 43 43 43s43 -18 43 -43c0 -24 -19 -43 -43 -43s-43 19 -43 43z" />
    <glyph glyph-name="uni06CB" unicode="&#x6cb;" horiz-adv-x="625" arabic-form="isolated" 
d="M239 -254c-79 0 -159 17 -159 17l5 56s89 -22 162 -22c113 0 205 43 205 172v31h-117c-190 0 -259 91 -259 235c0 131 82 245 243 245c105 0 196 -35 196 -35v-476c0 -103 -66 -223 -276 -223zM452 51v352s-57 26 -140 26c-105 0 -171 -73 -171 -187
c0 -130 60 -191 206 -191h105zM205 614c0 24 19 44 43 44s43 -19 43 -44c0 -23 -19 -43 -43 -43s-43 19 -43 43zM339 614c0 24 20 44 44 44s43 -19 43 -44c0 -23 -19 -43 -43 -43s-44 19 -44 43zM272 716c0 24 20 43 44 43c23 0 43 -18 43 -43c0 -24 -20 -43 -43 -43
c-24 0 -44 18 -44 43z" />
    <glyph glyph-name="uniFBDF" unicode="&#x6cb;" horiz-adv-x="663" arabic-form="final" 
d="M239 -254c-79 0 -159 17 -159 17l5 56s89 -22 162 -22c113 0 205 43 205 172v31h-117c-190 0 -259 91 -259 235c0 131 82 245 243 245c105 0 196 -35 196 -35v-394h148v-51h-148v-31c0 -103 -66 -223 -276 -223zM452 51v352s-57 26 -140 26c-105 0 -171 -73 -171 -187
c0 -130 60 -191 206 -191h105zM339 614c0 24 20 44 44 44s43 -19 43 -44c0 -23 -19 -43 -43 -43s-44 19 -44 43zM205 614c0 24 19 44 43 44s43 -19 43 -44c0 -23 -19 -43 -43 -43s-43 19 -43 43zM272 716c0 24 20 43 44 43c23 0 43 -18 43 -43c0 -24 -20 -43 -43 -43
c-24 0 -44 18 -44 43z" />
    <glyph glyph-name="uni06CD.fina" unicode="&#x6cd;" horiz-adv-x="1061" 
d="M622 0h-171c-267 0 -337 108 -337 355l-86 -13v55l150 22v-88c0 -204 65 -280 283 -280h98v410s83 19 168 19c162 0 219 -80 219 -217v-212h115v-51h-178v252c0 127 -50 177 -164 177c-47 0 -97 -10 -97 -10v-419z" />
    <glyph glyph-name="uni06CE.init" unicode="&#x6ce;" 
d="M212 0h-227c-20 0 -60 9 -60 26c0 16 40 25 60 25h163v419h64v-470zM308 706l-129 -128l-128 126l32 33l97 -88l97 88zM68 -148c0 24 19 44 43 44s43 -19 43 -44c0 -23 -19 -43 -43 -43s-43 19 -43 43zM202 -148c0 24 19 44 43 44s43 -19 43 -44c0 -23 -19 -43 -43 -43
s-43 19 -43 43z" />
    <glyph glyph-name="uni06CE.medi" unicode="&#x6ce;" horiz-adv-x="360" 
d="M-15 0c-20 0 -60 9 -60 26c0 16 40 25 60 25h163v419h64v-419h148v-51h-375zM308 706l-129 -128l-128 126l32 33l97 -88l97 88zM70 -148c0 24 19 44 43 44s43 -19 43 -44c0 -23 -19 -43 -43 -43s-43 19 -43 43zM204 -148c0 24 19 44 43 44s43 -19 43 -44
c0 -23 -19 -43 -43 -43s-43 19 -43 43z" />
    <glyph glyph-name="uni06CE.fina" unicode="&#x6ce;" horiz-adv-x="1032" 
d="M593 0h-171c-238 0 -337 93 -337 287c0 66 17 135 36 174l69 12c-25 -48 -41 -119 -41 -177c0 -160 59 -245 283 -245h98v410s83 19 169 19c161 0 218 -80 218 -217v-212h115v-51h-178v252c0 127 -50 177 -164 177c-47 0 -97 -10 -97 -10v-419zM498 706l-129 -128
l-128 126l32 33l97 -88l97 88z" />
    <glyph glyph-name="uni06CF.fina" unicode="&#x6cf;" horiz-adv-x="663" 
d="M239 -254c-79 0 -159 17 -159 17l5 56s89 -22 162 -22c113 0 205 43 205 172v31h-117c-190 0 -259 91 -259 235c0 131 82 245 243 245c105 0 196 -35 196 -35v-394h148v-51h-148v-31c0 -103 -66 -223 -276 -223zM452 51v352s-57 26 -140 26c-105 0 -171 -73 -171 -187
c0 -130 60 -191 206 -191h105zM276 615c0 24 20 44 44 44s44 -19 44 -44c0 -24 -20 -44 -44 -44s-44 19 -44 44z" />
    <glyph glyph-name="uni06D0" unicode="&#x6d0;" horiz-adv-x="1003" arabic-form="isolated" 
d="M593 0h-171c-238 0 -337 93 -337 287c0 66 17 135 36 174l69 12c-25 -48 -41 -119 -41 -177c0 -160 59 -245 283 -245h98v410s83 19 169 19c161 0 218 -80 218 -217v-143h-63v132c0 127 -50 177 -164 177c-47 0 -97 -10 -97 -10v-419zM381 -257c-24 0 -42 18 -42 42
s18 43 42 43s43 -18 43 -43c0 -23 -19 -42 -43 -42zM381 -135c-24 0 -42 19 -42 43c0 23 18 43 42 43s43 -19 43 -43s-19 -43 -43 -43z" />
    <glyph glyph-name="uniFBE5" unicode="&#x6d0;" horiz-adv-x="1032" arabic-form="final" 
d="M593 0h-171c-238 0 -337 93 -337 287c0 66 17 135 36 174l69 12c-25 -48 -41 -119 -41 -177c0 -160 59 -245 283 -245h98v410s83 19 169 19c161 0 218 -80 218 -217v-212h115v-51h-178v252c0 127 -50 177 -164 177c-47 0 -97 -10 -97 -10v-419zM382 -257
c-24 0 -42 18 -42 42s18 43 42 43s43 -18 43 -43c0 -23 -19 -42 -43 -42zM382 -135c-24 0 -42 19 -42 43c0 23 18 43 42 43s43 -19 43 -43s-19 -43 -43 -43z" />
    <glyph glyph-name="uniFBE6" unicode="&#x6d0;" arabic-form="initial" 
d="M212 0h-227c-20 0 -60 9 -60 26c0 16 40 25 60 25h163v419h64v-470zM155 -257c-24 0 -42 18 -42 42s18 43 42 43s43 -18 43 -43c0 -23 -19 -42 -43 -42zM155 -135c-24 0 -42 19 -42 43c0 23 18 43 42 43s43 -19 43 -43s-19 -43 -43 -43z" />
    <glyph glyph-name="uniFBE7" unicode="&#x6d0;" horiz-adv-x="360" arabic-form="medial" 
d="M-15 0c-20 0 -60 9 -60 26c0 16 40 25 60 25h163v419h64v-419h148v-51h-375zM179 -135c-24 0 -42 19 -42 43c0 23 18 43 42 43s43 -19 43 -43s-19 -43 -43 -43zM179 -257c-24 0 -42 18 -42 42s18 43 42 43s43 -18 43 -43c0 -23 -19 -42 -43 -42z" />
    <glyph glyph-name="uni06D1.init" unicode="&#x6d1;" 
d="M212 0h-227c-20 0 -60 9 -60 26c0 16 40 25 60 25h163v419h64v-470zM133 -214c0 24 20 43 44 43s43 -18 43 -43c0 -24 -19 -43 -43 -43s-44 18 -44 43zM200 -113c0 24 20 43 44 43c23 0 43 -19 43 -43s-20 -43 -43 -43c-24 0 -44 18 -44 43zM67 -113c0 24 19 43 43 43
s43 -19 43 -43s-19 -43 -43 -43s-43 18 -43 43z" />
    <glyph glyph-name="uni06D1.medi" unicode="&#x6d1;" horiz-adv-x="360" 
d="M360 0h-375c-20 0 -60 9 -60 26c0 16 40 25 60 25h163v419h64v-419h148v-51zM134 -214c0 24 20 43 44 43s43 -18 43 -43c0 -24 -19 -43 -43 -43s-44 18 -44 43zM201 -113c0 24 20 43 44 43c23 0 43 -19 43 -43s-20 -43 -43 -43c-24 0 -44 18 -44 43zM68 -113
c0 24 19 43 43 43s43 -19 43 -43s-19 -43 -43 -43s-43 18 -43 43z" />
    <glyph glyph-name="uni06D1.fina" unicode="&#x6d1;" horiz-adv-x="1032" 
d="M593 0h-171c-238 0 -337 93 -337 287c0 66 17 135 36 174l69 12c-25 -48 -41 -119 -41 -177c0 -160 59 -245 283 -245h98v410s83 19 169 19c161 0 218 -80 218 -217v-212h115v-51h-178v252c0 127 -50 177 -164 177c-47 0 -97 -10 -97 -10v-419zM362 -214
c0 24 20 43 44 43s43 -18 43 -43c0 -24 -19 -43 -43 -43s-44 18 -44 43zM429 -113c0 24 20 43 44 43c23 0 43 -19 43 -43s-20 -43 -43 -43c-24 0 -44 18 -44 43zM296 -113c0 24 19 43 43 43s43 -19 43 -43s-19 -43 -43 -43s-43 18 -43 43z" />
    <glyph glyph-name="uni06EE.fina" unicode="&#x6ee;" horiz-adv-x="543" 
d="M64 0v51h339c-1 209 -73 317 -264 381l17 54c213 -71 307 -191 310 -435h76v-51h-478zM354 610l-33 -32l-97 87l-97 -87l-30 30l129 129z" />
    <glyph glyph-name="uni06EF.fina" unicode="&#x6ef;" horiz-adv-x="469" 
d="M100 -259c-41 0 -85 7 -118 18l10 54c35 -13 75 -21 114 -21c94 0 152 47 152 194v484h63v-419h149v-51h-149v-5c0 -153 -58 -254 -221 -254zM416 543l-33 -32l-97 87l-97 -87l-30 30l129 129z" />
    <glyph glyph-name="uni06FA.init" unicode="&#x6fa;" horiz-adv-x="863" 
d="M35 0h-50c-20 0 -60 9 -60 26c0 16 40 25 60 25h50c76 0 112 36 112 146v213h64v-181c0 -111 -1 -185 94 -185c68 0 121 35 121 184v222h63v-260c0 -124 48 -139 168 -139h37c5 45 9 111 9 153c0 115 -15 210 -37 281l63 14c20 -72 38 -172 38 -288
c0 -65 -7 -147 -18 -211h-76c-141 0 -196 19 -224 88c-13 -42 -55 -95 -153 -95c-70 0 -113 39 -126 92c-17 -51 -57 -85 -135 -85zM409 -147c0 24 20 44 44 44s44 -19 44 -44c0 -24 -20 -44 -44 -44s-44 19 -44 44zM341 614c0 24 19 44 43 44s43 -19 43 -44
c0 -23 -19 -43 -43 -43s-43 19 -43 43zM475 614c0 24 20 44 44 44s43 -19 43 -44c0 -23 -19 -43 -43 -43s-44 19 -44 43zM408 716c0 24 20 43 44 43c23 0 43 -18 43 -43c0 -24 -20 -43 -43 -43c-24 0 -44 18 -44 43z" />
    <glyph glyph-name="uni06FA.medi" unicode="&#x6fa;" horiz-adv-x="892" 
d="M35 0h-50c-20 0 -60 9 -60 26c0 16 40 25 60 25h50c76 0 112 36 112 146v213h64v-181c0 -111 -1 -185 94 -185c68 0 121 35 121 184v222h63v-260c0 -124 48 -139 168 -139h37c5 45 9 111 9 153c0 115 -15 210 -37 281l63 14c20 -72 38 -172 38 -288
c0 -49 -4 -107 -11 -160h137v-51h-220c-141 0 -196 19 -224 88c-13 -42 -55 -95 -153 -95c-70 0 -113 39 -126 92c-17 -51 -57 -85 -135 -85zM409 -147c0 24 20 44 44 44s44 -19 44 -44c0 -24 -20 -44 -44 -44s-44 19 -44 44zM475 614c0 24 20 44 44 44s43 -19 43 -44
c0 -23 -19 -43 -43 -43s-44 19 -44 43zM341 614c0 24 19 44 43 44s43 -19 43 -44c0 -23 -19 -43 -43 -43s-43 19 -43 43zM408 716c0 24 20 43 44 43c23 0 43 -18 43 -43c0 -24 -20 -43 -43 -43c-24 0 -44 18 -44 43z" />
    <glyph glyph-name="uni06FA.fina" unicode="&#x6fa;" horiz-adv-x="1226" 
d="M313 -231c-122 0 -237 67 -237 275c0 71 9 137 24 198l66 13c-18 -68 -27 -137 -27 -205c0 -184 96 -230 182 -230c85 0 160 52 160 213v377h63v-181c0 -121 26 -185 104 -185c75 0 112 55 112 184v222h62v-260c0 -123 47 -139 169 -139h36c6 45 10 113 10 153
c0 115 -16 210 -37 281l62 14c21 -72 38 -172 38 -288c0 -49 -3 -107 -10 -160h136v-51h-220c-139 0 -197 19 -223 88c-20 -70 -86 -95 -132 -95c-57 0 -86 17 -108 54c2 -216 -107 -278 -230 -278zM734 -147c0 24 20 44 44 44s44 -19 44 -44c0 -24 -20 -44 -44 -44
s-44 19 -44 44zM810 614c0 24 20 44 44 44s43 -19 43 -44c0 -23 -19 -43 -43 -43s-44 19 -44 43zM676 614c0 24 19 44 43 44s43 -19 43 -44c0 -23 -19 -43 -43 -43s-43 19 -43 43zM743 716c0 24 20 43 44 43c23 0 43 -18 43 -43c0 -24 -20 -43 -43 -43c-24 0 -44 18 -44 43z
" />
    <glyph glyph-name="uni06FB.init" unicode="&#x6fb;" horiz-adv-x="751" 
d="M402 0h-417c-20 0 -60 9 -60 26c0 16 40 25 60 25h163v419h64v-49c0 -62 -3 -140 -11 -201h1c49 171 167 260 290 260c121 0 192 -82 192 -227c0 -135 -71 -253 -282 -253zM211 51h199c164 0 208 92 208 195c0 112 -43 183 -137 183c-157 0 -257 -202 -270 -378zM433 615
c0 24 20 44 44 44s44 -19 44 -44c0 -24 -20 -44 -44 -44s-44 19 -44 44zM324 -147c0 24 20 44 44 44s44 -19 44 -44c0 -24 -20 -44 -44 -44s-44 19 -44 44z" />
    <glyph glyph-name="uni06FB.medi" unicode="&#x6fb;" horiz-adv-x="766" 
d="M766 0h-781c-20 0 -60 9 -60 26c0 16 40 25 60 25h163v419h64v-49c0 -62 -3 -140 -11 -201h1c49 171 167 260 290 260c121 0 192 -82 192 -227c0 -81 -25 -155 -90 -202h172v-51zM211 51h199c164 0 208 92 208 195c0 112 -43 183 -137 183c-157 0 -257 -202 -270 -378z
M324 -147c0 24 20 44 44 44s44 -19 44 -44c0 -24 -20 -44 -44 -44s-44 19 -44 44zM433 615c0 24 20 44 44 44s44 -19 44 -44c0 -24 -20 -44 -44 -44s-44 19 -44 44z" />
    <glyph glyph-name="uni06FB.fina" unicode="&#x6fb;" horiz-adv-x="1090" 
d="M313 -231c-122 0 -237 67 -237 275c0 71 9 137 24 198l66 13c-18 -68 -27 -137 -27 -205c0 -184 96 -230 182 -230c85 0 160 52 160 213v437h63v-49c0 -62 -3 -140 -10 -201h1c49 171 166 260 290 260c121 0 192 -82 192 -227c0 -81 -25 -155 -90 -202h163v-51h-547
c-10 -158 -108 -231 -230 -231zM543 51h200c164 0 208 92 208 195c0 112 -43 183 -137 183c-157 0 -257 -202 -271 -378zM672 -147c0 24 20 44 44 44s44 -19 44 -44c0 -24 -20 -44 -44 -44s-44 19 -44 44zM759 615c0 24 20 44 44 44s44 -19 44 -44c0 -24 -20 -44 -44 -44
s-44 19 -44 44z" />
    <glyph glyph-name="uni06FC.init" unicode="&#x6fc;" horiz-adv-x="575" 
d="M527 0h-542c-20 0 -60 9 -60 26c0 16 40 25 60 25h230c-72 28 -129 100 -129 198c0 124 78 231 236 231c73 0 135 -25 135 -25l-13 -52s-61 27 -129 27c-97 0 -166 -64 -166 -175c0 -114 86 -204 293 -204h85v-51zM260 615c0 24 20 44 44 44s44 -19 44 -44
c0 -24 -20 -44 -44 -44s-44 19 -44 44zM238 -147c0 24 20 44 44 44s44 -19 44 -44c0 -24 -20 -44 -44 -44s-44 19 -44 44z" />
    <glyph glyph-name="uni06FC.medi" unicode="&#x6fc;" horiz-adv-x="597" 
d="M1 0h-16c-20 0 -60 9 -60 26c0 16 40 25 60 25h18c120 0 222 28 299 70c-73 70 -146 152 -257 191l5 43c77 60 188 127 290 127c127 0 179 -73 179 -150c0 -71 -45 -151 -129 -215c48 -39 100 -66 164 -66h43v-51h-54c-83 0 -144 36 -201 85c-86 -51 -201 -85 -341 -85z
M110 338c100 -38 169 -120 241 -187c67 50 105 112 105 172c0 59 -36 109 -123 109c-79 0 -173 -58 -223 -94zM275 615c0 24 20 44 44 44s44 -19 44 -44c0 -24 -20 -44 -44 -44s-44 19 -44 44zM274 -147c0 24 20 44 44 44s44 -19 44 -44c0 -24 -20 -44 -44 -44
s-44 19 -44 44z" />
    <glyph glyph-name="uni06FC.fina" unicode="&#x6fc;" horiz-adv-x="633" 
d="M320 -265c-189 0 -266 79 -266 172c0 120 139 176 261 237c-66 64 -135 133 -234 168l5 43c77 60 188 127 290 127c127 0 180 -73 180 -150c0 -92 -69 -150 -151 -197c54 -48 111 -84 186 -84h42v-51h-54c-96 0 -162 48 -226 107c-115 -57 -235 -104 -235 -195
c0 -70 61 -126 210 -126c76 0 161 14 161 14l4 -49s-90 -16 -173 -16zM147 338c90 -34 155 -105 219 -167c71 39 126 84 126 152c0 59 -36 109 -122 109c-80 0 -174 -58 -223 -94zM311 615c0 24 20 44 44 44s44 -19 44 -44c0 -24 -20 -44 -44 -44s-44 19 -44 44zM309 -74
c0 24 20 44 44 44s44 -19 44 -44c0 -24 -20 -44 -44 -44s-44 19 -44 44z" />
    <glyph glyph-name="uni06FF.init" unicode="&#x6ff;" horiz-adv-x="767" 
d="M680 0h-695c-20 0 -60 9 -60 26c0 16 40 25 60 25h151c17 0 35 -1 36 -1c-2 1 -50 34 -50 105c0 104 75 164 180 164c120 0 172 -88 172 -217v-51h144v26c0 277 -102 379 -313 379c-63 0 -147 -14 -211 -34l-8 50c66 20 152 35 229 35c235 0 365 -119 365 -423v-84z
M414 51v45c0 109 -33 174 -116 174c-73 0 -114 -42 -114 -106c0 -81 58 -113 125 -113h105zM430 597l-33 -32l-97 87l-97 -87l-30 30l129 129z" />
    <glyph glyph-name="uni06FF.medi" unicode="&#x6ff;" horiz-adv-x="762" 
d="M-15 0c-20 0 -60 9 -60 26c0 16 40 25 60 25h151c17 0 35 -1 36 -1c-2 1 -50 34 -50 105c0 104 75 164 180 164c120 0 172 -88 172 -217v-51h144v26c0 277 -102 379 -313 379c-63 0 -147 -14 -211 -34l-8 50c66 20 152 35 229 35c235 0 365 -119 365 -423v-33h82v-51
h-777zM414 51v45c0 109 -33 174 -116 174c-73 0 -114 -42 -114 -106c0 -81 58 -113 125 -113h105zM430 597l-33 -32l-97 87l-97 -87l-30 30l129 129z" />
    <glyph glyph-name="uni06FF.fina" unicode="&#x6ff;" horiz-adv-x="794" 
d="M794 0h-764v51h138c17 0 34 -1 35 -1c-2 1 -49 34 -49 105c0 104 74 164 180 164c119 0 172 -88 172 -217v-51h143v26c0 277 -101 379 -312 379c-63 0 -148 -14 -212 -34l-8 50c66 20 152 35 230 35c235 0 365 -119 365 -423v-33h82v-51zM445 51v45
c0 109 -33 174 -116 174c-73 0 -113 -42 -113 -106c0 -81 58 -113 124 -113h105zM461 597l-33 -32l-97 87l-97 -87l-30 30l129 129z" />
    <glyph glyph-name="uniFBA6" unicode="&#x6c1;" horiz-adv-x="616" arabic-form="isolated" 
d="M525 0h-190c-190 0 -259 91 -259 234c0 132 83 246 243 246c134 0 206 -76 206 -220v-260zM462 51v194c0 134 -56 184 -150 184c-105 0 -171 -73 -171 -188c0 -129 60 -190 206 -190h115z" />
    <glyph glyph-name="uni06C1.fina" unicode="&#x6c1;" horiz-adv-x="508" arabic-form="final" 
d="M508 51v-51h-15c-125 0 -193 67 -193 219v61c-91 -13 -173 -61 -235 -164l-46 36c75 112 188 188 326 188c9 0 18 -1 18 -1v-109c0 -127 43 -179 140 -179h5z" />
    <glyph glyph-name="uniFBA8" unicode="&#x6c1;" arabic-form="initial" 
d="M212 0h-227c-20 0 -60 9 -60 26c0 16 40 25 60 25h163v419h64v-470zM106 -239c-26 0 -44 23 -44 52c0 34 20 79 88 137l24 -25c-33 -31 -44 -58 -44 -76c0 -25 15 -27 15 -48c0 -20 -15 -40 -39 -40z" />
    <glyph glyph-name="uniFBA9" unicode="&#x6c1;" horiz-adv-x="631" arabic-form="medial" 
d="M631 51v-51h-117v-261h-64c-189 0 -289 95 -289 272c0 36 1 58 5 93l-2 1c-20 -60 -74 -105 -159 -105h-20c-20 0 -60 9 -60 26c0 16 40 25 60 25h20c120 0 155 102 155 233v86h63v-350c0 -152 72 -231 228 -231v262h180zM22 -259c-27 0 -45 23 -45 52c0 33 18 79 83 139
l26 -23c-32 -32 -42 -60 -42 -78c0 -25 17 -27 17 -51c0 -20 -15 -39 -39 -39z" />
    <glyph glyph-name="uniFBEA.isol" unicode="&#xfbea;" horiz-adv-x="655" arabic-form="isolated" 
d="M122 0v654c-24 4 -57 8 -85 10v34c41 5 101 9 148 7v-654h296v419h64v-470h-423zM378 526v43c31 0 61 -3 79 -6c-23 10 -35 35 -35 55c0 44 33 90 116 90c19 0 36 -2 51 -4l-7 -43c-12 2 -32 5 -49 5c-40 0 -60 -19 -60 -47s23 -50 84 -50h52v-43h-231z" />
    <glyph glyph-name="uniFBEB" unicode="&#xfbeb;" horiz-adv-x="693" arabic-form="final" 
d="M122 0v654c-24 4 -57 8 -85 10v34c41 5 101 9 148 7v-654h296v419h64v-419h148v-51h-571zM382 526v43c31 0 61 -3 79 -6c-23 10 -35 35 -35 55c0 44 33 90 116 90c19 0 36 -2 51 -4l-7 -43c-12 2 -32 5 -49 5c-40 0 -60 -19 -60 -47s23 -50 84 -50h52v-43h-231z" />
    <glyph glyph-name="uniFBF2" unicode="&#xfbf2;" horiz-adv-x="930" arabic-form="isolated" 
d="M239 -254c-79 0 -159 17 -159 17l5 56s89 -22 162 -22c113 0 205 43 205 172v31h-117c-190 0 -259 91 -259 235c0 131 82 245 243 245c105 0 196 -35 196 -35v-394h241v419h64v-470h-305v-31c0 -103 -66 -223 -276 -223zM452 51v352s-57 26 -140 26
c-105 0 -171 -73 -171 -187c0 -130 60 -191 206 -191h105zM657 526v43c31 0 61 -3 79 -6c-23 10 -35 35 -35 55c0 44 33 90 116 90c19 0 36 -2 51 -4l-7 -43c-12 2 -32 5 -49 5c-40 0 -60 -19 -60 -47s23 -50 84 -50h52v-43h-231zM450 706l-129 -128l-128 126l32 33l97 -88
l97 88z" />
    <glyph glyph-name="uniFBF3" unicode="&#xfbf3;" horiz-adv-x="968" arabic-form="final" 
d="M239 -254c-79 0 -159 17 -159 17l5 56s89 -22 162 -22c113 0 205 43 205 172v31h-117c-190 0 -259 91 -259 235c0 131 82 245 243 245c105 0 196 -35 196 -35v-394h241v419h64v-419h148v-51h-453v-31c0 -103 -66 -223 -276 -223zM452 51v352s-57 26 -140 26
c-105 0 -171 -73 -171 -187c0 -130 60 -191 206 -191h105zM657 526v43c31 0 61 -3 79 -6c-23 10 -35 35 -35 55c0 44 33 90 116 90c19 0 36 -2 51 -4l-7 -43c-12 2 -32 5 -49 5c-40 0 -60 -19 -60 -47s23 -50 84 -50h52v-43h-231zM450 706l-129 -128l-128 126l32 33l97 -88
l97 88z" />
    <glyph glyph-name="uniFD3C" unicode="&#xfd3c;" horiz-adv-x="286" arabic-form="final" 
d="M122 0v654c-24 4 -57 8 -85 10v34c41 5 101 9 148 7v-705h-63zM30 770v40l224 32v-40zM30 855v41l224 32v-41z" />
    <glyph glyph-name="uniFD3D" unicode="&#xfd3d;" horiz-adv-x="333" arabic-form="isolated" 
d="M122 0v654c-24 4 -57 8 -85 10v34c41 5 101 9 148 7v-654h148v-51h-211zM30 855v41l224 32v-41zM30 770v40l224 32v-40z" />
    <glyph glyph-name="uniFC9F" unicode="&#xfc9f;" horiz-adv-x="1009" arabic-form="initial" 
d="M899 0h-504c-147 0 -203 42 -236 106c-12 -59 -62 -106 -145 -106h-29c-20 0 -60 9 -60 26c0 16 40 25 60 25h14c70 0 125 30 125 184c0 131 83 245 243 245c134 0 206 -76 206 -220v-209h262v419h64v-470zM510 51v194c0 134 -56 184 -151 184c-104 0 -170 -73 -170 -188
c0 -129 60 -190 206 -190h115zM818 -147c0 24 20 44 44 44s44 -19 44 -44c0 -24 -20 -44 -44 -44s-44 19 -44 44z" />
    <glyph glyph-name="uniFC08" unicode="&#xfc08;" horiz-adv-x="974" arabic-form="isolated" 
d="M864 0h-505c-123 0 -166 38 -196 85v-93c0 -131 -45 -256 -221 -256l2 51c148 0 156 124 156 198v231c0 164 93 264 241 264c134 0 206 -76 206 -220v-209h253v419h64v-470zM484 51v194c0 134 -56 184 -151 184c-104 0 -170 -73 -170 -188c0 -129 60 -190 206 -190h115z
M783 -147c0 24 20 44 44 44s44 -19 44 -44c0 -24 -20 -44 -44 -44s-44 19 -44 44z" />
    <glyph glyph-name="uniFCA4" unicode="&#xfca4;" horiz-adv-x="1009" arabic-form="initial" 
d="M899 0h-504c-147 0 -203 42 -236 106c-12 -59 -62 -106 -145 -106h-29c-20 0 -60 9 -60 26c0 16 40 25 60 25h14c70 0 125 30 125 184c0 131 83 245 243 245c134 0 206 -76 206 -220v-209h262v419h64v-470zM510 51v194c0 134 -56 184 -151 184c-104 0 -170 -73 -170 -188
c0 -129 60 -190 206 -190h115zM888 615c0 24 19 43 43 43s43 -18 43 -43c0 -24 -19 -43 -43 -43s-43 19 -43 43zM754 615c0 24 19 43 43 43s43 -18 43 -43c0 -24 -19 -43 -43 -43s-43 19 -43 43z" />
    <glyph glyph-name="uniFC0E" unicode="&#xfc0e;" horiz-adv-x="974" arabic-form="isolated" 
d="M864 0h-505c-123 0 -166 38 -196 85v-93c0 -131 -45 -256 -221 -256l2 51c148 0 156 124 156 198v231c0 164 93 264 241 264c134 0 206 -76 206 -220v-209h253v419h64v-470zM484 51v194c0 134 -56 184 -151 184c-104 0 -170 -73 -170 -188c0 -129 60 -190 206 -190h115z
M853 615c0 24 19 43 43 43s43 -18 43 -43c0 -24 -19 -43 -43 -43s-43 19 -43 43zM719 615c0 24 19 43 43 43s43 -18 43 -43c0 -24 -19 -43 -43 -43s-43 19 -43 43z" />
    <glyph glyph-name="uniFC32" unicode="&#xfc32;" horiz-adv-x="1656" arabic-form="isolated" 
d="M593 0h-171c-238 0 -337 93 -337 287c0 66 17 135 36 174l69 12c-25 -48 -41 -119 -41 -177c0 -160 59 -245 283 -245h98v410s83 19 169 19c161 0 218 -80 218 -217v-212h227c35 0 59 -3 59 -3c-57 33 -86 92 -86 187c0 131 82 245 242 245c135 0 206 -76 206 -220v-260
h-711v252c0 127 -50 177 -164 177c-47 0 -97 -10 -97 -10v-419zM1502 51v194c0 134 -55 184 -150 184c-105 0 -170 -73 -170 -188c0 -129 60 -190 205 -190h115zM1306 615c0 24 20 44 44 44s44 -19 44 -44c0 -24 -20 -44 -44 -44s-44 19 -44 44zM293 -148c0 24 19 44 43 44
s43 -19 43 -44c0 -23 -19 -43 -43 -43s-43 19 -43 43zM427 -148c0 24 19 44 43 44s43 -19 43 -44c0 -23 -19 -43 -43 -43s-43 19 -43 43z" />
    <glyph glyph-name="uniFCC9" unicode="&#xfcc9;" horiz-adv-x="849" arabic-form="initial" 
d="M739 0h-754c-20 0 -60 9 -60 26c0 16 40 25 60 25h391c5 43 8 83 8 122c0 169 -57 249 -236 249c-38 0 -87 -4 -125 -10v50c30 6 87 11 130 11c218 0 294 -102 294 -292c0 -36 -2 -80 -9 -130h237v654h64v-705zM137 -147c0 24 20 44 44 44s44 -19 44 -44
c0 -24 -20 -44 -44 -44s-44 19 -44 44z" />
    <glyph glyph-name="uniFCCA" unicode="&#xfcca;" horiz-adv-x="849" arabic-form="initial" 
d="M739 0h-754c-20 0 -60 9 -60 26c0 16 40 25 60 25h391c5 43 8 83 8 122c0 169 -57 249 -236 249c-38 0 -87 -4 -125 -10v50c30 6 87 11 130 11c218 0 294 -102 294 -292c0 -36 -2 -80 -9 -130h237v654h64v-705z" />
    <glyph glyph-name="uniFCCB" unicode="&#xfccb;" horiz-adv-x="849" arabic-form="initial" 
d="M739 0h-754c-20 0 -60 9 -60 26c0 16 40 25 60 25h391c5 43 8 83 8 122c0 169 -57 249 -236 249c-38 0 -87 -4 -125 -10v50c30 6 87 11 130 11c218 0 294 -102 294 -292c0 -36 -2 -80 -9 -130h237v654h64v-705zM137 615c0 24 20 44 44 44s44 -19 44 -44
c0 -24 -20 -44 -44 -44s-44 19 -44 44z" />
    <glyph glyph-name="uniFCCC" unicode="&#xfccc;" horiz-adv-x="1009" arabic-form="initial" 
d="M899 0h-504c-147 0 -203 42 -236 106c-12 -59 -62 -106 -145 -106h-29c-20 0 -60 9 -60 26c0 16 40 25 60 25h14c70 0 125 30 125 184c0 131 83 245 243 245c134 0 206 -76 206 -220v-209h262v654h64v-705zM510 51v194c0 134 -56 184 -151 184c-104 0 -170 -73 -170 -188
c0 -129 60 -190 206 -190h115z" />
    <glyph glyph-name="uniFC42" unicode="&#xfc42;" horiz-adv-x="974" arabic-form="isolated" 
d="M864 0h-505c-123 0 -166 38 -196 85v-93c0 -131 -45 -256 -221 -256l2 51c148 0 156 124 156 198v231c0 164 93 264 241 264c134 0 206 -76 206 -220v-209h253v654h64v-705zM484 51v194c0 134 -56 184 -151 184c-104 0 -170 -73 -170 -188c0 -129 60 -190 206 -190h115z
" />
    <glyph glyph-name="uniFC43" unicode="&#xfc43;" horiz-adv-x="1354" arabic-form="isolated" 
d="M593 0h-171c-238 0 -337 93 -337 287c0 66 17 135 36 174l69 12c-25 -48 -41 -119 -41 -177c0 -160 59 -245 283 -245h98v410s83 19 169 19c161 0 218 -80 218 -217v-212h263v654h64v-705h-390v252c0 127 -50 177 -164 177c-47 0 -97 -10 -97 -10v-419z" />
    <glyph glyph-name="uniFC44" unicode="&#xfc44;" horiz-adv-x="1354" arabic-form="isolated" 
d="M593 0h-171c-238 0 -337 93 -337 287c0 66 17 135 36 174l69 12c-25 -48 -41 -119 -41 -177c0 -160 59 -245 283 -245h98v410s83 19 169 19c161 0 218 -80 218 -217v-212h263v654h64v-705h-390v252c0 127 -50 177 -164 177c-47 0 -97 -10 -97 -10v-419zM427 -148
c0 24 19 44 43 44s43 -19 43 -44c0 -23 -19 -43 -43 -43s-43 19 -43 43zM293 -148c0 24 19 44 43 44s43 -19 43 -44c0 -23 -19 -43 -43 -43s-43 19 -43 43z" />
    <glyph glyph-name="uniFCD1" unicode="&#xfcd1;" horiz-adv-x="1312" arabic-form="initial" 
d="M1220 0h-825c-147 0 -203 42 -236 106c-12 -59 -62 -106 -145 -106h-29c-20 0 -60 9 -60 26c0 16 40 25 60 25h14c70 0 125 30 125 184c0 131 83 245 243 245c134 0 206 -76 206 -220v-209h226c35 0 59 -3 59 -3c-57 33 -86 92 -86 187c0 131 82 245 242 245
c135 0 206 -76 206 -220v-260zM510 51v194c0 134 -56 184 -151 184c-104 0 -170 -73 -170 -188c0 -129 60 -190 206 -190h115zM1157 51v194c0 134 -55 184 -150 184c-105 0 -170 -73 -170 -188c0 -129 60 -190 205 -190h115z" />
    <glyph glyph-name="uniFC48" unicode="&#xfc48;" horiz-adv-x="1277" arabic-form="isolated" 
d="M1185 0h-826c-123 0 -166 38 -196 85v-93c0 -131 -45 -256 -221 -256l2 51c148 0 156 124 156 198v231c0 164 93 264 241 264c134 0 206 -76 206 -220v-209h217c35 0 59 -3 59 -3c-57 33 -86 92 -86 187c0 131 82 245 242 245c135 0 206 -76 206 -220v-260zM484 51v194
c0 134 -56 184 -151 184c-104 0 -170 -73 -170 -188c0 -129 60 -190 206 -190h115zM1122 51v194c0 134 -55 184 -150 184c-105 0 -170 -73 -170 -188c0 -129 60 -190 205 -190h115z" />
    <glyph glyph-name="uniFCD5" unicode="&#xfcd5;" horiz-adv-x="1009" arabic-form="initial" 
d="M899 0h-504c-147 0 -203 42 -236 106c-12 -59 -62 -106 -145 -106h-29c-20 0 -60 9 -60 26c0 16 40 25 60 25h14c70 0 125 30 125 184c0 131 83 245 243 245c134 0 206 -76 206 -220v-209h262v419h64v-470zM510 51v194c0 134 -56 184 -151 184c-104 0 -170 -73 -170 -188
c0 -129 60 -190 206 -190h115zM823 615c0 24 20 44 44 44s44 -19 44 -44c0 -24 -20 -44 -44 -44s-44 19 -44 44z" />
    <glyph glyph-name="uniFC4E" unicode="&#xfc4e;" horiz-adv-x="974" arabic-form="isolated" 
d="M864 0h-505c-123 0 -166 38 -196 85v-93c0 -131 -45 -256 -221 -256l2 51c148 0 156 124 156 198v231c0 164 93 264 241 264c134 0 206 -76 206 -220v-209h253v419h64v-470zM484 51v194c0 134 -56 184 -151 184c-104 0 -170 -73 -170 -188c0 -129 60 -190 206 -190h115z
M788 615c0 24 20 44 44 44s44 -19 44 -44c0 -24 -20 -44 -44 -44s-44 19 -44 44z" />
    <glyph glyph-name="uniFC50" unicode="&#xfc50;" horiz-adv-x="1354" arabic-form="isolated" 
d="M593 0h-171c-238 0 -337 93 -337 287c0 66 17 135 36 174l69 12c-25 -48 -41 -119 -41 -177c0 -160 59 -245 283 -245h98v410s83 19 169 19c161 0 218 -80 218 -217v-212h263v419h64v-470h-390v252c0 127 -50 177 -164 177c-47 0 -97 -10 -97 -10v-419zM1168 615
c0 24 20 44 44 44s44 -19 44 -44c0 -24 -20 -44 -44 -44s-44 19 -44 44zM293 -148c0 24 19 44 43 44s43 -19 43 -44c0 -23 -19 -43 -43 -43s-43 19 -43 43zM427 -148c0 24 19 44 43 44s43 -19 43 -44c0 -23 -19 -43 -43 -43s-43 19 -43 43z" />
    <glyph glyph-name="uniFCDD" unicode="&#xfcdd;" horiz-adv-x="1009" arabic-form="initial" 
d="M899 0h-504c-147 0 -203 42 -236 106c-12 -59 -62 -106 -145 -106h-29c-20 0 -60 9 -60 26c0 16 40 25 60 25h14c70 0 125 30 125 184c0 131 83 245 243 245c134 0 206 -76 206 -220v-209h262v419h64v-470zM510 51v194c0 134 -56 184 -151 184c-104 0 -170 -73 -170 -188
c0 -129 60 -190 206 -190h115zM888 -148c0 24 19 44 43 44s43 -19 43 -44c0 -23 -19 -43 -43 -43s-43 19 -43 43zM754 -148c0 24 19 44 43 44s43 -19 43 -44c0 -23 -19 -43 -43 -43s-43 19 -43 43z" />
    <glyph glyph-name="uniFC58" unicode="&#xfc58;" horiz-adv-x="974" arabic-form="isolated" 
d="M864 0h-505c-123 0 -166 38 -196 85v-93c0 -131 -45 -256 -221 -256l2 51c148 0 156 124 156 198v231c0 164 93 264 241 264c134 0 206 -76 206 -220v-209h253v419h64v-470zM484 51v194c0 134 -56 184 -151 184c-104 0 -170 -73 -170 -188c0 -129 60 -190 206 -190h115z
M853 -148c0 24 19 44 43 44s43 -19 43 -44c0 -23 -19 -43 -43 -43s-43 19 -43 43zM719 -148c0 24 19 44 43 44s43 -19 43 -44c0 -23 -19 -43 -43 -43s-43 19 -43 43z" />
    <glyph glyph-name="uniFD88" unicode="&#xfd88;" horiz-adv-x="1537" arabic-form="initial" 
d="M560 0h-575c-20 0 -60 9 -60 26c0 16 40 25 60 25h391c5 43 8 83 8 122c0 169 -57 249 -236 249c-38 0 -87 -4 -125 -10v50c30 6 87 11 130 11c218 0 294 -102 294 -292c0 -36 -2 -80 -9 -130h107c70 0 125 30 125 184c0 131 83 245 243 245c134 0 206 -76 206 -220v-209
h244v654h64v-705h-486c-147 0 -203 42 -236 106c-12 -59 -62 -106 -145 -106zM1056 51v194c0 134 -56 184 -151 184c-104 0 -170 -73 -170 -188c0 -129 60 -190 206 -190h115z" />
    <glyph glyph-name=".notdef" horiz-adv-x="550" 
d="M300 150h-150v250h50v-200h100v-50zM500 50h-450v450h450v-450zM350 350h-100v50h150v-250h-50v100h-100v50h100v50zM100 100h350v350h-350v-350z" />
    <glyph glyph-name=".null" horiz-adv-x="0" 
 />
    <glyph glyph-name=".null" horiz-adv-x="0" 
 />
    <glyph glyph-name="CR" unicode="&#xd;" horiz-adv-x="500" 
 />
    <glyph glyph-name="space" unicode=" " horiz-adv-x="218" 
 />
    <glyph glyph-name="exclam" unicode="!" horiz-adv-x="318" 
d="M207 699l-12 -545h-51l-13 545h76zM217 40c0 -27 -21 -48 -48 -48s-48 21 -48 48c0 26 21 47 48 47s48 -21 48 -47z" />
    <glyph glyph-name="quotedbl" unicode="&#x22;" horiz-adv-x="338" 
d="M280 697l-12 -213h-46l-12 213h70zM129 697l-13 -213h-46l-12 213h71z" />
    <glyph glyph-name="numbersign" unicode="#" horiz-adv-x="573" 
d="M536 441h-102l-22 -200h100v-43h-105l-20 -198h-52l21 198h-169l-20 -198h-52l21 198h-100v43h104l22 200h-101v43h105l21 191h51l-20 -191h168l21 191h52l-21 -191h98v-43zM382 441h-168l-22 -200h168z" />
    <glyph glyph-name="dollar" unicode="$" horiz-adv-x="486" 
d="M256 -111h-49v133c-50 1 -88 6 -127 16l4 62c34 -14 93 -23 133 -23c80 0 144 32 144 115c0 152 -295 99 -295 297c0 86 65 150 163 161v109h50v-106c41 -1 78 -6 107 -12l-4 -59c-36 11 -77 18 -114 18c-105 0 -140 -51 -140 -102c0 -148 297 -102 297 -295
c0 -91 -61 -162 -169 -178v-136z" />
    <glyph glyph-name="percent" unicode="%" horiz-adv-x="743" 
d="M694 151c0 -92 -53 -159 -145 -159c-96 0 -135 55 -135 150c0 89 54 158 145 158c96 0 135 -54 135 -149zM639 663l-494 -682l-43 29l494 683zM328 535c0 -92 -53 -160 -145 -160c-96 0 -135 56 -135 151c0 89 54 158 145 158c96 0 135 -55 135 -149zM637 145
c0 71 -24 109 -84 109c-49 0 -81 -43 -81 -105c0 -73 24 -111 85 -111c47 0 80 44 80 107zM271 528c0 72 -24 109 -84 109c-49 0 -81 -43 -81 -105c0 -72 24 -111 85 -111c48 0 80 44 80 107z" />
    <glyph glyph-name="ampersand" unicode="&#x26;" horiz-adv-x="794" 
d="M728 33l-40 -49c-50 35 -103 75 -145 110c-66 -61 -156 -102 -268 -102c-135 0 -213 80 -213 192c0 96 62 157 148 224c-78 89 -99 133 -99 185c0 76 58 142 162 142c96 0 147 -56 147 -128c0 -67 -34 -126 -127 -198c64 -70 163 -165 250 -236c40 52 71 127 73 216
c-24 4 -59 8 -86 10v34c40 5 102 9 150 7c4 -118 -30 -223 -93 -301c55 -44 103 -80 141 -106zM289 45c93 0 164 39 212 83c-91 76 -193 174 -256 244c-85 -66 -119 -118 -119 -179c0 -81 64 -148 163 -148zM357 599c0 47 -27 86 -91 86c-54 0 -93 -36 -93 -89
c0 -36 21 -78 85 -150c66 52 99 96 99 153z" />
    <glyph glyph-name="quotesingle" unicode="'" horiz-adv-x="187" 
d="M129 697l-13 -213h-46l-12 213h71z" />
    <glyph glyph-name="parenleft" unicode="(" horiz-adv-x="301" 
d="M274 -180l-46 -25c-123 195 -145 351 -145 488s30 309 146 494l43 -23c-84 -142 -128 -304 -128 -465c0 -172 41 -325 130 -469z" />
    <glyph glyph-name="parenright" unicode=")" horiz-adv-x="301" 
d="M79 -205l-43 24c84 142 128 303 128 465c0 172 -41 325 -129 469l46 24c122 -194 144 -350 144 -487s-30 -310 -146 -495z" />
    <glyph glyph-name="asterisk" unicode="*" horiz-adv-x="366" 
d="M315 538l-25 -44l-94 64l8 -114h-50l8 114l-95 -64l-24 43l104 50l-104 49l25 44l95 -64l-8 114h50l-8 -114l94 64l24 -43l-103 -49z" />
    <glyph glyph-name="plus" unicode="+" horiz-adv-x="550" 
d="M506 271h-202v-211h-60v211h-200v53h200v210h60v-210h202v-53z" />
    <glyph glyph-name="comma" unicode="," horiz-adv-x="208" 
d="M53 -141l-29 25c62 66 62 114 45 137c-22 29 -1 67 32 67c59 0 84 -102 -48 -229z" />
    <glyph glyph-name="hyphen" unicode="-" horiz-adv-x="327" 
d="M278 268h-229v52h229v-52z" />
    <glyph glyph-name="period" unicode="." horiz-adv-x="208" 
d="M152 41c0 -27 -21 -49 -48 -49s-48 22 -48 49c0 26 21 48 48 48s48 -22 48 -48z" />
    <glyph glyph-name="slash" unicode="/" horiz-adv-x="420" 
d="M421 757l-350 -918h-59l350 918h59z" />
    <glyph glyph-name="zero" unicode="0" horiz-adv-x="583" 
d="M526 343c0 -241 -106 -351 -242 -351c-124 0 -227 77 -227 340c0 241 106 351 242 351c124 0 227 -77 227 -340zM459 335c0 201 -59 296 -167 296c-95 0 -168 -81 -168 -291c0 -201 59 -295 167 -295c95 0 168 80 168 290z" />
    <glyph glyph-name="one" unicode="1" horiz-adv-x="347" 
d="M244 0h-66v612l-135 -54l-12 59l159 58h54v-675z" />
    <glyph glyph-name="two" unicode="2" horiz-adv-x="502" 
d="M449 0h-381v51l144 168c111 129 142 196 142 278c0 73 -41 133 -132 133c-45 0 -97 -18 -138 -43l-9 57c47 24 98 39 162 39c118 0 185 -76 185 -177c0 -97 -44 -176 -168 -320l-110 -129v-1c53 2 175 3 305 3v-59z" />
    <glyph glyph-name="three" unicode="3" horiz-adv-x="500" 
d="M69 3l9 59c25 -9 66 -14 103 -14c113 0 179 65 179 146c0 83 -71 135 -197 135c-20 0 -38 -1 -58 -3v52c158 -4 228 46 228 142c0 71 -47 111 -123 111c-44 0 -85 -12 -122 -32l-5 56c41 17 87 28 137 28c126 0 180 -70 180 -154c0 -79 -46 -139 -118 -166v-2
c84 -17 146 -75 146 -163c0 -117 -107 -205 -252 -205c-41 0 -82 4 -107 10z" />
    <glyph glyph-name="four" unicode="4" horiz-adv-x="537" 
d="M515 164h-121v-164h-62v164h-311l-4 49l292 462h85v-452h121v-59zM332 222v391h-1l-249 -394c70 3 207 3 250 3z" />
    <glyph glyph-name="five" unicode="5" horiz-adv-x="464" 
d="M66 3l8 59c24 -8 64 -14 99 -14c113 0 184 63 184 160c0 94 -65 143 -217 143c-13 0 -33 0 -51 -1v325h295v-61h-235v-210c192 2 275 -70 275 -185c0 -135 -109 -226 -258 -226c-39 0 -78 5 -100 10z" />
    <glyph glyph-name="six" unicode="6" horiz-adv-x="575" 
d="M459 681v-57c-17 3 -36 4 -56 4c-144 0 -226 -78 -254 -243c-3 -20 -6 -40 -8 -48l1 -1c30 46 92 86 175 86c124 0 202 -81 202 -201c0 -127 -90 -229 -225 -229c-198 0 -218 189 -218 288c0 288 152 403 335 403c19 0 39 -1 48 -2zM454 210c0 93 -53 159 -150 159
c-95 0 -156 -70 -156 -150c0 -104 57 -175 153 -175c86 0 153 65 153 166z" />
    <glyph glyph-name="seven" unicode="7" horiz-adv-x="452" 
d="M420 675v-55c-84 -177 -170 -426 -214 -620h-72c57 225 153 481 216 615c-27 -2 -279 -2 -323 -2v62h393z" />
    <glyph glyph-name="eight" unicode="8" horiz-adv-x="547" 
d="M478 167c0 -110 -93 -176 -214 -176c-132 0 -199 71 -199 163c0 88 73 143 148 191c-89 50 -137 100 -137 174c0 99 79 168 204 168c115 0 184 -66 184 -155c0 -82 -68 -132 -141 -179c91 -49 155 -103 155 -186zM398 526c0 61 -43 109 -125 109
c-81 0 -132 -44 -132 -108c0 -62 50 -101 131 -146c90 56 126 94 126 145zM410 157c0 77 -72 119 -146 161c-69 -43 -131 -87 -131 -157s52 -116 140 -116c74 0 137 38 137 112z" />
    <glyph glyph-name="nine" unicode="9" horiz-adv-x="583" 
d="M97 -3v61c26 -6 61 -10 85 -10c141 0 221 76 249 239c3 21 6 41 9 50l-1 1c-30 -46 -92 -86 -174 -86c-124 0 -202 81 -202 201c0 127 90 230 225 230c199 0 218 -190 218 -288c0 -287 -147 -403 -333 -403c-24 0 -55 2 -76 5zM434 455c0 105 -58 176 -153 176
c-86 0 -153 -65 -153 -167c0 -92 53 -158 150 -158c95 0 156 71 156 149z" />
    <glyph glyph-name="colon" unicode=":" horiz-adv-x="278" 
d="M204 340c0 -27 -21 -48 -48 -48s-48 21 -48 48s21 48 48 48s48 -21 48 -48zM204 41c0 -27 -21 -49 -48 -49s-48 22 -48 49c0 26 21 48 48 48s48 -22 48 -48z" />
    <glyph glyph-name="semicolon" unicode=";" horiz-adv-x="278" 
d="M204 340c0 -27 -21 -48 -48 -48s-48 21 -48 48s21 48 48 48s48 -21 48 -48zM107 -141l-29 25c61 66 62 114 45 137c-22 29 -2 67 32 67c58 0 84 -102 -48 -229z" />
    <glyph glyph-name="semicolon" unicode="&#x37e;" horiz-adv-x="278" 
d="M204 340c0 -27 -21 -48 -48 -48s-48 21 -48 48s21 48 48 48s48 -21 48 -48zM107 -141l-29 25c61 66 62 114 45 137c-22 29 -2 67 32 67c58 0 84 -102 -48 -229z" />
    <glyph glyph-name="less" unicode="&#x3c;" horiz-adv-x="550" 
d="M432 72l-40 -43l-314 275l314 275l40 -39l-273 -235z" />
    </font>
</defs>
</svg>
