<?xml version="1.0" standalone="no"?>
<!DOCTYPE svg PUBLIC "-//W3C//DTD SVG 1.1//EN" "http://www.w3.org/Graphics/SVG/1.1/DTD/svg11.dtd" >
<svg xmlns="http://www.w3.org/2000/svg" xmlns:xlink="http://www.w3.org/1999/xlink" version="1.1">
<metadata>
Created by FontForge 20170910 at Wed Sep  7 14:41:37 2011
 By Jimmy Wärting
Copyright (c) 2011 by Luc[as] de Groot. Published by LucasFonts www.LucasFonts.com. All rights reserved.
</metadata>
<defs>
<font id="TheMixArabic-Plain" horiz-adv-x="319" >
  <font-face 
    font-family="TheMixArabic Plain"
    font-weight="500"
    font-stretch="normal"
    units-per-em="1000"
    panose-1="2 11 5 2 5 3 2 2 2 3"
    ascent="740"
    descent="-260"
    x-height="497"
    cap-height="675"
    bbox="-291 -320 1566 980"
    underline-thickness="72"
    underline-position="-214"
    stemh="73"
    stemv="89"
    unicode-range="U+000D-FEFC"
  />
<missing-glyph horiz-adv-x="550" 
d="M300 150h-150v250h50v-200h100v-50zM500 50h-450v450h450v-450zM350 350h-100v50h150v-250h-50v100h-100v50h100v50zM100 100h350v350h-350v-350z" />
    <glyph glyph-name="fi" unicode="fi" horiz-adv-x="590" 
d="M505 0h-89v427h-217v-427h-89v427h-103v70h103v21c0 136 71 218 228 218c53 0 105 -8 146 -18l-17 -75c-41 12 -90 20 -136 20c-91 0 -132 -50 -132 -134v-32h306v-497z" />
    <glyph glyph-name="fl" unicode="fl" horiz-adv-x="590" 
d="M505 0h-89v656s-47 8 -94 8c-84 0 -123 -37 -123 -128v-39h135v-70h-135v-427h-89v427h-103v70h103v35c0 133 66 204 224 204c80 0 171 -14 171 -14v-722z" />
    <glyph glyph-name="uniFEF5" unicode="&#xfedf;&#xfe82;" horiz-adv-x="602" arabic-form="isolated" 
d="M207 707v-551c-31 -7 -60 -11 -92 -13v492c-23 4 -52 8 -79 10v55c49 5 118 9 171 7zM238 -10c-46 0 -118 8 -157 19l14 77c40 -14 100 -24 151 -24c105 0 166 37 166 164v479h92v-467c0 -155 -76 -248 -266 -248zM18 767v64l83 25c7 -7 38 -35 78 -35c44 0 75 30 82 35
v-64c-8 -5 -37 -28 -88 -28c-42 0 -71 21 -78 27z" />
    <glyph glyph-name="uniFEF6" unicode="&#xfee0;&#xfe82;" horiz-adv-x="633" arabic-form="final" 
d="M633 0h-13c-98 0 -144 21 -180 54c-38 -38 -99 -64 -202 -64c-46 0 -118 8 -157 19l14 77c40 -14 100 -24 151 -24c105 0 166 37 166 164v479h92v-455c0 -103 -18 -137 -18 -137s36 -40 134 -40h13v-73zM207 707v-551c-31 -7 -60 -11 -92 -13v492c-23 4 -52 8 -79 10v55
c49 5 118 9 171 7zM17 767v64l83 25c7 -7 38 -35 78 -35c44 0 75 30 82 35v-64c-8 -5 -37 -28 -88 -28c-42 0 -71 21 -78 27z" />
    <glyph glyph-name="uniFEF7" unicode="&#xfedf;&#xfe84;" horiz-adv-x="602" arabic-form="isolated" 
d="M207 675v-519c-31 -7 -61 -11 -92 -13v460c-23 4 -52 8 -79 10v55c49 5 117 9 171 7zM237 -10c-46 0 -117 8 -156 19l13 77c41 -14 101 -24 151 -24c106 0 167 37 167 164v479h92v-467c0 -155 -77 -248 -267 -248zM9 729v55c28 0 55 -3 72 -6c-20 9 -31 31 -31 50
c0 46 36 96 129 96c22 0 42 -3 54 -5l-10 -54c-9 2 -30 5 -51 5c-37 0 -55 -17 -55 -41c0 -26 20 -45 79 -45h56v-55h-243z" />
    <glyph glyph-name="uniFEF8" unicode="&#xfee0;&#xfe84;" horiz-adv-x="633" arabic-form="final" 
d="M633 0h-13c-98 0 -144 21 -180 54c-38 -38 -99 -64 -202 -64c-46 0 -118 8 -157 19l14 77c40 -14 100 -24 151 -24c105 0 166 37 166 164v479h92v-455c0 -103 -18 -137 -18 -137s36 -40 134 -40h13v-73zM207 675v-519c-31 -7 -60 -11 -92 -13v460c-23 4 -52 8 -79 10v55
c49 5 118 9 171 7zM9 729v55c28 0 55 -3 72 -6c-20 9 -31 31 -31 50c0 46 36 96 129 96c22 0 42 -3 54 -5l-10 -54c-9 2 -30 5 -51 5c-37 0 -55 -17 -55 -41c0 -26 20 -45 79 -45h56v-55h-243z" />
    <glyph glyph-name="uniFEF9" unicode="&#xfedf;&#xfe88;" horiz-adv-x="602" arabic-form="isolated" 
d="M207 707v-551c-31 -7 -60 -11 -92 -13v492c-23 4 -52 8 -79 10v55c49 5 118 9 171 7zM238 -10c-46 0 -118 8 -157 19l14 77c40 -14 100 -24 151 -24c105 0 166 37 166 164v479h92v-467c0 -155 -76 -248 -266 -248zM41 -247v54c23 0 44 -1 60 -4c-10 6 -21 19 -21 39
c0 48 41 88 118 88c21 0 41 -3 54 -6l-10 -54c-12 3 -29 6 -48 6c-31 0 -48 -14 -48 -33c0 -23 20 -36 67 -36h60v-54h-232z" />
    <glyph glyph-name="uniFEFA" unicode="&#xfee0;&#xfe88;" horiz-adv-x="633" arabic-form="final" 
d="M633 0h-13c-98 0 -144 21 -180 54c-38 -38 -99 -64 -202 -64c-46 0 -118 8 -157 19l14 77c40 -14 100 -24 151 -24c105 0 166 37 166 164v479h92v-455c0 -103 -18 -137 -18 -137s36 -40 134 -40h13v-73zM207 707v-551c-31 -7 -60 -11 -92 -13v492c-23 4 -52 8 -79 10v55
c49 5 118 9 171 7zM41 -247v54c23 0 44 -1 60 -4c-10 6 -21 19 -21 39c0 48 41 88 118 88c21 0 41 -3 54 -6l-10 -54c-12 3 -29 6 -48 6c-31 0 -48 -14 -48 -33c0 -23 20 -36 67 -36h60v-54h-232z" />
    <glyph glyph-name="uniFEFB" unicode="&#xfedf;&#xfe8e;" horiz-adv-x="602" arabic-form="isolated" 
d="M207 707v-551c-31 -7 -60 -11 -92 -13v492c-23 4 -52 8 -79 10v55c49 5 118 9 171 7zM238 -10c-46 0 -118 8 -157 19l14 77c40 -14 100 -24 151 -24c105 0 166 37 166 164v479h92v-467c0 -155 -76 -248 -266 -248z" />
    <glyph glyph-name="uniFEFC" unicode="&#xfee0;&#xfe8e;" horiz-adv-x="633" arabic-form="final" 
d="M633 0h-13c-98 0 -144 21 -180 54c-38 -38 -99 -64 -202 -64c-46 0 -118 8 -157 19l14 77c40 -14 100 -24 151 -24c105 0 166 37 166 164v479h92v-455c0 -103 -18 -137 -18 -137s36 -40 134 -40h13v-73zM207 707v-551c-31 -7 -60 -11 -92 -13v492c-23 4 -52 8 -79 10v55
c49 5 118 9 171 7z" />
    <glyph glyph-name="uniFC6A" unicode="&#xfe92;&#xfeae;" horiz-adv-x="780" arabic-form="final" 
d="M90 -257c-37 0 -75 6 -104 15l10 75c31 -10 64 -17 101 -17c83 0 133 40 133 171v483h421v-397h129v-73h-221v397h-237v-402c0 -142 -52 -252 -232 -252zM553 -142c0 30 23 54 53 54s54 -23 54 -54c0 -30 -24 -54 -54 -54s-53 24 -53 54z" />
    <glyph glyph-name="uniFC6D" unicode="&#xfe92;&#xfee6;" horiz-adv-x="1038" arabic-form="final" 
d="M908 470v-397h130v-73h-222v397h-237v-346c0 -188 -90 -282 -264 -282c-137 0 -248 74 -248 279c0 66 8 131 24 190l95 18c-18 -66 -27 -134 -27 -199c0 -171 86 -215 165 -215c96 0 163 50 163 203v425h421zM261 419c0 29 25 54 54 54c30 0 55 -24 55 -54
s-25 -55 -55 -55c-29 0 -54 25 -54 55zM808 -142c0 30 23 54 53 54s54 -23 54 -54c0 -30 -24 -54 -54 -54s-53 24 -53 54z" />
    <glyph glyph-name="uniFC70" unicode="&#xfe98;&#xfeae;" horiz-adv-x="780" arabic-form="final" 
d="M90 -257c-37 0 -75 6 -104 15l10 75c31 -10 64 -17 101 -17c83 0 133 40 133 171v483h421v-397h129v-73h-221v397h-237v-402c0 -142 -52 -252 -232 -252zM479 610c0 29 23 52 52 52s52 -22 52 -52c0 -29 -22 -52 -52 -52s-52 23 -52 52zM624 610c0 29 23 52 52 52
c28 0 52 -22 52 -52c0 -28 -23 -52 -52 -52s-52 23 -52 52z" />
    <glyph glyph-name="uniFC79" unicode="&#xfe9c;&#xfee6;" horiz-adv-x="1038" arabic-form="final" 
d="M908 470v-397h130v-73h-222v397h-237v-346c0 -188 -90 -282 -264 -282c-137 0 -248 74 -248 279c0 66 8 131 24 190l95 18c-18 -66 -27 -134 -27 -199c0 -171 86 -215 165 -215c96 0 163 50 163 203v425h421zM261 419c0 29 25 54 54 54c30 0 55 -24 55 -54
s-25 -55 -55 -55c-29 0 -54 25 -54 55zM735 608c0 28 23 52 52 52s52 -23 52 -52s-23 -53 -52 -53s-52 23 -52 53zM882 608c0 28 24 52 52 52c29 0 53 -23 53 -52s-24 -53 -53 -53c-28 0 -52 23 -52 53zM809 721c0 29 23 53 52 53s52 -23 52 -53c0 -28 -23 -52 -52 -52
s-52 23 -52 52z" />
    <glyph glyph-name="uniFC76" unicode="&#xfe9c;&#xfeae;" horiz-adv-x="780" arabic-form="final" 
d="M90 -257c-37 0 -75 6 -104 15l10 75c31 -10 64 -17 101 -17c83 0 133 40 133 171v483h421v-397h129v-73h-221v397h-237v-402c0 -142 -52 -252 -232 -252zM478 608c0 28 23 52 52 52s52 -23 52 -52s-23 -53 -52 -53s-52 23 -52 53zM625 608c0 28 24 52 52 52
c29 0 53 -23 53 -52s-24 -53 -53 -53c-28 0 -52 23 -52 53zM552 721c0 29 23 53 52 53s52 -23 52 -53c0 -28 -23 -52 -52 -52s-52 23 -52 52z" />
    <glyph glyph-name="uniFC8A" unicode="&#xfee8;&#xfeae;" horiz-adv-x="780" arabic-form="final" 
d="M90 -257c-37 0 -75 6 -104 15l10 75c31 -10 64 -17 101 -17c83 0 133 40 133 171v483h421v-397h129v-73h-221v397h-237v-402c0 -142 -52 -252 -232 -252zM549 609c0 29 25 54 54 54c30 0 55 -24 55 -54s-25 -55 -55 -55c-29 0 -54 25 -54 55z" />
    <glyph glyph-name="uniFC8D" unicode="&#xfee8;&#xfee6;" horiz-adv-x="1038" arabic-form="final" 
d="M908 470v-397h130v-73h-222v397h-237v-346c0 -188 -90 -282 -264 -282c-137 0 -248 74 -248 279c0 66 8 131 24 190l95 18c-18 -66 -27 -134 -27 -199c0 -171 86 -215 165 -215c96 0 163 50 163 203v425h421zM261 419c0 29 25 54 54 54c30 0 55 -24 55 -54
s-25 -55 -55 -55c-29 0 -54 25 -54 55zM808 609c0 29 25 54 54 54c30 0 55 -24 55 -54s-25 -55 -55 -55c-29 0 -54 25 -54 55z" />
    <glyph glyph-name="uniFC91" unicode="&#xfef4;&#xfeae;" horiz-adv-x="785" arabic-form="final" 
d="M90 -257c-37 0 -75 6 -104 15l10 75c31 -10 64 -17 101 -17c83 0 133 40 133 171v483h425v-397h130v-73h-222v397h-241v-402c0 -142 -52 -252 -232 -252zM482 -144c0 29 23 53 52 53s52 -23 52 -53c0 -28 -23 -52 -52 -52s-52 24 -52 52zM627 -144c0 29 23 53 52 53
c28 0 52 -23 52 -53c0 -28 -23 -52 -52 -52s-52 24 -52 52z" />
    <glyph glyph-name="uniFC94" unicode="&#xfef4;&#xfee6;" horiz-adv-x="1038" arabic-form="final" 
d="M908 470v-397h130v-73h-222v397h-237v-346c0 -188 -90 -282 -264 -282c-137 0 -248 74 -248 279c0 66 8 131 24 190l95 18c-18 -66 -27 -134 -27 -199c0 -171 86 -215 165 -215c96 0 163 50 163 203v425h421zM261 419c0 29 25 54 54 54c30 0 55 -24 55 -54
s-25 -55 -55 -55c-29 0 -54 25 -54 55zM737 -144c0 29 23 53 52 53s52 -23 52 -53c0 -28 -23 -52 -52 -52s-52 24 -52 52zM882 -144c0 29 23 53 52 53c28 0 52 -23 52 -53c0 -28 -23 -52 -52 -52s-52 24 -52 52z" />
    <glyph glyph-name="uniFDF2" unicode="&#xfedf;&#xfee0;&#xfeea;" horiz-adv-x="1311" arabic-form="isolated" 
d="M1213 0h-885c-192 0 -262 91 -262 234c0 131 81 247 252 247c110 0 201 -35 201 -35v-373h252v556h92v-556h258v632h92v-705zM429 73v312s-49 23 -121 23c-93 0 -149 -66 -149 -165c0 -114 53 -170 182 -170h88z" />
    <glyph glyph-name="uni0621" unicode="&#x621;" horiz-adv-x="482" arabic-form="isolated" 
d="M50 0v72c47 0 91 -2 119 -5c-33 14 -52 46 -52 87c0 76 54 154 196 154c34 0 67 -4 86 -7l-11 -74c-16 3 -51 9 -83 9c-63 0 -96 -33 -96 -78c0 -48 36 -86 135 -86h90v-72h-384z" />
    <glyph glyph-name="uni0622" unicode="&#x622;" horiz-adv-x="295" arabic-form="isolated" 
d="M112 0v634c-23 4 -52 8 -79 10v54c52 6 111 10 171 7v-705h-92zM15 760v64l83 25c7 -7 38 -35 78 -35c44 0 75 30 82 35v-64c-8 -5 -37 -28 -88 -28c-42 0 -71 21 -78 27z" />
    <glyph glyph-name="uniFE82" unicode="&#x622;" horiz-adv-x="333" arabic-form="final" 
d="M112 0v634c-23 4 -52 8 -79 10v54c52 6 111 10 171 7v-632h129v-73h-221zM15 760v64l83 25c7 -7 38 -35 78 -35c44 0 75 30 82 35v-64c-8 -5 -37 -28 -88 -28c-42 0 -71 21 -78 27z" />
    <glyph glyph-name="uni0623" unicode="&#x623;" horiz-adv-x="295" arabic-form="isolated" 
d="M112 0v588c-23 4 -52 8 -79 10v54c52 6 111 10 171 8v-660h-92zM13 729v55c27 0 54 -3 71 -6c-20 9 -31 31 -31 50c0 46 37 96 129 96c22 0 42 -3 54 -5l-10 -54c-9 1 -30 5 -50 5c-38 0 -56 -17 -56 -41c0 -26 20 -45 79 -45h56v-55h-242z" />
    <glyph glyph-name="uniFE84" unicode="&#x623;" horiz-adv-x="333" arabic-form="final" 
d="M112 0v588c-23 4 -52 8 -79 10v54c52 6 111 10 171 8v-587h129v-73h-221zM13 729v55c27 0 54 -3 71 -6c-20 9 -31 31 -31 50c0 46 37 96 129 96c22 0 42 -3 54 -5l-10 -54c-9 1 -30 5 -50 5c-38 0 -56 -17 -56 -41c0 -26 20 -45 79 -45h56v-55h-242z" />
    <glyph glyph-name="uni0624" unicode="&#x624;" horiz-adv-x="617" arabic-form="isolated" 
d="M228 -253c-77 0 -156 15 -156 15l6 78s84 -20 160 -20c109 0 191 41 191 156v24h-101c-192 0 -262 91 -262 234c0 131 81 247 252 247c110 0 201 -35 201 -35v-465c0 -117 -76 -234 -291 -234zM429 73v312s-49 23 -121 23c-93 0 -149 -66 -149 -165
c0 -114 53 -170 182 -170h88zM179 561v55c27 0 54 -3 71 -6c-20 9 -31 31 -31 50c0 46 37 96 129 96c22 0 42 -3 54 -5l-10 -54c-9 1 -30 5 -50 5c-38 0 -56 -17 -56 -41c0 -26 20 -45 79 -45h56v-55h-242z" />
    <glyph glyph-name="uniFE86" unicode="&#x624;" horiz-adv-x="648" arabic-form="final" 
d="M228 -253c-77 0 -156 15 -156 15l6 78s84 -20 160 -20c109 0 191 41 191 156v24h-101c-192 0 -262 91 -262 234c0 131 81 247 252 247c110 0 201 -35 201 -35v-373h129v-73h-129v-19c0 -117 -76 -234 -291 -234zM429 73v312s-49 23 -121 23c-93 0 -149 -66 -149 -165
c0 -114 53 -170 182 -170h88zM180 561v55c27 0 54 -3 71 -6c-20 9 -31 31 -31 50c0 46 37 96 129 96c22 0 42 -3 54 -5l-10 -54c-9 1 -30 5 -50 5c-38 0 -56 -17 -56 -41c0 -26 20 -45 79 -45h56v-55h-242z" />
    <glyph glyph-name="uni0625" unicode="&#x625;" horiz-adv-x="295" arabic-form="isolated" 
d="M112 0v634c-23 4 -52 8 -79 10v54c52 6 111 10 171 7v-705h-92zM29 -251v54c23 0 44 -1 60 -4c-10 6 -21 19 -21 39c0 48 41 88 118 88c21 0 41 -3 54 -6l-10 -54c-12 3 -29 6 -48 6c-31 0 -48 -14 -48 -33c0 -23 20 -36 67 -36h60v-54h-232z" />
    <glyph glyph-name="uniFE88" unicode="&#x625;" horiz-adv-x="333" arabic-form="final" 
d="M112 0v634c-23 4 -52 8 -79 10v54c52 6 111 10 171 7v-632h129v-73h-221zM29 -251v54c23 0 44 -1 60 -4c-10 6 -21 19 -21 39c0 48 41 88 118 88c21 0 41 -3 54 -6l-10 -54c-12 3 -29 6 -48 6c-31 0 -48 -14 -48 -33c0 -23 20 -36 67 -36h60v-54h-232z" />
    <glyph glyph-name="uni0626" unicode="&#x626;" horiz-adv-x="1001" arabic-form="isolated" 
d="M610 0h-187c-252 0 -349 101 -349 291c0 61 14 127 32 167l99 16c-24 -47 -39 -116 -39 -172c0 -152 60 -229 269 -229h86v389s87 19 182 19c167 0 223 -81 223 -218v-143h-90v131c0 113 -41 157 -142 157c-41 0 -84 -8 -84 -8v-400zM56 556v55c27 0 54 -3 71 -6
c-20 9 -31 31 -31 50c0 46 37 96 129 96c22 0 42 -3 54 -5l-10 -54c-9 1 -30 5 -50 5c-38 0 -56 -17 -56 -41c0 -26 20 -45 79 -45h56v-55h-242z" />
    <glyph glyph-name="uniFE8A" unicode="&#x626;" horiz-adv-x="1027" arabic-form="final" 
d="M610 0h-187c-252 0 -349 101 -349 291c0 61 14 127 32 167l99 16c-24 -47 -39 -116 -39 -172c0 -152 60 -229 269 -229h86v389s87 19 182 19c167 0 223 -81 223 -218v-190h101v-73h-191v251c0 113 -41 157 -142 157c-41 0 -84 -8 -84 -8v-400zM56 556v55
c27 0 54 -3 71 -6c-20 9 -31 31 -31 50c0 46 37 96 129 96c22 0 42 -3 54 -5l-10 -54c-9 1 -30 5 -50 5c-38 0 -56 -17 -56 -41c0 -26 20 -45 79 -45h56v-55h-242z" />
    <glyph glyph-name="uniFE8B" unicode="&#x626;" arabic-form="initial" 
d="M221 0h-236c-20 0 -60 13 -60 37c0 22 40 36 60 36h144v397h92v-470zM37 523v55c27 0 54 -3 71 -6c-20 9 -31 31 -31 50c0 46 37 96 129 96c22 0 42 -3 54 -5l-10 -54c-9 1 -30 5 -50 5c-38 0 -56 -17 -56 -41c0 -26 20 -45 79 -45h56v-55h-242z" />
    <glyph glyph-name="uniFE8C" unicode="&#x626;" horiz-adv-x="351" arabic-form="medial" 
d="M-15 0c-20 0 -60 13 -60 37c0 22 40 36 60 36h144v397h92v-397h130v-73h-366zM37 523v55c27 0 54 -3 71 -6c-20 9 -31 31 -31 50c0 46 37 96 129 96c22 0 42 -3 54 -5l-10 -54c-9 1 -30 5 -50 5c-38 0 -56 -17 -56 -41c0 -26 20 -45 79 -45h56v-55h-242z" />
    <glyph glyph-name="uniFE8E" unicode="&#x627;" horiz-adv-x="333" arabic-form="final" 
d="M112 0v634c-23 4 -52 8 -79 10v54c52 6 111 10 171 7v-632h129v-73h-221z" />
    <glyph glyph-name="uni0628" unicode="&#x628;" horiz-adv-x="795" arabic-form="isolated" 
d="M697 0h-274c-252 0 -349 101 -349 291c0 61 14 127 32 167l99 16c-24 -47 -39 -116 -39 -172c0 -152 60 -229 269 -229h170v397h92v-470zM352 -142c0 30 23 54 53 54s54 -23 54 -54c0 -30 -24 -54 -54 -54s-53 24 -53 54z" />
    <glyph glyph-name="uniFE90" unicode="&#x628;" horiz-adv-x="826" arabic-form="final" 
d="M423 0c-252 0 -349 101 -349 291c0 61 14 127 32 167l99 16c-24 -47 -39 -116 -39 -172c0 -152 60 -229 269 -229h170v397h92v-397h129v-73h-403zM352 -142c0 30 23 54 53 54s54 -23 54 -54c0 -30 -24 -54 -54 -54s-53 24 -53 54z" />
    <glyph glyph-name="uniFE91" unicode="&#x628;" arabic-form="initial" 
d="M221 0h-236c-20 0 -60 13 -60 37c0 22 40 36 60 36h144v397h92v-470zM116 -142c0 30 23 54 53 54s54 -23 54 -54c0 -30 -24 -54 -54 -54s-53 24 -53 54z" />
    <glyph glyph-name="uniFE92" unicode="&#x628;" horiz-adv-x="351" arabic-form="medial" 
d="M351 0h-366c-20 0 -60 13 -60 37c0 22 40 36 60 36h144v397h92v-397h130v-73zM121 -142c0 30 23 54 53 54s54 -23 54 -54c0 -30 -24 -54 -54 -54s-53 24 -53 54z" />
    <glyph glyph-name="uni0629" unicode="&#x629;" horiz-adv-x="610" arabic-form="isolated" 
d="M530 0h-202c-192 0 -262 91 -262 233c0 133 84 248 250 248c143 0 214 -81 214 -224v-257zM440 73v169c0 119 -49 166 -132 166c-93 0 -149 -66 -149 -166c0 -114 54 -169 182 -169h99zM178 610c0 29 23 52 52 52s52 -22 52 -52c0 -29 -22 -52 -52 -52s-52 23 -52 52z
M323 610c0 29 23 52 52 52c28 0 52 -22 52 -52c0 -28 -23 -52 -52 -52s-52 23 -52 52z" />
    <glyph glyph-name="uniFE94" unicode="&#x629;" horiz-adv-x="648" arabic-form="final" 
d="M648 0h-320c-192 0 -262 91 -262 234c0 131 81 247 252 247c110 0 201 -35 201 -35v-373h129v-73zM429 73v312s-49 23 -121 23c-93 0 -149 -66 -149 -165c0 -114 53 -170 182 -170h88zM185 610c0 29 23 52 52 52s52 -22 52 -52c0 -29 -22 -52 -52 -52s-52 23 -52 52z
M330 610c0 29 23 52 52 52c28 0 52 -22 52 -52c0 -28 -23 -52 -52 -52s-52 23 -52 52z" />
    <glyph glyph-name="uni062A" unicode="&#x62a;" horiz-adv-x="795" arabic-form="isolated" 
d="M697 0h-274c-252 0 -349 101 -349 291c0 61 14 127 32 167l99 16c-24 -47 -39 -116 -39 -172c0 -152 60 -229 269 -229h170v397h92v-470zM288 610c0 29 23 52 52 52s52 -22 52 -52c0 -29 -22 -52 -52 -52s-52 23 -52 52zM433 610c0 29 23 52 52 52c28 0 52 -22 52 -52
c0 -28 -23 -52 -52 -52s-52 23 -52 52z" />
    <glyph glyph-name="uniFE96" unicode="&#x62a;" horiz-adv-x="826" arabic-form="final" 
d="M423 0c-252 0 -349 101 -349 291c0 61 14 127 32 167l99 16c-24 -47 -39 -116 -39 -172c0 -152 60 -229 269 -229h170v397h92v-397h129v-73h-403zM288 610c0 29 23 52 52 52s52 -22 52 -52c0 -29 -22 -52 -52 -52s-52 23 -52 52zM433 610c0 29 23 52 52 52
c28 0 52 -22 52 -52c0 -28 -23 -52 -52 -52s-52 23 -52 52z" />
    <glyph glyph-name="uniFE97" unicode="&#x62a;" arabic-form="initial" 
d="M221 0h-236c-20 0 -60 13 -60 37c0 22 40 36 60 36h144v397h92v-470zM47 610c0 29 23 52 52 52s52 -22 52 -52c0 -29 -22 -52 -52 -52s-52 23 -52 52zM192 610c0 29 23 52 52 52c28 0 52 -22 52 -52c0 -28 -23 -52 -52 -52s-52 23 -52 52z" />
    <glyph glyph-name="uniFE98" unicode="&#x62a;" horiz-adv-x="351" arabic-form="medial" 
d="M-15 0c-20 0 -60 13 -60 37c0 22 40 36 60 36h144v397h92v-397h130v-73h-366zM51 610c0 29 23 52 52 52s52 -22 52 -52c0 -29 -22 -52 -52 -52s-52 23 -52 52zM196 610c0 29 23 52 52 52c28 0 52 -22 52 -52c0 -28 -23 -52 -52 -52s-52 23 -52 52z" />
    <glyph glyph-name="uni062B" unicode="&#x62b;" horiz-adv-x="795" arabic-form="isolated" 
d="M697 0h-274c-252 0 -349 101 -349 291c0 61 14 127 32 167l99 16c-24 -47 -39 -116 -39 -172c0 -152 60 -229 269 -229h170v397h92v-470zM287 608c0 28 23 52 52 52s52 -23 52 -52s-23 -53 -52 -53s-52 23 -52 53zM434 608c0 28 24 52 52 52c29 0 53 -23 53 -52
s-24 -53 -53 -53c-28 0 -52 23 -52 53zM361 721c0 29 23 53 52 53s52 -23 52 -53c0 -28 -23 -52 -52 -52s-52 23 -52 52z" />
    <glyph glyph-name="uniFE9A" unicode="&#x62b;" horiz-adv-x="826" arabic-form="final" 
d="M826 0h-403c-252 0 -349 101 -349 291c0 61 14 127 32 167l99 16c-24 -47 -39 -116 -39 -172c0 -152 60 -229 269 -229h170v397h92v-397h129v-73zM432 608c0 28 24 52 52 52c29 0 53 -23 53 -52s-24 -53 -53 -53c-28 0 -52 23 -52 53zM359 721c0 29 23 53 52 53
s52 -23 52 -53c0 -28 -23 -52 -52 -52s-52 23 -52 52zM285 608c0 28 23 52 52 52s52 -23 52 -52s-23 -53 -52 -53s-52 23 -52 53z" />
    <glyph glyph-name="uniFE9B" unicode="&#x62b;" arabic-form="initial" 
d="M221 0h-236c-20 0 -60 13 -60 37c0 22 40 36 60 36h144v397h92v-470zM45 608c0 28 23 52 52 52s52 -23 52 -52s-23 -53 -52 -53s-52 23 -52 53zM192 608c0 28 24 52 52 52c29 0 53 -23 53 -52s-24 -53 -53 -53c-28 0 -52 23 -52 53zM119 721c0 29 23 53 52 53
s52 -23 52 -53c0 -28 -23 -52 -52 -52s-52 23 -52 52z" />
    <glyph glyph-name="uniFE9C" unicode="&#x62b;" horiz-adv-x="351" arabic-form="medial" 
d="M351 0h-366c-20 0 -60 13 -60 37c0 22 40 36 60 36h144v397h92v-397h130v-73zM195 608c0 28 24 52 52 52c29 0 53 -23 53 -52s-24 -53 -53 -53c-28 0 -52 23 -52 53zM122 721c0 29 23 53 52 53s52 -23 52 -53c0 -28 -23 -52 -52 -52s-52 23 -52 52zM48 608
c0 28 23 52 52 52s52 -23 52 -52s-23 -53 -52 -53s-52 23 -52 53z" />
    <glyph glyph-name="uni062C" unicode="&#x62c;" horiz-adv-x="618" arabic-form="isolated" 
d="M527 0h-186c-169 0 -212 -55 -212 -125c0 -64 60 -122 187 -122l-6 -73c-183 0 -273 83 -273 188c0 117 82 205 309 205h99c4 35 7 70 7 103c0 151 -55 225 -219 225c-40 0 -74 -2 -111 -7v72c33 4 75 8 119 8c220 0 302 -101 302 -292c0 -48 -4 -110 -16 -182zM336 -142
c0 30 23 54 53 54s54 -23 54 -54c0 -30 -24 -54 -54 -54s-53 24 -53 54z" />
    <glyph glyph-name="uniFE9E" unicode="&#x62c;" horiz-adv-x="614" arabic-form="final" 
d="M341 0c-169 0 -212 -55 -212 -125c0 -64 60 -122 187 -122l-6 -73c-183 0 -273 83 -273 188c0 117 82 205 309 205h99c4 35 7 70 7 103c0 151 -55 225 -219 225c-40 0 -74 -2 -111 -7v72c33 4 75 8 119 8c220 0 302 -101 302 -292c0 -31 -2 -68 -6 -109h77v-73h-273z
M336 -142c0 30 23 54 53 54s54 -23 54 -54c0 -30 -24 -54 -54 -54s-53 24 -53 54z" />
    <glyph glyph-name="uniFE9F" unicode="&#x62c;" horiz-adv-x="531" arabic-form="initial" 
d="M440 0h-455c-20 0 -60 13 -60 37c0 22 40 36 60 36h373c5 35 7 70 7 103c0 151 -55 225 -218 225c-39 0 -83 -4 -120 -10v72c33 6 84 11 127 11c221 0 303 -101 303 -292c0 -48 -5 -110 -17 -182zM129 -142c0 30 23 54 53 54s54 -23 54 -54c0 -30 -24 -54 -54 -54
s-53 24 -53 54z" />
    <glyph glyph-name="uniFEA0" unicode="&#x62c;" horiz-adv-x="528" arabic-form="medial" 
d="M528 0h-543c-20 0 -60 13 -60 37c0 22 40 36 60 36h373c5 35 7 70 7 103c0 151 -55 225 -218 225c-39 0 -83 -4 -120 -10v72c33 6 84 11 127 11c221 0 303 -101 303 -292c0 -31 -3 -68 -7 -109h78v-73zM129 -142c0 30 23 54 53 54s54 -23 54 -54c0 -30 -24 -54 -54 -54
s-53 24 -53 54z" />
    <glyph glyph-name="uni062D" unicode="&#x62d;" horiz-adv-x="612" arabic-form="isolated" 
d="M310 -320c-183 0 -273 79 -273 188c0 117 82 205 309 205h93c4 35 7 70 7 103c0 151 -55 225 -219 225c-40 0 -74 -2 -111 -7v72c33 4 76 8 119 8c220 0 302 -101 302 -292c0 -48 -4 -110 -16 -182h-180c-169 0 -212 -55 -212 -124s60 -123 189 -123c55 0 115 7 180 21
l8 -72c-67 -15 -133 -22 -196 -22z" />
    <glyph glyph-name="uniFEA2" unicode="&#x62d;" horiz-adv-x="604" arabic-form="final" 
d="M310 -320c-183 0 -273 79 -273 188c0 117 82 205 309 205h93c4 35 7 70 7 103c0 151 -55 225 -219 225c-40 0 -74 -2 -111 -7v72c33 4 76 8 119 8c220 0 302 -101 302 -292c0 -31 -2 -68 -6 -109h73v-73h-263c-169 0 -212 -55 -212 -124s60 -123 189 -123
c55 0 115 7 180 21l8 -72c-67 -15 -133 -22 -196 -22z" />
    <glyph glyph-name="uniFEA3" unicode="&#x62d;" horiz-adv-x="531" arabic-form="initial" 
d="M440 0h-455c-20 0 -60 13 -60 37c0 22 40 36 60 36h373c5 35 7 70 7 103c0 151 -55 225 -218 225c-39 0 -83 -4 -120 -10v72c33 6 84 11 127 11c221 0 303 -101 303 -292c0 -48 -5 -110 -17 -182z" />
    <glyph glyph-name="uniFEA4" unicode="&#x62d;" horiz-adv-x="528" arabic-form="medial" 
d="M-15 0c-20 0 -60 13 -60 37c0 22 40 36 60 36h373c5 35 7 70 7 103c0 151 -55 225 -218 225c-39 0 -83 -4 -120 -10v72c33 6 84 11 127 11c221 0 303 -101 303 -292c0 -31 -3 -68 -7 -109h78v-73h-543z" />
    <glyph glyph-name="uni062E" unicode="&#x62e;" horiz-adv-x="612" arabic-form="isolated" 
d="M310 -320c-183 0 -273 79 -273 188c0 117 82 205 309 205h93c4 35 7 70 7 103c0 151 -55 225 -219 225c-40 0 -74 -2 -111 -7v72c33 4 76 8 119 8c220 0 302 -101 302 -292c0 -48 -4 -110 -16 -182h-180c-169 0 -212 -55 -212 -124s60 -123 189 -123c55 0 115 7 180 21
l8 -72c-67 -15 -133 -22 -196 -22zM210 609c0 29 25 54 54 54c30 0 55 -24 55 -54s-25 -55 -55 -55c-29 0 -54 25 -54 55z" />
    <glyph glyph-name="uniFEA6" unicode="&#x62e;" horiz-adv-x="604" arabic-form="final" 
d="M310 -320c-183 0 -273 79 -273 188c0 117 82 205 309 205h93c4 35 7 70 7 103c0 151 -55 225 -219 225c-40 0 -74 -2 -111 -7v72c33 4 76 8 119 8c220 0 302 -101 302 -292c0 -31 -2 -68 -6 -109h73v-73h-263c-169 0 -212 -55 -212 -124s60 -123 189 -123
c55 0 115 7 180 21l8 -72c-67 -15 -133 -22 -196 -22zM210 609c0 29 25 54 54 54c30 0 55 -24 55 -54s-25 -55 -55 -55c-29 0 -54 25 -54 55z" />
    <glyph glyph-name="uniFEA7" unicode="&#x62e;" horiz-adv-x="531" arabic-form="initial" 
d="M440 0h-455c-20 0 -60 13 -60 37c0 22 40 36 60 36h373c5 35 7 70 7 103c0 151 -55 225 -218 225c-39 0 -83 -4 -120 -10v72c33 6 84 11 127 11c221 0 303 -101 303 -292c0 -48 -5 -110 -17 -182zM128 609c0 29 25 54 54 54c30 0 55 -24 55 -54s-25 -55 -55 -55
c-29 0 -54 25 -54 55z" />
    <glyph glyph-name="uniFEA8" unicode="&#x62e;" horiz-adv-x="528" arabic-form="medial" 
d="M-15 0c-20 0 -60 13 -60 37c0 22 40 36 60 36h373c5 35 7 70 7 103c0 151 -55 225 -218 225c-39 0 -83 -4 -120 -10v72c33 6 84 11 127 11c221 0 303 -101 303 -292c0 -31 -3 -68 -7 -109h78v-73h-543zM128 609c0 29 25 54 54 54c30 0 55 -24 55 -54s-25 -55 -55 -55
c-29 0 -54 25 -54 55z" />
    <glyph glyph-name="uni062F" unicode="&#x62f;" horiz-adv-x="543" arabic-form="isolated" 
d="M57 0v73h320c-3 184 -75 285 -252 339l24 77c217 -66 319 -188 319 -439v-50h-411z" />
    <glyph glyph-name="uniFEAA" unicode="&#x62f;" horiz-adv-x="536" arabic-form="final" 
d="M57 0v73h320c-3 184 -75 285 -252 339l24 77c210 -64 313 -181 319 -416h68v-73h-479z" />
    <glyph glyph-name="uni0630" unicode="&#x630;" horiz-adv-x="543" arabic-form="isolated" 
d="M57 0v73h320c-3 184 -75 285 -252 339l24 77c217 -66 319 -188 319 -439v-50h-411zM141 609c0 29 25 54 54 54c30 0 55 -24 55 -54s-25 -55 -55 -55c-29 0 -54 25 -54 55z" />
    <glyph glyph-name="uniFEAC" unicode="&#x630;" horiz-adv-x="536" arabic-form="final" 
d="M57 0v73h320c-3 184 -75 285 -252 339l24 77c210 -64 313 -181 319 -416h68v-73h-479zM141 609c0 29 25 54 54 54c30 0 55 -24 55 -54s-25 -55 -55 -55c-29 0 -54 25 -54 55z" />
    <glyph glyph-name="uni0631" unicode="&#x631;" horiz-adv-x="420" arabic-form="isolated" 
d="M90 -257c-37 0 -75 6 -104 15l10 75c31 -10 64 -17 101 -17c83 0 133 40 133 171v483h92v-475c0 -142 -52 -252 -232 -252z" />
    <glyph glyph-name="uniFEAE" unicode="&#x631;" horiz-adv-x="451" arabic-form="final" 
d="M90 -257c-37 0 -75 6 -104 15l10 75c31 -10 64 -17 101 -17c83 0 133 40 133 171v483h92v-397h129v-73h-129v-5c0 -142 -52 -252 -232 -252z" />
    <glyph glyph-name="uni0632" unicode="&#x632;" horiz-adv-x="420" arabic-form="isolated" 
d="M90 -257c-37 0 -75 6 -104 15l10 75c31 -10 64 -17 101 -17c83 0 133 40 133 171v483h92v-475c0 -142 -52 -252 -232 -252zM220 609c0 29 25 54 54 54c30 0 55 -24 55 -54s-25 -55 -55 -55c-29 0 -54 25 -54 55z" />
    <glyph glyph-name="uniFEB0" unicode="&#x632;" horiz-adv-x="451" arabic-form="final" 
d="M90 -257c-37 0 -75 6 -104 15l10 75c31 -10 64 -17 101 -17c83 0 133 40 133 171v483h92v-397h129v-73h-129v-5c0 -142 -52 -252 -232 -252zM220 609c0 29 25 54 54 54c30 0 55 -24 55 -54s-25 -55 -55 -55c-29 0 -54 25 -54 55z" />
    <glyph glyph-name="uni0633" unicode="&#x633;" horiz-adv-x="1203" arabic-form="isolated" 
d="M312 -231c-137 0 -245 74 -245 279c0 66 8 131 24 190l95 18c-18 -66 -27 -134 -27 -199c0 -171 83 -215 162 -215c81 0 146 50 146 203v365h92v-182c0 -111 24 -162 91 -162s98 48 98 161v223h89v-256c0 -105 38 -121 148 -121h32c5 43 8 103 8 139
c0 109 -14 203 -33 276l90 15c20 -75 35 -174 35 -283c0 -68 -6 -153 -16 -220h-113c-130 0 -183 20 -208 80c-20 -62 -81 -87 -129 -87c-50 0 -77 15 -96 45c2 -204 -112 -269 -243 -269z" />
    <glyph glyph-name="uniFEB2" unicode="&#x633;" horiz-adv-x="1231" arabic-form="final" 
d="M312 -231c-137 0 -245 74 -245 279c0 66 8 131 24 190l95 18c-18 -66 -27 -134 -27 -199c0 -171 83 -215 162 -215c81 0 146 50 146 203v365h92v-182c0 -111 24 -162 91 -162s98 48 98 161v223h89v-256c0 -105 38 -121 148 -121h32c5 43 8 103 8 139
c0 109 -14 203 -33 276l90 15c20 -75 35 -174 35 -283c0 -45 -3 -98 -7 -147h121v-73h-243c-130 0 -183 20 -208 80c-20 -62 -81 -87 -129 -87c-50 0 -77 15 -96 45c2 -204 -112 -269 -243 -269z" />
    <glyph glyph-name="uniFEB3" unicode="&#x633;" horiz-adv-x="868" arabic-form="initial" 
d="M29 0h-44c-20 0 -60 13 -60 37c0 22 40 36 60 36h44c72 0 103 32 103 137v200h92v-182c0 -103 4 -162 84 -162c61 0 104 33 104 161v223h90v-256c0 -105 39 -121 148 -121h32c5 43 8 102 8 139c0 109 -14 203 -33 276l90 15c20 -75 35 -174 35 -283
c0 -68 -6 -153 -16 -220h-113c-126 0 -180 17 -208 80c-16 -42 -63 -87 -153 -87c-67 0 -115 35 -129 86c-18 -49 -58 -79 -134 -79z" />
    <glyph glyph-name="uniFEB4" unicode="&#x633;" horiz-adv-x="896" arabic-form="medial" 
d="M29 0h-44c-20 0 -60 13 -60 37c0 22 40 36 60 36h44c72 0 103 32 103 137v200h92v-182c0 -103 4 -162 84 -162c61 0 104 33 104 161v223h90v-256c0 -105 39 -121 148 -121h32c5 43 8 102 8 139c0 109 -14 203 -33 276l90 15c20 -75 35 -174 35 -283c0 -45 -3 -98 -7 -147
h121v-73h-243c-126 0 -180 17 -208 80c-16 -42 -63 -87 -153 -87c-67 0 -115 35 -129 86c-18 -49 -58 -79 -134 -79z" />
    <glyph glyph-name="uni0634" unicode="&#x634;" horiz-adv-x="1203" arabic-form="isolated" 
d="M312 -231c-137 0 -245 74 -245 279c0 66 8 131 24 190l95 18c-18 -66 -27 -134 -27 -199c0 -171 83 -215 162 -215c81 0 146 50 146 203v365h92v-182c0 -111 24 -162 91 -162s98 48 98 161v223h89v-256c0 -105 38 -121 148 -121h32c5 43 8 103 8 139
c0 109 -14 203 -33 276l90 15c20 -75 35 -174 35 -283c0 -68 -6 -153 -16 -220h-113c-130 0 -183 20 -208 80c-20 -62 -81 -87 -129 -87c-50 0 -77 15 -96 45c2 -204 -112 -269 -243 -269zM663 608c0 28 23 52 52 52s52 -23 52 -52s-23 -53 -52 -53s-52 23 -52 53zM810 608
c0 28 24 52 52 52c29 0 53 -23 53 -52s-24 -53 -53 -53c-28 0 -52 23 -52 53zM737 721c0 29 23 53 52 53s52 -23 52 -53c0 -28 -23 -52 -52 -52s-52 23 -52 52z" />
    <glyph glyph-name="uniFEB6" unicode="&#x634;" horiz-adv-x="1231" arabic-form="final" 
d="M988 0c-130 0 -183 20 -208 80c-20 -62 -81 -87 -129 -87c-50 0 -77 15 -96 45c2 -204 -112 -269 -243 -269c-137 0 -245 74 -245 279c0 66 8 131 24 190l95 18c-18 -66 -27 -134 -27 -199c0 -171 83 -215 162 -215c81 0 146 50 146 203v365h92v-182
c0 -111 24 -162 91 -162s98 48 98 161v223h89v-256c0 -105 38 -121 148 -121h32c5 43 8 103 8 139c0 109 -14 203 -33 276l90 15c20 -75 35 -174 35 -283c0 -45 -3 -98 -7 -147h121v-73h-243zM810 608c0 28 24 52 52 52c29 0 53 -23 53 -52s-24 -53 -53 -53
c-28 0 -52 23 -52 53zM737 721c0 29 23 53 52 53s52 -23 52 -53c0 -28 -23 -52 -52 -52s-52 23 -52 52zM663 608c0 28 23 52 52 52s52 -23 52 -52s-23 -53 -52 -53s-52 23 -52 53z" />
    <glyph glyph-name="uniFEB7" unicode="&#x634;" horiz-adv-x="868" arabic-form="initial" 
d="M29 0h-44c-20 0 -60 13 -60 37c0 22 40 36 60 36h44c72 0 103 32 103 137v200h92v-182c0 -103 4 -162 84 -162c61 0 104 33 104 161v223h90v-256c0 -105 39 -121 148 -121h32c5 43 8 102 8 139c0 109 -14 203 -33 276l90 15c20 -75 35 -174 35 -283
c0 -68 -6 -153 -16 -220h-113c-126 0 -180 17 -208 80c-16 -42 -63 -87 -153 -87c-67 0 -115 35 -129 86c-18 -49 -58 -79 -134 -79zM326 608c0 28 23 52 52 52s52 -23 52 -52s-23 -53 -52 -53s-52 23 -52 53zM473 608c0 28 24 52 52 52c29 0 53 -23 53 -52s-24 -53 -53 -53
c-28 0 -52 23 -52 53zM400 721c0 29 23 53 52 53s52 -23 52 -53c0 -28 -23 -52 -52 -52s-52 23 -52 52z" />
    <glyph glyph-name="uniFEB8" unicode="&#x634;" horiz-adv-x="896" arabic-form="medial" 
d="M29 0h-44c-20 0 -60 13 -60 37c0 22 40 36 60 36h44c72 0 103 32 103 137v200h92v-182c0 -103 4 -162 84 -162c61 0 104 33 104 161v223h90v-256c0 -105 39 -121 148 -121h32c5 43 8 102 8 139c0 109 -14 203 -33 276l90 15c20 -75 35 -174 35 -283c0 -45 -3 -98 -7 -147
h121v-73h-243c-126 0 -180 17 -208 80c-16 -42 -63 -87 -153 -87c-67 0 -115 35 -129 86c-18 -49 -58 -79 -134 -79zM473 608c0 28 24 52 52 52c29 0 53 -23 53 -52s-24 -53 -53 -53c-28 0 -52 23 -52 53zM400 721c0 29 23 53 52 53s52 -23 52 -53c0 -28 -23 -52 -52 -52
s-52 23 -52 52zM326 608c0 28 23 52 52 52s52 -23 52 -52s-23 -53 -52 -53s-52 23 -52 53z" />
    <glyph glyph-name="uni0635" unicode="&#x635;" horiz-adv-x="1083" arabic-form="isolated" 
d="M312 -231c-137 0 -245 74 -245 279c0 66 8 131 24 190l95 18c-18 -66 -27 -134 -27 -199c0 -171 83 -215 162 -215c81 0 146 50 146 203v425h92v-39c0 -54 -3 -123 -11 -179h2c46 150 158 229 274 229c128 0 200 -83 200 -227c0 -138 -76 -254 -292 -254h-176
c-13 -159 -115 -231 -244 -231zM558 73h184c147 0 187 80 187 174c0 99 -39 161 -122 161c-137 0 -233 -174 -249 -335z" />
    <glyph glyph-name="uniFEBA" unicode="&#x635;" horiz-adv-x="1092" arabic-form="final" 
d="M556 0c-13 -159 -115 -231 -244 -231c-137 0 -245 74 -245 279c0 66 8 131 24 190l95 18c-18 -66 -27 -134 -27 -199c0 -171 83 -215 162 -215c81 0 146 50 146 203v425h92v-39c0 -54 -3 -123 -11 -179h2c46 150 158 229 274 229c128 0 200 -83 200 -227
c0 -70 -20 -135 -68 -181h136v-73h-536zM558 73h195c138 4 176 82 176 174c0 99 -39 161 -122 161c-137 0 -233 -174 -249 -335z" />
    <glyph glyph-name="uniFEBB" unicode="&#x635;" horiz-adv-x="745" arabic-form="initial" 
d="M394 0h-409c-20 0 -60 13 -60 37c0 22 40 36 60 36h144v397h92v-39c0 -54 -3 -123 -11 -179h2c46 150 158 229 274 229c128 0 200 -83 200 -227c0 -138 -76 -254 -292 -254zM220 73h184c147 0 187 80 187 174c0 99 -39 161 -122 161c-137 0 -233 -174 -249 -335z" />
    <glyph glyph-name="uniFEBC" unicode="&#x635;" horiz-adv-x="761" arabic-form="medial" 
d="M-15 0c-20 0 -60 13 -60 37c0 22 40 36 60 36h144v397h92v-39c0 -54 -3 -123 -11 -179h2c46 150 158 229 274 229c128 0 200 -83 200 -227c0 -70 -20 -135 -68 -181h143v-73h-351h-16h-409zM220 73h195c138 4 176 82 176 174c0 99 -39 161 -122 161
c-137 0 -233 -174 -249 -335z" />
    <glyph glyph-name="uni0636" unicode="&#x636;" horiz-adv-x="1083" arabic-form="isolated" 
d="M312 -231c-137 0 -245 74 -245 279c0 66 8 131 24 190l95 18c-18 -66 -27 -134 -27 -199c0 -171 83 -215 162 -215c81 0 146 50 146 203v425h92v-39c0 -54 -3 -123 -11 -179h2c46 150 158 229 274 229c128 0 200 -83 200 -227c0 -138 -76 -254 -292 -254h-176
c-13 -159 -115 -231 -244 -231zM558 73h184c147 0 187 80 187 174c0 99 -39 161 -122 161c-137 0 -233 -174 -249 -335zM747 609c0 29 25 54 54 54c30 0 55 -24 55 -54s-25 -55 -55 -55c-29 0 -54 25 -54 55z" />
    <glyph glyph-name="uniFEBE" unicode="&#x636;" horiz-adv-x="1092" arabic-form="final" 
d="M556 0c-13 -159 -115 -231 -244 -231c-137 0 -245 74 -245 279c0 66 8 131 24 190l95 18c-18 -66 -27 -134 -27 -199c0 -171 83 -215 162 -215c81 0 146 50 146 203v425h92v-39c0 -54 -3 -123 -11 -179h2c46 150 158 229 274 229c128 0 200 -83 200 -227
c0 -70 -20 -135 -68 -181h136v-73h-344h-16h-176zM558 73h195c138 4 176 82 176 174c0 99 -39 161 -122 161c-137 0 -233 -174 -249 -335zM747 609c0 29 25 54 54 54c30 0 55 -24 55 -54s-25 -55 -55 -55c-29 0 -54 25 -54 55z" />
    <glyph glyph-name="uniFEBF" unicode="&#x636;" horiz-adv-x="745" arabic-form="initial" 
d="M394 0h-409c-20 0 -60 13 -60 37c0 22 40 36 60 36h144v397h92v-39c0 -54 -3 -123 -11 -179h2c46 150 158 229 274 229c128 0 200 -83 200 -227c0 -138 -76 -254 -292 -254zM220 73h184c147 0 187 80 187 174c0 99 -39 161 -122 161c-137 0 -233 -174 -249 -335zM410 609
c0 29 25 54 54 54c30 0 55 -24 55 -54s-25 -55 -55 -55c-29 0 -54 25 -54 55z" />
    <glyph glyph-name="uniFEC0" unicode="&#x636;" horiz-adv-x="761" arabic-form="medial" 
d="M394 0h-409c-20 0 -60 13 -60 37c0 22 40 36 60 36h144v397h92v-39c0 -54 -3 -123 -11 -179h2c46 150 158 229 274 229c128 0 200 -83 200 -227c0 -70 -20 -135 -68 -181h143v-73h-351h-16zM220 73h184c147 0 187 80 187 174c0 99 -39 161 -122 161
c-137 0 -233 -174 -249 -335zM410 609c0 29 25 54 54 54c30 0 55 -24 55 -54s-25 -55 -55 -55c-29 0 -54 25 -54 55z" />
    <glyph glyph-name="uni0637" unicode="&#x637;" horiz-adv-x="762" arabic-form="isolated" 
d="M9 0v73h138v632h92v-274c0 -54 -3 -123 -11 -179h2c46 150 158 229 274 229c128 0 200 -83 200 -227c0 -138 -76 -254 -292 -254h-403zM238 73h183c148 0 188 80 188 174c0 99 -39 161 -122 161c-137 0 -233 -174 -249 -335z" />
    <glyph glyph-name="uniFEC2" unicode="&#x637;" horiz-adv-x="779" arabic-form="final" 
d="M9 0v73h138v632h92v-274c0 -54 -3 -123 -11 -179h2c46 150 158 229 274 229c128 0 200 -83 200 -227c0 -70 -20 -135 -68 -181h143v-73h-351h-16h-403zM238 73h183c148 0 188 80 188 174c0 99 -39 161 -122 161c-137 0 -233 -174 -249 -335z" />
    <glyph glyph-name="uniFEC3" unicode="&#x637;" horiz-adv-x="745" arabic-form="initial" 
d="M394 0h-409c-20 0 -60 13 -60 37c0 22 40 36 60 36h144v632h92v-274c0 -54 -3 -123 -11 -179h2c46 150 158 229 274 229c128 0 200 -83 200 -227c0 -138 -76 -254 -292 -254zM220 73h184c147 0 187 80 187 174c0 99 -39 161 -122 161c-137 0 -233 -174 -249 -335z" />
    <glyph glyph-name="uniFEC4" unicode="&#x637;" horiz-adv-x="761" arabic-form="medial" 
d="M-15 0c-20 0 -60 13 -60 37c0 22 40 36 60 36h144v632h92v-274c0 -54 -3 -123 -11 -179h2c46 150 158 229 274 229c128 0 200 -83 200 -227c0 -70 -20 -135 -68 -181h143v-73h-351h-16h-409zM220 73h195c138 4 176 82 176 174c0 99 -39 161 -122 161
c-137 0 -233 -174 -249 -335z" />
    <glyph glyph-name="uni0638" unicode="&#x638;" horiz-adv-x="762" arabic-form="isolated" 
d="M9 0v73h138v632h92v-274c0 -54 -3 -123 -11 -179h2c46 150 158 229 274 229c128 0 200 -83 200 -227c0 -138 -76 -254 -292 -254h-403zM238 73h183c148 0 188 80 188 174c0 99 -39 161 -122 161c-137 0 -233 -174 -249 -335zM434 609c0 29 25 54 54 54
c30 0 55 -24 55 -54s-25 -55 -55 -55c-29 0 -54 25 -54 55z" />
    <glyph glyph-name="uniFEC6" unicode="&#x638;" horiz-adv-x="779" arabic-form="final" 
d="M9 0v73h138v632h92v-274c0 -54 -3 -123 -11 -179h2c46 150 158 229 274 229c128 0 200 -83 200 -227c0 -70 -20 -135 -68 -181h143v-73h-770zM238 73h183c148 0 188 80 188 174c0 99 -39 161 -122 161c-137 0 -233 -174 -249 -335zM434 609c0 29 25 54 54 54
c30 0 55 -24 55 -54s-25 -55 -55 -55c-29 0 -54 25 -54 55z" />
    <glyph glyph-name="uniFEC7" unicode="&#x638;" horiz-adv-x="745" arabic-form="initial" 
d="M394 0h-409c-20 0 -60 13 -60 37c0 22 40 36 60 36h144v632h92v-274c0 -54 -3 -123 -11 -179h2c46 150 158 229 274 229c128 0 200 -83 200 -227c0 -138 -76 -254 -292 -254zM220 73h184c147 0 187 80 187 174c0 99 -39 161 -122 161c-137 0 -233 -174 -249 -335z
M416 609c0 29 25 54 54 54c30 0 55 -24 55 -54s-25 -55 -55 -55c-29 0 -54 25 -54 55z" />
    <glyph glyph-name="uniFEC8" unicode="&#x638;" horiz-adv-x="761" arabic-form="medial" 
d="M394 0h-409c-20 0 -60 13 -60 37c0 22 40 36 60 36h144v632h92v-274c0 -54 -3 -123 -11 -179h2c46 150 158 229 274 229c128 0 200 -83 200 -227c0 -70 -20 -135 -68 -181h143v-73h-351h-16zM220 73h195c138 4 176 82 176 174c0 99 -39 161 -122 161
c-137 0 -233 -174 -249 -335zM416 609c0 29 25 54 54 54c30 0 55 -24 55 -54s-25 -55 -55 -55c-29 0 -54 25 -54 55z" />
    <glyph glyph-name="uni0639" unicode="&#x639;" horiz-adv-x="524" arabic-form="isolated" 
d="M319 -258c-195 0 -274 78 -274 171c0 90 77 155 201 213c-80 1 -159 60 -159 161c0 114 85 196 235 196c48 0 94 -11 94 -11l-13 -75s-43 14 -86 14c-81 0 -137 -51 -137 -120c0 -119 118 -139 210 -94l39 19l30 -64l-165 -81c-104 -51 -155 -93 -155 -150
c0 -60 52 -106 190 -106c76 0 157 14 157 14l6 -71s-89 -16 -173 -16z" />
    <glyph glyph-name="uniFECA" unicode="&#x639;" horiz-adv-x="633" arabic-form="final" 
d="M319 -258c-195 0 -274 78 -274 172c0 121 131 175 248 231c-63 61 -127 124 -219 154l7 64c78 59 189 120 289 120c136 0 193 -74 193 -155c0 -91 -62 -149 -138 -194c47 -36 98 -61 162 -61h46v-73h-59c-97 0 -164 41 -225 93c-106 -52 -210 -94 -210 -171
c0 -60 52 -107 190 -107c76 0 157 14 157 14l6 -71s-89 -16 -173 -16zM167 334c80 -31 140 -94 201 -151c59 35 103 74 103 133c0 54 -33 98 -110 98c-70 0 -150 -49 -194 -80z" />
    <glyph glyph-name="uniFECB" unicode="&#x639;" horiz-adv-x="558" arabic-form="initial" 
d="M517 0h-532c-20 0 -60 13 -60 37c0 22 40 36 60 36h199c-60 27 -107 93 -107 177c0 124 81 231 246 231c71 0 131 -22 131 -22l-17 -74s-55 24 -119 24c-88 0 -149 -58 -149 -155c0 -102 78 -181 266 -181h82v-73z" />
    <glyph glyph-name="uniFECC" unicode="&#x639;" horiz-adv-x="602" arabic-form="medial" 
d="M4 0h-19c-20 0 -60 13 -60 37c0 22 40 36 60 36h22c111 0 204 20 274 53c-70 66 -138 140 -239 173l8 64c77 59 188 120 289 120c136 0 192 -74 192 -155c0 -70 -42 -146 -120 -207c42 -29 88 -48 144 -48h47v-73h-59c-85 0 -148 31 -203 75c-86 -46 -199 -75 -336 -75z
M136 334c87 -33 150 -106 217 -166c56 43 87 96 87 148c0 54 -34 98 -111 98c-69 0 -149 -49 -193 -80z" />
    <glyph glyph-name="uni063A" unicode="&#x63a;" horiz-adv-x="524" arabic-form="isolated" 
d="M319 -258c-195 0 -274 78 -274 171c0 90 77 155 201 213c-80 1 -159 60 -159 161c0 114 85 196 235 196c48 0 94 -11 94 -11l-13 -75s-43 14 -86 14c-81 0 -137 -51 -137 -120c0 -119 118 -139 210 -94l39 19l30 -64l-165 -81c-104 -51 -155 -93 -155 -150
c0 -60 52 -106 190 -106c76 0 157 14 157 14l6 -71s-89 -16 -173 -16zM223 609c0 29 25 54 54 54c30 0 55 -24 55 -54s-25 -55 -55 -55c-29 0 -54 25 -54 55z" />
    <glyph glyph-name="uniFECE" unicode="&#x63a;" horiz-adv-x="633" arabic-form="final" 
d="M319 -258c-195 0 -274 78 -274 172c0 121 131 175 248 231c-63 61 -127 124 -219 154l7 64c78 59 189 120 289 120c136 0 193 -74 193 -155c0 -91 -62 -149 -138 -194c47 -36 98 -61 162 -61h46v-73h-59c-97 0 -164 41 -225 93c-106 -52 -210 -94 -210 -171
c0 -60 52 -107 190 -107c76 0 157 14 157 14l6 -71s-89 -16 -173 -16zM167 334c80 -31 140 -94 201 -151c59 35 103 74 103 133c0 54 -33 98 -110 98c-70 0 -150 -49 -194 -80zM297 609c0 29 25 54 54 54c30 0 55 -24 55 -54s-25 -55 -55 -55c-29 0 -54 25 -54 55z" />
    <glyph glyph-name="uniFECF" unicode="&#x63a;" horiz-adv-x="558" arabic-form="initial" 
d="M517 0h-532c-20 0 -60 13 -60 37c0 22 40 36 60 36h199c-60 27 -107 93 -107 177c0 124 81 231 246 231c71 0 131 -22 131 -22l-17 -74s-55 24 -119 24c-88 0 -149 -58 -149 -155c0 -102 78 -181 266 -181h82v-73zM247 609c0 29 25 54 54 54c30 0 55 -24 55 -54
s-25 -55 -55 -55c-29 0 -54 25 -54 55z" />
    <glyph glyph-name="uniFED0" unicode="&#x63a;" horiz-adv-x="602" arabic-form="medial" 
d="M4 0h-19c-20 0 -60 13 -60 37c0 22 40 36 60 36h22c111 0 204 20 274 53c-70 66 -138 140 -239 173l8 64c77 59 188 120 289 120c136 0 192 -74 192 -155c0 -70 -42 -146 -120 -207c42 -29 88 -48 144 -48h47v-73h-59c-85 0 -148 31 -203 75c-86 -46 -199 -75 -336 -75z
M136 334c87 -33 150 -106 217 -166c56 43 87 96 87 148c0 54 -34 98 -111 98c-69 0 -149 -49 -193 -80zM266 609c0 29 25 54 54 54c30 0 55 -24 55 -54s-25 -55 -55 -55c-29 0 -54 25 -54 55z" />
    <glyph glyph-name="uni0641" unicode="&#x641;" horiz-adv-x="939" arabic-form="isolated" 
d="M880 248c0 -140 -95 -248 -243 -248h-214c-252 0 -349 101 -349 291c0 61 14 127 32 167l99 16c-24 -47 -39 -116 -39 -172c0 -152 62 -229 259 -229h54c-42 30 -64 88 -64 164c0 136 92 244 242 244c127 0 223 -65 223 -233zM787 244c0 104 -46 164 -138 164
c-72 0 -141 -50 -141 -165c0 -110 50 -170 140 -170c75 0 139 53 139 171zM597 609c0 29 25 54 54 54c30 0 55 -24 55 -54s-25 -55 -55 -55c-29 0 -54 25 -54 55z" />
    <glyph glyph-name="uniFED2" unicode="&#x641;" horiz-adv-x="951" arabic-form="final" 
d="M951 73v-73h-528c-252 0 -349 101 -349 291c0 61 14 127 32 167l99 16c-24 -47 -39 -116 -39 -172c0 -152 62 -229 259 -229h54c-42 30 -64 88 -64 164c0 136 92 244 242 244c127 0 223 -65 223 -233c0 -71 -27 -141 -77 -178c0 0 50 3 86 3h62zM787 244
c0 104 -46 164 -138 164c-72 0 -141 -50 -141 -165c0 -110 50 -170 140 -170c75 0 139 53 139 171zM597 609c0 29 25 54 54 54c30 0 55 -24 55 -54s-25 -55 -55 -55c-29 0 -54 25 -54 55z" />
    <glyph glyph-name="uniFED3" unicode="&#x641;" horiz-adv-x="619" arabic-form="initial" 
d="M539 0h-554c-20 0 -60 13 -60 37c0 22 40 36 60 36h106c35 0 58 -5 58 -5c-49 31 -74 84 -74 169c0 129 85 244 250 244c143 0 214 -81 214 -224v-257zM449 73v169c0 119 -49 166 -132 166c-93 0 -149 -66 -149 -166c0 -114 54 -169 182 -169h99zM260 609
c0 29 25 54 54 54c30 0 55 -24 55 -54s-25 -55 -55 -55c-29 0 -54 25 -54 55z" />
    <glyph glyph-name="uniFED4" unicode="&#x641;" horiz-adv-x="608" arabic-form="medial" 
d="M608 0h-623c-20 0 -60 13 -60 37c0 22 40 36 60 36h82c34 0 71 -3 71 -3c-42 31 -66 87 -66 167c0 136 92 244 242 244c127 0 223 -65 223 -233c0 -71 -27 -141 -77 -178c0 0 50 3 87 3h61v-73zM306 73c74 0 138 53 138 171c0 104 -46 164 -138 164
c-72 0 -140 -50 -140 -164c0 -111 49 -171 140 -171zM254 611c0 29 25 54 54 54c30 0 55 -24 55 -54s-25 -55 -55 -55c-29 0 -54 25 -54 55z" />
    <glyph glyph-name="uni0642" unicode="&#x642;" horiz-adv-x="900" arabic-form="isolated" 
d="M802 446v-684s-164 -13 -302 -13c-308 0 -433 92 -433 303c0 62 8 127 24 186l95 18c-18 -66 -27 -134 -27 -194c0 -173 95 -240 354 -240c95 0 199 8 199 8v170h-100c-192 0 -263 91 -263 234c0 131 82 247 252 247c110 0 201 -35 201 -35zM712 73v312s-48 23 -121 23
c-92 0 -149 -66 -149 -165c0 -114 54 -170 183 -170h87zM468 610c0 29 23 52 52 52s52 -22 52 -52c0 -29 -22 -52 -52 -52s-52 23 -52 52zM613 610c0 29 23 52 52 52c28 0 52 -22 52 -52c0 -28 -23 -52 -52 -52s-52 23 -52 52z" />
    <glyph glyph-name="uniFED6" unicode="&#x642;" horiz-adv-x="932" arabic-form="final" 
d="M802 446v-373h130v-73h-130v-238s-164 -13 -302 -13c-308 0 -433 92 -433 303c0 62 8 127 24 186l95 18c-18 -66 -27 -134 -27 -194c0 -173 95 -240 354 -240c95 0 199 8 199 8v170h-100c-192 0 -263 91 -263 234c0 131 82 247 252 247c110 0 201 -35 201 -35zM712 73
v312s-48 23 -121 23c-92 0 -149 -66 -149 -165c0 -114 54 -170 183 -170h87zM468 610c0 29 23 52 52 52s52 -22 52 -52c0 -29 -22 -52 -52 -52s-52 23 -52 52zM613 610c0 29 23 52 52 52c28 0 52 -22 52 -52c0 -28 -23 -52 -52 -52s-52 23 -52 52z" />
    <glyph glyph-name="uniFED7" unicode="&#x642;" horiz-adv-x="619" arabic-form="initial" 
d="M539 0h-554c-20 0 -60 13 -60 37c0 22 40 36 60 36h106c35 0 58 -5 58 -5c-49 31 -74 84 -74 169c0 129 85 244 250 244c143 0 214 -81 214 -224v-257zM449 73v169c0 119 -49 166 -132 166c-93 0 -149 -66 -149 -166c0 -114 54 -169 182 -169h99zM190 610
c0 29 23 52 52 52s52 -22 52 -52c0 -29 -22 -52 -52 -52s-52 23 -52 52zM335 610c0 29 23 52 52 52c28 0 52 -22 52 -52c0 -28 -23 -52 -52 -52s-52 23 -52 52z" />
    <glyph glyph-name="uniFED8" unicode="&#x642;" horiz-adv-x="608" arabic-form="medial" 
d="M608 0h-623c-20 0 -60 13 -60 37c0 22 40 36 60 36h82c34 0 71 -3 71 -3c-42 31 -66 87 -66 167c0 136 92 244 242 244c127 0 223 -65 223 -233c0 -71 -27 -141 -77 -178c0 0 50 3 87 3h61v-73zM306 73c74 0 138 53 138 171c0 104 -46 164 -138 164
c-72 0 -140 -50 -140 -164c0 -111 49 -171 140 -171zM184 610c0 29 23 52 52 52s52 -22 52 -52c0 -29 -22 -52 -52 -52s-52 23 -52 52zM329 610c0 29 23 52 52 52c28 0 52 -22 52 -52c0 -28 -23 -52 -52 -52s-52 23 -52 52z" />
    <glyph glyph-name="uni0643" unicode="&#x643;" horiz-adv-x="865" arabic-form="isolated" 
d="M423 0c-252 0 -349 101 -349 291c0 61 14 127 32 167l99 16c-24 -47 -39 -116 -39 -172c0 -152 60 -229 269 -229h240v632h92v-705h-344zM323 407v55c27 0 54 -3 71 -6c-20 9 -31 31 -31 50c0 46 37 96 129 96c22 0 42 -3 54 -5l-10 -54c-9 1 -30 5 -50 5
c-38 0 -56 -17 -56 -41c0 -26 20 -45 79 -45h56v-55h-242z" />
    <glyph glyph-name="uniFEDA" unicode="&#x643;" horiz-adv-x="897" arabic-form="final" 
d="M423 0c-252 0 -349 101 -349 291c0 61 14 127 32 167l99 16c-24 -47 -39 -116 -39 -172c0 -152 60 -229 269 -229h240v632h92v-632h130v-73h-474zM323 407v55c27 0 54 -3 71 -6c-20 9 -31 31 -31 50c0 46 37 96 129 96c22 0 42 -3 54 -5l-10 -54c-9 1 -30 5 -50 5
c-38 0 -56 -17 -56 -41c0 -26 20 -45 79 -45h56v-55h-242z" />
    <glyph glyph-name="uniFEDB" unicode="&#x643;" horiz-adv-x="459" arabic-form="initial" 
d="M375 0h-390c-20 0 -60 13 -60 37c0 22 40 36 60 36h299c-3 196 -87 292 -262 342v68l379 238v-93l-272 -166c156 -65 246 -176 246 -411v-51z" />
    <glyph glyph-name="uniFEDC" unicode="&#x643;" horiz-adv-x="449" arabic-form="medial" 
d="M449 0h-464c-20 0 -60 13 -60 37c0 22 40 36 60 36h299c-3 196 -87 292 -262 342v68l379 238v-93l-272 -166c151 -63 240 -169 246 -389h74v-73z" />
    <glyph glyph-name="uni0644" unicode="&#x644;" horiz-adv-x="657" arabic-form="isolated" 
d="M467 51v654h92v-646c0 -205 -102 -290 -247 -290c-137 0 -245 74 -245 279c0 66 8 131 24 190l95 18c-18 -66 -27 -134 -27 -199c0 -171 83 -215 162 -215c81 0 146 50 146 209z" />
    <glyph glyph-name="uniFEDE" unicode="&#x644;" horiz-adv-x="682" arabic-form="final" 
d="M467 51v654h92v-632h122v-73h-125c-18 -162 -114 -231 -244 -231c-137 0 -245 74 -245 279c0 66 8 131 24 190l95 18c-18 -66 -27 -134 -27 -199c0 -171 83 -215 162 -215c81 0 146 50 146 209z" />
    <glyph glyph-name="uniFEDF" unicode="&#x644;" arabic-form="initial" 
d="M221 0h-236c-20 0 -60 13 -60 37c0 22 40 36 60 36h144v632h92v-705z" />
    <glyph glyph-name="uniFEE0" unicode="&#x644;" horiz-adv-x="351" arabic-form="medial" 
d="M351 0h-366c-20 0 -60 13 -60 37c0 22 40 36 60 36h144v632h92v-632h130v-73z" />
    <glyph glyph-name="uniFEE2" unicode="&#x645;" horiz-adv-x="645" arabic-form="final" 
d="M356 0c-107 0 -148 31 -177 71v-76c2 -138 -54 -258 -233 -258l3 73c134 0 140 111 140 184v222c0 160 90 265 249 265c143 0 214 -81 214 -224v-184h93v-73h-289zM461 73v169c0 119 -49 166 -132 166c-92 0 -149 -66 -149 -166c0 -114 54 -169 183 -169h98z" />
    <glyph glyph-name="uniFEE3" unicode="&#x645;" horiz-adv-x="619" arabic-form="initial" 
d="M539 0h-554c-20 0 -60 13 -60 37c0 22 40 36 60 36h106c35 0 58 -5 58 -5c-49 31 -74 84 -74 169c0 129 85 244 250 244c143 0 214 -81 214 -224v-257zM449 73v169c0 119 -49 166 -132 166c-93 0 -149 -66 -149 -166c0 -114 54 -169 182 -169h99z" />
    <glyph glyph-name="uniFEE4" unicode="&#x645;" horiz-adv-x="675" arabic-form="medial" 
d="M675 0h-289c-146 0 -198 38 -231 94c-15 -54 -61 -94 -144 -94h-26c-20 0 -60 13 -60 37c0 22 40 36 60 36h11c66 0 114 31 114 164c0 129 85 244 250 244c143 0 214 -81 214 -224v-184h101v-73zM484 73v169c0 119 -49 166 -132 166c-93 0 -149 -66 -149 -166
c0 -114 54 -169 182 -169h99z" />
    <glyph glyph-name="uni0646" unicode="&#x646;" horiz-adv-x="677" arabic-form="isolated" 
d="M579 470v-419c0 -188 -90 -282 -264 -282c-137 0 -248 74 -248 279c0 66 8 131 24 190l95 18c-18 -66 -27 -134 -27 -199c0 -171 86 -215 165 -215c96 0 163 50 163 203v425h92zM260 419c0 29 25 54 54 54c30 0 55 -24 55 -54s-25 -55 -55 -55c-29 0 -54 25 -54 55z" />
    <glyph glyph-name="uniFEE6" unicode="&#x646;" horiz-adv-x="709" arabic-form="final" 
d="M579 470v-397h129v-73h-132c-15 -154 -104 -231 -261 -231c-137 0 -248 74 -248 279c0 66 8 131 24 190l95 18c-18 -66 -27 -134 -27 -199c0 -171 86 -215 165 -215c96 0 163 50 163 203v425h92zM260 419c0 29 25 54 54 54c30 0 55 -24 55 -54s-25 -55 -55 -55
c-29 0 -54 25 -54 55z" />
    <glyph glyph-name="uniFEE7" unicode="&#x646;" arabic-form="initial" 
d="M221 0h-236c-20 0 -60 13 -60 37c0 22 40 36 60 36h144v397h92v-470zM121 609c0 29 25 54 54 54c30 0 55 -24 55 -54s-25 -55 -55 -55c-29 0 -54 25 -54 55z" />
    <glyph glyph-name="uniFEE8" unicode="&#x646;" horiz-adv-x="351" arabic-form="medial" 
d="M351 0h-366c-20 0 -60 13 -60 37c0 22 40 36 60 36h144v397h92v-397h130v-73zM121 609c0 29 25 54 54 54c30 0 55 -24 55 -54s-25 -55 -55 -55c-29 0 -54 25 -54 55z" />
    <glyph glyph-name="uni0647" unicode="&#x647;" horiz-adv-x="610" arabic-form="isolated" 
d="M530 0h-202c-192 0 -262 91 -262 233c0 133 84 248 250 248c143 0 214 -81 214 -224v-257zM440 73v169c0 119 -49 166 -132 166c-93 0 -149 -66 -149 -166c0 -114 54 -169 182 -169h99z" />
    <glyph glyph-name="uniFEEA" unicode="&#x647;" horiz-adv-x="648" arabic-form="final" 
d="M648 0h-320c-192 0 -262 91 -262 234c0 131 81 247 252 247c110 0 201 -35 201 -35v-373h129v-73zM429 73v312s-49 23 -121 23c-93 0 -149 -66 -149 -165c0 -114 53 -170 182 -170h88z" />
    <glyph glyph-name="uniFEEB" unicode="&#x647;" horiz-adv-x="764" arabic-form="initial" 
d="M686 0h-701c-20 0 -60 13 -60 37c0 22 40 36 60 36h124c21 0 39 -3 40 -3c-2 1 -39 30 -39 91c0 101 73 166 185 166c126 0 177 -92 177 -215v-39h125v20c0 248 -94 346 -299 346c-66 0 -149 -16 -213 -36l-10 72c69 21 157 36 235 36c241 0 376 -119 376 -418v-93z
M392 71v39c0 95 -31 150 -104 150c-62 0 -97 -35 -97 -90c0 -70 52 -99 112 -99h89z" />
    <glyph glyph-name="uniFEEC" unicode="&#x647;" horiz-adv-x="758" arabic-form="medial" 
d="M758 0h-773c-20 0 -60 13 -60 37c0 22 40 36 60 36h124c21 0 39 -3 40 -3c-2 1 -39 30 -39 91c0 101 73 166 185 166c126 0 177 -92 177 -215v-39h125v20c0 248 -94 346 -299 346c-66 0 -149 -16 -213 -36l-10 72c69 21 157 36 235 36c241 0 376 -119 376 -418v-20h72
v-73zM392 71v39c0 95 -31 150 -104 150c-62 0 -97 -35 -97 -90c0 -70 52 -99 112 -99h89z" />
    <glyph glyph-name="uni0648" unicode="&#x648;" horiz-adv-x="617" arabic-form="isolated" 
d="M228 -253c-77 0 -156 15 -156 15l6 78s84 -20 160 -20c109 0 191 41 191 156v24h-101c-192 0 -262 91 -262 234c0 131 81 247 252 247c110 0 201 -35 201 -35v-465c0 -117 -76 -234 -291 -234zM429 73v312s-49 23 -121 23c-93 0 -149 -66 -149 -165
c0 -114 53 -170 182 -170h88z" />
    <glyph glyph-name="uniFEEE" unicode="&#x648;" horiz-adv-x="648" arabic-form="final" 
d="M228 -253c-77 0 -156 15 -156 15l6 78s84 -20 160 -20c109 0 191 41 191 156v24h-101c-192 0 -262 91 -262 234c0 131 81 247 252 247c110 0 201 -35 201 -35v-373h129v-73h-129v-19c0 -117 -76 -234 -291 -234zM429 73v312s-49 23 -121 23c-93 0 -149 -66 -149 -165
c0 -114 53 -170 182 -170h88z" />
    <glyph glyph-name="uni0649" unicode="&#x649;" horiz-adv-x="1001" arabic-form="isolated" 
d="M610 0h-187c-252 0 -349 101 -349 291c0 61 14 127 32 167l99 16c-24 -47 -39 -116 -39 -172c0 -152 60 -229 269 -229h86v389s87 19 182 19c167 0 223 -81 223 -218v-143h-90v131c0 113 -41 157 -142 157c-41 0 -84 -8 -84 -8v-400z" />
    <glyph glyph-name="uniFEF0" unicode="&#x649;" horiz-adv-x="1027" arabic-form="final" 
d="M610 0h-187c-252 0 -349 101 -349 291c0 61 14 127 32 167l99 16c-24 -47 -39 -116 -39 -172c0 -152 60 -229 269 -229h86v389s87 19 182 19c167 0 223 -81 223 -218v-190h101v-73h-191v251c0 113 -41 157 -142 157c-41 0 -84 -8 -84 -8v-400z" />
    <glyph glyph-name="uniFBE8" unicode="&#x649;" arabic-form="initial" 
d="M221 0h-236c-20 0 -60 13 -60 37c0 22 40 36 60 36h144v397h92v-470z" />
    <glyph glyph-name="uniFBE9" unicode="&#x649;" horiz-adv-x="351" arabic-form="medial" 
d="M351 0h-366c-20 0 -60 13 -60 37c0 22 40 36 60 36h144v397h92v-397h130v-73z" />
    <glyph glyph-name="uni064A" unicode="&#x64a;" horiz-adv-x="1001" arabic-form="isolated" 
d="M610 0h-187c-252 0 -349 101 -349 291c0 61 14 127 32 167l99 16c-24 -47 -39 -116 -39 -172c0 -152 60 -229 269 -229h86v389s87 19 182 19c167 0 223 -81 223 -218v-143h-90v131c0 113 -41 157 -142 157c-41 0 -84 -8 -84 -8v-400zM276 -144c0 29 23 53 52 53
s52 -23 52 -53c0 -28 -23 -52 -52 -52s-52 24 -52 52zM421 -144c0 29 23 53 52 53c28 0 52 -23 52 -53c0 -28 -23 -52 -52 -52s-52 24 -52 52z" />
    <glyph glyph-name="uniFEF2" unicode="&#x64a;" horiz-adv-x="1027" arabic-form="final" 
d="M610 0h-187c-252 0 -349 101 -349 291c0 61 14 127 32 167l99 16c-24 -47 -39 -116 -39 -172c0 -152 60 -229 269 -229h86v389s87 19 182 19c167 0 223 -81 223 -218v-190h101v-73h-191v251c0 113 -41 157 -142 157c-41 0 -84 -8 -84 -8v-400zM276 -144c0 29 23 53 52 53
s52 -23 52 -53c0 -28 -23 -52 -52 -52s-52 24 -52 52zM421 -144c0 29 23 53 52 53c28 0 52 -23 52 -53c0 -28 -23 -52 -52 -52s-52 24 -52 52z" />
    <glyph glyph-name="uniFEF3" unicode="&#x64a;" arabic-form="initial" 
d="M221 0h-236c-20 0 -60 13 -60 37c0 22 40 36 60 36h144v397h92v-470zM48 -144c0 29 23 53 52 53s52 -23 52 -53c0 -28 -23 -52 -52 -52s-52 24 -52 52zM193 -144c0 29 23 53 52 53c28 0 52 -23 52 -53c0 -28 -23 -52 -52 -52s-52 24 -52 52z" />
    <glyph glyph-name="uniFEF4" unicode="&#x64a;" horiz-adv-x="351" arabic-form="medial" 
d="M-15 0c-20 0 -60 13 -60 37c0 22 40 36 60 36h144v397h92v-397h130v-73h-366zM50 -144c0 29 23 53 52 53s52 -23 52 -53c0 -28 -23 -52 -52 -52s-52 24 -52 52zM195 -144c0 29 23 53 52 53c28 0 52 -23 52 -53c0 -28 -23 -52 -52 -52s-52 24 -52 52z" />
    <glyph glyph-name="uni0671" unicode="&#x671;" horiz-adv-x="295" arabic-form="isolated" 
d="M112 0v588c-23 4 -52 8 -79 10v54c52 6 111 10 171 8v-660h-92zM92 794h127v12c0 53 -14 69 -41 69c-37 0 -70 -34 -86 -81zM-16 748v46h51c30 82 86 126 149 126c59 0 94 -27 94 -115v-57h-294z" />
    <glyph glyph-name="uniFB51" unicode="&#x671;" horiz-adv-x="333" arabic-form="final" 
d="M112 0v588c-23 4 -52 8 -79 10v54c52 6 111 10 171 8v-587h129v-73h-221zM-17 748v46h51c30 82 86 126 149 126c59 0 94 -27 94 -115v-57h-294zM91 794h127v12c0 53 -14 69 -41 69c-37 0 -70 -34 -86 -81z" />
    <glyph glyph-name="uni0679" unicode="&#x679;" horiz-adv-x="795" arabic-form="isolated" 
d="M697 0h-274c-252 0 -349 101 -349 291c0 61 14 127 32 167l99 16c-24 -47 -39 -116 -39 -172c0 -152 60 -229 269 -229h170v397h92v-470zM505 660c0 31 -11 53 -41 53c-51 0 -102 -64 -109 -118h71c56 0 79 26 79 65zM355 828v-82c0 -19 -3 -42 -7 -62h1
c25 44 72 77 122 77c60 0 94 -35 94 -94c0 -72 -49 -119 -148 -119h-120v280h58z" />
    <glyph glyph-name="uniFB67" unicode="&#x679;" horiz-adv-x="826" arabic-form="final" 
d="M826 0h-403c-252 0 -349 101 -349 291c0 61 14 127 32 167l99 16c-24 -47 -39 -116 -39 -172c0 -152 60 -229 269 -229h170v397h92v-397h129v-73zM355 828v-82c0 -19 -3 -42 -7 -62h1c25 44 72 77 122 77c60 0 94 -35 94 -94c0 -72 -49 -119 -148 -119h-120v280h58z
M505 660c0 31 -11 53 -41 53c-51 0 -102 -64 -109 -118h71c56 0 79 26 79 65z" />
    <glyph glyph-name="uniFB68" unicode="&#x679;" arabic-form="initial" 
d="M221 0h-236c-20 0 -60 13 -60 37c0 22 40 36 60 36h144v397h92v-470zM249 690c0 31 -11 53 -41 53c-51 0 -102 -64 -109 -118h71c56 0 79 26 79 65zM99 858v-82c0 -19 -3 -42 -7 -62h1c25 44 72 77 122 77c60 0 94 -35 94 -94c0 -72 -49 -119 -148 -119h-120v280h58z" />
    <glyph glyph-name="uniFB69" unicode="&#x679;" horiz-adv-x="351" arabic-form="medial" 
d="M351 0h-366c-20 0 -60 13 -60 37c0 22 40 36 60 36h144v397h92v-397h130v-73zM106 858v-82c0 -19 -3 -42 -7 -62h1c25 44 72 77 122 77c60 0 94 -35 94 -94c0 -72 -49 -119 -148 -119h-120v280h58zM256 690c0 31 -11 53 -41 53c-51 0 -102 -64 -109 -118h71
c56 0 79 26 79 65z" />
    <glyph glyph-name="uni067E" unicode="&#x67e;" horiz-adv-x="795" arabic-form="isolated" 
d="M697 0h-274c-252 0 -349 101 -349 291c0 61 14 127 32 167l99 16c-24 -47 -39 -116 -39 -172c0 -152 60 -229 269 -229h170v397h92v-470zM374 -219c0 29 23 52 52 52c28 0 52 -22 52 -52c0 -28 -24 -52 -52 -52c-29 0 -52 23 -52 52zM446 -108c0 28 23 51 51 51
c29 0 52 -22 52 -51c0 -28 -23 -51 -52 -51c-28 0 -51 22 -51 51zM303 -108c0 28 24 51 52 51s51 -22 51 -51c0 -28 -23 -51 -51 -51c-29 0 -52 22 -52 51z" />
    <glyph glyph-name="uniFB57" unicode="&#x67e;" horiz-adv-x="826" arabic-form="final" 
d="M826 0h-403c-252 0 -349 101 -349 291c0 61 14 127 32 167l99 16c-24 -47 -39 -116 -39 -172c0 -152 60 -229 269 -229h170v397h92v-397h129v-73zM374 -219c0 29 23 52 52 52c28 0 52 -22 52 -52c0 -28 -24 -52 -52 -52c-29 0 -52 23 -52 52zM446 -108c0 28 23 51 51 51
c29 0 52 -22 52 -51c0 -28 -23 -51 -52 -51c-28 0 -51 22 -51 51zM303 -108c0 28 24 51 52 51s51 -22 51 -51c0 -28 -23 -51 -51 -51c-29 0 -52 22 -52 51z" />
    <glyph glyph-name="uniFB58" unicode="&#x67e;" arabic-form="initial" 
d="M221 0h-236c-20 0 -60 13 -60 37c0 22 40 36 60 36h144v397h92v-470zM119 -219c0 29 23 52 52 52c28 0 52 -22 52 -52c0 -28 -24 -52 -52 -52c-29 0 -52 23 -52 52zM191 -108c0 28 23 51 51 51c29 0 52 -22 52 -51c0 -28 -23 -51 -52 -51c-28 0 -51 22 -51 51zM48 -108
c0 28 24 51 52 51s51 -22 51 -51c0 -28 -23 -51 -51 -51c-29 0 -52 22 -52 51z" />
    <glyph glyph-name="uniFB59" unicode="&#x67e;" horiz-adv-x="351" arabic-form="medial" 
d="M-15 0c-20 0 -60 13 -60 37c0 22 40 36 60 36h144v397h92v-397h130v-73h-366zM123 -219c0 29 23 52 52 52c28 0 52 -22 52 -52c0 -28 -24 -52 -52 -52c-29 0 -52 23 -52 52zM195 -108c0 28 23 51 51 51c29 0 52 -22 52 -51c0 -28 -23 -51 -52 -51c-28 0 -51 22 -51 51z
M52 -108c0 28 24 51 52 51s51 -22 51 -51c0 -28 -23 -51 -51 -51c-29 0 -52 22 -52 51z" />
    <glyph glyph-name="uni0686" unicode="&#x686;" horiz-adv-x="626" arabic-form="isolated" 
d="M535 0h-194c-169 0 -212 -55 -212 -126c0 -60 44 -103 127 -116l-19 -75c-122 18 -200 84 -200 184c0 118 82 206 309 206h107c5 35 7 70 7 103c0 151 -55 225 -219 225c-40 0 -74 -2 -111 -7v72c33 4 76 8 119 8c221 0 303 -101 303 -292c0 -48 -5 -110 -17 -182z
M344 -219c0 29 23 52 52 52c28 0 52 -22 52 -52c0 -28 -24 -52 -52 -52c-29 0 -52 23 -52 52zM416 -108c0 28 23 51 51 51c29 0 52 -22 52 -51c0 -28 -23 -51 -52 -51c-28 0 -51 22 -51 51zM273 -108c0 28 24 51 52 51s51 -22 51 -51c0 -28 -23 -51 -51 -51
c-29 0 -52 22 -52 51z" />
    <glyph glyph-name="uniFB7B" unicode="&#x686;" horiz-adv-x="623" arabic-form="final" 
d="M623 0h-282c-169 0 -212 -55 -212 -126c0 -60 44 -103 127 -116l-19 -75c-122 18 -200 84 -200 184c0 118 82 206 309 206h107c5 35 7 70 7 103c0 151 -55 225 -219 225c-40 0 -74 -2 -111 -7v72c33 4 76 8 119 8c221 0 303 -101 303 -292c0 -31 -3 -68 -7 -109h78v-73z
M344 -219c0 29 23 52 52 52c28 0 52 -22 52 -52c0 -28 -24 -52 -52 -52c-29 0 -52 23 -52 52zM416 -108c0 28 23 51 51 51c29 0 52 -22 52 -51c0 -28 -23 -51 -52 -51c-28 0 -51 22 -51 51zM273 -108c0 28 24 51 52 51s51 -22 51 -51c0 -28 -23 -51 -51 -51
c-29 0 -52 22 -52 51z" />
    <glyph glyph-name="uniFB7C" unicode="&#x686;" horiz-adv-x="531" arabic-form="initial" 
d="M440 0h-455c-20 0 -60 13 -60 37c0 22 40 36 60 36h373c5 35 7 70 7 103c0 151 -55 225 -218 225c-39 0 -83 -4 -120 -10v72c33 6 84 11 127 11c221 0 303 -101 303 -292c0 -48 -5 -110 -17 -182zM157 -219c0 29 23 52 52 52c28 0 52 -22 52 -52c0 -28 -24 -52 -52 -52
c-29 0 -52 23 -52 52zM229 -108c0 28 23 51 51 51c29 0 52 -22 52 -51c0 -28 -23 -51 -52 -51c-28 0 -51 22 -51 51zM86 -108c0 28 24 51 52 51s51 -22 51 -51c0 -28 -23 -51 -51 -51c-29 0 -52 22 -52 51z" />
    <glyph glyph-name="uniFB7D" unicode="&#x686;" horiz-adv-x="528" arabic-form="medial" 
d="M-15 0c-20 0 -60 13 -60 37c0 22 40 36 60 36h373c5 35 7 70 7 103c0 151 -55 225 -218 225c-39 0 -83 -4 -120 -10v72c33 6 84 11 127 11c221 0 303 -101 303 -292c0 -31 -3 -68 -7 -109h78v-73h-543zM157 -219c0 29 23 52 52 52c28 0 52 -22 52 -52
c0 -28 -24 -52 -52 -52c-29 0 -52 23 -52 52zM229 -108c0 28 23 51 51 51c29 0 52 -22 52 -51c0 -28 -23 -51 -52 -51c-28 0 -51 22 -51 51zM86 -108c0 28 24 51 52 51s51 -22 51 -51c0 -28 -23 -51 -51 -51c-29 0 -52 22 -52 51z" />
    <glyph glyph-name="uni0688" unicode="&#x688;" horiz-adv-x="543" arabic-form="isolated" 
d="M57 0v73h320c-3 184 -75 285 -252 339l24 77c217 -66 319 -188 319 -439v-50h-411zM327 690c0 31 -11 53 -41 53c-51 0 -102 -64 -109 -118h71c56 0 79 26 79 65zM177 858v-82c0 -19 -3 -42 -7 -62h1c25 44 72 77 122 77c60 0 94 -35 94 -94c0 -72 -49 -119 -148 -119
h-120v280h58z" />
    <glyph glyph-name="uniFB89" unicode="&#x688;" horiz-adv-x="536" arabic-form="final" 
d="M57 0v73h320c-3 184 -75 285 -252 339l24 77c210 -64 313 -181 319 -416h68v-73h-479zM177 858v-82c0 -19 -3 -42 -7 -62h1c25 44 72 77 122 77c60 0 94 -35 94 -94c0 -72 -49 -119 -148 -119h-120v280h58zM327 690c0 31 -11 53 -41 53c-51 0 -102 -64 -109 -118h71
c56 0 79 26 79 65z" />
    <glyph glyph-name="uni0691" unicode="&#x691;" horiz-adv-x="420" arabic-form="isolated" 
d="M90 -257c-37 0 -75 6 -104 15l10 75c31 -10 64 -17 101 -17c83 0 133 40 133 171v483h92v-475c0 -142 -52 -252 -232 -252zM349 690c0 31 -11 53 -41 53c-51 0 -102 -64 -109 -118h71c56 0 79 26 79 65zM199 858v-82c0 -19 -3 -42 -7 -62h1c25 44 72 77 122 77
c60 0 94 -35 94 -94c0 -72 -49 -119 -148 -119h-120v280h58z" />
    <glyph glyph-name="uniFB8D" unicode="&#x691;" horiz-adv-x="451" arabic-form="final" 
d="M90 -257c-37 0 -75 6 -104 15l10 75c31 -10 64 -17 101 -17c83 0 133 40 133 171v483h92v-397h129v-73h-129v-5c0 -142 -52 -252 -232 -252zM199 858v-82c0 -19 -3 -42 -7 -62h1c25 44 72 77 122 77c60 0 94 -35 94 -94c0 -72 -49 -119 -148 -119h-120v280h58zM349 690
c0 31 -11 53 -41 53c-51 0 -102 -64 -109 -118h71c56 0 79 26 79 65z" />
    <glyph glyph-name="uni0698" unicode="&#x698;" horiz-adv-x="420" arabic-form="isolated" 
d="M90 -257c-37 0 -75 6 -104 15l10 75c31 -10 64 -17 101 -17c83 0 133 40 133 171v483h92v-475c0 -142 -52 -252 -232 -252zM146 608c0 28 23 52 52 52s52 -23 52 -52s-23 -53 -52 -53s-52 23 -52 53zM293 608c0 28 24 52 52 52c29 0 53 -23 53 -52s-24 -53 -53 -53
c-28 0 -52 23 -52 53zM220 721c0 29 23 53 52 53s52 -23 52 -53c0 -28 -23 -52 -52 -52s-52 23 -52 52z" />
    <glyph glyph-name="uniFB8B" unicode="&#x698;" horiz-adv-x="451" arabic-form="final" 
d="M90 -257c-37 0 -75 6 -104 15l10 75c31 -10 64 -17 101 -17c83 0 133 40 133 171v483h92v-397h129v-73h-129v-5c0 -142 -52 -252 -232 -252zM294 608c0 28 24 52 52 52c29 0 53 -23 53 -52s-24 -53 -53 -53c-28 0 -52 23 -52 53zM221 721c0 29 23 53 52 53s52 -23 52 -53
c0 -28 -23 -52 -52 -52s-52 23 -52 52zM147 608c0 28 23 52 52 52s52 -23 52 -52s-23 -53 -52 -53s-52 23 -52 53z" />
    <glyph glyph-name="uni06A4" unicode="&#x6a4;" horiz-adv-x="939" arabic-form="isolated" 
d="M880 248c0 -140 -95 -248 -243 -248h-214c-252 0 -349 101 -349 291c0 61 14 127 32 167l99 16c-24 -47 -39 -116 -39 -172c0 -152 62 -229 259 -229h54c-42 30 -64 88 -64 164c0 136 92 244 242 244c127 0 223 -65 223 -233zM787 244c0 104 -46 164 -138 164
c-72 0 -141 -50 -141 -165c0 -110 50 -170 140 -170c75 0 139 53 139 171zM526 608c0 28 23 52 52 52s52 -23 52 -52s-23 -53 -52 -53s-52 23 -52 53zM673 608c0 28 24 52 52 52c29 0 53 -23 53 -52s-24 -53 -53 -53c-28 0 -52 23 -52 53zM600 721c0 29 23 53 52 53
s52 -23 52 -53c0 -28 -23 -52 -52 -52s-52 23 -52 52z" />
    <glyph glyph-name="uniFB6B" unicode="&#x6a4;" horiz-adv-x="951" arabic-form="final" 
d="M951 73v-73h-528c-252 0 -349 101 -349 291c0 61 14 127 32 167l99 16c-24 -47 -39 -116 -39 -172c0 -152 62 -229 259 -229h54c-42 30 -64 88 -64 164c0 136 92 244 242 244c127 0 223 -65 223 -233c0 -71 -27 -141 -77 -178c0 0 50 3 86 3h62zM787 244
c0 104 -46 164 -138 164c-72 0 -141 -50 -141 -165c0 -110 50 -170 140 -170c75 0 139 53 139 171zM526 608c0 28 23 52 52 52s52 -23 52 -52s-23 -53 -52 -53s-52 23 -52 53zM673 608c0 28 24 52 52 52c29 0 53 -23 53 -52s-24 -53 -53 -53c-28 0 -52 23 -52 53zM600 721
c0 29 23 53 52 53s52 -23 52 -53c0 -28 -23 -52 -52 -52s-52 23 -52 52z" />
    <glyph glyph-name="uniFB6C" unicode="&#x6a4;" horiz-adv-x="619" arabic-form="initial" 
d="M539 0h-554c-20 0 -60 13 -60 37c0 22 40 36 60 36h106c35 0 58 -5 58 -5c-49 31 -74 84 -74 169c0 129 85 244 250 244c143 0 214 -81 214 -224v-257zM449 73v169c0 119 -49 166 -132 166c-93 0 -149 -66 -149 -166c0 -114 54 -169 182 -169h99zM189 608
c0 28 23 52 52 52s52 -23 52 -52s-23 -53 -52 -53s-52 23 -52 53zM336 608c0 28 24 52 52 52c29 0 53 -23 53 -52s-24 -53 -53 -53c-28 0 -52 23 -52 53zM263 721c0 29 23 53 52 53s52 -23 52 -53c0 -28 -23 -52 -52 -52s-52 23 -52 52z" />
    <glyph glyph-name="uniFB6D" unicode="&#x6a4;" horiz-adv-x="608" arabic-form="medial" 
d="M608 0h-623c-20 0 -60 13 -60 37c0 22 40 36 60 36h82c34 0 71 -3 71 -3c-42 31 -66 87 -66 167c0 136 92 244 242 244c127 0 223 -65 223 -233c0 -71 -27 -141 -77 -178c0 0 50 3 87 3h61v-73zM306 73c74 0 138 53 138 171c0 104 -46 164 -138 164
c-72 0 -140 -50 -140 -164c0 -111 49 -171 140 -171zM183 608c0 28 23 52 52 52s52 -23 52 -52s-23 -53 -52 -53s-52 23 -52 53zM330 608c0 28 24 52 52 52c29 0 53 -23 53 -52s-24 -53 -53 -53c-28 0 -52 23 -52 53zM257 721c0 29 23 53 52 53s52 -23 52 -53
c0 -28 -23 -52 -52 -52s-52 23 -52 52z" />
    <glyph glyph-name="uni06A9" unicode="&#x6a9;" horiz-adv-x="866" arabic-form="isolated" 
d="M781 0h-358c-252 0 -349 101 -349 291c0 61 14 127 32 167l99 16c-24 -47 -39 -116 -39 -172c0 -152 60 -229 269 -229h255c-3 196 -87 292 -262 342v68l379 238v-93l-272 -166c155 -65 246 -176 246 -411v-51z" />
    <glyph glyph-name="uniFB8F" unicode="&#x6a9;" horiz-adv-x="856" arabic-form="final" 
d="M423 0c-252 0 -349 101 -349 291c0 61 14 127 32 167l99 16c-24 -47 -39 -116 -39 -172c0 -152 60 -229 269 -229h255c-3 196 -87 292 -262 342v68l379 238v-93l-272 -166c150 -63 240 -169 246 -389h74v-73h-432z" />
    <glyph glyph-name="uniFB90" unicode="&#x6a9;" horiz-adv-x="459" arabic-form="initial" 
d="M375 0h-390c-20 0 -60 13 -60 37c0 22 40 36 60 36h299c-3 196 -87 292 -262 342v68l379 238v-93l-272 -166c156 -65 246 -176 246 -411v-51z" />
    <glyph glyph-name="uniFB91" unicode="&#x6a9;" horiz-adv-x="449" arabic-form="medial" 
d="M449 0h-464c-20 0 -60 13 -60 37c0 22 40 36 60 36h299c-3 196 -87 292 -262 342v68l379 238v-93l-272 -166c151 -63 240 -169 246 -389h74v-73z" />
    <glyph glyph-name="uni06AF" unicode="&#x6af;" horiz-adv-x="866" arabic-form="isolated" 
d="M781 0h-358c-252 0 -349 101 -349 291c0 61 14 127 32 167l99 16c-24 -47 -39 -116 -39 -172c0 -152 60 -229 269 -229h255c-3 196 -87 292 -262 342v64l379 238v-89l-272 -166c155 -65 246 -176 246 -411v-51zM428 566v83l379 239v-84z" />
    <glyph glyph-name="uniFB93" unicode="&#x6af;" horiz-adv-x="856" arabic-form="final" 
d="M423 0c-252 0 -349 101 -349 291c0 61 14 127 32 167l99 16c-24 -47 -39 -116 -39 -172c0 -152 60 -229 269 -229h255c-3 196 -87 292 -262 342v64l379 238v-89l-272 -166c150 -63 240 -169 246 -389h74v-73h-432zM428 566v83l379 239v-84z" />
    <glyph glyph-name="uniFB94" unicode="&#x6af;" horiz-adv-x="459" arabic-form="initial" 
d="M375 0h-390c-20 0 -60 13 -60 37c0 22 40 36 60 36h299c-3 196 -87 292 -262 342v64l379 238v-89l-272 -166c156 -65 246 -176 246 -411v-51zM22 541v83l379 238v-84z" />
    <glyph glyph-name="uniFB95" unicode="&#x6af;" horiz-adv-x="449" arabic-form="medial" 
d="M449 0h-464c-20 0 -60 13 -60 37c0 22 40 36 60 36h299c-3 196 -87 292 -262 342v64l379 238v-89l-272 -166c151 -63 240 -169 246 -389h74v-73zM22 541v83l379 238v-84z" />
    <glyph glyph-name="uni06BA" unicode="&#x6ba;" horiz-adv-x="677" arabic-form="isolated" 
d="M579 470v-419c0 -188 -90 -282 -264 -282c-137 0 -248 74 -248 279c0 66 8 131 24 190l95 18c-18 -66 -27 -134 -27 -199c0 -171 86 -215 165 -215c96 0 163 50 163 203v425h92z" />
    <glyph glyph-name="uniFB9F" unicode="&#x6ba;" horiz-adv-x="709" arabic-form="final" 
d="M579 470v-397h129v-73h-132c-15 -154 -104 -231 -261 -231c-137 0 -248 74 -248 279c0 66 8 131 24 190l95 18c-18 -66 -27 -134 -27 -199c0 -171 86 -215 165 -215c96 0 163 50 163 203v425h92z" />
    <glyph glyph-name="uni06BE" unicode="&#x6be;" horiz-adv-x="799" arabic-form="isolated" 
d="M722 0h-692v73h115c21 0 38 -3 39 -3c-2 1 -38 30 -38 91c0 102 73 166 185 166c125 0 176 -92 176 -215v-39h126v20c0 248 -94 346 -300 346c-65 0 -148 -16 -212 -36l-10 72c68 21 157 36 235 36c241 0 376 -119 376 -418v-93zM427 71v39c0 95 -31 150 -103 150
c-62 0 -98 -35 -98 -90c0 -70 52 -99 113 -99h88z" />
    <glyph glyph-name="uniFBAB" unicode="&#x6be;" horiz-adv-x="794" arabic-form="final" 
d="M793 0h-763v73h115c21 0 38 -3 39 -3c-2 1 -38 30 -38 91c0 102 73 166 185 166c125 0 176 -92 176 -215v-39h126v20c0 248 -94 346 -300 346c-65 0 -148 -16 -212 -36l-10 72c68 21 157 36 235 36c241 0 376 -119 376 -418v-20h71v-73zM427 71v39c0 95 -31 150 -103 150
c-62 0 -98 -35 -98 -90c0 -70 52 -99 113 -99h88z" />
    <glyph glyph-name="uniFBAC" unicode="&#x6be;" horiz-adv-x="764" arabic-form="initial" 
d="M686 0h-701c-20 0 -60 13 -60 37c0 22 40 36 60 36h124c21 0 39 -3 40 -3c-2 1 -39 30 -39 91c0 101 73 166 185 166c126 0 177 -92 177 -215v-39h125v20c0 248 -94 346 -299 346c-66 0 -149 -16 -213 -36l-10 72c69 21 157 36 235 36c241 0 376 -119 376 -418v-93z
M392 71v39c0 95 -31 150 -104 150c-62 0 -97 -35 -97 -90c0 -70 52 -99 112 -99h89z" />
    <glyph glyph-name="uniFBAD" unicode="&#x6be;" horiz-adv-x="758" arabic-form="medial" 
d="M758 0h-773c-20 0 -60 13 -60 37c0 22 40 36 60 36h124c21 0 39 -3 40 -3c-2 1 -39 30 -39 91c0 101 73 166 185 166c126 0 177 -92 177 -215v-39h125v20c0 248 -94 346 -299 346c-66 0 -149 -16 -213 -36l-10 72c69 21 157 36 235 36c241 0 376 -119 376 -418v-20h72
v-73zM392 71v39c0 95 -31 150 -104 150c-62 0 -97 -35 -97 -90c0 -70 52 -99 112 -99h89z" />
    <glyph glyph-name="uni06C0" unicode="&#x6c0;" horiz-adv-x="610" arabic-form="isolated" 
d="M530 0h-202c-192 0 -262 91 -262 233c0 133 84 248 250 248c143 0 214 -81 214 -224v-257zM440 73v169c0 119 -49 166 -132 166c-93 0 -149 -66 -149 -166c0 -114 54 -169 182 -169h99zM167 564v55c27 0 54 -3 71 -6c-20 9 -31 31 -31 50c0 46 37 96 129 96
c22 0 42 -3 54 -5l-10 -54c-9 1 -30 5 -50 5c-38 0 -56 -17 -56 -41c0 -26 20 -45 79 -45h56v-55h-242z" />
    <glyph glyph-name="uniFBA5" unicode="&#x6c0;" horiz-adv-x="648" arabic-form="final" 
d="M648 0h-320c-192 0 -262 91 -262 234c0 131 81 247 252 247c110 0 201 -35 201 -35v-373h129v-73zM429 73v312s-49 23 -121 23c-93 0 -149 -66 -149 -165c0 -114 53 -170 182 -170h88zM174 564v55c27 0 54 -3 71 -6c-20 9 -31 31 -31 50c0 46 37 96 129 96
c22 0 42 -3 54 -5l-10 -54c-9 1 -30 5 -50 5c-38 0 -56 -17 -56 -41c0 -26 20 -45 79 -45h56v-55h-242z" />
    <glyph glyph-name="uni06CC" unicode="&#x6cc;" horiz-adv-x="1001" arabic-form="isolated" 
d="M610 0h-187c-252 0 -349 101 -349 291c0 61 14 127 32 167l99 16c-24 -47 -39 -116 -39 -172c0 -152 60 -229 269 -229h86v389s87 19 182 19c167 0 223 -81 223 -218v-143h-90v131c0 113 -41 157 -142 157c-41 0 -84 -8 -84 -8v-400z" />
    <glyph glyph-name="uniFBFD" unicode="&#x6cc;" horiz-adv-x="1027" arabic-form="final" 
d="M610 0h-187c-252 0 -349 101 -349 291c0 61 14 127 32 167l99 16c-24 -47 -39 -116 -39 -172c0 -152 60 -229 269 -229h86v389s87 19 182 19c167 0 223 -81 223 -218v-190h101v-73h-191v251c0 113 -41 157 -142 157c-41 0 -84 -8 -84 -8v-400z" />
    <glyph glyph-name="uniFBFE" unicode="&#x6cc;" arabic-form="initial" 
d="M221 0h-236c-20 0 -60 13 -60 37c0 22 40 36 60 36h144v397h92v-470zM48 -144c0 29 23 53 52 53s52 -23 52 -53c0 -28 -23 -52 -52 -52s-52 24 -52 52zM193 -144c0 29 23 53 52 53c28 0 52 -23 52 -53c0 -28 -23 -52 -52 -52s-52 24 -52 52z" />
    <glyph glyph-name="uniFBFF" unicode="&#x6cc;" horiz-adv-x="351" arabic-form="medial" 
d="M-15 0c-20 0 -60 13 -60 37c0 22 40 36 60 36h144v397h92v-397h130v-73h-366zM50 -144c0 29 23 53 52 53s52 -23 52 -53c0 -28 -23 -52 -52 -52s-52 24 -52 52zM195 -144c0 29 23 53 52 53c28 0 52 -23 52 -53c0 -28 -23 -52 -52 -52s-52 24 -52 52z" />
    <glyph glyph-name="uni06D2" unicode="&#x6d2;" horiz-adv-x="728" arabic-form="isolated" 
d="M691 0h-614c-22 235 117 481 317 481c121 0 159 -70 159 -166v-65h-90v43c0 73 -19 114 -84 114c-124 0 -212 -191 -212 -334h524v-73z" />
    <glyph glyph-name="uniFBAF" unicode="&#x6d2;" horiz-adv-x="735" arabic-form="final" 
d="M642 -320h-614c-17 206 112 393 372 393h335v-73h-347c-186 0 -270 -140 -270 -247h524v-73z" />
    <glyph glyph-name="uni06D3" unicode="&#x6d3;" horiz-adv-x="728" arabic-form="isolated" 
d="M691 0h-614c-22 235 117 481 317 481c121 0 159 -70 159 -166v-65h-90v43c0 73 -19 114 -84 114c-124 0 -212 -191 -212 -334h524v-73zM197 564v55c27 0 54 -3 71 -6c-20 9 -31 31 -31 50c0 46 37 96 129 96c22 0 42 -3 54 -5l-10 -54c-9 1 -30 5 -50 5
c-38 0 -56 -17 -56 -41c0 -26 20 -45 79 -45h56v-55h-242z" />
    <glyph glyph-name="uniFBB1" unicode="&#x6d3;" horiz-adv-x="736" arabic-form="final" 
d="M643 -320h-614c-17 206 112 393 372 393h335v-73h-347c-186 0 -270 -140 -270 -247h524v-73zM78 143v55c27 0 54 -3 71 -6c-20 9 -31 31 -31 50c0 46 37 96 129 96c22 0 42 -3 54 -5l-10 -54c-9 1 -30 5 -50 5c-38 0 -56 -17 -56 -41c0 -26 20 -45 79 -45h56v-55h-242z
" />
    <glyph glyph-name="uni06D5.fina" unicode="&#x6d5;" horiz-adv-x="648" 
d="M648 0h-320c-192 0 -262 91 -262 234c0 131 81 247 252 247c110 0 201 -35 201 -35v-373h129v-73zM429 73v312s-49 23 -121 23c-93 0 -149 -66 -149 -165c0 -114 53 -170 182 -170h88z" />
    <glyph glyph-name="uniFE71" unicode="&#xfe71;" horiz-adv-x="302" arabic-form="medial" 
d="M-15 0v73h318v-73h-318zM40 810v48l223 32v-48zM40 900v48l223 32v-48z" />
    <glyph glyph-name="uniFE77" unicode="&#xfe77;" horiz-adv-x="302" arabic-form="medial" 
d="M-15 0v73h318v-73h-318zM40 898v50l224 32v-50z" />
    <glyph glyph-name="uniFE79" unicode="&#xfe79;" horiz-adv-x="328" arabic-form="medial" 
d="M-15 0v73h349v-73h-349zM45 815v41l75 9s-6 14 -6 32c0 47 39 79 88 79c44 0 77 -26 77 -68c0 -49 -41 -68 -95 -75zM165 871l18 2c36 4 50 14 50 35c0 17 -13 29 -33 29c-25 0 -40 -17 -40 -41c0 -16 5 -25 5 -25z" />
    <glyph glyph-name="uniFE7B" unicode="&#xfe7b;" horiz-adv-x="302" arabic-form="medial" 
d="M-15 0v73h318v-73h-318zM40 -314v50l224 32v-50z" />
    <glyph glyph-name="uniFE7D" unicode="&#xfe7d;" horiz-adv-x="328" arabic-form="medial" 
d="M-15 0v73h349v-73h-349zM161 855c-12 -21 -35 -35 -61 -35c-34 0 -58 18 -64 64l-8 49l47 8l8 -49c4 -21 12 -28 26 -28c20 1 33 16 29 38l-7 48l46 7l7 -47c4 -22 15 -33 29 -33c26 0 32 21 28 46l-7 51l47 6l8 -48c9 -52 -19 -98 -80 -98c-18 0 -37 8 -48 21z" />
    <glyph glyph-name="uniFE7F" unicode="&#xfe7f;" horiz-adv-x="302" arabic-form="medial" 
d="M-15 0v73h318v-73h-318zM112 903c0 -23 17 -37 39 -37c24 0 39 15 39 39c0 22 -16 37 -39 37s-39 -16 -39 -39zM66 901c0 46 40 78 86 78c48 0 84 -26 84 -74c0 -45 -40 -76 -87 -76c-46 0 -83 25 -83 72z" />
    <glyph glyph-name="uniFCF2" unicode="&#xfcf2;" horiz-adv-x="328" arabic-form="medial" 
d="M-15 0v73h349v-73h-349zM57 902v41l201 37v-42zM166 791c-10 -20 -29 -32 -54 -32c-29 0 -48 17 -54 54l-7 38l41 7l6 -34c3 -18 9 -25 23 -25c18 0 27 15 23 36l-5 34l40 7l6 -35c4 -20 11 -28 24 -28c22 0 28 18 23 42l-6 35l42 7l6 -38c9 -52 -19 -86 -67 -86
c-19 0 -29 5 -41 18z" />
    <glyph glyph-name="uniFCF3" unicode="&#xfcf3;" horiz-adv-x="328" arabic-form="medial" 
d="M-15 0v73h349v-73h-349zM171 706c-9 -21 -30 -34 -55 -34c-30 0 -48 18 -55 54l-7 37l41 9l7 -34c4 -18 10 -24 22 -24c18 0 27 14 23 35l-6 34l40 9l8 -35c4 -20 11 -27 24 -27c21 0 27 18 22 41l-7 36l42 7l7 -35c11 -56 -19 -90 -67 -90c-17 0 -28 5 -39 17zM47 805
v43l71 15s-8 16 -8 35c0 50 41 82 92 82c44 0 73 -28 73 -66c0 -48 -37 -67 -89 -78zM163 872l17 3c36 8 48 18 48 36s-12 29 -31 29c-26 0 -40 -16 -40 -41c0 -16 6 -27 6 -27z" />
    <glyph glyph-name="uniFCF4" unicode="&#xfcf4;" horiz-adv-x="328" arabic-form="medial" 
d="M-15 0v73h349v-73h-349zM63 751v41l204 36v-42zM158 874c-10 -19 -30 -32 -55 -32c-29 0 -47 18 -54 55l-7 37l41 7l6 -33c3 -18 10 -25 24 -25c17 0 26 15 23 35l-6 34l40 7l7 -35c3 -19 11 -27 24 -27c21 0 27 18 23 42l-6 35l41 6l7 -37c8 -52 -20 -87 -68 -87
c-19 0 -29 6 -40 18z" />
    <glyph glyph-name="uniFE70" unicode="&#xfe70;" horiz-adv-x="415" arabic-form="isolated" 
d="M95 810v48l223 32v-48zM95 900v48l223 32v-48z" />
    <glyph glyph-name="uniFE72" unicode="&#xfe72;" horiz-adv-x="474" arabic-form="isolated" 
d="M144 805l-26 120l42 9l16 -81l40 10s-7 16 -7 35c0 50 41 82 92 82c44 0 73 -28 73 -66c0 -48 -37 -67 -89 -78zM263 872l16 3c36 8 48 18 48 36s-11 29 -31 29c-26 0 -40 -16 -40 -41c0 -16 7 -27 7 -27z" />
    <glyph glyph-name="uniFE74" unicode="&#xfe74;" horiz-adv-x="415" arabic-form="isolated" 
d="M96 -320v47l224 32v-47zM96 -231v47l224 32v-47z" />
    <glyph glyph-name="uniFE76" unicode="&#xfe76;" horiz-adv-x="414" arabic-form="isolated" 
d="M95 898v50l224 32v-50z" />
    <glyph glyph-name="uniFE78" unicode="&#xfe78;" horiz-adv-x="428" arabic-form="isolated" 
d="M97 815v41l75 9s-6 14 -6 32c0 47 39 79 88 79c44 0 77 -26 77 -68c0 -49 -41 -68 -95 -75zM217 871l18 2c36 4 50 14 50 35c0 17 -13 29 -33 29c-25 0 -40 -17 -40 -41c0 -16 5 -25 5 -25z" />
    <glyph glyph-name="uniFE7A" unicode="&#xfe7a;" horiz-adv-x="414" arabic-form="isolated" 
d="M95 -318v50l224 32v-50z" />
    <glyph glyph-name="uniFE7C" unicode="&#xfe7c;" horiz-adv-x="455" arabic-form="isolated" 
d="M229 855c-12 -21 -35 -35 -61 -35c-34 0 -58 18 -64 64l-8 49l47 8l8 -49c4 -21 12 -28 26 -28c20 1 33 16 29 38l-7 48l46 7l7 -47c4 -22 15 -33 29 -33c26 0 32 21 28 46l-7 51l47 6l8 -48c9 -52 -19 -98 -80 -98c-18 0 -37 8 -48 21z" />
    <glyph glyph-name="uniFE7E" unicode="&#xfe7e;" horiz-adv-x="364" arabic-form="isolated" 
d="M143 903c0 -23 17 -37 39 -37c24 0 39 15 39 39c0 22 -16 37 -39 37s-39 -16 -39 -39zM97 901c0 46 40 78 86 78c48 0 84 -26 84 -74c0 -45 -40 -76 -87 -76c-46 0 -83 25 -83 72z" />
    <glyph glyph-name="uniFC5E" unicode="&#xfc5e;" horiz-adv-x="464" arabic-form="isolated" 
d="M129 803l-26 123l45 9l17 -84l45 9s-6 18 -6 34c0 51 38 86 89 86c44 0 69 -25 69 -64c0 -43 -30 -73 -84 -83zM254 868l23 5c27 5 40 19 40 41c0 17 -13 26 -29 26c-24 0 -40 -16 -40 -43c0 -15 6 -29 6 -29zM242 699c-9 -20 -30 -33 -55 -33c-29 0 -47 18 -54 53l-8 38
l41 8l7 -33c4 -18 10 -25 23 -25c17 0 26 15 23 35l-7 35l41 8l7 -35c4 -19 11 -27 24 -27c21 0 27 18 23 42l-7 34l42 8l6 -35c11 -56 -19 -90 -67 -90c-16 0 -27 5 -39 17z" />
    <glyph glyph-name="uniFC5F" unicode="&#xfc5f;" horiz-adv-x="442" arabic-form="isolated" 
d="M125 692v41l205 30v-41zM125 765v41l205 31v-41zM216 874c-10 -19 -30 -32 -54 -32c-30 0 -48 18 -55 55l-7 37l42 7l6 -33c3 -18 10 -25 23 -25c17 0 26 15 23 35l-6 34l41 7l6 -35c4 -19 12 -27 24 -27c21 0 28 18 23 42l-6 35l42 6l6 -37c9 -52 -19 -87 -67 -87
c-19 0 -30 6 -41 18z" />
    <glyph glyph-name="uniFC60" unicode="&#xfc60;" horiz-adv-x="428" arabic-form="isolated" 
d="M105 902v41l201 37v-42zM214 791c-10 -20 -29 -32 -54 -32c-29 0 -48 17 -54 54l-7 38l41 7l6 -34c3 -18 9 -25 23 -25c18 0 27 15 23 36l-5 34l40 7l6 -35c4 -20 11 -28 24 -28c22 0 28 18 23 42l-6 35l42 7l6 -38c9 -52 -19 -86 -67 -86c-19 0 -29 5 -41 18z" />
    <glyph glyph-name="uniFC61" unicode="&#xfc61;" horiz-adv-x="434" arabic-form="isolated" 
d="M221 706c-9 -21 -30 -34 -55 -34c-30 0 -48 18 -55 54l-7 37l41 9l7 -34c4 -18 10 -24 22 -24c18 0 27 14 23 35l-6 34l40 9l8 -35c4 -20 11 -27 24 -27c21 0 27 18 22 41l-7 36l42 7l7 -35c11 -56 -19 -90 -67 -90c-17 0 -28 5 -39 17zM97 805v43l71 15s-8 16 -8 35
c0 50 41 82 92 82c44 0 73 -28 73 -66c0 -48 -37 -67 -89 -78zM213 872l17 3c36 8 48 18 48 36s-12 29 -31 29c-26 0 -40 -16 -40 -41c0 -16 6 -27 6 -27z" />
    <glyph glyph-name="uniFC62" unicode="&#xfc62;" horiz-adv-x="429" arabic-form="isolated" 
d="M116 751v41l204 36v-42zM211 874c-10 -19 -30 -32 -55 -32c-29 0 -47 18 -54 55l-7 37l41 7l6 -33c3 -18 10 -25 24 -25c17 0 26 15 23 35l-6 34l40 7l7 -35c3 -19 11 -27 24 -27c21 0 27 18 23 42l-6 35l41 6l7 -37c8 -52 -20 -87 -68 -87c-19 0 -29 6 -40 18z" />
    <glyph glyph-name="uniFC63" unicode="&#xfc63;" horiz-adv-x="416" arabic-form="isolated" 
d="M218 893l-42 -9v96h42v-87zM209 767c-10 -21 -31 -33 -55 -33c-30 0 -48 17 -55 53l-8 38l42 7l7 -33c3 -18 9 -24 22 -24c18 0 27 14 23 35l-6 34l40 8l7 -35c4 -19 12 -27 24 -27c21 0 28 18 23 43l-7 34l42 8l7 -35c11 -56 -19 -90 -67 -90c-17 0 -28 5 -39 17z" />
    <glyph glyph-name="uni066E.init" unicode="&#x66e;" 
d="M221 0h-236c-20 0 -60 13 -60 37c0 22 40 36 60 36h144v397h92v-470z" />
    <glyph glyph-name="uni066E.medi" unicode="&#x66e;" horiz-adv-x="351" 
d="M351 0h-366c-20 0 -60 13 -60 37c0 22 40 36 60 36h144v397h92v-397h130v-73z" />
    <glyph glyph-name="uni066E.fina" unicode="&#x66e;" horiz-adv-x="826" 
d="M826 0h-403c-252 0 -349 101 -349 291c0 61 14 127 32 167l99 16c-24 -47 -39 -116 -39 -172c0 -152 60 -229 269 -229h170v397h92v-397h129v-73z" />
    <glyph glyph-name="uni066F.init" unicode="&#x66f;" horiz-adv-x="619" 
d="M539 0h-554c-20 0 -60 13 -60 37c0 22 40 36 60 36h106c35 0 58 -5 58 -5c-49 31 -74 84 -74 169c0 129 85 244 250 244c143 0 214 -81 214 -224v-257zM449 73v169c0 119 -49 166 -132 166c-93 0 -149 -66 -149 -166c0 -114 54 -169 182 -169h99z" />
    <glyph glyph-name="uni066F.medi" unicode="&#x66f;" horiz-adv-x="608" 
d="M608 0h-623c-20 0 -60 13 -60 37c0 22 40 36 60 36h82c34 0 71 -3 71 -3c-42 31 -66 87 -66 167c0 136 92 244 242 244c127 0 223 -65 223 -233c0 -71 -27 -141 -77 -178c0 0 50 3 87 3h61v-73zM306 73c74 0 138 53 138 171c0 104 -46 164 -138 164
c-72 0 -140 -50 -140 -164c0 -111 49 -171 140 -171z" />
    <glyph glyph-name="uni066F.fina" unicode="&#x66f;" horiz-adv-x="932" 
d="M802 446v-373h130v-73h-130v-238s-164 -13 -302 -13c-308 0 -433 92 -433 303c0 62 8 127 24 186l95 18c-18 -66 -27 -134 -27 -194c0 -173 95 -240 354 -240c95 0 199 8 199 8v170h-100c-192 0 -263 91 -263 234c0 131 82 247 252 247c110 0 201 -35 201 -35zM712 73
v312s-48 23 -121 23c-92 0 -149 -66 -149 -165c0 -114 54 -170 183 -170h87z" />
    <glyph glyph-name="uni0672.fina" unicode="&#x672;" horiz-adv-x="333" 
d="M112 0v588c-23 4 -52 8 -79 10v54c52 6 111 10 171 8v-587h129v-73h-221zM-23 765v61c86 9 98 -40 132 -40c-20 12 -32 30 -32 49c0 46 36 95 128 95c22 0 42 -3 54 -5l-10 -54c-9 2 -30 5 -50 5c-38 0 -55 -17 -55 -41c0 -26 19 -45 78 -45h56v-55h-133
c-86 0 -106 44 -168 30z" />
    <glyph glyph-name="uni0673.fina" unicode="&#x673;" horiz-adv-x="333" 
d="M112 0v588c-23 4 -52 8 -79 10v54c52 6 111 10 171 8v-587h129v-73h-221zM-17 -222v61c86 9 98 -40 132 -40c-20 12 -32 30 -32 49c0 46 36 95 128 95c22 0 42 -3 54 -5l-10 -54c-9 2 -30 5 -50 5c-38 0 -55 -17 -55 -41c0 -26 19 -45 78 -45h56v-55h-133
c-86 0 -106 44 -168 30z" />
    <glyph glyph-name="uni0675.fina" unicode="&#x675;" horiz-adv-x="333" 
d="M112 0v588c-23 4 -52 8 -79 10v54c52 6 111 10 171 8v-587h129v-73h-221zM147 729v55c27 0 54 -3 71 -6c-20 9 -31 31 -31 50c0 46 37 96 129 96c22 0 42 -3 54 -5l-10 -54c-9 1 -30 5 -50 5c-38 0 -56 -17 -56 -41c0 -26 20 -45 79 -45h56v-55h-242z" />
    <glyph glyph-name="uni0676.fina" unicode="&#x676;" horiz-adv-x="648" 
d="M228 -253c-77 0 -156 15 -156 15l6 78s84 -20 160 -20c109 0 191 41 191 156v24h-101c-192 0 -262 91 -262 234c0 131 81 247 252 247c110 0 201 -35 201 -35v-373h129v-73h-129v-19c0 -117 -76 -234 -291 -234zM429 73v312s-49 23 -121 23c-93 0 -149 -66 -149 -165
c0 -114 53 -170 182 -170h88zM346 561v55c27 0 54 -3 71 -6c-20 9 -31 31 -31 50c0 46 37 96 129 96c22 0 42 -3 54 -5l-10 -54c-9 1 -30 5 -50 5c-38 0 -56 -17 -56 -41c0 -26 20 -45 79 -45h56v-55h-242z" />
    <glyph glyph-name="uni0677.isol" unicode="&#x677;" horiz-adv-x="617" arabic-form="isolated" 
d="M52 532v53l53 11s-9 20 -9 44c0 60 48 101 110 101c55 0 90 -35 90 -82c0 -60 -45 -84 -107 -98zM161 608l20 3c43 9 59 21 59 44c0 20 -13 35 -38 35c-31 0 -50 -20 -50 -49c0 -22 9 -33 9 -33zM346 570v50c26 0 53 -2 69 -5c-19 9 -29 31 -29 50c0 43 34 90 122 90
c19 0 37 -3 49 -5l-8 -49c-9 1 -29 4 -46 4c-37 0 -55 -17 -55 -41s20 -44 77 -44h50v-50h-229zM228 -253c-77 0 -156 15 -156 15l6 78s84 -20 160 -20c109 0 191 41 191 156v24h-101c-192 0 -262 91 -262 234c0 131 81 247 252 247c110 0 201 -35 201 -35v-465
c0 -117 -76 -234 -291 -234zM429 73v312s-49 23 -121 23c-93 0 -149 -66 -149 -165c0 -114 53 -170 182 -170h88z" />
    <glyph glyph-name="uni0678.fina" unicode="&#x678;" horiz-adv-x="1027" 
d="M610 0h-187c-252 0 -349 101 -349 291c0 61 14 127 32 167l99 16c-24 -47 -39 -116 -39 -172c0 -152 60 -229 269 -229h86v389s87 19 182 19c167 0 223 -81 223 -218v-190h101v-73h-191v251c0 113 -41 157 -142 157c-41 0 -84 -8 -84 -8v-400zM569 563v55
c27 0 54 -3 71 -6c-20 9 -31 31 -31 50c0 46 37 96 129 96c22 0 42 -3 54 -5l-10 -54c-9 1 -30 5 -50 5c-38 0 -56 -17 -56 -41c0 -26 20 -45 79 -45h56v-55h-242z" />
    <glyph glyph-name="uni067A" unicode="&#x67a;" horiz-adv-x="795" arabic-form="isolated" 
d="M697 0h-274c-252 0 -349 101 -349 291c0 61 14 127 32 167l99 16c-24 -47 -39 -116 -39 -172c0 -152 60 -229 269 -229h170v397h92v-470zM412 558c-29 0 -51 22 -51 52c0 29 22 51 51 51s52 -21 52 -51c0 -29 -23 -52 -52 -52zM412 700c-28 0 -51 23 -51 52s23 52 51 52
c29 0 52 -23 52 -52c0 -28 -23 -52 -52 -52z" />
    <glyph glyph-name="uniFB5F" unicode="&#x67a;" horiz-adv-x="826" arabic-form="final" 
d="M423 0c-252 0 -349 101 -349 291c0 61 14 127 32 167l99 16c-24 -47 -39 -116 -39 -172c0 -152 60 -229 269 -229h170v397h92v-397h129v-73h-403zM412 700c-28 0 -51 23 -51 52s23 52 51 52c29 0 52 -23 52 -52c0 -28 -23 -52 -52 -52zM412 558c-29 0 -51 22 -51 52
c0 29 22 51 51 51s52 -21 52 -51c0 -29 -23 -52 -52 -52z" />
    <glyph glyph-name="uniFB60" unicode="&#x67a;" arabic-form="initial" 
d="M221 0h-236c-20 0 -60 13 -60 37c0 22 40 36 60 36h144v397h92v-470zM175 558c-29 0 -51 22 -51 52c0 29 22 51 51 51s52 -21 52 -51c0 -29 -23 -52 -52 -52zM175 700c-28 0 -51 23 -51 52s23 52 51 52c29 0 52 -23 52 -52c0 -28 -23 -52 -52 -52z" />
    <glyph glyph-name="uniFB61" unicode="&#x67a;" horiz-adv-x="351" arabic-form="medial" 
d="M351 0h-366c-20 0 -60 13 -60 37c0 22 40 36 60 36h144v397h92v-397h130v-73zM175 700c-28 0 -51 23 -51 52s23 52 51 52c29 0 52 -23 52 -52c0 -28 -23 -52 -52 -52zM175 558c-29 0 -51 22 -51 52c0 29 22 51 51 51s52 -21 52 -51c0 -29 -23 -52 -52 -52z" />
    <glyph glyph-name="uni067B" unicode="&#x67b;" horiz-adv-x="795" arabic-form="isolated" 
d="M697 0h-274c-252 0 -349 101 -349 291c0 61 14 127 32 167l99 16c-24 -47 -39 -116 -39 -172c0 -152 60 -229 269 -229h170v397h92v-470zM412 -271c-28 0 -49 21 -49 49s21 50 49 50c27 0 49 -21 49 -50c0 -27 -22 -49 -49 -49zM412 -141c-28 0 -49 21 -49 49
c0 27 21 49 49 49c27 0 49 -21 49 -49s-22 -49 -49 -49z" />
    <glyph glyph-name="uniFB53" unicode="&#x67b;" horiz-adv-x="826" arabic-form="final" 
d="M423 0c-252 0 -349 101 -349 291c0 61 14 127 32 167l99 16c-24 -47 -39 -116 -39 -172c0 -152 60 -229 269 -229h170v397h92v-397h129v-73h-403zM412 -271c-28 0 -49 21 -49 49s21 50 49 50c27 0 49 -21 49 -50c0 -27 -22 -49 -49 -49zM412 -141c-28 0 -49 21 -49 49
c0 27 21 49 49 49c27 0 49 -21 49 -49s-22 -49 -49 -49z" />
    <glyph glyph-name="uniFB54" unicode="&#x67b;" arabic-form="initial" 
d="M221 0h-236c-20 0 -60 13 -60 37c0 22 40 36 60 36h144v397h92v-470zM163 -271c-28 0 -49 21 -49 49s21 50 49 50c27 0 49 -21 49 -50c0 -27 -22 -49 -49 -49zM163 -141c-28 0 -49 21 -49 49c0 27 21 49 49 49c27 0 49 -21 49 -49s-22 -49 -49 -49z" />
    <glyph glyph-name="uniFB55" unicode="&#x67b;" horiz-adv-x="351" arabic-form="medial" 
d="M-15 0c-20 0 -60 13 -60 37c0 22 40 36 60 36h144v397h92v-397h130v-73h-366zM176 -271c-28 0 -49 21 -49 49s21 50 49 50c27 0 49 -21 49 -50c0 -27 -22 -49 -49 -49zM176 -141c-28 0 -49 21 -49 49c0 27 21 49 49 49c27 0 49 -21 49 -49s-22 -49 -49 -49z" />
    <glyph glyph-name="uni067C.init" unicode="&#x67c;" 
d="M172 -38c0 -56 -38 -97 -94 -97c-49 0 -87 25 -87 90c0 17 3 32 9 45h-15c-20 0 -60 13 -60 37c0 22 40 36 60 36h144v397h92v-470h-55c4 -11 6 -23 6 -38zM48 610c0 29 23 52 52 52s52 -22 52 -52c0 -29 -22 -52 -52 -52s-52 23 -52 52zM193 610c0 29 23 52 52 52
c28 0 52 -22 52 -52c0 -28 -23 -52 -52 -52s-52 23 -52 52zM111 -42c0 28 -11 42 -29 42c-15 0 -31 -13 -31 -41s12 -42 30 -42c16 0 30 15 30 41z" />
    <glyph glyph-name="uni067C.medi" unicode="&#x67c;" horiz-adv-x="351" 
d="M266 -38c0 -56 -38 -97 -94 -97c-49 0 -87 25 -87 90c0 17 3 32 9 45h-109c-20 0 -60 13 -60 37c0 22 40 36 60 36h144v397h92v-397h130v-73h-91c4 -11 6 -23 6 -38zM48 610c0 29 23 52 52 52s52 -22 52 -52c0 -29 -22 -52 -52 -52s-52 23 -52 52zM193 610
c0 29 23 52 52 52c28 0 52 -22 52 -52c0 -28 -23 -52 -52 -52s-52 23 -52 52zM205 -42c0 28 -11 42 -29 42c-15 0 -31 -13 -31 -41s12 -42 30 -42c16 0 30 15 30 41z" />
    <glyph glyph-name="uni067C.fina" unicode="&#x67c;" horiz-adv-x="826" 
d="M582 -38c0 -56 -38 -97 -94 -97c-49 0 -87 25 -87 90c0 17 3 32 9 45c-242 3 -336 104 -336 291c0 61 14 127 32 167l99 16c-24 -47 -39 -116 -39 -172c0 -152 60 -229 269 -229h170v397h92v-397h129v-73h-250c4 -11 6 -23 6 -38zM288 610c0 29 23 52 52 52
s52 -22 52 -52c0 -29 -22 -52 -52 -52s-52 23 -52 52zM433 610c0 29 23 52 52 52c28 0 52 -22 52 -52c0 -28 -23 -52 -52 -52s-52 23 -52 52zM521 -42c0 28 -11 42 -29 42h-4c-14 -2 -27 -15 -27 -41c0 -28 12 -42 30 -42c16 0 30 15 30 41z" />
    <glyph glyph-name="uni067D.init" unicode="&#x67d;" 
d="M221 0h-236c-20 0 -60 13 -60 37c0 22 40 36 60 36h144v397h92v-470zM171 659c29 0 52 -22 52 -51s-23 -52 -52 -52c-28 0 -51 22 -51 52c0 28 23 51 51 51zM98 772c29 0 52 -23 52 -52s-23 -51 -52 -51s-52 22 -52 51s23 52 52 52zM245 772c28 0 52 -23 52 -52
s-24 -51 -52 -51c-29 0 -52 22 -52 51s23 52 52 52z" />
    <glyph glyph-name="uni067D.medi" unicode="&#x67d;" horiz-adv-x="351" 
d="M-15 0c-20 0 -60 13 -60 37c0 22 40 36 60 36h144v397h92v-397h130v-73h-366zM98 772c29 0 52 -23 52 -52s-23 -51 -52 -51s-52 22 -52 51s23 52 52 52zM245 772c28 0 52 -23 52 -52s-24 -51 -52 -51c-29 0 -52 22 -52 51s23 52 52 52zM171 659c29 0 52 -22 52 -51
s-23 -52 -52 -52c-28 0 -51 22 -51 52c0 28 23 51 51 51z" />
    <glyph glyph-name="uni067D.fina" unicode="&#x67d;" horiz-adv-x="826" 
d="M423 0c-252 0 -349 101 -349 291c0 61 14 127 32 167l99 16c-24 -47 -39 -116 -39 -172c0 -152 60 -229 269 -229h170v397h92v-397h129v-73h-403zM339 772c29 0 52 -23 52 -52s-23 -51 -52 -51s-52 22 -52 51s23 52 52 52zM486 772c28 0 52 -23 52 -52s-24 -51 -52 -51
c-29 0 -52 22 -52 51s23 52 52 52zM412 659c29 0 52 -22 52 -51s-23 -52 -52 -52c-28 0 -51 22 -51 52c0 28 23 51 51 51z" />
    <glyph glyph-name="uni067F" unicode="&#x67f;" horiz-adv-x="795" arabic-form="isolated" 
d="M697 0h-274c-252 0 -349 101 -349 291c0 61 14 127 32 167l99 16c-24 -47 -39 -116 -39 -172c0 -152 60 -229 269 -229h170v397h92v-470zM484 559c-28 0 -51 22 -51 51c0 28 23 51 51 51s52 -22 52 -51c0 -28 -24 -51 -52 -51zM341 559c-28 0 -51 22 -51 51
c0 28 23 51 51 51s51 -22 51 -51c0 -28 -23 -51 -51 -51zM484 702c-28 0 -51 22 -51 51c0 28 23 51 51 51s52 -22 52 -51c0 -28 -24 -51 -52 -51zM341 702c-28 0 -51 22 -51 51c0 28 23 51 51 51s51 -22 51 -51c0 -28 -23 -51 -51 -51z" />
    <glyph glyph-name="uniFB63" unicode="&#x67f;" horiz-adv-x="826" arabic-form="final" 
d="M826 0h-403c-252 0 -349 101 -349 291c0 61 14 127 32 167l99 16c-24 -47 -39 -116 -39 -172c0 -152 60 -229 269 -229h170v397h92v-397h129v-73zM484 559c-28 0 -51 22 -51 51c0 28 23 51 51 51s52 -22 52 -51c0 -28 -24 -51 -52 -51zM484 702c-28 0 -51 22 -51 51
c0 28 23 51 51 51s52 -22 52 -51c0 -28 -24 -51 -52 -51zM341 702c-28 0 -51 22 -51 51c0 28 23 51 51 51s51 -22 51 -51c0 -28 -23 -51 -51 -51zM341 559c-28 0 -51 22 -51 51c0 28 23 51 51 51s51 -22 51 -51c0 -28 -23 -51 -51 -51z" />
    <glyph glyph-name="uniFB64" unicode="&#x67f;" arabic-form="initial" 
d="M221 0h-236c-20 0 -60 13 -60 37c0 22 40 36 60 36h144v397h92v-470zM246 559c-28 0 -51 22 -51 51c0 28 23 51 51 51s52 -22 52 -51c0 -28 -24 -51 -52 -51zM103 559c-28 0 -51 22 -51 51c0 28 23 51 51 51s51 -22 51 -51c0 -28 -23 -51 -51 -51zM246 702
c-28 0 -51 22 -51 51c0 28 23 51 51 51s52 -22 52 -51c0 -28 -24 -51 -52 -51zM103 702c-28 0 -51 22 -51 51c0 28 23 51 51 51s51 -22 51 -51c0 -28 -23 -51 -51 -51z" />
    <glyph glyph-name="uniFB65" unicode="&#x67f;" horiz-adv-x="351" arabic-form="medial" 
d="M-15 0c-20 0 -60 13 -60 37c0 22 40 36 60 36h144v397h92v-397h130v-73h-366zM246 702c-28 0 -51 22 -51 51c0 28 23 51 51 51s52 -22 52 -51c0 -28 -24 -51 -52 -51zM246 559c-28 0 -51 22 -51 51c0 28 23 51 51 51s52 -22 52 -51c0 -28 -24 -51 -52 -51zM103 702
c-28 0 -51 22 -51 51c0 28 23 51 51 51s51 -22 51 -51c0 -28 -23 -51 -51 -51zM103 559c-28 0 -51 22 -51 51c0 28 23 51 51 51s51 -22 51 -51c0 -28 -23 -51 -51 -51z" />
    <glyph glyph-name="uni0680" unicode="&#x680;" horiz-adv-x="795" arabic-form="isolated" 
d="M697 0h-274c-252 0 -349 101 -349 291c0 61 14 127 32 167l99 16c-24 -47 -39 -116 -39 -172c0 -152 60 -229 269 -229h170v397h92v-470zM355 -271c-27 0 -49 21 -49 49c0 27 22 49 49 49s49 -21 49 -49c0 -27 -22 -49 -49 -49zM355 -142c-27 0 -49 22 -49 50
c0 26 22 49 49 49s49 -22 49 -49c0 -28 -22 -50 -49 -50zM484 -271c-26 0 -48 21 -48 49c0 27 22 49 48 49c28 0 50 -21 50 -49c0 -27 -22 -49 -50 -49zM484 -142c-26 0 -48 22 -48 50c0 26 22 49 48 49c28 0 50 -22 50 -49c0 -28 -22 -50 -50 -50z" />
    <glyph glyph-name="uniFB5B" unicode="&#x680;" horiz-adv-x="826" arabic-form="final" 
d="M826 0h-403c-252 0 -349 101 -349 291c0 61 14 127 32 167l99 16c-24 -47 -39 -116 -39 -172c0 -152 60 -229 269 -229h170v397h92v-397h129v-73zM355 -142c-27 0 -49 22 -49 50c0 26 22 49 49 49s49 -22 49 -49c0 -28 -22 -50 -49 -50zM484 -142c-26 0 -48 22 -48 50
c0 26 22 49 48 49c28 0 50 -22 50 -49c0 -28 -22 -50 -50 -50zM355 -271c-27 0 -49 21 -49 49c0 27 22 49 49 49s49 -21 49 -49c0 -27 -22 -49 -49 -49zM484 -271c-26 0 -48 21 -48 49c0 27 22 49 48 49c28 0 50 -21 50 -49c0 -27 -22 -49 -50 -49z" />
    <glyph glyph-name="uniFB5C" unicode="&#x680;" arabic-form="initial" 
d="M221 0h-236c-20 0 -60 13 -60 37c0 22 40 36 60 36h144v397h92v-470zM110 -271c-27 0 -49 21 -49 49c0 27 22 49 49 49s49 -21 49 -49c0 -27 -22 -49 -49 -49zM110 -142c-27 0 -49 22 -49 50c0 26 22 49 49 49s49 -22 49 -49c0 -28 -22 -50 -49 -50zM239 -271
c-26 0 -48 21 -48 49c0 27 22 49 48 49c28 0 50 -21 50 -49c0 -27 -22 -49 -50 -49zM239 -142c-26 0 -48 22 -48 50c0 26 22 49 48 49c28 0 50 -22 50 -49c0 -28 -22 -50 -50 -50z" />
    <glyph glyph-name="uniFB5D" unicode="&#x680;" horiz-adv-x="351" arabic-form="medial" 
d="M-15 0c-20 0 -60 13 -60 37c0 22 40 36 60 36h144v397h92v-397h130v-73h-366zM110 -142c-27 0 -49 22 -49 50c0 26 22 49 49 49s49 -22 49 -49c0 -28 -22 -50 -49 -50zM239 -142c-26 0 -48 22 -48 50c0 26 22 49 48 49c28 0 50 -22 50 -49c0 -28 -22 -50 -50 -50z
M110 -271c-27 0 -49 21 -49 49c0 27 22 49 49 49s49 -21 49 -49c0 -27 -22 -49 -49 -49zM239 -271c-26 0 -48 21 -48 49c0 27 22 49 48 49c28 0 50 -21 50 -49c0 -27 -22 -49 -50 -49z" />
    <glyph glyph-name="uni0681.init" unicode="&#x681;" horiz-adv-x="531" 
d="M440 0h-455c-20 0 -60 13 -60 37c0 22 40 36 60 36h373c5 35 7 70 7 103c0 151 -55 225 -218 225c-39 0 -83 -4 -120 -10v72c33 6 84 11 127 11c221 0 303 -101 303 -292c0 -48 -5 -110 -17 -182zM63 564v55c27 0 54 -3 71 -6c-20 9 -31 31 -31 50c0 46 37 96 129 96
c22 0 42 -3 54 -5l-10 -54c-9 1 -30 5 -50 5c-38 0 -56 -17 -56 -41c0 -26 20 -45 79 -45h56v-55h-242z" />
    <glyph glyph-name="uni0681.medi" unicode="&#x681;" horiz-adv-x="528" 
d="M-15 0c-20 0 -60 13 -60 37c0 22 40 36 60 36h373c5 35 7 70 7 103c0 151 -55 225 -218 225c-39 0 -83 -4 -120 -10v72c33 6 84 11 127 11c221 0 303 -101 303 -292c0 -31 -3 -68 -7 -109h78v-73h-543zM63 564v55c27 0 54 -3 71 -6c-20 9 -31 31 -31 50
c0 46 37 96 129 96c22 0 42 -3 54 -5l-10 -54c-9 1 -30 5 -50 5c-38 0 -56 -17 -56 -41c0 -26 20 -45 79 -45h56v-55h-242z" />
    <glyph glyph-name="uni0681.fina" unicode="&#x681;" horiz-adv-x="604" 
d="M310 -320c-183 0 -273 79 -273 188c0 117 82 205 309 205h93c4 35 7 70 7 103c0 151 -55 225 -219 225c-40 0 -74 -2 -111 -7v72c33 4 76 8 119 8c220 0 302 -101 302 -292c0 -31 -2 -68 -6 -109h73v-73h-263c-169 0 -212 -55 -212 -124s60 -123 189 -123
c55 0 115 7 180 21l8 -72c-67 -15 -133 -22 -196 -22zM129 564v55c27 0 54 -3 71 -6c-20 9 -31 31 -31 50c0 46 37 96 129 96c22 0 42 -3 54 -5l-10 -54c-9 1 -30 5 -50 5c-38 0 -56 -17 -56 -41c0 -26 20 -45 79 -45h56v-55h-242z" />
    <glyph glyph-name="uni0682.init" unicode="&#x682;" horiz-adv-x="531" 
d="M440 0h-455c-20 0 -60 13 -60 37c0 22 40 36 60 36h373c5 35 7 70 7 103c0 151 -55 225 -218 225c-39 0 -83 -4 -120 -10v72c33 6 84 11 127 11c221 0 303 -101 303 -292c0 -48 -5 -110 -17 -182zM179 558c-29 0 -51 22 -51 52c0 29 22 51 51 51s52 -21 52 -51
c0 -29 -23 -52 -52 -52zM179 700c-28 0 -51 23 -51 52s23 52 51 52c29 0 52 -23 52 -52c0 -28 -23 -52 -52 -52z" />
    <glyph glyph-name="uni0682.medi" unicode="&#x682;" horiz-adv-x="528" 
d="M-15 0c-20 0 -60 13 -60 37c0 22 40 36 60 36h373c5 35 7 70 7 103c0 151 -55 225 -218 225c-39 0 -83 -4 -120 -10v72c33 6 84 11 127 11c221 0 303 -101 303 -292c0 -31 -3 -68 -7 -109h78v-73h-543zM179 700c-28 0 -51 23 -51 52s23 52 51 52c29 0 52 -23 52 -52
c0 -28 -23 -52 -52 -52zM179 558c-29 0 -51 22 -51 52c0 29 22 51 51 51s52 -21 52 -51c0 -29 -23 -52 -52 -52z" />
    <glyph glyph-name="uni0682.fina" unicode="&#x682;" horiz-adv-x="604" 
d="M310 -320c-183 0 -273 79 -273 188c0 117 82 205 309 205h93c4 35 7 70 7 103c0 151 -55 225 -219 225c-40 0 -74 -2 -111 -7v72c33 4 76 8 119 8c220 0 302 -101 302 -292c0 -31 -2 -68 -6 -109h73v-73h-263c-169 0 -212 -55 -212 -124s60 -123 189 -123
c55 0 115 7 180 21l8 -72c-67 -15 -133 -22 -196 -22zM275 700c-28 0 -51 23 -51 52s23 52 51 52c29 0 52 -23 52 -52c0 -28 -23 -52 -52 -52zM275 558c-29 0 -51 22 -51 52c0 29 22 51 51 51s52 -21 52 -51c0 -29 -23 -52 -52 -52z" />
    <glyph glyph-name="uni0683" unicode="&#x683;" horiz-adv-x="626" arabic-form="isolated" 
d="M535 0h-194c-169 0 -212 -55 -212 -126c0 -60 44 -103 127 -116l-19 -75c-122 18 -200 84 -200 184c0 118 82 206 309 206h107c5 35 7 70 7 103c0 151 -55 225 -219 225c-40 0 -74 -2 -111 -7v72c33 4 76 8 119 8c221 0 303 -101 303 -292c0 -48 -5 -110 -17 -182z
M260 -144c0 29 23 53 52 53s52 -23 52 -53c0 -28 -23 -52 -52 -52s-52 24 -52 52zM405 -144c0 29 23 53 52 53c28 0 52 -23 52 -53c0 -28 -23 -52 -52 -52s-52 24 -52 52z" />
    <glyph glyph-name="uniFB77" unicode="&#x683;" horiz-adv-x="623" arabic-form="final" 
d="M341 0c-169 0 -212 -55 -212 -126c0 -60 44 -103 127 -116l-19 -75c-122 18 -200 84 -200 184c0 118 82 206 309 206h107c5 35 7 70 7 103c0 151 -55 225 -219 225c-40 0 -74 -2 -111 -7v72c33 4 76 8 119 8c221 0 303 -101 303 -292c0 -31 -3 -68 -7 -109h78v-73h-282z
M255 -144c0 29 23 53 52 53s52 -23 52 -53c0 -28 -23 -52 -52 -52s-52 24 -52 52zM400 -144c0 29 23 53 52 53c28 0 52 -23 52 -53c0 -28 -23 -52 -52 -52s-52 24 -52 52z" />
    <glyph glyph-name="uniFB78" unicode="&#x683;" horiz-adv-x="531" arabic-form="initial" 
d="M440 0h-455c-20 0 -60 13 -60 37c0 22 40 36 60 36h373c5 35 7 70 7 103c0 151 -55 225 -218 225c-39 0 -83 -4 -120 -10v72c33 6 84 11 127 11c221 0 303 -101 303 -292c0 -48 -5 -110 -17 -182zM95 -144c0 29 23 53 52 53s52 -23 52 -53c0 -28 -23 -52 -52 -52
s-52 24 -52 52zM240 -144c0 29 23 53 52 53c28 0 52 -23 52 -53c0 -28 -23 -52 -52 -52s-52 24 -52 52z" />
    <glyph glyph-name="uniFB79" unicode="&#x683;" horiz-adv-x="528" arabic-form="medial" 
d="M528 0h-543c-20 0 -60 13 -60 37c0 22 40 36 60 36h373c5 35 7 70 7 103c0 151 -55 225 -218 225c-39 0 -83 -4 -120 -10v72c33 6 84 11 127 11c221 0 303 -101 303 -292c0 -31 -3 -68 -7 -109h78v-73zM95 -144c0 29 23 53 52 53s52 -23 52 -53c0 -28 -23 -52 -52 -52
s-52 24 -52 52zM240 -144c0 29 23 53 52 53c28 0 52 -23 52 -53c0 -28 -23 -52 -52 -52s-52 24 -52 52z" />
    <glyph glyph-name="uni0684" unicode="&#x684;" horiz-adv-x="626" arabic-form="isolated" 
d="M535 0h-194c-169 0 -212 -55 -212 -126c0 -60 44 -103 127 -116l-19 -75c-122 18 -200 84 -200 184c0 118 82 206 309 206h107c5 35 7 70 7 103c0 151 -55 225 -219 225c-40 0 -74 -2 -111 -7v72c33 4 76 8 119 8c221 0 303 -101 303 -292c0 -48 -5 -110 -17 -182z
M365 -271c-28 0 -49 21 -49 49s21 50 49 50c27 0 49 -21 49 -50c0 -27 -22 -49 -49 -49zM365 -141c-28 0 -49 21 -49 49c0 27 21 49 49 49c27 0 49 -21 49 -49s-22 -49 -49 -49z" />
    <glyph glyph-name="uniFB73" unicode="&#x684;" horiz-adv-x="623" arabic-form="final" 
d="M623 0h-282c-169 0 -212 -55 -212 -126c0 -60 44 -103 127 -116l-19 -75c-122 18 -200 84 -200 184c0 118 82 206 309 206h107c5 35 7 70 7 103c0 151 -55 225 -219 225c-40 0 -74 -2 -111 -7v72c33 4 76 8 119 8c221 0 303 -101 303 -292c0 -31 -3 -68 -7 -109h78v-73z
M365 -271c-28 0 -49 21 -49 49s21 50 49 50c27 0 49 -21 49 -50c0 -27 -22 -49 -49 -49zM365 -141c-28 0 -49 21 -49 49c0 27 21 49 49 49c27 0 49 -21 49 -49s-22 -49 -49 -49z" />
    <glyph glyph-name="uniFB74" unicode="&#x684;" horiz-adv-x="531" arabic-form="initial" 
d="M440 0h-455c-20 0 -60 13 -60 37c0 22 40 36 60 36h373c5 35 7 70 7 103c0 151 -55 225 -218 225c-39 0 -83 -4 -120 -10v72c33 6 84 11 127 11c221 0 303 -101 303 -292c0 -48 -5 -110 -17 -182zM186 -271c-28 0 -49 21 -49 49s21 50 49 50c27 0 49 -21 49 -50
c0 -27 -22 -49 -49 -49zM186 -141c-28 0 -49 21 -49 49c0 27 21 49 49 49c27 0 49 -21 49 -49s-22 -49 -49 -49z" />
    <glyph glyph-name="uniFB75" unicode="&#x684;" horiz-adv-x="528" arabic-form="medial" 
d="M-15 0c-20 0 -60 13 -60 37c0 22 40 36 60 36h373c5 35 7 70 7 103c0 151 -55 225 -218 225c-39 0 -83 -4 -120 -10v72c33 6 84 11 127 11c221 0 303 -101 303 -292c0 -31 -3 -68 -7 -109h78v-73h-543zM186 -271c-28 0 -49 21 -49 49s21 50 49 50c27 0 49 -21 49 -50
c0 -27 -22 -49 -49 -49zM186 -141c-28 0 -49 21 -49 49c0 27 21 49 49 49c27 0 49 -21 49 -49s-22 -49 -49 -49z" />
    <glyph glyph-name="uni0685.init" unicode="&#x685;" horiz-adv-x="531" 
d="M440 0h-455c-20 0 -60 13 -60 37c0 22 40 36 60 36h373c5 35 7 70 7 103c0 151 -55 225 -218 225c-39 0 -83 -4 -120 -10v72c33 6 84 11 127 11c221 0 303 -101 303 -292c0 -48 -5 -110 -17 -182zM54 608c0 28 23 52 52 52s52 -23 52 -52s-23 -53 -52 -53s-52 23 -52 53z
M201 608c0 28 24 52 52 52c29 0 53 -23 53 -52s-24 -53 -53 -53c-28 0 -52 23 -52 53zM128 721c0 29 23 53 52 53s52 -23 52 -53c0 -28 -23 -52 -52 -52s-52 23 -52 52z" />
    <glyph glyph-name="uni0685.medi" unicode="&#x685;" horiz-adv-x="528" 
d="M528 0h-543c-20 0 -60 13 -60 37c0 22 40 36 60 36h373c5 35 7 70 7 103c0 151 -55 225 -218 225c-39 0 -83 -4 -120 -10v72c33 6 84 11 127 11c221 0 303 -101 303 -292c0 -31 -3 -68 -7 -109h78v-73zM201 608c0 28 24 52 52 52c29 0 53 -23 53 -52s-24 -53 -53 -53
c-28 0 -52 23 -52 53zM128 721c0 29 23 53 52 53s52 -23 52 -53c0 -28 -23 -52 -52 -52s-52 23 -52 52zM54 608c0 28 23 52 52 52s52 -23 52 -52s-23 -53 -52 -53s-52 23 -52 53z" />
    <glyph glyph-name="uni0685.fina" unicode="&#x685;" horiz-adv-x="604" 
d="M341 0c-169 0 -212 -55 -212 -124s60 -123 189 -123c55 0 115 7 180 21l8 -72c-67 -15 -133 -22 -196 -22c-183 0 -273 79 -273 188c0 117 82 205 309 205h93c4 35 7 70 7 103c0 151 -55 225 -219 225c-40 0 -74 -2 -111 -7v72c33 4 76 8 119 8c220 0 302 -101 302 -292
c0 -31 -2 -68 -6 -109h73v-73h-263zM297 608c0 28 24 52 52 52c29 0 53 -23 53 -52s-24 -53 -53 -53c-28 0 -52 23 -52 53zM224 721c0 29 23 53 52 53s52 -23 52 -53c0 -28 -23 -52 -52 -52s-52 23 -52 52zM150 608c0 28 23 52 52 52s52 -23 52 -52s-23 -53 -52 -53
s-52 23 -52 53z" />
    <glyph glyph-name="uni0687" unicode="&#x687;" horiz-adv-x="626" arabic-form="isolated" 
d="M535 0h-194c-169 0 -212 -55 -212 -126c0 -60 44 -103 127 -116l-19 -75c-122 18 -200 84 -200 184c0 118 82 206 309 206h107c5 35 7 70 7 103c0 151 -55 225 -219 225c-40 0 -74 -2 -111 -7v72c33 4 76 8 119 8c221 0 303 -101 303 -292c0 -48 -5 -110 -17 -182z
M329 -271c-27 0 -49 21 -49 49c0 27 22 49 49 49s49 -21 49 -49c0 -27 -22 -49 -49 -49zM329 -142c-27 0 -49 22 -49 50c0 26 22 49 49 49s49 -22 49 -49c0 -28 -22 -50 -49 -50zM458 -271c-26 0 -48 21 -48 49c0 27 22 49 48 49c28 0 50 -21 50 -49c0 -27 -22 -49 -50 -49z
M458 -142c-26 0 -48 22 -48 50c0 26 22 49 48 49c28 0 50 -22 50 -49c0 -28 -22 -50 -50 -50z" />
    <glyph glyph-name="uniFB7F" unicode="&#x687;" horiz-adv-x="623" arabic-form="final" 
d="M341 0c-169 0 -212 -55 -212 -126c0 -60 44 -103 127 -116l-19 -75c-122 18 -200 84 -200 184c0 118 82 206 309 206h107c5 35 7 70 7 103c0 151 -55 225 -219 225c-40 0 -74 -2 -111 -7v72c33 4 76 8 119 8c221 0 303 -101 303 -292c0 -31 -3 -68 -7 -109h78v-73h-282z
M329 -142c-27 0 -49 22 -49 50c0 26 22 49 49 49s49 -22 49 -49c0 -28 -22 -50 -49 -50zM458 -142c-26 0 -48 22 -48 50c0 26 22 49 48 49c28 0 50 -22 50 -49c0 -28 -22 -50 -50 -50zM329 -271c-27 0 -49 21 -49 49c0 27 22 49 49 49s49 -21 49 -49c0 -27 -22 -49 -49 -49z
M458 -271c-26 0 -48 21 -48 49c0 27 22 49 48 49c28 0 50 -21 50 -49c0 -27 -22 -49 -50 -49z" />
    <glyph glyph-name="uniFB80" unicode="&#x687;" horiz-adv-x="531" arabic-form="initial" 
d="M440 0h-455c-20 0 -60 13 -60 37c0 22 40 36 60 36h373c5 35 7 70 7 103c0 151 -55 225 -218 225c-39 0 -83 -4 -120 -10v72c33 6 84 11 127 11c221 0 303 -101 303 -292c0 -48 -5 -110 -17 -182zM158 -271c-27 0 -49 21 -49 49c0 27 22 49 49 49s49 -21 49 -49
c0 -27 -22 -49 -49 -49zM158 -142c-27 0 -49 22 -49 50c0 26 22 49 49 49s49 -22 49 -49c0 -28 -22 -50 -49 -50zM287 -271c-26 0 -48 21 -48 49c0 27 22 49 48 49c28 0 50 -21 50 -49c0 -27 -22 -49 -50 -49zM287 -142c-26 0 -48 22 -48 50c0 26 22 49 48 49
c28 0 50 -22 50 -49c0 -28 -22 -50 -50 -50z" />
    <glyph glyph-name="uniFB81" unicode="&#x687;" horiz-adv-x="528" arabic-form="medial" 
d="M528 0h-543c-20 0 -60 13 -60 37c0 22 40 36 60 36h373c5 35 7 70 7 103c0 151 -55 225 -218 225c-39 0 -83 -4 -120 -10v72c33 6 84 11 127 11c221 0 303 -101 303 -292c0 -31 -3 -68 -7 -109h78v-73zM158 -142c-27 0 -49 22 -49 50c0 26 22 49 49 49s49 -22 49 -49
c0 -28 -22 -50 -49 -50zM287 -142c-26 0 -48 22 -48 50c0 26 22 49 48 49c28 0 50 -22 50 -49c0 -28 -22 -50 -50 -50zM158 -271c-27 0 -49 21 -49 49c0 27 22 49 49 49s49 -21 49 -49c0 -27 -22 -49 -49 -49zM287 -271c-26 0 -48 21 -48 49c0 27 22 49 48 49
c28 0 50 -21 50 -49c0 -27 -22 -49 -50 -49z" />
    <glyph glyph-name="uni0689.fina" unicode="&#x689;" horiz-adv-x="536" 
d="M57 0v73h320c-3 184 -75 285 -252 339l24 77c210 -64 313 -181 319 -416h68v-73h-165c4 -11 6 -23 6 -38c0 -56 -38 -97 -94 -97c-49 0 -87 25 -87 90c0 17 3 32 9 45h-148zM316 -42c0 26 -10 40 -25 42h-4c-15 0 -31 -13 -31 -41s12 -42 30 -42c16 0 30 15 30 41z" />
    <glyph glyph-name="uni068A.fina" unicode="&#x68a;" horiz-adv-x="536" 
d="M57 0v73h320c-3 184 -75 285 -252 339l24 77c210 -64 313 -181 319 -416h68v-73h-479zM200 -142c0 30 23 54 53 54s54 -23 54 -54c0 -30 -24 -54 -54 -54s-53 24 -53 54z" />
    <glyph glyph-name="uni068B.fina" unicode="&#x68b;" horiz-adv-x="536" 
d="M57 0v73h320c-3 184 -75 285 -252 339l24 77c210 -64 313 -181 319 -416h68v-73h-479zM177 858v-82c0 -19 -3 -42 -7 -62h1c25 44 72 77 122 77c60 0 94 -35 94 -94c0 -72 -49 -119 -148 -119h-120v280h58zM327 690c0 31 -11 53 -41 53c-51 0 -102 -64 -109 -118h71
c56 0 79 26 79 65zM200 -142c0 30 23 54 53 54s54 -23 54 -54c0 -30 -24 -54 -54 -54s-53 24 -53 54z" />
    <glyph glyph-name="uni068C" unicode="&#x68c;" horiz-adv-x="543" arabic-form="isolated" 
d="M57 0v73h320c-3 184 -75 285 -252 339l24 77c217 -66 319 -188 319 -439v-50h-411zM37 610c0 29 23 52 52 52s52 -22 52 -52c0 -29 -22 -52 -52 -52s-52 23 -52 52zM182 610c0 29 23 52 52 52c28 0 52 -22 52 -52c0 -28 -23 -52 -52 -52s-52 23 -52 52z" />
    <glyph glyph-name="uniFB85" unicode="&#x68c;" horiz-adv-x="536" arabic-form="final" 
d="M57 0v73h320c-3 184 -75 285 -252 339l24 77c210 -64 313 -181 319 -416h68v-73h-479zM37 610c0 29 23 52 52 52s52 -22 52 -52c0 -29 -22 -52 -52 -52s-52 23 -52 52zM182 610c0 29 23 52 52 52c28 0 52 -22 52 -52c0 -28 -23 -52 -52 -52s-52 23 -52 52z" />
    <glyph glyph-name="uni068D" unicode="&#x68d;" horiz-adv-x="543" arabic-form="isolated" 
d="M57 0v73h320c-3 184 -75 285 -252 339l24 77c217 -66 319 -188 319 -439v-50h-411zM133 -144c0 29 23 53 52 53s52 -23 52 -53c0 -28 -23 -52 -52 -52s-52 24 -52 52zM278 -144c0 29 23 53 52 53c28 0 52 -23 52 -53c0 -28 -23 -52 -52 -52s-52 24 -52 52z" />
    <glyph glyph-name="uniFB83" unicode="&#x68d;" horiz-adv-x="536" arabic-form="final" 
d="M57 0v73h320c-3 184 -75 285 -252 339l24 77c210 -64 313 -181 319 -416h68v-73h-479zM133 -144c0 29 23 53 52 53s52 -23 52 -53c0 -28 -23 -52 -52 -52s-52 24 -52 52zM278 -144c0 29 23 53 52 53c28 0 52 -23 52 -53c0 -28 -23 -52 -52 -52s-52 24 -52 52z" />
    <glyph glyph-name="uni068E" unicode="&#x68e;" horiz-adv-x="543" arabic-form="isolated" 
d="M57 0v73h320c-3 184 -75 285 -252 339l24 77c217 -66 319 -188 319 -439v-50h-411zM77 608c0 28 23 52 52 52s52 -23 52 -52s-23 -53 -52 -53s-52 23 -52 53zM224 608c0 28 24 52 52 52c29 0 53 -23 53 -52s-24 -53 -53 -53c-28 0 -52 23 -52 53zM151 721
c0 29 23 53 52 53s52 -23 52 -53c0 -28 -23 -52 -52 -52s-52 23 -52 52z" />
    <glyph glyph-name="uniFB87" unicode="&#x68e;" horiz-adv-x="536" arabic-form="final" 
d="M57 0v73h320c-3 184 -75 285 -252 339l24 77c210 -64 313 -181 319 -416h68v-73h-479zM224 608c0 28 24 52 52 52c29 0 53 -23 53 -52s-24 -53 -53 -53c-28 0 -52 23 -52 53zM151 721c0 29 23 53 52 53s52 -23 52 -53c0 -28 -23 -52 -52 -52s-52 23 -52 52zM77 608
c0 28 23 52 52 52s52 -23 52 -52s-23 -53 -52 -53s-52 23 -52 53z" />
    <glyph glyph-name="uni068F.fina" unicode="&#x68f;" horiz-adv-x="536" 
d="M57 0v73h320c-3 184 -75 285 -252 339l24 77c210 -64 313 -181 319 -416h68v-73h-479zM129 772c29 0 52 -23 52 -52s-23 -51 -52 -51s-52 22 -52 51s23 52 52 52zM276 772c28 0 52 -23 52 -52s-24 -51 -52 -51c-29 0 -52 22 -52 51s23 52 52 52zM202 659
c29 0 52 -22 52 -51s-23 -52 -52 -52c-28 0 -51 22 -51 52c0 28 23 51 51 51z" />
    <glyph glyph-name="uni0690.fina" unicode="&#x690;" horiz-adv-x="536" 
d="M57 0v73h320c-3 184 -75 285 -252 339l24 77c210 -64 313 -181 319 -416h68v-73h-479zM271 702c-28 0 -51 22 -51 51c0 28 23 51 51 51s52 -22 52 -51c0 -28 -24 -51 -52 -51zM271 559c-28 0 -51 22 -51 51c0 28 23 51 51 51s52 -22 52 -51c0 -28 -24 -51 -52 -51z
M128 702c-28 0 -51 22 -51 51c0 28 23 51 51 51s51 -22 51 -51c0 -28 -23 -51 -51 -51zM128 559c-28 0 -51 22 -51 51c0 28 23 51 51 51s51 -22 51 -51c0 -28 -23 -51 -51 -51z" />
    <glyph glyph-name="uni0692.fina" unicode="&#x692;" horiz-adv-x="451" 
d="M90 -257c-37 0 -75 6 -104 15l10 75c31 -10 64 -17 101 -17c83 0 133 40 133 171v483h92v-397h129v-73h-129v-5c0 -142 -52 -252 -232 -252zM416 643l-139 -131l-139 129l40 44l100 -85l99 85z" />
    <glyph glyph-name="uni0693.fina" unicode="&#x693;" horiz-adv-x="451" 
d="M365 -212c0 -55 -37 -96 -94 -96c-41 0 -76 19 -85 65c-27 -9 -59 -14 -96 -14s-75 6 -104 15l10 75c31 -10 64 -17 101 -17c83 0 133 40 133 171v483h92v-397h129v-73h-129v-5c0 -44 -5 -83 -17 -119c36 -9 60 -37 60 -88zM305 -215c0 28 -11 41 -30 41
c-15 0 -30 -12 -30 -41c0 -28 11 -41 30 -41c15 0 30 14 30 41z" />
    <glyph glyph-name="uni0694.fina" unicode="&#x694;" horiz-adv-x="451" 
d="M90 -257c-37 0 -75 6 -104 15l10 75c31 -10 64 -17 101 -17c83 0 133 40 133 171v483h92v-397h129v-73h-129v-5c0 -142 -52 -252 -232 -252zM276 -268c0 29 23 53 52 53s52 -23 52 -53c0 -29 -23 -52 -52 -52s-52 23 -52 52z" />
    <glyph glyph-name="uni0695.fina" unicode="&#x695;" horiz-adv-x="451" 
d="M90 -183c-37 0 -75 6 -104 14l10 76c31 -11 64 -17 101 -17c82 0 133 38 133 170v410h92v-397h129v-73h-134c-16 -108 -77 -183 -227 -183zM385 -181l-111 -139l-178 25l7 54l146 -12l94 108z" />
    <glyph glyph-name="uni0696.fina" unicode="&#x696;" horiz-adv-x="478" 
d="M117 -257c-37 0 -75 6 -104 15l10 75c31 -10 64 -17 101 -17c83 0 133 40 133 171v483h92v-397h129v-73h-129v-5c0 -142 -52 -252 -232 -252zM88 -62c0 29 23 53 52 53s52 -23 52 -53c0 -29 -23 -52 -52 -52s-52 23 -52 52zM307 -268c0 29 23 53 52 53s52 -23 52 -53
c0 -29 -23 -52 -52 -52s-52 23 -52 52z" />
    <glyph glyph-name="uni0697.fina" unicode="&#x697;" horiz-adv-x="451" 
d="M90 -257c-37 0 -75 6 -104 15l10 75c31 -10 64 -17 101 -17c83 0 133 40 133 171v483h92v-397h129v-73h-129v-5c0 -142 -52 -252 -232 -252zM149 610c0 29 23 52 52 52s52 -22 52 -52c0 -29 -22 -52 -52 -52s-52 23 -52 52zM294 610c0 29 23 52 52 52c28 0 52 -22 52 -52
c0 -28 -23 -52 -52 -52s-52 23 -52 52z" />
    <glyph glyph-name="uni0699.fina" unicode="&#x699;" horiz-adv-x="451" 
d="M90 -257c-37 0 -75 6 -104 15l10 75c31 -10 64 -17 101 -17c83 0 133 40 133 171v483h92v-397h129v-73h-129v-5c0 -142 -52 -252 -232 -252zM344 702c-28 0 -51 22 -51 51c0 28 23 51 51 51s52 -22 52 -51c0 -28 -24 -51 -52 -51zM344 559c-28 0 -51 22 -51 51
c0 28 23 51 51 51s52 -22 52 -51c0 -28 -24 -51 -52 -51zM201 702c-28 0 -51 22 -51 51c0 28 23 51 51 51s51 -22 51 -51c0 -28 -23 -51 -51 -51zM201 559c-28 0 -51 22 -51 51c0 28 23 51 51 51s51 -22 51 -51c0 -28 -23 -51 -51 -51z" />
    <glyph glyph-name="uni069A.init" unicode="&#x69a;" horiz-adv-x="868" 
d="M29 0h-44c-20 0 -60 13 -60 37c0 22 40 36 60 36h44c72 0 103 32 103 137v200h92v-182c0 -103 4 -162 84 -162c61 0 104 33 104 161v223h90v-256c0 -105 39 -121 148 -121h32c5 43 8 102 8 139c0 109 -14 203 -33 276l90 15c20 -75 35 -174 35 -283
c0 -68 -6 -153 -16 -220h-113c-126 0 -180 17 -208 80c-16 -42 -63 -87 -153 -87c-67 0 -115 35 -129 86c-18 -49 -58 -79 -134 -79zM398 -142c0 30 23 54 53 54s54 -23 54 -54c0 -30 -24 -54 -54 -54s-53 24 -53 54zM397 609c0 29 25 54 54 54c30 0 55 -24 55 -54
s-25 -55 -55 -55c-29 0 -54 25 -54 55z" />
    <glyph glyph-name="uni069A.medi" unicode="&#x69a;" horiz-adv-x="896" 
d="M653 0c-126 0 -180 17 -208 80c-16 -42 -63 -87 -153 -87c-67 0 -115 35 -129 86c-18 -49 -58 -79 -134 -79h-44c-20 0 -60 13 -60 37c0 22 40 36 60 36h44c72 0 103 32 103 137v200h92v-182c0 -103 4 -162 84 -162c61 0 104 33 104 161v223h90v-256
c0 -105 39 -121 148 -121h32c5 43 8 102 8 139c0 109 -14 203 -33 276l90 15c20 -75 35 -174 35 -283c0 -45 -3 -98 -7 -147h121v-73h-243zM397 609c0 29 25 54 54 54c30 0 55 -24 55 -54s-25 -55 -55 -55c-29 0 -54 25 -54 55zM398 -142c0 30 23 54 53 54s54 -23 54 -54
c0 -30 -24 -54 -54 -54s-53 24 -53 54z" />
    <glyph glyph-name="uni069A.fina" unicode="&#x69a;" horiz-adv-x="1231" 
d="M988 0c-130 0 -183 20 -208 80c-20 -62 -81 -87 -129 -87c-50 0 -77 15 -96 45c2 -204 -112 -269 -243 -269c-137 0 -245 74 -245 279c0 66 8 131 24 190l95 18c-18 -66 -27 -134 -27 -199c0 -171 83 -215 162 -215c81 0 146 50 146 203v365h92v-182
c0 -111 24 -162 91 -162s98 48 98 161v223h89v-256c0 -105 38 -121 148 -121h32c5 43 8 103 8 139c0 109 -14 203 -33 276l90 15c20 -75 35 -174 35 -283c0 -45 -3 -98 -7 -147h121v-73h-243zM732 609c0 29 25 54 54 54c30 0 55 -24 55 -54s-25 -55 -55 -55
c-29 0 -54 25 -54 55zM726 -142c0 30 23 54 53 54s54 -23 54 -54c0 -30 -24 -54 -54 -54s-53 24 -53 54z" />
    <glyph glyph-name="uni069B.init" unicode="&#x69b;" horiz-adv-x="868" 
d="M29 0h-44c-20 0 -60 13 -60 37c0 22 40 36 60 36h44c72 0 103 32 103 137v200h92v-182c0 -103 4 -162 84 -162c61 0 104 33 104 161v223h90v-256c0 -105 39 -121 148 -121h32c5 43 8 102 8 139c0 109 -14 203 -33 276l90 15c20 -75 35 -174 35 -283
c0 -68 -6 -153 -16 -220h-113c-126 0 -180 17 -208 80c-16 -42 -63 -87 -153 -87c-67 0 -115 35 -129 86c-18 -49 -58 -79 -134 -79zM401 -219c0 29 23 52 52 52c28 0 52 -22 52 -52c0 -28 -24 -52 -52 -52c-29 0 -52 23 -52 52zM473 -108c0 28 23 51 51 51
c29 0 52 -22 52 -51c0 -28 -23 -51 -52 -51c-28 0 -51 22 -51 51zM330 -108c0 28 24 51 52 51s51 -22 51 -51c0 -28 -23 -51 -51 -51c-29 0 -52 22 -52 51z" />
    <glyph glyph-name="uni069B.medi" unicode="&#x69b;" horiz-adv-x="896" 
d="M29 0h-44c-20 0 -60 13 -60 37c0 22 40 36 60 36h44c72 0 103 32 103 137v200h92v-182c0 -103 4 -162 84 -162c61 0 104 33 104 161v223h90v-256c0 -105 39 -121 148 -121h32c5 43 8 102 8 139c0 109 -14 203 -33 276l90 15c20 -75 35 -174 35 -283c0 -45 -3 -98 -7 -147
h121v-73h-243c-126 0 -180 17 -208 80c-16 -42 -63 -87 -153 -87c-67 0 -115 35 -129 86c-18 -49 -58 -79 -134 -79zM401 -219c0 29 23 52 52 52c28 0 52 -22 52 -52c0 -28 -24 -52 -52 -52c-29 0 -52 23 -52 52zM473 -108c0 28 23 51 51 51c29 0 52 -22 52 -51
c0 -28 -23 -51 -52 -51c-28 0 -51 22 -51 51zM330 -108c0 28 24 51 52 51s51 -22 51 -51c0 -28 -23 -51 -51 -51c-29 0 -52 22 -52 51z" />
    <glyph glyph-name="uni069B.fina" unicode="&#x69b;" horiz-adv-x="1231" 
d="M988 0c-130 0 -183 20 -208 80c-20 -62 -81 -87 -129 -87c-50 0 -77 15 -96 45c2 -204 -112 -269 -243 -269c-137 0 -245 74 -245 279c0 66 8 131 24 190l95 18c-18 -66 -27 -134 -27 -199c0 -171 83 -215 162 -215c81 0 146 50 146 203v365h92v-182
c0 -111 24 -162 91 -162s98 48 98 161v223h89v-256c0 -105 38 -121 148 -121h32c5 43 8 103 8 139c0 109 -14 203 -33 276l90 15c20 -75 35 -174 35 -283c0 -45 -3 -98 -7 -147h121v-73h-243zM733 -219c0 29 23 52 52 52c28 0 52 -22 52 -52c0 -28 -24 -52 -52 -52
c-29 0 -52 23 -52 52zM805 -108c0 28 23 51 51 51c29 0 52 -22 52 -51c0 -28 -23 -51 -52 -51c-28 0 -51 22 -51 51zM662 -108c0 28 24 51 52 51s51 -22 51 -51c0 -28 -23 -51 -51 -51c-29 0 -52 22 -52 51z" />
    <glyph glyph-name="uni069C.init" unicode="&#x69c;" horiz-adv-x="868" 
d="M29 0h-44c-20 0 -60 13 -60 37c0 22 40 36 60 36h44c72 0 103 32 103 137v200h92v-182c0 -103 4 -162 84 -162c61 0 104 33 104 161v223h90v-256c0 -105 39 -121 148 -121h32c5 43 8 102 8 139c0 109 -14 203 -33 276l90 15c20 -75 35 -174 35 -283
c0 -68 -6 -153 -16 -220h-113c-126 0 -180 17 -208 80c-16 -42 -63 -87 -153 -87c-67 0 -115 35 -129 86c-18 -49 -58 -79 -134 -79zM401 -219c0 29 23 52 52 52c28 0 52 -22 52 -52c0 -28 -24 -52 -52 -52c-29 0 -52 23 -52 52zM473 -108c0 28 23 51 51 51
c29 0 52 -22 52 -51c0 -28 -23 -51 -52 -51c-28 0 -51 22 -51 51zM330 -108c0 28 24 51 52 51s51 -22 51 -51c0 -28 -23 -51 -51 -51c-29 0 -52 22 -52 51zM326 608c0 28 23 52 52 52s52 -23 52 -52s-23 -53 -52 -53s-52 23 -52 53zM473 608c0 28 24 52 52 52
c29 0 53 -23 53 -52s-24 -53 -53 -53c-28 0 -52 23 -52 53zM400 721c0 29 23 53 52 53s52 -23 52 -53c0 -28 -23 -52 -52 -52s-52 23 -52 52z" />
    <glyph glyph-name="uni069C.medi" unicode="&#x69c;" horiz-adv-x="896" 
d="M29 0h-44c-20 0 -60 13 -60 37c0 22 40 36 60 36h44c72 0 103 32 103 137v200h92v-182c0 -103 4 -162 84 -162c61 0 104 33 104 161v223h90v-256c0 -105 39 -121 148 -121h32c5 43 8 102 8 139c0 109 -14 203 -33 276l90 15c20 -75 35 -174 35 -283c0 -45 -3 -98 -7 -147
h121v-73h-243c-126 0 -180 17 -208 80c-16 -42 -63 -87 -153 -87c-67 0 -115 35 -129 86c-18 -49 -58 -79 -134 -79zM473 608c0 28 24 52 52 52c29 0 53 -23 53 -52s-24 -53 -53 -53c-28 0 -52 23 -52 53zM400 721c0 29 23 53 52 53s52 -23 52 -53c0 -28 -23 -52 -52 -52
s-52 23 -52 52zM326 608c0 28 23 52 52 52s52 -23 52 -52s-23 -53 -52 -53s-52 23 -52 53zM401 -219c0 29 23 52 52 52c28 0 52 -22 52 -52c0 -28 -24 -52 -52 -52c-29 0 -52 23 -52 52zM473 -108c0 28 23 51 51 51c29 0 52 -22 52 -51c0 -28 -23 -51 -52 -51
c-28 0 -51 22 -51 51zM330 -108c0 28 24 51 52 51s51 -22 51 -51c0 -28 -23 -51 -51 -51c-29 0 -52 22 -52 51z" />
    <glyph glyph-name="uni069C.fina" unicode="&#x69c;" horiz-adv-x="1231" 
d="M988 0c-130 0 -183 20 -208 80c-20 -62 -81 -87 -129 -87c-50 0 -77 15 -96 45c2 -204 -112 -269 -243 -269c-137 0 -245 74 -245 279c0 66 8 131 24 190l95 18c-18 -66 -27 -134 -27 -199c0 -171 83 -215 162 -215c81 0 146 50 146 203v365h92v-182
c0 -111 24 -162 91 -162s98 48 98 161v223h89v-256c0 -105 38 -121 148 -121h32c5 43 8 103 8 139c0 109 -14 203 -33 276l90 15c20 -75 35 -174 35 -283c0 -45 -3 -98 -7 -147h121v-73h-243zM810 608c0 28 24 52 52 52c29 0 53 -23 53 -52s-24 -53 -53 -53
c-28 0 -52 23 -52 53zM737 721c0 29 23 53 52 53s52 -23 52 -53c0 -28 -23 -52 -52 -52s-52 23 -52 52zM663 608c0 28 23 52 52 52s52 -23 52 -52s-23 -53 -52 -53s-52 23 -52 53zM733 -219c0 29 23 52 52 52c28 0 52 -22 52 -52c0 -28 -24 -52 -52 -52c-29 0 -52 23 -52 52
zM805 -108c0 28 23 51 51 51c29 0 52 -22 52 -51c0 -28 -23 -51 -52 -51c-28 0 -51 22 -51 51zM662 -108c0 28 24 51 52 51s51 -22 51 -51c0 -28 -23 -51 -51 -51c-29 0 -52 22 -52 51z" />
    <glyph glyph-name="uni069D.init" unicode="&#x69d;" horiz-adv-x="745" 
d="M394 0h-409c-20 0 -60 13 -60 37c0 22 40 36 60 36h144v397h92v-39c0 -54 -3 -123 -11 -179h2c46 150 158 229 274 229c128 0 200 -83 200 -227c0 -138 -76 -254 -292 -254zM220 73h184c147 0 187 80 187 174c0 99 -39 161 -122 161c-137 0 -233 -174 -249 -335z
M215 -144c0 29 23 53 52 53s52 -23 52 -53c0 -28 -23 -52 -52 -52s-52 24 -52 52zM360 -144c0 29 23 53 52 53c28 0 52 -23 52 -53c0 -28 -23 -52 -52 -52s-52 24 -52 52z" />
    <glyph glyph-name="uni069D.medi" unicode="&#x69d;" horiz-adv-x="761" 
d="M-15 0c-20 0 -60 13 -60 37c0 22 40 36 60 36h144v397h92v-39c0 -54 -3 -123 -11 -179h2c46 150 158 229 274 229c128 0 200 -83 200 -227c0 -70 -20 -135 -68 -181h143v-73h-776zM220 73h195c138 4 176 82 176 174c0 99 -39 161 -122 161c-137 0 -233 -174 -249 -335z
M215 -144c0 29 23 53 52 53s52 -23 52 -53c0 -28 -23 -52 -52 -52s-52 24 -52 52zM360 -144c0 29 23 53 52 53c28 0 52 -23 52 -53c0 -28 -23 -52 -52 -52s-52 24 -52 52z" />
    <glyph glyph-name="uni069D.fina" unicode="&#x69d;" horiz-adv-x="1092" 
d="M312 -231c-137 0 -245 74 -245 279c0 66 8 131 24 190l95 18c-18 -66 -27 -134 -27 -199c0 -171 83 -215 162 -215c81 0 146 50 146 203v425h92v-39c0 -54 -3 -123 -11 -179h2c46 150 158 229 274 229c128 0 200 -83 200 -227c0 -70 -20 -135 -68 -181h136v-73h-536
c-13 -159 -115 -231 -244 -231zM558 73h195c138 4 176 82 176 174c0 99 -39 161 -122 161c-137 0 -233 -174 -249 -335zM611 -144c0 29 23 53 52 53s52 -23 52 -53c0 -28 -23 -52 -52 -52s-52 24 -52 52zM756 -144c0 29 23 53 52 53c28 0 52 -23 52 -53
c0 -28 -23 -52 -52 -52s-52 24 -52 52z" />
    <glyph glyph-name="uni069E.init" unicode="&#x69e;" horiz-adv-x="745" 
d="M394 0h-409c-20 0 -60 13 -60 37c0 22 40 36 60 36h144v397h92v-39c0 -54 -3 -123 -11 -179h2c46 150 158 229 274 229c128 0 200 -83 200 -227c0 -138 -76 -254 -292 -254zM220 73h184c147 0 187 80 187 174c0 99 -39 161 -122 161c-137 0 -233 -174 -249 -335zM275 608
c0 28 23 52 52 52s52 -23 52 -52s-23 -53 -52 -53s-52 23 -52 53zM422 608c0 28 24 52 52 52c29 0 53 -23 53 -52s-24 -53 -53 -53c-28 0 -52 23 -52 53zM349 721c0 29 23 53 52 53s52 -23 52 -53c0 -28 -23 -52 -52 -52s-52 23 -52 52z" />
    <glyph glyph-name="uni069E.medi" unicode="&#x69e;" horiz-adv-x="761" 
d="M-15 0c-20 0 -60 13 -60 37c0 22 40 36 60 36h144v397h92v-39c0 -54 -3 -123 -11 -179h2c46 150 158 229 274 229c128 0 200 -83 200 -227c0 -70 -20 -135 -68 -181h143v-73h-776zM220 73h195c138 4 176 82 176 174c0 99 -39 161 -122 161c-137 0 -233 -174 -249 -335z
M422 608c0 28 24 52 52 52c29 0 53 -23 53 -52s-24 -53 -53 -53c-28 0 -52 23 -52 53zM349 721c0 29 23 53 52 53s52 -23 52 -53c0 -28 -23 -52 -52 -52s-52 23 -52 52zM275 608c0 28 23 52 52 52s52 -23 52 -52s-23 -53 -52 -53s-52 23 -52 53z" />
    <glyph glyph-name="uni069E.fina" unicode="&#x69e;" horiz-adv-x="1092" 
d="M312 -231c-137 0 -245 74 -245 279c0 66 8 131 24 190l95 18c-18 -66 -27 -134 -27 -199c0 -171 83 -215 162 -215c81 0 146 50 146 203v425h92v-39c0 -54 -3 -123 -11 -179h2c46 150 158 229 274 229c128 0 200 -83 200 -227c0 -70 -20 -135 -68 -181h136v-73h-344h-16
h-176c-13 -159 -115 -231 -244 -231zM558 73h184c147 0 187 80 187 174c0 99 -39 161 -122 161c-137 0 -233 -174 -249 -335zM753 608c0 28 24 52 52 52c29 0 53 -23 53 -52s-24 -53 -53 -53c-28 0 -52 23 -52 53zM680 721c0 29 23 53 52 53s52 -23 52 -53
c0 -28 -23 -52 -52 -52s-52 23 -52 52zM606 608c0 28 23 52 52 52s52 -23 52 -52s-23 -53 -52 -53s-52 23 -52 53z" />
    <glyph glyph-name="uni069F.init" unicode="&#x69f;" horiz-adv-x="745" 
d="M394 0h-409c-20 0 -60 13 -60 37c0 22 40 36 60 36h144v632h92v-274c0 -54 -3 -123 -11 -179h2c46 150 158 229 274 229c128 0 200 -83 200 -227c0 -138 -76 -254 -292 -254zM220 73h184c147 0 187 80 187 174c0 99 -39 161 -122 161c-137 0 -233 -174 -249 -335z
M312 608c0 28 23 52 52 52s52 -23 52 -52s-23 -53 -52 -53s-52 23 -52 53zM459 608c0 28 24 52 52 52c29 0 53 -23 53 -52s-24 -53 -53 -53c-28 0 -52 23 -52 53zM386 721c0 29 23 53 52 53s52 -23 52 -53c0 -28 -23 -52 -52 -52s-52 23 -52 52z" />
    <glyph glyph-name="uni069F.medi" unicode="&#x69f;" horiz-adv-x="761" 
d="M394 0h-409c-20 0 -60 13 -60 37c0 22 40 36 60 36h144v632h92v-274c0 -54 -3 -123 -11 -179h2c46 150 158 229 274 229c128 0 200 -83 200 -227c0 -70 -20 -135 -68 -181h143v-73h-351h-16zM220 73h184c147 0 187 80 187 174c0 99 -39 161 -122 161
c-137 0 -233 -174 -249 -335zM459 608c0 28 24 52 52 52c29 0 53 -23 53 -52s-24 -53 -53 -53c-28 0 -52 23 -52 53zM386 721c0 29 23 53 52 53s52 -23 52 -53c0 -28 -23 -52 -52 -52s-52 23 -52 52zM312 608c0 28 23 52 52 52s52 -23 52 -52s-23 -53 -52 -53s-52 23 -52 53
z" />
    <glyph glyph-name="uni069F.fina" unicode="&#x69f;" horiz-adv-x="779" 
d="M9 0v73h138v632h92v-274c0 -54 -3 -123 -11 -179h2c46 150 158 229 274 229c128 0 200 -83 200 -227c0 -70 -20 -135 -68 -181h143v-73h-770zM238 73h194c139 4 177 82 177 174c0 99 -39 161 -122 161c-137 0 -233 -174 -249 -335zM477 608c0 28 24 52 52 52
c29 0 53 -23 53 -52s-24 -53 -53 -53c-28 0 -52 23 -52 53zM404 721c0 29 23 53 52 53s52 -23 52 -53c0 -28 -23 -52 -52 -52s-52 23 -52 52zM330 608c0 28 23 52 52 52s52 -23 52 -52s-23 -53 -52 -53s-52 23 -52 53z" />
    <glyph glyph-name="uni06A0.init" unicode="&#x6a0;" horiz-adv-x="558" 
d="M517 0h-532c-20 0 -60 13 -60 37c0 22 40 36 60 36h199c-60 27 -107 93 -107 177c0 124 81 231 246 231c71 0 131 -22 131 -22l-17 -74s-55 24 -119 24c-88 0 -149 -58 -149 -155c0 -102 78 -181 266 -181h82v-73zM176 608c0 28 23 52 52 52s52 -23 52 -52
s-23 -53 -52 -53s-52 23 -52 53zM323 608c0 28 24 52 52 52c29 0 53 -23 53 -52s-24 -53 -53 -53c-28 0 -52 23 -52 53zM250 721c0 29 23 53 52 53s52 -23 52 -53c0 -28 -23 -52 -52 -52s-52 23 -52 52z" />
    <glyph glyph-name="uni06A0.medi" unicode="&#x6a0;" horiz-adv-x="602" 
d="M4 0h-19c-20 0 -60 13 -60 37c0 22 40 36 60 36h22c111 0 204 20 274 53c-70 66 -138 140 -239 173l8 64c77 59 188 120 289 120c136 0 192 -74 192 -155c0 -70 -42 -146 -120 -207c42 -29 88 -48 144 -48h47v-73h-59c-85 0 -148 31 -203 75c-86 -46 -199 -75 -336 -75z
M136 334c87 -33 150 -106 217 -166c56 43 87 96 87 148c0 54 -34 98 -111 98c-69 0 -149 -49 -193 -80zM341 608c0 28 24 52 52 52c29 0 53 -23 53 -52s-24 -53 -53 -53c-28 0 -52 23 -52 53zM268 721c0 29 23 53 52 53s52 -23 52 -53c0 -28 -23 -52 -52 -52s-52 23 -52 52z
M194 608c0 28 23 52 52 52s52 -23 52 -52s-23 -53 -52 -53s-52 23 -52 53z" />
    <glyph glyph-name="uni06A0.fina" unicode="&#x6a0;" horiz-adv-x="633" 
d="M319 -258c-195 0 -274 78 -274 172c0 121 131 175 248 231c-63 61 -127 124 -219 154l7 64c78 59 189 120 289 120c136 0 193 -74 193 -155c0 -91 -62 -149 -138 -194c47 -36 98 -61 162 -61h46v-73h-59c-97 0 -164 41 -225 93c-106 -52 -210 -94 -210 -171
c0 -60 52 -107 190 -107c76 0 157 14 157 14l6 -71s-89 -16 -173 -16zM167 334c80 -31 140 -94 201 -151c59 35 103 74 103 133c0 54 -33 98 -110 98c-70 0 -150 -49 -194 -80zM373 608c0 28 24 52 52 52c29 0 53 -23 53 -52s-24 -53 -53 -53c-28 0 -52 23 -52 53zM300 721
c0 29 23 53 52 53s52 -23 52 -53c0 -28 -23 -52 -52 -52s-52 23 -52 52zM226 608c0 28 23 52 52 52s52 -23 52 -52s-23 -53 -52 -53s-52 23 -52 53z" />
    <glyph glyph-name="uni06A1.init" unicode="&#x6a1;" horiz-adv-x="619" 
d="M539 0h-554c-20 0 -60 13 -60 37c0 22 40 36 60 36h106c35 0 58 -5 58 -5c-49 31 -74 84 -74 169c0 129 85 244 250 244c143 0 214 -81 214 -224v-257zM449 73v169c0 119 -49 166 -132 166c-93 0 -149 -66 -149 -166c0 -114 54 -169 182 -169h99z" />
    <glyph glyph-name="uni06A1.medi" unicode="&#x6a1;" horiz-adv-x="608" 
d="M608 0h-623c-20 0 -60 13 -60 37c0 22 40 36 60 36h82c34 0 71 -3 71 -3c-42 31 -66 87 -66 167c0 136 92 244 242 244c127 0 223 -65 223 -233c0 -71 -27 -141 -77 -178c0 0 50 3 87 3h61v-73zM306 73c74 0 138 53 138 171c0 104 -46 164 -138 164
c-72 0 -140 -50 -140 -164c0 -111 49 -171 140 -171z" />
    <glyph glyph-name="uni06A1.fina" unicode="&#x6a1;" horiz-adv-x="951" 
d="M951 73v-73h-528c-252 0 -349 101 -349 291c0 61 14 127 32 167l99 16c-24 -47 -39 -116 -39 -172c0 -152 62 -229 259 -229h54c-42 30 -64 88 -64 164c0 136 92 244 242 244c127 0 223 -65 223 -233c0 -71 -27 -141 -77 -178c0 0 50 3 86 3h62zM787 244
c0 104 -46 164 -138 164c-72 0 -141 -50 -141 -165c0 -110 50 -170 140 -170c75 0 139 53 139 171z" />
    <glyph glyph-name="uni06A2.init" unicode="&#x6a2;" horiz-adv-x="619" 
d="M539 0h-554c-20 0 -60 13 -60 37c0 22 40 36 60 36h106c35 0 58 -5 58 -5c-49 31 -74 84 -74 169c0 129 85 244 250 244c143 0 214 -81 214 -224v-257zM449 73v169c0 119 -49 166 -132 166c-93 0 -149 -66 -149 -166c0 -114 54 -169 182 -169h99zM273 -142
c0 30 23 54 53 54s54 -23 54 -54c0 -30 -24 -54 -54 -54s-53 24 -53 54z" />
    <glyph glyph-name="uni06A2.medi" unicode="&#x6a2;" horiz-adv-x="608" 
d="M608 0h-623c-20 0 -60 13 -60 37c0 22 40 36 60 36h82c34 0 71 -3 71 -3c-42 31 -66 87 -66 167c0 136 92 244 242 244c127 0 223 -65 223 -233c0 -71 -27 -141 -77 -178c0 0 50 3 87 3h61v-73zM306 73c74 0 138 53 138 171c0 104 -46 164 -138 164
c-72 0 -140 -50 -140 -164c0 -111 49 -171 140 -171zM256 -142c0 30 23 54 53 54s54 -23 54 -54c0 -30 -24 -54 -54 -54s-53 24 -53 54z" />
    <glyph glyph-name="uni06A2.fina" unicode="&#x6a2;" horiz-adv-x="951" 
d="M951 73v-73h-528c-252 0 -349 101 -349 291c0 61 14 127 32 167l99 16c-24 -47 -39 -116 -39 -172c0 -152 62 -229 259 -229h54c-42 30 -64 88 -64 164c0 136 92 244 242 244c127 0 223 -65 223 -233c0 -71 -27 -141 -77 -178c0 0 50 3 86 3h62zM787 244
c0 104 -46 164 -138 164c-72 0 -141 -50 -141 -165c0 -110 50 -170 140 -170c75 0 139 53 139 171zM599 -142c0 30 23 54 53 54s54 -23 54 -54c0 -30 -24 -54 -54 -54s-53 24 -53 54z" />
    <glyph glyph-name="uni06A3.init" unicode="&#x6a3;" horiz-adv-x="619" 
d="M539 0h-554c-20 0 -60 13 -60 37c0 22 40 36 60 36h106c35 0 58 -5 58 -5c-49 31 -74 84 -74 169c0 129 85 244 250 244c143 0 214 -81 214 -224v-257zM449 73v169c0 119 -49 166 -132 166c-93 0 -149 -66 -149 -166c0 -114 54 -169 182 -169h99zM273 -142
c0 30 23 54 53 54s54 -23 54 -54c0 -30 -24 -54 -54 -54s-53 24 -53 54zM260 609c0 29 25 54 54 54c30 0 55 -24 55 -54s-25 -55 -55 -55c-29 0 -54 25 -54 55z" />
    <glyph glyph-name="uni06A3.medi" unicode="&#x6a3;" horiz-adv-x="608" 
d="M608 0h-623c-20 0 -60 13 -60 37c0 22 40 36 60 36h82c34 0 71 -3 71 -3c-42 31 -66 87 -66 167c0 136 92 244 242 244c127 0 223 -65 223 -233c0 -71 -27 -141 -77 -178c0 0 50 3 87 3h61v-73zM306 73c74 0 138 53 138 171c0 104 -46 164 -138 164
c-72 0 -140 -50 -140 -164c0 -111 49 -171 140 -171zM256 -142c0 30 23 54 53 54s54 -23 54 -54c0 -30 -24 -54 -54 -54s-53 24 -53 54zM254 611c0 29 25 54 54 54c30 0 55 -24 55 -54s-25 -55 -55 -55c-29 0 -54 25 -54 55z" />
    <glyph glyph-name="uni06A3.fina" unicode="&#x6a3;" horiz-adv-x="951" 
d="M951 73v-73h-528c-252 0 -349 101 -349 291c0 61 14 127 32 167l99 16c-24 -47 -39 -116 -39 -172c0 -152 62 -229 259 -229h54c-42 30 -64 88 -64 164c0 136 92 244 242 244c127 0 223 -65 223 -233c0 -71 -27 -141 -77 -178c0 0 50 3 86 3h62zM787 244
c0 104 -46 164 -138 164c-72 0 -141 -50 -141 -165c0 -110 50 -170 140 -170c75 0 139 53 139 171zM597 609c0 29 25 54 54 54c30 0 55 -24 55 -54s-25 -55 -55 -55c-29 0 -54 25 -54 55zM440 -142c0 30 23 54 53 54s54 -23 54 -54c0 -30 -24 -54 -54 -54s-53 24 -53 54z
" />
    <glyph glyph-name="uni06A5.init" unicode="&#x6a5;" horiz-adv-x="619" 
d="M539 0h-554c-20 0 -60 13 -60 37c0 22 40 36 60 36h106c35 0 58 -5 58 -5c-49 31 -74 84 -74 169c0 129 85 244 250 244c143 0 214 -81 214 -224v-257zM449 73v169c0 119 -49 166 -132 166c-93 0 -149 -66 -149 -166c0 -114 54 -169 182 -169h99zM274 -219
c0 29 23 52 52 52c28 0 52 -22 52 -52c0 -28 -24 -52 -52 -52c-29 0 -52 23 -52 52zM346 -108c0 28 23 51 51 51c29 0 52 -22 52 -51c0 -28 -23 -51 -52 -51c-28 0 -51 22 -51 51zM203 -108c0 28 24 51 52 51s51 -22 51 -51c0 -28 -23 -51 -51 -51c-29 0 -52 22 -52 51z" />
    <glyph glyph-name="uni06A5.medi" unicode="&#x6a5;" horiz-adv-x="608" 
d="M608 0h-623c-20 0 -60 13 -60 37c0 22 40 36 60 36h82c34 0 71 -3 71 -3c-42 31 -66 87 -66 167c0 136 92 244 242 244c127 0 223 -65 223 -233c0 -71 -27 -141 -77 -178c0 0 50 3 87 3h61v-73zM306 73c74 0 138 53 138 171c0 104 -46 164 -138 164
c-72 0 -140 -50 -140 -164c0 -111 49 -171 140 -171zM260 -219c0 29 23 52 52 52c28 0 52 -22 52 -52c0 -28 -24 -52 -52 -52c-29 0 -52 23 -52 52zM332 -108c0 28 23 51 51 51c29 0 52 -22 52 -51c0 -28 -23 -51 -52 -51c-28 0 -51 22 -51 51zM189 -108c0 28 24 51 52 51
s51 -22 51 -51c0 -28 -23 -51 -51 -51c-29 0 -52 22 -52 51z" />
    <glyph glyph-name="uni06A5.fina" unicode="&#x6a5;" horiz-adv-x="951" 
d="M951 73v-73h-528c-252 0 -349 101 -349 291c0 61 14 127 32 167l99 16c-24 -47 -39 -116 -39 -172c0 -152 62 -229 259 -229h54c-42 30 -64 88 -64 164c0 136 92 244 242 244c127 0 223 -65 223 -233c0 -71 -27 -141 -77 -178c0 0 50 3 86 3h62zM787 244
c0 104 -46 164 -138 164c-72 0 -141 -50 -141 -165c0 -110 50 -170 140 -170c75 0 139 53 139 171zM610 -219c0 29 23 52 52 52c28 0 52 -22 52 -52c0 -28 -24 -52 -52 -52c-29 0 -52 23 -52 52zM682 -108c0 28 23 51 51 51c29 0 52 -22 52 -51c0 -28 -23 -51 -52 -51
c-28 0 -51 22 -51 51zM539 -108c0 28 24 51 52 51s51 -22 51 -51c0 -28 -23 -51 -51 -51c-29 0 -52 22 -52 51z" />
    <glyph glyph-name="uni06A6" unicode="&#x6a6;" horiz-adv-x="939" arabic-form="isolated" 
d="M880 248c0 -140 -95 -248 -243 -248h-214c-252 0 -349 101 -349 291c0 61 14 127 32 167l99 16c-24 -47 -39 -116 -39 -172c0 -152 62 -229 259 -229h54c-42 30 -64 88 -64 164c0 136 92 244 242 244c127 0 223 -65 223 -233zM787 244c0 104 -46 164 -138 164
c-72 0 -141 -50 -141 -165c0 -110 50 -170 140 -170c75 0 139 53 139 171zM724 559c-28 0 -51 22 -51 51c0 28 23 51 51 51s52 -22 52 -51c0 -28 -24 -51 -52 -51zM581 559c-28 0 -51 22 -51 51c0 28 23 51 51 51s51 -22 51 -51c0 -28 -23 -51 -51 -51zM724 702
c-28 0 -51 22 -51 51c0 28 23 51 51 51s52 -22 52 -51c0 -28 -24 -51 -52 -51zM581 702c-28 0 -51 22 -51 51c0 28 23 51 51 51s51 -22 51 -51c0 -28 -23 -51 -51 -51z" />
    <glyph glyph-name="uniFB6F" unicode="&#x6a6;" horiz-adv-x="951" arabic-form="final" 
d="M951 73v-73h-528c-252 0 -349 101 -349 291c0 61 14 127 32 167l99 16c-24 -47 -39 -116 -39 -172c0 -152 62 -229 259 -229h54c-42 30 -64 88 -64 164c0 136 92 244 242 244c127 0 223 -65 223 -233c0 -71 -27 -141 -77 -178c0 0 50 3 86 3h62zM787 244
c0 104 -46 164 -138 164c-72 0 -141 -50 -141 -165c0 -110 50 -170 140 -170c75 0 139 53 139 171zM724 559c-28 0 -51 22 -51 51c0 28 23 51 51 51s52 -22 52 -51c0 -28 -24 -51 -52 -51zM581 559c-28 0 -51 22 -51 51c0 28 23 51 51 51s51 -22 51 -51
c0 -28 -23 -51 -51 -51zM724 702c-28 0 -51 22 -51 51c0 28 23 51 51 51s52 -22 52 -51c0 -28 -24 -51 -52 -51zM581 702c-28 0 -51 22 -51 51c0 28 23 51 51 51s51 -22 51 -51c0 -28 -23 -51 -51 -51z" />
    <glyph glyph-name="uniFB70" unicode="&#x6a6;" horiz-adv-x="619" arabic-form="initial" 
d="M539 0h-554c-20 0 -60 13 -60 37c0 22 40 36 60 36h106c35 0 58 -5 58 -5c-49 31 -74 84 -74 169c0 129 85 244 250 244c143 0 214 -81 214 -224v-257zM449 73v169c0 119 -49 166 -132 166c-93 0 -149 -66 -149 -166c0 -114 54 -169 182 -169h99zM385 559
c-28 0 -51 22 -51 51c0 28 23 51 51 51s52 -22 52 -51c0 -28 -24 -51 -52 -51zM242 559c-28 0 -51 22 -51 51c0 28 23 51 51 51s51 -22 51 -51c0 -28 -23 -51 -51 -51zM385 702c-28 0 -51 22 -51 51c0 28 23 51 51 51s52 -22 52 -51c0 -28 -24 -51 -52 -51zM242 702
c-28 0 -51 22 -51 51c0 28 23 51 51 51s51 -22 51 -51c0 -28 -23 -51 -51 -51z" />
    <glyph glyph-name="uniFB71" unicode="&#x6a6;" horiz-adv-x="608" arabic-form="medial" 
d="M608 0h-623c-20 0 -60 13 -60 37c0 22 40 36 60 36h82c34 0 71 -3 71 -3c-42 31 -66 87 -66 167c0 136 92 244 242 244c127 0 223 -65 223 -233c0 -71 -27 -141 -77 -178c0 0 50 3 87 3h61v-73zM306 73c74 0 138 53 138 171c0 104 -46 164 -138 164
c-72 0 -140 -50 -140 -164c0 -111 49 -171 140 -171zM382 559c-28 0 -51 22 -51 51c0 28 23 51 51 51s52 -22 52 -51c0 -28 -24 -51 -52 -51zM239 559c-28 0 -51 22 -51 51c0 28 23 51 51 51s51 -22 51 -51c0 -28 -23 -51 -51 -51zM382 702c-28 0 -51 22 -51 51
c0 28 23 51 51 51s52 -22 52 -51c0 -28 -24 -51 -52 -51zM239 702c-28 0 -51 22 -51 51c0 28 23 51 51 51s51 -22 51 -51c0 -28 -23 -51 -51 -51z" />
    <glyph glyph-name="uni06A7.init" unicode="&#x6a7;" horiz-adv-x="619" 
d="M539 0h-554c-20 0 -60 13 -60 37c0 22 40 36 60 36h106c35 0 58 -5 58 -5c-49 31 -74 84 -74 169c0 129 85 244 250 244c143 0 214 -81 214 -224v-257zM449 73v169c0 119 -49 166 -132 166c-93 0 -149 -66 -149 -166c0 -114 54 -169 182 -169h99zM260 609
c0 29 25 54 54 54c30 0 55 -24 55 -54s-25 -55 -55 -55c-29 0 -54 25 -54 55z" />
    <glyph glyph-name="uni06A7.medi" unicode="&#x6a7;" horiz-adv-x="608" 
d="M608 0h-623c-20 0 -60 13 -60 37c0 22 40 36 60 36h82c34 0 71 -3 71 -3c-42 31 -66 87 -66 167c0 136 92 244 242 244c127 0 223 -65 223 -233c0 -71 -27 -141 -77 -178c0 0 50 3 87 3h61v-73zM306 73c74 0 138 53 138 171c0 104 -46 164 -138 164
c-72 0 -140 -50 -140 -164c0 -111 49 -171 140 -171zM254 611c0 29 25 54 54 54c30 0 55 -24 55 -54s-25 -55 -55 -55c-29 0 -54 25 -54 55z" />
    <glyph glyph-name="uni06A7.fina" unicode="&#x6a7;" horiz-adv-x="932" 
d="M802 446v-373h130v-73h-130v-238s-164 -13 -302 -13c-308 0 -433 92 -433 303c0 62 8 127 24 186l95 18c-18 -66 -27 -134 -27 -194c0 -173 95 -240 354 -240c95 0 199 8 199 8v170h-100c-192 0 -263 91 -263 234c0 131 82 247 252 247c110 0 201 -35 201 -35zM712 73
v312s-48 23 -121 23c-92 0 -149 -66 -149 -165c0 -114 54 -170 183 -170h87zM547 609c0 29 25 54 54 54c30 0 55 -24 55 -54s-25 -55 -55 -55c-29 0 -54 25 -54 55z" />
    <glyph glyph-name="uni06A8.init" unicode="&#x6a8;" horiz-adv-x="619" 
d="M539 0h-554c-20 0 -60 13 -60 37c0 22 40 36 60 36h106c35 0 58 -5 58 -5c-49 31 -74 84 -74 169c0 129 85 244 250 244c143 0 214 -81 214 -224v-257zM449 73v169c0 119 -49 166 -132 166c-93 0 -149 -66 -149 -166c0 -114 54 -169 182 -169h99zM189 608
c0 28 23 52 52 52s52 -23 52 -52s-23 -53 -52 -53s-52 23 -52 53zM336 608c0 28 24 52 52 52c29 0 53 -23 53 -52s-24 -53 -53 -53c-28 0 -52 23 -52 53zM263 721c0 29 23 53 52 53s52 -23 52 -53c0 -28 -23 -52 -52 -52s-52 23 -52 52z" />
    <glyph glyph-name="uni06A8.medi" unicode="&#x6a8;" horiz-adv-x="608" 
d="M608 0h-623c-20 0 -60 13 -60 37c0 22 40 36 60 36h82c34 0 71 -3 71 -3c-42 31 -66 87 -66 167c0 136 92 244 242 244c127 0 223 -65 223 -233c0 -71 -27 -141 -77 -178c0 0 50 3 87 3h61v-73zM306 73c74 0 138 53 138 171c0 104 -46 164 -138 164
c-72 0 -140 -50 -140 -164c0 -111 49 -171 140 -171zM183 608c0 28 23 52 52 52s52 -23 52 -52s-23 -53 -52 -53s-52 23 -52 53zM330 608c0 28 24 52 52 52c29 0 53 -23 53 -52s-24 -53 -53 -53c-28 0 -52 23 -52 53zM257 721c0 29 23 53 52 53s52 -23 52 -53
c0 -28 -23 -52 -52 -52s-52 23 -52 52z" />
    <glyph glyph-name="uni06A8.fina" unicode="&#x6a8;" horiz-adv-x="932" 
d="M802 446v-373h130v-73h-130v-238s-164 -13 -302 -13c-308 0 -433 92 -433 303c0 62 8 127 24 186l95 18c-18 -66 -27 -134 -27 -194c0 -173 95 -240 354 -240c95 0 199 8 199 8v170h-100c-192 0 -263 91 -263 234c0 131 82 247 252 247c110 0 201 -35 201 -35zM712 73
v312s-48 23 -121 23c-92 0 -149 -66 -149 -165c0 -114 54 -170 183 -170h87zM632 608c0 28 24 52 52 52c29 0 53 -23 53 -52s-24 -53 -53 -53c-28 0 -52 23 -52 53zM559 721c0 29 23 53 52 53s52 -23 52 -53c0 -28 -23 -52 -52 -52s-52 23 -52 52zM485 608c0 28 23 52 52 52
s52 -23 52 -52s-23 -53 -52 -53s-52 23 -52 53z" />
    <glyph glyph-name="uni06AA.init" unicode="&#x6aa;" horiz-adv-x="1036" 
d="M952 0h-967c-20 0 -60 13 -60 37c0 22 40 36 60 36h870c0 172 -86 198 -349 198h-484v84l217 242h113l-232 -252h328c347 0 504 -17 504 -294v-51z" />
    <glyph glyph-name="uni06AA.medi" unicode="&#x6aa;" horiz-adv-x="1016" 
d="M-15 0c-20 0 -60 13 -60 37c0 22 40 36 60 36h870c0 172 -86 198 -349 198h-484v84l217 242h113l-232 -252h328c337 0 495 -16 503 -272h65v-73h-1031z" />
    <glyph glyph-name="uni06AA.fina" unicode="&#x6aa;" horiz-adv-x="1529" 
d="M423 0c-252 0 -349 101 -349 291c0 61 14 127 32 167l99 16c-24 -47 -39 -116 -39 -172c0 -151 61 -228 266 -229h936c0 172 -88 198 -349 198h-584v84l217 242h113l-231 -252h427c337 0 495 -16 503 -272h65v-73h-1106z" />
    <glyph glyph-name="uni06AB.init" unicode="&#x6ab;" horiz-adv-x="459" 
d="M383 548c0 -55 -39 -99 -94 -99c-44 0 -77 23 -84 72l-92 -58c171 -63 262 -177 262 -412v-51h-390c-20 0 -60 13 -60 37c0 22 40 36 60 36h296c-4 199 -88 291 -259 342v76l400 248v-90l-64 -32c16 -16 25 -39 25 -69zM322 544c0 26 -10 39 -29 39
c-14 0 -29 -14 -29 -39c0 -26 11 -38 29 -38c16 0 29 14 29 38z" />
    <glyph glyph-name="uni06AB.medi" unicode="&#x6ab;" horiz-adv-x="449" 
d="M383 548c0 -55 -39 -99 -94 -99c-44 0 -77 23 -84 72l-92 -58c165 -61 256 -170 262 -390h74v-73h-464c-20 0 -60 13 -60 37c0 22 40 36 60 36h296c-4 199 -88 291 -259 342v76l400 248v-90l-64 -32c16 -16 25 -39 25 -69zM322 544c0 26 -10 39 -29 39
c-14 0 -29 -14 -29 -39c0 -26 11 -38 29 -38c16 0 29 14 29 38z" />
    <glyph glyph-name="uni06AB.fina" unicode="&#x6ab;" horiz-adv-x="856" 
d="M791 549c0 -55 -38 -97 -94 -97c-43 0 -78 20 -86 69l-92 -58c165 -61 256 -170 262 -390h74v-73h-432c-252 0 -349 101 -349 291c0 61 14 127 32 167l99 16c-24 -47 -39 -116 -39 -172c0 -152 60 -229 269 -229h252c-4 199 -88 291 -259 342v76l400 248v-90l-62 -31
c16 -15 25 -38 25 -69zM730 546c0 28 -11 41 -30 41c-15 0 -30 -12 -30 -41c0 -28 11 -41 30 -41c16 0 30 14 30 41z" />
    <glyph glyph-name="uni06AC.init" unicode="&#x6ac;" horiz-adv-x="459" 
d="M375 0h-390c-20 0 -60 13 -60 37c0 22 40 36 60 36h299c-3 196 -87 292 -262 342v68l379 238v-93l-272 -166c156 -65 246 -176 246 -411v-51zM122 705c0 29 25 54 54 54c30 0 55 -24 55 -54s-25 -55 -55 -55c-29 0 -54 25 -54 55z" />
    <glyph glyph-name="uni06AC.medi" unicode="&#x6ac;" horiz-adv-x="449" 
d="M-15 0c-20 0 -60 13 -60 37c0 22 40 36 60 36h299c-3 196 -87 292 -262 342v68l379 238v-93l-272 -166c151 -63 240 -169 246 -389h74v-73h-464zM122 705c0 29 25 54 54 54c30 0 55 -24 55 -54s-25 -55 -55 -55c-29 0 -54 25 -54 55z" />
    <glyph glyph-name="uni06AC.fina" unicode="&#x6ac;" horiz-adv-x="897" 
d="M423 0c-252 0 -349 101 -349 291c0 61 14 127 32 167l99 16c-24 -47 -39 -116 -39 -172c0 -152 60 -229 269 -229h240v632h92v-632h130v-73h-474zM323 407v55c27 0 54 -3 71 -6c-20 9 -31 31 -31 50c0 46 37 96 129 96c22 0 42 -3 54 -5l-10 -54c-9 1 -30 5 -50 5
c-38 0 -56 -17 -56 -41c0 -26 20 -45 79 -45h56v-55h-242zM412 711c0 29 25 54 54 54c30 0 55 -24 55 -54s-25 -55 -55 -55c-29 0 -54 25 -54 55z" />
    <glyph glyph-name="uni06AD" unicode="&#x6ad;" horiz-adv-x="888" arabic-form="isolated" 
d="M423 0c-252 0 -349 101 -349 291c0 61 14 127 32 167l99 16c-24 -47 -39 -116 -39 -172c0 -152 60 -229 269 -229h263v632h92v-705h-367zM316 325v55c27 0 54 -3 71 -6c-20 9 -31 31 -31 50c0 46 37 96 129 96c22 0 42 -3 54 -5l-10 -54c-9 1 -30 5 -50 5
c-38 0 -56 -17 -56 -41c0 -26 20 -45 79 -45h56v-55h-242zM326 625c0 28 23 52 52 52s52 -23 52 -52s-23 -53 -52 -53s-52 23 -52 53zM473 625c0 28 24 52 52 52c29 0 53 -23 53 -52s-24 -53 -53 -53c-28 0 -52 23 -52 53zM400 738c0 29 23 53 52 53s52 -23 52 -53
c0 -28 -23 -52 -52 -52s-52 23 -52 52z" />
    <glyph glyph-name="uniFBD4" unicode="&#x6ad;" horiz-adv-x="919" arabic-form="final" 
d="M423 0c-252 0 -349 101 -349 291c0 61 14 127 32 167l99 16c-24 -47 -39 -116 -39 -172c0 -152 60 -229 269 -229h263v632h92v-632h129v-73h-496zM316 325v55c27 0 54 -3 71 -6c-20 9 -31 31 -31 50c0 46 37 96 129 96c22 0 42 -3 54 -5l-10 -54c-9 1 -30 5 -50 5
c-38 0 -56 -17 -56 -41c0 -26 20 -45 79 -45h56v-55h-242zM473 625c0 28 24 52 52 52c29 0 53 -23 53 -52s-24 -53 -53 -53c-28 0 -52 23 -52 53zM400 738c0 29 23 53 52 53s52 -23 52 -53c0 -28 -23 -52 -52 -52s-52 23 -52 52zM326 625c0 28 23 52 52 52s52 -23 52 -52
s-23 -53 -52 -53s-52 23 -52 53z" />
    <glyph glyph-name="uniFBD5" unicode="&#x6ad;" horiz-adv-x="459" arabic-form="initial" 
d="M375 0h-390c-20 0 -60 13 -60 37c0 22 40 36 60 36h299c-3 196 -87 295 -262 345v68l379 222v-91l-272 -158c156 -65 246 -173 246 -408v-51zM179 677c0 -28 -23 -50 -51 -50s-51 22 -51 50c0 29 23 51 51 51s51 -22 51 -51zM304 736c0 -28 -22 -50 -51 -50
c-28 0 -51 22 -51 50c0 29 23 51 51 51c29 0 51 -22 51 -51zM195 808c0 -28 -22 -51 -50 -51s-51 22 -51 51c0 28 23 51 51 51s50 -22 50 -51z" />
    <glyph glyph-name="uniFBD6" unicode="&#x6ad;" horiz-adv-x="449" arabic-form="medial" 
d="M449 0h-464c-20 0 -60 13 -60 37c0 22 40 36 60 36h299c-3 196 -87 295 -262 345v68l379 222v-91l-272 -158c151 -63 240 -166 246 -386h74v-73zM304 736c0 -28 -22 -50 -51 -50c-28 0 -51 22 -51 50c0 29 23 51 51 51c29 0 51 -22 51 -51zM195 808
c0 -28 -22 -51 -50 -51s-51 22 -51 51c0 28 23 51 51 51s50 -22 50 -51zM179 677c0 -28 -23 -50 -51 -50s-51 22 -51 50c0 29 23 51 51 51s51 -22 51 -51z" />
    <glyph glyph-name="uni06AE.init" unicode="&#x6ae;" horiz-adv-x="459" 
d="M375 0h-390c-20 0 -60 13 -60 37c0 22 40 36 60 36h299c-3 196 -87 292 -262 342v68l379 238v-93l-272 -166c156 -65 246 -176 246 -411v-51zM144 -219c0 29 23 52 52 52c28 0 52 -22 52 -52c0 -28 -24 -52 -52 -52c-29 0 -52 23 -52 52zM216 -108c0 28 23 51 51 51
c29 0 52 -22 52 -51c0 -28 -23 -51 -52 -51c-28 0 -51 22 -51 51zM73 -108c0 28 24 51 52 51s51 -22 51 -51c0 -28 -23 -51 -51 -51c-29 0 -52 22 -52 51z" />
    <glyph glyph-name="uni06AE.medi" unicode="&#x6ae;" horiz-adv-x="449" 
d="M-15 0c-20 0 -60 13 -60 37c0 22 40 36 60 36h299c-3 196 -87 292 -262 342v68l379 238v-93l-272 -166c151 -63 240 -169 246 -389h74v-73h-464zM164 -219c0 29 23 52 52 52c28 0 52 -22 52 -52c0 -28 -24 -52 -52 -52c-29 0 -52 23 -52 52zM236 -108c0 28 23 51 51 51
c29 0 52 -22 52 -51c0 -28 -23 -51 -52 -51c-28 0 -51 22 -51 51zM93 -108c0 28 24 51 52 51s51 -22 51 -51c0 -28 -23 -51 -51 -51c-29 0 -52 22 -52 51z" />
    <glyph glyph-name="uni06AE.fina" unicode="&#x6ae;" horiz-adv-x="897" 
d="M423 0c-252 0 -349 101 -349 291c0 61 14 127 32 167l99 16c-24 -47 -39 -116 -39 -172c0 -152 60 -229 269 -229h240v632h92v-632h130v-73h-474zM323 407v55c27 0 54 -3 71 -6c-20 9 -31 31 -31 50c0 46 37 96 129 96c22 0 42 -3 54 -5l-10 -54c-9 1 -30 5 -50 5
c-38 0 -56 -17 -56 -41c0 -26 20 -45 79 -45h56v-55h-242zM409 -219c0 29 23 52 52 52c28 0 52 -22 52 -52c0 -28 -24 -52 -52 -52c-29 0 -52 23 -52 52zM481 -108c0 28 23 51 51 51c29 0 52 -22 52 -51c0 -28 -23 -51 -52 -51c-28 0 -51 22 -51 51zM338 -108
c0 28 24 51 52 51s51 -22 51 -51c0 -28 -23 -51 -51 -51c-29 0 -52 22 -52 51z" />
    <glyph glyph-name="uni06B0.init" unicode="&#x6b0;" horiz-adv-x="459" 
d="M383 548c0 -55 -39 -99 -94 -99c-44 0 -77 23 -84 72l-92 -58c171 -63 262 -177 262 -412v-51h-390c-20 0 -60 13 -60 37c0 22 40 36 60 36h296c-4 199 -88 291 -259 342v76l400 248v-90l-64 -32c16 -16 25 -39 25 -69zM22 546v78l400 251v-77zM322 544
c0 26 -10 39 -29 39c-14 0 -29 -14 -29 -39c0 -26 11 -38 29 -38c16 0 29 14 29 38z" />
    <glyph glyph-name="uni06B0.medi" unicode="&#x6b0;" horiz-adv-x="449" 
d="M383 548c0 -55 -39 -99 -94 -99c-44 0 -77 23 -84 72l-92 -58c165 -61 256 -170 262 -390h74v-73h-464c-20 0 -60 13 -60 37c0 22 40 36 60 36h296c-4 199 -88 291 -259 342v76l400 248v-90l-64 -32c16 -16 25 -39 25 -69zM22 546v78l400 251v-77zM322 544
c0 26 -10 39 -29 39c-14 0 -29 -14 -29 -39c0 -26 11 -38 29 -38c16 0 29 14 29 38z" />
    <glyph glyph-name="uni06B0.fina" unicode="&#x6b0;" horiz-adv-x="856" 
d="M791 549c0 -55 -38 -97 -94 -97c-43 0 -78 20 -86 69l-92 -58c165 -61 256 -170 262 -390h74v-73h-432c-252 0 -349 101 -349 291c0 61 14 127 32 167l99 16c-24 -47 -39 -116 -39 -172c0 -152 60 -229 269 -229h252c-4 199 -88 291 -259 342v76l400 248v-90l-62 -31
c16 -15 25 -38 25 -69zM428 544v79l400 251v-78zM730 546c0 28 -11 41 -30 41c-15 0 -30 -12 -30 -41c0 -28 11 -41 30 -41c16 0 30 14 30 41z" />
    <glyph glyph-name="uni06B1" unicode="&#x6b1;" horiz-adv-x="866" arabic-form="isolated" 
d="M781 0h-358c-252 0 -349 101 -349 291c0 61 14 127 32 167l99 16c-24 -47 -39 -116 -39 -172c0 -152 60 -229 269 -229h255c-3 196 -87 292 -262 342v64l379 238v-89l-272 -166c155 -65 246 -176 246 -411v-51zM428 566v83l379 239v-84zM597 836c-28 0 -50 20 -50 49
c0 27 22 49 50 49c27 0 49 -21 49 -49s-22 -49 -49 -49zM474 776c-27 0 -49 21 -49 49c0 27 22 49 49 49c28 0 50 -21 50 -49s-22 -49 -50 -49z" />
    <glyph glyph-name="uniFB9B" unicode="&#x6b1;" horiz-adv-x="856" arabic-form="final" 
d="M855 0h-432c-252 0 -349 101 -349 291c0 61 14 127 32 167l99 16c-24 -47 -39 -116 -39 -172c0 -152 60 -229 269 -229h255c-3 196 -87 292 -262 342v64l379 238v-89l-272 -166c150 -63 240 -169 246 -389h74v-73zM428 566v83l379 239v-84zM597 836c-28 0 -50 20 -50 49
c0 27 22 49 50 49c27 0 49 -21 49 -49s-22 -49 -49 -49zM474 776c-27 0 -49 21 -49 49c0 27 22 49 49 49c28 0 50 -21 50 -49s-22 -49 -50 -49z" />
    <glyph glyph-name="uniFB9C" unicode="&#x6b1;" horiz-adv-x="459" arabic-form="initial" 
d="M375 0h-390c-20 0 -60 13 -60 37c0 22 40 36 60 36h299c-3 196 -87 292 -262 342v64l379 227v-89l-274 -161c154 -60 248 -170 248 -405v-51zM22 542v83l379 227v-84zM197 792c-27 0 -49 21 -49 50c0 27 22 49 49 49s50 -21 50 -49s-23 -50 -50 -50zM75 732
c-27 0 -49 21 -49 50c0 27 22 49 49 49c28 0 50 -21 50 -49s-22 -50 -50 -50z" />
    <glyph glyph-name="uniFB9D" unicode="&#x6b1;" horiz-adv-x="449" arabic-form="medial" 
d="M449 0h-464c-20 0 -60 13 -60 37c0 22 40 36 60 36h299c-3 196 -87 292 -262 342v64l379 227v-89l-274 -161c149 -58 242 -163 248 -383h74v-73zM22 542v83l379 227v-84zM75 732c-27 0 -49 21 -49 50c0 27 22 49 49 49c28 0 50 -21 50 -49s-22 -50 -50 -50zM197 792
c-27 0 -49 21 -49 50c0 27 22 49 49 49s50 -21 50 -49s-23 -50 -50 -50z" />
    <glyph glyph-name="uni06B2.init" unicode="&#x6b2;" horiz-adv-x="459" 
d="M375 0h-390c-20 0 -60 13 -60 37c0 22 40 36 60 36h299c-3 196 -87 292 -262 342v64l379 238v-89l-272 -166c156 -65 246 -176 246 -411v-51zM22 541v83l379 238v-84zM83 -144c0 29 23 53 52 53s52 -23 52 -53c0 -28 -23 -52 -52 -52s-52 24 -52 52zM228 -144
c0 29 23 53 52 53c28 0 52 -23 52 -53c0 -28 -23 -52 -52 -52s-52 24 -52 52z" />
    <glyph glyph-name="uni06B2.medi" unicode="&#x6b2;" horiz-adv-x="449" 
d="M-15 0c-20 0 -60 13 -60 37c0 22 40 36 60 36h299c-3 196 -87 292 -262 342v64l379 238v-89l-272 -166c151 -63 240 -169 246 -389h74v-73h-464zM22 541v83l379 238v-84zM94 -144c0 29 23 53 52 53s52 -23 52 -53c0 -28 -23 -52 -52 -52s-52 24 -52 52zM239 -144
c0 29 23 53 52 53c28 0 52 -23 52 -53c0 -28 -23 -52 -52 -52s-52 24 -52 52z" />
    <glyph glyph-name="uni06B2.fina" unicode="&#x6b2;" horiz-adv-x="856" 
d="M855 0h-432c-252 0 -349 101 -349 291c0 61 14 127 32 167l99 16c-24 -47 -39 -116 -39 -172c0 -152 60 -229 269 -229h255c-3 196 -87 292 -262 342v64l379 238v-89l-272 -166c150 -63 240 -169 246 -389h74v-73zM428 566v83l379 239v-84zM351 -144c0 29 23 53 52 53
s52 -23 52 -53c0 -28 -23 -52 -52 -52s-52 24 -52 52zM496 -144c0 29 23 53 52 53c28 0 52 -23 52 -53c0 -28 -23 -52 -52 -52s-52 24 -52 52z" />
    <glyph glyph-name="uni06B3" unicode="&#x6b3;" horiz-adv-x="866" arabic-form="isolated" 
d="M781 0h-358c-252 0 -349 101 -349 291c0 61 14 127 32 167l99 16c-24 -47 -39 -116 -39 -172c0 -152 60 -229 269 -229h255c-3 196 -87 292 -262 342v64l379 238v-89l-272 -166c155 -65 246 -176 246 -411v-51zM428 566v83l379 239v-84zM447 -271c-28 0 -49 21 -49 49
s21 50 49 50c27 0 49 -21 49 -50c0 -27 -22 -49 -49 -49zM447 -141c-28 0 -49 21 -49 49c0 27 21 49 49 49c27 0 49 -21 49 -49s-22 -49 -49 -49z" />
    <glyph glyph-name="uniFB97" unicode="&#x6b3;" horiz-adv-x="856" arabic-form="final" 
d="M423 0c-252 0 -349 101 -349 291c0 61 14 127 32 167l99 16c-24 -47 -39 -116 -39 -172c0 -152 60 -229 269 -229h255c-3 196 -87 292 -262 342v64l379 238v-89l-272 -166c150 -63 240 -169 246 -389h74v-73h-432zM428 566v83l379 239v-84zM447 -271c-28 0 -49 21 -49 49
s21 50 49 50c27 0 49 -21 49 -50c0 -27 -22 -49 -49 -49zM447 -141c-28 0 -49 21 -49 49c0 27 21 49 49 49c27 0 49 -21 49 -49s-22 -49 -49 -49z" />
    <glyph glyph-name="uniFB98" unicode="&#x6b3;" horiz-adv-x="459" arabic-form="initial" 
d="M375 0h-390c-20 0 -60 13 -60 37c0 22 40 36 60 36h299c-3 196 -87 292 -262 342v64l379 238v-89l-272 -166c156 -65 246 -176 246 -411v-51zM22 541v83l379 238v-84zM177 -271c-28 0 -49 21 -49 49s21 50 49 50c27 0 49 -21 49 -50c0 -27 -22 -49 -49 -49zM177 -141
c-28 0 -49 21 -49 49c0 27 21 49 49 49c27 0 49 -21 49 -49s-22 -49 -49 -49z" />
    <glyph glyph-name="uniFB99" unicode="&#x6b3;" horiz-adv-x="449" arabic-form="medial" 
d="M449 0h-464c-20 0 -60 13 -60 37c0 22 40 36 60 36h299c-3 196 -87 292 -262 342v64l379 238v-89l-272 -166c151 -63 240 -169 246 -389h74v-73zM22 541v83l379 238v-84zM177 -271c-28 0 -49 21 -49 49s21 50 49 50c27 0 49 -21 49 -50c0 -27 -22 -49 -49 -49zM177 -141
c-28 0 -49 21 -49 49c0 27 21 49 49 49c27 0 49 -21 49 -49s-22 -49 -49 -49z" />
    <glyph glyph-name="uni06B4.init" unicode="&#x6b4;" horiz-adv-x="459" 
d="M375 0h-390c-20 0 -60 13 -60 37c0 22 40 36 60 36h299c-3 196 -87 292 -262 342v59l379 237v-83l-275 -168c157 -61 249 -174 249 -409v-51zM22 529v78l379 238v-78zM209 785c-27 0 -49 20 -49 48c0 27 22 49 49 49s48 -21 48 -49c0 -27 -21 -48 -48 -48zM101 839
c-27 0 -49 20 -49 48c0 27 22 49 49 49c26 0 48 -21 48 -49c0 -27 -22 -48 -48 -48zM79 716c-26 0 -48 21 -48 49c0 27 22 48 48 48c28 0 49 -21 49 -48s-21 -49 -49 -49z" />
    <glyph glyph-name="uni06B4.medi" unicode="&#x6b4;" horiz-adv-x="449" 
d="M449 0h-464c-20 0 -60 13 -60 37c0 22 40 36 60 36h299c-3 196 -87 292 -262 342v59l379 237v-83l-275 -168c152 -59 243 -167 249 -387h74v-73zM22 529v78l379 238v-78zM209 785c-27 0 -49 20 -49 48c0 27 22 49 49 49s48 -21 48 -49c0 -27 -21 -48 -48 -48zM79 716
c-26 0 -48 21 -48 49c0 27 22 48 48 48c28 0 49 -21 49 -48s-21 -49 -49 -49zM101 839c-27 0 -49 20 -49 48c0 27 22 49 49 49c26 0 48 -21 48 -49c0 -27 -22 -48 -48 -48z" />
    <glyph glyph-name="uni06B4.fina" unicode="&#x6b4;" horiz-adv-x="856" 
d="M423 0c-252 0 -349 101 -349 291c0 61 14 127 32 167l99 16c-24 -47 -39 -116 -39 -172c0 -152 60 -229 269 -229h255c-3 196 -87 292 -262 342v59l379 237v-83l-272 -166c150 -63 240 -169 246 -389h74v-73h-432zM428 551v78l379 238v-78zM485 751c-27 0 -48 21 -48 49
c0 27 21 49 48 49s49 -21 49 -49c0 -27 -22 -49 -49 -49zM507 874c-27 0 -49 22 -49 49s22 49 49 49s48 -21 48 -49c0 -27 -21 -49 -48 -49zM615 820c-27 0 -48 21 -48 49c0 27 21 49 48 49c26 0 48 -21 48 -49c0 -27 -22 -49 -48 -49z" />
    <glyph glyph-name="uni06B5.init" unicode="&#x6b5;" 
d="M221 0h-236c-20 0 -60 13 -60 37c0 22 40 36 60 36h144v632h92v-705zM315 875l-139 -131l-139 129l40 44l100 -85l99 85z" />
    <glyph glyph-name="uni06B5.medi" unicode="&#x6b5;" horiz-adv-x="351" 
d="M351 0h-366c-20 0 -60 13 -60 37c0 22 40 36 60 36h144v632h92v-632h130v-73zM315 875l-139 -131l-139 129l40 44l100 -85l99 85z" />
    <glyph glyph-name="uni06B5.fina" unicode="&#x6b5;" horiz-adv-x="682" 
d="M467 51v654h92v-632h122v-73h-125c-18 -162 -114 -231 -244 -231c-137 0 -245 74 -245 279c0 66 8 131 24 190l95 18c-18 -66 -27 -134 -27 -199c0 -171 83 -215 162 -215c81 0 146 50 146 209zM645 875l-139 -131l-139 129l40 44l100 -85l99 85z" />
    <glyph glyph-name="uni06B6.init" unicode="&#x6b6;" 
d="M221 0h-236c-20 0 -60 13 -60 37c0 22 40 36 60 36h144v632h92v-705zM121 819c0 29 25 54 54 54c30 0 55 -24 55 -54s-25 -55 -55 -55c-29 0 -54 25 -54 55z" />
    <glyph glyph-name="uni06B6.medi" unicode="&#x6b6;" horiz-adv-x="351" 
d="M351 0h-366c-20 0 -60 13 -60 37c0 22 40 36 60 36h144v632h92v-632h130v-73zM121 819c0 29 25 54 54 54c30 0 55 -24 55 -54s-25 -55 -55 -55c-29 0 -54 25 -54 55z" />
    <glyph glyph-name="uni06B6.fina" unicode="&#x6b6;" horiz-adv-x="682" 
d="M467 51v654h92v-632h122v-73h-125c-18 -162 -114 -231 -244 -231c-137 0 -245 74 -245 279c0 66 8 131 24 190l95 18c-18 -66 -27 -134 -27 -199c0 -171 83 -215 162 -215c81 0 146 50 146 209zM451 819c0 29 25 54 54 54c30 0 55 -24 55 -54s-25 -55 -55 -55
c-29 0 -54 25 -54 55z" />
    <glyph glyph-name="uni06B7.init" unicode="&#x6b7;" 
d="M221 0h-236c-20 0 -60 13 -60 37c0 22 40 36 60 36h144v614h92v-687zM52 780c0 28 23 52 52 52s52 -23 52 -52s-23 -53 -52 -53s-52 23 -52 53zM199 780c0 28 24 52 52 52c29 0 53 -23 53 -52s-24 -53 -53 -53c-28 0 -52 23 -52 53zM126 893c0 29 23 53 52 53
s52 -23 52 -53c0 -28 -23 -52 -52 -52s-52 23 -52 52z" />
    <glyph glyph-name="uni06B7.medi" unicode="&#x6b7;" horiz-adv-x="351" 
d="M351 0h-366c-20 0 -60 13 -60 37c0 22 40 36 60 36h144v614h92v-614h130v-73zM199 780c0 28 24 52 52 52c29 0 53 -23 53 -52s-24 -53 -53 -53c-28 0 -52 23 -52 53zM126 893c0 29 23 53 52 53s52 -23 52 -53c0 -28 -23 -52 -52 -52s-52 23 -52 52zM52 780
c0 28 23 52 52 52s52 -23 52 -52s-23 -53 -52 -53s-52 23 -52 53z" />
    <glyph glyph-name="uni06B7.fina" unicode="&#x6b7;" horiz-adv-x="682" 
d="M467 51v636h92v-614h122v-73h-125c-18 -162 -114 -231 -244 -231c-137 0 -245 74 -245 279c0 66 8 131 24 190l95 18c-18 -66 -27 -134 -27 -199c0 -171 83 -215 162 -215c81 0 146 50 146 209zM533 780c0 28 24 52 52 52c29 0 53 -23 53 -52s-24 -53 -53 -53
c-28 0 -52 23 -52 53zM460 893c0 29 23 53 52 53s52 -23 52 -53c0 -28 -23 -52 -52 -52s-52 23 -52 52zM386 780c0 28 23 52 52 52s52 -23 52 -52s-23 -53 -52 -53s-52 23 -52 53z" />
    <glyph glyph-name="uni06B8.init" unicode="&#x6b8;" 
d="M221 0h-236c-20 0 -60 13 -60 37c0 22 40 36 60 36h144v632h92v-705zM121 -219c0 29 23 52 52 52c28 0 52 -22 52 -52c0 -28 -24 -52 -52 -52c-29 0 -52 23 -52 52zM193 -108c0 28 23 51 51 51c29 0 52 -22 52 -51c0 -28 -23 -51 -52 -51c-28 0 -51 22 -51 51zM50 -108
c0 28 24 51 52 51s51 -22 51 -51c0 -28 -23 -51 -51 -51c-29 0 -52 22 -52 51z" />
    <glyph glyph-name="uni06B8.medi" unicode="&#x6b8;" horiz-adv-x="351" 
d="M-15 0c-20 0 -60 13 -60 37c0 22 40 36 60 36h144v632h92v-632h130v-73h-366zM122 -219c0 29 23 52 52 52c28 0 52 -22 52 -52c0 -28 -24 -52 -52 -52c-29 0 -52 23 -52 52zM194 -108c0 28 23 51 51 51c29 0 52 -22 52 -51c0 -28 -23 -51 -52 -51c-28 0 -51 22 -51 51z
M51 -108c0 28 24 51 52 51s51 -22 51 -51c0 -28 -23 -51 -51 -51c-29 0 -52 22 -52 51z" />
    <glyph glyph-name="uni06B8.fina" unicode="&#x6b8;" horiz-adv-x="682" 
d="M467 139v566h92v-557c0 -27 -2 -52 -5 -75h127v-73h-146c-39 -99 -120 -142 -223 -142c-137 0 -245 73 -245 279c0 65 8 130 24 190l95 18c-18 -67 -27 -134 -27 -200c0 -171 83 -214 162 -214c81 0 146 49 146 208zM316 -204c28 0 51 -22 51 -51c0 -28 -23 -51 -51 -51
s-51 22 -51 51c0 28 23 51 51 51zM433 -156c28 0 51 -22 51 -51c0 -27 -23 -50 -51 -50s-51 22 -51 50s23 51 51 51zM199 -156c28 0 51 -22 51 -51c0 -27 -23 -50 -51 -50c-27 0 -51 22 -51 50s24 51 51 51z" />
    <glyph glyph-name="uni06B9.init" unicode="&#x6b9;" 
d="M221 0h-236c-20 0 -60 13 -60 37c0 22 40 36 60 36h144v397h92v-470zM121 609c0 29 25 54 54 54c30 0 55 -24 55 -54s-25 -55 -55 -55c-29 0 -54 25 -54 55zM113 -142c0 30 23 54 53 54s54 -23 54 -54c0 -30 -24 -54 -54 -54s-53 24 -53 54z" />
    <glyph glyph-name="uni06B9.medi" unicode="&#x6b9;" horiz-adv-x="351" 
d="M351 0h-366c-20 0 -60 13 -60 37c0 22 40 36 60 36h144v397h92v-397h130v-73zM121 609c0 29 25 54 54 54c30 0 55 -24 55 -54s-25 -55 -55 -55c-29 0 -54 25 -54 55zM120 -142c0 30 23 54 53 54s54 -23 54 -54c0 -30 -24 -54 -54 -54s-53 24 -53 54z" />
    <glyph glyph-name="uni06B9.fina" unicode="&#x6b9;" horiz-adv-x="709" 
d="M579 470v-373c0 -8 0 -16 -1 -24h130v-73h-140c-28 -118 -114 -180 -253 -180c-137 0 -248 73 -248 274c0 62 6 107 21 164l94 15c-16 -59 -23 -110 -23 -170c0 -169 86 -210 165 -210c96 0 163 52 163 198v379h92zM260 419c0 29 25 54 54 54c30 0 55 -24 55 -54
s-25 -55 -55 -55c-29 0 -54 25 -54 55zM272 -266c0 30 23 54 53 54s54 -23 54 -54c0 -30 -24 -54 -54 -54s-53 24 -53 54z" />
    <glyph glyph-name="uni06BB" unicode="&#x6bb;" horiz-adv-x="677" arabic-form="isolated" 
d="M579 470v-419c0 -188 -90 -282 -264 -282c-137 0 -248 74 -248 279c0 66 8 131 24 190l95 18c-18 -66 -27 -134 -27 -199c0 -171 86 -215 165 -215c96 0 163 50 163 203v425h92zM362 475c0 31 -11 53 -41 53c-51 0 -102 -64 -109 -118h71c56 0 79 26 79 65zM212 643v-82
c0 -19 -3 -42 -7 -62h1c25 44 72 77 122 77c60 0 94 -35 94 -94c0 -72 -49 -119 -148 -119h-120v280h58z" />
    <glyph glyph-name="uniFBA1" unicode="&#x6bb;" horiz-adv-x="709" arabic-form="final" 
d="M579 470v-397h129v-73h-132c-15 -154 -104 -231 -261 -231c-137 0 -248 74 -248 279c0 66 8 131 24 190l95 18c-18 -66 -27 -134 -27 -199c0 -171 86 -215 165 -215c96 0 163 50 163 203v425h92zM212 643v-82c0 -19 -3 -42 -7 -62h1c25 44 72 77 122 77
c60 0 94 -35 94 -94c0 -72 -49 -119 -148 -119h-120v280h58zM362 475c0 31 -11 53 -41 53c-51 0 -102 -64 -109 -118h71c56 0 79 26 79 65z" />
    <glyph glyph-name="uniFBA2" unicode="&#x6bb;" arabic-form="initial" 
d="M221 0h-236c-20 0 -60 13 -60 37c0 22 40 36 60 36h144v397h92v-470zM252 690c0 31 -11 53 -41 53c-51 0 -102 -64 -109 -118h71c56 0 79 26 79 65zM102 858v-82c0 -19 -3 -42 -7 -62h1c25 44 72 77 122 77c60 0 94 -35 94 -94c0 -72 -49 -119 -148 -119h-120v280h58z
" />
    <glyph glyph-name="uniFBA3" unicode="&#x6bb;" horiz-adv-x="351" arabic-form="medial" 
d="M-15 0c-20 0 -60 13 -60 37c0 22 40 36 60 36h144v397h92v-397h130v-73h-366zM109 858v-82c0 -19 -3 -42 -7 -62h1c25 44 72 77 122 77c60 0 94 -35 94 -94c0 -72 -49 -119 -148 -119h-120v280h58zM259 690c0 31 -11 53 -41 53c-51 0 -102 -64 -109 -118h71
c56 0 79 26 79 65z" />
    <glyph glyph-name="uni06BC.init" unicode="&#x6bc;" 
d="M172 -38c0 -56 -38 -97 -94 -97c-49 0 -87 25 -87 90c0 17 3 32 9 45h-15c-20 0 -60 13 -60 37c0 22 40 36 60 36h144v397h92v-470h-55c4 -11 6 -23 6 -38zM121 609c0 29 25 54 54 54c30 0 55 -24 55 -54s-25 -55 -55 -55c-29 0 -54 25 -54 55zM111 -42
c0 28 -11 42 -29 42c-15 0 -31 -13 -31 -41s12 -42 30 -42c16 0 30 15 30 41z" />
    <glyph glyph-name="uni06BC.medi" unicode="&#x6bc;" horiz-adv-x="351" 
d="M266 -38c0 -56 -38 -97 -94 -97c-49 0 -87 25 -87 90c0 17 3 32 9 45h-109c-20 0 -60 13 -60 37c0 22 40 36 60 36h144v397h92v-397h130v-73h-91c4 -11 6 -23 6 -38zM121 609c0 29 25 54 54 54c30 0 55 -24 55 -54s-25 -55 -55 -55c-29 0 -54 25 -54 55zM205 -42
c0 26 -10 40 -25 42h-8c-14 -2 -27 -15 -27 -41c0 -28 12 -42 30 -42c16 0 30 15 30 41z" />
    <glyph glyph-name="uni06BC.fina" unicode="&#x6bc;" horiz-adv-x="709" 
d="M574 -212c0 -55 -38 -96 -94 -96c-48 0 -87 25 -87 88c-23 -8 -49 -11 -78 -11c-137 0 -248 74 -248 279c0 66 8 131 24 190l95 18c-18 -66 -27 -134 -27 -199c0 -171 86 -215 165 -215c96 0 163 50 163 203v425h92v-397h129v-73h-131c-5 -45 -18 -90 -48 -129
c28 -13 45 -40 45 -83zM374 425c0 -29 -24 -52 -52 -52c-29 0 -52 23 -52 52s23 52 52 52c28 0 52 -22 52 -52zM513 -215c0 28 -11 41 -30 41c-14 0 -30 -12 -30 -41c0 -28 11 -41 30 -41c16 0 30 14 30 41z" />
    <glyph glyph-name="uni06BD.init" unicode="&#x6bd;" 
d="M221 0h-236c-20 0 -60 13 -60 37c0 22 40 36 60 36h144v397h92v-470zM121 -219c0 29 23 52 52 52c28 0 52 -22 52 -52c0 -28 -24 -52 -52 -52c-29 0 -52 23 -52 52zM193 -108c0 28 23 51 51 51c29 0 52 -22 52 -51c0 -28 -23 -51 -52 -51c-28 0 -51 22 -51 51zM50 -108
c0 28 24 51 52 51s51 -22 51 -51c0 -28 -23 -51 -51 -51c-29 0 -52 22 -52 51z" />
    <glyph glyph-name="uni06BD.medi" unicode="&#x6bd;" horiz-adv-x="351" 
d="M-15 0c-20 0 -60 13 -60 37c0 22 40 36 60 36h144v397h92v-397h130v-73h-366zM122 -219c0 29 23 52 52 52c28 0 52 -22 52 -52c0 -28 -24 -52 -52 -52c-29 0 -52 23 -52 52zM194 -108c0 28 23 51 51 51c29 0 52 -22 52 -51c0 -28 -23 -51 -52 -51c-28 0 -51 22 -51 51z
M51 -108c0 28 24 51 52 51s51 -22 51 -51c0 -28 -23 -51 -51 -51c-29 0 -52 22 -52 51z" />
    <glyph glyph-name="uni06BD.fina" unicode="&#x6bd;" horiz-adv-x="709" 
d="M579 470v-397h129v-73h-132c-15 -154 -104 -231 -261 -231c-137 0 -248 74 -248 279c0 66 8 131 24 190l95 18c-18 -66 -27 -134 -27 -199c0 -171 86 -215 165 -215c96 0 163 50 163 203v425h92zM301 380c0 28 24 52 52 52c29 0 53 -23 53 -52s-24 -53 -53 -53
c-28 0 -52 23 -52 53zM228 493c0 29 23 53 52 53s52 -23 52 -53c0 -28 -23 -52 -52 -52s-52 23 -52 52zM154 380c0 28 23 52 52 52s52 -23 52 -52s-23 -53 -52 -53s-52 23 -52 53z" />
    <glyph glyph-name="uni06BF.init" unicode="&#x6bf;" horiz-adv-x="531" 
d="M440 0h-455c-20 0 -60 13 -60 37c0 22 40 36 60 36h373c5 35 7 70 7 103c0 151 -55 225 -218 225c-39 0 -83 -4 -120 -10v72c33 6 84 11 127 11c221 0 303 -101 303 -292c0 -48 -5 -110 -17 -182zM131 -219c0 29 23 52 52 52c28 0 52 -22 52 -52c0 -28 -24 -52 -52 -52
c-29 0 -52 23 -52 52zM203 -108c0 28 23 51 51 51c29 0 52 -22 52 -51c0 -28 -23 -51 -52 -51c-28 0 -51 22 -51 51zM60 -108c0 28 24 51 52 51s51 -22 51 -51c0 -28 -23 -51 -51 -51c-29 0 -52 22 -52 51zM128 609c0 29 25 54 54 54c30 0 55 -24 55 -54s-25 -55 -55 -55
c-29 0 -54 25 -54 55z" />
    <glyph glyph-name="uni06BF.medi" unicode="&#x6bf;" horiz-adv-x="528" 
d="M-15 0c-20 0 -60 13 -60 37c0 22 40 36 60 36h373c5 35 7 70 7 103c0 151 -55 225 -218 225c-39 0 -83 -4 -120 -10v72c33 6 84 11 127 11c221 0 303 -101 303 -292c0 -31 -3 -68 -7 -109h78v-73h-543zM130 609c0 29 25 54 54 54c30 0 55 -24 55 -54s-25 -55 -55 -55
c-29 0 -54 25 -54 55zM140 -219c0 29 23 52 52 52c28 0 52 -22 52 -52c0 -28 -24 -52 -52 -52c-29 0 -52 23 -52 52zM212 -108c0 28 23 51 51 51c29 0 52 -22 52 -51c0 -28 -23 -51 -52 -51c-28 0 -51 22 -51 51zM69 -108c0 28 24 51 52 51s51 -22 51 -51
c0 -28 -23 -51 -51 -51c-29 0 -52 22 -52 51z" />
    <glyph glyph-name="uni06BF.fina" unicode="&#x6bf;" horiz-adv-x="623" 
d="M623 0h-282c-169 0 -212 -55 -212 -126c0 -60 44 -103 127 -116l-19 -75c-122 18 -200 84 -200 184c0 118 82 206 309 206h107c5 35 7 70 7 103c0 151 -55 225 -219 225c-40 0 -74 -2 -111 -7v72c33 4 76 8 119 8c221 0 303 -101 303 -292c0 -31 -3 -68 -7 -109h78v-73z
M225 609c0 29 25 54 54 54c30 0 55 -24 55 -54s-25 -55 -55 -55c-29 0 -54 25 -54 55zM344 -219c0 29 23 52 52 52c28 0 52 -22 52 -52c0 -28 -24 -52 -52 -52c-29 0 -52 23 -52 52zM416 -108c0 28 23 51 51 51c29 0 52 -22 52 -51c0 -28 -23 -51 -52 -51
c-28 0 -51 22 -51 51zM273 -108c0 28 24 51 52 51s51 -22 51 -51c0 -28 -23 -51 -51 -51c-29 0 -52 22 -52 51z" />
    <glyph glyph-name="uni06C4.fina" unicode="&#x6c4;" horiz-adv-x="648" 
d="M228 -273c-77 0 -159 15 -159 15l6 78s87 -20 163 -20c18 0 35 1 50 3c-13 14 -20 34 -20 62c0 51 34 91 88 91c29 0 53 -10 68 -32c3 15 5 33 5 54v25h-93c-199 0 -270 88 -270 231c0 131 81 247 252 247c110 0 201 -35 201 -35v-373h129v-73h-129v-19
c0 -137 -76 -254 -291 -254zM429 76v309s-49 23 -121 23c-93 0 -149 -66 -149 -165c0 -114 53 -167 187 -167h83zM382 -132c0 27 -11 41 -29 41c-15 0 -30 -13 -30 -41s11 -42 30 -42c15 0 29 15 29 42z" />
    <glyph glyph-name="uni06C5.isol" unicode="&#x6c5;" horiz-adv-x="617" arabic-form="isolated" 
d="M170 -109v62c114 0 185 -21 234 -75c16 26 25 60 25 100v24l-101 1c-192 2 -262 88 -262 231c0 131 81 247 252 247c110 0 201 -35 201 -35v-465c0 -137 -76 -254 -291 -254c-77 0 -159 15 -159 15l6 78s87 -20 163 -20c46 0 87 10 119 30c-43 49 -98 61 -187 61zM429 75
v310s-49 23 -121 23c-93 0 -149 -66 -149 -165c0 -114 53 -166 182 -167z" />
    <glyph glyph-name="uni06C5.fina" unicode="&#x6c5;" horiz-adv-x="648" arabic-form="final" 
d="M170 -109v62c114 0 185 -21 234 -75c16 26 25 60 25 100v24l-101 1c-192 2 -262 88 -262 231c0 131 81 247 252 247c110 0 201 -35 201 -35v-373h129v-73h-129v-19c0 -137 -76 -254 -291 -254c-77 0 -159 15 -159 15l6 78s87 -20 163 -20c46 0 87 10 119 30
c-43 49 -98 61 -187 61zM429 75v310s-49 23 -121 23c-93 0 -149 -66 -149 -165c0 -114 53 -166 182 -167z" />
    <glyph glyph-name="uni06C6" unicode="&#x6c6;" horiz-adv-x="617" arabic-form="isolated" 
d="M228 -253c-77 0 -156 15 -156 15l6 78s84 -20 160 -20c109 0 191 41 191 156v24h-101c-192 0 -262 91 -262 234c0 131 81 247 252 247c110 0 201 -35 201 -35v-465c0 -117 -76 -234 -291 -234zM429 73v312s-49 23 -121 23c-93 0 -149 -66 -149 -165
c0 -114 53 -170 182 -170h88zM455 702l-139 -131l-139 129l40 44l100 -85l99 85z" />
    <glyph glyph-name="uniFBDA" unicode="&#x6c6;" horiz-adv-x="648" arabic-form="final" 
d="M228 -253c-77 0 -156 15 -156 15l6 78s84 -20 160 -20c109 0 191 41 191 156v24h-101c-192 0 -262 91 -262 234c0 131 81 247 252 247c110 0 201 -35 201 -35v-373h129v-73h-129v-19c0 -117 -76 -234 -291 -234zM429 73v312s-49 23 -121 23c-93 0 -149 -66 -149 -165
c0 -114 53 -170 182 -170h88zM455 702l-139 -131l-139 129l40 44l100 -85l99 85z" />
    <glyph glyph-name="uni06C7" unicode="&#x6c7;" horiz-adv-x="617" arabic-form="isolated" 
d="M228 -253c-77 0 -156 15 -156 15l6 78s84 -20 160 -20c109 0 191 41 191 156v24h-101c-192 0 -262 91 -262 234c0 131 81 247 252 247c110 0 201 -35 201 -35v-465c0 -117 -76 -234 -291 -234zM429 73v312s-49 23 -121 23c-93 0 -149 -66 -149 -165
c0 -114 53 -170 182 -170h88zM177 585v41l75 9s-6 14 -6 32c0 47 39 79 88 79c44 0 77 -26 77 -68c0 -49 -41 -68 -95 -75zM297 641l18 2c36 4 50 14 50 35c0 17 -13 29 -33 29c-25 0 -40 -17 -40 -41c0 -16 5 -25 5 -25z" />
    <glyph glyph-name="uniFBD8" unicode="&#x6c7;" horiz-adv-x="648" arabic-form="final" 
d="M228 -253c-77 0 -156 15 -156 15l6 78s84 -20 160 -20c109 0 191 41 191 156v24h-101c-192 0 -262 91 -262 234c0 131 81 247 252 247c110 0 201 -35 201 -35v-373h129v-73h-129v-19c0 -117 -76 -234 -291 -234zM429 73v312s-49 23 -121 23c-93 0 -149 -66 -149 -165
c0 -114 53 -170 182 -170h88zM177 585v41l75 9s-6 14 -6 32c0 47 39 79 88 79c44 0 77 -26 77 -68c0 -49 -41 -68 -95 -75zM297 641l18 2c36 4 50 14 50 35c0 17 -13 29 -33 29c-25 0 -40 -17 -40 -41c0 -16 5 -25 5 -25z" />
    <glyph glyph-name="uni06C8" unicode="&#x6c8;" horiz-adv-x="617" arabic-form="isolated" 
d="M228 -253c-77 0 -156 15 -156 15l6 78s84 -20 160 -20c109 0 191 41 191 156v24h-101c-192 0 -262 91 -262 234c0 131 81 247 252 247c110 0 201 -35 201 -35v-465c0 -117 -76 -234 -291 -234zM429 73v312s-49 23 -121 23c-93 0 -149 -66 -149 -165
c0 -114 53 -170 182 -170h88zM332 610l-64 -12v229h64v-217z" />
    <glyph glyph-name="uniFBDC" unicode="&#x6c8;" horiz-adv-x="648" arabic-form="final" 
d="M228 -253c-77 0 -156 15 -156 15l6 78s84 -20 160 -20c109 0 191 41 191 156v24h-101c-192 0 -262 91 -262 234c0 131 81 247 252 247c110 0 201 -35 201 -35v-373h129v-73h-129v-19c0 -117 -76 -234 -291 -234zM429 73v312s-49 23 -121 23c-93 0 -149 -66 -149 -165
c0 -114 53 -170 182 -170h88zM332 610l-64 -12v229h64v-217z" />
    <glyph glyph-name="uni06C9" unicode="&#x6c9;" horiz-adv-x="617" arabic-form="isolated" 
d="M228 -253c-77 0 -156 15 -156 15l6 78s84 -20 160 -20c109 0 191 41 191 156v24h-101c-192 0 -262 91 -262 234c0 131 81 247 252 247c110 0 201 -35 201 -35v-465c0 -117 -76 -234 -291 -234zM429 73v312s-49 23 -121 23c-93 0 -149 -66 -149 -165
c0 -114 53 -170 182 -170h88zM450 614l-40 -43l-99 84l-100 -84l-38 41l139 132z" />
    <glyph glyph-name="uniFBE3" unicode="&#x6c9;" horiz-adv-x="648" arabic-form="final" 
d="M228 -253c-77 0 -156 15 -156 15l6 78s84 -20 160 -20c109 0 191 41 191 156v24h-101c-192 0 -262 91 -262 234c0 131 81 247 252 247c110 0 201 -35 201 -35v-373h129v-73h-129v-19c0 -117 -76 -234 -291 -234zM429 73v312s-49 23 -121 23c-93 0 -149 -66 -149 -165
c0 -114 53 -170 182 -170h88zM450 614l-40 -43l-99 84l-100 -84l-38 41l139 132z" />
    <glyph glyph-name="uni06CA.fina" unicode="&#x6ca;" horiz-adv-x="648" 
d="M228 -253c-77 0 -156 15 -156 15l6 78s84 -20 160 -20c109 0 191 41 191 156v24h-101c-192 0 -262 91 -262 234c0 131 81 247 252 247c110 0 201 -35 201 -35v-373h129v-73h-129v-19c0 -117 -76 -234 -291 -234zM429 73v312s-49 23 -121 23c-93 0 -149 -66 -149 -165
c0 -114 53 -170 182 -170h88zM189 610c0 29 23 52 52 52s52 -22 52 -52c0 -29 -22 -52 -52 -52s-52 23 -52 52zM334 610c0 29 23 52 52 52c28 0 52 -22 52 -52c0 -28 -23 -52 -52 -52s-52 23 -52 52z" />
    <glyph glyph-name="uni06CB" unicode="&#x6cb;" horiz-adv-x="617" arabic-form="isolated" 
d="M228 -253c-77 0 -156 15 -156 15l6 78s84 -20 160 -20c109 0 191 41 191 156v24h-101c-192 0 -262 91 -262 234c0 131 81 247 252 247c110 0 201 -35 201 -35v-465c0 -117 -76 -234 -291 -234zM429 73v312s-49 23 -121 23c-93 0 -149 -66 -149 -165
c0 -114 53 -170 182 -170h88zM188 608c0 28 23 52 52 52s52 -23 52 -52s-23 -53 -52 -53s-52 23 -52 53zM335 608c0 28 24 52 52 52c29 0 53 -23 53 -52s-24 -53 -53 -53c-28 0 -52 23 -52 53zM262 721c0 29 23 53 52 53s52 -23 52 -53c0 -28 -23 -52 -52 -52s-52 23 -52 52
z" />
    <glyph glyph-name="uniFBDF" unicode="&#x6cb;" horiz-adv-x="648" arabic-form="final" 
d="M228 -253c-77 0 -156 15 -156 15l6 78s84 -20 160 -20c109 0 191 41 191 156v24h-101c-192 0 -262 91 -262 234c0 131 81 247 252 247c110 0 201 -35 201 -35v-373h129v-73h-129v-19c0 -117 -76 -234 -291 -234zM429 73v312s-49 23 -121 23c-93 0 -149 -66 -149 -165
c0 -114 53 -170 182 -170h88zM335 608c0 28 24 52 52 52c29 0 53 -23 53 -52s-24 -53 -53 -53c-28 0 -52 23 -52 53zM262 721c0 29 23 53 52 53s52 -23 52 -53c0 -28 -23 -52 -52 -52s-52 23 -52 52zM188 608c0 28 23 52 52 52s52 -23 52 -52s-23 -53 -52 -53s-52 23 -52 53
z" />
    <glyph glyph-name="uni06CD.fina" unicode="&#x6cd;" horiz-adv-x="1066" 
d="M650 0h-187c-275 0 -348 112 -348 338l-88 -14v79l180 26v-89c0 -196 53 -267 267 -267h85v389s88 19 183 19c167 0 223 -81 223 -218v-190h101v-73h-190v251c0 113 -42 157 -143 157c-41 0 -83 -8 -83 -8v-400z" />
    <glyph glyph-name="uni06CE.init" unicode="&#x6ce;" 
d="M221 0h-236c-20 0 -60 13 -60 37c0 22 40 36 60 36h144v397h92v-470zM315 702l-139 -131l-139 129l40 44l100 -85l99 85zM49 -144c0 29 23 53 52 53s52 -23 52 -53c0 -28 -23 -52 -52 -52s-52 24 -52 52zM194 -144c0 29 23 53 52 53c28 0 52 -23 52 -53
c0 -28 -23 -52 -52 -52s-52 24 -52 52z" />
    <glyph glyph-name="uni06CE.medi" unicode="&#x6ce;" horiz-adv-x="351" 
d="M-15 0c-20 0 -60 13 -60 37c0 22 40 36 60 36h144v397h92v-397h130v-73h-366zM314 702l-139 -131l-139 129l40 44l100 -85l99 85zM51 -144c0 29 23 53 52 53s52 -23 52 -53c0 -28 -23 -52 -52 -52s-52 24 -52 52zM196 -144c0 29 23 53 52 53c28 0 52 -23 52 -53
c0 -28 -23 -52 -52 -52s-52 24 -52 52z" />
    <glyph glyph-name="uni06CE.fina" unicode="&#x6ce;" horiz-adv-x="1027" 
d="M610 0h-187c-252 0 -349 101 -349 291c0 61 14 127 32 167l99 16c-24 -47 -39 -116 -39 -172c0 -152 60 -229 269 -229h86v389s87 19 182 19c167 0 223 -81 223 -218v-190h101v-73h-191v251c0 113 -41 157 -142 157c-41 0 -84 -8 -84 -8v-400zM508 702l-139 -131
l-139 129l40 44l100 -85l99 85z" />
    <glyph glyph-name="uni06CF.fina" unicode="&#x6cf;" horiz-adv-x="648" 
d="M228 -253c-77 0 -156 15 -156 15l6 78s84 -20 160 -20c109 0 191 41 191 156v24h-101c-192 0 -262 91 -262 234c0 131 81 247 252 247c110 0 201 -35 201 -35v-373h129v-73h-129v-19c0 -117 -76 -234 -291 -234zM429 73v312s-49 23 -121 23c-93 0 -149 -66 -149 -165
c0 -114 53 -170 182 -170h88zM261 609c0 29 25 54 54 54c30 0 55 -24 55 -54s-25 -55 -55 -55c-29 0 -54 25 -54 55z" />
    <glyph glyph-name="uni06D0" unicode="&#x6d0;" horiz-adv-x="1001" arabic-form="isolated" 
d="M610 0h-187c-252 0 -349 101 -349 291c0 61 14 127 32 167l99 16c-24 -47 -39 -116 -39 -172c0 -152 60 -229 269 -229h86v389s87 19 182 19c167 0 223 -81 223 -218v-143h-90v131c0 113 -41 157 -142 157c-41 0 -84 -8 -84 -8v-400zM385 -271c-28 0 -49 21 -49 49
s21 50 49 50c27 0 49 -21 49 -50c0 -27 -22 -49 -49 -49zM385 -141c-28 0 -49 21 -49 49c0 27 21 49 49 49c27 0 49 -21 49 -49s-22 -49 -49 -49z" />
    <glyph glyph-name="uniFBE5" unicode="&#x6d0;" horiz-adv-x="1027" arabic-form="final" 
d="M610 0h-187c-252 0 -349 101 -349 291c0 61 14 127 32 167l99 16c-24 -47 -39 -116 -39 -172c0 -152 60 -229 269 -229h86v389s87 19 182 19c167 0 223 -81 223 -218v-190h101v-73h-191v251c0 113 -41 157 -142 157c-41 0 -84 -8 -84 -8v-400zM386 -271
c-28 0 -49 21 -49 49s21 50 49 50c27 0 49 -21 49 -50c0 -27 -22 -49 -49 -49zM386 -141c-28 0 -49 21 -49 49c0 27 21 49 49 49c27 0 49 -21 49 -49s-22 -49 -49 -49z" />
    <glyph glyph-name="uniFBE6" unicode="&#x6d0;" arabic-form="initial" 
d="M221 0h-236c-20 0 -60 13 -60 37c0 22 40 36 60 36h144v397h92v-470zM157 -271c-28 0 -49 21 -49 49s21 50 49 50c27 0 49 -21 49 -50c0 -27 -22 -49 -49 -49zM157 -141c-28 0 -49 21 -49 49c0 27 21 49 49 49c27 0 49 -21 49 -49s-22 -49 -49 -49z" />
    <glyph glyph-name="uniFBE7" unicode="&#x6d0;" horiz-adv-x="351" arabic-form="medial" 
d="M351 0h-366c-20 0 -60 13 -60 37c0 22 40 36 60 36h144v397h92v-397h130v-73zM175 -271c-28 0 -49 21 -49 49s21 50 49 50c27 0 49 -21 49 -50c0 -27 -22 -49 -49 -49zM175 -141c-28 0 -49 21 -49 49c0 27 21 49 49 49c27 0 49 -21 49 -49s-22 -49 -49 -49z" />
    <glyph glyph-name="uni06D1.init" unicode="&#x6d1;" 
d="M221 0h-236c-20 0 -60 13 -60 37c0 22 40 36 60 36h144v397h92v-470zM119 -219c0 29 23 52 52 52c28 0 52 -22 52 -52c0 -28 -24 -52 -52 -52c-29 0 -52 23 -52 52zM191 -108c0 28 23 51 51 51c29 0 52 -22 52 -51c0 -28 -23 -51 -52 -51c-28 0 -51 22 -51 51zM48 -108
c0 28 24 51 52 51s51 -22 51 -51c0 -28 -23 -51 -51 -51c-29 0 -52 22 -52 51z" />
    <glyph glyph-name="uni06D1.medi" unicode="&#x6d1;" horiz-adv-x="351" 
d="M-15 0c-20 0 -60 13 -60 37c0 22 40 36 60 36h144v397h92v-397h130v-73h-366zM122 -219c0 29 23 52 52 52c28 0 52 -22 52 -52c0 -28 -24 -52 -52 -52c-29 0 -52 23 -52 52zM194 -108c0 28 23 51 51 51c29 0 52 -22 52 -51c0 -28 -23 -51 -52 -51c-28 0 -51 22 -51 51z
M51 -108c0 28 24 51 52 51s51 -22 51 -51c0 -28 -23 -51 -51 -51c-29 0 -52 22 -52 51z" />
    <glyph glyph-name="uni06D1.fina" unicode="&#x6d1;" horiz-adv-x="1027" 
d="M610 0h-187c-252 0 -349 101 -349 291c0 61 14 127 32 167l99 16c-24 -47 -39 -116 -39 -172c0 -152 60 -229 269 -229h86v389s87 19 182 19c167 0 223 -81 223 -218v-190h101v-73h-191v251c0 113 -41 157 -142 157c-41 0 -84 -8 -84 -8v-400zM357 -219c0 29 23 52 52 52
c28 0 52 -22 52 -52c0 -28 -24 -52 -52 -52c-29 0 -52 23 -52 52zM429 -108c0 28 23 51 51 51c29 0 52 -22 52 -51c0 -28 -23 -51 -52 -51c-28 0 -51 22 -51 51zM286 -108c0 28 24 51 52 51s51 -22 51 -51c0 -28 -23 -51 -51 -51c-29 0 -52 22 -52 51z" />
    <glyph glyph-name="uni06EE.fina" unicode="&#x6ee;" horiz-adv-x="536" 
d="M57 0v73h320c-3 184 -75 285 -252 339l24 77c210 -64 313 -181 319 -416h68v-73h-479zM361 614l-40 -43l-99 84l-100 -84l-38 41l139 132z" />
    <glyph glyph-name="uni06EF.fina" unicode="&#x6ef;" horiz-adv-x="451" 
d="M90 -257c-37 0 -75 6 -104 15l10 75c31 -10 64 -17 101 -17c83 0 133 40 133 171v483h92v-397h129v-73h-129v-5c0 -142 -52 -252 -232 -252zM411 555l-40 -43l-99 84l-100 -84l-38 41l139 132z" />
    <glyph glyph-name="uni06FA.init" unicode="&#x6fa;" horiz-adv-x="868" 
d="M29 0h-44c-20 0 -60 13 -60 37c0 22 40 36 60 36h44c72 0 103 32 103 137v200h92v-182c0 -103 4 -162 84 -162c61 0 104 33 104 161v223h90v-256c0 -105 39 -121 148 -121h32c5 43 8 102 8 139c0 109 -14 203 -33 276l90 15c20 -75 35 -174 35 -283
c0 -68 -6 -153 -16 -220h-113c-126 0 -180 17 -208 80c-16 -42 -63 -87 -153 -87c-67 0 -115 35 -129 86c-18 -49 -58 -79 -134 -79zM398 -142c0 30 23 54 53 54s54 -23 54 -54c0 -30 -24 -54 -54 -54s-53 24 -53 54zM326 608c0 28 23 52 52 52s52 -23 52 -52
s-23 -53 -52 -53s-52 23 -52 53zM473 608c0 28 24 52 52 52c29 0 53 -23 53 -52s-24 -53 -53 -53c-28 0 -52 23 -52 53zM400 721c0 29 23 53 52 53s52 -23 52 -53c0 -28 -23 -52 -52 -52s-52 23 -52 52z" />
    <glyph glyph-name="uni06FA.medi" unicode="&#x6fa;" horiz-adv-x="896" 
d="M29 0h-44c-20 0 -60 13 -60 37c0 22 40 36 60 36h44c72 0 103 32 103 137v200h92v-182c0 -103 4 -162 84 -162c61 0 104 33 104 161v223h90v-256c0 -105 39 -121 148 -121h32c5 43 8 102 8 139c0 109 -14 203 -33 276l90 15c20 -75 35 -174 35 -283c0 -45 -3 -98 -7 -147
h121v-73h-243c-126 0 -180 17 -208 80c-16 -42 -63 -87 -153 -87c-67 0 -115 35 -129 86c-18 -49 -58 -79 -134 -79zM398 -142c0 30 23 54 53 54s54 -23 54 -54c0 -30 -24 -54 -54 -54s-53 24 -53 54zM473 608c0 28 24 52 52 52c29 0 53 -23 53 -52s-24 -53 -53 -53
c-28 0 -52 23 -52 53zM400 721c0 29 23 53 52 53s52 -23 52 -53c0 -28 -23 -52 -52 -52s-52 23 -52 52zM326 608c0 28 23 52 52 52s52 -23 52 -52s-23 -53 -52 -53s-52 23 -52 53z" />
    <glyph glyph-name="uni06FA.fina" unicode="&#x6fa;" horiz-adv-x="1231" 
d="M988 0c-130 0 -183 20 -208 80c-20 -62 -81 -87 -129 -87c-50 0 -77 15 -96 45c2 -204 -112 -269 -243 -269c-137 0 -245 74 -245 279c0 66 8 131 24 190l95 18c-18 -66 -27 -134 -27 -199c0 -171 83 -215 162 -215c81 0 146 50 146 203v365h92v-182
c0 -111 24 -162 91 -162s98 48 98 161v223h89v-256c0 -105 38 -121 148 -121h32c5 43 8 103 8 139c0 109 -14 203 -33 276l90 15c20 -75 35 -174 35 -283c0 -45 -3 -98 -7 -147h121v-73h-243zM726 -142c0 30 23 54 53 54s54 -23 54 -54c0 -30 -24 -54 -54 -54s-53 24 -53 54
zM810 608c0 28 24 52 52 52c29 0 53 -23 53 -52s-24 -53 -53 -53c-28 0 -52 23 -52 53zM737 721c0 29 23 53 52 53s52 -23 52 -53c0 -28 -23 -52 -52 -52s-52 23 -52 52zM663 608c0 28 23 52 52 52s52 -23 52 -52s-23 -53 -52 -53s-52 23 -52 53z" />
    <glyph glyph-name="uni06FB.init" unicode="&#x6fb;" horiz-adv-x="745" 
d="M394 0h-409c-20 0 -60 13 -60 37c0 22 40 36 60 36h144v397h92v-39c0 -54 -3 -123 -11 -179h2c46 150 158 229 274 229c128 0 200 -83 200 -227c0 -138 -76 -254 -292 -254zM220 73h184c147 0 187 80 187 174c0 99 -39 161 -122 161c-137 0 -233 -174 -249 -335zM410 609
c0 29 25 54 54 54c30 0 55 -24 55 -54s-25 -55 -55 -55c-29 0 -54 25 -54 55zM310 -142c0 30 23 54 53 54s54 -23 54 -54c0 -30 -24 -54 -54 -54s-53 24 -53 54z" />
    <glyph glyph-name="uni06FB.medi" unicode="&#x6fb;" horiz-adv-x="761" 
d="M761 0h-776c-20 0 -60 13 -60 37c0 22 40 36 60 36h144v397h92v-39c0 -54 -3 -123 -11 -179h2c46 150 158 229 274 229c128 0 200 -83 200 -227c0 -70 -20 -135 -68 -181h143v-73zM220 73h184c147 0 187 80 187 174c0 99 -39 161 -122 161c-137 0 -233 -174 -249 -335z
M410 609c0 29 25 54 54 54c30 0 55 -24 55 -54s-25 -55 -55 -55c-29 0 -54 25 -54 55zM310 -142c0 30 23 54 53 54s54 -23 54 -54c0 -30 -24 -54 -54 -54s-53 24 -53 54z" />
    <glyph glyph-name="uni06FB.fina" unicode="&#x6fb;" horiz-adv-x="1092" 
d="M556 0c-13 -159 -115 -231 -244 -231c-137 0 -245 74 -245 279c0 66 8 131 24 190l95 18c-18 -66 -27 -134 -27 -199c0 -171 83 -215 162 -215c81 0 146 50 146 203v425h92v-39c0 -54 -3 -123 -11 -179h2c46 150 158 229 274 229c128 0 200 -83 200 -227
c0 -70 -20 -135 -68 -181h136v-73h-344h-16h-176zM558 73h184c147 0 187 80 187 174c0 99 -39 161 -122 161c-137 0 -233 -174 -249 -335zM747 609c0 29 25 54 54 54c30 0 55 -24 55 -54s-25 -55 -55 -55c-29 0 -54 25 -54 55zM674 -142c0 30 23 54 53 54s54 -23 54 -54
c0 -30 -24 -54 -54 -54s-53 24 -53 54z" />
    <glyph glyph-name="uni06FC.init" unicode="&#x6fc;" horiz-adv-x="558" 
d="M517 0h-532c-20 0 -60 13 -60 37c0 22 40 36 60 36h199c-60 27 -107 93 -107 177c0 124 81 231 246 231c71 0 131 -22 131 -22l-17 -74s-55 24 -119 24c-88 0 -149 -58 -149 -155c0 -102 78 -181 266 -181h82v-73zM247 609c0 29 25 54 54 54c30 0 55 -24 55 -54
s-25 -55 -55 -55c-29 0 -54 25 -54 55zM224 -142c0 30 23 54 53 54s54 -23 54 -54c0 -30 -24 -54 -54 -54s-53 24 -53 54z" />
    <glyph glyph-name="uni06FC.medi" unicode="&#x6fc;" horiz-adv-x="602" 
d="M4 0h-19c-20 0 -60 13 -60 37c0 22 40 36 60 36h22c111 0 204 20 274 53c-70 66 -138 140 -239 173l8 64c77 59 188 120 289 120c136 0 192 -74 192 -155c0 -70 -42 -146 -120 -207c42 -29 88 -48 144 -48h47v-73h-59c-85 0 -148 31 -203 75c-86 -46 -199 -75 -336 -75z
M136 334c87 -33 150 -106 217 -166c56 43 87 96 87 148c0 54 -34 98 -111 98c-69 0 -149 -49 -193 -80zM266 609c0 29 25 54 54 54c30 0 55 -24 55 -54s-25 -55 -55 -55c-29 0 -54 25 -54 55zM267 -142c0 30 23 54 53 54s54 -23 54 -54c0 -30 -24 -54 -54 -54s-53 24 -53 54
z" />
    <glyph glyph-name="uni06FC.fina" unicode="&#x6fc;" horiz-adv-x="633" 
d="M319 -277c-195 0 -274 86 -274 183c0 126 132 182 249 238c-64 62 -128 125 -220 155l7 64c78 59 189 120 289 120c136 0 193 -74 193 -155c0 -91 -62 -148 -138 -194c47 -36 98 -61 162 -61h46v-73h-59c-97 0 -165 41 -226 94c-105 -53 -209 -97 -209 -181
c0 -63 52 -117 190 -117c76 0 157 13 157 13l6 -70s-89 -16 -173 -16zM167 334c80 -31 139 -94 201 -151c59 34 103 74 103 133c0 54 -33 98 -110 98c-70 0 -150 -49 -194 -80zM297 609c0 29 25 54 54 54c30 0 55 -24 55 -54s-25 -55 -55 -55c-29 0 -54 25 -54 55zM298 -71
c0 30 23 54 53 54s54 -23 54 -54c0 -30 -24 -54 -54 -54s-53 24 -53 54z" />
    <glyph glyph-name="uni06FF.init" unicode="&#x6ff;" horiz-adv-x="764" 
d="M686 0h-701c-20 0 -60 13 -60 37c0 22 40 36 60 36h124c21 0 39 -3 40 -3c-2 1 -39 30 -39 91c0 101 73 166 185 166c126 0 177 -92 177 -215v-39h125v20c0 248 -94 346 -299 346c-66 0 -149 -16 -213 -36l-10 72c69 21 157 36 235 36c241 0 376 -119 376 -418v-93z
M392 71v39c0 95 -31 150 -104 150c-62 0 -97 -35 -97 -90c0 -70 52 -99 112 -99h89zM435 608l-40 -43l-99 84l-100 -84l-38 41l139 132z" />
    <glyph glyph-name="uni06FF.medi" unicode="&#x6ff;" horiz-adv-x="758" 
d="M758 0h-773c-20 0 -60 13 -60 37c0 22 40 36 60 36h124c21 0 39 -3 40 -3c-2 1 -39 30 -39 91c0 101 73 166 185 166c126 0 177 -92 177 -215v-39h125v20c0 248 -94 346 -299 346c-66 0 -149 -16 -213 -36l-10 72c69 21 157 36 235 36c241 0 376 -119 376 -418v-20h72
v-73zM392 71v39c0 95 -31 150 -104 150c-62 0 -97 -35 -97 -90c0 -70 52 -99 112 -99h89zM435 608l-40 -43l-99 84l-100 -84l-38 41l139 132z" />
    <glyph glyph-name="uni06FF.fina" unicode="&#x6ff;" horiz-adv-x="794" 
d="M793 0h-763v73h115c21 0 38 -3 39 -3c-2 1 -38 30 -38 91c0 102 73 166 185 166c125 0 176 -92 176 -215v-39h126v20c0 248 -94 346 -300 346c-65 0 -148 -16 -212 -36l-10 72c68 21 157 36 235 36c241 0 376 -119 376 -418v-20h71v-73zM427 71v39c0 95 -31 150 -103 150
c-62 0 -98 -35 -98 -90c0 -70 52 -99 113 -99h88zM470 608l-40 -43l-99 84l-100 -84l-38 41l139 132z" />
    <glyph glyph-name="uniFBA6" unicode="&#x6c1;" horiz-adv-x="610" arabic-form="isolated" 
d="M530 0h-202c-192 0 -262 91 -262 233c0 133 84 248 250 248c143 0 214 -81 214 -224v-257zM440 73v169c0 119 -49 166 -132 166c-93 0 -149 -66 -149 -166c0 -114 54 -169 182 -169h99z" />
    <glyph glyph-name="uni06C1.fina" unicode="&#x6c1;" horiz-adv-x="514" arabic-form="final" 
d="M514 73v-73h-15c-130 0 -203 68 -203 216v48c-86 -15 -160 -66 -219 -160l-61 49c78 115 193 193 339 193c14 0 31 -1 31 -1v-110c0 -117 40 -162 125 -162h3z" />
    <glyph glyph-name="uniFBA8" unicode="&#x6c1;" arabic-form="initial" 
d="M221 0h-236c-20 0 -60 13 -60 37c0 22 40 36 60 36h144v397h92v-470zM99 -240c-31 0 -51 25 -51 57c0 40 27 90 109 134l23 -33c-35 -27 -46 -50 -46 -68c0 -21 12 -25 12 -44c0 -24 -17 -46 -47 -46z" />
    <glyph glyph-name="uniFBA9" unicode="&#x6c1;" horiz-adv-x="656" arabic-form="medial" 
d="M656 73v-73h-108v-261h-88c-191 0 -292 96 -292 266c0 35 1 57 7 90l-2 1c-23 -56 -74 -96 -154 -96h-34c-20 0 -60 13 -60 37c0 22 40 36 60 36h35c111 0 147 92 147 211v86h89v-347c0 -140 64 -211 202 -211v261h198zM39 -262c-33 0 -53 26 -53 60c0 36 19 86 90 143
l31 -29c-30 -29 -40 -55 -40 -71c0 -26 19 -29 19 -57c0 -24 -18 -46 -47 -46z" />
    <glyph glyph-name="uniFBEA.isol" unicode="&#xfbea;" horiz-adv-x="653" arabic-form="isolated" 
d="M112 0v634c-23 4 -52 8 -79 10v54c52 6 111 10 171 7v-632h258v397h92v-470h-442zM370 523v55c27 0 54 -3 71 -6c-20 9 -31 31 -31 50c0 46 37 96 129 96c22 0 42 -3 54 -5l-10 -54c-9 1 -30 5 -50 5c-38 0 -56 -17 -56 -41c0 -26 20 -45 79 -45h56v-55h-242z" />
    <glyph glyph-name="uniFBEB" unicode="&#xfbeb;" horiz-adv-x="684" arabic-form="final" 
d="M112 0v634c-23 4 -52 8 -79 10v54c52 6 111 10 171 7v-632h258v397h92v-397h130v-73h-572zM373 523v55c27 0 54 -3 71 -6c-20 9 -31 31 -31 50c0 46 37 96 129 96c22 0 42 -3 54 -5l-10 -54c-9 1 -30 5 -50 5c-38 0 -56 -17 -56 -41c0 -26 20 -45 79 -45h56v-55h-242z
" />
    <glyph glyph-name="uniFBF2" unicode="&#xfbf2;" horiz-adv-x="926" arabic-form="isolated" 
d="M228 -253c-77 0 -156 15 -156 15l6 78s84 -20 160 -20c109 0 191 41 191 156v24h-101c-192 0 -262 91 -262 234c0 131 81 247 252 247c110 0 201 -35 201 -35v-373h216v397h92v-470h-308v-19c0 -117 -76 -234 -291 -234zM429 73v312s-49 23 -121 23
c-93 0 -149 -66 -149 -165c0 -114 53 -170 182 -170h88zM648 523v55c27 0 54 -3 71 -6c-20 9 -31 31 -31 50c0 46 37 96 129 96c22 0 42 -3 54 -5l-10 -54c-9 1 -30 5 -50 5c-38 0 -56 -17 -56 -41c0 -26 20 -45 79 -45h56v-55h-242zM455 702l-139 -131l-139 129l40 44
l100 -85l99 85z" />
    <glyph glyph-name="uniFBF3" unicode="&#xfbf3;" horiz-adv-x="957" arabic-form="final" 
d="M228 -253c-77 0 -156 15 -156 15l6 78s84 -20 160 -20c109 0 191 41 191 156v24h-101c-192 0 -262 91 -262 234c0 131 81 247 252 247c110 0 201 -35 201 -35v-373h216v397h92v-397h130v-73h-438v-19c0 -117 -76 -234 -291 -234zM429 73v312s-49 23 -121 23
c-93 0 -149 -66 -149 -165c0 -114 53 -170 182 -170h88zM648 523v55c27 0 54 -3 71 -6c-20 9 -31 31 -31 50c0 46 37 96 129 96c22 0 42 -3 54 -5l-10 -54c-9 1 -30 5 -50 5c-38 0 -56 -17 -56 -41c0 -26 20 -45 79 -45h56v-55h-242zM455 702l-139 -131l-139 129l40 44
l100 -85l99 85z" />
    <glyph glyph-name="uniFD3C" unicode="&#xfd3c;" horiz-adv-x="295" arabic-form="final" 
d="M112 0v634c-23 4 -52 8 -79 10v54c52 6 111 10 171 7v-705h-92zM34 770v48l223 32v-48zM34 860v48l223 32v-48z" />
    <glyph glyph-name="uniFD3D" unicode="&#xfd3d;" horiz-adv-x="333" arabic-form="isolated" 
d="M112 0v634c-23 4 -52 8 -79 10v54c52 6 111 10 171 7v-632h129v-73h-221zM34 770v48l223 32v-48zM34 860v48l223 32v-48z" />
    <glyph glyph-name="uniFC9F" unicode="&#xfc9f;" horiz-adv-x="994" arabic-form="initial" 
d="M896 0h-510c-146 0 -198 38 -231 94c-15 -54 -61 -94 -144 -94h-26c-20 0 -60 13 -60 37c0 22 40 36 60 36h11c66 0 114 31 114 164c0 129 85 244 250 244c143 0 214 -81 214 -224v-184h230v397h92v-470zM484 73v169c0 119 -49 166 -132 166c-93 0 -149 -66 -149 -166
c0 -114 54 -169 182 -169h99zM791 -142c0 30 23 54 53 54s54 -23 54 -54c0 -30 -24 -54 -54 -54s-53 24 -53 54z" />
    <glyph glyph-name="uniFC08" unicode="&#xfc08;" horiz-adv-x="964" arabic-form="isolated" 
d="M866 0h-510c-107 0 -148 31 -177 71v-76c2 -138 -54 -258 -233 -258l3 73c134 0 140 111 140 184v222c0 160 90 265 249 265c143 0 214 -81 214 -224v-184h222v397h92v-470zM461 73v169c0 119 -49 166 -132 166c-92 0 -149 -66 -149 -166c0 -114 54 -169 183 -169h98z
M761 -142c0 30 23 54 53 54s54 -23 54 -54c0 -30 -24 -54 -54 -54s-53 24 -53 54z" />
    <glyph glyph-name="uniFCA4" unicode="&#xfca4;" horiz-adv-x="994" arabic-form="initial" 
d="M896 0h-510c-146 0 -198 38 -231 94c-15 -54 -61 -94 -144 -94h-26c-20 0 -60 13 -60 37c0 22 40 36 60 36h11c66 0 114 31 114 164c0 129 85 244 250 244c143 0 214 -81 214 -224v-184h230v397h92v-470zM484 73v169c0 119 -49 166 -132 166c-93 0 -149 -66 -149 -166
c0 -114 54 -169 182 -169h99zM722 610c0 29 23 52 52 52s52 -22 52 -52c0 -29 -22 -52 -52 -52s-52 23 -52 52zM867 610c0 29 23 52 52 52c28 0 52 -22 52 -52c0 -28 -23 -52 -52 -52s-52 23 -52 52z" />
    <glyph glyph-name="uniFC0E" unicode="&#xfc0e;" horiz-adv-x="965" arabic-form="isolated" 
d="M866 0h-510c-107 0 -148 31 -177 71v-76c2 -138 -54 -258 -233 -258l3 73c134 0 140 111 140 184v222c0 160 90 265 249 265c143 0 214 -81 214 -224v-184h222v397h92v-470zM461 73v169c0 119 -49 166 -132 166c-92 0 -149 -66 -149 -166c0 -114 54 -169 183 -169h98z
M692 610c0 29 23 52 52 52s52 -22 52 -52c0 -29 -22 -52 -52 -52s-52 23 -52 52zM837 610c0 29 23 52 52 52c28 0 52 -22 52 -52c0 -28 -23 -52 -52 -52s-52 23 -52 52z" />
    <glyph glyph-name="uniFC32" unicode="&#xfc32;" horiz-adv-x="1646" arabic-form="isolated" 
d="M610 0h-187c-252 0 -349 101 -349 291c0 61 14 127 32 167l99 16c-24 -47 -39 -116 -39 -172c0 -152 60 -229 269 -229h86v389s87 19 182 19c167 0 223 -81 223 -218v-190h192c35 0 58 -5 58 -5c-49 31 -74 84 -74 169c0 129 85 244 250 244c143 0 214 -81 214 -224v-257
h-730v251c0 113 -41 157 -142 157c-41 0 -84 -8 -84 -8v-400zM1476 73v169c0 119 -49 166 -132 166c-93 0 -149 -66 -149 -166c0 -114 54 -169 182 -169h99zM1287 609c0 29 25 54 54 54c30 0 55 -24 55 -54s-25 -55 -55 -55c-29 0 -54 25 -54 55zM276 -144c0 29 23 53 52 53
s52 -23 52 -53c0 -28 -23 -52 -52 -52s-52 24 -52 52zM421 -144c0 29 23 53 52 53c28 0 52 -23 52 -53c0 -28 -23 -52 -52 -52s-52 24 -52 52z" />
    <glyph glyph-name="uniFCC9" unicode="&#xfcc9;" horiz-adv-x="848" arabic-form="initial" 
d="M749 0h-764c-20 0 -60 13 -60 37c0 22 40 36 60 36h373c5 35 7 70 7 103c0 151 -55 225 -218 225c-39 0 -83 -4 -120 -10v72c33 6 84 11 127 11c221 0 303 -101 303 -292c0 -31 -3 -68 -7 -109h207v632h92v-705zM129 -142c0 30 23 54 53 54s54 -23 54 -54
c0 -30 -24 -54 -54 -54s-53 24 -53 54z" />
    <glyph glyph-name="uniFCCA" unicode="&#xfcca;" horiz-adv-x="848" arabic-form="initial" 
d="M749 0h-764c-20 0 -60 13 -60 37c0 22 40 36 60 36h373c5 35 7 70 7 103c0 151 -55 225 -218 225c-39 0 -83 -4 -120 -10v72c33 6 84 11 127 11c221 0 303 -101 303 -292c0 -31 -3 -68 -7 -109h207v632h92v-705z" />
    <glyph glyph-name="uniFCCB" unicode="&#xfccb;" horiz-adv-x="848" arabic-form="initial" 
d="M749 0h-764c-20 0 -60 13 -60 37c0 22 40 36 60 36h373c5 35 7 70 7 103c0 151 -55 225 -218 225c-39 0 -83 -4 -120 -10v72c33 6 84 11 127 11c221 0 303 -101 303 -292c0 -31 -3 -68 -7 -109h207v632h92v-705zM128 609c0 29 25 54 54 54c30 0 55 -24 55 -54
s-25 -55 -55 -55c-29 0 -54 25 -54 55z" />
    <glyph glyph-name="uniFCCC" unicode="&#xfccc;" horiz-adv-x="994" arabic-form="initial" 
d="M896 0h-510c-146 0 -198 38 -231 94c-15 -54 -61 -94 -144 -94h-26c-20 0 -60 13 -60 37c0 22 40 36 60 36h11c66 0 114 31 114 164c0 129 85 244 250 244c143 0 214 -81 214 -224v-184h230v632h92v-705zM484 73v169c0 119 -49 166 -132 166c-93 0 -149 -66 -149 -166
c0 -114 54 -169 182 -169h99z" />
    <glyph glyph-name="uniFC42" unicode="&#xfc42;" horiz-adv-x="965" arabic-form="isolated" 
d="M866 0h-510c-107 0 -148 31 -177 71v-76c2 -138 -54 -258 -233 -258l3 73c134 0 140 111 140 184v222c0 160 90 265 249 265c143 0 214 -81 214 -224v-184h222v632h92v-705zM461 73v169c0 119 -49 166 -132 166c-92 0 -149 -66 -149 -166c0 -114 54 -169 183 -169h98z
" />
    <glyph glyph-name="uniFC43" unicode="&#xfc43;" horiz-adv-x="1346" arabic-form="isolated" 
d="M610 0h-187c-252 0 -349 101 -349 291c0 61 14 127 32 167l99 16c-24 -47 -39 -116 -39 -172c0 -152 60 -229 269 -229h86v389s87 19 182 19c167 0 223 -81 223 -218v-190h230v632h92v-705h-412v251c0 113 -41 157 -142 157c-41 0 -84 -8 -84 -8v-400z" />
    <glyph glyph-name="uniFC44" unicode="&#xfc44;" horiz-adv-x="1346" arabic-form="isolated" 
d="M610 0h-187c-252 0 -349 101 -349 291c0 61 14 127 32 167l99 16c-24 -47 -39 -116 -39 -172c0 -152 60 -229 269 -229h86v389s87 19 182 19c167 0 223 -81 223 -218v-190h230v632h92v-705h-412v251c0 113 -41 157 -142 157c-41 0 -84 -8 -84 -8v-400zM276 -144
c0 29 23 53 52 53s52 -23 52 -53c0 -28 -23 -52 -52 -52s-52 24 -52 52zM421 -144c0 29 23 53 52 53c28 0 52 -23 52 -53c0 -28 -23 -52 -52 -52s-52 24 -52 52z" />
    <glyph glyph-name="uniFCD1" unicode="&#xfcd1;" horiz-adv-x="1294" arabic-form="initial" 
d="M1214 0h-828c-146 0 -198 38 -231 94c-15 -54 -61 -94 -144 -94h-26c-20 0 -60 13 -60 37c0 22 40 36 60 36h11c66 0 114 31 114 164c0 129 85 244 250 244c143 0 214 -81 214 -224v-184h192c35 0 58 -5 58 -5c-49 31 -74 84 -74 169c0 129 85 244 250 244
c143 0 214 -81 214 -224v-257zM484 73v169c0 119 -49 166 -132 166c-93 0 -149 -66 -149 -166c0 -114 54 -169 182 -169h99zM1124 73v169c0 119 -49 166 -132 166c-93 0 -149 -66 -149 -166c0 -114 54 -169 182 -169h99z" />
    <glyph glyph-name="uniFC48" unicode="&#xfc48;" horiz-adv-x="1265" arabic-form="isolated" 
d="M1184 0h-828c-107 0 -148 31 -177 71v-76c2 -138 -54 -258 -233 -258l3 73c134 0 140 111 140 184v222c0 160 90 265 249 265c143 0 214 -81 214 -224v-184h184c35 0 58 -5 58 -5c-49 31 -74 84 -74 169c0 129 85 244 250 244c143 0 214 -81 214 -224v-257zM1094 73v169
c0 119 -49 166 -132 166c-93 0 -149 -66 -149 -166c0 -114 54 -169 182 -169h99zM461 73v169c0 119 -49 166 -132 166c-92 0 -149 -66 -149 -166c0 -114 54 -169 183 -169h98z" />
    <glyph glyph-name="uniFCD5" unicode="&#xfcd5;" horiz-adv-x="994" arabic-form="initial" 
d="M896 0h-510c-146 0 -198 38 -231 94c-15 -54 -61 -94 -144 -94h-26c-20 0 -60 13 -60 37c0 22 40 36 60 36h11c66 0 114 31 114 164c0 129 85 244 250 244c143 0 214 -81 214 -224v-184h230v397h92v-470zM484 73v169c0 119 -49 166 -132 166c-93 0 -149 -66 -149 -166
c0 -114 54 -169 182 -169h99zM795 609c0 29 25 54 54 54c30 0 55 -24 55 -54s-25 -55 -55 -55c-29 0 -54 25 -54 55z" />
    <glyph glyph-name="uniFC4E" unicode="&#xfc4e;" horiz-adv-x="965" arabic-form="isolated" 
d="M866 0h-510c-107 0 -148 31 -177 71v-76c2 -138 -54 -258 -233 -258l3 73c134 0 140 111 140 184v222c0 160 90 265 249 265c143 0 214 -81 214 -224v-184h222v397h92v-470zM461 73v169c0 119 -49 166 -132 166c-92 0 -149 -66 -149 -166c0 -114 54 -169 183 -169h98z
M766 609c0 29 25 54 54 54c30 0 55 -24 55 -54s-25 -55 -55 -55c-29 0 -54 25 -54 55z" />
    <glyph glyph-name="uniFC50" unicode="&#xfc50;" horiz-adv-x="1346" arabic-form="isolated" 
d="M610 0h-187c-252 0 -349 101 -349 291c0 61 14 127 32 167l99 16c-24 -47 -39 -116 -39 -172c0 -152 60 -229 269 -229h86v389s87 19 182 19c167 0 223 -81 223 -218v-190h230v397h92v-470h-412v251c0 113 -41 157 -142 157c-41 0 -84 -8 -84 -8v-400zM1148 609
c0 29 25 54 54 54c30 0 55 -24 55 -54s-25 -55 -55 -55c-29 0 -54 25 -54 55zM276 -144c0 29 23 53 52 53s52 -23 52 -53c0 -28 -23 -52 -52 -52s-52 24 -52 52zM421 -144c0 29 23 53 52 53c28 0 52 -23 52 -53c0 -28 -23 -52 -52 -52s-52 24 -52 52z" />
    <glyph glyph-name="uniFCDD" unicode="&#xfcdd;" horiz-adv-x="994" arabic-form="initial" 
d="M896 0h-510c-146 0 -198 38 -231 94c-15 -54 -61 -94 -144 -94h-26c-20 0 -60 13 -60 37c0 22 40 36 60 36h11c66 0 114 31 114 164c0 129 85 244 250 244c143 0 214 -81 214 -224v-184h230v397h92v-470zM484 73v169c0 119 -49 166 -132 166c-93 0 -149 -66 -149 -166
c0 -114 54 -169 182 -169h99zM722 -144c0 29 23 53 52 53s52 -23 52 -53c0 -28 -23 -52 -52 -52s-52 24 -52 52zM867 -144c0 29 23 53 52 53c28 0 52 -23 52 -53c0 -28 -23 -52 -52 -52s-52 24 -52 52z" />
    <glyph glyph-name="uniFC58" unicode="&#xfc58;" horiz-adv-x="965" arabic-form="isolated" 
d="M866 0h-510c-107 0 -148 31 -177 71v-76c0 -138 -54 -258 -233 -258l3 73c134 0 140 111 140 184v222c0 160 90 265 249 265c143 0 214 -81 214 -224v-184h222v397h92v-470zM461 73v169c0 119 -49 166 -132 166c-92 0 -149 -66 -149 -166c0 -114 54 -169 183 -169h98z
M693 -144c0 29 23 53 52 53s52 -23 52 -53c0 -28 -23 -52 -52 -52s-52 24 -52 52zM838 -144c0 29 23 53 52 53c28 0 52 -23 52 -53c0 -28 -23 -52 -52 -52s-52 24 -52 52z" />
    <glyph glyph-name="uniFD88" unicode="&#xfd88;" horiz-adv-x="1522" arabic-form="initial" 
d="M554 0h-569c-20 0 -60 13 -60 37c0 22 40 36 60 36h373c5 35 7 70 7 103c0 151 -55 225 -218 225c-39 0 -83 -4 -120 -10v72c33 6 84 11 127 11c221 0 303 -101 303 -292c0 -31 -3 -68 -7 -109h89c66 0 114 31 114 164c0 129 85 244 250 244c143 0 214 -81 214 -224v-184
h215v632h92v-705h-495c-146 0 -198 38 -231 94c-15 -54 -61 -94 -144 -94zM1027 73v169c0 119 -49 166 -132 166c-93 0 -149 -66 -149 -166c0 -114 54 -169 182 -169h99z" />
    <glyph glyph-name=".notdef" horiz-adv-x="550" 
d="M300 150h-150v250h50v-200h100v-50zM500 50h-450v450h450v-450zM350 350h-100v50h150v-250h-50v100h-100v50h100v50zM100 100h350v350h-350v-350z" />
    <glyph glyph-name=".null" horiz-adv-x="0" 
 />
    <glyph glyph-name=".null" horiz-adv-x="0" 
 />
    <glyph glyph-name="CR" unicode="&#xd;" horiz-adv-x="500" 
 />
    <glyph glyph-name="space" unicode=" " horiz-adv-x="218" 
 />
    <glyph glyph-name="exclam" unicode="!" 
d="M222 703l-15 -535h-75l-16 535h106zM229 50c0 -33 -26 -59 -60 -59s-61 26 -61 59s27 60 61 60s60 -27 60 -60z" />
    <glyph glyph-name="quotedbl" unicode="&#x22;" horiz-adv-x="366" 
d="M314 699l-15 -230h-66l-14 230h95zM147 699l-14 -230h-67l-14 230h95z" />
    <glyph glyph-name="numbersign" unicode="#" horiz-adv-x="577" 
d="M544 429h-96l-19 -177h91v-62h-98l-20 -190h-72l20 190h-154l-20 -190h-72l20 190h-91v62h97l20 177h-93v62h99l19 184h73l-20 -184h153l20 184h73l-20 -184h90v-62zM375 429h-153l-19 -177h153z" />
    <glyph glyph-name="dollar" unicode="$" horiz-adv-x="489" 
d="M267 -105h-67v126c-47 1 -85 6 -124 15l6 84c36 -14 91 -22 131 -22c72 0 128 28 128 98c0 135 -283 84 -283 286c0 87 64 154 161 168v105h66v-101c39 -1 75 -6 105 -12l-5 -80c-38 11 -78 18 -113 18c-92 0 -123 -43 -123 -87c0 -130 286 -88 286 -285
c0 -91 -62 -164 -168 -183v-130z" />
    <glyph glyph-name="percent" unicode="%" horiz-adv-x="750" 
d="M706 152c0 -94 -60 -161 -150 -161c-97 0 -141 56 -141 152c0 92 59 160 150 160c94 0 141 -53 141 -151zM651 653l-497 -673l-58 40l497 674zM334 535c0 -95 -59 -163 -150 -163c-96 0 -140 58 -140 153c0 92 59 160 150 160c94 0 140 -53 140 -150zM632 146
c0 66 -22 97 -72 97c-42 0 -71 -37 -71 -94c0 -67 23 -98 74 -98c40 0 69 37 69 95zM261 528c0 66 -22 97 -73 97c-41 0 -70 -37 -70 -94c0 -67 23 -99 73 -99c41 0 70 38 70 96z" />
    <glyph glyph-name="ampersand" unicode="&#x26;" horiz-adv-x="797" 
d="M739 50l-58 -69c-49 34 -99 71 -140 105c-64 -57 -155 -95 -265 -95c-144 0 -220 84 -220 194c0 94 58 155 138 217c-74 85 -95 131 -95 183c0 81 63 151 177 151c104 0 160 -57 160 -135c0 -71 -38 -130 -123 -196c60 -63 149 -145 229 -209c33 44 60 109 62 184
c-23 4 -57 8 -81 10v50c50 6 115 10 172 7c6 -115 -27 -219 -89 -299c50 -38 95 -72 133 -98zM293 67c77 0 137 31 183 68c-82 68 -172 153 -230 214c-69 -55 -97 -99 -97 -152c0 -70 56 -130 144 -130zM347 592c0 41 -23 75 -79 75c-47 0 -80 -32 -80 -78
c0 -32 18 -70 73 -133c57 46 86 85 86 136z" />
    <glyph glyph-name="quotesingle" unicode="'" horiz-adv-x="199" 
d="M147 699l-14 -230h-67l-14 230h95z" />
    <glyph glyph-name="parenleft" unicode="(" horiz-adv-x="303" 
d="M283 -176l-67 -33c-118 187 -146 346 -146 493c0 145 34 318 147 497l64 -31c-80 -139 -123 -299 -123 -461c0 -171 41 -324 125 -465z" />
    <glyph glyph-name="parenright" unicode=")" horiz-adv-x="303" 
d="M91 -209l-64 32c81 138 123 298 123 461c0 171 -41 324 -124 465l67 32c117 -186 145 -345 145 -492c0 -146 -34 -318 -147 -498z" />
    <glyph glyph-name="asterisk" unicode="*" horiz-adv-x="373" 
d="M330 535l-34 -58l-90 66l11 -112h-67l12 112l-92 -66l-32 58l103 45l-103 46l33 58l91 -66l-11 112h67l-12 -112l91 66l33 -57l-103 -46z" />
    <glyph glyph-name="plus" unicode="+" horiz-adv-x="550" 
d="M508 260h-191v-201h-85v201h-190v75h190v200h85v-200h191v-75z" />
    <glyph glyph-name="comma" unicode="," horiz-adv-x="229" 
d="M64 -154l-39 34c65 69 67 115 44 144c-28 35 -5 90 43 90c74 0 107 -127 -48 -268z" />
    <glyph glyph-name="hyphen" unicode="-" horiz-adv-x="330" 
d="M283 250h-236v74h236v-74z" />
    <glyph glyph-name="period" unicode="." horiz-adv-x="229" 
d="M177 53c0 -34 -28 -62 -63 -62c-34 0 -62 28 -62 62s28 62 62 62c35 0 63 -28 63 -62z" />
    <glyph glyph-name="slash" unicode="/" horiz-adv-x="438" 
d="M439 757l-350 -918h-86l350 918h86z" />
    <glyph glyph-name="zero" unicode="0" horiz-adv-x="585" 
d="M537 344c0 -241 -113 -352 -252 -352c-144 0 -237 94 -237 339c0 241 114 352 252 352c145 0 237 -94 237 -339zM441 335c0 188 -50 273 -148 273c-84 0 -149 -73 -149 -269c0 -187 51 -272 148 -272c85 0 149 73 149 268z" />
    <glyph glyph-name="one" unicode="1" horiz-adv-x="352" 
d="M261 0h-93v583l-127 -51l-15 85l162 58h73v-675z" />
    <glyph glyph-name="two" unicode="2" horiz-adv-x="501" 
d="M453 0h-392v75l125 145c114 129 144 196 144 268c0 64 -38 116 -118 116c-44 0 -94 -18 -132 -41l-13 82c46 23 100 39 169 39c126 0 192 -79 192 -182c0 -93 -43 -178 -164 -315l-89 -104v-1c60 3 164 4 278 4v-86z" />
    <glyph glyph-name="three" unicode="3" horiz-adv-x="489" 
d="M58 3l11 81c26 -9 65 -14 103 -14c100 0 159 56 159 127s-59 119 -174 119c-24 0 -44 -2 -63 -4v73c152 -4 213 45 213 125c0 61 -40 98 -111 98c-42 0 -81 -11 -117 -30l-8 77c42 17 93 29 145 29c127 0 186 -70 186 -157c0 -77 -44 -136 -113 -161l-1 -2
c83 -19 140 -78 140 -161c0 -123 -109 -211 -261 -211c-41 0 -83 4 -109 11z" />
    <glyph glyph-name="four" unicode="4" horiz-adv-x="544" 
d="M524 158h-113v-158h-89v158h-299l-6 70l273 447h121v-435h113v-82zM323 239v351h-1l-217 -353c59 2 180 2 218 2z" />
    <glyph glyph-name="five" unicode="5" horiz-adv-x="463" 
d="M56 3l11 82c24 -9 62 -14 96 -14c104 0 168 56 168 140c0 83 -60 126 -195 126c-17 0 -39 0 -57 -2v340h311v-87l-226 1v-178c177 1 262 -70 262 -188c0 -139 -113 -230 -270 -230c-36 0 -75 4 -100 10z" />
    <glyph glyph-name="six" unicode="6" horiz-adv-x="576" 
d="M467 681v-82c-21 5 -43 6 -66 6c-126 0 -204 -65 -232 -209l-8 -42l1 -1c30 40 87 73 162 73c126 0 204 -81 204 -201c0 -134 -96 -234 -237 -234c-185 0 -225 167 -225 290c0 281 152 402 341 402c24 0 47 -1 60 -2zM434 211c0 83 -46 140 -131 140
c-84 0 -137 -61 -137 -131c0 -92 49 -153 134 -153c78 0 134 57 134 144z" />
    <glyph glyph-name="seven" unicode="7" horiz-adv-x="455" 
d="M426 675v-78c-80 -173 -159 -411 -199 -597h-102c51 213 141 460 200 589c-31 -2 -241 -2 -300 -2v88h401z" />
    <glyph glyph-name="eight" unicode="8" horiz-adv-x="551" 
d="M493 173c0 -117 -102 -183 -228 -183c-136 0 -209 71 -209 169c0 84 65 139 136 184c-80 46 -125 96 -125 167c0 107 87 178 216 178c121 0 196 -68 196 -160c0 -79 -62 -129 -130 -174c83 -46 144 -99 144 -181zM386 520c0 52 -37 95 -111 95c-73 0 -116 -39 -116 -95
c0 -54 44 -89 117 -128c77 48 110 83 110 128zM398 164c0 67 -64 105 -133 142c-61 -38 -114 -77 -114 -138c0 -62 46 -102 124 -102c68 0 123 34 123 98z" />
    </font>
</defs>
</svg>
